  0
SECTION
  2
HEADER
  9
$ANGBASE
  50
0.0
  9
$ANGDIR
  70
1
  9
$MEASUREMENT
  70
0
  0
ENDSEC
  0
SECTION
  2
TABLES
  0
TABLE
  2
LTYPE
  70
4
  0
LTYPE
  5
40F
  2
CONTINUOUS
  70
0
  3
Solid line
  72
65
  73
0
  40
0.0
  0
LTYPE
  5
410
  2
DASHDOT
 70
0
  3
Dash Dot ____ _ ____ _
 72
65
 73
4
 40
2.0
 49
1.25
 49
-0.25
 49
0.25
 49
-0.25
  0
LTYPE
  5
411
  2
DASHED
 70
0
  3
Dashed __ __ __ __ __
 72
65
 73
2
 40
0.75
 49
0.5
 49
-0.25
  0
LTYPE
  5
43B
  2
DOTTED
 70
0
  3
Dotted .  .  .  .
 72
65
 73
2
 40
0.2
 49
0.0
 49
-0.2
  0
ENDTAB
  0
TABLE
  2
STYLE
  70
4
  0
STYLE
  2
KICAD
  70
0
  40
0
  41
1
  42
1
  50
0
  71
0
  3
isocp.shx
  0
STYLE
  2
KICADB
  70
0
  40
0
  41
1
  42
1
  50
0
  71
0
  3
isocp.shx
  0
STYLE
  2
KICADI
  70
0
  40
0
  41
1
  42
1
  50
15
  71
0
  3
isocp.shx
  0
STYLE
  2
KICADBI
  70
0
  40
0
  41
1
  42
1
  50
15
  71
0
  3
isocp.shx
  0
ENDTAB
  0
TABLE
  2
LAYER
  70
1
  0
LAYER
  2
BLACK
  70
0
  62
7
  6
CONTINUOUS
  0
ENDTAB
  0
ENDSEC
  0
SECTION
  2
ENTITIES
0
LINE
8
BLACK
6
CONTINUOUS
10
0.219063
20
0.32481
11
0.232949
21
0.322451
0
LINE
8
BLACK
6
CONTINUOUS
10
0.232949
20
0.322451
11
0.246483
21
0.318552
0
LINE
8
BLACK
6
CONTINUOUS
10
0.246483
20
0.318552
11
0.259496
21
0.313162
0
LINE
8
BLACK
6
CONTINUOUS
10
0.259496
20
0.313162
11
0.271823
21
0.306349
0
LINE
8
BLACK
6
CONTINUOUS
10
0.271823
20
0.306349
11
0.28331
21
0.298198
0
LINE
8
BLACK
6
CONTINUOUS
10
0.28331
20
0.298198
11
0.293813
21
0.288813
0
LINE
8
BLACK
6
CONTINUOUS
10
0.293813
20
0.288813
11
0.303198
21
0.27831
0
LINE
8
BLACK
6
CONTINUOUS
10
0.303198
20
0.27831
11
0.311349
21
0.266823
0
LINE
8
BLACK
6
CONTINUOUS
10
0.311349
20
0.266823
11
0.318162
21
0.254496
0
LINE
8
BLACK
6
CONTINUOUS
10
0.318162
20
0.254496
11
0.323552
21
0.241483
0
LINE
8
BLACK
6
CONTINUOUS
10
0.323552
20
0.241483
11
0.327451
21
0.227949
0
LINE
8
BLACK
6
CONTINUOUS
10
0.327451
20
0.227949
11
0.32981
21
0.214063
0
LINE
8
BLACK
6
CONTINUOUS
10
0.32981
20
0.214063
11
0.3306
21
0.2
0
LINE
8
BLACK
6
CONTINUOUS
10
0.3306
20
0.2
11
0.32981
21
0.185937
0
LINE
8
BLACK
6
CONTINUOUS
10
0.32981
20
0.185937
11
0.327451
21
0.172051
0
LINE
8
BLACK
6
CONTINUOUS
10
0.327451
20
0.172051
11
0.323552
21
0.158517
0
LINE
8
BLACK
6
CONTINUOUS
10
0.323552
20
0.158517
11
0.318162
21
0.145504
0
LINE
8
BLACK
6
CONTINUOUS
10
0.318162
20
0.145504
11
0.311349
21
0.133177
0
LINE
8
BLACK
6
CONTINUOUS
10
0.311349
20
0.133177
11
0.303198
21
0.12169
0
LINE
8
BLACK
6
CONTINUOUS
10
0.303198
20
0.12169
11
0.293813
21
0.111187
0
LINE
8
BLACK
6
CONTINUOUS
10
0.293813
20
0.111187
11
0.28331
21
0.101802
0
LINE
8
BLACK
6
CONTINUOUS
10
0.28331
20
0.101802
11
0.271823
21
0.0936515
0
LINE
8
BLACK
6
CONTINUOUS
10
0.271823
20
0.0936515
11
0.259496
21
0.0868383
0
LINE
8
BLACK
6
CONTINUOUS
10
0.259496
20
0.0868383
11
0.246483
21
0.0814483
0
LINE
8
BLACK
6
CONTINUOUS
10
0.246483
20
0.0814483
11
0.232949
21
0.0775491
0
LINE
8
BLACK
6
CONTINUOUS
10
0.232949
20
0.0775491
11
0.219063
21
0.0751898
0
LINE
8
BLACK
6
CONTINUOUS
10
0.219063
20
0.0751898
11
0.205
21
0.0744
0
LINE
8
BLACK
6
CONTINUOUS
10
0.205
20
0.0744
11
0.190937
21
0.0751898
0
LINE
8
BLACK
6
CONTINUOUS
10
0.190937
20
0.0751898
11
0.177051
21
0.0775491
0
LINE
8
BLACK
6
CONTINUOUS
10
0.177051
20
0.0775491
11
0.163517
21
0.0814483
0
LINE
8
BLACK
6
CONTINUOUS
10
0.163517
20
0.0814483
11
0.150504
21
0.0868383
0
LINE
8
BLACK
6
CONTINUOUS
10
0.150504
20
0.0868383
11
0.138177
21
0.0936515
0
LINE
8
BLACK
6
CONTINUOUS
10
0.138177
20
0.0936515
11
0.12669
21
0.101802
0
LINE
8
BLACK
6
CONTINUOUS
10
0.12669
20
0.101802
11
0.116187
21
0.111187
0
LINE
8
BLACK
6
CONTINUOUS
10
0.116187
20
0.111187
11
0.106802
21
0.12169
0
LINE
8
BLACK
6
CONTINUOUS
10
0.106802
20
0.12169
11
0.0986515
21
0.133177
0
LINE
8
BLACK
6
CONTINUOUS
10
0.0986515
20
0.133177
11
0.0918383
21
0.145504
0
LINE
8
BLACK
6
CONTINUOUS
10
0.0918383
20
0.145504
11
0.0864483
21
0.158517
0
LINE
8
BLACK
6
CONTINUOUS
10
0.0864483
20
0.158517
11
0.0825491
21
0.172051
0
LINE
8
BLACK
6
CONTINUOUS
10
0.0825491
20
0.172051
11
0.0801898
21
0.185937
0
LINE
8
BLACK
6
CONTINUOUS
10
0.0801898
20
0.185937
11
0.0794
21
0.2
0
LINE
8
BLACK
6
CONTINUOUS
10
0.0794
20
0.2
11
0.0801898
21
0.214063
0
LINE
8
BLACK
6
CONTINUOUS
10
0.0801898
20
0.214063
11
0.0825491
21
0.227949
0
LINE
8
BLACK
6
CONTINUOUS
10
0.0825491
20
0.227949
11
0.0864483
21
0.241483
0
LINE
8
BLACK
6
CONTINUOUS
10
0.0864483
20
0.241483
11
0.0918383
21
0.254496
0
LINE
8
BLACK
6
CONTINUOUS
10
0.0918383
20
0.254496
11
0.0986515
21
0.266823
0
LINE
8
BLACK
6
CONTINUOUS
10
0.0986515
20
0.266823
11
0.106802
21
0.27831
0
LINE
8
BLACK
6
CONTINUOUS
10
0.106802
20
0.27831
11
0.116187
21
0.288813
0
LINE
8
BLACK
6
CONTINUOUS
10
0.116187
20
0.288813
11
0.12669
21
0.298198
0
LINE
8
BLACK
6
CONTINUOUS
10
0.12669
20
0.298198
11
0.138177
21
0.306349
0
LINE
8
BLACK
6
CONTINUOUS
10
0.138177
20
0.306349
11
0.150504
21
0.313162
0
LINE
8
BLACK
6
CONTINUOUS
10
0.150504
20
0.313162
11
0.163517
21
0.318552
0
LINE
8
BLACK
6
CONTINUOUS
10
0.163517
20
0.318552
11
0.177051
21
0.322451
0
LINE
8
BLACK
6
CONTINUOUS
10
0.177051
20
0.322451
11
0.190937
21
0.32481
0
LINE
8
BLACK
6
CONTINUOUS
10
0.190937
20
0.32481
11
0.205
21
0.3256
0
LINE
8
BLACK
6
CONTINUOUS
10
0.205
20
0.3256
11
0.219063
21
0.32481
0
LINE
8
BLACK
6
CONTINUOUS
10
0.0949617
20
0.187138
11
0.0971989
21
0.174451
0
LINE
8
BLACK
6
CONTINUOUS
10
0.0971989
20
0.174451
11
0.100894
21
0.162108
0
LINE
8
BLACK
6
CONTINUOUS
10
0.100894
20
0.162108
11
0.105997
21
0.150279
0
LINE
8
BLACK
6
CONTINUOUS
10
0.105997
20
0.150279
11
0.112438
21
0.139121
0
LINE
8
BLACK
6
CONTINUOUS
10
0.112438
20
0.139121
11
0.120132
21
0.128787
0
LINE
8
BLACK
6
CONTINUOUS
10
0.120132
20
0.128787
11
0.128973
21
0.119416
0
LINE
8
BLACK
6
CONTINUOUS
10
0.128973
20
0.119416
11
0.138842
21
0.111135
0
LINE
8
BLACK
6
CONTINUOUS
10
0.138842
20
0.111135
11
0.149606
21
0.104055
0
LINE
8
BLACK
6
CONTINUOUS
10
0.149606
20
0.104055
11
0.161119
21
0.0982732
0
LINE
8
BLACK
6
CONTINUOUS
10
0.161119
20
0.0982732
11
0.173226
21
0.0938668
0
LINE
8
BLACK
6
CONTINUOUS
10
0.173226
20
0.0938668
11
0.185762
21
0.0908957
0
LINE
8
BLACK
6
CONTINUOUS
10
0.185762
20
0.0908957
11
0.198558
21
0.0894
0
LINE
8
BLACK
6
CONTINUOUS
10
0.198558
20
0.0894
11
0.211442
21
0.0894
0
LINE
8
BLACK
6
CONTINUOUS
10
0.211442
20
0.0894
11
0.224238
21
0.0908957
0
LINE
8
BLACK
6
CONTINUOUS
10
0.224238
20
0.0908957
11
0.236774
21
0.0938668
0
LINE
8
BLACK
6
CONTINUOUS
10
0.236774
20
0.0938668
11
0.248881
21
0.0982732
0
LINE
8
BLACK
6
CONTINUOUS
10
0.248881
20
0.0982732
11
0.260394
21
0.104055
0
LINE
8
BLACK
6
CONTINUOUS
10
0.260394
20
0.104055
11
0.271158
21
0.111135
0
LINE
8
BLACK
6
CONTINUOUS
10
0.271158
20
0.111135
11
0.281027
21
0.119416
0
LINE
8
BLACK
6
CONTINUOUS
10
0.281027
20
0.119416
11
0.289868
21
0.128787
0
LINE
8
BLACK
6
CONTINUOUS
10
0.289868
20
0.128787
11
0.297562
21
0.139121
0
LINE
8
BLACK
6
CONTINUOUS
10
0.297562
20
0.139121
11
0.304003
21
0.150279
0
LINE
8
BLACK
6
CONTINUOUS
10
0.304003
20
0.150279
11
0.309106
21
0.162108
0
LINE
8
BLACK
6
CONTINUOUS
10
0.309106
20
0.162108
11
0.312801
21
0.174451
0
LINE
8
BLACK
6
CONTINUOUS
10
0.312801
20
0.174451
11
0.315038
21
0.187138
0
LINE
8
BLACK
6
CONTINUOUS
10
0.315038
20
0.187138
11
0.315787
21
0.2
0
LINE
8
BLACK
6
CONTINUOUS
10
0.315787
20
0.2
11
0.315038
21
0.212862
0
LINE
8
BLACK
6
CONTINUOUS
10
0.315038
20
0.212862
11
0.312801
21
0.225549
0
LINE
8
BLACK
6
CONTINUOUS
10
0.312801
20
0.225549
11
0.309106
21
0.237892
0
LINE
8
BLACK
6
CONTINUOUS
10
0.309106
20
0.237892
11
0.304003
21
0.249721
0
LINE
8
BLACK
6
CONTINUOUS
10
0.304003
20
0.249721
11
0.297562
21
0.260879
0
LINE
8
BLACK
6
CONTINUOUS
10
0.297562
20
0.260879
11
0.289868
21
0.271213
0
LINE
8
BLACK
6
CONTINUOUS
10
0.289868
20
0.271213
11
0.281027
21
0.280584
0
LINE
8
BLACK
6
CONTINUOUS
10
0.281027
20
0.280584
11
0.271158
21
0.288865
0
LINE
8
BLACK
6
CONTINUOUS
10
0.271158
20
0.288865
11
0.260394
21
0.295945
0
LINE
8
BLACK
6
CONTINUOUS
10
0.260394
20
0.295945
11
0.248881
21
0.301727
0
LINE
8
BLACK
6
CONTINUOUS
10
0.248881
20
0.301727
11
0.236774
21
0.306133
0
LINE
8
BLACK
6
CONTINUOUS
10
0.236774
20
0.306133
11
0.224238
21
0.309104
0
LINE
8
BLACK
6
CONTINUOUS
10
0.224238
20
0.309104
11
0.211442
21
0.3106
0
LINE
8
BLACK
6
CONTINUOUS
10
0.211442
20
0.3106
11
0.198558
21
0.3106
0
LINE
8
BLACK
6
CONTINUOUS
10
0.198558
20
0.3106
11
0.185762
21
0.309104
0
LINE
8
BLACK
6
CONTINUOUS
10
0.185762
20
0.309104
11
0.173226
21
0.306133
0
LINE
8
BLACK
6
CONTINUOUS
10
0.173226
20
0.306133
11
0.161119
21
0.301727
0
LINE
8
BLACK
6
CONTINUOUS
10
0.161119
20
0.301727
11
0.149606
21
0.295945
0
LINE
8
BLACK
6
CONTINUOUS
10
0.149606
20
0.295945
11
0.138842
21
0.288865
0
LINE
8
BLACK
6
CONTINUOUS
10
0.138842
20
0.288865
11
0.128973
21
0.280584
0
LINE
8
BLACK
6
CONTINUOUS
10
0.128973
20
0.280584
11
0.120132
21
0.271213
0
LINE
8
BLACK
6
CONTINUOUS
10
0.120132
20
0.271213
11
0.112438
21
0.260879
0
LINE
8
BLACK
6
CONTINUOUS
10
0.112438
20
0.260879
11
0.105997
21
0.249721
0
LINE
8
BLACK
6
CONTINUOUS
10
0.105997
20
0.249721
11
0.100894
21
0.237892
0
LINE
8
BLACK
6
CONTINUOUS
10
0.100894
20
0.237892
11
0.0971989
21
0.225549
0
LINE
8
BLACK
6
CONTINUOUS
10
0.0971989
20
0.225549
11
0.0949617
21
0.212862
0
LINE
8
BLACK
6
CONTINUOUS
10
0.0949617
20
0.212862
11
0.0942126
21
0.2
0
LINE
8
BLACK
6
CONTINUOUS
10
0.0942126
20
0.2
11
0.0949617
21
0.187138
0
LINE
8
BLACK
6
CONTINUOUS
10
0.619063
20
0.32481
11
0.632949
21
0.322451
0
LINE
8
BLACK
6
CONTINUOUS
10
0.632949
20
0.322451
11
0.646483
21
0.318552
0
LINE
8
BLACK
6
CONTINUOUS
10
0.646483
20
0.318552
11
0.659496
21
0.313162
0
LINE
8
BLACK
6
CONTINUOUS
10
0.659496
20
0.313162
11
0.671823
21
0.306349
0
LINE
8
BLACK
6
CONTINUOUS
10
0.671823
20
0.306349
11
0.68331
21
0.298198
0
LINE
8
BLACK
6
CONTINUOUS
10
0.68331
20
0.298198
11
0.693813
21
0.288813
0
LINE
8
BLACK
6
CONTINUOUS
10
0.693813
20
0.288813
11
0.703198
21
0.27831
0
LINE
8
BLACK
6
CONTINUOUS
10
0.703198
20
0.27831
11
0.711349
21
0.266823
0
LINE
8
BLACK
6
CONTINUOUS
10
0.711349
20
0.266823
11
0.718162
21
0.254496
0
LINE
8
BLACK
6
CONTINUOUS
10
0.718162
20
0.254496
11
0.723552
21
0.241483
0
LINE
8
BLACK
6
CONTINUOUS
10
0.723552
20
0.241483
11
0.727451
21
0.227949
0
LINE
8
BLACK
6
CONTINUOUS
10
0.727451
20
0.227949
11
0.72981
21
0.214063
0
LINE
8
BLACK
6
CONTINUOUS
10
0.72981
20
0.214063
11
0.7306
21
0.2
0
LINE
8
BLACK
6
CONTINUOUS
10
0.7306
20
0.2
11
0.72981
21
0.185937
0
LINE
8
BLACK
6
CONTINUOUS
10
0.72981
20
0.185937
11
0.727451
21
0.172051
0
LINE
8
BLACK
6
CONTINUOUS
10
0.727451
20
0.172051
11
0.723552
21
0.158517
0
LINE
8
BLACK
6
CONTINUOUS
10
0.723552
20
0.158517
11
0.718162
21
0.145504
0
LINE
8
BLACK
6
CONTINUOUS
10
0.718162
20
0.145504
11
0.711349
21
0.133177
0
LINE
8
BLACK
6
CONTINUOUS
10
0.711349
20
0.133177
11
0.703198
21
0.12169
0
LINE
8
BLACK
6
CONTINUOUS
10
0.703198
20
0.12169
11
0.693813
21
0.111187
0
LINE
8
BLACK
6
CONTINUOUS
10
0.693813
20
0.111187
11
0.68331
21
0.101802
0
LINE
8
BLACK
6
CONTINUOUS
10
0.68331
20
0.101802
11
0.671823
21
0.0936515
0
LINE
8
BLACK
6
CONTINUOUS
10
0.671823
20
0.0936515
11
0.659496
21
0.0868383
0
LINE
8
BLACK
6
CONTINUOUS
10
0.659496
20
0.0868383
11
0.646483
21
0.0814483
0
LINE
8
BLACK
6
CONTINUOUS
10
0.646483
20
0.0814483
11
0.632949
21
0.0775491
0
LINE
8
BLACK
6
CONTINUOUS
10
0.632949
20
0.0775491
11
0.619063
21
0.0751898
0
LINE
8
BLACK
6
CONTINUOUS
10
0.619063
20
0.0751898
11
0.605
21
0.0744
0
LINE
8
BLACK
6
CONTINUOUS
10
0.605
20
0.0744
11
0.590937
21
0.0751898
0
LINE
8
BLACK
6
CONTINUOUS
10
0.590937
20
0.0751898
11
0.577051
21
0.0775491
0
LINE
8
BLACK
6
CONTINUOUS
10
0.577051
20
0.0775491
11
0.563517
21
0.0814483
0
LINE
8
BLACK
6
CONTINUOUS
10
0.563517
20
0.0814483
11
0.550504
21
0.0868383
0
LINE
8
BLACK
6
CONTINUOUS
10
0.550504
20
0.0868383
11
0.538177
21
0.0936515
0
LINE
8
BLACK
6
CONTINUOUS
10
0.538177
20
0.0936515
11
0.52669
21
0.101802
0
LINE
8
BLACK
6
CONTINUOUS
10
0.52669
20
0.101802
11
0.516187
21
0.111187
0
LINE
8
BLACK
6
CONTINUOUS
10
0.516187
20
0.111187
11
0.506802
21
0.12169
0
LINE
8
BLACK
6
CONTINUOUS
10
0.506802
20
0.12169
11
0.498651
21
0.133177
0
LINE
8
BLACK
6
CONTINUOUS
10
0.498651
20
0.133177
11
0.491838
21
0.145504
0
LINE
8
BLACK
6
CONTINUOUS
10
0.491838
20
0.145504
11
0.486448
21
0.158517
0
LINE
8
BLACK
6
CONTINUOUS
10
0.486448
20
0.158517
11
0.482549
21
0.172051
0
LINE
8
BLACK
6
CONTINUOUS
10
0.482549
20
0.172051
11
0.48019
21
0.185937
0
LINE
8
BLACK
6
CONTINUOUS
10
0.48019
20
0.185937
11
0.4794
21
0.2
0
LINE
8
BLACK
6
CONTINUOUS
10
0.4794
20
0.2
11
0.48019
21
0.214063
0
LINE
8
BLACK
6
CONTINUOUS
10
0.48019
20
0.214063
11
0.482549
21
0.227949
0
LINE
8
BLACK
6
CONTINUOUS
10
0.482549
20
0.227949
11
0.486448
21
0.241483
0
LINE
8
BLACK
6
CONTINUOUS
10
0.486448
20
0.241483
11
0.491838
21
0.254496
0
LINE
8
BLACK
6
CONTINUOUS
10
0.491838
20
0.254496
11
0.498651
21
0.266823
0
LINE
8
BLACK
6
CONTINUOUS
10
0.498651
20
0.266823
11
0.506802
21
0.27831
0
LINE
8
BLACK
6
CONTINUOUS
10
0.506802
20
0.27831
11
0.516187
21
0.288813
0
LINE
8
BLACK
6
CONTINUOUS
10
0.516187
20
0.288813
11
0.52669
21
0.298198
0
LINE
8
BLACK
6
CONTINUOUS
10
0.52669
20
0.298198
11
0.538177
21
0.306349
0
LINE
8
BLACK
6
CONTINUOUS
10
0.538177
20
0.306349
11
0.550504
21
0.313162
0
LINE
8
BLACK
6
CONTINUOUS
10
0.550504
20
0.313162
11
0.563517
21
0.318552
0
LINE
8
BLACK
6
CONTINUOUS
10
0.563517
20
0.318552
11
0.577051
21
0.322451
0
LINE
8
BLACK
6
CONTINUOUS
10
0.577051
20
0.322451
11
0.590937
21
0.32481
0
LINE
8
BLACK
6
CONTINUOUS
10
0.590937
20
0.32481
11
0.605
21
0.3256
0
LINE
8
BLACK
6
CONTINUOUS
10
0.605
20
0.3256
11
0.619063
21
0.32481
0
LINE
8
BLACK
6
CONTINUOUS
10
0.494962
20
0.187138
11
0.497199
21
0.174451
0
LINE
8
BLACK
6
CONTINUOUS
10
0.497199
20
0.174451
11
0.500894
21
0.162108
0
LINE
8
BLACK
6
CONTINUOUS
10
0.500894
20
0.162108
11
0.505997
21
0.150279
0
LINE
8
BLACK
6
CONTINUOUS
10
0.505997
20
0.150279
11
0.512438
21
0.139121
0
LINE
8
BLACK
6
CONTINUOUS
10
0.512438
20
0.139121
11
0.520132
21
0.128787
0
LINE
8
BLACK
6
CONTINUOUS
10
0.520132
20
0.128787
11
0.528973
21
0.119416
0
LINE
8
BLACK
6
CONTINUOUS
10
0.528973
20
0.119416
11
0.538842
21
0.111135
0
LINE
8
BLACK
6
CONTINUOUS
10
0.538842
20
0.111135
11
0.549606
21
0.104055
0
LINE
8
BLACK
6
CONTINUOUS
10
0.549606
20
0.104055
11
0.561119
21
0.0982732
0
LINE
8
BLACK
6
CONTINUOUS
10
0.561119
20
0.0982732
11
0.573226
21
0.0938668
0
LINE
8
BLACK
6
CONTINUOUS
10
0.573226
20
0.0938668
11
0.585762
21
0.0908957
0
LINE
8
BLACK
6
CONTINUOUS
10
0.585762
20
0.0908957
11
0.598558
21
0.0894
0
LINE
8
BLACK
6
CONTINUOUS
10
0.598558
20
0.0894
11
0.611442
21
0.0894
0
LINE
8
BLACK
6
CONTINUOUS
10
0.611442
20
0.0894
11
0.624238
21
0.0908957
0
LINE
8
BLACK
6
CONTINUOUS
10
0.624238
20
0.0908957
11
0.636774
21
0.0938668
0
LINE
8
BLACK
6
CONTINUOUS
10
0.636774
20
0.0938668
11
0.648881
21
0.0982732
0
LINE
8
BLACK
6
CONTINUOUS
10
0.648881
20
0.0982732
11
0.660394
21
0.104055
0
LINE
8
BLACK
6
CONTINUOUS
10
0.660394
20
0.104055
11
0.671158
21
0.111135
0
LINE
8
BLACK
6
CONTINUOUS
10
0.671158
20
0.111135
11
0.681027
21
0.119416
0
LINE
8
BLACK
6
CONTINUOUS
10
0.681027
20
0.119416
11
0.689868
21
0.128787
0
LINE
8
BLACK
6
CONTINUOUS
10
0.689868
20
0.128787
11
0.697562
21
0.139121
0
LINE
8
BLACK
6
CONTINUOUS
10
0.697562
20
0.139121
11
0.704003
21
0.150279
0
LINE
8
BLACK
6
CONTINUOUS
10
0.704003
20
0.150279
11
0.709106
21
0.162108
0
LINE
8
BLACK
6
CONTINUOUS
10
0.709106
20
0.162108
11
0.712801
21
0.174451
0
LINE
8
BLACK
6
CONTINUOUS
10
0.712801
20
0.174451
11
0.715038
21
0.187138
0
LINE
8
BLACK
6
CONTINUOUS
10
0.715038
20
0.187138
11
0.715787
21
0.2
0
LINE
8
BLACK
6
CONTINUOUS
10
0.715787
20
0.2
11
0.715038
21
0.212862
0
LINE
8
BLACK
6
CONTINUOUS
10
0.715038
20
0.212862
11
0.712801
21
0.225549
0
LINE
8
BLACK
6
CONTINUOUS
10
0.712801
20
0.225549
11
0.709106
21
0.237892
0
LINE
8
BLACK
6
CONTINUOUS
10
0.709106
20
0.237892
11
0.704003
21
0.249721
0
LINE
8
BLACK
6
CONTINUOUS
10
0.704003
20
0.249721
11
0.697562
21
0.260879
0
LINE
8
BLACK
6
CONTINUOUS
10
0.697562
20
0.260879
11
0.689868
21
0.271213
0
LINE
8
BLACK
6
CONTINUOUS
10
0.689868
20
0.271213
11
0.681027
21
0.280584
0
LINE
8
BLACK
6
CONTINUOUS
10
0.681027
20
0.280584
11
0.671158
21
0.288865
0
LINE
8
BLACK
6
CONTINUOUS
10
0.671158
20
0.288865
11
0.660394
21
0.295945
0
LINE
8
BLACK
6
CONTINUOUS
10
0.660394
20
0.295945
11
0.648881
21
0.301727
0
LINE
8
BLACK
6
CONTINUOUS
10
0.648881
20
0.301727
11
0.636774
21
0.306133
0
LINE
8
BLACK
6
CONTINUOUS
10
0.636774
20
0.306133
11
0.624238
21
0.309104
0
LINE
8
BLACK
6
CONTINUOUS
10
0.624238
20
0.309104
11
0.611442
21
0.3106
0
LINE
8
BLACK
6
CONTINUOUS
10
0.611442
20
0.3106
11
0.598558
21
0.3106
0
LINE
8
BLACK
6
CONTINUOUS
10
0.598558
20
0.3106
11
0.585762
21
0.309104
0
LINE
8
BLACK
6
CONTINUOUS
10
0.585762
20
0.309104
11
0.573226
21
0.306133
0
LINE
8
BLACK
6
CONTINUOUS
10
0.573226
20
0.306133
11
0.561119
21
0.301727
0
LINE
8
BLACK
6
CONTINUOUS
10
0.561119
20
0.301727
11
0.549606
21
0.295945
0
LINE
8
BLACK
6
CONTINUOUS
10
0.549606
20
0.295945
11
0.538842
21
0.288865
0
LINE
8
BLACK
6
CONTINUOUS
10
0.538842
20
0.288865
11
0.528973
21
0.280584
0
LINE
8
BLACK
6
CONTINUOUS
10
0.528973
20
0.280584
11
0.520132
21
0.271213
0
LINE
8
BLACK
6
CONTINUOUS
10
0.520132
20
0.271213
11
0.512438
21
0.260879
0
LINE
8
BLACK
6
CONTINUOUS
10
0.512438
20
0.260879
11
0.505997
21
0.249721
0
LINE
8
BLACK
6
CONTINUOUS
10
0.505997
20
0.249721
11
0.500894
21
0.237892
0
LINE
8
BLACK
6
CONTINUOUS
10
0.500894
20
0.237892
11
0.497199
21
0.225549
0
LINE
8
BLACK
6
CONTINUOUS
10
0.497199
20
0.225549
11
0.494962
21
0.212862
0
LINE
8
BLACK
6
CONTINUOUS
10
0.494962
20
0.212862
11
0.494213
21
0.2
0
LINE
8
BLACK
6
CONTINUOUS
10
0.494213
20
0.2
11
0.494962
21
0.187138
0
LINE
8
BLACK
6
CONTINUOUS
10
0.219063
20
1.52481
11
0.232949
21
1.52245
0
LINE
8
BLACK
6
CONTINUOUS
10
0.232949
20
1.52245
11
0.246483
21
1.51855
0
LINE
8
BLACK
6
CONTINUOUS
10
0.246483
20
1.51855
11
0.259496
21
1.51316
0
LINE
8
BLACK
6
CONTINUOUS
10
0.259496
20
1.51316
11
0.271823
21
1.50635
0
LINE
8
BLACK
6
CONTINUOUS
10
0.271823
20
1.50635
11
0.28331
21
1.4982
0
LINE
8
BLACK
6
CONTINUOUS
10
0.28331
20
1.4982
11
0.293813
21
1.48881
0
LINE
8
BLACK
6
CONTINUOUS
10
0.293813
20
1.48881
11
0.303198
21
1.47831
0
LINE
8
BLACK
6
CONTINUOUS
10
0.303198
20
1.47831
11
0.311349
21
1.46682
0
LINE
8
BLACK
6
CONTINUOUS
10
0.311349
20
1.46682
11
0.318162
21
1.4545
0
LINE
8
BLACK
6
CONTINUOUS
10
0.318162
20
1.4545
11
0.323552
21
1.44148
0
LINE
8
BLACK
6
CONTINUOUS
10
0.323552
20
1.44148
11
0.327451
21
1.42795
0
LINE
8
BLACK
6
CONTINUOUS
10
0.327451
20
1.42795
11
0.32981
21
1.41406
0
LINE
8
BLACK
6
CONTINUOUS
10
0.32981
20
1.41406
11
0.3306
21
1.4
0
LINE
8
BLACK
6
CONTINUOUS
10
0.3306
20
1.4
11
0.32981
21
1.38594
0
LINE
8
BLACK
6
CONTINUOUS
10
0.32981
20
1.38594
11
0.327451
21
1.37205
0
LINE
8
BLACK
6
CONTINUOUS
10
0.327451
20
1.37205
11
0.323552
21
1.35852
0
LINE
8
BLACK
6
CONTINUOUS
10
0.323552
20
1.35852
11
0.318162
21
1.3455
0
LINE
8
BLACK
6
CONTINUOUS
10
0.318162
20
1.3455
11
0.311349
21
1.33318
0
LINE
8
BLACK
6
CONTINUOUS
10
0.311349
20
1.33318
11
0.303198
21
1.32169
0
LINE
8
BLACK
6
CONTINUOUS
10
0.303198
20
1.32169
11
0.293813
21
1.31119
0
LINE
8
BLACK
6
CONTINUOUS
10
0.293813
20
1.31119
11
0.28331
21
1.3018
0
LINE
8
BLACK
6
CONTINUOUS
10
0.28331
20
1.3018
11
0.271823
21
1.29365
0
LINE
8
BLACK
6
CONTINUOUS
10
0.271823
20
1.29365
11
0.259496
21
1.28684
0
LINE
8
BLACK
6
CONTINUOUS
10
0.259496
20
1.28684
11
0.246483
21
1.28145
0
LINE
8
BLACK
6
CONTINUOUS
10
0.246483
20
1.28145
11
0.232949
21
1.27755
0
LINE
8
BLACK
6
CONTINUOUS
10
0.232949
20
1.27755
11
0.219063
21
1.27519
0
LINE
8
BLACK
6
CONTINUOUS
10
0.219063
20
1.27519
11
0.205
21
1.2744
0
LINE
8
BLACK
6
CONTINUOUS
10
0.205
20
1.2744
11
0.190937
21
1.27519
0
LINE
8
BLACK
6
CONTINUOUS
10
0.190937
20
1.27519
11
0.177051
21
1.27755
0
LINE
8
BLACK
6
CONTINUOUS
10
0.177051
20
1.27755
11
0.163517
21
1.28145
0
LINE
8
BLACK
6
CONTINUOUS
10
0.163517
20
1.28145
11
0.150504
21
1.28684
0
LINE
8
BLACK
6
CONTINUOUS
10
0.150504
20
1.28684
11
0.138177
21
1.29365
0
LINE
8
BLACK
6
CONTINUOUS
10
0.138177
20
1.29365
11
0.12669
21
1.3018
0
LINE
8
BLACK
6
CONTINUOUS
10
0.12669
20
1.3018
11
0.116187
21
1.31119
0
LINE
8
BLACK
6
CONTINUOUS
10
0.116187
20
1.31119
11
0.106802
21
1.32169
0
LINE
8
BLACK
6
CONTINUOUS
10
0.106802
20
1.32169
11
0.0986515
21
1.33318
0
LINE
8
BLACK
6
CONTINUOUS
10
0.0986515
20
1.33318
11
0.0918383
21
1.3455
0
LINE
8
BLACK
6
CONTINUOUS
10
0.0918383
20
1.3455
11
0.0864483
21
1.35852
0
LINE
8
BLACK
6
CONTINUOUS
10
0.0864483
20
1.35852
11
0.0825491
21
1.37205
0
LINE
8
BLACK
6
CONTINUOUS
10
0.0825491
20
1.37205
11
0.0801898
21
1.38594
0
LINE
8
BLACK
6
CONTINUOUS
10
0.0801898
20
1.38594
11
0.0794
21
1.4
0
LINE
8
BLACK
6
CONTINUOUS
10
0.0794
20
1.4
11
0.0801898
21
1.41406
0
LINE
8
BLACK
6
CONTINUOUS
10
0.0801898
20
1.41406
11
0.0825491
21
1.42795
0
LINE
8
BLACK
6
CONTINUOUS
10
0.0825491
20
1.42795
11
0.0864483
21
1.44148
0
LINE
8
BLACK
6
CONTINUOUS
10
0.0864483
20
1.44148
11
0.0918383
21
1.4545
0
LINE
8
BLACK
6
CONTINUOUS
10
0.0918383
20
1.4545
11
0.0986515
21
1.46682
0
LINE
8
BLACK
6
CONTINUOUS
10
0.0986515
20
1.46682
11
0.106802
21
1.47831
0
LINE
8
BLACK
6
CONTINUOUS
10
0.106802
20
1.47831
11
0.116187
21
1.48881
0
LINE
8
BLACK
6
CONTINUOUS
10
0.116187
20
1.48881
11
0.12669
21
1.4982
0
LINE
8
BLACK
6
CONTINUOUS
10
0.12669
20
1.4982
11
0.138177
21
1.50635
0
LINE
8
BLACK
6
CONTINUOUS
10
0.138177
20
1.50635
11
0.150504
21
1.51316
0
LINE
8
BLACK
6
CONTINUOUS
10
0.150504
20
1.51316
11
0.163517
21
1.51855
0
LINE
8
BLACK
6
CONTINUOUS
10
0.163517
20
1.51855
11
0.177051
21
1.52245
0
LINE
8
BLACK
6
CONTINUOUS
10
0.177051
20
1.52245
11
0.190937
21
1.52481
0
LINE
8
BLACK
6
CONTINUOUS
10
0.190937
20
1.52481
11
0.205
21
1.5256
0
LINE
8
BLACK
6
CONTINUOUS
10
0.205
20
1.5256
11
0.219063
21
1.52481
0
LINE
8
BLACK
6
CONTINUOUS
10
0.0949617
20
1.38714
11
0.0971989
21
1.37445
0
LINE
8
BLACK
6
CONTINUOUS
10
0.0971989
20
1.37445
11
0.100894
21
1.36211
0
LINE
8
BLACK
6
CONTINUOUS
10
0.100894
20
1.36211
11
0.105997
21
1.35028
0
LINE
8
BLACK
6
CONTINUOUS
10
0.105997
20
1.35028
11
0.112438
21
1.33912
0
LINE
8
BLACK
6
CONTINUOUS
10
0.112438
20
1.33912
11
0.120132
21
1.32879
0
LINE
8
BLACK
6
CONTINUOUS
10
0.120132
20
1.32879
11
0.128973
21
1.31942
0
LINE
8
BLACK
6
CONTINUOUS
10
0.128973
20
1.31942
11
0.138842
21
1.31113
0
LINE
8
BLACK
6
CONTINUOUS
10
0.138842
20
1.31113
11
0.149606
21
1.30406
0
LINE
8
BLACK
6
CONTINUOUS
10
0.149606
20
1.30406
11
0.161119
21
1.29827
0
LINE
8
BLACK
6
CONTINUOUS
10
0.161119
20
1.29827
11
0.173226
21
1.29387
0
LINE
8
BLACK
6
CONTINUOUS
10
0.173226
20
1.29387
11
0.185762
21
1.2909
0
LINE
8
BLACK
6
CONTINUOUS
10
0.185762
20
1.2909
11
0.198558
21
1.2894
0
LINE
8
BLACK
6
CONTINUOUS
10
0.198558
20
1.2894
11
0.211442
21
1.2894
0
LINE
8
BLACK
6
CONTINUOUS
10
0.211442
20
1.2894
11
0.224238
21
1.2909
0
LINE
8
BLACK
6
CONTINUOUS
10
0.224238
20
1.2909
11
0.236774
21
1.29387
0
LINE
8
BLACK
6
CONTINUOUS
10
0.236774
20
1.29387
11
0.248881
21
1.29827
0
LINE
8
BLACK
6
CONTINUOUS
10
0.248881
20
1.29827
11
0.260394
21
1.30406
0
LINE
8
BLACK
6
CONTINUOUS
10
0.260394
20
1.30406
11
0.271158
21
1.31113
0
LINE
8
BLACK
6
CONTINUOUS
10
0.271158
20
1.31113
11
0.281027
21
1.31942
0
LINE
8
BLACK
6
CONTINUOUS
10
0.281027
20
1.31942
11
0.289868
21
1.32879
0
LINE
8
BLACK
6
CONTINUOUS
10
0.289868
20
1.32879
11
0.297562
21
1.33912
0
LINE
8
BLACK
6
CONTINUOUS
10
0.297562
20
1.33912
11
0.304003
21
1.35028
0
LINE
8
BLACK
6
CONTINUOUS
10
0.304003
20
1.35028
11
0.309106
21
1.36211
0
LINE
8
BLACK
6
CONTINUOUS
10
0.309106
20
1.36211
11
0.312801
21
1.37445
0
LINE
8
BLACK
6
CONTINUOUS
10
0.312801
20
1.37445
11
0.315038
21
1.38714
0
LINE
8
BLACK
6
CONTINUOUS
10
0.315038
20
1.38714
11
0.315787
21
1.4
0
LINE
8
BLACK
6
CONTINUOUS
10
0.315787
20
1.4
11
0.315038
21
1.41286
0
LINE
8
BLACK
6
CONTINUOUS
10
0.315038
20
1.41286
11
0.312801
21
1.42555
0
LINE
8
BLACK
6
CONTINUOUS
10
0.312801
20
1.42555
11
0.309106
21
1.43789
0
LINE
8
BLACK
6
CONTINUOUS
10
0.309106
20
1.43789
11
0.304003
21
1.44972
0
LINE
8
BLACK
6
CONTINUOUS
10
0.304003
20
1.44972
11
0.297562
21
1.46088
0
LINE
8
BLACK
6
CONTINUOUS
10
0.297562
20
1.46088
11
0.289868
21
1.47121
0
LINE
8
BLACK
6
CONTINUOUS
10
0.289868
20
1.47121
11
0.281027
21
1.48058
0
LINE
8
BLACK
6
CONTINUOUS
10
0.281027
20
1.48058
11
0.271158
21
1.48887
0
LINE
8
BLACK
6
CONTINUOUS
10
0.271158
20
1.48887
11
0.260394
21
1.49594
0
LINE
8
BLACK
6
CONTINUOUS
10
0.260394
20
1.49594
11
0.248881
21
1.50173
0
LINE
8
BLACK
6
CONTINUOUS
10
0.248881
20
1.50173
11
0.236774
21
1.50613
0
LINE
8
BLACK
6
CONTINUOUS
10
0.236774
20
1.50613
11
0.224238
21
1.5091
0
LINE
8
BLACK
6
CONTINUOUS
10
0.224238
20
1.5091
11
0.211442
21
1.5106
0
LINE
8
BLACK
6
CONTINUOUS
10
0.211442
20
1.5106
11
0.198558
21
1.5106
0
LINE
8
BLACK
6
CONTINUOUS
10
0.198558
20
1.5106
11
0.185762
21
1.5091
0
LINE
8
BLACK
6
CONTINUOUS
10
0.185762
20
1.5091
11
0.173226
21
1.50613
0
LINE
8
BLACK
6
CONTINUOUS
10
0.173226
20
1.50613
11
0.161119
21
1.50173
0
LINE
8
BLACK
6
CONTINUOUS
10
0.161119
20
1.50173
11
0.149606
21
1.49594
0
LINE
8
BLACK
6
CONTINUOUS
10
0.149606
20
1.49594
11
0.138842
21
1.48887
0
LINE
8
BLACK
6
CONTINUOUS
10
0.138842
20
1.48887
11
0.128973
21
1.48058
0
LINE
8
BLACK
6
CONTINUOUS
10
0.128973
20
1.48058
11
0.120132
21
1.47121
0
LINE
8
BLACK
6
CONTINUOUS
10
0.120132
20
1.47121
11
0.112438
21
1.46088
0
LINE
8
BLACK
6
CONTINUOUS
10
0.112438
20
1.46088
11
0.105997
21
1.44972
0
LINE
8
BLACK
6
CONTINUOUS
10
0.105997
20
1.44972
11
0.100894
21
1.43789
0
LINE
8
BLACK
6
CONTINUOUS
10
0.100894
20
1.43789
11
0.0971989
21
1.42555
0
LINE
8
BLACK
6
CONTINUOUS
10
0.0971989
20
1.42555
11
0.0949617
21
1.41286
0
LINE
8
BLACK
6
CONTINUOUS
10
0.0949617
20
1.41286
11
0.0942126
21
1.4
0
LINE
8
BLACK
6
CONTINUOUS
10
0.0942126
20
1.4
11
0.0949617
21
1.38714
0
LINE
8
BLACK
6
CONTINUOUS
10
0.619063
20
1.52481
11
0.632949
21
1.52245
0
LINE
8
BLACK
6
CONTINUOUS
10
0.632949
20
1.52245
11
0.646483
21
1.51855
0
LINE
8
BLACK
6
CONTINUOUS
10
0.646483
20
1.51855
11
0.659496
21
1.51316
0
LINE
8
BLACK
6
CONTINUOUS
10
0.659496
20
1.51316
11
0.671823
21
1.50635
0
LINE
8
BLACK
6
CONTINUOUS
10
0.671823
20
1.50635
11
0.68331
21
1.4982
0
LINE
8
BLACK
6
CONTINUOUS
10
0.68331
20
1.4982
11
0.693813
21
1.48881
0
LINE
8
BLACK
6
CONTINUOUS
10
0.693813
20
1.48881
11
0.703198
21
1.47831
0
LINE
8
BLACK
6
CONTINUOUS
10
0.703198
20
1.47831
11
0.711349
21
1.46682
0
LINE
8
BLACK
6
CONTINUOUS
10
0.711349
20
1.46682
11
0.718162
21
1.4545
0
LINE
8
BLACK
6
CONTINUOUS
10
0.718162
20
1.4545
11
0.723552
21
1.44148
0
LINE
8
BLACK
6
CONTINUOUS
10
0.723552
20
1.44148
11
0.727451
21
1.42795
0
LINE
8
BLACK
6
CONTINUOUS
10
0.727451
20
1.42795
11
0.72981
21
1.41406
0
LINE
8
BLACK
6
CONTINUOUS
10
0.72981
20
1.41406
11
0.7306
21
1.4
0
LINE
8
BLACK
6
CONTINUOUS
10
0.7306
20
1.4
11
0.72981
21
1.38594
0
LINE
8
BLACK
6
CONTINUOUS
10
0.72981
20
1.38594
11
0.727451
21
1.37205
0
LINE
8
BLACK
6
CONTINUOUS
10
0.727451
20
1.37205
11
0.723552
21
1.35852
0
LINE
8
BLACK
6
CONTINUOUS
10
0.723552
20
1.35852
11
0.718162
21
1.3455
0
LINE
8
BLACK
6
CONTINUOUS
10
0.718162
20
1.3455
11
0.711349
21
1.33318
0
LINE
8
BLACK
6
CONTINUOUS
10
0.711349
20
1.33318
11
0.703198
21
1.32169
0
LINE
8
BLACK
6
CONTINUOUS
10
0.703198
20
1.32169
11
0.693813
21
1.31119
0
LINE
8
BLACK
6
CONTINUOUS
10
0.693813
20
1.31119
11
0.68331
21
1.3018
0
LINE
8
BLACK
6
CONTINUOUS
10
0.68331
20
1.3018
11
0.671823
21
1.29365
0
LINE
8
BLACK
6
CONTINUOUS
10
0.671823
20
1.29365
11
0.659496
21
1.28684
0
LINE
8
BLACK
6
CONTINUOUS
10
0.659496
20
1.28684
11
0.646483
21
1.28145
0
LINE
8
BLACK
6
CONTINUOUS
10
0.646483
20
1.28145
11
0.632949
21
1.27755
0
LINE
8
BLACK
6
CONTINUOUS
10
0.632949
20
1.27755
11
0.619063
21
1.27519
0
LINE
8
BLACK
6
CONTINUOUS
10
0.619063
20
1.27519
11
0.605
21
1.2744
0
LINE
8
BLACK
6
CONTINUOUS
10
0.605
20
1.2744
11
0.590937
21
1.27519
0
LINE
8
BLACK
6
CONTINUOUS
10
0.590937
20
1.27519
11
0.577051
21
1.27755
0
LINE
8
BLACK
6
CONTINUOUS
10
0.577051
20
1.27755
11
0.563517
21
1.28145
0
LINE
8
BLACK
6
CONTINUOUS
10
0.563517
20
1.28145
11
0.550504
21
1.28684
0
LINE
8
BLACK
6
CONTINUOUS
10
0.550504
20
1.28684
11
0.538177
21
1.29365
0
LINE
8
BLACK
6
CONTINUOUS
10
0.538177
20
1.29365
11
0.52669
21
1.3018
0
LINE
8
BLACK
6
CONTINUOUS
10
0.52669
20
1.3018
11
0.516187
21
1.31119
0
LINE
8
BLACK
6
CONTINUOUS
10
0.516187
20
1.31119
11
0.506802
21
1.32169
0
LINE
8
BLACK
6
CONTINUOUS
10
0.506802
20
1.32169
11
0.498651
21
1.33318
0
LINE
8
BLACK
6
CONTINUOUS
10
0.498651
20
1.33318
11
0.491838
21
1.3455
0
LINE
8
BLACK
6
CONTINUOUS
10
0.491838
20
1.3455
11
0.486448
21
1.35852
0
LINE
8
BLACK
6
CONTINUOUS
10
0.486448
20
1.35852
11
0.482549
21
1.37205
0
LINE
8
BLACK
6
CONTINUOUS
10
0.482549
20
1.37205
11
0.48019
21
1.38594
0
LINE
8
BLACK
6
CONTINUOUS
10
0.48019
20
1.38594
11
0.4794
21
1.4
0
LINE
8
BLACK
6
CONTINUOUS
10
0.4794
20
1.4
11
0.48019
21
1.41406
0
LINE
8
BLACK
6
CONTINUOUS
10
0.48019
20
1.41406
11
0.482549
21
1.42795
0
LINE
8
BLACK
6
CONTINUOUS
10
0.482549
20
1.42795
11
0.486448
21
1.44148
0
LINE
8
BLACK
6
CONTINUOUS
10
0.486448
20
1.44148
11
0.491838
21
1.4545
0
LINE
8
BLACK
6
CONTINUOUS
10
0.491838
20
1.4545
11
0.498651
21
1.46682
0
LINE
8
BLACK
6
CONTINUOUS
10
0.498651
20
1.46682
11
0.506802
21
1.47831
0
LINE
8
BLACK
6
CONTINUOUS
10
0.506802
20
1.47831
11
0.516187
21
1.48881
0
LINE
8
BLACK
6
CONTINUOUS
10
0.516187
20
1.48881
11
0.52669
21
1.4982
0
LINE
8
BLACK
6
CONTINUOUS
10
0.52669
20
1.4982
11
0.538177
21
1.50635
0
LINE
8
BLACK
6
CONTINUOUS
10
0.538177
20
1.50635
11
0.550504
21
1.51316
0
LINE
8
BLACK
6
CONTINUOUS
10
0.550504
20
1.51316
11
0.563517
21
1.51855
0
LINE
8
BLACK
6
CONTINUOUS
10
0.563517
20
1.51855
11
0.577051
21
1.52245
0
LINE
8
BLACK
6
CONTINUOUS
10
0.577051
20
1.52245
11
0.590937
21
1.52481
0
LINE
8
BLACK
6
CONTINUOUS
10
0.590937
20
1.52481
11
0.605
21
1.5256
0
LINE
8
BLACK
6
CONTINUOUS
10
0.605
20
1.5256
11
0.619063
21
1.52481
0
LINE
8
BLACK
6
CONTINUOUS
10
0.494962
20
1.38714
11
0.497199
21
1.37445
0
LINE
8
BLACK
6
CONTINUOUS
10
0.497199
20
1.37445
11
0.500894
21
1.36211
0
LINE
8
BLACK
6
CONTINUOUS
10
0.500894
20
1.36211
11
0.505997
21
1.35028
0
LINE
8
BLACK
6
CONTINUOUS
10
0.505997
20
1.35028
11
0.512438
21
1.33912
0
LINE
8
BLACK
6
CONTINUOUS
10
0.512438
20
1.33912
11
0.520132
21
1.32879
0
LINE
8
BLACK
6
CONTINUOUS
10
0.520132
20
1.32879
11
0.528973
21
1.31942
0
LINE
8
BLACK
6
CONTINUOUS
10
0.528973
20
1.31942
11
0.538842
21
1.31113
0
LINE
8
BLACK
6
CONTINUOUS
10
0.538842
20
1.31113
11
0.549606
21
1.30406
0
LINE
8
BLACK
6
CONTINUOUS
10
0.549606
20
1.30406
11
0.561119
21
1.29827
0
LINE
8
BLACK
6
CONTINUOUS
10
0.561119
20
1.29827
11
0.573226
21
1.29387
0
LINE
8
BLACK
6
CONTINUOUS
10
0.573226
20
1.29387
11
0.585762
21
1.2909
0
LINE
8
BLACK
6
CONTINUOUS
10
0.585762
20
1.2909
11
0.598558
21
1.2894
0
LINE
8
BLACK
6
CONTINUOUS
10
0.598558
20
1.2894
11
0.611442
21
1.2894
0
LINE
8
BLACK
6
CONTINUOUS
10
0.611442
20
1.2894
11
0.624238
21
1.2909
0
LINE
8
BLACK
6
CONTINUOUS
10
0.624238
20
1.2909
11
0.636774
21
1.29387
0
LINE
8
BLACK
6
CONTINUOUS
10
0.636774
20
1.29387
11
0.648881
21
1.29827
0
LINE
8
BLACK
6
CONTINUOUS
10
0.648881
20
1.29827
11
0.660394
21
1.30406
0
LINE
8
BLACK
6
CONTINUOUS
10
0.660394
20
1.30406
11
0.671158
21
1.31113
0
LINE
8
BLACK
6
CONTINUOUS
10
0.671158
20
1.31113
11
0.681027
21
1.31942
0
LINE
8
BLACK
6
CONTINUOUS
10
0.681027
20
1.31942
11
0.689868
21
1.32879
0
LINE
8
BLACK
6
CONTINUOUS
10
0.689868
20
1.32879
11
0.697562
21
1.33912
0
LINE
8
BLACK
6
CONTINUOUS
10
0.697562
20
1.33912
11
0.704003
21
1.35028
0
LINE
8
BLACK
6
CONTINUOUS
10
0.704003
20
1.35028
11
0.709106
21
1.36211
0
LINE
8
BLACK
6
CONTINUOUS
10
0.709106
20
1.36211
11
0.712801
21
1.37445
0
LINE
8
BLACK
6
CONTINUOUS
10
0.712801
20
1.37445
11
0.715038
21
1.38714
0
LINE
8
BLACK
6
CONTINUOUS
10
0.715038
20
1.38714
11
0.715787
21
1.4
0
LINE
8
BLACK
6
CONTINUOUS
10
0.715787
20
1.4
11
0.715038
21
1.41286
0
LINE
8
BLACK
6
CONTINUOUS
10
0.715038
20
1.41286
11
0.712801
21
1.42555
0
LINE
8
BLACK
6
CONTINUOUS
10
0.712801
20
1.42555
11
0.709106
21
1.43789
0
LINE
8
BLACK
6
CONTINUOUS
10
0.709106
20
1.43789
11
0.704003
21
1.44972
0
LINE
8
BLACK
6
CONTINUOUS
10
0.704003
20
1.44972
11
0.697562
21
1.46088
0
LINE
8
BLACK
6
CONTINUOUS
10
0.697562
20
1.46088
11
0.689868
21
1.47121
0
LINE
8
BLACK
6
CONTINUOUS
10
0.689868
20
1.47121
11
0.681027
21
1.48058
0
LINE
8
BLACK
6
CONTINUOUS
10
0.681027
20
1.48058
11
0.671158
21
1.48887
0
LINE
8
BLACK
6
CONTINUOUS
10
0.671158
20
1.48887
11
0.660394
21
1.49594
0
LINE
8
BLACK
6
CONTINUOUS
10
0.660394
20
1.49594
11
0.648881
21
1.50173
0
LINE
8
BLACK
6
CONTINUOUS
10
0.648881
20
1.50173
11
0.636774
21
1.50613
0
LINE
8
BLACK
6
CONTINUOUS
10
0.636774
20
1.50613
11
0.624238
21
1.5091
0
LINE
8
BLACK
6
CONTINUOUS
10
0.624238
20
1.5091
11
0.611442
21
1.5106
0
LINE
8
BLACK
6
CONTINUOUS
10
0.611442
20
1.5106
11
0.598558
21
1.5106
0
LINE
8
BLACK
6
CONTINUOUS
10
0.598558
20
1.5106
11
0.585762
21
1.5091
0
LINE
8
BLACK
6
CONTINUOUS
10
0.585762
20
1.5091
11
0.573226
21
1.50613
0
LINE
8
BLACK
6
CONTINUOUS
10
0.573226
20
1.50613
11
0.561119
21
1.50173
0
LINE
8
BLACK
6
CONTINUOUS
10
0.561119
20
1.50173
11
0.549606
21
1.49594
0
LINE
8
BLACK
6
CONTINUOUS
10
0.549606
20
1.49594
11
0.538842
21
1.48887
0
LINE
8
BLACK
6
CONTINUOUS
10
0.538842
20
1.48887
11
0.528973
21
1.48058
0
LINE
8
BLACK
6
CONTINUOUS
10
0.528973
20
1.48058
11
0.520132
21
1.47121
0
LINE
8
BLACK
6
CONTINUOUS
10
0.520132
20
1.47121
11
0.512438
21
1.46088
0
LINE
8
BLACK
6
CONTINUOUS
10
0.512438
20
1.46088
11
0.505997
21
1.44972
0
LINE
8
BLACK
6
CONTINUOUS
10
0.505997
20
1.44972
11
0.500894
21
1.43789
0
LINE
8
BLACK
6
CONTINUOUS
10
0.500894
20
1.43789
11
0.497199
21
1.42555
0
LINE
8
BLACK
6
CONTINUOUS
10
0.497199
20
1.42555
11
0.494962
21
1.41286
0
LINE
8
BLACK
6
CONTINUOUS
10
0.494962
20
1.41286
11
0.494213
21
1.4
0
LINE
8
BLACK
6
CONTINUOUS
10
0.494213
20
1.4
11
0.494962
21
1.38714
  0
ENDSEC
  0
EOF
