  0
SECTION
  2
HEADER
  9
$ANGBASE
  50
0.0
  9
$ANGDIR
  70
1
  9
$MEASUREMENT
  70
0
  0
ENDSEC
  0
SECTION
  2
TABLES
  0
TABLE
  2
LTYPE
  70
4
  0
LTYPE
  5
40F
  2
CONTINUOUS
  70
0
  3
Solid line
  72
65
  73
0
  40
0.0
  0
LTYPE
  5
410
  2
DASHDOT
 70
0
  3
Dash Dot ____ _ ____ _
 72
65
 73
4
 40
2.0
 49
1.25
 49
-0.25
 49
0.25
 49
-0.25
  0
LTYPE
  5
411
  2
DASHED
 70
0
  3
Dashed __ __ __ __ __
 72
65
 73
2
 40
0.75
 49
0.5
 49
-0.25
  0
LTYPE
  5
43B
  2
DOTTED
 70
0
  3
Dotted .  .  .  .
 72
65
 73
2
 40
0.2
 49
0.0
 49
-0.2
  0
ENDTAB
  0
TABLE
  2
STYLE
  70
4
  0
STYLE
  2
KICAD
  70
0
  40
0
  41
1
  42
1
  50
0
  71
0
  3
isocp.shx
  0
STYLE
  2
KICADB
  70
0
  40
0
  41
1
  42
1
  50
0
  71
0
  3
isocp.shx
  0
STYLE
  2
KICADI
  70
0
  40
0
  41
1
  42
1
  50
15
  71
0
  3
isocp.shx
  0
STYLE
  2
KICADBI
  70
0
  40
0
  41
1
  42
1
  50
15
  71
0
  3
isocp.shx
  0
ENDTAB
  0
TABLE
  2
LAYER
  70
1
  0
LAYER
  2
BLACK
  70
0
  62
7
  6
CONTINUOUS
  0
ENDTAB
  0
ENDSEC
  0
SECTION
  2
ENTITIES
0
LINE
8
BLACK
6
CONTINUOUS
10
0.22551
20
0.316316
11
0.238874
21
0.313148
0
LINE
8
BLACK
6
CONTINUOUS
10
0.238874
20
0.313148
11
0.251781
21
0.308451
0
LINE
8
BLACK
6
CONTINUOUS
10
0.251781
20
0.308451
11
0.264055
21
0.302286
0
LINE
8
BLACK
6
CONTINUOUS
10
0.264055
20
0.302286
11
0.275531
21
0.294739
0
LINE
8
BLACK
6
CONTINUOUS
10
0.275531
20
0.294739
11
0.286052
21
0.28591
0
LINE
8
BLACK
6
CONTINUOUS
10
0.286052
20
0.28591
11
0.295478
21
0.27592
0
LINE
8
BLACK
6
CONTINUOUS
10
0.295478
20
0.27592
11
0.30368
21
0.264903
0
LINE
8
BLACK
6
CONTINUOUS
10
0.30368
20
0.264903
11
0.310547
21
0.253008
0
LINE
8
BLACK
6
CONTINUOUS
10
0.310547
20
0.253008
11
0.315987
21
0.240396
0
LINE
8
BLACK
6
CONTINUOUS
10
0.315987
20
0.240396
11
0.319927
21
0.227238
0
LINE
8
BLACK
6
CONTINUOUS
10
0.319927
20
0.227238
11
0.322312
21
0.213712
0
LINE
8
BLACK
6
CONTINUOUS
10
0.322312
20
0.213712
11
0.32311
21
0.2
0
LINE
8
BLACK
6
CONTINUOUS
10
0.32311
20
0.2
11
0.322312
21
0.186288
0
LINE
8
BLACK
6
CONTINUOUS
10
0.322312
20
0.186288
11
0.319927
21
0.172762
0
LINE
8
BLACK
6
CONTINUOUS
10
0.319927
20
0.172762
11
0.315987
21
0.159604
0
LINE
8
BLACK
6
CONTINUOUS
10
0.315987
20
0.159604
11
0.310547
21
0.146992
0
LINE
8
BLACK
6
CONTINUOUS
10
0.310547
20
0.146992
11
0.30368
21
0.135097
0
LINE
8
BLACK
6
CONTINUOUS
10
0.30368
20
0.135097
11
0.295478
21
0.12408
0
LINE
8
BLACK
6
CONTINUOUS
10
0.295478
20
0.12408
11
0.286052
21
0.11409
0
LINE
8
BLACK
6
CONTINUOUS
10
0.286052
20
0.11409
11
0.275531
21
0.105261
0
LINE
8
BLACK
6
CONTINUOUS
10
0.275531
20
0.105261
11
0.264055
21
0.0977135
0
LINE
8
BLACK
6
CONTINUOUS
10
0.264055
20
0.0977135
11
0.251781
21
0.0915493
0
LINE
8
BLACK
6
CONTINUOUS
10
0.251781
20
0.0915493
11
0.238874
21
0.0868516
0
LINE
8
BLACK
6
CONTINUOUS
10
0.238874
20
0.0868516
11
0.22551
21
0.0836841
0
LINE
8
BLACK
6
CONTINUOUS
10
0.22551
20
0.0836841
11
0.211867
21
0.0820896
0
LINE
8
BLACK
6
CONTINUOUS
10
0.211867
20
0.0820896
11
0.198133
21
0.0820896
0
LINE
8
BLACK
6
CONTINUOUS
10
0.198133
20
0.0820896
11
0.18449
21
0.0836841
0
LINE
8
BLACK
6
CONTINUOUS
10
0.18449
20
0.0836841
11
0.171126
21
0.0868516
0
LINE
8
BLACK
6
CONTINUOUS
10
0.171126
20
0.0868516
11
0.158219
21
0.0915493
0
LINE
8
BLACK
6
CONTINUOUS
10
0.158219
20
0.0915493
11
0.145945
21
0.0977135
0
LINE
8
BLACK
6
CONTINUOUS
10
0.145945
20
0.0977135
11
0.134469
21
0.105261
0
LINE
8
BLACK
6
CONTINUOUS
10
0.134469
20
0.105261
11
0.123948
21
0.11409
0
LINE
8
BLACK
6
CONTINUOUS
10
0.123948
20
0.11409
11
0.114522
21
0.12408
0
LINE
8
BLACK
6
CONTINUOUS
10
0.114522
20
0.12408
11
0.10632
21
0.135097
0
LINE
8
BLACK
6
CONTINUOUS
10
0.10632
20
0.135097
11
0.0994528
21
0.146992
0
LINE
8
BLACK
6
CONTINUOUS
10
0.0994528
20
0.146992
11
0.0940127
21
0.159604
0
LINE
8
BLACK
6
CONTINUOUS
10
0.0940127
20
0.159604
11
0.0900734
21
0.172762
0
LINE
8
BLACK
6
CONTINUOUS
10
0.0900734
20
0.172762
11
0.0876884
21
0.186288
0
LINE
8
BLACK
6
CONTINUOUS
10
0.0876884
20
0.186288
11
0.0868898
21
0.2
0
LINE
8
BLACK
6
CONTINUOUS
10
0.0868898
20
0.2
11
0.0876884
21
0.213712
0
LINE
8
BLACK
6
CONTINUOUS
10
0.0876884
20
0.213712
11
0.0900734
21
0.227238
0
LINE
8
BLACK
6
CONTINUOUS
10
0.0900734
20
0.227238
11
0.0940127
21
0.240396
0
LINE
8
BLACK
6
CONTINUOUS
10
0.0940127
20
0.240396
11
0.0994528
21
0.253008
0
LINE
8
BLACK
6
CONTINUOUS
10
0.0994528
20
0.253008
11
0.10632
21
0.264903
0
LINE
8
BLACK
6
CONTINUOUS
10
0.10632
20
0.264903
11
0.114522
21
0.27592
0
LINE
8
BLACK
6
CONTINUOUS
10
0.114522
20
0.27592
11
0.123948
21
0.28591
0
LINE
8
BLACK
6
CONTINUOUS
10
0.123948
20
0.28591
11
0.134469
21
0.294739
0
LINE
8
BLACK
6
CONTINUOUS
10
0.134469
20
0.294739
11
0.145945
21
0.302286
0
LINE
8
BLACK
6
CONTINUOUS
10
0.145945
20
0.302286
11
0.158219
21
0.308451
0
LINE
8
BLACK
6
CONTINUOUS
10
0.158219
20
0.308451
11
0.171126
21
0.313148
0
LINE
8
BLACK
6
CONTINUOUS
10
0.171126
20
0.313148
11
0.18449
21
0.316316
0
LINE
8
BLACK
6
CONTINUOUS
10
0.18449
20
0.316316
11
0.198133
21
0.31791
0
LINE
8
BLACK
6
CONTINUOUS
10
0.198133
20
0.31791
11
0.211867
21
0.31791
0
LINE
8
BLACK
6
CONTINUOUS
10
0.211867
20
0.31791
11
0.22551
21
0.316316
0
LINE
8
BLACK
6
CONTINUOUS
10
0.62551
20
0.316316
11
0.638874
21
0.313148
0
LINE
8
BLACK
6
CONTINUOUS
10
0.638874
20
0.313148
11
0.651781
21
0.308451
0
LINE
8
BLACK
6
CONTINUOUS
10
0.651781
20
0.308451
11
0.664055
21
0.302286
0
LINE
8
BLACK
6
CONTINUOUS
10
0.664055
20
0.302286
11
0.675531
21
0.294739
0
LINE
8
BLACK
6
CONTINUOUS
10
0.675531
20
0.294739
11
0.686052
21
0.28591
0
LINE
8
BLACK
6
CONTINUOUS
10
0.686052
20
0.28591
11
0.695478
21
0.27592
0
LINE
8
BLACK
6
CONTINUOUS
10
0.695478
20
0.27592
11
0.70368
21
0.264903
0
LINE
8
BLACK
6
CONTINUOUS
10
0.70368
20
0.264903
11
0.710547
21
0.253008
0
LINE
8
BLACK
6
CONTINUOUS
10
0.710547
20
0.253008
11
0.715987
21
0.240396
0
LINE
8
BLACK
6
CONTINUOUS
10
0.715987
20
0.240396
11
0.719927
21
0.227238
0
LINE
8
BLACK
6
CONTINUOUS
10
0.719927
20
0.227238
11
0.722312
21
0.213712
0
LINE
8
BLACK
6
CONTINUOUS
10
0.722312
20
0.213712
11
0.72311
21
0.2
0
LINE
8
BLACK
6
CONTINUOUS
10
0.72311
20
0.2
11
0.722312
21
0.186288
0
LINE
8
BLACK
6
CONTINUOUS
10
0.722312
20
0.186288
11
0.719927
21
0.172762
0
LINE
8
BLACK
6
CONTINUOUS
10
0.719927
20
0.172762
11
0.715987
21
0.159604
0
LINE
8
BLACK
6
CONTINUOUS
10
0.715987
20
0.159604
11
0.710547
21
0.146992
0
LINE
8
BLACK
6
CONTINUOUS
10
0.710547
20
0.146992
11
0.70368
21
0.135097
0
LINE
8
BLACK
6
CONTINUOUS
10
0.70368
20
0.135097
11
0.695478
21
0.12408
0
LINE
8
BLACK
6
CONTINUOUS
10
0.695478
20
0.12408
11
0.686052
21
0.11409
0
LINE
8
BLACK
6
CONTINUOUS
10
0.686052
20
0.11409
11
0.675531
21
0.105261
0
LINE
8
BLACK
6
CONTINUOUS
10
0.675531
20
0.105261
11
0.664055
21
0.0977135
0
LINE
8
BLACK
6
CONTINUOUS
10
0.664055
20
0.0977135
11
0.651781
21
0.0915493
0
LINE
8
BLACK
6
CONTINUOUS
10
0.651781
20
0.0915493
11
0.638874
21
0.0868516
0
LINE
8
BLACK
6
CONTINUOUS
10
0.638874
20
0.0868516
11
0.62551
21
0.0836841
0
LINE
8
BLACK
6
CONTINUOUS
10
0.62551
20
0.0836841
11
0.611867
21
0.0820896
0
LINE
8
BLACK
6
CONTINUOUS
10
0.611867
20
0.0820896
11
0.598133
21
0.0820896
0
LINE
8
BLACK
6
CONTINUOUS
10
0.598133
20
0.0820896
11
0.58449
21
0.0836841
0
LINE
8
BLACK
6
CONTINUOUS
10
0.58449
20
0.0836841
11
0.571126
21
0.0868516
0
LINE
8
BLACK
6
CONTINUOUS
10
0.571126
20
0.0868516
11
0.558219
21
0.0915493
0
LINE
8
BLACK
6
CONTINUOUS
10
0.558219
20
0.0915493
11
0.545945
21
0.0977135
0
LINE
8
BLACK
6
CONTINUOUS
10
0.545945
20
0.0977135
11
0.534469
21
0.105261
0
LINE
8
BLACK
6
CONTINUOUS
10
0.534469
20
0.105261
11
0.523948
21
0.11409
0
LINE
8
BLACK
6
CONTINUOUS
10
0.523948
20
0.11409
11
0.514522
21
0.12408
0
LINE
8
BLACK
6
CONTINUOUS
10
0.514522
20
0.12408
11
0.50632
21
0.135097
0
LINE
8
BLACK
6
CONTINUOUS
10
0.50632
20
0.135097
11
0.499453
21
0.146992
0
LINE
8
BLACK
6
CONTINUOUS
10
0.499453
20
0.146992
11
0.494013
21
0.159604
0
LINE
8
BLACK
6
CONTINUOUS
10
0.494013
20
0.159604
11
0.490073
21
0.172762
0
LINE
8
BLACK
6
CONTINUOUS
10
0.490073
20
0.172762
11
0.487688
21
0.186288
0
LINE
8
BLACK
6
CONTINUOUS
10
0.487688
20
0.186288
11
0.48689
21
0.2
0
LINE
8
BLACK
6
CONTINUOUS
10
0.48689
20
0.2
11
0.487688
21
0.213712
0
LINE
8
BLACK
6
CONTINUOUS
10
0.487688
20
0.213712
11
0.490073
21
0.227238
0
LINE
8
BLACK
6
CONTINUOUS
10
0.490073
20
0.227238
11
0.494013
21
0.240396
0
LINE
8
BLACK
6
CONTINUOUS
10
0.494013
20
0.240396
11
0.499453
21
0.253008
0
LINE
8
BLACK
6
CONTINUOUS
10
0.499453
20
0.253008
11
0.50632
21
0.264903
0
LINE
8
BLACK
6
CONTINUOUS
10
0.50632
20
0.264903
11
0.514522
21
0.27592
0
LINE
8
BLACK
6
CONTINUOUS
10
0.514522
20
0.27592
11
0.523948
21
0.28591
0
LINE
8
BLACK
6
CONTINUOUS
10
0.523948
20
0.28591
11
0.534469
21
0.294739
0
LINE
8
BLACK
6
CONTINUOUS
10
0.534469
20
0.294739
11
0.545945
21
0.302286
0
LINE
8
BLACK
6
CONTINUOUS
10
0.545945
20
0.302286
11
0.558219
21
0.308451
0
LINE
8
BLACK
6
CONTINUOUS
10
0.558219
20
0.308451
11
0.571126
21
0.313148
0
LINE
8
BLACK
6
CONTINUOUS
10
0.571126
20
0.313148
11
0.58449
21
0.316316
0
LINE
8
BLACK
6
CONTINUOUS
10
0.58449
20
0.316316
11
0.598133
21
0.31791
0
LINE
8
BLACK
6
CONTINUOUS
10
0.598133
20
0.31791
11
0.611867
21
0.31791
0
LINE
8
BLACK
6
CONTINUOUS
10
0.611867
20
0.31791
11
0.62551
21
0.316316
0
LINE
8
BLACK
6
CONTINUOUS
10
0.22551
20
1.51632
11
0.238874
21
1.51315
0
LINE
8
BLACK
6
CONTINUOUS
10
0.238874
20
1.51315
11
0.251781
21
1.50845
0
LINE
8
BLACK
6
CONTINUOUS
10
0.251781
20
1.50845
11
0.264055
21
1.50229
0
LINE
8
BLACK
6
CONTINUOUS
10
0.264055
20
1.50229
11
0.275531
21
1.49474
0
LINE
8
BLACK
6
CONTINUOUS
10
0.275531
20
1.49474
11
0.286052
21
1.48591
0
LINE
8
BLACK
6
CONTINUOUS
10
0.286052
20
1.48591
11
0.295478
21
1.47592
0
LINE
8
BLACK
6
CONTINUOUS
10
0.295478
20
1.47592
11
0.30368
21
1.4649
0
LINE
8
BLACK
6
CONTINUOUS
10
0.30368
20
1.4649
11
0.310547
21
1.45301
0
LINE
8
BLACK
6
CONTINUOUS
10
0.310547
20
1.45301
11
0.315987
21
1.4404
0
LINE
8
BLACK
6
CONTINUOUS
10
0.315987
20
1.4404
11
0.319927
21
1.42724
0
LINE
8
BLACK
6
CONTINUOUS
10
0.319927
20
1.42724
11
0.322312
21
1.41371
0
LINE
8
BLACK
6
CONTINUOUS
10
0.322312
20
1.41371
11
0.32311
21
1.4
0
LINE
8
BLACK
6
CONTINUOUS
10
0.32311
20
1.4
11
0.322312
21
1.38629
0
LINE
8
BLACK
6
CONTINUOUS
10
0.322312
20
1.38629
11
0.319927
21
1.37276
0
LINE
8
BLACK
6
CONTINUOUS
10
0.319927
20
1.37276
11
0.315987
21
1.3596
0
LINE
8
BLACK
6
CONTINUOUS
10
0.315987
20
1.3596
11
0.310547
21
1.34699
0
LINE
8
BLACK
6
CONTINUOUS
10
0.310547
20
1.34699
11
0.30368
21
1.3351
0
LINE
8
BLACK
6
CONTINUOUS
10
0.30368
20
1.3351
11
0.295478
21
1.32408
0
LINE
8
BLACK
6
CONTINUOUS
10
0.295478
20
1.32408
11
0.286052
21
1.31409
0
LINE
8
BLACK
6
CONTINUOUS
10
0.286052
20
1.31409
11
0.275531
21
1.30526
0
LINE
8
BLACK
6
CONTINUOUS
10
0.275531
20
1.30526
11
0.264055
21
1.29771
0
LINE
8
BLACK
6
CONTINUOUS
10
0.264055
20
1.29771
11
0.251781
21
1.29155
0
LINE
8
BLACK
6
CONTINUOUS
10
0.251781
20
1.29155
11
0.238874
21
1.28685
0
LINE
8
BLACK
6
CONTINUOUS
10
0.238874
20
1.28685
11
0.22551
21
1.28368
0
LINE
8
BLACK
6
CONTINUOUS
10
0.22551
20
1.28368
11
0.211867
21
1.28209
0
LINE
8
BLACK
6
CONTINUOUS
10
0.211867
20
1.28209
11
0.198133
21
1.28209
0
LINE
8
BLACK
6
CONTINUOUS
10
0.198133
20
1.28209
11
0.18449
21
1.28368
0
LINE
8
BLACK
6
CONTINUOUS
10
0.18449
20
1.28368
11
0.171126
21
1.28685
0
LINE
8
BLACK
6
CONTINUOUS
10
0.171126
20
1.28685
11
0.158219
21
1.29155
0
LINE
8
BLACK
6
CONTINUOUS
10
0.158219
20
1.29155
11
0.145945
21
1.29771
0
LINE
8
BLACK
6
CONTINUOUS
10
0.145945
20
1.29771
11
0.134469
21
1.30526
0
LINE
8
BLACK
6
CONTINUOUS
10
0.134469
20
1.30526
11
0.123948
21
1.31409
0
LINE
8
BLACK
6
CONTINUOUS
10
0.123948
20
1.31409
11
0.114522
21
1.32408
0
LINE
8
BLACK
6
CONTINUOUS
10
0.114522
20
1.32408
11
0.10632
21
1.3351
0
LINE
8
BLACK
6
CONTINUOUS
10
0.10632
20
1.3351
11
0.0994528
21
1.34699
0
LINE
8
BLACK
6
CONTINUOUS
10
0.0994528
20
1.34699
11
0.0940127
21
1.3596
0
LINE
8
BLACK
6
CONTINUOUS
10
0.0940127
20
1.3596
11
0.0900734
21
1.37276
0
LINE
8
BLACK
6
CONTINUOUS
10
0.0900734
20
1.37276
11
0.0876884
21
1.38629
0
LINE
8
BLACK
6
CONTINUOUS
10
0.0876884
20
1.38629
11
0.0868898
21
1.4
0
LINE
8
BLACK
6
CONTINUOUS
10
0.0868898
20
1.4
11
0.0876884
21
1.41371
0
LINE
8
BLACK
6
CONTINUOUS
10
0.0876884
20
1.41371
11
0.0900734
21
1.42724
0
LINE
8
BLACK
6
CONTINUOUS
10
0.0900734
20
1.42724
11
0.0940127
21
1.4404
0
LINE
8
BLACK
6
CONTINUOUS
10
0.0940127
20
1.4404
11
0.0994528
21
1.45301
0
LINE
8
BLACK
6
CONTINUOUS
10
0.0994528
20
1.45301
11
0.10632
21
1.4649
0
LINE
8
BLACK
6
CONTINUOUS
10
0.10632
20
1.4649
11
0.114522
21
1.47592
0
LINE
8
BLACK
6
CONTINUOUS
10
0.114522
20
1.47592
11
0.123948
21
1.48591
0
LINE
8
BLACK
6
CONTINUOUS
10
0.123948
20
1.48591
11
0.134469
21
1.49474
0
LINE
8
BLACK
6
CONTINUOUS
10
0.134469
20
1.49474
11
0.145945
21
1.50229
0
LINE
8
BLACK
6
CONTINUOUS
10
0.145945
20
1.50229
11
0.158219
21
1.50845
0
LINE
8
BLACK
6
CONTINUOUS
10
0.158219
20
1.50845
11
0.171126
21
1.51315
0
LINE
8
BLACK
6
CONTINUOUS
10
0.171126
20
1.51315
11
0.18449
21
1.51632
0
LINE
8
BLACK
6
CONTINUOUS
10
0.18449
20
1.51632
11
0.198133
21
1.51791
0
LINE
8
BLACK
6
CONTINUOUS
10
0.198133
20
1.51791
11
0.211867
21
1.51791
0
LINE
8
BLACK
6
CONTINUOUS
10
0.211867
20
1.51791
11
0.22551
21
1.51632
0
LINE
8
BLACK
6
CONTINUOUS
10
0.62551
20
1.51632
11
0.638874
21
1.51315
0
LINE
8
BLACK
6
CONTINUOUS
10
0.638874
20
1.51315
11
0.651781
21
1.50845
0
LINE
8
BLACK
6
CONTINUOUS
10
0.651781
20
1.50845
11
0.664055
21
1.50229
0
LINE
8
BLACK
6
CONTINUOUS
10
0.664055
20
1.50229
11
0.675531
21
1.49474
0
LINE
8
BLACK
6
CONTINUOUS
10
0.675531
20
1.49474
11
0.686052
21
1.48591
0
LINE
8
BLACK
6
CONTINUOUS
10
0.686052
20
1.48591
11
0.695478
21
1.47592
0
LINE
8
BLACK
6
CONTINUOUS
10
0.695478
20
1.47592
11
0.70368
21
1.4649
0
LINE
8
BLACK
6
CONTINUOUS
10
0.70368
20
1.4649
11
0.710547
21
1.45301
0
LINE
8
BLACK
6
CONTINUOUS
10
0.710547
20
1.45301
11
0.715987
21
1.4404
0
LINE
8
BLACK
6
CONTINUOUS
10
0.715987
20
1.4404
11
0.719927
21
1.42724
0
LINE
8
BLACK
6
CONTINUOUS
10
0.719927
20
1.42724
11
0.722312
21
1.41371
0
LINE
8
BLACK
6
CONTINUOUS
10
0.722312
20
1.41371
11
0.72311
21
1.4
0
LINE
8
BLACK
6
CONTINUOUS
10
0.72311
20
1.4
11
0.722312
21
1.38629
0
LINE
8
BLACK
6
CONTINUOUS
10
0.722312
20
1.38629
11
0.719927
21
1.37276
0
LINE
8
BLACK
6
CONTINUOUS
10
0.719927
20
1.37276
11
0.715987
21
1.3596
0
LINE
8
BLACK
6
CONTINUOUS
10
0.715987
20
1.3596
11
0.710547
21
1.34699
0
LINE
8
BLACK
6
CONTINUOUS
10
0.710547
20
1.34699
11
0.70368
21
1.3351
0
LINE
8
BLACK
6
CONTINUOUS
10
0.70368
20
1.3351
11
0.695478
21
1.32408
0
LINE
8
BLACK
6
CONTINUOUS
10
0.695478
20
1.32408
11
0.686052
21
1.31409
0
LINE
8
BLACK
6
CONTINUOUS
10
0.686052
20
1.31409
11
0.675531
21
1.30526
0
LINE
8
BLACK
6
CONTINUOUS
10
0.675531
20
1.30526
11
0.664055
21
1.29771
0
LINE
8
BLACK
6
CONTINUOUS
10
0.664055
20
1.29771
11
0.651781
21
1.29155
0
LINE
8
BLACK
6
CONTINUOUS
10
0.651781
20
1.29155
11
0.638874
21
1.28685
0
LINE
8
BLACK
6
CONTINUOUS
10
0.638874
20
1.28685
11
0.62551
21
1.28368
0
LINE
8
BLACK
6
CONTINUOUS
10
0.62551
20
1.28368
11
0.611867
21
1.28209
0
LINE
8
BLACK
6
CONTINUOUS
10
0.611867
20
1.28209
11
0.598133
21
1.28209
0
LINE
8
BLACK
6
CONTINUOUS
10
0.598133
20
1.28209
11
0.58449
21
1.28368
0
LINE
8
BLACK
6
CONTINUOUS
10
0.58449
20
1.28368
11
0.571126
21
1.28685
0
LINE
8
BLACK
6
CONTINUOUS
10
0.571126
20
1.28685
11
0.558219
21
1.29155
0
LINE
8
BLACK
6
CONTINUOUS
10
0.558219
20
1.29155
11
0.545945
21
1.29771
0
LINE
8
BLACK
6
CONTINUOUS
10
0.545945
20
1.29771
11
0.534469
21
1.30526
0
LINE
8
BLACK
6
CONTINUOUS
10
0.534469
20
1.30526
11
0.523948
21
1.31409
0
LINE
8
BLACK
6
CONTINUOUS
10
0.523948
20
1.31409
11
0.514522
21
1.32408
0
LINE
8
BLACK
6
CONTINUOUS
10
0.514522
20
1.32408
11
0.50632
21
1.3351
0
LINE
8
BLACK
6
CONTINUOUS
10
0.50632
20
1.3351
11
0.499453
21
1.34699
0
LINE
8
BLACK
6
CONTINUOUS
10
0.499453
20
1.34699
11
0.494013
21
1.3596
0
LINE
8
BLACK
6
CONTINUOUS
10
0.494013
20
1.3596
11
0.490073
21
1.37276
0
LINE
8
BLACK
6
CONTINUOUS
10
0.490073
20
1.37276
11
0.487688
21
1.38629
0
LINE
8
BLACK
6
CONTINUOUS
10
0.487688
20
1.38629
11
0.48689
21
1.4
0
LINE
8
BLACK
6
CONTINUOUS
10
0.48689
20
1.4
11
0.487688
21
1.41371
0
LINE
8
BLACK
6
CONTINUOUS
10
0.487688
20
1.41371
11
0.490073
21
1.42724
0
LINE
8
BLACK
6
CONTINUOUS
10
0.490073
20
1.42724
11
0.494013
21
1.4404
0
LINE
8
BLACK
6
CONTINUOUS
10
0.494013
20
1.4404
11
0.499453
21
1.45301
0
LINE
8
BLACK
6
CONTINUOUS
10
0.499453
20
1.45301
11
0.50632
21
1.4649
0
LINE
8
BLACK
6
CONTINUOUS
10
0.50632
20
1.4649
11
0.514522
21
1.47592
0
LINE
8
BLACK
6
CONTINUOUS
10
0.514522
20
1.47592
11
0.523948
21
1.48591
0
LINE
8
BLACK
6
CONTINUOUS
10
0.523948
20
1.48591
11
0.534469
21
1.49474
0
LINE
8
BLACK
6
CONTINUOUS
10
0.534469
20
1.49474
11
0.545945
21
1.50229
0
LINE
8
BLACK
6
CONTINUOUS
10
0.545945
20
1.50229
11
0.558219
21
1.50845
0
LINE
8
BLACK
6
CONTINUOUS
10
0.558219
20
1.50845
11
0.571126
21
1.51315
0
LINE
8
BLACK
6
CONTINUOUS
10
0.571126
20
1.51315
11
0.58449
21
1.51632
0
LINE
8
BLACK
6
CONTINUOUS
10
0.58449
20
1.51632
11
0.598133
21
1.51791
0
LINE
8
BLACK
6
CONTINUOUS
10
0.598133
20
1.51791
11
0.611867
21
1.51791
0
LINE
8
BLACK
6
CONTINUOUS
10
0.611867
20
1.51791
11
0.62551
21
1.51632
  0
ENDSEC
  0
EOF
