  0
SECTION
  2
HEADER
  9
$ANGBASE
  50
0.0
  9
$ANGDIR
  70
1
  9
$MEASUREMENT
  70
0
  0
ENDSEC
  0
SECTION
  2
TABLES
  0
TABLE
  2
LTYPE
  70
4
  0
LTYPE
  5
40F
  2
CONTINUOUS
  70
0
  3
Solid line
  72
65
  73
0
  40
0.0
  0
LTYPE
  5
410
  2
DASHDOT
 70
0
  3
Dash Dot ____ _ ____ _
 72
65
 73
4
 40
2.0
 49
1.25
 49
-0.25
 49
0.25
 49
-0.25
  0
LTYPE
  5
411
  2
DASHED
 70
0
  3
Dashed __ __ __ __ __
 72
65
 73
2
 40
0.75
 49
0.5
 49
-0.25
  0
LTYPE
  5
43B
  2
DOTTED
 70
0
  3
Dotted .  .  .  .
 72
65
 73
2
 40
0.2
 49
0.0
 49
-0.2
  0
ENDTAB
  0
TABLE
  2
STYLE
  70
4
  0
STYLE
  2
KICAD
  70
0
  40
0
  41
1
  42
1
  50
0
  71
0
  3
isocp.shx
  0
STYLE
  2
KICADB
  70
0
  40
0
  41
1
  42
1
  50
0
  71
0
  3
isocp.shx
  0
STYLE
  2
KICADI
  70
0
  40
0
  41
1
  42
1
  50
15
  71
0
  3
isocp.shx
  0
STYLE
  2
KICADBI
  70
0
  40
0
  41
1
  42
1
  50
15
  71
0
  3
isocp.shx
  0
ENDTAB
  0
TABLE
  2
LAYER
  70
1
  0
LAYER
  2
BLACK
  70
0
  62
7
  6
CONTINUOUS
  0
ENDTAB
  0
ENDSEC
  0
SECTION
  2
ENTITIES
0
LINE
8
BLACK
6
CONTINUOUS
10
0.883446
20
0.157747
11
0.886001
21
0.15604
0
LINE
8
BLACK
6
CONTINUOUS
10
0.886001
20
0.15604
11
0.887708
21
0.153486
0
LINE
8
BLACK
6
CONTINUOUS
10
0.887708
20
0.153486
11
0.888307
21
0.150472
0
LINE
8
BLACK
6
CONTINUOUS
10
0.888307
20
0.150472
11
0.888307
21
0.0520472
0
LINE
8
BLACK
6
CONTINUOUS
10
0.888307
20
0.0520472
11
0.887708
21
0.049034
0
LINE
8
BLACK
6
CONTINUOUS
10
0.887708
20
0.049034
11
0.886001
21
0.0464795
0
LINE
8
BLACK
6
CONTINUOUS
10
0.886001
20
0.0464795
11
0.883446
21
0.0447726
0
LINE
8
BLACK
6
CONTINUOUS
10
0.883446
20
0.0447726
11
0.880433
21
0.0441732
0
LINE
8
BLACK
6
CONTINUOUS
10
0.880433
20
0.0441732
11
0.809567
21
0.0441732
0
LINE
8
BLACK
6
CONTINUOUS
10
0.809567
20
0.0441732
11
0.806554
21
0.0447726
0
LINE
8
BLACK
6
CONTINUOUS
10
0.806554
20
0.0447726
11
0.803999
21
0.0464795
0
LINE
8
BLACK
6
CONTINUOUS
10
0.803999
20
0.0464795
11
0.802292
21
0.049034
0
LINE
8
BLACK
6
CONTINUOUS
10
0.802292
20
0.049034
11
0.801693
21
0.0520472
0
LINE
8
BLACK
6
CONTINUOUS
10
0.801693
20
0.0520472
11
0.801693
21
0.150472
0
LINE
8
BLACK
6
CONTINUOUS
10
0.801693
20
0.150472
11
0.802292
21
0.153486
0
LINE
8
BLACK
6
CONTINUOUS
10
0.802292
20
0.153486
11
0.803999
21
0.15604
0
LINE
8
BLACK
6
CONTINUOUS
10
0.803999
20
0.15604
11
0.806554
21
0.157747
0
LINE
8
BLACK
6
CONTINUOUS
10
0.806554
20
0.157747
11
0.809567
21
0.158346
0
LINE
8
BLACK
6
CONTINUOUS
10
0.809567
20
0.158346
11
0.880433
21
0.158346
0
LINE
8
BLACK
6
CONTINUOUS
10
0.880433
20
0.158346
11
0.883446
21
0.157747
0
LINE
8
BLACK
6
CONTINUOUS
10
1.02801
20
0.137275
11
1.03057
21
0.135568
0
LINE
8
BLACK
6
CONTINUOUS
10
1.03057
20
0.135568
11
1.03227
21
0.133013
0
LINE
8
BLACK
6
CONTINUOUS
10
1.03227
20
0.133013
11
1.03287
21
0.13
0
LINE
8
BLACK
6
CONTINUOUS
10
1.03287
20
0.13
11
1.03287
21
0.07
0
LINE
8
BLACK
6
CONTINUOUS
10
1.03287
20
0.07
11
1.03227
21
0.0669867
0
LINE
8
BLACK
6
CONTINUOUS
10
1.03227
20
0.0669867
11
1.03057
21
0.0644322
0
LINE
8
BLACK
6
CONTINUOUS
10
1.03057
20
0.0644322
11
1.02801
21
0.0627254
0
LINE
8
BLACK
6
CONTINUOUS
10
1.02801
20
0.0627254
11
1.025
21
0.062126
0
LINE
8
BLACK
6
CONTINUOUS
10
1.025
20
0.062126
11
0.965
21
0.062126
0
LINE
8
BLACK
6
CONTINUOUS
10
0.965
20
0.062126
11
0.961987
21
0.0627254
0
LINE
8
BLACK
6
CONTINUOUS
10
0.961987
20
0.0627254
11
0.959432
21
0.0644322
0
LINE
8
BLACK
6
CONTINUOUS
10
0.959432
20
0.0644322
11
0.957725
21
0.0669867
0
LINE
8
BLACK
6
CONTINUOUS
10
0.957725
20
0.0669867
11
0.957126
21
0.07
0
LINE
8
BLACK
6
CONTINUOUS
10
0.957126
20
0.07
11
0.957126
21
0.13
0
LINE
8
BLACK
6
CONTINUOUS
10
0.957126
20
0.13
11
0.957725
21
0.133013
0
LINE
8
BLACK
6
CONTINUOUS
10
0.957725
20
0.133013
11
0.959432
21
0.135568
0
LINE
8
BLACK
6
CONTINUOUS
10
0.959432
20
0.135568
11
0.961987
21
0.137275
0
LINE
8
BLACK
6
CONTINUOUS
10
0.961987
20
0.137275
11
0.965
21
0.137874
0
LINE
8
BLACK
6
CONTINUOUS
10
0.965
20
0.137874
11
1.025
21
0.137874
0
LINE
8
BLACK
6
CONTINUOUS
10
1.025
20
0.137874
11
1.02801
21
0.137275
0
LINE
8
BLACK
6
CONTINUOUS
10
1.12801
20
0.137275
11
1.13057
21
0.135568
0
LINE
8
BLACK
6
CONTINUOUS
10
1.13057
20
0.135568
11
1.13227
21
0.133013
0
LINE
8
BLACK
6
CONTINUOUS
10
1.13227
20
0.133013
11
1.13287
21
0.13
0
LINE
8
BLACK
6
CONTINUOUS
10
1.13287
20
0.13
11
1.13287
21
0.07
0
LINE
8
BLACK
6
CONTINUOUS
10
1.13287
20
0.07
11
1.13227
21
0.0669867
0
LINE
8
BLACK
6
CONTINUOUS
10
1.13227
20
0.0669867
11
1.13057
21
0.0644322
0
LINE
8
BLACK
6
CONTINUOUS
10
1.13057
20
0.0644322
11
1.12801
21
0.0627254
0
LINE
8
BLACK
6
CONTINUOUS
10
1.12801
20
0.0627254
11
1.125
21
0.062126
0
LINE
8
BLACK
6
CONTINUOUS
10
1.125
20
0.062126
11
1.065
21
0.062126
0
LINE
8
BLACK
6
CONTINUOUS
10
1.065
20
0.062126
11
1.06199
21
0.0627254
0
LINE
8
BLACK
6
CONTINUOUS
10
1.06199
20
0.0627254
11
1.05943
21
0.0644322
0
LINE
8
BLACK
6
CONTINUOUS
10
1.05943
20
0.0644322
11
1.05773
21
0.0669867
0
LINE
8
BLACK
6
CONTINUOUS
10
1.05773
20
0.0669867
11
1.05713
21
0.07
0
LINE
8
BLACK
6
CONTINUOUS
10
1.05713
20
0.07
11
1.05713
21
0.13
0
LINE
8
BLACK
6
CONTINUOUS
10
1.05713
20
0.13
11
1.05773
21
0.133013
0
LINE
8
BLACK
6
CONTINUOUS
10
1.05773
20
0.133013
11
1.05943
21
0.135568
0
LINE
8
BLACK
6
CONTINUOUS
10
1.05943
20
0.135568
11
1.06199
21
0.137275
0
LINE
8
BLACK
6
CONTINUOUS
10
1.06199
20
0.137275
11
1.065
21
0.137874
0
LINE
8
BLACK
6
CONTINUOUS
10
1.065
20
0.137874
11
1.125
21
0.137874
0
LINE
8
BLACK
6
CONTINUOUS
10
1.125
20
0.137874
11
1.12801
21
0.137275
0
LINE
8
BLACK
6
CONTINUOUS
10
0.219106
20
0.325192
11
0.233034
21
0.322826
0
LINE
8
BLACK
6
CONTINUOUS
10
0.233034
20
0.322826
11
0.24661
21
0.318914
0
LINE
8
BLACK
6
CONTINUOUS
10
0.24661
20
0.318914
11
0.259663
21
0.313508
0
LINE
8
BLACK
6
CONTINUOUS
10
0.259663
20
0.313508
11
0.272028
21
0.306674
0
LINE
8
BLACK
6
CONTINUOUS
10
0.272028
20
0.306674
11
0.28355
21
0.298498
0
LINE
8
BLACK
6
CONTINUOUS
10
0.28355
20
0.298498
11
0.294084
21
0.289084
0
LINE
8
BLACK
6
CONTINUOUS
10
0.294084
20
0.289084
11
0.303498
21
0.27855
0
LINE
8
BLACK
6
CONTINUOUS
10
0.303498
20
0.27855
11
0.311674
21
0.267028
0
LINE
8
BLACK
6
CONTINUOUS
10
0.311674
20
0.267028
11
0.318508
21
0.254663
0
LINE
8
BLACK
6
CONTINUOUS
10
0.318508
20
0.254663
11
0.323914
21
0.24161
0
LINE
8
BLACK
6
CONTINUOUS
10
0.323914
20
0.24161
11
0.327826
21
0.228034
0
LINE
8
BLACK
6
CONTINUOUS
10
0.327826
20
0.228034
11
0.330192
21
0.214106
0
LINE
8
BLACK
6
CONTINUOUS
10
0.330192
20
0.214106
11
0.330984
21
0.2
0
LINE
8
BLACK
6
CONTINUOUS
10
0.330984
20
0.2
11
0.330192
21
0.185894
0
LINE
8
BLACK
6
CONTINUOUS
10
0.330192
20
0.185894
11
0.327826
21
0.171966
0
LINE
8
BLACK
6
CONTINUOUS
10
0.327826
20
0.171966
11
0.323914
21
0.15839
0
LINE
8
BLACK
6
CONTINUOUS
10
0.323914
20
0.15839
11
0.318508
21
0.145337
0
LINE
8
BLACK
6
CONTINUOUS
10
0.318508
20
0.145337
11
0.311674
21
0.132972
0
LINE
8
BLACK
6
CONTINUOUS
10
0.311674
20
0.132972
11
0.303498
21
0.12145
0
LINE
8
BLACK
6
CONTINUOUS
10
0.303498
20
0.12145
11
0.294084
21
0.110916
0
LINE
8
BLACK
6
CONTINUOUS
10
0.294084
20
0.110916
11
0.28355
21
0.101502
0
LINE
8
BLACK
6
CONTINUOUS
10
0.28355
20
0.101502
11
0.272028
21
0.0933261
0
LINE
8
BLACK
6
CONTINUOUS
10
0.272028
20
0.0933261
11
0.259663
21
0.0864921
0
LINE
8
BLACK
6
CONTINUOUS
10
0.259663
20
0.0864921
11
0.24661
21
0.0810856
0
LINE
8
BLACK
6
CONTINUOUS
10
0.24661
20
0.0810856
11
0.233034
21
0.0771744
0
LINE
8
BLACK
6
CONTINUOUS
10
0.233034
20
0.0771744
11
0.219106
21
0.0748079
0
LINE
8
BLACK
6
CONTINUOUS
10
0.219106
20
0.0748079
11
0.205
21
0.0740157
0
LINE
8
BLACK
6
CONTINUOUS
10
0.205
20
0.0740157
11
0.190894
21
0.0748079
0
LINE
8
BLACK
6
CONTINUOUS
10
0.190894
20
0.0748079
11
0.176966
21
0.0771744
0
LINE
8
BLACK
6
CONTINUOUS
10
0.176966
20
0.0771744
11
0.16339
21
0.0810856
0
LINE
8
BLACK
6
CONTINUOUS
10
0.16339
20
0.0810856
11
0.150337
21
0.0864921
0
LINE
8
BLACK
6
CONTINUOUS
10
0.150337
20
0.0864921
11
0.137972
21
0.0933261
0
LINE
8
BLACK
6
CONTINUOUS
10
0.137972
20
0.0933261
11
0.12645
21
0.101502
0
LINE
8
BLACK
6
CONTINUOUS
10
0.12645
20
0.101502
11
0.115916
21
0.110916
0
LINE
8
BLACK
6
CONTINUOUS
10
0.115916
20
0.110916
11
0.106502
21
0.12145
0
LINE
8
BLACK
6
CONTINUOUS
10
0.106502
20
0.12145
11
0.0983261
21
0.132972
0
LINE
8
BLACK
6
CONTINUOUS
10
0.0983261
20
0.132972
11
0.0914921
21
0.145337
0
LINE
8
BLACK
6
CONTINUOUS
10
0.0914921
20
0.145337
11
0.0860856
21
0.15839
0
LINE
8
BLACK
6
CONTINUOUS
10
0.0860856
20
0.15839
11
0.0821744
21
0.171966
0
LINE
8
BLACK
6
CONTINUOUS
10
0.0821744
20
0.171966
11
0.0798079
21
0.185894
0
LINE
8
BLACK
6
CONTINUOUS
10
0.0798079
20
0.185894
11
0.0790157
21
0.2
0
LINE
8
BLACK
6
CONTINUOUS
10
0.0790157
20
0.2
11
0.0798079
21
0.214106
0
LINE
8
BLACK
6
CONTINUOUS
10
0.0798079
20
0.214106
11
0.0821744
21
0.228034
0
LINE
8
BLACK
6
CONTINUOUS
10
0.0821744
20
0.228034
11
0.0860856
21
0.24161
0
LINE
8
BLACK
6
CONTINUOUS
10
0.0860856
20
0.24161
11
0.0914921
21
0.254663
0
LINE
8
BLACK
6
CONTINUOUS
10
0.0914921
20
0.254663
11
0.0983261
21
0.267028
0
LINE
8
BLACK
6
CONTINUOUS
10
0.0983261
20
0.267028
11
0.106502
21
0.27855
0
LINE
8
BLACK
6
CONTINUOUS
10
0.106502
20
0.27855
11
0.115916
21
0.289084
0
LINE
8
BLACK
6
CONTINUOUS
10
0.115916
20
0.289084
11
0.12645
21
0.298498
0
LINE
8
BLACK
6
CONTINUOUS
10
0.12645
20
0.298498
11
0.137972
21
0.306674
0
LINE
8
BLACK
6
CONTINUOUS
10
0.137972
20
0.306674
11
0.150337
21
0.313508
0
LINE
8
BLACK
6
CONTINUOUS
10
0.150337
20
0.313508
11
0.16339
21
0.318914
0
LINE
8
BLACK
6
CONTINUOUS
10
0.16339
20
0.318914
11
0.176966
21
0.322826
0
LINE
8
BLACK
6
CONTINUOUS
10
0.176966
20
0.322826
11
0.190894
21
0.325192
0
LINE
8
BLACK
6
CONTINUOUS
10
0.190894
20
0.325192
11
0.205
21
0.325984
0
LINE
8
BLACK
6
CONTINUOUS
10
0.205
20
0.325984
11
0.219106
21
0.325192
0
LINE
8
BLACK
6
CONTINUOUS
10
0.619106
20
0.325192
11
0.633034
21
0.322826
0
LINE
8
BLACK
6
CONTINUOUS
10
0.633034
20
0.322826
11
0.64661
21
0.318914
0
LINE
8
BLACK
6
CONTINUOUS
10
0.64661
20
0.318914
11
0.659663
21
0.313508
0
LINE
8
BLACK
6
CONTINUOUS
10
0.659663
20
0.313508
11
0.672028
21
0.306674
0
LINE
8
BLACK
6
CONTINUOUS
10
0.672028
20
0.306674
11
0.68355
21
0.298498
0
LINE
8
BLACK
6
CONTINUOUS
10
0.68355
20
0.298498
11
0.694084
21
0.289084
0
LINE
8
BLACK
6
CONTINUOUS
10
0.694084
20
0.289084
11
0.703498
21
0.27855
0
LINE
8
BLACK
6
CONTINUOUS
10
0.703498
20
0.27855
11
0.711674
21
0.267028
0
LINE
8
BLACK
6
CONTINUOUS
10
0.711674
20
0.267028
11
0.718508
21
0.254663
0
LINE
8
BLACK
6
CONTINUOUS
10
0.718508
20
0.254663
11
0.723914
21
0.24161
0
LINE
8
BLACK
6
CONTINUOUS
10
0.723914
20
0.24161
11
0.727826
21
0.228034
0
LINE
8
BLACK
6
CONTINUOUS
10
0.727826
20
0.228034
11
0.730192
21
0.214106
0
LINE
8
BLACK
6
CONTINUOUS
10
0.730192
20
0.214106
11
0.730984
21
0.2
0
LINE
8
BLACK
6
CONTINUOUS
10
0.730984
20
0.2
11
0.730192
21
0.185894
0
LINE
8
BLACK
6
CONTINUOUS
10
0.730192
20
0.185894
11
0.727826
21
0.171966
0
LINE
8
BLACK
6
CONTINUOUS
10
0.727826
20
0.171966
11
0.723914
21
0.15839
0
LINE
8
BLACK
6
CONTINUOUS
10
0.723914
20
0.15839
11
0.718508
21
0.145337
0
LINE
8
BLACK
6
CONTINUOUS
10
0.718508
20
0.145337
11
0.711674
21
0.132972
0
LINE
8
BLACK
6
CONTINUOUS
10
0.711674
20
0.132972
11
0.703498
21
0.12145
0
LINE
8
BLACK
6
CONTINUOUS
10
0.703498
20
0.12145
11
0.694084
21
0.110916
0
LINE
8
BLACK
6
CONTINUOUS
10
0.694084
20
0.110916
11
0.68355
21
0.101502
0
LINE
8
BLACK
6
CONTINUOUS
10
0.68355
20
0.101502
11
0.672028
21
0.0933261
0
LINE
8
BLACK
6
CONTINUOUS
10
0.672028
20
0.0933261
11
0.659663
21
0.0864921
0
LINE
8
BLACK
6
CONTINUOUS
10
0.659663
20
0.0864921
11
0.64661
21
0.0810856
0
LINE
8
BLACK
6
CONTINUOUS
10
0.64661
20
0.0810856
11
0.633034
21
0.0771744
0
LINE
8
BLACK
6
CONTINUOUS
10
0.633034
20
0.0771744
11
0.619106
21
0.0748079
0
LINE
8
BLACK
6
CONTINUOUS
10
0.619106
20
0.0748079
11
0.605
21
0.0740157
0
LINE
8
BLACK
6
CONTINUOUS
10
0.605
20
0.0740157
11
0.590894
21
0.0748079
0
LINE
8
BLACK
6
CONTINUOUS
10
0.590894
20
0.0748079
11
0.576966
21
0.0771744
0
LINE
8
BLACK
6
CONTINUOUS
10
0.576966
20
0.0771744
11
0.56339
21
0.0810856
0
LINE
8
BLACK
6
CONTINUOUS
10
0.56339
20
0.0810856
11
0.550337
21
0.0864921
0
LINE
8
BLACK
6
CONTINUOUS
10
0.550337
20
0.0864921
11
0.537972
21
0.0933261
0
LINE
8
BLACK
6
CONTINUOUS
10
0.537972
20
0.0933261
11
0.52645
21
0.101502
0
LINE
8
BLACK
6
CONTINUOUS
10
0.52645
20
0.101502
11
0.515916
21
0.110916
0
LINE
8
BLACK
6
CONTINUOUS
10
0.515916
20
0.110916
11
0.506502
21
0.12145
0
LINE
8
BLACK
6
CONTINUOUS
10
0.506502
20
0.12145
11
0.498326
21
0.132972
0
LINE
8
BLACK
6
CONTINUOUS
10
0.498326
20
0.132972
11
0.491492
21
0.145337
0
LINE
8
BLACK
6
CONTINUOUS
10
0.491492
20
0.145337
11
0.486086
21
0.15839
0
LINE
8
BLACK
6
CONTINUOUS
10
0.486086
20
0.15839
11
0.482174
21
0.171966
0
LINE
8
BLACK
6
CONTINUOUS
10
0.482174
20
0.171966
11
0.479808
21
0.185894
0
LINE
8
BLACK
6
CONTINUOUS
10
0.479808
20
0.185894
11
0.479016
21
0.2
0
LINE
8
BLACK
6
CONTINUOUS
10
0.479016
20
0.2
11
0.479808
21
0.214106
0
LINE
8
BLACK
6
CONTINUOUS
10
0.479808
20
0.214106
11
0.482174
21
0.228034
0
LINE
8
BLACK
6
CONTINUOUS
10
0.482174
20
0.228034
11
0.486086
21
0.24161
0
LINE
8
BLACK
6
CONTINUOUS
10
0.486086
20
0.24161
11
0.491492
21
0.254663
0
LINE
8
BLACK
6
CONTINUOUS
10
0.491492
20
0.254663
11
0.498326
21
0.267028
0
LINE
8
BLACK
6
CONTINUOUS
10
0.498326
20
0.267028
11
0.506502
21
0.27855
0
LINE
8
BLACK
6
CONTINUOUS
10
0.506502
20
0.27855
11
0.515916
21
0.289084
0
LINE
8
BLACK
6
CONTINUOUS
10
0.515916
20
0.289084
11
0.52645
21
0.298498
0
LINE
8
BLACK
6
CONTINUOUS
10
0.52645
20
0.298498
11
0.537972
21
0.306674
0
LINE
8
BLACK
6
CONTINUOUS
10
0.537972
20
0.306674
11
0.550337
21
0.313508
0
LINE
8
BLACK
6
CONTINUOUS
10
0.550337
20
0.313508
11
0.56339
21
0.318914
0
LINE
8
BLACK
6
CONTINUOUS
10
0.56339
20
0.318914
11
0.576966
21
0.322826
0
LINE
8
BLACK
6
CONTINUOUS
10
0.576966
20
0.322826
11
0.590894
21
0.325192
0
LINE
8
BLACK
6
CONTINUOUS
10
0.590894
20
0.325192
11
0.605
21
0.325984
0
LINE
8
BLACK
6
CONTINUOUS
10
0.605
20
0.325984
11
0.619106
21
0.325192
0
LINE
8
BLACK
6
CONTINUOUS
10
1.02801
20
0.237275
11
1.03057
21
0.235568
0
LINE
8
BLACK
6
CONTINUOUS
10
1.03057
20
0.235568
11
1.03227
21
0.233013
0
LINE
8
BLACK
6
CONTINUOUS
10
1.03227
20
0.233013
11
1.03287
21
0.23
0
LINE
8
BLACK
6
CONTINUOUS
10
1.03287
20
0.23
11
1.03287
21
0.17
0
LINE
8
BLACK
6
CONTINUOUS
10
1.03287
20
0.17
11
1.03227
21
0.166987
0
LINE
8
BLACK
6
CONTINUOUS
10
1.03227
20
0.166987
11
1.03057
21
0.164432
0
LINE
8
BLACK
6
CONTINUOUS
10
1.03057
20
0.164432
11
1.02801
21
0.162725
0
LINE
8
BLACK
6
CONTINUOUS
10
1.02801
20
0.162725
11
1.025
21
0.162126
0
LINE
8
BLACK
6
CONTINUOUS
10
1.025
20
0.162126
11
0.965
21
0.162126
0
LINE
8
BLACK
6
CONTINUOUS
10
0.965
20
0.162126
11
0.961987
21
0.162725
0
LINE
8
BLACK
6
CONTINUOUS
10
0.961987
20
0.162725
11
0.959432
21
0.164432
0
LINE
8
BLACK
6
CONTINUOUS
10
0.959432
20
0.164432
11
0.957725
21
0.166987
0
LINE
8
BLACK
6
CONTINUOUS
10
0.957725
20
0.166987
11
0.957126
21
0.17
0
LINE
8
BLACK
6
CONTINUOUS
10
0.957126
20
0.17
11
0.957126
21
0.23
0
LINE
8
BLACK
6
CONTINUOUS
10
0.957126
20
0.23
11
0.957725
21
0.233013
0
LINE
8
BLACK
6
CONTINUOUS
10
0.957725
20
0.233013
11
0.959432
21
0.235568
0
LINE
8
BLACK
6
CONTINUOUS
10
0.959432
20
0.235568
11
0.961987
21
0.237275
0
LINE
8
BLACK
6
CONTINUOUS
10
0.961987
20
0.237275
11
0.965
21
0.237874
0
LINE
8
BLACK
6
CONTINUOUS
10
0.965
20
0.237874
11
1.025
21
0.237874
0
LINE
8
BLACK
6
CONTINUOUS
10
1.025
20
0.237874
11
1.02801
21
0.237275
0
LINE
8
BLACK
6
CONTINUOUS
10
1.12801
20
0.237275
11
1.13057
21
0.235568
0
LINE
8
BLACK
6
CONTINUOUS
10
1.13057
20
0.235568
11
1.13227
21
0.233013
0
LINE
8
BLACK
6
CONTINUOUS
10
1.13227
20
0.233013
11
1.13287
21
0.23
0
LINE
8
BLACK
6
CONTINUOUS
10
1.13287
20
0.23
11
1.13287
21
0.17
0
LINE
8
BLACK
6
CONTINUOUS
10
1.13287
20
0.17
11
1.13227
21
0.166987
0
LINE
8
BLACK
6
CONTINUOUS
10
1.13227
20
0.166987
11
1.13057
21
0.164432
0
LINE
8
BLACK
6
CONTINUOUS
10
1.13057
20
0.164432
11
1.12801
21
0.162725
0
LINE
8
BLACK
6
CONTINUOUS
10
1.12801
20
0.162725
11
1.125
21
0.162126
0
LINE
8
BLACK
6
CONTINUOUS
10
1.125
20
0.162126
11
1.065
21
0.162126
0
LINE
8
BLACK
6
CONTINUOUS
10
1.065
20
0.162126
11
1.06199
21
0.162725
0
LINE
8
BLACK
6
CONTINUOUS
10
1.06199
20
0.162725
11
1.05943
21
0.164432
0
LINE
8
BLACK
6
CONTINUOUS
10
1.05943
20
0.164432
11
1.05773
21
0.166987
0
LINE
8
BLACK
6
CONTINUOUS
10
1.05773
20
0.166987
11
1.05713
21
0.17
0
LINE
8
BLACK
6
CONTINUOUS
10
1.05713
20
0.17
11
1.05713
21
0.23
0
LINE
8
BLACK
6
CONTINUOUS
10
1.05713
20
0.23
11
1.05773
21
0.233013
0
LINE
8
BLACK
6
CONTINUOUS
10
1.05773
20
0.233013
11
1.05943
21
0.235568
0
LINE
8
BLACK
6
CONTINUOUS
10
1.05943
20
0.235568
11
1.06199
21
0.237275
0
LINE
8
BLACK
6
CONTINUOUS
10
1.06199
20
0.237275
11
1.065
21
0.237874
0
LINE
8
BLACK
6
CONTINUOUS
10
1.065
20
0.237874
11
1.125
21
0.237874
0
LINE
8
BLACK
6
CONTINUOUS
10
1.125
20
0.237874
11
1.12801
21
0.237275
0
LINE
8
BLACK
6
CONTINUOUS
10
0.883446
20
0.315227
11
0.886001
21
0.313521
0
LINE
8
BLACK
6
CONTINUOUS
10
0.886001
20
0.313521
11
0.887708
21
0.310966
0
LINE
8
BLACK
6
CONTINUOUS
10
0.887708
20
0.310966
11
0.888307
21
0.307953
0
LINE
8
BLACK
6
CONTINUOUS
10
0.888307
20
0.307953
11
0.888307
21
0.209528
0
LINE
8
BLACK
6
CONTINUOUS
10
0.888307
20
0.209528
11
0.887708
21
0.206514
0
LINE
8
BLACK
6
CONTINUOUS
10
0.887708
20
0.206514
11
0.886001
21
0.20396
0
LINE
8
BLACK
6
CONTINUOUS
10
0.886001
20
0.20396
11
0.883446
21
0.202253
0
LINE
8
BLACK
6
CONTINUOUS
10
0.883446
20
0.202253
11
0.880433
21
0.201654
0
LINE
8
BLACK
6
CONTINUOUS
10
0.880433
20
0.201654
11
0.809567
21
0.201654
0
LINE
8
BLACK
6
CONTINUOUS
10
0.809567
20
0.201654
11
0.806554
21
0.202253
0
LINE
8
BLACK
6
CONTINUOUS
10
0.806554
20
0.202253
11
0.803999
21
0.20396
0
LINE
8
BLACK
6
CONTINUOUS
10
0.803999
20
0.20396
11
0.802292
21
0.206514
0
LINE
8
BLACK
6
CONTINUOUS
10
0.802292
20
0.206514
11
0.801693
21
0.209528
0
LINE
8
BLACK
6
CONTINUOUS
10
0.801693
20
0.209528
11
0.801693
21
0.307953
0
LINE
8
BLACK
6
CONTINUOUS
10
0.801693
20
0.307953
11
0.802292
21
0.310966
0
LINE
8
BLACK
6
CONTINUOUS
10
0.802292
20
0.310966
11
0.803999
21
0.313521
0
LINE
8
BLACK
6
CONTINUOUS
10
0.803999
20
0.313521
11
0.806554
21
0.315227
0
LINE
8
BLACK
6
CONTINUOUS
10
0.806554
20
0.315227
11
0.809567
21
0.315827
0
LINE
8
BLACK
6
CONTINUOUS
10
0.809567
20
0.315827
11
0.880433
21
0.315827
0
LINE
8
BLACK
6
CONTINUOUS
10
0.880433
20
0.315827
11
0.883446
21
0.315227
0
LINE
8
BLACK
6
CONTINUOUS
10
1.02801
20
0.337275
11
1.03057
21
0.335568
0
LINE
8
BLACK
6
CONTINUOUS
10
1.03057
20
0.335568
11
1.03227
21
0.333013
0
LINE
8
BLACK
6
CONTINUOUS
10
1.03227
20
0.333013
11
1.03287
21
0.33
0
LINE
8
BLACK
6
CONTINUOUS
10
1.03287
20
0.33
11
1.03287
21
0.27
0
LINE
8
BLACK
6
CONTINUOUS
10
1.03287
20
0.27
11
1.03227
21
0.266987
0
LINE
8
BLACK
6
CONTINUOUS
10
1.03227
20
0.266987
11
1.03057
21
0.264432
0
LINE
8
BLACK
6
CONTINUOUS
10
1.03057
20
0.264432
11
1.02801
21
0.262725
0
LINE
8
BLACK
6
CONTINUOUS
10
1.02801
20
0.262725
11
1.025
21
0.262126
0
LINE
8
BLACK
6
CONTINUOUS
10
1.025
20
0.262126
11
0.965
21
0.262126
0
LINE
8
BLACK
6
CONTINUOUS
10
0.965
20
0.262126
11
0.961987
21
0.262725
0
LINE
8
BLACK
6
CONTINUOUS
10
0.961987
20
0.262725
11
0.959432
21
0.264432
0
LINE
8
BLACK
6
CONTINUOUS
10
0.959432
20
0.264432
11
0.957725
21
0.266987
0
LINE
8
BLACK
6
CONTINUOUS
10
0.957725
20
0.266987
11
0.957126
21
0.27
0
LINE
8
BLACK
6
CONTINUOUS
10
0.957126
20
0.27
11
0.957126
21
0.33
0
LINE
8
BLACK
6
CONTINUOUS
10
0.957126
20
0.33
11
0.957725
21
0.333013
0
LINE
8
BLACK
6
CONTINUOUS
10
0.957725
20
0.333013
11
0.959432
21
0.335568
0
LINE
8
BLACK
6
CONTINUOUS
10
0.959432
20
0.335568
11
0.961987
21
0.337275
0
LINE
8
BLACK
6
CONTINUOUS
10
0.961987
20
0.337275
11
0.965
21
0.337874
0
LINE
8
BLACK
6
CONTINUOUS
10
0.965
20
0.337874
11
1.025
21
0.337874
0
LINE
8
BLACK
6
CONTINUOUS
10
1.025
20
0.337874
11
1.02801
21
0.337275
0
LINE
8
BLACK
6
CONTINUOUS
10
1.12801
20
0.337275
11
1.13057
21
0.335568
0
LINE
8
BLACK
6
CONTINUOUS
10
1.13057
20
0.335568
11
1.13227
21
0.333013
0
LINE
8
BLACK
6
CONTINUOUS
10
1.13227
20
0.333013
11
1.13287
21
0.33
0
LINE
8
BLACK
6
CONTINUOUS
10
1.13287
20
0.33
11
1.13287
21
0.27
0
LINE
8
BLACK
6
CONTINUOUS
10
1.13287
20
0.27
11
1.13227
21
0.266987
0
LINE
8
BLACK
6
CONTINUOUS
10
1.13227
20
0.266987
11
1.13057
21
0.264432
0
LINE
8
BLACK
6
CONTINUOUS
10
1.13057
20
0.264432
11
1.12801
21
0.262725
0
LINE
8
BLACK
6
CONTINUOUS
10
1.12801
20
0.262725
11
1.125
21
0.262126
0
LINE
8
BLACK
6
CONTINUOUS
10
1.125
20
0.262126
11
1.065
21
0.262126
0
LINE
8
BLACK
6
CONTINUOUS
10
1.065
20
0.262126
11
1.06199
21
0.262725
0
LINE
8
BLACK
6
CONTINUOUS
10
1.06199
20
0.262725
11
1.05943
21
0.264432
0
LINE
8
BLACK
6
CONTINUOUS
10
1.05943
20
0.264432
11
1.05773
21
0.266987
0
LINE
8
BLACK
6
CONTINUOUS
10
1.05773
20
0.266987
11
1.05713
21
0.27
0
LINE
8
BLACK
6
CONTINUOUS
10
1.05713
20
0.27
11
1.05713
21
0.33
0
LINE
8
BLACK
6
CONTINUOUS
10
1.05713
20
0.33
11
1.05773
21
0.333013
0
LINE
8
BLACK
6
CONTINUOUS
10
1.05773
20
0.333013
11
1.05943
21
0.335568
0
LINE
8
BLACK
6
CONTINUOUS
10
1.05943
20
0.335568
11
1.06199
21
0.337275
0
LINE
8
BLACK
6
CONTINUOUS
10
1.06199
20
0.337275
11
1.065
21
0.337874
0
LINE
8
BLACK
6
CONTINUOUS
10
1.065
20
0.337874
11
1.125
21
0.337874
0
LINE
8
BLACK
6
CONTINUOUS
10
1.125
20
0.337874
11
1.12801
21
0.337275
0
LINE
8
BLACK
6
CONTINUOUS
10
0.775513
20
0.404775
11
0.778068
21
0.403068
0
LINE
8
BLACK
6
CONTINUOUS
10
0.778068
20
0.403068
11
0.779775
21
0.400513
0
LINE
8
BLACK
6
CONTINUOUS
10
0.779775
20
0.400513
11
0.780374
21
0.3975
0
LINE
8
BLACK
6
CONTINUOUS
10
0.780374
20
0.3975
11
0.780374
21
0.3625
0
LINE
8
BLACK
6
CONTINUOUS
10
0.780374
20
0.3625
11
0.779775
21
0.359487
0
LINE
8
BLACK
6
CONTINUOUS
10
0.779775
20
0.359487
11
0.778068
21
0.356932
0
LINE
8
BLACK
6
CONTINUOUS
10
0.778068
20
0.356932
11
0.775513
21
0.355225
0
LINE
8
BLACK
6
CONTINUOUS
10
0.775513
20
0.355225
11
0.7725
21
0.354626
0
LINE
8
BLACK
6
CONTINUOUS
10
0.7725
20
0.354626
11
0.7175
21
0.354626
0
LINE
8
BLACK
6
CONTINUOUS
10
0.7175
20
0.354626
11
0.714487
21
0.355225
0
LINE
8
BLACK
6
CONTINUOUS
10
0.714487
20
0.355225
11
0.711932
21
0.356932
0
LINE
8
BLACK
6
CONTINUOUS
10
0.711932
20
0.356932
11
0.710225
21
0.359487
0
LINE
8
BLACK
6
CONTINUOUS
10
0.710225
20
0.359487
11
0.709626
21
0.3625
0
LINE
8
BLACK
6
CONTINUOUS
10
0.709626
20
0.3625
11
0.709626
21
0.3975
0
LINE
8
BLACK
6
CONTINUOUS
10
0.709626
20
0.3975
11
0.710225
21
0.400513
0
LINE
8
BLACK
6
CONTINUOUS
10
0.710225
20
0.400513
11
0.711932
21
0.403068
0
LINE
8
BLACK
6
CONTINUOUS
10
0.711932
20
0.403068
11
0.714487
21
0.404775
0
LINE
8
BLACK
6
CONTINUOUS
10
0.714487
20
0.404775
11
0.7175
21
0.405374
0
LINE
8
BLACK
6
CONTINUOUS
10
0.7175
20
0.405374
11
0.7725
21
0.405374
0
LINE
8
BLACK
6
CONTINUOUS
10
0.7725
20
0.405374
11
0.775513
21
0.404775
0
LINE
8
BLACK
6
CONTINUOUS
10
0.610513
20
0.432275
11
0.613068
21
0.430568
0
LINE
8
BLACK
6
CONTINUOUS
10
0.613068
20
0.430568
11
0.614775
21
0.428013
0
LINE
8
BLACK
6
CONTINUOUS
10
0.614775
20
0.428013
11
0.615374
21
0.425
0
LINE
8
BLACK
6
CONTINUOUS
10
0.615374
20
0.425
11
0.615374
21
0.37
0
LINE
8
BLACK
6
CONTINUOUS
10
0.615374
20
0.37
11
0.614775
21
0.366987
0
LINE
8
BLACK
6
CONTINUOUS
10
0.614775
20
0.366987
11
0.613068
21
0.364432
0
LINE
8
BLACK
6
CONTINUOUS
10
0.613068
20
0.364432
11
0.610513
21
0.362725
0
LINE
8
BLACK
6
CONTINUOUS
10
0.610513
20
0.362725
11
0.6075
21
0.362126
0
LINE
8
BLACK
6
CONTINUOUS
10
0.6075
20
0.362126
11
0.5725
21
0.362126
0
LINE
8
BLACK
6
CONTINUOUS
10
0.5725
20
0.362126
11
0.569487
21
0.362725
0
LINE
8
BLACK
6
CONTINUOUS
10
0.569487
20
0.362725
11
0.566932
21
0.364432
0
LINE
8
BLACK
6
CONTINUOUS
10
0.566932
20
0.364432
11
0.565225
21
0.366987
0
LINE
8
BLACK
6
CONTINUOUS
10
0.565225
20
0.366987
11
0.564626
21
0.37
0
LINE
8
BLACK
6
CONTINUOUS
10
0.564626
20
0.37
11
0.564626
21
0.425
0
LINE
8
BLACK
6
CONTINUOUS
10
0.564626
20
0.425
11
0.565225
21
0.428013
0
LINE
8
BLACK
6
CONTINUOUS
10
0.565225
20
0.428013
11
0.566932
21
0.430568
0
LINE
8
BLACK
6
CONTINUOUS
10
0.566932
20
0.430568
11
0.569487
21
0.432275
0
LINE
8
BLACK
6
CONTINUOUS
10
0.569487
20
0.432275
11
0.5725
21
0.432874
0
LINE
8
BLACK
6
CONTINUOUS
10
0.5725
20
0.432874
11
0.6075
21
0.432874
0
LINE
8
BLACK
6
CONTINUOUS
10
0.6075
20
0.432874
11
0.610513
21
0.432275
0
LINE
8
BLACK
6
CONTINUOUS
10
0.685513
20
0.432275
11
0.688068
21
0.430568
0
LINE
8
BLACK
6
CONTINUOUS
10
0.688068
20
0.430568
11
0.689775
21
0.428013
0
LINE
8
BLACK
6
CONTINUOUS
10
0.689775
20
0.428013
11
0.690374
21
0.425
0
LINE
8
BLACK
6
CONTINUOUS
10
0.690374
20
0.425
11
0.690374
21
0.37
0
LINE
8
BLACK
6
CONTINUOUS
10
0.690374
20
0.37
11
0.689775
21
0.366987
0
LINE
8
BLACK
6
CONTINUOUS
10
0.689775
20
0.366987
11
0.688068
21
0.364432
0
LINE
8
BLACK
6
CONTINUOUS
10
0.688068
20
0.364432
11
0.685513
21
0.362725
0
LINE
8
BLACK
6
CONTINUOUS
10
0.685513
20
0.362725
11
0.6825
21
0.362126
0
LINE
8
BLACK
6
CONTINUOUS
10
0.6825
20
0.362126
11
0.6475
21
0.362126
0
LINE
8
BLACK
6
CONTINUOUS
10
0.6475
20
0.362126
11
0.644487
21
0.362725
0
LINE
8
BLACK
6
CONTINUOUS
10
0.644487
20
0.362725
11
0.641932
21
0.364432
0
LINE
8
BLACK
6
CONTINUOUS
10
0.641932
20
0.364432
11
0.640225
21
0.366987
0
LINE
8
BLACK
6
CONTINUOUS
10
0.640225
20
0.366987
11
0.639626
21
0.37
0
LINE
8
BLACK
6
CONTINUOUS
10
0.639626
20
0.37
11
0.639626
21
0.425
0
LINE
8
BLACK
6
CONTINUOUS
10
0.639626
20
0.425
11
0.640225
21
0.428013
0
LINE
8
BLACK
6
CONTINUOUS
10
0.640225
20
0.428013
11
0.641932
21
0.430568
0
LINE
8
BLACK
6
CONTINUOUS
10
0.641932
20
0.430568
11
0.644487
21
0.432275
0
LINE
8
BLACK
6
CONTINUOUS
10
0.644487
20
0.432275
11
0.6475
21
0.432874
0
LINE
8
BLACK
6
CONTINUOUS
10
0.6475
20
0.432874
11
0.6825
21
0.432874
0
LINE
8
BLACK
6
CONTINUOUS
10
0.6825
20
0.432874
11
0.685513
21
0.432275
0
LINE
8
BLACK
6
CONTINUOUS
10
0.938813
20
0.476475
11
0.941368
21
0.474768
0
LINE
8
BLACK
6
CONTINUOUS
10
0.941368
20
0.474768
11
0.943075
21
0.472213
0
LINE
8
BLACK
6
CONTINUOUS
10
0.943075
20
0.472213
11
0.943674
21
0.4692
0
LINE
8
BLACK
6
CONTINUOUS
10
0.943674
20
0.4692
11
0.943674
21
0.3708
0
LINE
8
BLACK
6
CONTINUOUS
10
0.943674
20
0.3708
11
0.943075
21
0.367787
0
LINE
8
BLACK
6
CONTINUOUS
10
0.943075
20
0.367787
11
0.941368
21
0.365232
0
LINE
8
BLACK
6
CONTINUOUS
10
0.941368
20
0.365232
11
0.938813
21
0.363525
0
LINE
8
BLACK
6
CONTINUOUS
10
0.938813
20
0.363525
11
0.9358
21
0.362926
0
LINE
8
BLACK
6
CONTINUOUS
10
0.9358
20
0.362926
11
0.8354
21
0.362926
0
LINE
8
BLACK
6
CONTINUOUS
10
0.8354
20
0.362926
11
0.832387
21
0.363525
0
LINE
8
BLACK
6
CONTINUOUS
10
0.832387
20
0.363525
11
0.829832
21
0.365232
0
LINE
8
BLACK
6
CONTINUOUS
10
0.829832
20
0.365232
11
0.828125
21
0.367787
0
LINE
8
BLACK
6
CONTINUOUS
10
0.828125
20
0.367787
11
0.827526
21
0.3708
0
LINE
8
BLACK
6
CONTINUOUS
10
0.827526
20
0.3708
11
0.827526
21
0.4692
0
LINE
8
BLACK
6
CONTINUOUS
10
0.827526
20
0.4692
11
0.828125
21
0.472213
0
LINE
8
BLACK
6
CONTINUOUS
10
0.828125
20
0.472213
11
0.829832
21
0.474768
0
LINE
8
BLACK
6
CONTINUOUS
10
0.829832
20
0.474768
11
0.832387
21
0.476475
0
LINE
8
BLACK
6
CONTINUOUS
10
0.832387
20
0.476475
11
0.8354
21
0.477074
0
LINE
8
BLACK
6
CONTINUOUS
10
0.8354
20
0.477074
11
0.9358
21
0.477074
0
LINE
8
BLACK
6
CONTINUOUS
10
0.9358
20
0.477074
11
0.938813
21
0.476475
0
LINE
8
BLACK
6
CONTINUOUS
10
1.13761
20
0.476475
11
1.14017
21
0.474768
0
LINE
8
BLACK
6
CONTINUOUS
10
1.14017
20
0.474768
11
1.14187
21
0.472213
0
LINE
8
BLACK
6
CONTINUOUS
10
1.14187
20
0.472213
11
1.14247
21
0.4692
0
LINE
8
BLACK
6
CONTINUOUS
10
1.14247
20
0.4692
11
1.14247
21
0.3708
0
LINE
8
BLACK
6
CONTINUOUS
10
1.14247
20
0.3708
11
1.14187
21
0.367787
0
LINE
8
BLACK
6
CONTINUOUS
10
1.14187
20
0.367787
11
1.14017
21
0.365232
0
LINE
8
BLACK
6
CONTINUOUS
10
1.14017
20
0.365232
11
1.13761
21
0.363525
0
LINE
8
BLACK
6
CONTINUOUS
10
1.13761
20
0.363525
11
1.1346
21
0.362926
0
LINE
8
BLACK
6
CONTINUOUS
10
1.1346
20
0.362926
11
1.0342
21
0.362926
0
LINE
8
BLACK
6
CONTINUOUS
10
1.0342
20
0.362926
11
1.03119
21
0.363525
0
LINE
8
BLACK
6
CONTINUOUS
10
1.03119
20
0.363525
11
1.02863
21
0.365232
0
LINE
8
BLACK
6
CONTINUOUS
10
1.02863
20
0.365232
11
1.02693
21
0.367787
0
LINE
8
BLACK
6
CONTINUOUS
10
1.02693
20
0.367787
11
1.02633
21
0.3708
0
LINE
8
BLACK
6
CONTINUOUS
10
1.02633
20
0.3708
11
1.02633
21
0.4692
0
LINE
8
BLACK
6
CONTINUOUS
10
1.02633
20
0.4692
11
1.02693
21
0.472213
0
LINE
8
BLACK
6
CONTINUOUS
10
1.02693
20
0.472213
11
1.02863
21
0.474768
0
LINE
8
BLACK
6
CONTINUOUS
10
1.02863
20
0.474768
11
1.03119
21
0.476475
0
LINE
8
BLACK
6
CONTINUOUS
10
1.03119
20
0.476475
11
1.0342
21
0.477074
0
LINE
8
BLACK
6
CONTINUOUS
10
1.0342
20
0.477074
11
1.1346
21
0.477074
0
LINE
8
BLACK
6
CONTINUOUS
10
1.1346
20
0.477074
11
1.13761
21
0.476475
0
LINE
8
BLACK
6
CONTINUOUS
10
0.775513
20
0.479775
11
0.778068
21
0.478068
0
LINE
8
BLACK
6
CONTINUOUS
10
0.778068
20
0.478068
11
0.779775
21
0.475513
0
LINE
8
BLACK
6
CONTINUOUS
10
0.779775
20
0.475513
11
0.780374
21
0.4725
0
LINE
8
BLACK
6
CONTINUOUS
10
0.780374
20
0.4725
11
0.780374
21
0.4375
0
LINE
8
BLACK
6
CONTINUOUS
10
0.780374
20
0.4375
11
0.779775
21
0.434487
0
LINE
8
BLACK
6
CONTINUOUS
10
0.779775
20
0.434487
11
0.778068
21
0.431932
0
LINE
8
BLACK
6
CONTINUOUS
10
0.778068
20
0.431932
11
0.775513
21
0.430225
0
LINE
8
BLACK
6
CONTINUOUS
10
0.775513
20
0.430225
11
0.7725
21
0.429626
0
LINE
8
BLACK
6
CONTINUOUS
10
0.7725
20
0.429626
11
0.7175
21
0.429626
0
LINE
8
BLACK
6
CONTINUOUS
10
0.7175
20
0.429626
11
0.714487
21
0.430225
0
LINE
8
BLACK
6
CONTINUOUS
10
0.714487
20
0.430225
11
0.711932
21
0.431932
0
LINE
8
BLACK
6
CONTINUOUS
10
0.711932
20
0.431932
11
0.710225
21
0.434487
0
LINE
8
BLACK
6
CONTINUOUS
10
0.710225
20
0.434487
11
0.709626
21
0.4375
0
LINE
8
BLACK
6
CONTINUOUS
10
0.709626
20
0.4375
11
0.709626
21
0.4725
0
LINE
8
BLACK
6
CONTINUOUS
10
0.709626
20
0.4725
11
0.710225
21
0.475513
0
LINE
8
BLACK
6
CONTINUOUS
10
0.710225
20
0.475513
11
0.711932
21
0.478068
0
LINE
8
BLACK
6
CONTINUOUS
10
0.711932
20
0.478068
11
0.714487
21
0.479775
0
LINE
8
BLACK
6
CONTINUOUS
10
0.714487
20
0.479775
11
0.7175
21
0.480374
0
LINE
8
BLACK
6
CONTINUOUS
10
0.7175
20
0.480374
11
0.7725
21
0.480374
0
LINE
8
BLACK
6
CONTINUOUS
10
0.7725
20
0.480374
11
0.775513
21
0.479775
0
LINE
8
BLACK
6
CONTINUOUS
10
0.295513
20
0.529775
11
0.298068
21
0.528068
0
LINE
8
BLACK
6
CONTINUOUS
10
0.298068
20
0.528068
11
0.299775
21
0.525513
0
LINE
8
BLACK
6
CONTINUOUS
10
0.299775
20
0.525513
11
0.300374
21
0.5225
0
LINE
8
BLACK
6
CONTINUOUS
10
0.300374
20
0.5225
11
0.300374
21
0.4875
0
LINE
8
BLACK
6
CONTINUOUS
10
0.300374
20
0.4875
11
0.299775
21
0.484487
0
LINE
8
BLACK
6
CONTINUOUS
10
0.299775
20
0.484487
11
0.298068
21
0.481932
0
LINE
8
BLACK
6
CONTINUOUS
10
0.298068
20
0.481932
11
0.295513
21
0.480225
0
LINE
8
BLACK
6
CONTINUOUS
10
0.295513
20
0.480225
11
0.2925
21
0.479626
0
LINE
8
BLACK
6
CONTINUOUS
10
0.2925
20
0.479626
11
0.2375
21
0.479626
0
LINE
8
BLACK
6
CONTINUOUS
10
0.2375
20
0.479626
11
0.234487
21
0.480225
0
LINE
8
BLACK
6
CONTINUOUS
10
0.234487
20
0.480225
11
0.231932
21
0.481932
0
LINE
8
BLACK
6
CONTINUOUS
10
0.231932
20
0.481932
11
0.230225
21
0.484487
0
LINE
8
BLACK
6
CONTINUOUS
10
0.230225
20
0.484487
11
0.229626
21
0.4875
0
LINE
8
BLACK
6
CONTINUOUS
10
0.229626
20
0.4875
11
0.229626
21
0.5225
0
LINE
8
BLACK
6
CONTINUOUS
10
0.229626
20
0.5225
11
0.230225
21
0.525513
0
LINE
8
BLACK
6
CONTINUOUS
10
0.230225
20
0.525513
11
0.231932
21
0.528068
0
LINE
8
BLACK
6
CONTINUOUS
10
0.231932
20
0.528068
11
0.234487
21
0.529775
0
LINE
8
BLACK
6
CONTINUOUS
10
0.234487
20
0.529775
11
0.2375
21
0.530374
0
LINE
8
BLACK
6
CONTINUOUS
10
0.2375
20
0.530374
11
0.2925
21
0.530374
0
LINE
8
BLACK
6
CONTINUOUS
10
0.2925
20
0.530374
11
0.295513
21
0.529775
0
LINE
8
BLACK
6
CONTINUOUS
10
0.770513
20
0.554775
11
0.773068
21
0.553068
0
LINE
8
BLACK
6
CONTINUOUS
10
0.773068
20
0.553068
11
0.774775
21
0.550513
0
LINE
8
BLACK
6
CONTINUOUS
10
0.774775
20
0.550513
11
0.775374
21
0.5475
0
LINE
8
BLACK
6
CONTINUOUS
10
0.775374
20
0.5475
11
0.775374
21
0.4925
0
LINE
8
BLACK
6
CONTINUOUS
10
0.775374
20
0.4925
11
0.774775
21
0.489487
0
LINE
8
BLACK
6
CONTINUOUS
10
0.774775
20
0.489487
11
0.773068
21
0.486932
0
LINE
8
BLACK
6
CONTINUOUS
10
0.773068
20
0.486932
11
0.770513
21
0.485225
0
LINE
8
BLACK
6
CONTINUOUS
10
0.770513
20
0.485225
11
0.7675
21
0.484626
0
LINE
8
BLACK
6
CONTINUOUS
10
0.7675
20
0.484626
11
0.7325
21
0.484626
0
LINE
8
BLACK
6
CONTINUOUS
10
0.7325
20
0.484626
11
0.729487
21
0.485225
0
LINE
8
BLACK
6
CONTINUOUS
10
0.729487
20
0.485225
11
0.726932
21
0.486932
0
LINE
8
BLACK
6
CONTINUOUS
10
0.726932
20
0.486932
11
0.725225
21
0.489487
0
LINE
8
BLACK
6
CONTINUOUS
10
0.725225
20
0.489487
11
0.724626
21
0.4925
0
LINE
8
BLACK
6
CONTINUOUS
10
0.724626
20
0.4925
11
0.724626
21
0.5475
0
LINE
8
BLACK
6
CONTINUOUS
10
0.724626
20
0.5475
11
0.725225
21
0.550513
0
LINE
8
BLACK
6
CONTINUOUS
10
0.725225
20
0.550513
11
0.726932
21
0.553068
0
LINE
8
BLACK
6
CONTINUOUS
10
0.726932
20
0.553068
11
0.729487
21
0.554775
0
LINE
8
BLACK
6
CONTINUOUS
10
0.729487
20
0.554775
11
0.7325
21
0.555374
0
LINE
8
BLACK
6
CONTINUOUS
10
0.7325
20
0.555374
11
0.7675
21
0.555374
0
LINE
8
BLACK
6
CONTINUOUS
10
0.7675
20
0.555374
11
0.770513
21
0.554775
0
LINE
8
BLACK
6
CONTINUOUS
10
0.845513
20
0.554775
11
0.848068
21
0.553068
0
LINE
8
BLACK
6
CONTINUOUS
10
0.848068
20
0.553068
11
0.849775
21
0.550513
0
LINE
8
BLACK
6
CONTINUOUS
10
0.849775
20
0.550513
11
0.850374
21
0.5475
0
LINE
8
BLACK
6
CONTINUOUS
10
0.850374
20
0.5475
11
0.850374
21
0.4925
0
LINE
8
BLACK
6
CONTINUOUS
10
0.850374
20
0.4925
11
0.849775
21
0.489487
0
LINE
8
BLACK
6
CONTINUOUS
10
0.849775
20
0.489487
11
0.848068
21
0.486932
0
LINE
8
BLACK
6
CONTINUOUS
10
0.848068
20
0.486932
11
0.845513
21
0.485225
0
LINE
8
BLACK
6
CONTINUOUS
10
0.845513
20
0.485225
11
0.8425
21
0.484626
0
LINE
8
BLACK
6
CONTINUOUS
10
0.8425
20
0.484626
11
0.8075
21
0.484626
0
LINE
8
BLACK
6
CONTINUOUS
10
0.8075
20
0.484626
11
0.804487
21
0.485225
0
LINE
8
BLACK
6
CONTINUOUS
10
0.804487
20
0.485225
11
0.801932
21
0.486932
0
LINE
8
BLACK
6
CONTINUOUS
10
0.801932
20
0.486932
11
0.800225
21
0.489487
0
LINE
8
BLACK
6
CONTINUOUS
10
0.800225
20
0.489487
11
0.799626
21
0.4925
0
LINE
8
BLACK
6
CONTINUOUS
10
0.799626
20
0.4925
11
0.799626
21
0.5475
0
LINE
8
BLACK
6
CONTINUOUS
10
0.799626
20
0.5475
11
0.800225
21
0.550513
0
LINE
8
BLACK
6
CONTINUOUS
10
0.800225
20
0.550513
11
0.801932
21
0.553068
0
LINE
8
BLACK
6
CONTINUOUS
10
0.801932
20
0.553068
11
0.804487
21
0.554775
0
LINE
8
BLACK
6
CONTINUOUS
10
0.804487
20
0.554775
11
0.8075
21
0.555374
0
LINE
8
BLACK
6
CONTINUOUS
10
0.8075
20
0.555374
11
0.8425
21
0.555374
0
LINE
8
BLACK
6
CONTINUOUS
10
0.8425
20
0.555374
11
0.845513
21
0.554775
0
LINE
8
BLACK
6
CONTINUOUS
10
0.535513
20
0.549775
11
0.538068
21
0.548068
0
LINE
8
BLACK
6
CONTINUOUS
10
0.538068
20
0.548068
11
0.539775
21
0.545513
0
LINE
8
BLACK
6
CONTINUOUS
10
0.539775
20
0.545513
11
0.540374
21
0.5425
0
LINE
8
BLACK
6
CONTINUOUS
10
0.540374
20
0.5425
11
0.540374
21
0.5075
0
LINE
8
BLACK
6
CONTINUOUS
10
0.540374
20
0.5075
11
0.539775
21
0.504487
0
LINE
8
BLACK
6
CONTINUOUS
10
0.539775
20
0.504487
11
0.538068
21
0.501932
0
LINE
8
BLACK
6
CONTINUOUS
10
0.538068
20
0.501932
11
0.535513
21
0.500225
0
LINE
8
BLACK
6
CONTINUOUS
10
0.535513
20
0.500225
11
0.5325
21
0.499626
0
LINE
8
BLACK
6
CONTINUOUS
10
0.5325
20
0.499626
11
0.4775
21
0.499626
0
LINE
8
BLACK
6
CONTINUOUS
10
0.4775
20
0.499626
11
0.474487
21
0.500225
0
LINE
8
BLACK
6
CONTINUOUS
10
0.474487
20
0.500225
11
0.471932
21
0.501932
0
LINE
8
BLACK
6
CONTINUOUS
10
0.471932
20
0.501932
11
0.470225
21
0.504487
0
LINE
8
BLACK
6
CONTINUOUS
10
0.470225
20
0.504487
11
0.469626
21
0.5075
0
LINE
8
BLACK
6
CONTINUOUS
10
0.469626
20
0.5075
11
0.469626
21
0.5425
0
LINE
8
BLACK
6
CONTINUOUS
10
0.469626
20
0.5425
11
0.470225
21
0.545513
0
LINE
8
BLACK
6
CONTINUOUS
10
0.470225
20
0.545513
11
0.471932
21
0.548068
0
LINE
8
BLACK
6
CONTINUOUS
10
0.471932
20
0.548068
11
0.474487
21
0.549775
0
LINE
8
BLACK
6
CONTINUOUS
10
0.474487
20
0.549775
11
0.4775
21
0.550374
0
LINE
8
BLACK
6
CONTINUOUS
10
0.4775
20
0.550374
11
0.5325
21
0.550374
0
LINE
8
BLACK
6
CONTINUOUS
10
0.5325
20
0.550374
11
0.535513
21
0.549775
0
LINE
8
BLACK
6
CONTINUOUS
10
0.615513
20
0.549775
11
0.618068
21
0.548068
0
LINE
8
BLACK
6
CONTINUOUS
10
0.618068
20
0.548068
11
0.619775
21
0.545513
0
LINE
8
BLACK
6
CONTINUOUS
10
0.619775
20
0.545513
11
0.620374
21
0.5425
0
LINE
8
BLACK
6
CONTINUOUS
10
0.620374
20
0.5425
11
0.620374
21
0.5075
0
LINE
8
BLACK
6
CONTINUOUS
10
0.620374
20
0.5075
11
0.619775
21
0.504487
0
LINE
8
BLACK
6
CONTINUOUS
10
0.619775
20
0.504487
11
0.618068
21
0.501932
0
LINE
8
BLACK
6
CONTINUOUS
10
0.618068
20
0.501932
11
0.615513
21
0.500225
0
LINE
8
BLACK
6
CONTINUOUS
10
0.615513
20
0.500225
11
0.6125
21
0.499626
0
LINE
8
BLACK
6
CONTINUOUS
10
0.6125
20
0.499626
11
0.5575
21
0.499626
0
LINE
8
BLACK
6
CONTINUOUS
10
0.5575
20
0.499626
11
0.554487
21
0.500225
0
LINE
8
BLACK
6
CONTINUOUS
10
0.554487
20
0.500225
11
0.551932
21
0.501932
0
LINE
8
BLACK
6
CONTINUOUS
10
0.551932
20
0.501932
11
0.550225
21
0.504487
0
LINE
8
BLACK
6
CONTINUOUS
10
0.550225
20
0.504487
11
0.549626
21
0.5075
0
LINE
8
BLACK
6
CONTINUOUS
10
0.549626
20
0.5075
11
0.549626
21
0.5425
0
LINE
8
BLACK
6
CONTINUOUS
10
0.549626
20
0.5425
11
0.550225
21
0.545513
0
LINE
8
BLACK
6
CONTINUOUS
10
0.550225
20
0.545513
11
0.551932
21
0.548068
0
LINE
8
BLACK
6
CONTINUOUS
10
0.551932
20
0.548068
11
0.554487
21
0.549775
0
LINE
8
BLACK
6
CONTINUOUS
10
0.554487
20
0.549775
11
0.5575
21
0.550374
0
LINE
8
BLACK
6
CONTINUOUS
10
0.5575
20
0.550374
11
0.6125
21
0.550374
0
LINE
8
BLACK
6
CONTINUOUS
10
0.6125
20
0.550374
11
0.615513
21
0.549775
0
LINE
8
BLACK
6
CONTINUOUS
10
0.695513
20
0.549775
11
0.698068
21
0.548068
0
LINE
8
BLACK
6
CONTINUOUS
10
0.698068
20
0.548068
11
0.699775
21
0.545513
0
LINE
8
BLACK
6
CONTINUOUS
10
0.699775
20
0.545513
11
0.700374
21
0.5425
0
LINE
8
BLACK
6
CONTINUOUS
10
0.700374
20
0.5425
11
0.700374
21
0.5075
0
LINE
8
BLACK
6
CONTINUOUS
10
0.700374
20
0.5075
11
0.699775
21
0.504487
0
LINE
8
BLACK
6
CONTINUOUS
10
0.699775
20
0.504487
11
0.698068
21
0.501932
0
LINE
8
BLACK
6
CONTINUOUS
10
0.698068
20
0.501932
11
0.695513
21
0.500225
0
LINE
8
BLACK
6
CONTINUOUS
10
0.695513
20
0.500225
11
0.6925
21
0.499626
0
LINE
8
BLACK
6
CONTINUOUS
10
0.6925
20
0.499626
11
0.6375
21
0.499626
0
LINE
8
BLACK
6
CONTINUOUS
10
0.6375
20
0.499626
11
0.634487
21
0.500225
0
LINE
8
BLACK
6
CONTINUOUS
10
0.634487
20
0.500225
11
0.631932
21
0.501932
0
LINE
8
BLACK
6
CONTINUOUS
10
0.631932
20
0.501932
11
0.630225
21
0.504487
0
LINE
8
BLACK
6
CONTINUOUS
10
0.630225
20
0.504487
11
0.629626
21
0.5075
0
LINE
8
BLACK
6
CONTINUOUS
10
0.629626
20
0.5075
11
0.629626
21
0.5425
0
LINE
8
BLACK
6
CONTINUOUS
10
0.629626
20
0.5425
11
0.630225
21
0.545513
0
LINE
8
BLACK
6
CONTINUOUS
10
0.630225
20
0.545513
11
0.631932
21
0.548068
0
LINE
8
BLACK
6
CONTINUOUS
10
0.631932
20
0.548068
11
0.634487
21
0.549775
0
LINE
8
BLACK
6
CONTINUOUS
10
0.634487
20
0.549775
11
0.6375
21
0.550374
0
LINE
8
BLACK
6
CONTINUOUS
10
0.6375
20
0.550374
11
0.6925
21
0.550374
0
LINE
8
BLACK
6
CONTINUOUS
10
0.6925
20
0.550374
11
0.695513
21
0.549775
0
LINE
8
BLACK
6
CONTINUOUS
10
0.295513
20
0.604775
11
0.298068
21
0.603068
0
LINE
8
BLACK
6
CONTINUOUS
10
0.298068
20
0.603068
11
0.299775
21
0.600513
0
LINE
8
BLACK
6
CONTINUOUS
10
0.299775
20
0.600513
11
0.300374
21
0.5975
0
LINE
8
BLACK
6
CONTINUOUS
10
0.300374
20
0.5975
11
0.300374
21
0.5625
0
LINE
8
BLACK
6
CONTINUOUS
10
0.300374
20
0.5625
11
0.299775
21
0.559487
0
LINE
8
BLACK
6
CONTINUOUS
10
0.299775
20
0.559487
11
0.298068
21
0.556932
0
LINE
8
BLACK
6
CONTINUOUS
10
0.298068
20
0.556932
11
0.295513
21
0.555225
0
LINE
8
BLACK
6
CONTINUOUS
10
0.295513
20
0.555225
11
0.2925
21
0.554626
0
LINE
8
BLACK
6
CONTINUOUS
10
0.2925
20
0.554626
11
0.2375
21
0.554626
0
LINE
8
BLACK
6
CONTINUOUS
10
0.2375
20
0.554626
11
0.234487
21
0.555225
0
LINE
8
BLACK
6
CONTINUOUS
10
0.234487
20
0.555225
11
0.231932
21
0.556932
0
LINE
8
BLACK
6
CONTINUOUS
10
0.231932
20
0.556932
11
0.230225
21
0.559487
0
LINE
8
BLACK
6
CONTINUOUS
10
0.230225
20
0.559487
11
0.229626
21
0.5625
0
LINE
8
BLACK
6
CONTINUOUS
10
0.229626
20
0.5625
11
0.229626
21
0.5975
0
LINE
8
BLACK
6
CONTINUOUS
10
0.229626
20
0.5975
11
0.230225
21
0.600513
0
LINE
8
BLACK
6
CONTINUOUS
10
0.230225
20
0.600513
11
0.231932
21
0.603068
0
LINE
8
BLACK
6
CONTINUOUS
10
0.231932
20
0.603068
11
0.234487
21
0.604775
0
LINE
8
BLACK
6
CONTINUOUS
10
0.234487
20
0.604775
11
0.2375
21
0.605374
0
LINE
8
BLACK
6
CONTINUOUS
10
0.2375
20
0.605374
11
0.2925
21
0.605374
0
LINE
8
BLACK
6
CONTINUOUS
10
0.2925
20
0.605374
11
0.295513
21
0.604775
0
LINE
8
BLACK
6
CONTINUOUS
10
0.370513
20
0.634775
11
0.373068
21
0.633068
0
LINE
8
BLACK
6
CONTINUOUS
10
0.373068
20
0.633068
11
0.374775
21
0.630513
0
LINE
8
BLACK
6
CONTINUOUS
10
0.374775
20
0.630513
11
0.375374
21
0.6275
0
LINE
8
BLACK
6
CONTINUOUS
10
0.375374
20
0.6275
11
0.375374
21
0.5725
0
LINE
8
BLACK
6
CONTINUOUS
10
0.375374
20
0.5725
11
0.374775
21
0.569487
0
LINE
8
BLACK
6
CONTINUOUS
10
0.374775
20
0.569487
11
0.373068
21
0.566932
0
LINE
8
BLACK
6
CONTINUOUS
10
0.373068
20
0.566932
11
0.370513
21
0.565225
0
LINE
8
BLACK
6
CONTINUOUS
10
0.370513
20
0.565225
11
0.3675
21
0.564626
0
LINE
8
BLACK
6
CONTINUOUS
10
0.3675
20
0.564626
11
0.3325
21
0.564626
0
LINE
8
BLACK
6
CONTINUOUS
10
0.3325
20
0.564626
11
0.329487
21
0.565225
0
LINE
8
BLACK
6
CONTINUOUS
10
0.329487
20
0.565225
11
0.326932
21
0.566932
0
LINE
8
BLACK
6
CONTINUOUS
10
0.326932
20
0.566932
11
0.325225
21
0.569487
0
LINE
8
BLACK
6
CONTINUOUS
10
0.325225
20
0.569487
11
0.324626
21
0.5725
0
LINE
8
BLACK
6
CONTINUOUS
10
0.324626
20
0.5725
11
0.324626
21
0.6275
0
LINE
8
BLACK
6
CONTINUOUS
10
0.324626
20
0.6275
11
0.325225
21
0.630513
0
LINE
8
BLACK
6
CONTINUOUS
10
0.325225
20
0.630513
11
0.326932
21
0.633068
0
LINE
8
BLACK
6
CONTINUOUS
10
0.326932
20
0.633068
11
0.329487
21
0.634775
0
LINE
8
BLACK
6
CONTINUOUS
10
0.329487
20
0.634775
11
0.3325
21
0.635374
0
LINE
8
BLACK
6
CONTINUOUS
10
0.3325
20
0.635374
11
0.3675
21
0.635374
0
LINE
8
BLACK
6
CONTINUOUS
10
0.3675
20
0.635374
11
0.370513
21
0.634775
0
LINE
8
BLACK
6
CONTINUOUS
10
0.445513
20
0.634775
11
0.448068
21
0.633068
0
LINE
8
BLACK
6
CONTINUOUS
10
0.448068
20
0.633068
11
0.449775
21
0.630513
0
LINE
8
BLACK
6
CONTINUOUS
10
0.449775
20
0.630513
11
0.450374
21
0.6275
0
LINE
8
BLACK
6
CONTINUOUS
10
0.450374
20
0.6275
11
0.450374
21
0.5725
0
LINE
8
BLACK
6
CONTINUOUS
10
0.450374
20
0.5725
11
0.449775
21
0.569487
0
LINE
8
BLACK
6
CONTINUOUS
10
0.449775
20
0.569487
11
0.448068
21
0.566932
0
LINE
8
BLACK
6
CONTINUOUS
10
0.448068
20
0.566932
11
0.445513
21
0.565225
0
LINE
8
BLACK
6
CONTINUOUS
10
0.445513
20
0.565225
11
0.4425
21
0.564626
0
LINE
8
BLACK
6
CONTINUOUS
10
0.4425
20
0.564626
11
0.4075
21
0.564626
0
LINE
8
BLACK
6
CONTINUOUS
10
0.4075
20
0.564626
11
0.404487
21
0.565225
0
LINE
8
BLACK
6
CONTINUOUS
10
0.404487
20
0.565225
11
0.401932
21
0.566932
0
LINE
8
BLACK
6
CONTINUOUS
10
0.401932
20
0.566932
11
0.400225
21
0.569487
0
LINE
8
BLACK
6
CONTINUOUS
10
0.400225
20
0.569487
11
0.399626
21
0.5725
0
LINE
8
BLACK
6
CONTINUOUS
10
0.399626
20
0.5725
11
0.399626
21
0.6275
0
LINE
8
BLACK
6
CONTINUOUS
10
0.399626
20
0.6275
11
0.400225
21
0.630513
0
LINE
8
BLACK
6
CONTINUOUS
10
0.400225
20
0.630513
11
0.401932
21
0.633068
0
LINE
8
BLACK
6
CONTINUOUS
10
0.401932
20
0.633068
11
0.404487
21
0.634775
0
LINE
8
BLACK
6
CONTINUOUS
10
0.404487
20
0.634775
11
0.4075
21
0.635374
0
LINE
8
BLACK
6
CONTINUOUS
10
0.4075
20
0.635374
11
0.4425
21
0.635374
0
LINE
8
BLACK
6
CONTINUOUS
10
0.4425
20
0.635374
11
0.445513
21
0.634775
0
LINE
8
BLACK
6
CONTINUOUS
10
0.770513
20
0.634775
11
0.773068
21
0.633068
0
LINE
8
BLACK
6
CONTINUOUS
10
0.773068
20
0.633068
11
0.774775
21
0.630513
0
LINE
8
BLACK
6
CONTINUOUS
10
0.774775
20
0.630513
11
0.775374
21
0.6275
0
LINE
8
BLACK
6
CONTINUOUS
10
0.775374
20
0.6275
11
0.775374
21
0.5725
0
LINE
8
BLACK
6
CONTINUOUS
10
0.775374
20
0.5725
11
0.774775
21
0.569487
0
LINE
8
BLACK
6
CONTINUOUS
10
0.774775
20
0.569487
11
0.773068
21
0.566932
0
LINE
8
BLACK
6
CONTINUOUS
10
0.773068
20
0.566932
11
0.770513
21
0.565225
0
LINE
8
BLACK
6
CONTINUOUS
10
0.770513
20
0.565225
11
0.7675
21
0.564626
0
LINE
8
BLACK
6
CONTINUOUS
10
0.7675
20
0.564626
11
0.7325
21
0.564626
0
LINE
8
BLACK
6
CONTINUOUS
10
0.7325
20
0.564626
11
0.729487
21
0.565225
0
LINE
8
BLACK
6
CONTINUOUS
10
0.729487
20
0.565225
11
0.726932
21
0.566932
0
LINE
8
BLACK
6
CONTINUOUS
10
0.726932
20
0.566932
11
0.725225
21
0.569487
0
LINE
8
BLACK
6
CONTINUOUS
10
0.725225
20
0.569487
11
0.724626
21
0.5725
0
LINE
8
BLACK
6
CONTINUOUS
10
0.724626
20
0.5725
11
0.724626
21
0.6275
0
LINE
8
BLACK
6
CONTINUOUS
10
0.724626
20
0.6275
11
0.725225
21
0.630513
0
LINE
8
BLACK
6
CONTINUOUS
10
0.725225
20
0.630513
11
0.726932
21
0.633068
0
LINE
8
BLACK
6
CONTINUOUS
10
0.726932
20
0.633068
11
0.729487
21
0.634775
0
LINE
8
BLACK
6
CONTINUOUS
10
0.729487
20
0.634775
11
0.7325
21
0.635374
0
LINE
8
BLACK
6
CONTINUOUS
10
0.7325
20
0.635374
11
0.7675
21
0.635374
0
LINE
8
BLACK
6
CONTINUOUS
10
0.7675
20
0.635374
11
0.770513
21
0.634775
0
LINE
8
BLACK
6
CONTINUOUS
10
0.845513
20
0.634775
11
0.848068
21
0.633068
0
LINE
8
BLACK
6
CONTINUOUS
10
0.848068
20
0.633068
11
0.849775
21
0.630513
0
LINE
8
BLACK
6
CONTINUOUS
10
0.849775
20
0.630513
11
0.850374
21
0.6275
0
LINE
8
BLACK
6
CONTINUOUS
10
0.850374
20
0.6275
11
0.850374
21
0.5725
0
LINE
8
BLACK
6
CONTINUOUS
10
0.850374
20
0.5725
11
0.849775
21
0.569487
0
LINE
8
BLACK
6
CONTINUOUS
10
0.849775
20
0.569487
11
0.848068
21
0.566932
0
LINE
8
BLACK
6
CONTINUOUS
10
0.848068
20
0.566932
11
0.845513
21
0.565225
0
LINE
8
BLACK
6
CONTINUOUS
10
0.845513
20
0.565225
11
0.8425
21
0.564626
0
LINE
8
BLACK
6
CONTINUOUS
10
0.8425
20
0.564626
11
0.8075
21
0.564626
0
LINE
8
BLACK
6
CONTINUOUS
10
0.8075
20
0.564626
11
0.804487
21
0.565225
0
LINE
8
BLACK
6
CONTINUOUS
10
0.804487
20
0.565225
11
0.801932
21
0.566932
0
LINE
8
BLACK
6
CONTINUOUS
10
0.801932
20
0.566932
11
0.800225
21
0.569487
0
LINE
8
BLACK
6
CONTINUOUS
10
0.800225
20
0.569487
11
0.799626
21
0.5725
0
LINE
8
BLACK
6
CONTINUOUS
10
0.799626
20
0.5725
11
0.799626
21
0.6275
0
LINE
8
BLACK
6
CONTINUOUS
10
0.799626
20
0.6275
11
0.800225
21
0.630513
0
LINE
8
BLACK
6
CONTINUOUS
10
0.800225
20
0.630513
11
0.801932
21
0.633068
0
LINE
8
BLACK
6
CONTINUOUS
10
0.801932
20
0.633068
11
0.804487
21
0.634775
0
LINE
8
BLACK
6
CONTINUOUS
10
0.804487
20
0.634775
11
0.8075
21
0.635374
0
LINE
8
BLACK
6
CONTINUOUS
10
0.8075
20
0.635374
11
0.8425
21
0.635374
0
LINE
8
BLACK
6
CONTINUOUS
10
0.8425
20
0.635374
11
0.845513
21
0.634775
0
LINE
8
BLACK
6
CONTINUOUS
10
0.535513
20
0.624775
11
0.538068
21
0.623068
0
LINE
8
BLACK
6
CONTINUOUS
10
0.538068
20
0.623068
11
0.539775
21
0.620513
0
LINE
8
BLACK
6
CONTINUOUS
10
0.539775
20
0.620513
11
0.540374
21
0.6175
0
LINE
8
BLACK
6
CONTINUOUS
10
0.540374
20
0.6175
11
0.540374
21
0.5825
0
LINE
8
BLACK
6
CONTINUOUS
10
0.540374
20
0.5825
11
0.539775
21
0.579487
0
LINE
8
BLACK
6
CONTINUOUS
10
0.539775
20
0.579487
11
0.538068
21
0.576932
0
LINE
8
BLACK
6
CONTINUOUS
10
0.538068
20
0.576932
11
0.535513
21
0.575225
0
LINE
8
BLACK
6
CONTINUOUS
10
0.535513
20
0.575225
11
0.5325
21
0.574626
0
LINE
8
BLACK
6
CONTINUOUS
10
0.5325
20
0.574626
11
0.4775
21
0.574626
0
LINE
8
BLACK
6
CONTINUOUS
10
0.4775
20
0.574626
11
0.474487
21
0.575225
0
LINE
8
BLACK
6
CONTINUOUS
10
0.474487
20
0.575225
11
0.471932
21
0.576932
0
LINE
8
BLACK
6
CONTINUOUS
10
0.471932
20
0.576932
11
0.470225
21
0.579487
0
LINE
8
BLACK
6
CONTINUOUS
10
0.470225
20
0.579487
11
0.469626
21
0.5825
0
LINE
8
BLACK
6
CONTINUOUS
10
0.469626
20
0.5825
11
0.469626
21
0.6175
0
LINE
8
BLACK
6
CONTINUOUS
10
0.469626
20
0.6175
11
0.470225
21
0.620513
0
LINE
8
BLACK
6
CONTINUOUS
10
0.470225
20
0.620513
11
0.471932
21
0.623068
0
LINE
8
BLACK
6
CONTINUOUS
10
0.471932
20
0.623068
11
0.474487
21
0.624775
0
LINE
8
BLACK
6
CONTINUOUS
10
0.474487
20
0.624775
11
0.4775
21
0.625374
0
LINE
8
BLACK
6
CONTINUOUS
10
0.4775
20
0.625374
11
0.5325
21
0.625374
0
LINE
8
BLACK
6
CONTINUOUS
10
0.5325
20
0.625374
11
0.535513
21
0.624775
0
LINE
8
BLACK
6
CONTINUOUS
10
0.615513
20
0.624775
11
0.618068
21
0.623068
0
LINE
8
BLACK
6
CONTINUOUS
10
0.618068
20
0.623068
11
0.619775
21
0.620513
0
LINE
8
BLACK
6
CONTINUOUS
10
0.619775
20
0.620513
11
0.620374
21
0.6175
0
LINE
8
BLACK
6
CONTINUOUS
10
0.620374
20
0.6175
11
0.620374
21
0.5825
0
LINE
8
BLACK
6
CONTINUOUS
10
0.620374
20
0.5825
11
0.619775
21
0.579487
0
LINE
8
BLACK
6
CONTINUOUS
10
0.619775
20
0.579487
11
0.618068
21
0.576932
0
LINE
8
BLACK
6
CONTINUOUS
10
0.618068
20
0.576932
11
0.615513
21
0.575225
0
LINE
8
BLACK
6
CONTINUOUS
10
0.615513
20
0.575225
11
0.6125
21
0.574626
0
LINE
8
BLACK
6
CONTINUOUS
10
0.6125
20
0.574626
11
0.5575
21
0.574626
0
LINE
8
BLACK
6
CONTINUOUS
10
0.5575
20
0.574626
11
0.554487
21
0.575225
0
LINE
8
BLACK
6
CONTINUOUS
10
0.554487
20
0.575225
11
0.551932
21
0.576932
0
LINE
8
BLACK
6
CONTINUOUS
10
0.551932
20
0.576932
11
0.550225
21
0.579487
0
LINE
8
BLACK
6
CONTINUOUS
10
0.550225
20
0.579487
11
0.549626
21
0.5825
0
LINE
8
BLACK
6
CONTINUOUS
10
0.549626
20
0.5825
11
0.549626
21
0.6175
0
LINE
8
BLACK
6
CONTINUOUS
10
0.549626
20
0.6175
11
0.550225
21
0.620513
0
LINE
8
BLACK
6
CONTINUOUS
10
0.550225
20
0.620513
11
0.551932
21
0.623068
0
LINE
8
BLACK
6
CONTINUOUS
10
0.551932
20
0.623068
11
0.554487
21
0.624775
0
LINE
8
BLACK
6
CONTINUOUS
10
0.554487
20
0.624775
11
0.5575
21
0.625374
0
LINE
8
BLACK
6
CONTINUOUS
10
0.5575
20
0.625374
11
0.6125
21
0.625374
0
LINE
8
BLACK
6
CONTINUOUS
10
0.6125
20
0.625374
11
0.615513
21
0.624775
0
LINE
8
BLACK
6
CONTINUOUS
10
0.695513
20
0.624775
11
0.698068
21
0.623068
0
LINE
8
BLACK
6
CONTINUOUS
10
0.698068
20
0.623068
11
0.699775
21
0.620513
0
LINE
8
BLACK
6
CONTINUOUS
10
0.699775
20
0.620513
11
0.700374
21
0.6175
0
LINE
8
BLACK
6
CONTINUOUS
10
0.700374
20
0.6175
11
0.700374
21
0.5825
0
LINE
8
BLACK
6
CONTINUOUS
10
0.700374
20
0.5825
11
0.699775
21
0.579487
0
LINE
8
BLACK
6
CONTINUOUS
10
0.699775
20
0.579487
11
0.698068
21
0.576932
0
LINE
8
BLACK
6
CONTINUOUS
10
0.698068
20
0.576932
11
0.695513
21
0.575225
0
LINE
8
BLACK
6
CONTINUOUS
10
0.695513
20
0.575225
11
0.6925
21
0.574626
0
LINE
8
BLACK
6
CONTINUOUS
10
0.6925
20
0.574626
11
0.6375
21
0.574626
0
LINE
8
BLACK
6
CONTINUOUS
10
0.6375
20
0.574626
11
0.634487
21
0.575225
0
LINE
8
BLACK
6
CONTINUOUS
10
0.634487
20
0.575225
11
0.631932
21
0.576932
0
LINE
8
BLACK
6
CONTINUOUS
10
0.631932
20
0.576932
11
0.630225
21
0.579487
0
LINE
8
BLACK
6
CONTINUOUS
10
0.630225
20
0.579487
11
0.629626
21
0.5825
0
LINE
8
BLACK
6
CONTINUOUS
10
0.629626
20
0.5825
11
0.629626
21
0.6175
0
LINE
8
BLACK
6
CONTINUOUS
10
0.629626
20
0.6175
11
0.630225
21
0.620513
0
LINE
8
BLACK
6
CONTINUOUS
10
0.630225
20
0.620513
11
0.631932
21
0.623068
0
LINE
8
BLACK
6
CONTINUOUS
10
0.631932
20
0.623068
11
0.634487
21
0.624775
0
LINE
8
BLACK
6
CONTINUOUS
10
0.634487
20
0.624775
11
0.6375
21
0.625374
0
LINE
8
BLACK
6
CONTINUOUS
10
0.6375
20
0.625374
11
0.6925
21
0.625374
0
LINE
8
BLACK
6
CONTINUOUS
10
0.6925
20
0.625374
11
0.695513
21
0.624775
0
LINE
8
BLACK
6
CONTINUOUS
10
1.02801
20
0.657275
11
1.03057
21
0.655568
0
LINE
8
BLACK
6
CONTINUOUS
10
1.03057
20
0.655568
11
1.03227
21
0.653013
0
LINE
8
BLACK
6
CONTINUOUS
10
1.03227
20
0.653013
11
1.03287
21
0.65
0
LINE
8
BLACK
6
CONTINUOUS
10
1.03287
20
0.65
11
1.03287
21
0.59
0
LINE
8
BLACK
6
CONTINUOUS
10
1.03287
20
0.59
11
1.03227
21
0.586987
0
LINE
8
BLACK
6
CONTINUOUS
10
1.03227
20
0.586987
11
1.03057
21
0.584432
0
LINE
8
BLACK
6
CONTINUOUS
10
1.03057
20
0.584432
11
1.02801
21
0.582725
0
LINE
8
BLACK
6
CONTINUOUS
10
1.02801
20
0.582725
11
1.025
21
0.582126
0
LINE
8
BLACK
6
CONTINUOUS
10
1.025
20
0.582126
11
0.965
21
0.582126
0
LINE
8
BLACK
6
CONTINUOUS
10
0.965
20
0.582126
11
0.961987
21
0.582725
0
LINE
8
BLACK
6
CONTINUOUS
10
0.961987
20
0.582725
11
0.959432
21
0.584432
0
LINE
8
BLACK
6
CONTINUOUS
10
0.959432
20
0.584432
11
0.957725
21
0.586987
0
LINE
8
BLACK
6
CONTINUOUS
10
0.957725
20
0.586987
11
0.957126
21
0.59
0
LINE
8
BLACK
6
CONTINUOUS
10
0.957126
20
0.59
11
0.957126
21
0.65
0
LINE
8
BLACK
6
CONTINUOUS
10
0.957126
20
0.65
11
0.957725
21
0.653013
0
LINE
8
BLACK
6
CONTINUOUS
10
0.957725
20
0.653013
11
0.959432
21
0.655568
0
LINE
8
BLACK
6
CONTINUOUS
10
0.959432
20
0.655568
11
0.961987
21
0.657275
0
LINE
8
BLACK
6
CONTINUOUS
10
0.961987
20
0.657275
11
0.965
21
0.657874
0
LINE
8
BLACK
6
CONTINUOUS
10
0.965
20
0.657874
11
1.025
21
0.657874
0
LINE
8
BLACK
6
CONTINUOUS
10
1.025
20
0.657874
11
1.02801
21
0.657275
0
LINE
8
BLACK
6
CONTINUOUS
10
1.12801
20
0.657275
11
1.13057
21
0.655568
0
LINE
8
BLACK
6
CONTINUOUS
10
1.13057
20
0.655568
11
1.13227
21
0.653013
0
LINE
8
BLACK
6
CONTINUOUS
10
1.13227
20
0.653013
11
1.13287
21
0.65
0
LINE
8
BLACK
6
CONTINUOUS
10
1.13287
20
0.65
11
1.13287
21
0.59
0
LINE
8
BLACK
6
CONTINUOUS
10
1.13287
20
0.59
11
1.13227
21
0.586987
0
LINE
8
BLACK
6
CONTINUOUS
10
1.13227
20
0.586987
11
1.13057
21
0.584432
0
LINE
8
BLACK
6
CONTINUOUS
10
1.13057
20
0.584432
11
1.12801
21
0.582725
0
LINE
8
BLACK
6
CONTINUOUS
10
1.12801
20
0.582725
11
1.125
21
0.582126
0
LINE
8
BLACK
6
CONTINUOUS
10
1.125
20
0.582126
11
1.065
21
0.582126
0
LINE
8
BLACK
6
CONTINUOUS
10
1.065
20
0.582126
11
1.06199
21
0.582725
0
LINE
8
BLACK
6
CONTINUOUS
10
1.06199
20
0.582725
11
1.05943
21
0.584432
0
LINE
8
BLACK
6
CONTINUOUS
10
1.05943
20
0.584432
11
1.05773
21
0.586987
0
LINE
8
BLACK
6
CONTINUOUS
10
1.05773
20
0.586987
11
1.05713
21
0.59
0
LINE
8
BLACK
6
CONTINUOUS
10
1.05713
20
0.59
11
1.05713
21
0.65
0
LINE
8
BLACK
6
CONTINUOUS
10
1.05713
20
0.65
11
1.05773
21
0.653013
0
LINE
8
BLACK
6
CONTINUOUS
10
1.05773
20
0.653013
11
1.05943
21
0.655568
0
LINE
8
BLACK
6
CONTINUOUS
10
1.05943
20
0.655568
11
1.06199
21
0.657275
0
LINE
8
BLACK
6
CONTINUOUS
10
1.06199
20
0.657275
11
1.065
21
0.657874
0
LINE
8
BLACK
6
CONTINUOUS
10
1.065
20
0.657874
11
1.125
21
0.657874
0
LINE
8
BLACK
6
CONTINUOUS
10
1.125
20
0.657874
11
1.12801
21
0.657275
0
LINE
8
BLACK
6
CONTINUOUS
10
0.668879
20
0.777471
11
0.671434
21
0.775765
0
LINE
8
BLACK
6
CONTINUOUS
10
0.671434
20
0.775765
11
0.673141
21
0.77321
0
LINE
8
BLACK
6
CONTINUOUS
10
0.673141
20
0.77321
11
0.67374
21
0.770197
0
LINE
8
BLACK
6
CONTINUOUS
10
0.67374
20
0.770197
11
0.67374
21
0.744606
0
LINE
8
BLACK
6
CONTINUOUS
10
0.67374
20
0.744606
11
0.673141
21
0.741593
0
LINE
8
BLACK
6
CONTINUOUS
10
0.673141
20
0.741593
11
0.671434
21
0.739039
0
LINE
8
BLACK
6
CONTINUOUS
10
0.671434
20
0.739039
11
0.670928
21
0.738701
0
LINE
8
BLACK
6
CONTINUOUS
10
0.670928
20
0.738701
11
0.671434
21
0.738363
0
LINE
8
BLACK
6
CONTINUOUS
10
0.671434
20
0.738363
11
0.673141
21
0.735809
0
LINE
8
BLACK
6
CONTINUOUS
10
0.673141
20
0.735809
11
0.67374
21
0.732795
0
LINE
8
BLACK
6
CONTINUOUS
10
0.67374
20
0.732795
11
0.67374
21
0.707205
0
LINE
8
BLACK
6
CONTINUOUS
10
0.67374
20
0.707205
11
0.673141
21
0.704191
0
LINE
8
BLACK
6
CONTINUOUS
10
0.673141
20
0.704191
11
0.671434
21
0.701637
0
LINE
8
BLACK
6
CONTINUOUS
10
0.671434
20
0.701637
11
0.670928
21
0.701299
0
LINE
8
BLACK
6
CONTINUOUS
10
0.670928
20
0.701299
11
0.671434
21
0.700961
0
LINE
8
BLACK
6
CONTINUOUS
10
0.671434
20
0.700961
11
0.673141
21
0.698407
0
LINE
8
BLACK
6
CONTINUOUS
10
0.673141
20
0.698407
11
0.67374
21
0.695394
0
LINE
8
BLACK
6
CONTINUOUS
10
0.67374
20
0.695394
11
0.67374
21
0.669803
0
LINE
8
BLACK
6
CONTINUOUS
10
0.67374
20
0.669803
11
0.673141
21
0.66679
0
LINE
8
BLACK
6
CONTINUOUS
10
0.673141
20
0.66679
11
0.671434
21
0.664235
0
LINE
8
BLACK
6
CONTINUOUS
10
0.671434
20
0.664235
11
0.668879
21
0.662529
0
LINE
8
BLACK
6
CONTINUOUS
10
0.668879
20
0.662529
11
0.665866
21
0.661929
0
LINE
8
BLACK
6
CONTINUOUS
10
0.665866
20
0.661929
11
0.624134
21
0.661929
0
LINE
8
BLACK
6
CONTINUOUS
10
0.624134
20
0.661929
11
0.621121
21
0.662529
0
LINE
8
BLACK
6
CONTINUOUS
10
0.621121
20
0.662529
11
0.618566
21
0.664235
0
LINE
8
BLACK
6
CONTINUOUS
10
0.618566
20
0.664235
11
0.616859
21
0.66679
0
LINE
8
BLACK
6
CONTINUOUS
10
0.616859
20
0.66679
11
0.61626
21
0.669803
0
LINE
8
BLACK
6
CONTINUOUS
10
0.61626
20
0.669803
11
0.61626
21
0.695394
0
LINE
8
BLACK
6
CONTINUOUS
10
0.61626
20
0.695394
11
0.616859
21
0.698407
0
LINE
8
BLACK
6
CONTINUOUS
10
0.616859
20
0.698407
11
0.618566
21
0.700961
0
LINE
8
BLACK
6
CONTINUOUS
10
0.618566
20
0.700961
11
0.619072
21
0.701299
0
LINE
8
BLACK
6
CONTINUOUS
10
0.619072
20
0.701299
11
0.618566
21
0.701637
0
LINE
8
BLACK
6
CONTINUOUS
10
0.618566
20
0.701637
11
0.616859
21
0.704191
0
LINE
8
BLACK
6
CONTINUOUS
10
0.616859
20
0.704191
11
0.61626
21
0.707205
0
LINE
8
BLACK
6
CONTINUOUS
10
0.61626
20
0.707205
11
0.61626
21
0.732795
0
LINE
8
BLACK
6
CONTINUOUS
10
0.61626
20
0.732795
11
0.616859
21
0.735809
0
LINE
8
BLACK
6
CONTINUOUS
10
0.616859
20
0.735809
11
0.618566
21
0.738363
0
LINE
8
BLACK
6
CONTINUOUS
10
0.618566
20
0.738363
11
0.619072
21
0.738701
0
LINE
8
BLACK
6
CONTINUOUS
10
0.619072
20
0.738701
11
0.618566
21
0.739039
0
LINE
8
BLACK
6
CONTINUOUS
10
0.618566
20
0.739039
11
0.616859
21
0.741593
0
LINE
8
BLACK
6
CONTINUOUS
10
0.616859
20
0.741593
11
0.61626
21
0.744606
0
LINE
8
BLACK
6
CONTINUOUS
10
0.61626
20
0.744606
11
0.61626
21
0.770197
0
LINE
8
BLACK
6
CONTINUOUS
10
0.61626
20
0.770197
11
0.616859
21
0.77321
0
LINE
8
BLACK
6
CONTINUOUS
10
0.616859
20
0.77321
11
0.618566
21
0.775765
0
LINE
8
BLACK
6
CONTINUOUS
10
0.618566
20
0.775765
11
0.621121
21
0.777471
0
LINE
8
BLACK
6
CONTINUOUS
10
0.621121
20
0.777471
11
0.624134
21
0.778071
0
LINE
8
BLACK
6
CONTINUOUS
10
0.624134
20
0.778071
11
0.665866
21
0.778071
0
LINE
8
BLACK
6
CONTINUOUS
10
0.665866
20
0.778071
11
0.668879
21
0.777471
0
LINE
8
BLACK
6
CONTINUOUS
10
0.755494
20
0.777471
11
0.758048
21
0.775765
0
LINE
8
BLACK
6
CONTINUOUS
10
0.758048
20
0.775765
11
0.759755
21
0.77321
0
LINE
8
BLACK
6
CONTINUOUS
10
0.759755
20
0.77321
11
0.760354
21
0.770197
0
LINE
8
BLACK
6
CONTINUOUS
10
0.760354
20
0.770197
11
0.760354
21
0.744606
0
LINE
8
BLACK
6
CONTINUOUS
10
0.760354
20
0.744606
11
0.759755
21
0.741593
0
LINE
8
BLACK
6
CONTINUOUS
10
0.759755
20
0.741593
11
0.758048
21
0.739039
0
LINE
8
BLACK
6
CONTINUOUS
10
0.758048
20
0.739039
11
0.757543
21
0.738701
0
LINE
8
BLACK
6
CONTINUOUS
10
0.757543
20
0.738701
11
0.758048
21
0.738363
0
LINE
8
BLACK
6
CONTINUOUS
10
0.758048
20
0.738363
11
0.759755
21
0.735809
0
LINE
8
BLACK
6
CONTINUOUS
10
0.759755
20
0.735809
11
0.760354
21
0.732795
0
LINE
8
BLACK
6
CONTINUOUS
10
0.760354
20
0.732795
11
0.760354
21
0.707205
0
LINE
8
BLACK
6
CONTINUOUS
10
0.760354
20
0.707205
11
0.759755
21
0.704191
0
LINE
8
BLACK
6
CONTINUOUS
10
0.759755
20
0.704191
11
0.758048
21
0.701637
0
LINE
8
BLACK
6
CONTINUOUS
10
0.758048
20
0.701637
11
0.757543
21
0.701299
0
LINE
8
BLACK
6
CONTINUOUS
10
0.757543
20
0.701299
11
0.758048
21
0.700961
0
LINE
8
BLACK
6
CONTINUOUS
10
0.758048
20
0.700961
11
0.759755
21
0.698407
0
LINE
8
BLACK
6
CONTINUOUS
10
0.759755
20
0.698407
11
0.760354
21
0.695394
0
LINE
8
BLACK
6
CONTINUOUS
10
0.760354
20
0.695394
11
0.760354
21
0.669803
0
LINE
8
BLACK
6
CONTINUOUS
10
0.760354
20
0.669803
11
0.759755
21
0.66679
0
LINE
8
BLACK
6
CONTINUOUS
10
0.759755
20
0.66679
11
0.758048
21
0.664235
0
LINE
8
BLACK
6
CONTINUOUS
10
0.758048
20
0.664235
11
0.755494
21
0.662529
0
LINE
8
BLACK
6
CONTINUOUS
10
0.755494
20
0.662529
11
0.75248
21
0.661929
0
LINE
8
BLACK
6
CONTINUOUS
10
0.75248
20
0.661929
11
0.710748
21
0.661929
0
LINE
8
BLACK
6
CONTINUOUS
10
0.710748
20
0.661929
11
0.707735
21
0.662529
0
LINE
8
BLACK
6
CONTINUOUS
10
0.707735
20
0.662529
11
0.70518
21
0.664235
0
LINE
8
BLACK
6
CONTINUOUS
10
0.70518
20
0.664235
11
0.703473
21
0.66679
0
LINE
8
BLACK
6
CONTINUOUS
10
0.703473
20
0.66679
11
0.702874
21
0.669803
0
LINE
8
BLACK
6
CONTINUOUS
10
0.702874
20
0.669803
11
0.702874
21
0.695394
0
LINE
8
BLACK
6
CONTINUOUS
10
0.702874
20
0.695394
11
0.703473
21
0.698407
0
LINE
8
BLACK
6
CONTINUOUS
10
0.703473
20
0.698407
11
0.70518
21
0.700961
0
LINE
8
BLACK
6
CONTINUOUS
10
0.70518
20
0.700961
11
0.705686
21
0.701299
0
LINE
8
BLACK
6
CONTINUOUS
10
0.705686
20
0.701299
11
0.70518
21
0.701637
0
LINE
8
BLACK
6
CONTINUOUS
10
0.70518
20
0.701637
11
0.703473
21
0.704191
0
LINE
8
BLACK
6
CONTINUOUS
10
0.703473
20
0.704191
11
0.702874
21
0.707205
0
LINE
8
BLACK
6
CONTINUOUS
10
0.702874
20
0.707205
11
0.702874
21
0.732795
0
LINE
8
BLACK
6
CONTINUOUS
10
0.702874
20
0.732795
11
0.703473
21
0.735809
0
LINE
8
BLACK
6
CONTINUOUS
10
0.703473
20
0.735809
11
0.70518
21
0.738363
0
LINE
8
BLACK
6
CONTINUOUS
10
0.70518
20
0.738363
11
0.705686
21
0.738701
0
LINE
8
BLACK
6
CONTINUOUS
10
0.705686
20
0.738701
11
0.70518
21
0.739039
0
LINE
8
BLACK
6
CONTINUOUS
10
0.70518
20
0.739039
11
0.703473
21
0.741593
0
LINE
8
BLACK
6
CONTINUOUS
10
0.703473
20
0.741593
11
0.702874
21
0.744606
0
LINE
8
BLACK
6
CONTINUOUS
10
0.702874
20
0.744606
11
0.702874
21
0.770197
0
LINE
8
BLACK
6
CONTINUOUS
10
0.702874
20
0.770197
11
0.703473
21
0.77321
0
LINE
8
BLACK
6
CONTINUOUS
10
0.703473
20
0.77321
11
0.70518
21
0.775765
0
LINE
8
BLACK
6
CONTINUOUS
10
0.70518
20
0.775765
11
0.707735
21
0.777471
0
LINE
8
BLACK
6
CONTINUOUS
10
0.707735
20
0.777471
11
0.710748
21
0.778071
0
LINE
8
BLACK
6
CONTINUOUS
10
0.710748
20
0.778071
11
0.75248
21
0.778071
0
LINE
8
BLACK
6
CONTINUOUS
10
0.75248
20
0.778071
11
0.755494
21
0.777471
0
LINE
8
BLACK
6
CONTINUOUS
10
1.02801
20
0.757275
11
1.03057
21
0.755568
0
LINE
8
BLACK
6
CONTINUOUS
10
1.03057
20
0.755568
11
1.03227
21
0.753013
0
LINE
8
BLACK
6
CONTINUOUS
10
1.03227
20
0.753013
11
1.03287
21
0.75
0
LINE
8
BLACK
6
CONTINUOUS
10
1.03287
20
0.75
11
1.03287
21
0.69
0
LINE
8
BLACK
6
CONTINUOUS
10
1.03287
20
0.69
11
1.03227
21
0.686987
0
LINE
8
BLACK
6
CONTINUOUS
10
1.03227
20
0.686987
11
1.03057
21
0.684432
0
LINE
8
BLACK
6
CONTINUOUS
10
1.03057
20
0.684432
11
1.02801
21
0.682725
0
LINE
8
BLACK
6
CONTINUOUS
10
1.02801
20
0.682725
11
1.025
21
0.682126
0
LINE
8
BLACK
6
CONTINUOUS
10
1.025
20
0.682126
11
0.965
21
0.682126
0
LINE
8
BLACK
6
CONTINUOUS
10
0.965
20
0.682126
11
0.961987
21
0.682725
0
LINE
8
BLACK
6
CONTINUOUS
10
0.961987
20
0.682725
11
0.959432
21
0.684432
0
LINE
8
BLACK
6
CONTINUOUS
10
0.959432
20
0.684432
11
0.957725
21
0.686987
0
LINE
8
BLACK
6
CONTINUOUS
10
0.957725
20
0.686987
11
0.957126
21
0.69
0
LINE
8
BLACK
6
CONTINUOUS
10
0.957126
20
0.69
11
0.957126
21
0.75
0
LINE
8
BLACK
6
CONTINUOUS
10
0.957126
20
0.75
11
0.957725
21
0.753013
0
LINE
8
BLACK
6
CONTINUOUS
10
0.957725
20
0.753013
11
0.959432
21
0.755568
0
LINE
8
BLACK
6
CONTINUOUS
10
0.959432
20
0.755568
11
0.961987
21
0.757275
0
LINE
8
BLACK
6
CONTINUOUS
10
0.961987
20
0.757275
11
0.965
21
0.757874
0
LINE
8
BLACK
6
CONTINUOUS
10
0.965
20
0.757874
11
1.025
21
0.757874
0
LINE
8
BLACK
6
CONTINUOUS
10
1.025
20
0.757874
11
1.02801
21
0.757275
0
LINE
8
BLACK
6
CONTINUOUS
10
1.12801
20
0.757275
11
1.13057
21
0.755568
0
LINE
8
BLACK
6
CONTINUOUS
10
1.13057
20
0.755568
11
1.13227
21
0.753013
0
LINE
8
BLACK
6
CONTINUOUS
10
1.13227
20
0.753013
11
1.13287
21
0.75
0
LINE
8
BLACK
6
CONTINUOUS
10
1.13287
20
0.75
11
1.13287
21
0.69
0
LINE
8
BLACK
6
CONTINUOUS
10
1.13287
20
0.69
11
1.13227
21
0.686987
0
LINE
8
BLACK
6
CONTINUOUS
10
1.13227
20
0.686987
11
1.13057
21
0.684432
0
LINE
8
BLACK
6
CONTINUOUS
10
1.13057
20
0.684432
11
1.12801
21
0.682725
0
LINE
8
BLACK
6
CONTINUOUS
10
1.12801
20
0.682725
11
1.125
21
0.682126
0
LINE
8
BLACK
6
CONTINUOUS
10
1.125
20
0.682126
11
1.065
21
0.682126
0
LINE
8
BLACK
6
CONTINUOUS
10
1.065
20
0.682126
11
1.06199
21
0.682725
0
LINE
8
BLACK
6
CONTINUOUS
10
1.06199
20
0.682725
11
1.05943
21
0.684432
0
LINE
8
BLACK
6
CONTINUOUS
10
1.05943
20
0.684432
11
1.05773
21
0.686987
0
LINE
8
BLACK
6
CONTINUOUS
10
1.05773
20
0.686987
11
1.05713
21
0.69
0
LINE
8
BLACK
6
CONTINUOUS
10
1.05713
20
0.69
11
1.05713
21
0.75
0
LINE
8
BLACK
6
CONTINUOUS
10
1.05713
20
0.75
11
1.05773
21
0.753013
0
LINE
8
BLACK
6
CONTINUOUS
10
1.05773
20
0.753013
11
1.05943
21
0.755568
0
LINE
8
BLACK
6
CONTINUOUS
10
1.05943
20
0.755568
11
1.06199
21
0.757275
0
LINE
8
BLACK
6
CONTINUOUS
10
1.06199
20
0.757275
11
1.065
21
0.757874
0
LINE
8
BLACK
6
CONTINUOUS
10
1.065
20
0.757874
11
1.125
21
0.757874
0
LINE
8
BLACK
6
CONTINUOUS
10
1.125
20
0.757874
11
1.12801
21
0.757275
0
LINE
8
BLACK
6
CONTINUOUS
10
0.825513
20
0.754775
11
0.828068
21
0.753068
0
LINE
8
BLACK
6
CONTINUOUS
10
0.828068
20
0.753068
11
0.829775
21
0.750513
0
LINE
8
BLACK
6
CONTINUOUS
10
0.829775
20
0.750513
11
0.830374
21
0.7475
0
LINE
8
BLACK
6
CONTINUOUS
10
0.830374
20
0.7475
11
0.830374
21
0.6925
0
LINE
8
BLACK
6
CONTINUOUS
10
0.830374
20
0.6925
11
0.829775
21
0.689487
0
LINE
8
BLACK
6
CONTINUOUS
10
0.829775
20
0.689487
11
0.828068
21
0.686932
0
LINE
8
BLACK
6
CONTINUOUS
10
0.828068
20
0.686932
11
0.825513
21
0.685225
0
LINE
8
BLACK
6
CONTINUOUS
10
0.825513
20
0.685225
11
0.8225
21
0.684626
0
LINE
8
BLACK
6
CONTINUOUS
10
0.8225
20
0.684626
11
0.7875
21
0.684626
0
LINE
8
BLACK
6
CONTINUOUS
10
0.7875
20
0.684626
11
0.784487
21
0.685225
0
LINE
8
BLACK
6
CONTINUOUS
10
0.784487
20
0.685225
11
0.781932
21
0.686932
0
LINE
8
BLACK
6
CONTINUOUS
10
0.781932
20
0.686932
11
0.780225
21
0.689487
0
LINE
8
BLACK
6
CONTINUOUS
10
0.780225
20
0.689487
11
0.779626
21
0.6925
0
LINE
8
BLACK
6
CONTINUOUS
10
0.779626
20
0.6925
11
0.779626
21
0.7475
0
LINE
8
BLACK
6
CONTINUOUS
10
0.779626
20
0.7475
11
0.780225
21
0.750513
0
LINE
8
BLACK
6
CONTINUOUS
10
0.780225
20
0.750513
11
0.781932
21
0.753068
0
LINE
8
BLACK
6
CONTINUOUS
10
0.781932
20
0.753068
11
0.784487
21
0.754775
0
LINE
8
BLACK
6
CONTINUOUS
10
0.784487
20
0.754775
11
0.7875
21
0.755374
0
LINE
8
BLACK
6
CONTINUOUS
10
0.7875
20
0.755374
11
0.8225
21
0.755374
0
LINE
8
BLACK
6
CONTINUOUS
10
0.8225
20
0.755374
11
0.825513
21
0.754775
0
LINE
8
BLACK
6
CONTINUOUS
10
0.900513
20
0.754775
11
0.903068
21
0.753068
0
LINE
8
BLACK
6
CONTINUOUS
10
0.903068
20
0.753068
11
0.904775
21
0.750513
0
LINE
8
BLACK
6
CONTINUOUS
10
0.904775
20
0.750513
11
0.905374
21
0.7475
0
LINE
8
BLACK
6
CONTINUOUS
10
0.905374
20
0.7475
11
0.905374
21
0.6925
0
LINE
8
BLACK
6
CONTINUOUS
10
0.905374
20
0.6925
11
0.904775
21
0.689487
0
LINE
8
BLACK
6
CONTINUOUS
10
0.904775
20
0.689487
11
0.903068
21
0.686932
0
LINE
8
BLACK
6
CONTINUOUS
10
0.903068
20
0.686932
11
0.900513
21
0.685225
0
LINE
8
BLACK
6
CONTINUOUS
10
0.900513
20
0.685225
11
0.8975
21
0.684626
0
LINE
8
BLACK
6
CONTINUOUS
10
0.8975
20
0.684626
11
0.8625
21
0.684626
0
LINE
8
BLACK
6
CONTINUOUS
10
0.8625
20
0.684626
11
0.859487
21
0.685225
0
LINE
8
BLACK
6
CONTINUOUS
10
0.859487
20
0.685225
11
0.856932
21
0.686932
0
LINE
8
BLACK
6
CONTINUOUS
10
0.856932
20
0.686932
11
0.855225
21
0.689487
0
LINE
8
BLACK
6
CONTINUOUS
10
0.855225
20
0.689487
11
0.854626
21
0.6925
0
LINE
8
BLACK
6
CONTINUOUS
10
0.854626
20
0.6925
11
0.854626
21
0.7475
0
LINE
8
BLACK
6
CONTINUOUS
10
0.854626
20
0.7475
11
0.855225
21
0.750513
0
LINE
8
BLACK
6
CONTINUOUS
10
0.855225
20
0.750513
11
0.856932
21
0.753068
0
LINE
8
BLACK
6
CONTINUOUS
10
0.856932
20
0.753068
11
0.859487
21
0.754775
0
LINE
8
BLACK
6
CONTINUOUS
10
0.859487
20
0.754775
11
0.8625
21
0.755374
0
LINE
8
BLACK
6
CONTINUOUS
10
0.8625
20
0.755374
11
0.8975
21
0.755374
0
LINE
8
BLACK
6
CONTINUOUS
10
0.8975
20
0.755374
11
0.900513
21
0.754775
0
LINE
8
BLACK
6
CONTINUOUS
10
0.555513
20
0.769775
11
0.558068
21
0.768068
0
LINE
8
BLACK
6
CONTINUOUS
10
0.558068
20
0.768068
11
0.559775
21
0.765513
0
LINE
8
BLACK
6
CONTINUOUS
10
0.559775
20
0.765513
11
0.560374
21
0.7625
0
LINE
8
BLACK
6
CONTINUOUS
10
0.560374
20
0.7625
11
0.560374
21
0.7275
0
LINE
8
BLACK
6
CONTINUOUS
10
0.560374
20
0.7275
11
0.559775
21
0.724487
0
LINE
8
BLACK
6
CONTINUOUS
10
0.559775
20
0.724487
11
0.558068
21
0.721932
0
LINE
8
BLACK
6
CONTINUOUS
10
0.558068
20
0.721932
11
0.555513
21
0.720225
0
LINE
8
BLACK
6
CONTINUOUS
10
0.555513
20
0.720225
11
0.5525
21
0.719626
0
LINE
8
BLACK
6
CONTINUOUS
10
0.5525
20
0.719626
11
0.4975
21
0.719626
0
LINE
8
BLACK
6
CONTINUOUS
10
0.4975
20
0.719626
11
0.494487
21
0.720225
0
LINE
8
BLACK
6
CONTINUOUS
10
0.494487
20
0.720225
11
0.491932
21
0.721932
0
LINE
8
BLACK
6
CONTINUOUS
10
0.491932
20
0.721932
11
0.490225
21
0.724487
0
LINE
8
BLACK
6
CONTINUOUS
10
0.490225
20
0.724487
11
0.489626
21
0.7275
0
LINE
8
BLACK
6
CONTINUOUS
10
0.489626
20
0.7275
11
0.489626
21
0.7625
0
LINE
8
BLACK
6
CONTINUOUS
10
0.489626
20
0.7625
11
0.490225
21
0.765513
0
LINE
8
BLACK
6
CONTINUOUS
10
0.490225
20
0.765513
11
0.491932
21
0.768068
0
LINE
8
BLACK
6
CONTINUOUS
10
0.491932
20
0.768068
11
0.494487
21
0.769775
0
LINE
8
BLACK
6
CONTINUOUS
10
0.494487
20
0.769775
11
0.4975
21
0.770374
0
LINE
8
BLACK
6
CONTINUOUS
10
0.4975
20
0.770374
11
0.5525
21
0.770374
0
LINE
8
BLACK
6
CONTINUOUS
10
0.5525
20
0.770374
11
0.555513
21
0.769775
0
LINE
8
BLACK
6
CONTINUOUS
10
1.02801
20
0.857275
11
1.03057
21
0.855568
0
LINE
8
BLACK
6
CONTINUOUS
10
1.03057
20
0.855568
11
1.03227
21
0.853013
0
LINE
8
BLACK
6
CONTINUOUS
10
1.03227
20
0.853013
11
1.03287
21
0.85
0
LINE
8
BLACK
6
CONTINUOUS
10
1.03287
20
0.85
11
1.03287
21
0.79
0
LINE
8
BLACK
6
CONTINUOUS
10
1.03287
20
0.79
11
1.03227
21
0.786987
0
LINE
8
BLACK
6
CONTINUOUS
10
1.03227
20
0.786987
11
1.03057
21
0.784432
0
LINE
8
BLACK
6
CONTINUOUS
10
1.03057
20
0.784432
11
1.02801
21
0.782725
0
LINE
8
BLACK
6
CONTINUOUS
10
1.02801
20
0.782725
11
1.025
21
0.782126
0
LINE
8
BLACK
6
CONTINUOUS
10
1.025
20
0.782126
11
0.965
21
0.782126
0
LINE
8
BLACK
6
CONTINUOUS
10
0.965
20
0.782126
11
0.961987
21
0.782725
0
LINE
8
BLACK
6
CONTINUOUS
10
0.961987
20
0.782725
11
0.959432
21
0.784432
0
LINE
8
BLACK
6
CONTINUOUS
10
0.959432
20
0.784432
11
0.957725
21
0.786987
0
LINE
8
BLACK
6
CONTINUOUS
10
0.957725
20
0.786987
11
0.957126
21
0.79
0
LINE
8
BLACK
6
CONTINUOUS
10
0.957126
20
0.79
11
0.957126
21
0.85
0
LINE
8
BLACK
6
CONTINUOUS
10
0.957126
20
0.85
11
0.957725
21
0.853013
0
LINE
8
BLACK
6
CONTINUOUS
10
0.957725
20
0.853013
11
0.959432
21
0.855568
0
LINE
8
BLACK
6
CONTINUOUS
10
0.959432
20
0.855568
11
0.961987
21
0.857275
0
LINE
8
BLACK
6
CONTINUOUS
10
0.961987
20
0.857275
11
0.965
21
0.857874
0
LINE
8
BLACK
6
CONTINUOUS
10
0.965
20
0.857874
11
1.025
21
0.857874
0
LINE
8
BLACK
6
CONTINUOUS
10
1.025
20
0.857874
11
1.02801
21
0.857275
0
LINE
8
BLACK
6
CONTINUOUS
10
1.12801
20
0.857275
11
1.13057
21
0.855568
0
LINE
8
BLACK
6
CONTINUOUS
10
1.13057
20
0.855568
11
1.13227
21
0.853013
0
LINE
8
BLACK
6
CONTINUOUS
10
1.13227
20
0.853013
11
1.13287
21
0.85
0
LINE
8
BLACK
6
CONTINUOUS
10
1.13287
20
0.85
11
1.13287
21
0.79
0
LINE
8
BLACK
6
CONTINUOUS
10
1.13287
20
0.79
11
1.13227
21
0.786987
0
LINE
8
BLACK
6
CONTINUOUS
10
1.13227
20
0.786987
11
1.13057
21
0.784432
0
LINE
8
BLACK
6
CONTINUOUS
10
1.13057
20
0.784432
11
1.12801
21
0.782725
0
LINE
8
BLACK
6
CONTINUOUS
10
1.12801
20
0.782725
11
1.125
21
0.782126
0
LINE
8
BLACK
6
CONTINUOUS
10
1.125
20
0.782126
11
1.065
21
0.782126
0
LINE
8
BLACK
6
CONTINUOUS
10
1.065
20
0.782126
11
1.06199
21
0.782725
0
LINE
8
BLACK
6
CONTINUOUS
10
1.06199
20
0.782725
11
1.05943
21
0.784432
0
LINE
8
BLACK
6
CONTINUOUS
10
1.05943
20
0.784432
11
1.05773
21
0.786987
0
LINE
8
BLACK
6
CONTINUOUS
10
1.05773
20
0.786987
11
1.05713
21
0.79
0
LINE
8
BLACK
6
CONTINUOUS
10
1.05713
20
0.79
11
1.05713
21
0.85
0
LINE
8
BLACK
6
CONTINUOUS
10
1.05713
20
0.85
11
1.05773
21
0.853013
0
LINE
8
BLACK
6
CONTINUOUS
10
1.05773
20
0.853013
11
1.05943
21
0.855568
0
LINE
8
BLACK
6
CONTINUOUS
10
1.05943
20
0.855568
11
1.06199
21
0.857275
0
LINE
8
BLACK
6
CONTINUOUS
10
1.06199
20
0.857275
11
1.065
21
0.857874
0
LINE
8
BLACK
6
CONTINUOUS
10
1.065
20
0.857874
11
1.125
21
0.857874
0
LINE
8
BLACK
6
CONTINUOUS
10
1.125
20
0.857874
11
1.12801
21
0.857275
0
LINE
8
BLACK
6
CONTINUOUS
10
0.555513
20
0.844775
11
0.558068
21
0.843068
0
LINE
8
BLACK
6
CONTINUOUS
10
0.558068
20
0.843068
11
0.559775
21
0.840513
0
LINE
8
BLACK
6
CONTINUOUS
10
0.559775
20
0.840513
11
0.560374
21
0.8375
0
LINE
8
BLACK
6
CONTINUOUS
10
0.560374
20
0.8375
11
0.560374
21
0.8025
0
LINE
8
BLACK
6
CONTINUOUS
10
0.560374
20
0.8025
11
0.559775
21
0.799487
0
LINE
8
BLACK
6
CONTINUOUS
10
0.559775
20
0.799487
11
0.558068
21
0.796932
0
LINE
8
BLACK
6
CONTINUOUS
10
0.558068
20
0.796932
11
0.555513
21
0.795225
0
LINE
8
BLACK
6
CONTINUOUS
10
0.555513
20
0.795225
11
0.5525
21
0.794626
0
LINE
8
BLACK
6
CONTINUOUS
10
0.5525
20
0.794626
11
0.4975
21
0.794626
0
LINE
8
BLACK
6
CONTINUOUS
10
0.4975
20
0.794626
11
0.494487
21
0.795225
0
LINE
8
BLACK
6
CONTINUOUS
10
0.494487
20
0.795225
11
0.491932
21
0.796932
0
LINE
8
BLACK
6
CONTINUOUS
10
0.491932
20
0.796932
11
0.490225
21
0.799487
0
LINE
8
BLACK
6
CONTINUOUS
10
0.490225
20
0.799487
11
0.489626
21
0.8025
0
LINE
8
BLACK
6
CONTINUOUS
10
0.489626
20
0.8025
11
0.489626
21
0.8375
0
LINE
8
BLACK
6
CONTINUOUS
10
0.489626
20
0.8375
11
0.490225
21
0.840513
0
LINE
8
BLACK
6
CONTINUOUS
10
0.490225
20
0.840513
11
0.491932
21
0.843068
0
LINE
8
BLACK
6
CONTINUOUS
10
0.491932
20
0.843068
11
0.494487
21
0.844775
0
LINE
8
BLACK
6
CONTINUOUS
10
0.494487
20
0.844775
11
0.4975
21
0.845374
0
LINE
8
BLACK
6
CONTINUOUS
10
0.4975
20
0.845374
11
0.5525
21
0.845374
0
LINE
8
BLACK
6
CONTINUOUS
10
0.5525
20
0.845374
11
0.555513
21
0.844775
0
LINE
8
BLACK
6
CONTINUOUS
10
0.725513
20
0.874775
11
0.728068
21
0.873068
0
LINE
8
BLACK
6
CONTINUOUS
10
0.728068
20
0.873068
11
0.729775
21
0.870513
0
LINE
8
BLACK
6
CONTINUOUS
10
0.729775
20
0.870513
11
0.730374
21
0.8675
0
LINE
8
BLACK
6
CONTINUOUS
10
0.730374
20
0.8675
11
0.730374
21
0.8125
0
LINE
8
BLACK
6
CONTINUOUS
10
0.730374
20
0.8125
11
0.729775
21
0.809487
0
LINE
8
BLACK
6
CONTINUOUS
10
0.729775
20
0.809487
11
0.728068
21
0.806932
0
LINE
8
BLACK
6
CONTINUOUS
10
0.728068
20
0.806932
11
0.725513
21
0.805225
0
LINE
8
BLACK
6
CONTINUOUS
10
0.725513
20
0.805225
11
0.7225
21
0.804626
0
LINE
8
BLACK
6
CONTINUOUS
10
0.7225
20
0.804626
11
0.6875
21
0.804626
0
LINE
8
BLACK
6
CONTINUOUS
10
0.6875
20
0.804626
11
0.684487
21
0.805225
0
LINE
8
BLACK
6
CONTINUOUS
10
0.684487
20
0.805225
11
0.681932
21
0.806932
0
LINE
8
BLACK
6
CONTINUOUS
10
0.681932
20
0.806932
11
0.680225
21
0.809487
0
LINE
8
BLACK
6
CONTINUOUS
10
0.680225
20
0.809487
11
0.679626
21
0.8125
0
LINE
8
BLACK
6
CONTINUOUS
10
0.679626
20
0.8125
11
0.679626
21
0.8675
0
LINE
8
BLACK
6
CONTINUOUS
10
0.679626
20
0.8675
11
0.680225
21
0.870513
0
LINE
8
BLACK
6
CONTINUOUS
10
0.680225
20
0.870513
11
0.681932
21
0.873068
0
LINE
8
BLACK
6
CONTINUOUS
10
0.681932
20
0.873068
11
0.684487
21
0.874775
0
LINE
8
BLACK
6
CONTINUOUS
10
0.684487
20
0.874775
11
0.6875
21
0.875374
0
LINE
8
BLACK
6
CONTINUOUS
10
0.6875
20
0.875374
11
0.7225
21
0.875374
0
LINE
8
BLACK
6
CONTINUOUS
10
0.7225
20
0.875374
11
0.725513
21
0.874775
0
LINE
8
BLACK
6
CONTINUOUS
10
0.800513
20
0.874775
11
0.803068
21
0.873068
0
LINE
8
BLACK
6
CONTINUOUS
10
0.803068
20
0.873068
11
0.804775
21
0.870513
0
LINE
8
BLACK
6
CONTINUOUS
10
0.804775
20
0.870513
11
0.805374
21
0.8675
0
LINE
8
BLACK
6
CONTINUOUS
10
0.805374
20
0.8675
11
0.805374
21
0.8125
0
LINE
8
BLACK
6
CONTINUOUS
10
0.805374
20
0.8125
11
0.804775
21
0.809487
0
LINE
8
BLACK
6
CONTINUOUS
10
0.804775
20
0.809487
11
0.803068
21
0.806932
0
LINE
8
BLACK
6
CONTINUOUS
10
0.803068
20
0.806932
11
0.800513
21
0.805225
0
LINE
8
BLACK
6
CONTINUOUS
10
0.800513
20
0.805225
11
0.7975
21
0.804626
0
LINE
8
BLACK
6
CONTINUOUS
10
0.7975
20
0.804626
11
0.7625
21
0.804626
0
LINE
8
BLACK
6
CONTINUOUS
10
0.7625
20
0.804626
11
0.759487
21
0.805225
0
LINE
8
BLACK
6
CONTINUOUS
10
0.759487
20
0.805225
11
0.756932
21
0.806932
0
LINE
8
BLACK
6
CONTINUOUS
10
0.756932
20
0.806932
11
0.755225
21
0.809487
0
LINE
8
BLACK
6
CONTINUOUS
10
0.755225
20
0.809487
11
0.754626
21
0.8125
0
LINE
8
BLACK
6
CONTINUOUS
10
0.754626
20
0.8125
11
0.754626
21
0.8675
0
LINE
8
BLACK
6
CONTINUOUS
10
0.754626
20
0.8675
11
0.755225
21
0.870513
0
LINE
8
BLACK
6
CONTINUOUS
10
0.755225
20
0.870513
11
0.756932
21
0.873068
0
LINE
8
BLACK
6
CONTINUOUS
10
0.756932
20
0.873068
11
0.759487
21
0.874775
0
LINE
8
BLACK
6
CONTINUOUS
10
0.759487
20
0.874775
11
0.7625
21
0.875374
0
LINE
8
BLACK
6
CONTINUOUS
10
0.7625
20
0.875374
11
0.7975
21
0.875374
0
LINE
8
BLACK
6
CONTINUOUS
10
0.7975
20
0.875374
11
0.800513
21
0.874775
0
LINE
8
BLACK
6
CONTINUOUS
10
0.895513
20
0.864775
11
0.898068
21
0.863068
0
LINE
8
BLACK
6
CONTINUOUS
10
0.898068
20
0.863068
11
0.899775
21
0.860513
0
LINE
8
BLACK
6
CONTINUOUS
10
0.899775
20
0.860513
11
0.900374
21
0.8575
0
LINE
8
BLACK
6
CONTINUOUS
10
0.900374
20
0.8575
11
0.900374
21
0.8225
0
LINE
8
BLACK
6
CONTINUOUS
10
0.900374
20
0.8225
11
0.899775
21
0.819487
0
LINE
8
BLACK
6
CONTINUOUS
10
0.899775
20
0.819487
11
0.898068
21
0.816932
0
LINE
8
BLACK
6
CONTINUOUS
10
0.898068
20
0.816932
11
0.895513
21
0.815225
0
LINE
8
BLACK
6
CONTINUOUS
10
0.895513
20
0.815225
11
0.8925
21
0.814626
0
LINE
8
BLACK
6
CONTINUOUS
10
0.8925
20
0.814626
11
0.8375
21
0.814626
0
LINE
8
BLACK
6
CONTINUOUS
10
0.8375
20
0.814626
11
0.834487
21
0.815225
0
LINE
8
BLACK
6
CONTINUOUS
10
0.834487
20
0.815225
11
0.831932
21
0.816932
0
LINE
8
BLACK
6
CONTINUOUS
10
0.831932
20
0.816932
11
0.830225
21
0.819487
0
LINE
8
BLACK
6
CONTINUOUS
10
0.830225
20
0.819487
11
0.829626
21
0.8225
0
LINE
8
BLACK
6
CONTINUOUS
10
0.829626
20
0.8225
11
0.829626
21
0.8575
0
LINE
8
BLACK
6
CONTINUOUS
10
0.829626
20
0.8575
11
0.830225
21
0.860513
0
LINE
8
BLACK
6
CONTINUOUS
10
0.830225
20
0.860513
11
0.831932
21
0.863068
0
LINE
8
BLACK
6
CONTINUOUS
10
0.831932
20
0.863068
11
0.834487
21
0.864775
0
LINE
8
BLACK
6
CONTINUOUS
10
0.834487
20
0.864775
11
0.8375
21
0.865374
0
LINE
8
BLACK
6
CONTINUOUS
10
0.8375
20
0.865374
11
0.8925
21
0.865374
0
LINE
8
BLACK
6
CONTINUOUS
10
0.8925
20
0.865374
11
0.895513
21
0.864775
0
LINE
8
BLACK
6
CONTINUOUS
10
1.02801
20
0.957275
11
1.03057
21
0.955568
0
LINE
8
BLACK
6
CONTINUOUS
10
1.03057
20
0.955568
11
1.03227
21
0.953013
0
LINE
8
BLACK
6
CONTINUOUS
10
1.03227
20
0.953013
11
1.03287
21
0.95
0
LINE
8
BLACK
6
CONTINUOUS
10
1.03287
20
0.95
11
1.03287
21
0.89
0
LINE
8
BLACK
6
CONTINUOUS
10
1.03287
20
0.89
11
1.03227
21
0.886987
0
LINE
8
BLACK
6
CONTINUOUS
10
1.03227
20
0.886987
11
1.03057
21
0.884432
0
LINE
8
BLACK
6
CONTINUOUS
10
1.03057
20
0.884432
11
1.02801
21
0.882725
0
LINE
8
BLACK
6
CONTINUOUS
10
1.02801
20
0.882725
11
1.025
21
0.882126
0
LINE
8
BLACK
6
CONTINUOUS
10
1.025
20
0.882126
11
0.965
21
0.882126
0
LINE
8
BLACK
6
CONTINUOUS
10
0.965
20
0.882126
11
0.961987
21
0.882725
0
LINE
8
BLACK
6
CONTINUOUS
10
0.961987
20
0.882725
11
0.959432
21
0.884432
0
LINE
8
BLACK
6
CONTINUOUS
10
0.959432
20
0.884432
11
0.957725
21
0.886987
0
LINE
8
BLACK
6
CONTINUOUS
10
0.957725
20
0.886987
11
0.957126
21
0.89
0
LINE
8
BLACK
6
CONTINUOUS
10
0.957126
20
0.89
11
0.957126
21
0.95
0
LINE
8
BLACK
6
CONTINUOUS
10
0.957126
20
0.95
11
0.957725
21
0.953013
0
LINE
8
BLACK
6
CONTINUOUS
10
0.957725
20
0.953013
11
0.959432
21
0.955568
0
LINE
8
BLACK
6
CONTINUOUS
10
0.959432
20
0.955568
11
0.961987
21
0.957275
0
LINE
8
BLACK
6
CONTINUOUS
10
0.961987
20
0.957275
11
0.965
21
0.957874
0
LINE
8
BLACK
6
CONTINUOUS
10
0.965
20
0.957874
11
1.025
21
0.957874
0
LINE
8
BLACK
6
CONTINUOUS
10
1.025
20
0.957874
11
1.02801
21
0.957275
0
LINE
8
BLACK
6
CONTINUOUS
10
1.12801
20
0.957275
11
1.13057
21
0.955568
0
LINE
8
BLACK
6
CONTINUOUS
10
1.13057
20
0.955568
11
1.13227
21
0.953013
0
LINE
8
BLACK
6
CONTINUOUS
10
1.13227
20
0.953013
11
1.13287
21
0.95
0
LINE
8
BLACK
6
CONTINUOUS
10
1.13287
20
0.95
11
1.13287
21
0.89
0
LINE
8
BLACK
6
CONTINUOUS
10
1.13287
20
0.89
11
1.13227
21
0.886987
0
LINE
8
BLACK
6
CONTINUOUS
10
1.13227
20
0.886987
11
1.13057
21
0.884432
0
LINE
8
BLACK
6
CONTINUOUS
10
1.13057
20
0.884432
11
1.12801
21
0.882725
0
LINE
8
BLACK
6
CONTINUOUS
10
1.12801
20
0.882725
11
1.125
21
0.882126
0
LINE
8
BLACK
6
CONTINUOUS
10
1.125
20
0.882126
11
1.065
21
0.882126
0
LINE
8
BLACK
6
CONTINUOUS
10
1.065
20
0.882126
11
1.06199
21
0.882725
0
LINE
8
BLACK
6
CONTINUOUS
10
1.06199
20
0.882725
11
1.05943
21
0.884432
0
LINE
8
BLACK
6
CONTINUOUS
10
1.05943
20
0.884432
11
1.05773
21
0.886987
0
LINE
8
BLACK
6
CONTINUOUS
10
1.05773
20
0.886987
11
1.05713
21
0.89
0
LINE
8
BLACK
6
CONTINUOUS
10
1.05713
20
0.89
11
1.05713
21
0.95
0
LINE
8
BLACK
6
CONTINUOUS
10
1.05713
20
0.95
11
1.05773
21
0.953013
0
LINE
8
BLACK
6
CONTINUOUS
10
1.05773
20
0.953013
11
1.05943
21
0.955568
0
LINE
8
BLACK
6
CONTINUOUS
10
1.05943
20
0.955568
11
1.06199
21
0.957275
0
LINE
8
BLACK
6
CONTINUOUS
10
1.06199
20
0.957275
11
1.065
21
0.957874
0
LINE
8
BLACK
6
CONTINUOUS
10
1.065
20
0.957874
11
1.125
21
0.957874
0
LINE
8
BLACK
6
CONTINUOUS
10
1.125
20
0.957874
11
1.12801
21
0.957275
0
LINE
8
BLACK
6
CONTINUOUS
10
0.895513
20
0.939775
11
0.898068
21
0.938068
0
LINE
8
BLACK
6
CONTINUOUS
10
0.898068
20
0.938068
11
0.899775
21
0.935513
0
LINE
8
BLACK
6
CONTINUOUS
10
0.899775
20
0.935513
11
0.900374
21
0.9325
0
LINE
8
BLACK
6
CONTINUOUS
10
0.900374
20
0.9325
11
0.900374
21
0.8975
0
LINE
8
BLACK
6
CONTINUOUS
10
0.900374
20
0.8975
11
0.899775
21
0.894487
0
LINE
8
BLACK
6
CONTINUOUS
10
0.899775
20
0.894487
11
0.898068
21
0.891932
0
LINE
8
BLACK
6
CONTINUOUS
10
0.898068
20
0.891932
11
0.895513
21
0.890225
0
LINE
8
BLACK
6
CONTINUOUS
10
0.895513
20
0.890225
11
0.8925
21
0.889626
0
LINE
8
BLACK
6
CONTINUOUS
10
0.8925
20
0.889626
11
0.8375
21
0.889626
0
LINE
8
BLACK
6
CONTINUOUS
10
0.8375
20
0.889626
11
0.834487
21
0.890225
0
LINE
8
BLACK
6
CONTINUOUS
10
0.834487
20
0.890225
11
0.831932
21
0.891932
0
LINE
8
BLACK
6
CONTINUOUS
10
0.831932
20
0.891932
11
0.830225
21
0.894487
0
LINE
8
BLACK
6
CONTINUOUS
10
0.830225
20
0.894487
11
0.829626
21
0.8975
0
LINE
8
BLACK
6
CONTINUOUS
10
0.829626
20
0.8975
11
0.829626
21
0.9325
0
LINE
8
BLACK
6
CONTINUOUS
10
0.829626
20
0.9325
11
0.830225
21
0.935513
0
LINE
8
BLACK
6
CONTINUOUS
10
0.830225
20
0.935513
11
0.831932
21
0.938068
0
LINE
8
BLACK
6
CONTINUOUS
10
0.831932
20
0.938068
11
0.834487
21
0.939775
0
LINE
8
BLACK
6
CONTINUOUS
10
0.834487
20
0.939775
11
0.8375
21
0.940374
0
LINE
8
BLACK
6
CONTINUOUS
10
0.8375
20
0.940374
11
0.8925
21
0.940374
0
LINE
8
BLACK
6
CONTINUOUS
10
0.8925
20
0.940374
11
0.895513
21
0.939775
0
LINE
8
BLACK
6
CONTINUOUS
10
0.405513
20
1.01477
11
0.408068
21
1.01307
0
LINE
8
BLACK
6
CONTINUOUS
10
0.408068
20
1.01307
11
0.409775
21
1.01051
0
LINE
8
BLACK
6
CONTINUOUS
10
0.409775
20
1.01051
11
0.410374
21
1.0075
0
LINE
8
BLACK
6
CONTINUOUS
10
0.410374
20
1.0075
11
0.410374
21
0.9525
0
LINE
8
BLACK
6
CONTINUOUS
10
0.410374
20
0.9525
11
0.409775
21
0.949487
0
LINE
8
BLACK
6
CONTINUOUS
10
0.409775
20
0.949487
11
0.408068
21
0.946932
0
LINE
8
BLACK
6
CONTINUOUS
10
0.408068
20
0.946932
11
0.405513
21
0.945225
0
LINE
8
BLACK
6
CONTINUOUS
10
0.405513
20
0.945225
11
0.4025
21
0.944626
0
LINE
8
BLACK
6
CONTINUOUS
10
0.4025
20
0.944626
11
0.3675
21
0.944626
0
LINE
8
BLACK
6
CONTINUOUS
10
0.3675
20
0.944626
11
0.364487
21
0.945225
0
LINE
8
BLACK
6
CONTINUOUS
10
0.364487
20
0.945225
11
0.361932
21
0.946932
0
LINE
8
BLACK
6
CONTINUOUS
10
0.361932
20
0.946932
11
0.360225
21
0.949487
0
LINE
8
BLACK
6
CONTINUOUS
10
0.360225
20
0.949487
11
0.359626
21
0.9525
0
LINE
8
BLACK
6
CONTINUOUS
10
0.359626
20
0.9525
11
0.359626
21
1.0075
0
LINE
8
BLACK
6
CONTINUOUS
10
0.359626
20
1.0075
11
0.360225
21
1.01051
0
LINE
8
BLACK
6
CONTINUOUS
10
0.360225
20
1.01051
11
0.361932
21
1.01307
0
LINE
8
BLACK
6
CONTINUOUS
10
0.361932
20
1.01307
11
0.364487
21
1.01477
0
LINE
8
BLACK
6
CONTINUOUS
10
0.364487
20
1.01477
11
0.3675
21
1.01537
0
LINE
8
BLACK
6
CONTINUOUS
10
0.3675
20
1.01537
11
0.4025
21
1.01537
0
LINE
8
BLACK
6
CONTINUOUS
10
0.4025
20
1.01537
11
0.405513
21
1.01477
0
LINE
8
BLACK
6
CONTINUOUS
10
0.480513
20
1.01477
11
0.483068
21
1.01307
0
LINE
8
BLACK
6
CONTINUOUS
10
0.483068
20
1.01307
11
0.484775
21
1.01051
0
LINE
8
BLACK
6
CONTINUOUS
10
0.484775
20
1.01051
11
0.485374
21
1.0075
0
LINE
8
BLACK
6
CONTINUOUS
10
0.485374
20
1.0075
11
0.485374
21
0.9525
0
LINE
8
BLACK
6
CONTINUOUS
10
0.485374
20
0.9525
11
0.484775
21
0.949487
0
LINE
8
BLACK
6
CONTINUOUS
10
0.484775
20
0.949487
11
0.483068
21
0.946932
0
LINE
8
BLACK
6
CONTINUOUS
10
0.483068
20
0.946932
11
0.480513
21
0.945225
0
LINE
8
BLACK
6
CONTINUOUS
10
0.480513
20
0.945225
11
0.4775
21
0.944626
0
LINE
8
BLACK
6
CONTINUOUS
10
0.4775
20
0.944626
11
0.4425
21
0.944626
0
LINE
8
BLACK
6
CONTINUOUS
10
0.4425
20
0.944626
11
0.439487
21
0.945225
0
LINE
8
BLACK
6
CONTINUOUS
10
0.439487
20
0.945225
11
0.436932
21
0.946932
0
LINE
8
BLACK
6
CONTINUOUS
10
0.436932
20
0.946932
11
0.435225
21
0.949487
0
LINE
8
BLACK
6
CONTINUOUS
10
0.435225
20
0.949487
11
0.434626
21
0.9525
0
LINE
8
BLACK
6
CONTINUOUS
10
0.434626
20
0.9525
11
0.434626
21
1.0075
0
LINE
8
BLACK
6
CONTINUOUS
10
0.434626
20
1.0075
11
0.435225
21
1.01051
0
LINE
8
BLACK
6
CONTINUOUS
10
0.435225
20
1.01051
11
0.436932
21
1.01307
0
LINE
8
BLACK
6
CONTINUOUS
10
0.436932
20
1.01307
11
0.439487
21
1.01477
0
LINE
8
BLACK
6
CONTINUOUS
10
0.439487
20
1.01477
11
0.4425
21
1.01537
0
LINE
8
BLACK
6
CONTINUOUS
10
0.4425
20
1.01537
11
0.4775
21
1.01537
0
LINE
8
BLACK
6
CONTINUOUS
10
0.4775
20
1.01537
11
0.480513
21
1.01477
0
LINE
8
BLACK
6
CONTINUOUS
10
0.837541
20
1.08633
11
0.840095
21
1.08462
0
LINE
8
BLACK
6
CONTINUOUS
10
0.840095
20
1.08462
11
0.841802
21
1.08207
0
LINE
8
BLACK
6
CONTINUOUS
10
0.841802
20
1.08207
11
0.842402
21
1.07906
0
LINE
8
BLACK
6
CONTINUOUS
10
0.842402
20
1.07906
11
0.842402
21
0.960945
0
LINE
8
BLACK
6
CONTINUOUS
10
0.842402
20
0.960945
11
0.841802
21
0.957932
0
LINE
8
BLACK
6
CONTINUOUS
10
0.841802
20
0.957932
11
0.840095
21
0.955377
0
LINE
8
BLACK
6
CONTINUOUS
10
0.840095
20
0.955377
11
0.837541
21
0.95367
0
LINE
8
BLACK
6
CONTINUOUS
10
0.837541
20
0.95367
11
0.834528
21
0.953071
0
LINE
8
BLACK
6
CONTINUOUS
10
0.834528
20
0.953071
11
0.775472
21
0.953071
0
LINE
8
BLACK
6
CONTINUOUS
10
0.775472
20
0.953071
11
0.772459
21
0.95367
0
LINE
8
BLACK
6
CONTINUOUS
10
0.772459
20
0.95367
11
0.769905
21
0.955377
0
LINE
8
BLACK
6
CONTINUOUS
10
0.769905
20
0.955377
11
0.768198
21
0.957932
0
LINE
8
BLACK
6
CONTINUOUS
10
0.768198
20
0.957932
11
0.767598
21
0.960945
0
LINE
8
BLACK
6
CONTINUOUS
10
0.767598
20
0.960945
11
0.767598
21
1.07906
0
LINE
8
BLACK
6
CONTINUOUS
10
0.767598
20
1.07906
11
0.768198
21
1.08207
0
LINE
8
BLACK
6
CONTINUOUS
10
0.768198
20
1.08207
11
0.769905
21
1.08462
0
LINE
8
BLACK
6
CONTINUOUS
10
0.769905
20
1.08462
11
0.772459
21
1.08633
0
LINE
8
BLACK
6
CONTINUOUS
10
0.772459
20
1.08633
11
0.775472
21
1.08693
0
LINE
8
BLACK
6
CONTINUOUS
10
0.775472
20
1.08693
11
0.834528
21
1.08693
0
LINE
8
BLACK
6
CONTINUOUS
10
0.834528
20
1.08693
11
0.837541
21
1.08633
0
LINE
8
BLACK
6
CONTINUOUS
10
0.747256
20
1.063
11
0.752246
21
1.06125
0
LINE
8
BLACK
6
CONTINUOUS
10
0.752246
20
1.06125
11
0.756499
21
1.05811
0
LINE
8
BLACK
6
CONTINUOUS
10
0.756499
20
1.05811
11
0.759638
21
1.05386
0
LINE
8
BLACK
6
CONTINUOUS
10
0.759638
20
1.05386
11
0.761384
21
1.04887
0
LINE
8
BLACK
6
CONTINUOUS
10
0.761384
20
1.04887
11
0.761693
21
1.04557
0
LINE
8
BLACK
6
CONTINUOUS
10
0.761693
20
1.04557
11
0.761693
21
0.994426
0
LINE
8
BLACK
6
CONTINUOUS
10
0.761693
20
0.994426
11
0.761384
21
0.991129
0
LINE
8
BLACK
6
CONTINUOUS
10
0.761384
20
0.991129
11
0.759638
21
0.98614
0
LINE
8
BLACK
6
CONTINUOUS
10
0.759638
20
0.98614
11
0.756499
21
0.981887
0
LINE
8
BLACK
6
CONTINUOUS
10
0.756499
20
0.981887
11
0.752246
21
0.978748
0
LINE
8
BLACK
6
CONTINUOUS
10
0.752246
20
0.978748
11
0.747256
21
0.977002
0
LINE
8
BLACK
6
CONTINUOUS
10
0.747256
20
0.977002
11
0.74396
21
0.976693
0
LINE
8
BLACK
6
CONTINUOUS
10
0.74396
20
0.976693
11
0.70167
21
0.976693
0
LINE
8
BLACK
6
CONTINUOUS
10
0.70167
20
0.976693
11
0.698373
21
0.977002
0
LINE
8
BLACK
6
CONTINUOUS
10
0.698373
20
0.977002
11
0.693384
21
0.978748
0
LINE
8
BLACK
6
CONTINUOUS
10
0.693384
20
0.978748
11
0.689131
21
0.981887
0
LINE
8
BLACK
6
CONTINUOUS
10
0.689131
20
0.981887
11
0.685992
21
0.98614
0
LINE
8
BLACK
6
CONTINUOUS
10
0.685992
20
0.98614
11
0.684246
21
0.991129
0
LINE
8
BLACK
6
CONTINUOUS
10
0.684246
20
0.991129
11
0.683937
21
0.994426
0
LINE
8
BLACK
6
CONTINUOUS
10
0.683937
20
0.994426
11
0.683937
21
1.04557
0
LINE
8
BLACK
6
CONTINUOUS
10
0.683937
20
1.04557
11
0.684246
21
1.04887
0
LINE
8
BLACK
6
CONTINUOUS
10
0.684246
20
1.04887
11
0.685992
21
1.05386
0
LINE
8
BLACK
6
CONTINUOUS
10
0.685992
20
1.05386
11
0.689131
21
1.05811
0
LINE
8
BLACK
6
CONTINUOUS
10
0.689131
20
1.05811
11
0.693384
21
1.06125
0
LINE
8
BLACK
6
CONTINUOUS
10
0.693384
20
1.06125
11
0.698373
21
1.063
0
LINE
8
BLACK
6
CONTINUOUS
10
0.698373
20
1.063
11
0.70167
21
1.06331
0
LINE
8
BLACK
6
CONTINUOUS
10
0.70167
20
1.06331
11
0.74396
21
1.06331
0
LINE
8
BLACK
6
CONTINUOUS
10
0.74396
20
1.06331
11
0.747256
21
1.063
0
LINE
8
BLACK
6
CONTINUOUS
10
0.91164
20
1.063
11
0.916625
21
1.06125
0
LINE
8
BLACK
6
CONTINUOUS
10
0.916625
20
1.06125
11
0.920874
21
1.05812
0
LINE
8
BLACK
6
CONTINUOUS
10
0.920874
20
1.05812
11
0.92401
21
1.05387
0
LINE
8
BLACK
6
CONTINUOUS
10
0.92401
20
1.05387
11
0.925754
21
1.04888
0
LINE
8
BLACK
6
CONTINUOUS
10
0.925754
20
1.04888
11
0.926063
21
1.04559
0
LINE
8
BLACK
6
CONTINUOUS
10
0.926063
20
1.04559
11
0.926063
21
0.994409
0
LINE
8
BLACK
6
CONTINUOUS
10
0.926063
20
0.994409
11
0.925754
21
0.991116
0
LINE
8
BLACK
6
CONTINUOUS
10
0.925754
20
0.991116
11
0.92401
21
0.986131
0
LINE
8
BLACK
6
CONTINUOUS
10
0.92401
20
0.986131
11
0.920874
21
0.981882
0
LINE
8
BLACK
6
CONTINUOUS
10
0.920874
20
0.981882
11
0.916625
21
0.978746
0
LINE
8
BLACK
6
CONTINUOUS
10
0.916625
20
0.978746
11
0.91164
21
0.977002
0
LINE
8
BLACK
6
CONTINUOUS
10
0.91164
20
0.977002
11
0.908346
21
0.976693
0
LINE
8
BLACK
6
CONTINUOUS
10
0.908346
20
0.976693
11
0.866024
21
0.976693
0
LINE
8
BLACK
6
CONTINUOUS
10
0.866024
20
0.976693
11
0.86273
21
0.977002
0
LINE
8
BLACK
6
CONTINUOUS
10
0.86273
20
0.977002
11
0.857745
21
0.978746
0
LINE
8
BLACK
6
CONTINUOUS
10
0.857745
20
0.978746
11
0.853496
21
0.981882
0
LINE
8
BLACK
6
CONTINUOUS
10
0.853496
20
0.981882
11
0.85036
21
0.986131
0
LINE
8
BLACK
6
CONTINUOUS
10
0.85036
20
0.986131
11
0.848616
21
0.991116
0
LINE
8
BLACK
6
CONTINUOUS
10
0.848616
20
0.991116
11
0.848307
21
0.994409
0
LINE
8
BLACK
6
CONTINUOUS
10
0.848307
20
0.994409
11
0.848307
21
1.04559
0
LINE
8
BLACK
6
CONTINUOUS
10
0.848307
20
1.04559
11
0.848616
21
1.04888
0
LINE
8
BLACK
6
CONTINUOUS
10
0.848616
20
1.04888
11
0.85036
21
1.05387
0
LINE
8
BLACK
6
CONTINUOUS
10
0.85036
20
1.05387
11
0.853496
21
1.05812
0
LINE
8
BLACK
6
CONTINUOUS
10
0.853496
20
1.05812
11
0.857745
21
1.06125
0
LINE
8
BLACK
6
CONTINUOUS
10
0.857745
20
1.06125
11
0.86273
21
1.063
0
LINE
8
BLACK
6
CONTINUOUS
10
0.86273
20
1.063
11
0.866024
21
1.06331
0
LINE
8
BLACK
6
CONTINUOUS
10
0.866024
20
1.06331
11
0.908346
21
1.06331
0
LINE
8
BLACK
6
CONTINUOUS
10
0.908346
20
1.06331
11
0.91164
21
1.063
0
LINE
8
BLACK
6
CONTINUOUS
10
0.365513
20
1.11477
11
0.368068
21
1.11307
0
LINE
8
BLACK
6
CONTINUOUS
10
0.368068
20
1.11307
11
0.369775
21
1.11051
0
LINE
8
BLACK
6
CONTINUOUS
10
0.369775
20
1.11051
11
0.370374
21
1.1075
0
LINE
8
BLACK
6
CONTINUOUS
10
0.370374
20
1.1075
11
0.370374
21
1.0525
0
LINE
8
BLACK
6
CONTINUOUS
10
0.370374
20
1.0525
11
0.369775
21
1.04949
0
LINE
8
BLACK
6
CONTINUOUS
10
0.369775
20
1.04949
11
0.368068
21
1.04693
0
LINE
8
BLACK
6
CONTINUOUS
10
0.368068
20
1.04693
11
0.365513
21
1.04523
0
LINE
8
BLACK
6
CONTINUOUS
10
0.365513
20
1.04523
11
0.3625
21
1.04463
0
LINE
8
BLACK
6
CONTINUOUS
10
0.3625
20
1.04463
11
0.3275
21
1.04463
0
LINE
8
BLACK
6
CONTINUOUS
10
0.3275
20
1.04463
11
0.324487
21
1.04523
0
LINE
8
BLACK
6
CONTINUOUS
10
0.324487
20
1.04523
11
0.321932
21
1.04693
0
LINE
8
BLACK
6
CONTINUOUS
10
0.321932
20
1.04693
11
0.320225
21
1.04949
0
LINE
8
BLACK
6
CONTINUOUS
10
0.320225
20
1.04949
11
0.319626
21
1.0525
0
LINE
8
BLACK
6
CONTINUOUS
10
0.319626
20
1.0525
11
0.319626
21
1.1075
0
LINE
8
BLACK
6
CONTINUOUS
10
0.319626
20
1.1075
11
0.320225
21
1.11051
0
LINE
8
BLACK
6
CONTINUOUS
10
0.320225
20
1.11051
11
0.321932
21
1.11307
0
LINE
8
BLACK
6
CONTINUOUS
10
0.321932
20
1.11307
11
0.324487
21
1.11477
0
LINE
8
BLACK
6
CONTINUOUS
10
0.324487
20
1.11477
11
0.3275
21
1.11537
0
LINE
8
BLACK
6
CONTINUOUS
10
0.3275
20
1.11537
11
0.3625
21
1.11537
0
LINE
8
BLACK
6
CONTINUOUS
10
0.3625
20
1.11537
11
0.365513
21
1.11477
0
LINE
8
BLACK
6
CONTINUOUS
10
0.440513
20
1.11477
11
0.443068
21
1.11307
0
LINE
8
BLACK
6
CONTINUOUS
10
0.443068
20
1.11307
11
0.444775
21
1.11051
0
LINE
8
BLACK
6
CONTINUOUS
10
0.444775
20
1.11051
11
0.445374
21
1.1075
0
LINE
8
BLACK
6
CONTINUOUS
10
0.445374
20
1.1075
11
0.445374
21
1.0525
0
LINE
8
BLACK
6
CONTINUOUS
10
0.445374
20
1.0525
11
0.444775
21
1.04949
0
LINE
8
BLACK
6
CONTINUOUS
10
0.444775
20
1.04949
11
0.443068
21
1.04693
0
LINE
8
BLACK
6
CONTINUOUS
10
0.443068
20
1.04693
11
0.440513
21
1.04523
0
LINE
8
BLACK
6
CONTINUOUS
10
0.440513
20
1.04523
11
0.4375
21
1.04463
0
LINE
8
BLACK
6
CONTINUOUS
10
0.4375
20
1.04463
11
0.4025
21
1.04463
0
LINE
8
BLACK
6
CONTINUOUS
10
0.4025
20
1.04463
11
0.399487
21
1.04523
0
LINE
8
BLACK
6
CONTINUOUS
10
0.399487
20
1.04523
11
0.396932
21
1.04693
0
LINE
8
BLACK
6
CONTINUOUS
10
0.396932
20
1.04693
11
0.395225
21
1.04949
0
LINE
8
BLACK
6
CONTINUOUS
10
0.395225
20
1.04949
11
0.394626
21
1.0525
0
LINE
8
BLACK
6
CONTINUOUS
10
0.394626
20
1.0525
11
0.394626
21
1.1075
0
LINE
8
BLACK
6
CONTINUOUS
10
0.394626
20
1.1075
11
0.395225
21
1.11051
0
LINE
8
BLACK
6
CONTINUOUS
10
0.395225
20
1.11051
11
0.396932
21
1.11307
0
LINE
8
BLACK
6
CONTINUOUS
10
0.396932
20
1.11307
11
0.399487
21
1.11477
0
LINE
8
BLACK
6
CONTINUOUS
10
0.399487
20
1.11477
11
0.4025
21
1.11537
0
LINE
8
BLACK
6
CONTINUOUS
10
0.4025
20
1.11537
11
0.4375
21
1.11537
0
LINE
8
BLACK
6
CONTINUOUS
10
0.4375
20
1.11537
11
0.440513
21
1.11477
0
LINE
8
BLACK
6
CONTINUOUS
10
0.548013
20
1.11477
11
0.550568
21
1.11307
0
LINE
8
BLACK
6
CONTINUOUS
10
0.550568
20
1.11307
11
0.552275
21
1.11051
0
LINE
8
BLACK
6
CONTINUOUS
10
0.552275
20
1.11051
11
0.552874
21
1.1075
0
LINE
8
BLACK
6
CONTINUOUS
10
0.552874
20
1.1075
11
0.552874
21
1.0525
0
LINE
8
BLACK
6
CONTINUOUS
10
0.552874
20
1.0525
11
0.552275
21
1.04949
0
LINE
8
BLACK
6
CONTINUOUS
10
0.552275
20
1.04949
11
0.550568
21
1.04693
0
LINE
8
BLACK
6
CONTINUOUS
10
0.550568
20
1.04693
11
0.548013
21
1.04523
0
LINE
8
BLACK
6
CONTINUOUS
10
0.548013
20
1.04523
11
0.545
21
1.04463
0
LINE
8
BLACK
6
CONTINUOUS
10
0.545
20
1.04463
11
0.51
21
1.04463
0
LINE
8
BLACK
6
CONTINUOUS
10
0.51
20
1.04463
11
0.506987
21
1.04523
0
LINE
8
BLACK
6
CONTINUOUS
10
0.506987
20
1.04523
11
0.504432
21
1.04693
0
LINE
8
BLACK
6
CONTINUOUS
10
0.504432
20
1.04693
11
0.502725
21
1.04949
0
LINE
8
BLACK
6
CONTINUOUS
10
0.502725
20
1.04949
11
0.502126
21
1.0525
0
LINE
8
BLACK
6
CONTINUOUS
10
0.502126
20
1.0525
11
0.502126
21
1.1075
0
LINE
8
BLACK
6
CONTINUOUS
10
0.502126
20
1.1075
11
0.502725
21
1.11051
0
LINE
8
BLACK
6
CONTINUOUS
10
0.502725
20
1.11051
11
0.504432
21
1.11307
0
LINE
8
BLACK
6
CONTINUOUS
10
0.504432
20
1.11307
11
0.506987
21
1.11477
0
LINE
8
BLACK
6
CONTINUOUS
10
0.506987
20
1.11477
11
0.51
21
1.11537
0
LINE
8
BLACK
6
CONTINUOUS
10
0.51
20
1.11537
11
0.545
21
1.11537
0
LINE
8
BLACK
6
CONTINUOUS
10
0.545
20
1.11537
11
0.548013
21
1.11477
0
LINE
8
BLACK
6
CONTINUOUS
10
0.623013
20
1.11477
11
0.625568
21
1.11307
0
LINE
8
BLACK
6
CONTINUOUS
10
0.625568
20
1.11307
11
0.627275
21
1.11051
0
LINE
8
BLACK
6
CONTINUOUS
10
0.627275
20
1.11051
11
0.627874
21
1.1075
0
LINE
8
BLACK
6
CONTINUOUS
10
0.627874
20
1.1075
11
0.627874
21
1.0525
0
LINE
8
BLACK
6
CONTINUOUS
10
0.627874
20
1.0525
11
0.627275
21
1.04949
0
LINE
8
BLACK
6
CONTINUOUS
10
0.627275
20
1.04949
11
0.625568
21
1.04693
0
LINE
8
BLACK
6
CONTINUOUS
10
0.625568
20
1.04693
11
0.623013
21
1.04523
0
LINE
8
BLACK
6
CONTINUOUS
10
0.623013
20
1.04523
11
0.62
21
1.04463
0
LINE
8
BLACK
6
CONTINUOUS
10
0.62
20
1.04463
11
0.585
21
1.04463
0
LINE
8
BLACK
6
CONTINUOUS
10
0.585
20
1.04463
11
0.581987
21
1.04523
0
LINE
8
BLACK
6
CONTINUOUS
10
0.581987
20
1.04523
11
0.579432
21
1.04693
0
LINE
8
BLACK
6
CONTINUOUS
10
0.579432
20
1.04693
11
0.577725
21
1.04949
0
LINE
8
BLACK
6
CONTINUOUS
10
0.577725
20
1.04949
11
0.577126
21
1.0525
0
LINE
8
BLACK
6
CONTINUOUS
10
0.577126
20
1.0525
11
0.577126
21
1.1075
0
LINE
8
BLACK
6
CONTINUOUS
10
0.577126
20
1.1075
11
0.577725
21
1.11051
0
LINE
8
BLACK
6
CONTINUOUS
10
0.577725
20
1.11051
11
0.579432
21
1.11307
0
LINE
8
BLACK
6
CONTINUOUS
10
0.579432
20
1.11307
11
0.581987
21
1.11477
0
LINE
8
BLACK
6
CONTINUOUS
10
0.581987
20
1.11477
11
0.585
21
1.11537
0
LINE
8
BLACK
6
CONTINUOUS
10
0.585
20
1.11537
11
0.62
21
1.11537
0
LINE
8
BLACK
6
CONTINUOUS
10
0.62
20
1.11537
11
0.623013
21
1.11477
0
LINE
8
BLACK
6
CONTINUOUS
10
0.758213
20
1.23707
11
0.760768
21
1.23537
0
LINE
8
BLACK
6
CONTINUOUS
10
0.760768
20
1.23537
11
0.762475
21
1.23281
0
LINE
8
BLACK
6
CONTINUOUS
10
0.762475
20
1.23281
11
0.763074
21
1.2298
0
LINE
8
BLACK
6
CONTINUOUS
10
0.763074
20
1.2298
11
0.763074
21
1.1314
0
LINE
8
BLACK
6
CONTINUOUS
10
0.763074
20
1.1314
11
0.762475
21
1.12839
0
LINE
8
BLACK
6
CONTINUOUS
10
0.762475
20
1.12839
11
0.760768
21
1.12583
0
LINE
8
BLACK
6
CONTINUOUS
10
0.760768
20
1.12583
11
0.758213
21
1.12413
0
LINE
8
BLACK
6
CONTINUOUS
10
0.758213
20
1.12413
11
0.7552
21
1.12353
0
LINE
8
BLACK
6
CONTINUOUS
10
0.7552
20
1.12353
11
0.6548
21
1.12353
0
LINE
8
BLACK
6
CONTINUOUS
10
0.6548
20
1.12353
11
0.651787
21
1.12413
0
LINE
8
BLACK
6
CONTINUOUS
10
0.651787
20
1.12413
11
0.649232
21
1.12583
0
LINE
8
BLACK
6
CONTINUOUS
10
0.649232
20
1.12583
11
0.647525
21
1.12839
0
LINE
8
BLACK
6
CONTINUOUS
10
0.647525
20
1.12839
11
0.646926
21
1.1314
0
LINE
8
BLACK
6
CONTINUOUS
10
0.646926
20
1.1314
11
0.646926
21
1.2298
0
LINE
8
BLACK
6
CONTINUOUS
10
0.646926
20
1.2298
11
0.647525
21
1.23281
0
LINE
8
BLACK
6
CONTINUOUS
10
0.647525
20
1.23281
11
0.649232
21
1.23537
0
LINE
8
BLACK
6
CONTINUOUS
10
0.649232
20
1.23537
11
0.651787
21
1.23707
0
LINE
8
BLACK
6
CONTINUOUS
10
0.651787
20
1.23707
11
0.6548
21
1.23767
0
LINE
8
BLACK
6
CONTINUOUS
10
0.6548
20
1.23767
11
0.7552
21
1.23767
0
LINE
8
BLACK
6
CONTINUOUS
10
0.7552
20
1.23767
11
0.758213
21
1.23707
0
LINE
8
BLACK
6
CONTINUOUS
10
0.957013
20
1.23707
11
0.959568
21
1.23537
0
LINE
8
BLACK
6
CONTINUOUS
10
0.959568
20
1.23537
11
0.961275
21
1.23281
0
LINE
8
BLACK
6
CONTINUOUS
10
0.961275
20
1.23281
11
0.961874
21
1.2298
0
LINE
8
BLACK
6
CONTINUOUS
10
0.961874
20
1.2298
11
0.961874
21
1.1314
0
LINE
8
BLACK
6
CONTINUOUS
10
0.961874
20
1.1314
11
0.961275
21
1.12839
0
LINE
8
BLACK
6
CONTINUOUS
10
0.961275
20
1.12839
11
0.959568
21
1.12583
0
LINE
8
BLACK
6
CONTINUOUS
10
0.959568
20
1.12583
11
0.957013
21
1.12413
0
LINE
8
BLACK
6
CONTINUOUS
10
0.957013
20
1.12413
11
0.954
21
1.12353
0
LINE
8
BLACK
6
CONTINUOUS
10
0.954
20
1.12353
11
0.8536
21
1.12353
0
LINE
8
BLACK
6
CONTINUOUS
10
0.8536
20
1.12353
11
0.850587
21
1.12413
0
LINE
8
BLACK
6
CONTINUOUS
10
0.850587
20
1.12413
11
0.848032
21
1.12583
0
LINE
8
BLACK
6
CONTINUOUS
10
0.848032
20
1.12583
11
0.846325
21
1.12839
0
LINE
8
BLACK
6
CONTINUOUS
10
0.846325
20
1.12839
11
0.845726
21
1.1314
0
LINE
8
BLACK
6
CONTINUOUS
10
0.845726
20
1.1314
11
0.845726
21
1.2298
0
LINE
8
BLACK
6
CONTINUOUS
10
0.845726
20
1.2298
11
0.846325
21
1.23281
0
LINE
8
BLACK
6
CONTINUOUS
10
0.846325
20
1.23281
11
0.848032
21
1.23537
0
LINE
8
BLACK
6
CONTINUOUS
10
0.848032
20
1.23537
11
0.850587
21
1.23707
0
LINE
8
BLACK
6
CONTINUOUS
10
0.850587
20
1.23707
11
0.8536
21
1.23767
0
LINE
8
BLACK
6
CONTINUOUS
10
0.8536
20
1.23767
11
0.954
21
1.23767
0
LINE
8
BLACK
6
CONTINUOUS
10
0.954
20
1.23767
11
0.957013
21
1.23707
0
LINE
8
BLACK
6
CONTINUOUS
10
0.390513
20
1.23477
11
0.393068
21
1.23307
0
LINE
8
BLACK
6
CONTINUOUS
10
0.393068
20
1.23307
11
0.394775
21
1.23051
0
LINE
8
BLACK
6
CONTINUOUS
10
0.394775
20
1.23051
11
0.395374
21
1.2275
0
LINE
8
BLACK
6
CONTINUOUS
10
0.395374
20
1.2275
11
0.395374
21
1.1725
0
LINE
8
BLACK
6
CONTINUOUS
10
0.395374
20
1.1725
11
0.394775
21
1.16949
0
LINE
8
BLACK
6
CONTINUOUS
10
0.394775
20
1.16949
11
0.393068
21
1.16693
0
LINE
8
BLACK
6
CONTINUOUS
10
0.393068
20
1.16693
11
0.390513
21
1.16523
0
LINE
8
BLACK
6
CONTINUOUS
10
0.390513
20
1.16523
11
0.3875
21
1.16463
0
LINE
8
BLACK
6
CONTINUOUS
10
0.3875
20
1.16463
11
0.3525
21
1.16463
0
LINE
8
BLACK
6
CONTINUOUS
10
0.3525
20
1.16463
11
0.349487
21
1.16523
0
LINE
8
BLACK
6
CONTINUOUS
10
0.349487
20
1.16523
11
0.346932
21
1.16693
0
LINE
8
BLACK
6
CONTINUOUS
10
0.346932
20
1.16693
11
0.345225
21
1.16949
0
LINE
8
BLACK
6
CONTINUOUS
10
0.345225
20
1.16949
11
0.344626
21
1.1725
0
LINE
8
BLACK
6
CONTINUOUS
10
0.344626
20
1.1725
11
0.344626
21
1.2275
0
LINE
8
BLACK
6
CONTINUOUS
10
0.344626
20
1.2275
11
0.345225
21
1.23051
0
LINE
8
BLACK
6
CONTINUOUS
10
0.345225
20
1.23051
11
0.346932
21
1.23307
0
LINE
8
BLACK
6
CONTINUOUS
10
0.346932
20
1.23307
11
0.349487
21
1.23477
0
LINE
8
BLACK
6
CONTINUOUS
10
0.349487
20
1.23477
11
0.3525
21
1.23537
0
LINE
8
BLACK
6
CONTINUOUS
10
0.3525
20
1.23537
11
0.3875
21
1.23537
0
LINE
8
BLACK
6
CONTINUOUS
10
0.3875
20
1.23537
11
0.390513
21
1.23477
0
LINE
8
BLACK
6
CONTINUOUS
10
0.465513
20
1.23477
11
0.468068
21
1.23307
0
LINE
8
BLACK
6
CONTINUOUS
10
0.468068
20
1.23307
11
0.469775
21
1.23051
0
LINE
8
BLACK
6
CONTINUOUS
10
0.469775
20
1.23051
11
0.470374
21
1.2275
0
LINE
8
BLACK
6
CONTINUOUS
10
0.470374
20
1.2275
11
0.470374
21
1.1725
0
LINE
8
BLACK
6
CONTINUOUS
10
0.470374
20
1.1725
11
0.469775
21
1.16949
0
LINE
8
BLACK
6
CONTINUOUS
10
0.469775
20
1.16949
11
0.468068
21
1.16693
0
LINE
8
BLACK
6
CONTINUOUS
10
0.468068
20
1.16693
11
0.465513
21
1.16523
0
LINE
8
BLACK
6
CONTINUOUS
10
0.465513
20
1.16523
11
0.4625
21
1.16463
0
LINE
8
BLACK
6
CONTINUOUS
10
0.4625
20
1.16463
11
0.4275
21
1.16463
0
LINE
8
BLACK
6
CONTINUOUS
10
0.4275
20
1.16463
11
0.424487
21
1.16523
0
LINE
8
BLACK
6
CONTINUOUS
10
0.424487
20
1.16523
11
0.421932
21
1.16693
0
LINE
8
BLACK
6
CONTINUOUS
10
0.421932
20
1.16693
11
0.420225
21
1.16949
0
LINE
8
BLACK
6
CONTINUOUS
10
0.420225
20
1.16949
11
0.419626
21
1.1725
0
LINE
8
BLACK
6
CONTINUOUS
10
0.419626
20
1.1725
11
0.419626
21
1.2275
0
LINE
8
BLACK
6
CONTINUOUS
10
0.419626
20
1.2275
11
0.420225
21
1.23051
0
LINE
8
BLACK
6
CONTINUOUS
10
0.420225
20
1.23051
11
0.421932
21
1.23307
0
LINE
8
BLACK
6
CONTINUOUS
10
0.421932
20
1.23307
11
0.424487
21
1.23477
0
LINE
8
BLACK
6
CONTINUOUS
10
0.424487
20
1.23477
11
0.4275
21
1.23537
0
LINE
8
BLACK
6
CONTINUOUS
10
0.4275
20
1.23537
11
0.4625
21
1.23537
0
LINE
8
BLACK
6
CONTINUOUS
10
0.4625
20
1.23537
11
0.465513
21
1.23477
0
LINE
8
BLACK
6
CONTINUOUS
10
0.550513
20
1.23477
11
0.553068
21
1.23307
0
LINE
8
BLACK
6
CONTINUOUS
10
0.553068
20
1.23307
11
0.554775
21
1.23051
0
LINE
8
BLACK
6
CONTINUOUS
10
0.554775
20
1.23051
11
0.555374
21
1.2275
0
LINE
8
BLACK
6
CONTINUOUS
10
0.555374
20
1.2275
11
0.555374
21
1.1725
0
LINE
8
BLACK
6
CONTINUOUS
10
0.555374
20
1.1725
11
0.554775
21
1.16949
0
LINE
8
BLACK
6
CONTINUOUS
10
0.554775
20
1.16949
11
0.553068
21
1.16693
0
LINE
8
BLACK
6
CONTINUOUS
10
0.553068
20
1.16693
11
0.550513
21
1.16523
0
LINE
8
BLACK
6
CONTINUOUS
10
0.550513
20
1.16523
11
0.5475
21
1.16463
0
LINE
8
BLACK
6
CONTINUOUS
10
0.5475
20
1.16463
11
0.5125
21
1.16463
0
LINE
8
BLACK
6
CONTINUOUS
10
0.5125
20
1.16463
11
0.509487
21
1.16523
0
LINE
8
BLACK
6
CONTINUOUS
10
0.509487
20
1.16523
11
0.506932
21
1.16693
0
LINE
8
BLACK
6
CONTINUOUS
10
0.506932
20
1.16693
11
0.505225
21
1.16949
0
LINE
8
BLACK
6
CONTINUOUS
10
0.505225
20
1.16949
11
0.504626
21
1.1725
0
LINE
8
BLACK
6
CONTINUOUS
10
0.504626
20
1.1725
11
0.504626
21
1.2275
0
LINE
8
BLACK
6
CONTINUOUS
10
0.504626
20
1.2275
11
0.505225
21
1.23051
0
LINE
8
BLACK
6
CONTINUOUS
10
0.505225
20
1.23051
11
0.506932
21
1.23307
0
LINE
8
BLACK
6
CONTINUOUS
10
0.506932
20
1.23307
11
0.509487
21
1.23477
0
LINE
8
BLACK
6
CONTINUOUS
10
0.509487
20
1.23477
11
0.5125
21
1.23537
0
LINE
8
BLACK
6
CONTINUOUS
10
0.5125
20
1.23537
11
0.5475
21
1.23537
0
LINE
8
BLACK
6
CONTINUOUS
10
0.5475
20
1.23537
11
0.550513
21
1.23477
0
LINE
8
BLACK
6
CONTINUOUS
10
0.625513
20
1.23477
11
0.628068
21
1.23307
0
LINE
8
BLACK
6
CONTINUOUS
10
0.628068
20
1.23307
11
0.629775
21
1.23051
0
LINE
8
BLACK
6
CONTINUOUS
10
0.629775
20
1.23051
11
0.630374
21
1.2275
0
LINE
8
BLACK
6
CONTINUOUS
10
0.630374
20
1.2275
11
0.630374
21
1.1725
0
LINE
8
BLACK
6
CONTINUOUS
10
0.630374
20
1.1725
11
0.629775
21
1.16949
0
LINE
8
BLACK
6
CONTINUOUS
10
0.629775
20
1.16949
11
0.628068
21
1.16693
0
LINE
8
BLACK
6
CONTINUOUS
10
0.628068
20
1.16693
11
0.625513
21
1.16523
0
LINE
8
BLACK
6
CONTINUOUS
10
0.625513
20
1.16523
11
0.6225
21
1.16463
0
LINE
8
BLACK
6
CONTINUOUS
10
0.6225
20
1.16463
11
0.5875
21
1.16463
0
LINE
8
BLACK
6
CONTINUOUS
10
0.5875
20
1.16463
11
0.584487
21
1.16523
0
LINE
8
BLACK
6
CONTINUOUS
10
0.584487
20
1.16523
11
0.581932
21
1.16693
0
LINE
8
BLACK
6
CONTINUOUS
10
0.581932
20
1.16693
11
0.580225
21
1.16949
0
LINE
8
BLACK
6
CONTINUOUS
10
0.580225
20
1.16949
11
0.579626
21
1.1725
0
LINE
8
BLACK
6
CONTINUOUS
10
0.579626
20
1.1725
11
0.579626
21
1.2275
0
LINE
8
BLACK
6
CONTINUOUS
10
0.579626
20
1.2275
11
0.580225
21
1.23051
0
LINE
8
BLACK
6
CONTINUOUS
10
0.580225
20
1.23051
11
0.581932
21
1.23307
0
LINE
8
BLACK
6
CONTINUOUS
10
0.581932
20
1.23307
11
0.584487
21
1.23477
0
LINE
8
BLACK
6
CONTINUOUS
10
0.584487
20
1.23477
11
0.5875
21
1.23537
0
LINE
8
BLACK
6
CONTINUOUS
10
0.5875
20
1.23537
11
0.6225
21
1.23537
0
LINE
8
BLACK
6
CONTINUOUS
10
0.6225
20
1.23537
11
0.625513
21
1.23477
0
LINE
8
BLACK
6
CONTINUOUS
10
1.02801
20
1.33727
11
1.03057
21
1.33557
0
LINE
8
BLACK
6
CONTINUOUS
10
1.03057
20
1.33557
11
1.03227
21
1.33301
0
LINE
8
BLACK
6
CONTINUOUS
10
1.03227
20
1.33301
11
1.03287
21
1.33
0
LINE
8
BLACK
6
CONTINUOUS
10
1.03287
20
1.33
11
1.03287
21
1.27
0
LINE
8
BLACK
6
CONTINUOUS
10
1.03287
20
1.27
11
1.03227
21
1.26699
0
LINE
8
BLACK
6
CONTINUOUS
10
1.03227
20
1.26699
11
1.03057
21
1.26443
0
LINE
8
BLACK
6
CONTINUOUS
10
1.03057
20
1.26443
11
1.02801
21
1.26273
0
LINE
8
BLACK
6
CONTINUOUS
10
1.02801
20
1.26273
11
1.025
21
1.26213
0
LINE
8
BLACK
6
CONTINUOUS
10
1.025
20
1.26213
11
0.965
21
1.26213
0
LINE
8
BLACK
6
CONTINUOUS
10
0.965
20
1.26213
11
0.961987
21
1.26273
0
LINE
8
BLACK
6
CONTINUOUS
10
0.961987
20
1.26273
11
0.959432
21
1.26443
0
LINE
8
BLACK
6
CONTINUOUS
10
0.959432
20
1.26443
11
0.957725
21
1.26699
0
LINE
8
BLACK
6
CONTINUOUS
10
0.957725
20
1.26699
11
0.957126
21
1.27
0
LINE
8
BLACK
6
CONTINUOUS
10
0.957126
20
1.27
11
0.957126
21
1.33
0
LINE
8
BLACK
6
CONTINUOUS
10
0.957126
20
1.33
11
0.957725
21
1.33301
0
LINE
8
BLACK
6
CONTINUOUS
10
0.957725
20
1.33301
11
0.959432
21
1.33557
0
LINE
8
BLACK
6
CONTINUOUS
10
0.959432
20
1.33557
11
0.961987
21
1.33727
0
LINE
8
BLACK
6
CONTINUOUS
10
0.961987
20
1.33727
11
0.965
21
1.33787
0
LINE
8
BLACK
6
CONTINUOUS
10
0.965
20
1.33787
11
1.025
21
1.33787
0
LINE
8
BLACK
6
CONTINUOUS
10
1.025
20
1.33787
11
1.02801
21
1.33727
0
LINE
8
BLACK
6
CONTINUOUS
10
1.12801
20
1.33727
11
1.13057
21
1.33557
0
LINE
8
BLACK
6
CONTINUOUS
10
1.13057
20
1.33557
11
1.13227
21
1.33301
0
LINE
8
BLACK
6
CONTINUOUS
10
1.13227
20
1.33301
11
1.13287
21
1.33
0
LINE
8
BLACK
6
CONTINUOUS
10
1.13287
20
1.33
11
1.13287
21
1.27
0
LINE
8
BLACK
6
CONTINUOUS
10
1.13287
20
1.27
11
1.13227
21
1.26699
0
LINE
8
BLACK
6
CONTINUOUS
10
1.13227
20
1.26699
11
1.13057
21
1.26443
0
LINE
8
BLACK
6
CONTINUOUS
10
1.13057
20
1.26443
11
1.12801
21
1.26273
0
LINE
8
BLACK
6
CONTINUOUS
10
1.12801
20
1.26273
11
1.125
21
1.26213
0
LINE
8
BLACK
6
CONTINUOUS
10
1.125
20
1.26213
11
1.065
21
1.26213
0
LINE
8
BLACK
6
CONTINUOUS
10
1.065
20
1.26213
11
1.06199
21
1.26273
0
LINE
8
BLACK
6
CONTINUOUS
10
1.06199
20
1.26273
11
1.05943
21
1.26443
0
LINE
8
BLACK
6
CONTINUOUS
10
1.05943
20
1.26443
11
1.05773
21
1.26699
0
LINE
8
BLACK
6
CONTINUOUS
10
1.05773
20
1.26699
11
1.05713
21
1.27
0
LINE
8
BLACK
6
CONTINUOUS
10
1.05713
20
1.27
11
1.05713
21
1.33
0
LINE
8
BLACK
6
CONTINUOUS
10
1.05713
20
1.33
11
1.05773
21
1.33301
0
LINE
8
BLACK
6
CONTINUOUS
10
1.05773
20
1.33301
11
1.05943
21
1.33557
0
LINE
8
BLACK
6
CONTINUOUS
10
1.05943
20
1.33557
11
1.06199
21
1.33727
0
LINE
8
BLACK
6
CONTINUOUS
10
1.06199
20
1.33727
11
1.065
21
1.33787
0
LINE
8
BLACK
6
CONTINUOUS
10
1.065
20
1.33787
11
1.125
21
1.33787
0
LINE
8
BLACK
6
CONTINUOUS
10
1.125
20
1.33787
11
1.12801
21
1.33727
0
LINE
8
BLACK
6
CONTINUOUS
10
0.219106
20
1.52519
11
0.233034
21
1.52283
0
LINE
8
BLACK
6
CONTINUOUS
10
0.233034
20
1.52283
11
0.24661
21
1.51891
0
LINE
8
BLACK
6
CONTINUOUS
10
0.24661
20
1.51891
11
0.259663
21
1.51351
0
LINE
8
BLACK
6
CONTINUOUS
10
0.259663
20
1.51351
11
0.272028
21
1.50667
0
LINE
8
BLACK
6
CONTINUOUS
10
0.272028
20
1.50667
11
0.28355
21
1.4985
0
LINE
8
BLACK
6
CONTINUOUS
10
0.28355
20
1.4985
11
0.294084
21
1.48908
0
LINE
8
BLACK
6
CONTINUOUS
10
0.294084
20
1.48908
11
0.303498
21
1.47855
0
LINE
8
BLACK
6
CONTINUOUS
10
0.303498
20
1.47855
11
0.311674
21
1.46703
0
LINE
8
BLACK
6
CONTINUOUS
10
0.311674
20
1.46703
11
0.318508
21
1.45466
0
LINE
8
BLACK
6
CONTINUOUS
10
0.318508
20
1.45466
11
0.323914
21
1.44161
0
LINE
8
BLACK
6
CONTINUOUS
10
0.323914
20
1.44161
11
0.327826
21
1.42803
0
LINE
8
BLACK
6
CONTINUOUS
10
0.327826
20
1.42803
11
0.330192
21
1.41411
0
LINE
8
BLACK
6
CONTINUOUS
10
0.330192
20
1.41411
11
0.330984
21
1.4
0
LINE
8
BLACK
6
CONTINUOUS
10
0.330984
20
1.4
11
0.330192
21
1.38589
0
LINE
8
BLACK
6
CONTINUOUS
10
0.330192
20
1.38589
11
0.327826
21
1.37197
0
LINE
8
BLACK
6
CONTINUOUS
10
0.327826
20
1.37197
11
0.323914
21
1.35839
0
LINE
8
BLACK
6
CONTINUOUS
10
0.323914
20
1.35839
11
0.318508
21
1.34534
0
LINE
8
BLACK
6
CONTINUOUS
10
0.318508
20
1.34534
11
0.311674
21
1.33297
0
LINE
8
BLACK
6
CONTINUOUS
10
0.311674
20
1.33297
11
0.303498
21
1.32145
0
LINE
8
BLACK
6
CONTINUOUS
10
0.303498
20
1.32145
11
0.294084
21
1.31092
0
LINE
8
BLACK
6
CONTINUOUS
10
0.294084
20
1.31092
11
0.28355
21
1.3015
0
LINE
8
BLACK
6
CONTINUOUS
10
0.28355
20
1.3015
11
0.272028
21
1.29333
0
LINE
8
BLACK
6
CONTINUOUS
10
0.272028
20
1.29333
11
0.259663
21
1.28649
0
LINE
8
BLACK
6
CONTINUOUS
10
0.259663
20
1.28649
11
0.24661
21
1.28109
0
LINE
8
BLACK
6
CONTINUOUS
10
0.24661
20
1.28109
11
0.233034
21
1.27717
0
LINE
8
BLACK
6
CONTINUOUS
10
0.233034
20
1.27717
11
0.219106
21
1.27481
0
LINE
8
BLACK
6
CONTINUOUS
10
0.219106
20
1.27481
11
0.205
21
1.27402
0
LINE
8
BLACK
6
CONTINUOUS
10
0.205
20
1.27402
11
0.190894
21
1.27481
0
LINE
8
BLACK
6
CONTINUOUS
10
0.190894
20
1.27481
11
0.176966
21
1.27717
0
LINE
8
BLACK
6
CONTINUOUS
10
0.176966
20
1.27717
11
0.16339
21
1.28109
0
LINE
8
BLACK
6
CONTINUOUS
10
0.16339
20
1.28109
11
0.150337
21
1.28649
0
LINE
8
BLACK
6
CONTINUOUS
10
0.150337
20
1.28649
11
0.137972
21
1.29333
0
LINE
8
BLACK
6
CONTINUOUS
10
0.137972
20
1.29333
11
0.12645
21
1.3015
0
LINE
8
BLACK
6
CONTINUOUS
10
0.12645
20
1.3015
11
0.115916
21
1.31092
0
LINE
8
BLACK
6
CONTINUOUS
10
0.115916
20
1.31092
11
0.106502
21
1.32145
0
LINE
8
BLACK
6
CONTINUOUS
10
0.106502
20
1.32145
11
0.0983261
21
1.33297
0
LINE
8
BLACK
6
CONTINUOUS
10
0.0983261
20
1.33297
11
0.0914921
21
1.34534
0
LINE
8
BLACK
6
CONTINUOUS
10
0.0914921
20
1.34534
11
0.0860856
21
1.35839
0
LINE
8
BLACK
6
CONTINUOUS
10
0.0860856
20
1.35839
11
0.0821744
21
1.37197
0
LINE
8
BLACK
6
CONTINUOUS
10
0.0821744
20
1.37197
11
0.0798079
21
1.38589
0
LINE
8
BLACK
6
CONTINUOUS
10
0.0798079
20
1.38589
11
0.0790157
21
1.4
0
LINE
8
BLACK
6
CONTINUOUS
10
0.0790157
20
1.4
11
0.0798079
21
1.41411
0
LINE
8
BLACK
6
CONTINUOUS
10
0.0798079
20
1.41411
11
0.0821744
21
1.42803
0
LINE
8
BLACK
6
CONTINUOUS
10
0.0821744
20
1.42803
11
0.0860856
21
1.44161
0
LINE
8
BLACK
6
CONTINUOUS
10
0.0860856
20
1.44161
11
0.0914921
21
1.45466
0
LINE
8
BLACK
6
CONTINUOUS
10
0.0914921
20
1.45466
11
0.0983261
21
1.46703
0
LINE
8
BLACK
6
CONTINUOUS
10
0.0983261
20
1.46703
11
0.106502
21
1.47855
0
LINE
8
BLACK
6
CONTINUOUS
10
0.106502
20
1.47855
11
0.115916
21
1.48908
0
LINE
8
BLACK
6
CONTINUOUS
10
0.115916
20
1.48908
11
0.12645
21
1.4985
0
LINE
8
BLACK
6
CONTINUOUS
10
0.12645
20
1.4985
11
0.137972
21
1.50667
0
LINE
8
BLACK
6
CONTINUOUS
10
0.137972
20
1.50667
11
0.150337
21
1.51351
0
LINE
8
BLACK
6
CONTINUOUS
10
0.150337
20
1.51351
11
0.16339
21
1.51891
0
LINE
8
BLACK
6
CONTINUOUS
10
0.16339
20
1.51891
11
0.176966
21
1.52283
0
LINE
8
BLACK
6
CONTINUOUS
10
0.176966
20
1.52283
11
0.190894
21
1.52519
0
LINE
8
BLACK
6
CONTINUOUS
10
0.190894
20
1.52519
11
0.205
21
1.52598
0
LINE
8
BLACK
6
CONTINUOUS
10
0.205
20
1.52598
11
0.219106
21
1.52519
0
LINE
8
BLACK
6
CONTINUOUS
10
0.619106
20
1.52519
11
0.633034
21
1.52283
0
LINE
8
BLACK
6
CONTINUOUS
10
0.633034
20
1.52283
11
0.64661
21
1.51891
0
LINE
8
BLACK
6
CONTINUOUS
10
0.64661
20
1.51891
11
0.659663
21
1.51351
0
LINE
8
BLACK
6
CONTINUOUS
10
0.659663
20
1.51351
11
0.672028
21
1.50667
0
LINE
8
BLACK
6
CONTINUOUS
10
0.672028
20
1.50667
11
0.68355
21
1.4985
0
LINE
8
BLACK
6
CONTINUOUS
10
0.68355
20
1.4985
11
0.694084
21
1.48908
0
LINE
8
BLACK
6
CONTINUOUS
10
0.694084
20
1.48908
11
0.703498
21
1.47855
0
LINE
8
BLACK
6
CONTINUOUS
10
0.703498
20
1.47855
11
0.711674
21
1.46703
0
LINE
8
BLACK
6
CONTINUOUS
10
0.711674
20
1.46703
11
0.718508
21
1.45466
0
LINE
8
BLACK
6
CONTINUOUS
10
0.718508
20
1.45466
11
0.723914
21
1.44161
0
LINE
8
BLACK
6
CONTINUOUS
10
0.723914
20
1.44161
11
0.727826
21
1.42803
0
LINE
8
BLACK
6
CONTINUOUS
10
0.727826
20
1.42803
11
0.730192
21
1.41411
0
LINE
8
BLACK
6
CONTINUOUS
10
0.730192
20
1.41411
11
0.730984
21
1.4
0
LINE
8
BLACK
6
CONTINUOUS
10
0.730984
20
1.4
11
0.730192
21
1.38589
0
LINE
8
BLACK
6
CONTINUOUS
10
0.730192
20
1.38589
11
0.727826
21
1.37197
0
LINE
8
BLACK
6
CONTINUOUS
10
0.727826
20
1.37197
11
0.723914
21
1.35839
0
LINE
8
BLACK
6
CONTINUOUS
10
0.723914
20
1.35839
11
0.718508
21
1.34534
0
LINE
8
BLACK
6
CONTINUOUS
10
0.718508
20
1.34534
11
0.711674
21
1.33297
0
LINE
8
BLACK
6
CONTINUOUS
10
0.711674
20
1.33297
11
0.703498
21
1.32145
0
LINE
8
BLACK
6
CONTINUOUS
10
0.703498
20
1.32145
11
0.694084
21
1.31092
0
LINE
8
BLACK
6
CONTINUOUS
10
0.694084
20
1.31092
11
0.68355
21
1.3015
0
LINE
8
BLACK
6
CONTINUOUS
10
0.68355
20
1.3015
11
0.672028
21
1.29333
0
LINE
8
BLACK
6
CONTINUOUS
10
0.672028
20
1.29333
11
0.659663
21
1.28649
0
LINE
8
BLACK
6
CONTINUOUS
10
0.659663
20
1.28649
11
0.64661
21
1.28109
0
LINE
8
BLACK
6
CONTINUOUS
10
0.64661
20
1.28109
11
0.633034
21
1.27717
0
LINE
8
BLACK
6
CONTINUOUS
10
0.633034
20
1.27717
11
0.619106
21
1.27481
0
LINE
8
BLACK
6
CONTINUOUS
10
0.619106
20
1.27481
11
0.605
21
1.27402
0
LINE
8
BLACK
6
CONTINUOUS
10
0.605
20
1.27402
11
0.590894
21
1.27481
0
LINE
8
BLACK
6
CONTINUOUS
10
0.590894
20
1.27481
11
0.576966
21
1.27717
0
LINE
8
BLACK
6
CONTINUOUS
10
0.576966
20
1.27717
11
0.56339
21
1.28109
0
LINE
8
BLACK
6
CONTINUOUS
10
0.56339
20
1.28109
11
0.550337
21
1.28649
0
LINE
8
BLACK
6
CONTINUOUS
10
0.550337
20
1.28649
11
0.537972
21
1.29333
0
LINE
8
BLACK
6
CONTINUOUS
10
0.537972
20
1.29333
11
0.52645
21
1.3015
0
LINE
8
BLACK
6
CONTINUOUS
10
0.52645
20
1.3015
11
0.515916
21
1.31092
0
LINE
8
BLACK
6
CONTINUOUS
10
0.515916
20
1.31092
11
0.506502
21
1.32145
0
LINE
8
BLACK
6
CONTINUOUS
10
0.506502
20
1.32145
11
0.498326
21
1.33297
0
LINE
8
BLACK
6
CONTINUOUS
10
0.498326
20
1.33297
11
0.491492
21
1.34534
0
LINE
8
BLACK
6
CONTINUOUS
10
0.491492
20
1.34534
11
0.486086
21
1.35839
0
LINE
8
BLACK
6
CONTINUOUS
10
0.486086
20
1.35839
11
0.482174
21
1.37197
0
LINE
8
BLACK
6
CONTINUOUS
10
0.482174
20
1.37197
11
0.479808
21
1.38589
0
LINE
8
BLACK
6
CONTINUOUS
10
0.479808
20
1.38589
11
0.479016
21
1.4
0
LINE
8
BLACK
6
CONTINUOUS
10
0.479016
20
1.4
11
0.479808
21
1.41411
0
LINE
8
BLACK
6
CONTINUOUS
10
0.479808
20
1.41411
11
0.482174
21
1.42803
0
LINE
8
BLACK
6
CONTINUOUS
10
0.482174
20
1.42803
11
0.486086
21
1.44161
0
LINE
8
BLACK
6
CONTINUOUS
10
0.486086
20
1.44161
11
0.491492
21
1.45466
0
LINE
8
BLACK
6
CONTINUOUS
10
0.491492
20
1.45466
11
0.498326
21
1.46703
0
LINE
8
BLACK
6
CONTINUOUS
10
0.498326
20
1.46703
11
0.506502
21
1.47855
0
LINE
8
BLACK
6
CONTINUOUS
10
0.506502
20
1.47855
11
0.515916
21
1.48908
0
LINE
8
BLACK
6
CONTINUOUS
10
0.515916
20
1.48908
11
0.52645
21
1.4985
0
LINE
8
BLACK
6
CONTINUOUS
10
0.52645
20
1.4985
11
0.537972
21
1.50667
0
LINE
8
BLACK
6
CONTINUOUS
10
0.537972
20
1.50667
11
0.550337
21
1.51351
0
LINE
8
BLACK
6
CONTINUOUS
10
0.550337
20
1.51351
11
0.56339
21
1.51891
0
LINE
8
BLACK
6
CONTINUOUS
10
0.56339
20
1.51891
11
0.576966
21
1.52283
0
LINE
8
BLACK
6
CONTINUOUS
10
0.576966
20
1.52283
11
0.590894
21
1.52519
0
LINE
8
BLACK
6
CONTINUOUS
10
0.590894
20
1.52519
11
0.605
21
1.52598
0
LINE
8
BLACK
6
CONTINUOUS
10
0.605
20
1.52598
11
0.619106
21
1.52519
0
LINE
8
BLACK
6
CONTINUOUS
10
0.895513
20
1.34977
11
0.898068
21
1.34807
0
LINE
8
BLACK
6
CONTINUOUS
10
0.898068
20
1.34807
11
0.899775
21
1.34551
0
LINE
8
BLACK
6
CONTINUOUS
10
0.899775
20
1.34551
11
0.900374
21
1.3425
0
LINE
8
BLACK
6
CONTINUOUS
10
0.900374
20
1.3425
11
0.900374
21
1.3075
0
LINE
8
BLACK
6
CONTINUOUS
10
0.900374
20
1.3075
11
0.899775
21
1.30449
0
LINE
8
BLACK
6
CONTINUOUS
10
0.899775
20
1.30449
11
0.898068
21
1.30193
0
LINE
8
BLACK
6
CONTINUOUS
10
0.898068
20
1.30193
11
0.895513
21
1.30023
0
LINE
8
BLACK
6
CONTINUOUS
10
0.895513
20
1.30023
11
0.8925
21
1.29963
0
LINE
8
BLACK
6
CONTINUOUS
10
0.8925
20
1.29963
11
0.8375
21
1.29963
0
LINE
8
BLACK
6
CONTINUOUS
10
0.8375
20
1.29963
11
0.834487
21
1.30023
0
LINE
8
BLACK
6
CONTINUOUS
10
0.834487
20
1.30023
11
0.831932
21
1.30193
0
LINE
8
BLACK
6
CONTINUOUS
10
0.831932
20
1.30193
11
0.830225
21
1.30449
0
LINE
8
BLACK
6
CONTINUOUS
10
0.830225
20
1.30449
11
0.829626
21
1.3075
0
LINE
8
BLACK
6
CONTINUOUS
10
0.829626
20
1.3075
11
0.829626
21
1.3425
0
LINE
8
BLACK
6
CONTINUOUS
10
0.829626
20
1.3425
11
0.830225
21
1.34551
0
LINE
8
BLACK
6
CONTINUOUS
10
0.830225
20
1.34551
11
0.831932
21
1.34807
0
LINE
8
BLACK
6
CONTINUOUS
10
0.831932
20
1.34807
11
0.834487
21
1.34977
0
LINE
8
BLACK
6
CONTINUOUS
10
0.834487
20
1.34977
11
0.8375
21
1.35037
0
LINE
8
BLACK
6
CONTINUOUS
10
0.8375
20
1.35037
11
0.8925
21
1.35037
0
LINE
8
BLACK
6
CONTINUOUS
10
0.8925
20
1.35037
11
0.895513
21
1.34977
0
LINE
8
BLACK
6
CONTINUOUS
10
1.02801
20
1.43727
11
1.03057
21
1.43557
0
LINE
8
BLACK
6
CONTINUOUS
10
1.03057
20
1.43557
11
1.03227
21
1.43301
0
LINE
8
BLACK
6
CONTINUOUS
10
1.03227
20
1.43301
11
1.03287
21
1.43
0
LINE
8
BLACK
6
CONTINUOUS
10
1.03287
20
1.43
11
1.03287
21
1.37
0
LINE
8
BLACK
6
CONTINUOUS
10
1.03287
20
1.37
11
1.03227
21
1.36699
0
LINE
8
BLACK
6
CONTINUOUS
10
1.03227
20
1.36699
11
1.03057
21
1.36443
0
LINE
8
BLACK
6
CONTINUOUS
10
1.03057
20
1.36443
11
1.02801
21
1.36273
0
LINE
8
BLACK
6
CONTINUOUS
10
1.02801
20
1.36273
11
1.025
21
1.36213
0
LINE
8
BLACK
6
CONTINUOUS
10
1.025
20
1.36213
11
0.965
21
1.36213
0
LINE
8
BLACK
6
CONTINUOUS
10
0.965
20
1.36213
11
0.961987
21
1.36273
0
LINE
8
BLACK
6
CONTINUOUS
10
0.961987
20
1.36273
11
0.959432
21
1.36443
0
LINE
8
BLACK
6
CONTINUOUS
10
0.959432
20
1.36443
11
0.957725
21
1.36699
0
LINE
8
BLACK
6
CONTINUOUS
10
0.957725
20
1.36699
11
0.957126
21
1.37
0
LINE
8
BLACK
6
CONTINUOUS
10
0.957126
20
1.37
11
0.957126
21
1.43
0
LINE
8
BLACK
6
CONTINUOUS
10
0.957126
20
1.43
11
0.957725
21
1.43301
0
LINE
8
BLACK
6
CONTINUOUS
10
0.957725
20
1.43301
11
0.959432
21
1.43557
0
LINE
8
BLACK
6
CONTINUOUS
10
0.959432
20
1.43557
11
0.961987
21
1.43727
0
LINE
8
BLACK
6
CONTINUOUS
10
0.961987
20
1.43727
11
0.965
21
1.43787
0
LINE
8
BLACK
6
CONTINUOUS
10
0.965
20
1.43787
11
1.025
21
1.43787
0
LINE
8
BLACK
6
CONTINUOUS
10
1.025
20
1.43787
11
1.02801
21
1.43727
0
LINE
8
BLACK
6
CONTINUOUS
10
1.12801
20
1.43727
11
1.13057
21
1.43557
0
LINE
8
BLACK
6
CONTINUOUS
10
1.13057
20
1.43557
11
1.13227
21
1.43301
0
LINE
8
BLACK
6
CONTINUOUS
10
1.13227
20
1.43301
11
1.13287
21
1.43
0
LINE
8
BLACK
6
CONTINUOUS
10
1.13287
20
1.43
11
1.13287
21
1.37
0
LINE
8
BLACK
6
CONTINUOUS
10
1.13287
20
1.37
11
1.13227
21
1.36699
0
LINE
8
BLACK
6
CONTINUOUS
10
1.13227
20
1.36699
11
1.13057
21
1.36443
0
LINE
8
BLACK
6
CONTINUOUS
10
1.13057
20
1.36443
11
1.12801
21
1.36273
0
LINE
8
BLACK
6
CONTINUOUS
10
1.12801
20
1.36273
11
1.125
21
1.36213
0
LINE
8
BLACK
6
CONTINUOUS
10
1.125
20
1.36213
11
1.065
21
1.36213
0
LINE
8
BLACK
6
CONTINUOUS
10
1.065
20
1.36213
11
1.06199
21
1.36273
0
LINE
8
BLACK
6
CONTINUOUS
10
1.06199
20
1.36273
11
1.05943
21
1.36443
0
LINE
8
BLACK
6
CONTINUOUS
10
1.05943
20
1.36443
11
1.05773
21
1.36699
0
LINE
8
BLACK
6
CONTINUOUS
10
1.05773
20
1.36699
11
1.05713
21
1.37
0
LINE
8
BLACK
6
CONTINUOUS
10
1.05713
20
1.37
11
1.05713
21
1.43
0
LINE
8
BLACK
6
CONTINUOUS
10
1.05713
20
1.43
11
1.05773
21
1.43301
0
LINE
8
BLACK
6
CONTINUOUS
10
1.05773
20
1.43301
11
1.05943
21
1.43557
0
LINE
8
BLACK
6
CONTINUOUS
10
1.05943
20
1.43557
11
1.06199
21
1.43727
0
LINE
8
BLACK
6
CONTINUOUS
10
1.06199
20
1.43727
11
1.065
21
1.43787
0
LINE
8
BLACK
6
CONTINUOUS
10
1.065
20
1.43787
11
1.125
21
1.43787
0
LINE
8
BLACK
6
CONTINUOUS
10
1.125
20
1.43787
11
1.12801
21
1.43727
0
LINE
8
BLACK
6
CONTINUOUS
10
0.895513
20
1.42477
11
0.898068
21
1.42307
0
LINE
8
BLACK
6
CONTINUOUS
10
0.898068
20
1.42307
11
0.899775
21
1.42051
0
LINE
8
BLACK
6
CONTINUOUS
10
0.899775
20
1.42051
11
0.900374
21
1.4175
0
LINE
8
BLACK
6
CONTINUOUS
10
0.900374
20
1.4175
11
0.900374
21
1.3825
0
LINE
8
BLACK
6
CONTINUOUS
10
0.900374
20
1.3825
11
0.899775
21
1.37949
0
LINE
8
BLACK
6
CONTINUOUS
10
0.899775
20
1.37949
11
0.898068
21
1.37693
0
LINE
8
BLACK
6
CONTINUOUS
10
0.898068
20
1.37693
11
0.895513
21
1.37523
0
LINE
8
BLACK
6
CONTINUOUS
10
0.895513
20
1.37523
11
0.8925
21
1.37463
0
LINE
8
BLACK
6
CONTINUOUS
10
0.8925
20
1.37463
11
0.8375
21
1.37463
0
LINE
8
BLACK
6
CONTINUOUS
10
0.8375
20
1.37463
11
0.834487
21
1.37523
0
LINE
8
BLACK
6
CONTINUOUS
10
0.834487
20
1.37523
11
0.831932
21
1.37693
0
LINE
8
BLACK
6
CONTINUOUS
10
0.831932
20
1.37693
11
0.830225
21
1.37949
0
LINE
8
BLACK
6
CONTINUOUS
10
0.830225
20
1.37949
11
0.829626
21
1.3825
0
LINE
8
BLACK
6
CONTINUOUS
10
0.829626
20
1.3825
11
0.829626
21
1.4175
0
LINE
8
BLACK
6
CONTINUOUS
10
0.829626
20
1.4175
11
0.830225
21
1.42051
0
LINE
8
BLACK
6
CONTINUOUS
10
0.830225
20
1.42051
11
0.831932
21
1.42307
0
LINE
8
BLACK
6
CONTINUOUS
10
0.831932
20
1.42307
11
0.834487
21
1.42477
0
LINE
8
BLACK
6
CONTINUOUS
10
0.834487
20
1.42477
11
0.8375
21
1.42537
0
LINE
8
BLACK
6
CONTINUOUS
10
0.8375
20
1.42537
11
0.8925
21
1.42537
0
LINE
8
BLACK
6
CONTINUOUS
10
0.8925
20
1.42537
11
0.895513
21
1.42477
0
LINE
8
BLACK
6
CONTINUOUS
10
1.02801
20
1.53727
11
1.03057
21
1.53557
0
LINE
8
BLACK
6
CONTINUOUS
10
1.03057
20
1.53557
11
1.03227
21
1.53301
0
LINE
8
BLACK
6
CONTINUOUS
10
1.03227
20
1.53301
11
1.03287
21
1.53
0
LINE
8
BLACK
6
CONTINUOUS
10
1.03287
20
1.53
11
1.03287
21
1.47
0
LINE
8
BLACK
6
CONTINUOUS
10
1.03287
20
1.47
11
1.03227
21
1.46699
0
LINE
8
BLACK
6
CONTINUOUS
10
1.03227
20
1.46699
11
1.03057
21
1.46443
0
LINE
8
BLACK
6
CONTINUOUS
10
1.03057
20
1.46443
11
1.02801
21
1.46273
0
LINE
8
BLACK
6
CONTINUOUS
10
1.02801
20
1.46273
11
1.025
21
1.46213
0
LINE
8
BLACK
6
CONTINUOUS
10
1.025
20
1.46213
11
0.965
21
1.46213
0
LINE
8
BLACK
6
CONTINUOUS
10
0.965
20
1.46213
11
0.961987
21
1.46273
0
LINE
8
BLACK
6
CONTINUOUS
10
0.961987
20
1.46273
11
0.959432
21
1.46443
0
LINE
8
BLACK
6
CONTINUOUS
10
0.959432
20
1.46443
11
0.957725
21
1.46699
0
LINE
8
BLACK
6
CONTINUOUS
10
0.957725
20
1.46699
11
0.957126
21
1.47
0
LINE
8
BLACK
6
CONTINUOUS
10
0.957126
20
1.47
11
0.957126
21
1.53
0
LINE
8
BLACK
6
CONTINUOUS
10
0.957126
20
1.53
11
0.957725
21
1.53301
0
LINE
8
BLACK
6
CONTINUOUS
10
0.957725
20
1.53301
11
0.959432
21
1.53557
0
LINE
8
BLACK
6
CONTINUOUS
10
0.959432
20
1.53557
11
0.961987
21
1.53727
0
LINE
8
BLACK
6
CONTINUOUS
10
0.961987
20
1.53727
11
0.965
21
1.53787
0
LINE
8
BLACK
6
CONTINUOUS
10
0.965
20
1.53787
11
1.025
21
1.53787
0
LINE
8
BLACK
6
CONTINUOUS
10
1.025
20
1.53787
11
1.02801
21
1.53727
0
LINE
8
BLACK
6
CONTINUOUS
10
1.12801
20
1.53727
11
1.13057
21
1.53557
0
LINE
8
BLACK
6
CONTINUOUS
10
1.13057
20
1.53557
11
1.13227
21
1.53301
0
LINE
8
BLACK
6
CONTINUOUS
10
1.13227
20
1.53301
11
1.13287
21
1.53
0
LINE
8
BLACK
6
CONTINUOUS
10
1.13287
20
1.53
11
1.13287
21
1.47
0
LINE
8
BLACK
6
CONTINUOUS
10
1.13287
20
1.47
11
1.13227
21
1.46699
0
LINE
8
BLACK
6
CONTINUOUS
10
1.13227
20
1.46699
11
1.13057
21
1.46443
0
LINE
8
BLACK
6
CONTINUOUS
10
1.13057
20
1.46443
11
1.12801
21
1.46273
0
LINE
8
BLACK
6
CONTINUOUS
10
1.12801
20
1.46273
11
1.125
21
1.46213
0
LINE
8
BLACK
6
CONTINUOUS
10
1.125
20
1.46213
11
1.065
21
1.46213
0
LINE
8
BLACK
6
CONTINUOUS
10
1.065
20
1.46213
11
1.06199
21
1.46273
0
LINE
8
BLACK
6
CONTINUOUS
10
1.06199
20
1.46273
11
1.05943
21
1.46443
0
LINE
8
BLACK
6
CONTINUOUS
10
1.05943
20
1.46443
11
1.05773
21
1.46699
0
LINE
8
BLACK
6
CONTINUOUS
10
1.05773
20
1.46699
11
1.05713
21
1.47
0
LINE
8
BLACK
6
CONTINUOUS
10
1.05713
20
1.47
11
1.05713
21
1.53
0
LINE
8
BLACK
6
CONTINUOUS
10
1.05713
20
1.53
11
1.05773
21
1.53301
0
LINE
8
BLACK
6
CONTINUOUS
10
1.05773
20
1.53301
11
1.05943
21
1.53557
0
LINE
8
BLACK
6
CONTINUOUS
10
1.05943
20
1.53557
11
1.06199
21
1.53727
0
LINE
8
BLACK
6
CONTINUOUS
10
1.06199
20
1.53727
11
1.065
21
1.53787
0
LINE
8
BLACK
6
CONTINUOUS
10
1.065
20
1.53787
11
1.125
21
1.53787
0
LINE
8
BLACK
6
CONTINUOUS
10
1.125
20
1.53787
11
1.12801
21
1.53727
  0
ENDSEC
  0
EOF
