  0
SECTION
  2
HEADER
  9
$ANGBASE
  50
0.0
  9
$ANGDIR
  70
1
  9
$MEASUREMENT
  70
0
  0
ENDSEC
  0
SECTION
  2
TABLES
  0
TABLE
  2
LTYPE
  70
4
  0
LTYPE
  5
40F
  2
CONTINUOUS
  70
0
  3
Solid line
  72
65
  73
0
  40
0.0
  0
LTYPE
  5
410
  2
DASHDOT
 70
0
  3
Dash Dot ____ _ ____ _
 72
65
 73
4
 40
2.0
 49
1.25
 49
-0.25
 49
0.25
 49
-0.25
  0
LTYPE
  5
411
  2
DASHED
 70
0
  3
Dashed __ __ __ __ __
 72
65
 73
2
 40
0.75
 49
0.5
 49
-0.25
  0
LTYPE
  5
43B
  2
DOTTED
 70
0
  3
Dotted .  .  .  .
 72
65
 73
2
 40
0.2
 49
0.0
 49
-0.2
  0
ENDTAB
  0
TABLE
  2
STYLE
  70
4
  0
STYLE
  2
KICAD
  70
0
  40
0
  41
1
  42
1
  50
0
  71
0
  3
isocp.shx
  0
STYLE
  2
KICADB
  70
0
  40
0
  41
1
  42
1
  50
0
  71
0
  3
isocp.shx
  0
STYLE
  2
KICADI
  70
0
  40
0
  41
1
  42
1
  50
15
  71
0
  3
isocp.shx
  0
STYLE
  2
KICADBI
  70
0
  40
0
  41
1
  42
1
  50
15
  71
0
  3
isocp.shx
  0
ENDTAB
  0
TABLE
  2
LAYER
  70
1
  0
LAYER
  2
BLACK
  70
0
  62
7
  6
CONTINUOUS
  0
ENDTAB
  0
ENDSEC
  0
SECTION
  2
ENTITIES
0
LINE
8
BLACK
6
CONTINUOUS
10
1.18038
20
1.58289
11
1.18051
21
1.58291
0
LINE
8
BLACK
6
CONTINUOUS
10
1.18051
20
1.58291
11
1.18063
21
1.58284
0
LINE
8
BLACK
6
CONTINUOUS
10
1.18063
20
1.58284
11
1.18101
21
1.58277
0
LINE
8
BLACK
6
CONTINUOUS
10
1.18101
20
1.58277
11
1.1816
21
1.58228
0
LINE
8
BLACK
6
CONTINUOUS
10
1.1816
20
1.58228
11
1.18226
21
1.5819
0
LINE
8
BLACK
6
CONTINUOUS
10
1.18226
20
1.5819
11
1.18235
21
1.58165
0
LINE
8
BLACK
6
CONTINUOUS
10
1.18235
20
1.58165
11
1.18256
21
1.58148
0
LINE
8
BLACK
6
CONTINUOUS
10
1.18256
20
1.58148
11
1.18269
21
1.58072
0
LINE
8
BLACK
6
CONTINUOUS
10
1.18269
20
1.58072
11
1.18295
21
1.58
0
LINE
8
BLACK
6
CONTINUOUS
10
1.18295
20
1.58
11
1.18295
21
0.02
0
LINE
8
BLACK
6
CONTINUOUS
10
1.18295
20
0.02
11
1.18289
21
0.0196165
0
LINE
8
BLACK
6
CONTINUOUS
10
1.18289
20
0.0196165
11
1.18291
21
0.0194872
0
LINE
8
BLACK
6
CONTINUOUS
10
1.18291
20
0.0194872
11
1.18284
21
0.0193736
0
LINE
8
BLACK
6
CONTINUOUS
10
1.18284
20
0.0193736
11
1.18277
21
0.0189901
0
LINE
8
BLACK
6
CONTINUOUS
10
1.18277
20
0.0189901
11
1.18228
21
0.0184024
0
LINE
8
BLACK
6
CONTINUOUS
10
1.18228
20
0.0184024
11
1.1819
21
0.0177381
0
LINE
8
BLACK
6
CONTINUOUS
10
1.1819
20
0.0177381
11
1.18165
21
0.0176469
0
LINE
8
BLACK
6
CONTINUOUS
10
1.18165
20
0.0176469
11
1.18148
21
0.0174428
0
LINE
8
BLACK
6
CONTINUOUS
10
1.18148
20
0.0174428
11
1.18072
21
0.0173096
0
LINE
8
BLACK
6
CONTINUOUS
10
1.18072
20
0.0173096
11
1.18
21
0.0170472
0
LINE
8
BLACK
6
CONTINUOUS
10
1.18
20
0.0170472
11
0.96
21
0.0170472
0
LINE
8
BLACK
6
CONTINUOUS
10
0.96
20
0.0170472
11
0.959616
21
0.0171148
0
LINE
8
BLACK
6
CONTINUOUS
10
0.959616
20
0.0171148
11
0.959487
21
0.0170921
0
LINE
8
BLACK
6
CONTINUOUS
10
0.959487
20
0.0170921
11
0.959374
21
0.0171577
0
LINE
8
BLACK
6
CONTINUOUS
10
0.959374
20
0.0171577
11
0.95899
21
0.0172253
0
LINE
8
BLACK
6
CONTINUOUS
10
0.95899
20
0.0172253
11
0.958402
21
0.0177184
0
LINE
8
BLACK
6
CONTINUOUS
10
0.958402
20
0.0177184
11
0.957738
21
0.018102
0
LINE
8
BLACK
6
CONTINUOUS
10
0.957738
20
0.018102
11
0.957647
21
0.0183523
0
LINE
8
BLACK
6
CONTINUOUS
10
0.957647
20
0.0183523
11
0.957443
21
0.0185236
0
LINE
8
BLACK
6
CONTINUOUS
10
0.957443
20
0.0185236
11
0.95731
21
0.0192792
0
LINE
8
BLACK
6
CONTINUOUS
10
0.95731
20
0.0192792
11
0.957047
21
0.02
0
LINE
8
BLACK
6
CONTINUOUS
10
0.957047
20
0.02
11
0.957047
21
1.58
0
LINE
8
BLACK
6
CONTINUOUS
10
0.957047
20
1.58
11
0.957115
21
1.58038
0
LINE
8
BLACK
6
CONTINUOUS
10
0.957115
20
1.58038
11
0.957092
21
1.58051
0
LINE
8
BLACK
6
CONTINUOUS
10
0.957092
20
1.58051
11
0.957158
21
1.58063
0
LINE
8
BLACK
6
CONTINUOUS
10
0.957158
20
1.58063
11
0.957225
21
1.58101
0
LINE
8
BLACK
6
CONTINUOUS
10
0.957225
20
1.58101
11
0.957718
21
1.5816
0
LINE
8
BLACK
6
CONTINUOUS
10
0.957718
20
1.5816
11
0.958102
21
1.58226
0
LINE
8
BLACK
6
CONTINUOUS
10
0.958102
20
1.58226
11
0.958352
21
1.58235
0
LINE
8
BLACK
6
CONTINUOUS
10
0.958352
20
1.58235
11
0.958524
21
1.58256
0
LINE
8
BLACK
6
CONTINUOUS
10
0.958524
20
1.58256
11
0.959279
21
1.58269
0
LINE
8
BLACK
6
CONTINUOUS
10
0.959279
20
1.58269
11
0.96
21
1.58295
0
LINE
8
BLACK
6
CONTINUOUS
10
0.96
20
1.58295
11
1.18
21
1.58295
0
LINE
8
BLACK
6
CONTINUOUS
10
1.18
20
1.58295
11
1.18038
21
1.58289
0
LINE
8
BLACK
6
CONTINUOUS
10
0.219106
20
0.325192
11
0.233034
21
0.322826
0
LINE
8
BLACK
6
CONTINUOUS
10
0.233034
20
0.322826
11
0.24661
21
0.318914
0
LINE
8
BLACK
6
CONTINUOUS
10
0.24661
20
0.318914
11
0.259663
21
0.313508
0
LINE
8
BLACK
6
CONTINUOUS
10
0.259663
20
0.313508
11
0.272028
21
0.306674
0
LINE
8
BLACK
6
CONTINUOUS
10
0.272028
20
0.306674
11
0.28355
21
0.298498
0
LINE
8
BLACK
6
CONTINUOUS
10
0.28355
20
0.298498
11
0.294084
21
0.289084
0
LINE
8
BLACK
6
CONTINUOUS
10
0.294084
20
0.289084
11
0.303498
21
0.27855
0
LINE
8
BLACK
6
CONTINUOUS
10
0.303498
20
0.27855
11
0.311674
21
0.267028
0
LINE
8
BLACK
6
CONTINUOUS
10
0.311674
20
0.267028
11
0.318508
21
0.254663
0
LINE
8
BLACK
6
CONTINUOUS
10
0.318508
20
0.254663
11
0.323914
21
0.24161
0
LINE
8
BLACK
6
CONTINUOUS
10
0.323914
20
0.24161
11
0.327826
21
0.228034
0
LINE
8
BLACK
6
CONTINUOUS
10
0.327826
20
0.228034
11
0.330192
21
0.214106
0
LINE
8
BLACK
6
CONTINUOUS
10
0.330192
20
0.214106
11
0.330984
21
0.2
0
LINE
8
BLACK
6
CONTINUOUS
10
0.330984
20
0.2
11
0.330192
21
0.185894
0
LINE
8
BLACK
6
CONTINUOUS
10
0.330192
20
0.185894
11
0.327826
21
0.171966
0
LINE
8
BLACK
6
CONTINUOUS
10
0.327826
20
0.171966
11
0.323914
21
0.15839
0
LINE
8
BLACK
6
CONTINUOUS
10
0.323914
20
0.15839
11
0.318508
21
0.145337
0
LINE
8
BLACK
6
CONTINUOUS
10
0.318508
20
0.145337
11
0.311674
21
0.132972
0
LINE
8
BLACK
6
CONTINUOUS
10
0.311674
20
0.132972
11
0.303498
21
0.12145
0
LINE
8
BLACK
6
CONTINUOUS
10
0.303498
20
0.12145
11
0.294084
21
0.110916
0
LINE
8
BLACK
6
CONTINUOUS
10
0.294084
20
0.110916
11
0.28355
21
0.101502
0
LINE
8
BLACK
6
CONTINUOUS
10
0.28355
20
0.101502
11
0.272028
21
0.0933261
0
LINE
8
BLACK
6
CONTINUOUS
10
0.272028
20
0.0933261
11
0.259663
21
0.0864921
0
LINE
8
BLACK
6
CONTINUOUS
10
0.259663
20
0.0864921
11
0.24661
21
0.0810856
0
LINE
8
BLACK
6
CONTINUOUS
10
0.24661
20
0.0810856
11
0.233034
21
0.0771744
0
LINE
8
BLACK
6
CONTINUOUS
10
0.233034
20
0.0771744
11
0.219106
21
0.0748079
0
LINE
8
BLACK
6
CONTINUOUS
10
0.219106
20
0.0748079
11
0.205
21
0.0740157
0
LINE
8
BLACK
6
CONTINUOUS
10
0.205
20
0.0740157
11
0.190894
21
0.0748079
0
LINE
8
BLACK
6
CONTINUOUS
10
0.190894
20
0.0748079
11
0.176966
21
0.0771744
0
LINE
8
BLACK
6
CONTINUOUS
10
0.176966
20
0.0771744
11
0.16339
21
0.0810856
0
LINE
8
BLACK
6
CONTINUOUS
10
0.16339
20
0.0810856
11
0.150337
21
0.0864921
0
LINE
8
BLACK
6
CONTINUOUS
10
0.150337
20
0.0864921
11
0.137972
21
0.0933261
0
LINE
8
BLACK
6
CONTINUOUS
10
0.137972
20
0.0933261
11
0.12645
21
0.101502
0
LINE
8
BLACK
6
CONTINUOUS
10
0.12645
20
0.101502
11
0.115916
21
0.110916
0
LINE
8
BLACK
6
CONTINUOUS
10
0.115916
20
0.110916
11
0.106502
21
0.12145
0
LINE
8
BLACK
6
CONTINUOUS
10
0.106502
20
0.12145
11
0.0983261
21
0.132972
0
LINE
8
BLACK
6
CONTINUOUS
10
0.0983261
20
0.132972
11
0.0914921
21
0.145337
0
LINE
8
BLACK
6
CONTINUOUS
10
0.0914921
20
0.145337
11
0.0860856
21
0.15839
0
LINE
8
BLACK
6
CONTINUOUS
10
0.0860856
20
0.15839
11
0.0821744
21
0.171966
0
LINE
8
BLACK
6
CONTINUOUS
10
0.0821744
20
0.171966
11
0.0798079
21
0.185894
0
LINE
8
BLACK
6
CONTINUOUS
10
0.0798079
20
0.185894
11
0.0790157
21
0.2
0
LINE
8
BLACK
6
CONTINUOUS
10
0.0790157
20
0.2
11
0.0798079
21
0.214106
0
LINE
8
BLACK
6
CONTINUOUS
10
0.0798079
20
0.214106
11
0.0821744
21
0.228034
0
LINE
8
BLACK
6
CONTINUOUS
10
0.0821744
20
0.228034
11
0.0860856
21
0.24161
0
LINE
8
BLACK
6
CONTINUOUS
10
0.0860856
20
0.24161
11
0.0914921
21
0.254663
0
LINE
8
BLACK
6
CONTINUOUS
10
0.0914921
20
0.254663
11
0.0983261
21
0.267028
0
LINE
8
BLACK
6
CONTINUOUS
10
0.0983261
20
0.267028
11
0.106502
21
0.27855
0
LINE
8
BLACK
6
CONTINUOUS
10
0.106502
20
0.27855
11
0.115916
21
0.289084
0
LINE
8
BLACK
6
CONTINUOUS
10
0.115916
20
0.289084
11
0.12645
21
0.298498
0
LINE
8
BLACK
6
CONTINUOUS
10
0.12645
20
0.298498
11
0.137972
21
0.306674
0
LINE
8
BLACK
6
CONTINUOUS
10
0.137972
20
0.306674
11
0.150337
21
0.313508
0
LINE
8
BLACK
6
CONTINUOUS
10
0.150337
20
0.313508
11
0.16339
21
0.318914
0
LINE
8
BLACK
6
CONTINUOUS
10
0.16339
20
0.318914
11
0.176966
21
0.322826
0
LINE
8
BLACK
6
CONTINUOUS
10
0.176966
20
0.322826
11
0.190894
21
0.325192
0
LINE
8
BLACK
6
CONTINUOUS
10
0.190894
20
0.325192
11
0.205
21
0.325984
0
LINE
8
BLACK
6
CONTINUOUS
10
0.205
20
0.325984
11
0.219106
21
0.325192
0
LINE
8
BLACK
6
CONTINUOUS
10
0.619106
20
0.325192
11
0.633034
21
0.322826
0
LINE
8
BLACK
6
CONTINUOUS
10
0.633034
20
0.322826
11
0.64661
21
0.318914
0
LINE
8
BLACK
6
CONTINUOUS
10
0.64661
20
0.318914
11
0.659663
21
0.313508
0
LINE
8
BLACK
6
CONTINUOUS
10
0.659663
20
0.313508
11
0.672028
21
0.306674
0
LINE
8
BLACK
6
CONTINUOUS
10
0.672028
20
0.306674
11
0.68355
21
0.298498
0
LINE
8
BLACK
6
CONTINUOUS
10
0.68355
20
0.298498
11
0.694084
21
0.289084
0
LINE
8
BLACK
6
CONTINUOUS
10
0.694084
20
0.289084
11
0.703498
21
0.27855
0
LINE
8
BLACK
6
CONTINUOUS
10
0.703498
20
0.27855
11
0.711674
21
0.267028
0
LINE
8
BLACK
6
CONTINUOUS
10
0.711674
20
0.267028
11
0.718508
21
0.254663
0
LINE
8
BLACK
6
CONTINUOUS
10
0.718508
20
0.254663
11
0.723914
21
0.24161
0
LINE
8
BLACK
6
CONTINUOUS
10
0.723914
20
0.24161
11
0.727826
21
0.228034
0
LINE
8
BLACK
6
CONTINUOUS
10
0.727826
20
0.228034
11
0.730192
21
0.214106
0
LINE
8
BLACK
6
CONTINUOUS
10
0.730192
20
0.214106
11
0.730984
21
0.2
0
LINE
8
BLACK
6
CONTINUOUS
10
0.730984
20
0.2
11
0.730192
21
0.185894
0
LINE
8
BLACK
6
CONTINUOUS
10
0.730192
20
0.185894
11
0.727826
21
0.171966
0
LINE
8
BLACK
6
CONTINUOUS
10
0.727826
20
0.171966
11
0.723914
21
0.15839
0
LINE
8
BLACK
6
CONTINUOUS
10
0.723914
20
0.15839
11
0.718508
21
0.145337
0
LINE
8
BLACK
6
CONTINUOUS
10
0.718508
20
0.145337
11
0.711674
21
0.132972
0
LINE
8
BLACK
6
CONTINUOUS
10
0.711674
20
0.132972
11
0.703498
21
0.12145
0
LINE
8
BLACK
6
CONTINUOUS
10
0.703498
20
0.12145
11
0.694084
21
0.110916
0
LINE
8
BLACK
6
CONTINUOUS
10
0.694084
20
0.110916
11
0.68355
21
0.101502
0
LINE
8
BLACK
6
CONTINUOUS
10
0.68355
20
0.101502
11
0.672028
21
0.0933261
0
LINE
8
BLACK
6
CONTINUOUS
10
0.672028
20
0.0933261
11
0.659663
21
0.0864921
0
LINE
8
BLACK
6
CONTINUOUS
10
0.659663
20
0.0864921
11
0.64661
21
0.0810856
0
LINE
8
BLACK
6
CONTINUOUS
10
0.64661
20
0.0810856
11
0.633034
21
0.0771744
0
LINE
8
BLACK
6
CONTINUOUS
10
0.633034
20
0.0771744
11
0.619106
21
0.0748079
0
LINE
8
BLACK
6
CONTINUOUS
10
0.619106
20
0.0748079
11
0.605
21
0.0740157
0
LINE
8
BLACK
6
CONTINUOUS
10
0.605
20
0.0740157
11
0.590894
21
0.0748079
0
LINE
8
BLACK
6
CONTINUOUS
10
0.590894
20
0.0748079
11
0.576966
21
0.0771744
0
LINE
8
BLACK
6
CONTINUOUS
10
0.576966
20
0.0771744
11
0.56339
21
0.0810856
0
LINE
8
BLACK
6
CONTINUOUS
10
0.56339
20
0.0810856
11
0.550337
21
0.0864921
0
LINE
8
BLACK
6
CONTINUOUS
10
0.550337
20
0.0864921
11
0.537972
21
0.0933261
0
LINE
8
BLACK
6
CONTINUOUS
10
0.537972
20
0.0933261
11
0.52645
21
0.101502
0
LINE
8
BLACK
6
CONTINUOUS
10
0.52645
20
0.101502
11
0.515916
21
0.110916
0
LINE
8
BLACK
6
CONTINUOUS
10
0.515916
20
0.110916
11
0.506502
21
0.12145
0
LINE
8
BLACK
6
CONTINUOUS
10
0.506502
20
0.12145
11
0.498326
21
0.132972
0
LINE
8
BLACK
6
CONTINUOUS
10
0.498326
20
0.132972
11
0.491492
21
0.145337
0
LINE
8
BLACK
6
CONTINUOUS
10
0.491492
20
0.145337
11
0.486086
21
0.15839
0
LINE
8
BLACK
6
CONTINUOUS
10
0.486086
20
0.15839
11
0.482174
21
0.171966
0
LINE
8
BLACK
6
CONTINUOUS
10
0.482174
20
0.171966
11
0.479808
21
0.185894
0
LINE
8
BLACK
6
CONTINUOUS
10
0.479808
20
0.185894
11
0.479016
21
0.2
0
LINE
8
BLACK
6
CONTINUOUS
10
0.479016
20
0.2
11
0.479808
21
0.214106
0
LINE
8
BLACK
6
CONTINUOUS
10
0.479808
20
0.214106
11
0.482174
21
0.228034
0
LINE
8
BLACK
6
CONTINUOUS
10
0.482174
20
0.228034
11
0.486086
21
0.24161
0
LINE
8
BLACK
6
CONTINUOUS
10
0.486086
20
0.24161
11
0.491492
21
0.254663
0
LINE
8
BLACK
6
CONTINUOUS
10
0.491492
20
0.254663
11
0.498326
21
0.267028
0
LINE
8
BLACK
6
CONTINUOUS
10
0.498326
20
0.267028
11
0.506502
21
0.27855
0
LINE
8
BLACK
6
CONTINUOUS
10
0.506502
20
0.27855
11
0.515916
21
0.289084
0
LINE
8
BLACK
6
CONTINUOUS
10
0.515916
20
0.289084
11
0.52645
21
0.298498
0
LINE
8
BLACK
6
CONTINUOUS
10
0.52645
20
0.298498
11
0.537972
21
0.306674
0
LINE
8
BLACK
6
CONTINUOUS
10
0.537972
20
0.306674
11
0.550337
21
0.313508
0
LINE
8
BLACK
6
CONTINUOUS
10
0.550337
20
0.313508
11
0.56339
21
0.318914
0
LINE
8
BLACK
6
CONTINUOUS
10
0.56339
20
0.318914
11
0.576966
21
0.322826
0
LINE
8
BLACK
6
CONTINUOUS
10
0.576966
20
0.322826
11
0.590894
21
0.325192
0
LINE
8
BLACK
6
CONTINUOUS
10
0.590894
20
0.325192
11
0.605
21
0.325984
0
LINE
8
BLACK
6
CONTINUOUS
10
0.605
20
0.325984
11
0.619106
21
0.325192
0
LINE
8
BLACK
6
CONTINUOUS
10
0.341084
20
0.740346
11
0.343639
21
0.738639
0
LINE
8
BLACK
6
CONTINUOUS
10
0.343639
20
0.738639
11
0.345346
21
0.736084
0
LINE
8
BLACK
6
CONTINUOUS
10
0.345346
20
0.736084
11
0.345945
21
0.733071
0
LINE
8
BLACK
6
CONTINUOUS
10
0.345945
20
0.733071
11
0.345945
21
0.595276
0
LINE
8
BLACK
6
CONTINUOUS
10
0.345945
20
0.595276
11
0.345346
21
0.592262
0
LINE
8
BLACK
6
CONTINUOUS
10
0.345346
20
0.592262
11
0.343639
21
0.589708
0
LINE
8
BLACK
6
CONTINUOUS
10
0.343639
20
0.589708
11
0.341084
21
0.588001
0
LINE
8
BLACK
6
CONTINUOUS
10
0.341084
20
0.588001
11
0.338071
21
0.587402
0
LINE
8
BLACK
6
CONTINUOUS
10
0.338071
20
0.587402
11
0.200276
21
0.587402
0
LINE
8
BLACK
6
CONTINUOUS
10
0.200276
20
0.587402
11
0.197262
21
0.588001
0
LINE
8
BLACK
6
CONTINUOUS
10
0.197262
20
0.588001
11
0.194708
21
0.589708
0
LINE
8
BLACK
6
CONTINUOUS
10
0.194708
20
0.589708
11
0.193001
21
0.592262
0
LINE
8
BLACK
6
CONTINUOUS
10
0.193001
20
0.592262
11
0.192402
21
0.595276
0
LINE
8
BLACK
6
CONTINUOUS
10
0.192402
20
0.595276
11
0.192402
21
0.733071
0
LINE
8
BLACK
6
CONTINUOUS
10
0.192402
20
0.733071
11
0.193001
21
0.736084
0
LINE
8
BLACK
6
CONTINUOUS
10
0.193001
20
0.736084
11
0.194708
21
0.738639
0
LINE
8
BLACK
6
CONTINUOUS
10
0.194708
20
0.738639
11
0.197262
21
0.740346
0
LINE
8
BLACK
6
CONTINUOUS
10
0.197262
20
0.740346
11
0.200276
21
0.740945
0
LINE
8
BLACK
6
CONTINUOUS
10
0.200276
20
0.740945
11
0.338071
21
0.740945
0
LINE
8
BLACK
6
CONTINUOUS
10
0.338071
20
0.740945
11
0.341084
21
0.740346
0
LINE
8
BLACK
6
CONTINUOUS
10
0.612738
20
0.740346
11
0.615292
21
0.738639
0
LINE
8
BLACK
6
CONTINUOUS
10
0.615292
20
0.738639
11
0.616999
21
0.736084
0
LINE
8
BLACK
6
CONTINUOUS
10
0.616999
20
0.736084
11
0.617598
21
0.733071
0
LINE
8
BLACK
6
CONTINUOUS
10
0.617598
20
0.733071
11
0.617598
21
0.595276
0
LINE
8
BLACK
6
CONTINUOUS
10
0.617598
20
0.595276
11
0.616999
21
0.592262
0
LINE
8
BLACK
6
CONTINUOUS
10
0.616999
20
0.592262
11
0.615292
21
0.589708
0
LINE
8
BLACK
6
CONTINUOUS
10
0.615292
20
0.589708
11
0.612738
21
0.588001
0
LINE
8
BLACK
6
CONTINUOUS
10
0.612738
20
0.588001
11
0.609724
21
0.587402
0
LINE
8
BLACK
6
CONTINUOUS
10
0.609724
20
0.587402
11
0.471929
21
0.587402
0
LINE
8
BLACK
6
CONTINUOUS
10
0.471929
20
0.587402
11
0.468916
21
0.588001
0
LINE
8
BLACK
6
CONTINUOUS
10
0.468916
20
0.588001
11
0.466361
21
0.589708
0
LINE
8
BLACK
6
CONTINUOUS
10
0.466361
20
0.589708
11
0.464654
21
0.592262
0
LINE
8
BLACK
6
CONTINUOUS
10
0.464654
20
0.592262
11
0.464055
21
0.595276
0
LINE
8
BLACK
6
CONTINUOUS
10
0.464055
20
0.595276
11
0.464055
21
0.733071
0
LINE
8
BLACK
6
CONTINUOUS
10
0.464055
20
0.733071
11
0.464654
21
0.736084
0
LINE
8
BLACK
6
CONTINUOUS
10
0.464654
20
0.736084
11
0.466361
21
0.738639
0
LINE
8
BLACK
6
CONTINUOUS
10
0.466361
20
0.738639
11
0.468916
21
0.740346
0
LINE
8
BLACK
6
CONTINUOUS
10
0.468916
20
0.740346
11
0.471929
21
0.740945
0
LINE
8
BLACK
6
CONTINUOUS
10
0.471929
20
0.740945
11
0.609724
21
0.740945
0
LINE
8
BLACK
6
CONTINUOUS
10
0.609724
20
0.740945
11
0.612738
21
0.740346
0
LINE
8
BLACK
6
CONTINUOUS
10
0.341084
20
1.012
11
0.343639
21
1.01029
0
LINE
8
BLACK
6
CONTINUOUS
10
0.343639
20
1.01029
11
0.345346
21
1.00774
0
LINE
8
BLACK
6
CONTINUOUS
10
0.345346
20
1.00774
11
0.345945
21
1.00472
0
LINE
8
BLACK
6
CONTINUOUS
10
0.345945
20
1.00472
11
0.345945
21
0.866929
0
LINE
8
BLACK
6
CONTINUOUS
10
0.345945
20
0.866929
11
0.345346
21
0.863916
0
LINE
8
BLACK
6
CONTINUOUS
10
0.345346
20
0.863916
11
0.343639
21
0.861361
0
LINE
8
BLACK
6
CONTINUOUS
10
0.343639
20
0.861361
11
0.341084
21
0.859654
0
LINE
8
BLACK
6
CONTINUOUS
10
0.341084
20
0.859654
11
0.338071
21
0.859055
0
LINE
8
BLACK
6
CONTINUOUS
10
0.338071
20
0.859055
11
0.200276
21
0.859055
0
LINE
8
BLACK
6
CONTINUOUS
10
0.200276
20
0.859055
11
0.197262
21
0.859654
0
LINE
8
BLACK
6
CONTINUOUS
10
0.197262
20
0.859654
11
0.194708
21
0.861361
0
LINE
8
BLACK
6
CONTINUOUS
10
0.194708
20
0.861361
11
0.193001
21
0.863916
0
LINE
8
BLACK
6
CONTINUOUS
10
0.193001
20
0.863916
11
0.192402
21
0.866929
0
LINE
8
BLACK
6
CONTINUOUS
10
0.192402
20
0.866929
11
0.192402
21
1.00472
0
LINE
8
BLACK
6
CONTINUOUS
10
0.192402
20
1.00472
11
0.193001
21
1.00774
0
LINE
8
BLACK
6
CONTINUOUS
10
0.193001
20
1.00774
11
0.194708
21
1.01029
0
LINE
8
BLACK
6
CONTINUOUS
10
0.194708
20
1.01029
11
0.197262
21
1.012
0
LINE
8
BLACK
6
CONTINUOUS
10
0.197262
20
1.012
11
0.200276
21
1.0126
0
LINE
8
BLACK
6
CONTINUOUS
10
0.200276
20
1.0126
11
0.338071
21
1.0126
0
LINE
8
BLACK
6
CONTINUOUS
10
0.338071
20
1.0126
11
0.341084
21
1.012
0
LINE
8
BLACK
6
CONTINUOUS
10
0.612738
20
1.012
11
0.615292
21
1.01029
0
LINE
8
BLACK
6
CONTINUOUS
10
0.615292
20
1.01029
11
0.616999
21
1.00774
0
LINE
8
BLACK
6
CONTINUOUS
10
0.616999
20
1.00774
11
0.617598
21
1.00472
0
LINE
8
BLACK
6
CONTINUOUS
10
0.617598
20
1.00472
11
0.617598
21
0.866929
0
LINE
8
BLACK
6
CONTINUOUS
10
0.617598
20
0.866929
11
0.616999
21
0.863916
0
LINE
8
BLACK
6
CONTINUOUS
10
0.616999
20
0.863916
11
0.615292
21
0.861361
0
LINE
8
BLACK
6
CONTINUOUS
10
0.615292
20
0.861361
11
0.612738
21
0.859654
0
LINE
8
BLACK
6
CONTINUOUS
10
0.612738
20
0.859654
11
0.609724
21
0.859055
0
LINE
8
BLACK
6
CONTINUOUS
10
0.609724
20
0.859055
11
0.471929
21
0.859055
0
LINE
8
BLACK
6
CONTINUOUS
10
0.471929
20
0.859055
11
0.468916
21
0.859654
0
LINE
8
BLACK
6
CONTINUOUS
10
0.468916
20
0.859654
11
0.466361
21
0.861361
0
LINE
8
BLACK
6
CONTINUOUS
10
0.466361
20
0.861361
11
0.464654
21
0.863916
0
LINE
8
BLACK
6
CONTINUOUS
10
0.464654
20
0.863916
11
0.464055
21
0.866929
0
LINE
8
BLACK
6
CONTINUOUS
10
0.464055
20
0.866929
11
0.464055
21
1.00472
0
LINE
8
BLACK
6
CONTINUOUS
10
0.464055
20
1.00472
11
0.464654
21
1.00774
0
LINE
8
BLACK
6
CONTINUOUS
10
0.464654
20
1.00774
11
0.466361
21
1.01029
0
LINE
8
BLACK
6
CONTINUOUS
10
0.466361
20
1.01029
11
0.468916
21
1.012
0
LINE
8
BLACK
6
CONTINUOUS
10
0.468916
20
1.012
11
0.471929
21
1.0126
0
LINE
8
BLACK
6
CONTINUOUS
10
0.471929
20
1.0126
11
0.609724
21
1.0126
0
LINE
8
BLACK
6
CONTINUOUS
10
0.609724
20
1.0126
11
0.612738
21
1.012
0
LINE
8
BLACK
6
CONTINUOUS
10
0.219106
20
1.52519
11
0.233034
21
1.52283
0
LINE
8
BLACK
6
CONTINUOUS
10
0.233034
20
1.52283
11
0.24661
21
1.51891
0
LINE
8
BLACK
6
CONTINUOUS
10
0.24661
20
1.51891
11
0.259663
21
1.51351
0
LINE
8
BLACK
6
CONTINUOUS
10
0.259663
20
1.51351
11
0.272028
21
1.50667
0
LINE
8
BLACK
6
CONTINUOUS
10
0.272028
20
1.50667
11
0.28355
21
1.4985
0
LINE
8
BLACK
6
CONTINUOUS
10
0.28355
20
1.4985
11
0.294084
21
1.48908
0
LINE
8
BLACK
6
CONTINUOUS
10
0.294084
20
1.48908
11
0.303498
21
1.47855
0
LINE
8
BLACK
6
CONTINUOUS
10
0.303498
20
1.47855
11
0.311674
21
1.46703
0
LINE
8
BLACK
6
CONTINUOUS
10
0.311674
20
1.46703
11
0.318508
21
1.45466
0
LINE
8
BLACK
6
CONTINUOUS
10
0.318508
20
1.45466
11
0.323914
21
1.44161
0
LINE
8
BLACK
6
CONTINUOUS
10
0.323914
20
1.44161
11
0.327826
21
1.42803
0
LINE
8
BLACK
6
CONTINUOUS
10
0.327826
20
1.42803
11
0.330192
21
1.41411
0
LINE
8
BLACK
6
CONTINUOUS
10
0.330192
20
1.41411
11
0.330984
21
1.4
0
LINE
8
BLACK
6
CONTINUOUS
10
0.330984
20
1.4
11
0.330192
21
1.38589
0
LINE
8
BLACK
6
CONTINUOUS
10
0.330192
20
1.38589
11
0.327826
21
1.37197
0
LINE
8
BLACK
6
CONTINUOUS
10
0.327826
20
1.37197
11
0.323914
21
1.35839
0
LINE
8
BLACK
6
CONTINUOUS
10
0.323914
20
1.35839
11
0.318508
21
1.34534
0
LINE
8
BLACK
6
CONTINUOUS
10
0.318508
20
1.34534
11
0.311674
21
1.33297
0
LINE
8
BLACK
6
CONTINUOUS
10
0.311674
20
1.33297
11
0.303498
21
1.32145
0
LINE
8
BLACK
6
CONTINUOUS
10
0.303498
20
1.32145
11
0.294084
21
1.31092
0
LINE
8
BLACK
6
CONTINUOUS
10
0.294084
20
1.31092
11
0.28355
21
1.3015
0
LINE
8
BLACK
6
CONTINUOUS
10
0.28355
20
1.3015
11
0.272028
21
1.29333
0
LINE
8
BLACK
6
CONTINUOUS
10
0.272028
20
1.29333
11
0.259663
21
1.28649
0
LINE
8
BLACK
6
CONTINUOUS
10
0.259663
20
1.28649
11
0.24661
21
1.28109
0
LINE
8
BLACK
6
CONTINUOUS
10
0.24661
20
1.28109
11
0.233034
21
1.27717
0
LINE
8
BLACK
6
CONTINUOUS
10
0.233034
20
1.27717
11
0.219106
21
1.27481
0
LINE
8
BLACK
6
CONTINUOUS
10
0.219106
20
1.27481
11
0.205
21
1.27402
0
LINE
8
BLACK
6
CONTINUOUS
10
0.205
20
1.27402
11
0.190894
21
1.27481
0
LINE
8
BLACK
6
CONTINUOUS
10
0.190894
20
1.27481
11
0.176966
21
1.27717
0
LINE
8
BLACK
6
CONTINUOUS
10
0.176966
20
1.27717
11
0.16339
21
1.28109
0
LINE
8
BLACK
6
CONTINUOUS
10
0.16339
20
1.28109
11
0.150337
21
1.28649
0
LINE
8
BLACK
6
CONTINUOUS
10
0.150337
20
1.28649
11
0.137972
21
1.29333
0
LINE
8
BLACK
6
CONTINUOUS
10
0.137972
20
1.29333
11
0.12645
21
1.3015
0
LINE
8
BLACK
6
CONTINUOUS
10
0.12645
20
1.3015
11
0.115916
21
1.31092
0
LINE
8
BLACK
6
CONTINUOUS
10
0.115916
20
1.31092
11
0.106502
21
1.32145
0
LINE
8
BLACK
6
CONTINUOUS
10
0.106502
20
1.32145
11
0.0983261
21
1.33297
0
LINE
8
BLACK
6
CONTINUOUS
10
0.0983261
20
1.33297
11
0.0914921
21
1.34534
0
LINE
8
BLACK
6
CONTINUOUS
10
0.0914921
20
1.34534
11
0.0860856
21
1.35839
0
LINE
8
BLACK
6
CONTINUOUS
10
0.0860856
20
1.35839
11
0.0821744
21
1.37197
0
LINE
8
BLACK
6
CONTINUOUS
10
0.0821744
20
1.37197
11
0.0798079
21
1.38589
0
LINE
8
BLACK
6
CONTINUOUS
10
0.0798079
20
1.38589
11
0.0790157
21
1.4
0
LINE
8
BLACK
6
CONTINUOUS
10
0.0790157
20
1.4
11
0.0798079
21
1.41411
0
LINE
8
BLACK
6
CONTINUOUS
10
0.0798079
20
1.41411
11
0.0821744
21
1.42803
0
LINE
8
BLACK
6
CONTINUOUS
10
0.0821744
20
1.42803
11
0.0860856
21
1.44161
0
LINE
8
BLACK
6
CONTINUOUS
10
0.0860856
20
1.44161
11
0.0914921
21
1.45466
0
LINE
8
BLACK
6
CONTINUOUS
10
0.0914921
20
1.45466
11
0.0983261
21
1.46703
0
LINE
8
BLACK
6
CONTINUOUS
10
0.0983261
20
1.46703
11
0.106502
21
1.47855
0
LINE
8
BLACK
6
CONTINUOUS
10
0.106502
20
1.47855
11
0.115916
21
1.48908
0
LINE
8
BLACK
6
CONTINUOUS
10
0.115916
20
1.48908
11
0.12645
21
1.4985
0
LINE
8
BLACK
6
CONTINUOUS
10
0.12645
20
1.4985
11
0.137972
21
1.50667
0
LINE
8
BLACK
6
CONTINUOUS
10
0.137972
20
1.50667
11
0.150337
21
1.51351
0
LINE
8
BLACK
6
CONTINUOUS
10
0.150337
20
1.51351
11
0.16339
21
1.51891
0
LINE
8
BLACK
6
CONTINUOUS
10
0.16339
20
1.51891
11
0.176966
21
1.52283
0
LINE
8
BLACK
6
CONTINUOUS
10
0.176966
20
1.52283
11
0.190894
21
1.52519
0
LINE
8
BLACK
6
CONTINUOUS
10
0.190894
20
1.52519
11
0.205
21
1.52598
0
LINE
8
BLACK
6
CONTINUOUS
10
0.205
20
1.52598
11
0.219106
21
1.52519
0
LINE
8
BLACK
6
CONTINUOUS
10
0.619106
20
1.52519
11
0.633034
21
1.52283
0
LINE
8
BLACK
6
CONTINUOUS
10
0.633034
20
1.52283
11
0.64661
21
1.51891
0
LINE
8
BLACK
6
CONTINUOUS
10
0.64661
20
1.51891
11
0.659663
21
1.51351
0
LINE
8
BLACK
6
CONTINUOUS
10
0.659663
20
1.51351
11
0.672028
21
1.50667
0
LINE
8
BLACK
6
CONTINUOUS
10
0.672028
20
1.50667
11
0.68355
21
1.4985
0
LINE
8
BLACK
6
CONTINUOUS
10
0.68355
20
1.4985
11
0.694084
21
1.48908
0
LINE
8
BLACK
6
CONTINUOUS
10
0.694084
20
1.48908
11
0.703498
21
1.47855
0
LINE
8
BLACK
6
CONTINUOUS
10
0.703498
20
1.47855
11
0.711674
21
1.46703
0
LINE
8
BLACK
6
CONTINUOUS
10
0.711674
20
1.46703
11
0.718508
21
1.45466
0
LINE
8
BLACK
6
CONTINUOUS
10
0.718508
20
1.45466
11
0.723914
21
1.44161
0
LINE
8
BLACK
6
CONTINUOUS
10
0.723914
20
1.44161
11
0.727826
21
1.42803
0
LINE
8
BLACK
6
CONTINUOUS
10
0.727826
20
1.42803
11
0.730192
21
1.41411
0
LINE
8
BLACK
6
CONTINUOUS
10
0.730192
20
1.41411
11
0.730984
21
1.4
0
LINE
8
BLACK
6
CONTINUOUS
10
0.730984
20
1.4
11
0.730192
21
1.38589
0
LINE
8
BLACK
6
CONTINUOUS
10
0.730192
20
1.38589
11
0.727826
21
1.37197
0
LINE
8
BLACK
6
CONTINUOUS
10
0.727826
20
1.37197
11
0.723914
21
1.35839
0
LINE
8
BLACK
6
CONTINUOUS
10
0.723914
20
1.35839
11
0.718508
21
1.34534
0
LINE
8
BLACK
6
CONTINUOUS
10
0.718508
20
1.34534
11
0.711674
21
1.33297
0
LINE
8
BLACK
6
CONTINUOUS
10
0.711674
20
1.33297
11
0.703498
21
1.32145
0
LINE
8
BLACK
6
CONTINUOUS
10
0.703498
20
1.32145
11
0.694084
21
1.31092
0
LINE
8
BLACK
6
CONTINUOUS
10
0.694084
20
1.31092
11
0.68355
21
1.3015
0
LINE
8
BLACK
6
CONTINUOUS
10
0.68355
20
1.3015
11
0.672028
21
1.29333
0
LINE
8
BLACK
6
CONTINUOUS
10
0.672028
20
1.29333
11
0.659663
21
1.28649
0
LINE
8
BLACK
6
CONTINUOUS
10
0.659663
20
1.28649
11
0.64661
21
1.28109
0
LINE
8
BLACK
6
CONTINUOUS
10
0.64661
20
1.28109
11
0.633034
21
1.27717
0
LINE
8
BLACK
6
CONTINUOUS
10
0.633034
20
1.27717
11
0.619106
21
1.27481
0
LINE
8
BLACK
6
CONTINUOUS
10
0.619106
20
1.27481
11
0.605
21
1.27402
0
LINE
8
BLACK
6
CONTINUOUS
10
0.605
20
1.27402
11
0.590894
21
1.27481
0
LINE
8
BLACK
6
CONTINUOUS
10
0.590894
20
1.27481
11
0.576966
21
1.27717
0
LINE
8
BLACK
6
CONTINUOUS
10
0.576966
20
1.27717
11
0.56339
21
1.28109
0
LINE
8
BLACK
6
CONTINUOUS
10
0.56339
20
1.28109
11
0.550337
21
1.28649
0
LINE
8
BLACK
6
CONTINUOUS
10
0.550337
20
1.28649
11
0.537972
21
1.29333
0
LINE
8
BLACK
6
CONTINUOUS
10
0.537972
20
1.29333
11
0.52645
21
1.3015
0
LINE
8
BLACK
6
CONTINUOUS
10
0.52645
20
1.3015
11
0.515916
21
1.31092
0
LINE
8
BLACK
6
CONTINUOUS
10
0.515916
20
1.31092
11
0.506502
21
1.32145
0
LINE
8
BLACK
6
CONTINUOUS
10
0.506502
20
1.32145
11
0.498326
21
1.33297
0
LINE
8
BLACK
6
CONTINUOUS
10
0.498326
20
1.33297
11
0.491492
21
1.34534
0
LINE
8
BLACK
6
CONTINUOUS
10
0.491492
20
1.34534
11
0.486086
21
1.35839
0
LINE
8
BLACK
6
CONTINUOUS
10
0.486086
20
1.35839
11
0.482174
21
1.37197
0
LINE
8
BLACK
6
CONTINUOUS
10
0.482174
20
1.37197
11
0.479808
21
1.38589
0
LINE
8
BLACK
6
CONTINUOUS
10
0.479808
20
1.38589
11
0.479016
21
1.4
0
LINE
8
BLACK
6
CONTINUOUS
10
0.479016
20
1.4
11
0.479808
21
1.41411
0
LINE
8
BLACK
6
CONTINUOUS
10
0.479808
20
1.41411
11
0.482174
21
1.42803
0
LINE
8
BLACK
6
CONTINUOUS
10
0.482174
20
1.42803
11
0.486086
21
1.44161
0
LINE
8
BLACK
6
CONTINUOUS
10
0.486086
20
1.44161
11
0.491492
21
1.45466
0
LINE
8
BLACK
6
CONTINUOUS
10
0.491492
20
1.45466
11
0.498326
21
1.46703
0
LINE
8
BLACK
6
CONTINUOUS
10
0.498326
20
1.46703
11
0.506502
21
1.47855
0
LINE
8
BLACK
6
CONTINUOUS
10
0.506502
20
1.47855
11
0.515916
21
1.48908
0
LINE
8
BLACK
6
CONTINUOUS
10
0.515916
20
1.48908
11
0.52645
21
1.4985
0
LINE
8
BLACK
6
CONTINUOUS
10
0.52645
20
1.4985
11
0.537972
21
1.50667
0
LINE
8
BLACK
6
CONTINUOUS
10
0.537972
20
1.50667
11
0.550337
21
1.51351
0
LINE
8
BLACK
6
CONTINUOUS
10
0.550337
20
1.51351
11
0.56339
21
1.51891
0
LINE
8
BLACK
6
CONTINUOUS
10
0.56339
20
1.51891
11
0.576966
21
1.52283
0
LINE
8
BLACK
6
CONTINUOUS
10
0.576966
20
1.52283
11
0.590894
21
1.52519
0
LINE
8
BLACK
6
CONTINUOUS
10
0.590894
20
1.52519
11
0.605
21
1.52598
0
LINE
8
BLACK
6
CONTINUOUS
10
0.605
20
1.52598
11
0.619106
21
1.52519
  0
ENDSEC
  0
EOF
