  0
SECTION
  2
HEADER
  9
$ANGBASE
  50
0.0
  9
$ANGDIR
  70
1
  9
$MEASUREMENT
  70
0
  0
ENDSEC
  0
SECTION
  2
TABLES
  0
TABLE
  2
LTYPE
  70
4
  0
LTYPE
  5
40F
  2
CONTINUOUS
  70
0
  3
Solid line
  72
65
  73
0
  40
0.0
  0
LTYPE
  5
410
  2
DASHDOT
 70
0
  3
Dash Dot ____ _ ____ _
 72
65
 73
4
 40
2.0
 49
1.25
 49
-0.25
 49
0.25
 49
-0.25
  0
LTYPE
  5
411
  2
DASHED
 70
0
  3
Dashed __ __ __ __ __
 72
65
 73
2
 40
0.75
 49
0.5
 49
-0.25
  0
LTYPE
  5
43B
  2
DOTTED
 70
0
  3
Dotted .  .  .  .
 72
65
 73
2
 40
0.2
 49
0.0
 49
-0.2
  0
ENDTAB
  0
TABLE
  2
STYLE
  70
4
  0
STYLE
  2
KICAD
  70
0
  40
0
  41
1
  42
1
  50
0
  71
0
  3
isocp.shx
  0
STYLE
  2
KICADB
  70
0
  40
0
  41
1
  42
1
  50
0
  71
0
  3
isocp.shx
  0
STYLE
  2
KICADI
  70
0
  40
0
  41
1
  42
1
  50
15
  71
0
  3
isocp.shx
  0
STYLE
  2
KICADBI
  70
0
  40
0
  41
1
  42
1
  50
15
  71
0
  3
isocp.shx
  0
ENDTAB
  0
TABLE
  2
LAYER
  70
1
  0
LAYER
  2
BLACK
  70
0
  62
7
  6
CONTINUOUS
  0
ENDTAB
  0
ENDSEC
  0
SECTION
  2
ENTITIES
0
LINE
8
BLACK
6
CONTINUOUS
10
0.0358072
20
1.5677
11
0.0379196
21
1.56953
0
LINE
8
BLACK
6
CONTINUOUS
10
0.0379196
20
1.56953
11
0.0399803
21
1.56998
0
LINE
8
BLACK
6
CONTINUOUS
10
0.0399803
20
1.56998
11
1.17002
21
1.56998
0
LINE
8
BLACK
6
CONTINUOUS
10
1.17002
20
1.56998
11
1.1727
21
1.56919
0
LINE
8
BLACK
6
CONTINUOUS
10
1.1727
20
1.56919
11
1.17453
21
1.56708
0
LINE
8
BLACK
6
CONTINUOUS
10
1.17453
20
1.56708
11
1.17498
21
1.56502
0
LINE
8
BLACK
6
CONTINUOUS
10
1.17498
20
1.56502
11
1.17498
21
0.0349803
0
LINE
8
BLACK
6
CONTINUOUS
10
1.17498
20
0.0349803
11
1.17419
21
0.0322984
0
LINE
8
BLACK
6
CONTINUOUS
10
1.17419
20
0.0322984
11
1.17208
21
0.030468
0
LINE
8
BLACK
6
CONTINUOUS
10
1.17208
20
0.030468
11
1.17002
21
0.0300197
0
LINE
8
BLACK
6
CONTINUOUS
10
1.17002
20
0.0300197
11
0.0399803
21
0.0300197
0
LINE
8
BLACK
6
CONTINUOUS
10
0.0399803
20
0.0300197
11
0.0372984
21
0.0308072
0
LINE
8
BLACK
6
CONTINUOUS
10
0.0372984
20
0.0308072
11
0.035468
21
0.0329196
0
LINE
8
BLACK
6
CONTINUOUS
10
0.035468
20
0.0329196
11
0.0350197
21
0.0349803
0
LINE
8
BLACK
6
CONTINUOUS
10
0.0350197
20
0.0349803
11
0.0350197
21
1.56502
0
LINE
8
BLACK
6
CONTINUOUS
10
0.0350197
20
1.56502
11
0.0358072
21
1.5677
0
LINE
8
BLACK
6
CONTINUOUS
10
1.10523
20
0.0500658
11
1.10553
21
0.05
0
LINE
8
BLACK
6
CONTINUOUS
10
1.10553
20
0.05
11
1.12676
21
0.05
0
LINE
8
BLACK
6
CONTINUOUS
10
1.12676
20
0.05
11
1.12703
21
0.0500146
0
LINE
8
BLACK
6
CONTINUOUS
10
1.12703
20
0.0500146
11
1.12903
21
0.0502321
0
LINE
8
BLACK
6
CONTINUOUS
10
1.12903
20
0.0502321
11
1.12963
21
0.0503748
0
LINE
8
BLACK
6
CONTINUOUS
10
1.12963
20
0.0503748
11
1.13437
21
0.0521526
0
LINE
8
BLACK
6
CONTINUOUS
10
1.13437
20
0.0521526
11
1.13499
21
0.0524887
0
LINE
8
BLACK
6
CONTINUOUS
10
1.13499
20
0.0524887
11
1.139
21
0.0555006
0
LINE
8
BLACK
6
CONTINUOUS
10
1.139
20
0.0555006
11
1.1395
21
0.0559951
0
LINE
8
BLACK
6
CONTINUOUS
10
1.1395
20
0.0559951
11
1.14251
21
0.0600138
0
LINE
8
BLACK
6
CONTINUOUS
10
1.14251
20
0.0600138
11
1.14285
21
0.0606278
0
LINE
8
BLACK
6
CONTINUOUS
10
1.14285
20
0.0606278
11
1.14463
21
0.0653698
0
LINE
8
BLACK
6
CONTINUOUS
10
1.14463
20
0.0653698
11
1.14477
21
0.0659704
0
LINE
8
BLACK
6
CONTINUOUS
10
1.14477
20
0.0659704
11
1.14499
21
0.067973
0
LINE
8
BLACK
6
CONTINUOUS
10
1.14499
20
0.067973
11
1.145
21
0.0682413
0
LINE
8
BLACK
6
CONTINUOUS
10
1.145
20
0.0682413
11
1.145
21
0.0892868
0
LINE
8
BLACK
6
CONTINUOUS
10
1.145
20
0.0892868
11
1.14482
21
0.0898868
0
LINE
8
BLACK
6
CONTINUOUS
10
1.14482
20
0.0898868
11
1.14477
21
0.0899342
0
LINE
8
BLACK
6
CONTINUOUS
10
1.14477
20
0.0899342
11
1.14447
21
0.09
0
LINE
8
BLACK
6
CONTINUOUS
10
1.14447
20
0.09
11
1.125
21
0.09
0
LINE
8
BLACK
6
CONTINUOUS
10
1.125
20
0.09
11
1.125
21
0.07
0
LINE
8
BLACK
6
CONTINUOUS
10
1.125
20
0.07
11
1.105
21
0.07
0
LINE
8
BLACK
6
CONTINUOUS
10
1.105
20
0.07
11
1.105
21
0.0507132
0
LINE
8
BLACK
6
CONTINUOUS
10
1.105
20
0.0507132
11
1.10518
21
0.0501133
0
LINE
8
BLACK
6
CONTINUOUS
10
1.10518
20
0.0501133
11
1.10523
21
0.0500658
0
LINE
8
BLACK
6
CONTINUOUS
10
0.947259
20
0.160287
11
0.950698
21
0.155698
0
LINE
8
BLACK
6
CONTINUOUS
10
0.950698
20
0.155698
11
0.953022
21
0.153957
0
LINE
8
BLACK
6
CONTINUOUS
10
0.953022
20
0.153957
11
0.954695
21
0.151719
0
LINE
8
BLACK
6
CONTINUOUS
10
0.954695
20
0.151719
11
0.954893
21
0.148931
0
LINE
8
BLACK
6
CONTINUOUS
10
0.954893
20
0.148931
11
0.953552
21
0.146478
0
LINE
8
BLACK
6
CONTINUOUS
10
0.953552
20
0.146478
11
0.953022
21
0.146018
0
LINE
8
BLACK
6
CONTINUOUS
10
0.953022
20
0.146018
11
0.950995
21
0.144499
0
LINE
8
BLACK
6
CONTINUOUS
10
0.950995
20
0.144499
11
0.950501
21
0.144005
0
LINE
8
BLACK
6
CONTINUOUS
10
0.950501
20
0.144005
11
0.947489
21
0.139986
0
LINE
8
BLACK
6
CONTINUOUS
10
0.947489
20
0.139986
11
0.947153
21
0.139372
0
LINE
8
BLACK
6
CONTINUOUS
10
0.947153
20
0.139372
11
0.945375
21
0.13463
0
LINE
8
BLACK
6
CONTINUOUS
10
0.945375
20
0.13463
11
0.945232
21
0.13403
0
LINE
8
BLACK
6
CONTINUOUS
10
0.945232
20
0.13403
11
0.945015
21
0.132027
0
LINE
8
BLACK
6
CONTINUOUS
10
0.945015
20
0.132027
11
0.945
21
0.131759
0
LINE
8
BLACK
6
CONTINUOUS
10
0.945
20
0.131759
11
0.945
21
0.110713
0
LINE
8
BLACK
6
CONTINUOUS
10
0.945
20
0.110713
11
0.945176
21
0.110113
0
LINE
8
BLACK
6
CONTINUOUS
10
0.945176
20
0.110113
11
0.945231
21
0.110066
0
LINE
8
BLACK
6
CONTINUOUS
10
0.945231
20
0.110066
11
0.945533
21
0.11
0
LINE
8
BLACK
6
CONTINUOUS
10
0.945533
20
0.11
11
0.965
21
0.11
0
LINE
8
BLACK
6
CONTINUOUS
10
0.965
20
0.11
11
0.965
21
0.13
0
LINE
8
BLACK
6
CONTINUOUS
10
0.965
20
0.13
11
1.025
21
0.13
0
LINE
8
BLACK
6
CONTINUOUS
10
1.025
20
0.13
11
1.025
21
0.11
0
LINE
8
BLACK
6
CONTINUOUS
10
1.025
20
0.11
11
1.065
21
0.11
0
LINE
8
BLACK
6
CONTINUOUS
10
1.065
20
0.11
11
1.065
21
0.13
0
LINE
8
BLACK
6
CONTINUOUS
10
1.065
20
0.13
11
1.125
21
0.13
0
LINE
8
BLACK
6
CONTINUOUS
10
1.125
20
0.13
11
1.125
21
0.11
0
LINE
8
BLACK
6
CONTINUOUS
10
1.125
20
0.11
11
1.14429
21
0.11
0
LINE
8
BLACK
6
CONTINUOUS
10
1.14429
20
0.11
11
1.14489
21
0.110176
0
LINE
8
BLACK
6
CONTINUOUS
10
1.14489
20
0.110176
11
1.14493
21
0.110231
0
LINE
8
BLACK
6
CONTINUOUS
10
1.14493
20
0.110231
11
1.145
21
0.110533
0
LINE
8
BLACK
6
CONTINUOUS
10
1.145
20
0.110533
11
1.145
21
0.131759
0
LINE
8
BLACK
6
CONTINUOUS
10
1.145
20
0.131759
11
1.14499
21
0.132027
0
LINE
8
BLACK
6
CONTINUOUS
10
1.14499
20
0.132027
11
1.14477
21
0.13403
0
LINE
8
BLACK
6
CONTINUOUS
10
1.14477
20
0.13403
11
1.14463
21
0.13463
0
LINE
8
BLACK
6
CONTINUOUS
10
1.14463
20
0.13463
11
1.14285
21
0.139372
0
LINE
8
BLACK
6
CONTINUOUS
10
1.14285
20
0.139372
11
1.14251
21
0.139986
0
LINE
8
BLACK
6
CONTINUOUS
10
1.14251
20
0.139986
11
1.1395
21
0.144005
0
LINE
8
BLACK
6
CONTINUOUS
10
1.1395
20
0.144005
11
1.139
21
0.144499
0
LINE
8
BLACK
6
CONTINUOUS
10
1.139
20
0.144499
11
1.13698
21
0.146018
0
LINE
8
BLACK
6
CONTINUOUS
10
1.13698
20
0.146018
11
1.1353
21
0.148257
0
LINE
8
BLACK
6
CONTINUOUS
10
1.1353
20
0.148257
11
1.13511
21
0.151045
0
LINE
8
BLACK
6
CONTINUOUS
10
1.13511
20
0.151045
11
1.13645
21
0.153497
0
LINE
8
BLACK
6
CONTINUOUS
10
1.13645
20
0.153497
11
1.13698
21
0.153957
0
LINE
8
BLACK
6
CONTINUOUS
10
1.13698
20
0.153957
11
1.1393
21
0.155698
0
LINE
8
BLACK
6
CONTINUOUS
10
1.1393
20
0.155698
11
1.14274
21
0.160287
0
LINE
8
BLACK
6
CONTINUOUS
10
1.14274
20
0.160287
11
1.14475
21
0.165657
0
LINE
8
BLACK
6
CONTINUOUS
10
1.14475
20
0.165657
11
1.14502
21
0.168105
0
LINE
8
BLACK
6
CONTINUOUS
10
1.14502
20
0.168105
11
1.14502
21
0.231895
0
LINE
8
BLACK
6
CONTINUOUS
10
1.14502
20
0.231895
11
1.14475
21
0.234343
0
LINE
8
BLACK
6
CONTINUOUS
10
1.14475
20
0.234343
11
1.14274
21
0.239713
0
LINE
8
BLACK
6
CONTINUOUS
10
1.14274
20
0.239713
11
1.1393
21
0.244302
0
LINE
8
BLACK
6
CONTINUOUS
10
1.1393
20
0.244302
11
1.13698
21
0.246043
0
LINE
8
BLACK
6
CONTINUOUS
10
1.13698
20
0.246043
11
1.1353
21
0.248281
0
LINE
8
BLACK
6
CONTINUOUS
10
1.1353
20
0.248281
11
1.13511
21
0.251069
0
LINE
8
BLACK
6
CONTINUOUS
10
1.13511
20
0.251069
11
1.13645
21
0.253522
0
LINE
8
BLACK
6
CONTINUOUS
10
1.13645
20
0.253522
11
1.13698
21
0.253982
0
LINE
8
BLACK
6
CONTINUOUS
10
1.13698
20
0.253982
11
1.139
21
0.255501
0
LINE
8
BLACK
6
CONTINUOUS
10
1.139
20
0.255501
11
1.1395
21
0.255995
0
LINE
8
BLACK
6
CONTINUOUS
10
1.1395
20
0.255995
11
1.14251
21
0.260014
0
LINE
8
BLACK
6
CONTINUOUS
10
1.14251
20
0.260014
11
1.14285
21
0.260628
0
LINE
8
BLACK
6
CONTINUOUS
10
1.14285
20
0.260628
11
1.14463
21
0.26537
0
LINE
8
BLACK
6
CONTINUOUS
10
1.14463
20
0.26537
11
1.14477
21
0.26597
0
LINE
8
BLACK
6
CONTINUOUS
10
1.14477
20
0.26597
11
1.14499
21
0.267973
0
LINE
8
BLACK
6
CONTINUOUS
10
1.14499
20
0.267973
11
1.145
21
0.268241
0
LINE
8
BLACK
6
CONTINUOUS
10
1.145
20
0.268241
11
1.145
21
0.289287
0
LINE
8
BLACK
6
CONTINUOUS
10
1.145
20
0.289287
11
1.14482
21
0.289887
0
LINE
8
BLACK
6
CONTINUOUS
10
1.14482
20
0.289887
11
1.14477
21
0.289934
0
LINE
8
BLACK
6
CONTINUOUS
10
1.14477
20
0.289934
11
1.14447
21
0.29
0
LINE
8
BLACK
6
CONTINUOUS
10
1.14447
20
0.29
11
1.125
21
0.29
0
LINE
8
BLACK
6
CONTINUOUS
10
1.125
20
0.29
11
1.125
21
0.27
0
LINE
8
BLACK
6
CONTINUOUS
10
1.125
20
0.27
11
1.065
21
0.27
0
LINE
8
BLACK
6
CONTINUOUS
10
1.065
20
0.27
11
1.065
21
0.29
0
LINE
8
BLACK
6
CONTINUOUS
10
1.065
20
0.29
11
1.025
21
0.29
0
LINE
8
BLACK
6
CONTINUOUS
10
1.025
20
0.29
11
1.025
21
0.27
0
LINE
8
BLACK
6
CONTINUOUS
10
1.025
20
0.27
11
0.965
21
0.27
0
LINE
8
BLACK
6
CONTINUOUS
10
0.965
20
0.27
11
0.965
21
0.29
0
LINE
8
BLACK
6
CONTINUOUS
10
0.965
20
0.29
11
0.945713
21
0.29
0
LINE
8
BLACK
6
CONTINUOUS
10
0.945713
20
0.29
11
0.945113
21
0.289824
0
LINE
8
BLACK
6
CONTINUOUS
10
0.945113
20
0.289824
11
0.945066
21
0.289769
0
LINE
8
BLACK
6
CONTINUOUS
10
0.945066
20
0.289769
11
0.945
21
0.289467
0
LINE
8
BLACK
6
CONTINUOUS
10
0.945
20
0.289467
11
0.945
21
0.268241
0
LINE
8
BLACK
6
CONTINUOUS
10
0.945
20
0.268241
11
0.945015
21
0.267973
0
LINE
8
BLACK
6
CONTINUOUS
10
0.945015
20
0.267973
11
0.945232
21
0.26597
0
LINE
8
BLACK
6
CONTINUOUS
10
0.945232
20
0.26597
11
0.945375
21
0.26537
0
LINE
8
BLACK
6
CONTINUOUS
10
0.945375
20
0.26537
11
0.947153
21
0.260628
0
LINE
8
BLACK
6
CONTINUOUS
10
0.947153
20
0.260628
11
0.947489
21
0.260014
0
LINE
8
BLACK
6
CONTINUOUS
10
0.947489
20
0.260014
11
0.950501
21
0.255995
0
LINE
8
BLACK
6
CONTINUOUS
10
0.950501
20
0.255995
11
0.950995
21
0.255501
0
LINE
8
BLACK
6
CONTINUOUS
10
0.950995
20
0.255501
11
0.953022
21
0.253982
0
LINE
8
BLACK
6
CONTINUOUS
10
0.953022
20
0.253982
11
0.954695
21
0.251743
0
LINE
8
BLACK
6
CONTINUOUS
10
0.954695
20
0.251743
11
0.954893
21
0.248955
0
LINE
8
BLACK
6
CONTINUOUS
10
0.954893
20
0.248955
11
0.953552
21
0.246503
0
LINE
8
BLACK
6
CONTINUOUS
10
0.953552
20
0.246503
11
0.953022
21
0.246043
0
LINE
8
BLACK
6
CONTINUOUS
10
0.953022
20
0.246043
11
0.950698
21
0.244302
0
LINE
8
BLACK
6
CONTINUOUS
10
0.950698
20
0.244302
11
0.947259
21
0.239713
0
LINE
8
BLACK
6
CONTINUOUS
10
0.947259
20
0.239713
11
0.945246
21
0.234343
0
LINE
8
BLACK
6
CONTINUOUS
10
0.945246
20
0.234343
11
0.94498
21
0.231895
0
LINE
8
BLACK
6
CONTINUOUS
10
0.94498
20
0.231895
11
0.94498
21
0.168105
0
LINE
8
BLACK
6
CONTINUOUS
10
0.94498
20
0.168105
11
0.945246
21
0.165657
0
LINE
8
BLACK
6
CONTINUOUS
10
0.945246
20
0.165657
11
0.947259
21
0.160287
0
LINE
8
BLACK
6
CONTINUOUS
10
0.945231
20
0.310066
11
0.945533
21
0.31
0
LINE
8
BLACK
6
CONTINUOUS
10
0.945533
20
0.31
11
0.965
21
0.31
0
LINE
8
BLACK
6
CONTINUOUS
10
0.965
20
0.31
11
0.965
21
0.33
0
LINE
8
BLACK
6
CONTINUOUS
10
0.965
20
0.33
11
0.985
21
0.33
0
LINE
8
BLACK
6
CONTINUOUS
10
0.985
20
0.33
11
0.985
21
0.349287
0
LINE
8
BLACK
6
CONTINUOUS
10
0.985
20
0.349287
11
0.984824
21
0.349887
0
LINE
8
BLACK
6
CONTINUOUS
10
0.984824
20
0.349887
11
0.984769
21
0.349934
0
LINE
8
BLACK
6
CONTINUOUS
10
0.984769
20
0.349934
11
0.984467
21
0.35
0
LINE
8
BLACK
6
CONTINUOUS
10
0.984467
20
0.35
11
0.963241
21
0.35
0
LINE
8
BLACK
6
CONTINUOUS
10
0.963241
20
0.35
11
0.962973
21
0.349985
0
LINE
8
BLACK
6
CONTINUOUS
10
0.962973
20
0.349985
11
0.96097
21
0.349768
0
LINE
8
BLACK
6
CONTINUOUS
10
0.96097
20
0.349768
11
0.96037
21
0.349625
0
LINE
8
BLACK
6
CONTINUOUS
10
0.96037
20
0.349625
11
0.955628
21
0.347847
0
LINE
8
BLACK
6
CONTINUOUS
10
0.955628
20
0.347847
11
0.955014
21
0.347511
0
LINE
8
BLACK
6
CONTINUOUS
10
0.955014
20
0.347511
11
0.950995
21
0.344499
0
LINE
8
BLACK
6
CONTINUOUS
10
0.950995
20
0.344499
11
0.950501
21
0.344005
0
LINE
8
BLACK
6
CONTINUOUS
10
0.950501
20
0.344005
11
0.947489
21
0.339986
0
LINE
8
BLACK
6
CONTINUOUS
10
0.947489
20
0.339986
11
0.947153
21
0.339372
0
LINE
8
BLACK
6
CONTINUOUS
10
0.947153
20
0.339372
11
0.945375
21
0.33463
0
LINE
8
BLACK
6
CONTINUOUS
10
0.945375
20
0.33463
11
0.945232
21
0.33403
0
LINE
8
BLACK
6
CONTINUOUS
10
0.945232
20
0.33403
11
0.945015
21
0.332027
0
LINE
8
BLACK
6
CONTINUOUS
10
0.945015
20
0.332027
11
0.945
21
0.331759
0
LINE
8
BLACK
6
CONTINUOUS
10
0.945
20
0.331759
11
0.945
21
0.310713
0
LINE
8
BLACK
6
CONTINUOUS
10
0.945
20
0.310713
11
0.945176
21
0.310113
0
LINE
8
BLACK
6
CONTINUOUS
10
0.945176
20
0.310113
11
0.945231
21
0.310066
0
LINE
8
BLACK
6
CONTINUOUS
10
1.10571
20
0.35
11
1.10511
21
0.349824
0
LINE
8
BLACK
6
CONTINUOUS
10
1.10511
20
0.349824
11
1.10507
21
0.349769
0
LINE
8
BLACK
6
CONTINUOUS
10
1.10507
20
0.349769
11
1.105
21
0.349467
0
LINE
8
BLACK
6
CONTINUOUS
10
1.105
20
0.349467
11
1.105
21
0.33
0
LINE
8
BLACK
6
CONTINUOUS
10
1.105
20
0.33
11
1.125
21
0.33
0
LINE
8
BLACK
6
CONTINUOUS
10
1.125
20
0.33
11
1.125
21
0.31
0
LINE
8
BLACK
6
CONTINUOUS
10
1.125
20
0.31
11
1.14429
21
0.31
0
LINE
8
BLACK
6
CONTINUOUS
10
1.14429
20
0.31
11
1.14489
21
0.310176
0
LINE
8
BLACK
6
CONTINUOUS
10
1.14489
20
0.310176
11
1.14493
21
0.310231
0
LINE
8
BLACK
6
CONTINUOUS
10
1.14493
20
0.310231
11
1.145
21
0.310533
0
LINE
8
BLACK
6
CONTINUOUS
10
1.145
20
0.310533
11
1.145
21
0.331759
0
LINE
8
BLACK
6
CONTINUOUS
10
1.145
20
0.331759
11
1.14499
21
0.332027
0
LINE
8
BLACK
6
CONTINUOUS
10
1.14499
20
0.332027
11
1.14477
21
0.33403
0
LINE
8
BLACK
6
CONTINUOUS
10
1.14477
20
0.33403
11
1.14463
21
0.33463
0
LINE
8
BLACK
6
CONTINUOUS
10
1.14463
20
0.33463
11
1.14285
21
0.339372
0
LINE
8
BLACK
6
CONTINUOUS
10
1.14285
20
0.339372
11
1.14251
21
0.339986
0
LINE
8
BLACK
6
CONTINUOUS
10
1.14251
20
0.339986
11
1.1395
21
0.344005
0
LINE
8
BLACK
6
CONTINUOUS
10
1.1395
20
0.344005
11
1.139
21
0.344499
0
LINE
8
BLACK
6
CONTINUOUS
10
1.139
20
0.344499
11
1.13499
21
0.347511
0
LINE
8
BLACK
6
CONTINUOUS
10
1.13499
20
0.347511
11
1.13437
21
0.347847
0
LINE
8
BLACK
6
CONTINUOUS
10
1.13437
20
0.347847
11
1.12963
21
0.349625
0
LINE
8
BLACK
6
CONTINUOUS
10
1.12963
20
0.349625
11
1.12903
21
0.349768
0
LINE
8
BLACK
6
CONTINUOUS
10
1.12903
20
0.349768
11
1.12703
21
0.349985
0
LINE
8
BLACK
6
CONTINUOUS
10
1.12703
20
0.349985
11
1.12676
21
0.35
0
LINE
8
BLACK
6
CONTINUOUS
10
1.12676
20
0.35
11
1.10571
21
0.35
0
LINE
8
BLACK
6
CONTINUOUS
10
1.00571
20
0.35
11
1.00511
21
0.349824
0
LINE
8
BLACK
6
CONTINUOUS
10
1.00511
20
0.349824
11
1.00507
21
0.349769
0
LINE
8
BLACK
6
CONTINUOUS
10
1.00507
20
0.349769
11
1.005
21
0.349467
0
LINE
8
BLACK
6
CONTINUOUS
10
1.005
20
0.349467
11
1.005
21
0.33
0
LINE
8
BLACK
6
CONTINUOUS
10
1.005
20
0.33
11
1.025
21
0.33
0
LINE
8
BLACK
6
CONTINUOUS
10
1.025
20
0.33
11
1.025
21
0.31
0
LINE
8
BLACK
6
CONTINUOUS
10
1.025
20
0.31
11
1.065
21
0.31
0
LINE
8
BLACK
6
CONTINUOUS
10
1.065
20
0.31
11
1.065
21
0.33
0
LINE
8
BLACK
6
CONTINUOUS
10
1.065
20
0.33
11
1.085
21
0.33
0
LINE
8
BLACK
6
CONTINUOUS
10
1.085
20
0.33
11
1.085
21
0.349287
0
LINE
8
BLACK
6
CONTINUOUS
10
1.085
20
0.349287
11
1.08482
21
0.349887
0
LINE
8
BLACK
6
CONTINUOUS
10
1.08482
20
0.349887
11
1.08477
21
0.349934
0
LINE
8
BLACK
6
CONTINUOUS
10
1.08477
20
0.349934
11
1.08447
21
0.35
0
LINE
8
BLACK
6
CONTINUOUS
10
1.08447
20
0.35
11
1.06324
21
0.35
0
LINE
8
BLACK
6
CONTINUOUS
10
1.06324
20
0.35
11
1.06297
21
0.349985
0
LINE
8
BLACK
6
CONTINUOUS
10
1.06297
20
0.349985
11
1.06097
21
0.349768
0
LINE
8
BLACK
6
CONTINUOUS
10
1.06097
20
0.349768
11
1.06037
21
0.349625
0
LINE
8
BLACK
6
CONTINUOUS
10
1.06037
20
0.349625
11
1.05563
21
0.347847
0
LINE
8
BLACK
6
CONTINUOUS
10
1.05563
20
0.347847
11
1.05501
21
0.347511
0
LINE
8
BLACK
6
CONTINUOUS
10
1.05501
20
0.347511
11
1.051
21
0.344499
0
LINE
8
BLACK
6
CONTINUOUS
10
1.051
20
0.344499
11
1.0505
21
0.344005
0
LINE
8
BLACK
6
CONTINUOUS
10
1.0505
20
0.344005
11
1.04897
21
0.341962
0
LINE
8
BLACK
6
CONTINUOUS
10
1.04897
20
0.341962
11
1.04673
21
0.340288
0
LINE
8
BLACK
6
CONTINUOUS
10
1.04673
20
0.340288
11
1.04394
21
0.34009
0
LINE
8
BLACK
6
CONTINUOUS
10
1.04394
20
0.34009
11
1.04149
21
0.341431
0
LINE
8
BLACK
6
CONTINUOUS
10
1.04149
20
0.341431
11
1.04103
21
0.341962
0
LINE
8
BLACK
6
CONTINUOUS
10
1.04103
20
0.341962
11
1.0395
21
0.344005
0
LINE
8
BLACK
6
CONTINUOUS
10
1.0395
20
0.344005
11
1.039
21
0.344499
0
LINE
8
BLACK
6
CONTINUOUS
10
1.039
20
0.344499
11
1.03499
21
0.347511
0
LINE
8
BLACK
6
CONTINUOUS
10
1.03499
20
0.347511
11
1.03437
21
0.347847
0
LINE
8
BLACK
6
CONTINUOUS
10
1.03437
20
0.347847
11
1.02963
21
0.349625
0
LINE
8
BLACK
6
CONTINUOUS
10
1.02963
20
0.349625
11
1.02903
21
0.349768
0
LINE
8
BLACK
6
CONTINUOUS
10
1.02903
20
0.349768
11
1.02703
21
0.349985
0
LINE
8
BLACK
6
CONTINUOUS
10
1.02703
20
0.349985
11
1.02676
21
0.35
0
LINE
8
BLACK
6
CONTINUOUS
10
1.02676
20
0.35
11
1.00571
21
0.35
0
LINE
8
BLACK
6
CONTINUOUS
10
1.10523
20
0.570066
11
1.10553
21
0.57
0
LINE
8
BLACK
6
CONTINUOUS
10
1.10553
20
0.57
11
1.12676
21
0.57
0
LINE
8
BLACK
6
CONTINUOUS
10
1.12676
20
0.57
11
1.12703
21
0.570015
0
LINE
8
BLACK
6
CONTINUOUS
10
1.12703
20
0.570015
11
1.12903
21
0.570232
0
LINE
8
BLACK
6
CONTINUOUS
10
1.12903
20
0.570232
11
1.12963
21
0.570375
0
LINE
8
BLACK
6
CONTINUOUS
10
1.12963
20
0.570375
11
1.13437
21
0.572153
0
LINE
8
BLACK
6
CONTINUOUS
10
1.13437
20
0.572153
11
1.13499
21
0.572489
0
LINE
8
BLACK
6
CONTINUOUS
10
1.13499
20
0.572489
11
1.139
21
0.575501
0
LINE
8
BLACK
6
CONTINUOUS
10
1.139
20
0.575501
11
1.1395
21
0.575995
0
LINE
8
BLACK
6
CONTINUOUS
10
1.1395
20
0.575995
11
1.14251
21
0.580014
0
LINE
8
BLACK
6
CONTINUOUS
10
1.14251
20
0.580014
11
1.14285
21
0.580628
0
LINE
8
BLACK
6
CONTINUOUS
10
1.14285
20
0.580628
11
1.14463
21
0.58537
0
LINE
8
BLACK
6
CONTINUOUS
10
1.14463
20
0.58537
11
1.14477
21
0.58597
0
LINE
8
BLACK
6
CONTINUOUS
10
1.14477
20
0.58597
11
1.14499
21
0.587973
0
LINE
8
BLACK
6
CONTINUOUS
10
1.14499
20
0.587973
11
1.145
21
0.588241
0
LINE
8
BLACK
6
CONTINUOUS
10
1.145
20
0.588241
11
1.145
21
0.609287
0
LINE
8
BLACK
6
CONTINUOUS
10
1.145
20
0.609287
11
1.14482
21
0.609887
0
LINE
8
BLACK
6
CONTINUOUS
10
1.14482
20
0.609887
11
1.14477
21
0.609934
0
LINE
8
BLACK
6
CONTINUOUS
10
1.14477
20
0.609934
11
1.14447
21
0.61
0
LINE
8
BLACK
6
CONTINUOUS
10
1.14447
20
0.61
11
1.125
21
0.61
0
LINE
8
BLACK
6
CONTINUOUS
10
1.125
20
0.61
11
1.125
21
0.59
0
LINE
8
BLACK
6
CONTINUOUS
10
1.125
20
0.59
11
1.105
21
0.59
0
LINE
8
BLACK
6
CONTINUOUS
10
1.105
20
0.59
11
1.105
21
0.570713
0
LINE
8
BLACK
6
CONTINUOUS
10
1.105
20
0.570713
11
1.10518
21
0.570113
0
LINE
8
BLACK
6
CONTINUOUS
10
1.10518
20
0.570113
11
1.10523
21
0.570066
0
LINE
8
BLACK
6
CONTINUOUS
10
1.10523
20
1.25007
11
1.10553
21
1.25
0
LINE
8
BLACK
6
CONTINUOUS
10
1.10553
20
1.25
11
1.12676
21
1.25
0
LINE
8
BLACK
6
CONTINUOUS
10
1.12676
20
1.25
11
1.12703
21
1.25001
0
LINE
8
BLACK
6
CONTINUOUS
10
1.12703
20
1.25001
11
1.12903
21
1.25023
0
LINE
8
BLACK
6
CONTINUOUS
10
1.12903
20
1.25023
11
1.12963
21
1.25037
0
LINE
8
BLACK
6
CONTINUOUS
10
1.12963
20
1.25037
11
1.13437
21
1.25215
0
LINE
8
BLACK
6
CONTINUOUS
10
1.13437
20
1.25215
11
1.13499
21
1.25249
0
LINE
8
BLACK
6
CONTINUOUS
10
1.13499
20
1.25249
11
1.139
21
1.2555
0
LINE
8
BLACK
6
CONTINUOUS
10
1.139
20
1.2555
11
1.1395
21
1.256
0
LINE
8
BLACK
6
CONTINUOUS
10
1.1395
20
1.256
11
1.14251
21
1.26001
0
LINE
8
BLACK
6
CONTINUOUS
10
1.14251
20
1.26001
11
1.14285
21
1.26063
0
LINE
8
BLACK
6
CONTINUOUS
10
1.14285
20
1.26063
11
1.14463
21
1.26537
0
LINE
8
BLACK
6
CONTINUOUS
10
1.14463
20
1.26537
11
1.14477
21
1.26597
0
LINE
8
BLACK
6
CONTINUOUS
10
1.14477
20
1.26597
11
1.14499
21
1.26797
0
LINE
8
BLACK
6
CONTINUOUS
10
1.14499
20
1.26797
11
1.145
21
1.26824
0
LINE
8
BLACK
6
CONTINUOUS
10
1.145
20
1.26824
11
1.145
21
1.28929
0
LINE
8
BLACK
6
CONTINUOUS
10
1.145
20
1.28929
11
1.14482
21
1.28989
0
LINE
8
BLACK
6
CONTINUOUS
10
1.14482
20
1.28989
11
1.14477
21
1.28993
0
LINE
8
BLACK
6
CONTINUOUS
10
1.14477
20
1.28993
11
1.14447
21
1.29
0
LINE
8
BLACK
6
CONTINUOUS
10
1.14447
20
1.29
11
1.125
21
1.29
0
LINE
8
BLACK
6
CONTINUOUS
10
1.125
20
1.29
11
1.125
21
1.27
0
LINE
8
BLACK
6
CONTINUOUS
10
1.125
20
1.27
11
1.105
21
1.27
0
LINE
8
BLACK
6
CONTINUOUS
10
1.105
20
1.27
11
1.105
21
1.25071
0
LINE
8
BLACK
6
CONTINUOUS
10
1.105
20
1.25071
11
1.10518
21
1.25011
0
LINE
8
BLACK
6
CONTINUOUS
10
1.10518
20
1.25011
11
1.10523
21
1.25007
0
LINE
8
BLACK
6
CONTINUOUS
10
0.947259
20
1.36029
11
0.950698
21
1.3557
0
LINE
8
BLACK
6
CONTINUOUS
10
0.950698
20
1.3557
11
0.953022
21
1.35396
0
LINE
8
BLACK
6
CONTINUOUS
10
0.953022
20
1.35396
11
0.954695
21
1.35172
0
LINE
8
BLACK
6
CONTINUOUS
10
0.954695
20
1.35172
11
0.954893
21
1.34893
0
LINE
8
BLACK
6
CONTINUOUS
10
0.954893
20
1.34893
11
0.953552
21
1.34648
0
LINE
8
BLACK
6
CONTINUOUS
10
0.953552
20
1.34648
11
0.953022
21
1.34602
0
LINE
8
BLACK
6
CONTINUOUS
10
0.953022
20
1.34602
11
0.950995
21
1.3445
0
LINE
8
BLACK
6
CONTINUOUS
10
0.950995
20
1.3445
11
0.950501
21
1.344
0
LINE
8
BLACK
6
CONTINUOUS
10
0.950501
20
1.344
11
0.947489
21
1.33999
0
LINE
8
BLACK
6
CONTINUOUS
10
0.947489
20
1.33999
11
0.947153
21
1.33937
0
LINE
8
BLACK
6
CONTINUOUS
10
0.947153
20
1.33937
11
0.945375
21
1.33463
0
LINE
8
BLACK
6
CONTINUOUS
10
0.945375
20
1.33463
11
0.945232
21
1.33403
0
LINE
8
BLACK
6
CONTINUOUS
10
0.945232
20
1.33403
11
0.945015
21
1.33203
0
LINE
8
BLACK
6
CONTINUOUS
10
0.945015
20
1.33203
11
0.945
21
1.33176
0
LINE
8
BLACK
6
CONTINUOUS
10
0.945
20
1.33176
11
0.945
21
1.31071
0
LINE
8
BLACK
6
CONTINUOUS
10
0.945
20
1.31071
11
0.945176
21
1.31011
0
LINE
8
BLACK
6
CONTINUOUS
10
0.945176
20
1.31011
11
0.945231
21
1.31007
0
LINE
8
BLACK
6
CONTINUOUS
10
0.945231
20
1.31007
11
0.945533
21
1.31
0
LINE
8
BLACK
6
CONTINUOUS
10
0.945533
20
1.31
11
0.965
21
1.31
0
LINE
8
BLACK
6
CONTINUOUS
10
0.965
20
1.31
11
0.965
21
1.33
0
LINE
8
BLACK
6
CONTINUOUS
10
0.965
20
1.33
11
1.025
21
1.33
0
LINE
8
BLACK
6
CONTINUOUS
10
1.025
20
1.33
11
1.025
21
1.31
0
LINE
8
BLACK
6
CONTINUOUS
10
1.025
20
1.31
11
1.065
21
1.31
0
LINE
8
BLACK
6
CONTINUOUS
10
1.065
20
1.31
11
1.065
21
1.33
0
LINE
8
BLACK
6
CONTINUOUS
10
1.065
20
1.33
11
1.125
21
1.33
0
LINE
8
BLACK
6
CONTINUOUS
10
1.125
20
1.33
11
1.125
21
1.31
0
LINE
8
BLACK
6
CONTINUOUS
10
1.125
20
1.31
11
1.14429
21
1.31
0
LINE
8
BLACK
6
CONTINUOUS
10
1.14429
20
1.31
11
1.14489
21
1.31018
0
LINE
8
BLACK
6
CONTINUOUS
10
1.14489
20
1.31018
11
1.14493
21
1.31023
0
LINE
8
BLACK
6
CONTINUOUS
10
1.14493
20
1.31023
11
1.145
21
1.31053
0
LINE
8
BLACK
6
CONTINUOUS
10
1.145
20
1.31053
11
1.145
21
1.33176
0
LINE
8
BLACK
6
CONTINUOUS
10
1.145
20
1.33176
11
1.14499
21
1.33203
0
LINE
8
BLACK
6
CONTINUOUS
10
1.14499
20
1.33203
11
1.14477
21
1.33403
0
LINE
8
BLACK
6
CONTINUOUS
10
1.14477
20
1.33403
11
1.14463
21
1.33463
0
LINE
8
BLACK
6
CONTINUOUS
10
1.14463
20
1.33463
11
1.14285
21
1.33937
0
LINE
8
BLACK
6
CONTINUOUS
10
1.14285
20
1.33937
11
1.14251
21
1.33999
0
LINE
8
BLACK
6
CONTINUOUS
10
1.14251
20
1.33999
11
1.1395
21
1.344
0
LINE
8
BLACK
6
CONTINUOUS
10
1.1395
20
1.344
11
1.139
21
1.3445
0
LINE
8
BLACK
6
CONTINUOUS
10
1.139
20
1.3445
11
1.13698
21
1.34602
0
LINE
8
BLACK
6
CONTINUOUS
10
1.13698
20
1.34602
11
1.1353
21
1.34826
0
LINE
8
BLACK
6
CONTINUOUS
10
1.1353
20
1.34826
11
1.13511
21
1.35104
0
LINE
8
BLACK
6
CONTINUOUS
10
1.13511
20
1.35104
11
1.13645
21
1.3535
0
LINE
8
BLACK
6
CONTINUOUS
10
1.13645
20
1.3535
11
1.13698
21
1.35396
0
LINE
8
BLACK
6
CONTINUOUS
10
1.13698
20
1.35396
11
1.1393
21
1.3557
0
LINE
8
BLACK
6
CONTINUOUS
10
1.1393
20
1.3557
11
1.14274
21
1.36029
0
LINE
8
BLACK
6
CONTINUOUS
10
1.14274
20
1.36029
11
1.14475
21
1.36566
0
LINE
8
BLACK
6
CONTINUOUS
10
1.14475
20
1.36566
11
1.14502
21
1.3681
0
LINE
8
BLACK
6
CONTINUOUS
10
1.14502
20
1.3681
11
1.14502
21
1.4319
0
LINE
8
BLACK
6
CONTINUOUS
10
1.14502
20
1.4319
11
1.14475
21
1.43434
0
LINE
8
BLACK
6
CONTINUOUS
10
1.14475
20
1.43434
11
1.14274
21
1.43971
0
LINE
8
BLACK
6
CONTINUOUS
10
1.14274
20
1.43971
11
1.1393
21
1.4443
0
LINE
8
BLACK
6
CONTINUOUS
10
1.1393
20
1.4443
11
1.13698
21
1.44604
0
LINE
8
BLACK
6
CONTINUOUS
10
1.13698
20
1.44604
11
1.1353
21
1.44828
0
LINE
8
BLACK
6
CONTINUOUS
10
1.1353
20
1.44828
11
1.13511
21
1.45107
0
LINE
8
BLACK
6
CONTINUOUS
10
1.13511
20
1.45107
11
1.13645
21
1.45352
0
LINE
8
BLACK
6
CONTINUOUS
10
1.13645
20
1.45352
11
1.13698
21
1.45398
0
LINE
8
BLACK
6
CONTINUOUS
10
1.13698
20
1.45398
11
1.139
21
1.4555
0
LINE
8
BLACK
6
CONTINUOUS
10
1.139
20
1.4555
11
1.1395
21
1.456
0
LINE
8
BLACK
6
CONTINUOUS
10
1.1395
20
1.456
11
1.14251
21
1.46001
0
LINE
8
BLACK
6
CONTINUOUS
10
1.14251
20
1.46001
11
1.14285
21
1.46063
0
LINE
8
BLACK
6
CONTINUOUS
10
1.14285
20
1.46063
11
1.14463
21
1.46537
0
LINE
8
BLACK
6
CONTINUOUS
10
1.14463
20
1.46537
11
1.14477
21
1.46597
0
LINE
8
BLACK
6
CONTINUOUS
10
1.14477
20
1.46597
11
1.14499
21
1.46797
0
LINE
8
BLACK
6
CONTINUOUS
10
1.14499
20
1.46797
11
1.145
21
1.46824
0
LINE
8
BLACK
6
CONTINUOUS
10
1.145
20
1.46824
11
1.145
21
1.48929
0
LINE
8
BLACK
6
CONTINUOUS
10
1.145
20
1.48929
11
1.14482
21
1.48989
0
LINE
8
BLACK
6
CONTINUOUS
10
1.14482
20
1.48989
11
1.14477
21
1.48993
0
LINE
8
BLACK
6
CONTINUOUS
10
1.14477
20
1.48993
11
1.14447
21
1.49
0
LINE
8
BLACK
6
CONTINUOUS
10
1.14447
20
1.49
11
1.125
21
1.49
0
LINE
8
BLACK
6
CONTINUOUS
10
1.125
20
1.49
11
1.125
21
1.47
0
LINE
8
BLACK
6
CONTINUOUS
10
1.125
20
1.47
11
1.065
21
1.47
0
LINE
8
BLACK
6
CONTINUOUS
10
1.065
20
1.47
11
1.065
21
1.49
0
LINE
8
BLACK
6
CONTINUOUS
10
1.065
20
1.49
11
1.025
21
1.49
0
LINE
8
BLACK
6
CONTINUOUS
10
1.025
20
1.49
11
1.025
21
1.47
0
LINE
8
BLACK
6
CONTINUOUS
10
1.025
20
1.47
11
0.965
21
1.47
0
LINE
8
BLACK
6
CONTINUOUS
10
0.965
20
1.47
11
0.965
21
1.49
0
LINE
8
BLACK
6
CONTINUOUS
10
0.965
20
1.49
11
0.945713
21
1.49
0
LINE
8
BLACK
6
CONTINUOUS
10
0.945713
20
1.49
11
0.945113
21
1.48982
0
LINE
8
BLACK
6
CONTINUOUS
10
0.945113
20
1.48982
11
0.945066
21
1.48977
0
LINE
8
BLACK
6
CONTINUOUS
10
0.945066
20
1.48977
11
0.945
21
1.48947
0
LINE
8
BLACK
6
CONTINUOUS
10
0.945
20
1.48947
11
0.945
21
1.46824
0
LINE
8
BLACK
6
CONTINUOUS
10
0.945
20
1.46824
11
0.945015
21
1.46797
0
LINE
8
BLACK
6
CONTINUOUS
10
0.945015
20
1.46797
11
0.945232
21
1.46597
0
LINE
8
BLACK
6
CONTINUOUS
10
0.945232
20
1.46597
11
0.945375
21
1.46537
0
LINE
8
BLACK
6
CONTINUOUS
10
0.945375
20
1.46537
11
0.947153
21
1.46063
0
LINE
8
BLACK
6
CONTINUOUS
10
0.947153
20
1.46063
11
0.947489
21
1.46001
0
LINE
8
BLACK
6
CONTINUOUS
10
0.947489
20
1.46001
11
0.950501
21
1.456
0
LINE
8
BLACK
6
CONTINUOUS
10
0.950501
20
1.456
11
0.950995
21
1.4555
0
LINE
8
BLACK
6
CONTINUOUS
10
0.950995
20
1.4555
11
0.953022
21
1.45398
0
LINE
8
BLACK
6
CONTINUOUS
10
0.953022
20
1.45398
11
0.954695
21
1.45174
0
LINE
8
BLACK
6
CONTINUOUS
10
0.954695
20
1.45174
11
0.954893
21
1.44896
0
LINE
8
BLACK
6
CONTINUOUS
10
0.954893
20
1.44896
11
0.953552
21
1.4465
0
LINE
8
BLACK
6
CONTINUOUS
10
0.953552
20
1.4465
11
0.953022
21
1.44604
0
LINE
8
BLACK
6
CONTINUOUS
10
0.953022
20
1.44604
11
0.950698
21
1.4443
0
LINE
8
BLACK
6
CONTINUOUS
10
0.950698
20
1.4443
11
0.947259
21
1.43971
0
LINE
8
BLACK
6
CONTINUOUS
10
0.947259
20
1.43971
11
0.945246
21
1.43434
0
LINE
8
BLACK
6
CONTINUOUS
10
0.945246
20
1.43434
11
0.94498
21
1.4319
0
LINE
8
BLACK
6
CONTINUOUS
10
0.94498
20
1.4319
11
0.94498
21
1.3681
0
LINE
8
BLACK
6
CONTINUOUS
10
0.94498
20
1.3681
11
0.945246
21
1.36566
0
LINE
8
BLACK
6
CONTINUOUS
10
0.945246
20
1.36566
11
0.947259
21
1.36029
0
LINE
8
BLACK
6
CONTINUOUS
10
0.945231
20
1.51007
11
0.945533
21
1.51
0
LINE
8
BLACK
6
CONTINUOUS
10
0.945533
20
1.51
11
0.965
21
1.51
0
LINE
8
BLACK
6
CONTINUOUS
10
0.965
20
1.51
11
0.965
21
1.53
0
LINE
8
BLACK
6
CONTINUOUS
10
0.965
20
1.53
11
0.985
21
1.53
0
LINE
8
BLACK
6
CONTINUOUS
10
0.985
20
1.53
11
0.985
21
1.54929
0
LINE
8
BLACK
6
CONTINUOUS
10
0.985
20
1.54929
11
0.984824
21
1.54989
0
LINE
8
BLACK
6
CONTINUOUS
10
0.984824
20
1.54989
11
0.984769
21
1.54993
0
LINE
8
BLACK
6
CONTINUOUS
10
0.984769
20
1.54993
11
0.984467
21
1.55
0
LINE
8
BLACK
6
CONTINUOUS
10
0.984467
20
1.55
11
0.963241
21
1.55
0
LINE
8
BLACK
6
CONTINUOUS
10
0.963241
20
1.55
11
0.962973
21
1.54999
0
LINE
8
BLACK
6
CONTINUOUS
10
0.962973
20
1.54999
11
0.96097
21
1.54977
0
LINE
8
BLACK
6
CONTINUOUS
10
0.96097
20
1.54977
11
0.96037
21
1.54963
0
LINE
8
BLACK
6
CONTINUOUS
10
0.96037
20
1.54963
11
0.955628
21
1.54785
0
LINE
8
BLACK
6
CONTINUOUS
10
0.955628
20
1.54785
11
0.955014
21
1.54751
0
LINE
8
BLACK
6
CONTINUOUS
10
0.955014
20
1.54751
11
0.950995
21
1.5445
0
LINE
8
BLACK
6
CONTINUOUS
10
0.950995
20
1.5445
11
0.950501
21
1.544
0
LINE
8
BLACK
6
CONTINUOUS
10
0.950501
20
1.544
11
0.947489
21
1.53999
0
LINE
8
BLACK
6
CONTINUOUS
10
0.947489
20
1.53999
11
0.947153
21
1.53937
0
LINE
8
BLACK
6
CONTINUOUS
10
0.947153
20
1.53937
11
0.945375
21
1.53463
0
LINE
8
BLACK
6
CONTINUOUS
10
0.945375
20
1.53463
11
0.945232
21
1.53403
0
LINE
8
BLACK
6
CONTINUOUS
10
0.945232
20
1.53403
11
0.945015
21
1.53203
0
LINE
8
BLACK
6
CONTINUOUS
10
0.945015
20
1.53203
11
0.945
21
1.53176
0
LINE
8
BLACK
6
CONTINUOUS
10
0.945
20
1.53176
11
0.945
21
1.51071
0
LINE
8
BLACK
6
CONTINUOUS
10
0.945
20
1.51071
11
0.945176
21
1.51011
0
LINE
8
BLACK
6
CONTINUOUS
10
0.945176
20
1.51011
11
0.945231
21
1.51007
0
LINE
8
BLACK
6
CONTINUOUS
10
1.10571
20
1.55
11
1.10511
21
1.54982
0
LINE
8
BLACK
6
CONTINUOUS
10
1.10511
20
1.54982
11
1.10507
21
1.54977
0
LINE
8
BLACK
6
CONTINUOUS
10
1.10507
20
1.54977
11
1.105
21
1.54947
0
LINE
8
BLACK
6
CONTINUOUS
10
1.105
20
1.54947
11
1.105
21
1.53
0
LINE
8
BLACK
6
CONTINUOUS
10
1.105
20
1.53
11
1.125
21
1.53
0
LINE
8
BLACK
6
CONTINUOUS
10
1.125
20
1.53
11
1.125
21
1.51
0
LINE
8
BLACK
6
CONTINUOUS
10
1.125
20
1.51
11
1.14429
21
1.51
0
LINE
8
BLACK
6
CONTINUOUS
10
1.14429
20
1.51
11
1.14489
21
1.51018
0
LINE
8
BLACK
6
CONTINUOUS
10
1.14489
20
1.51018
11
1.14493
21
1.51023
0
LINE
8
BLACK
6
CONTINUOUS
10
1.14493
20
1.51023
11
1.145
21
1.51053
0
LINE
8
BLACK
6
CONTINUOUS
10
1.145
20
1.51053
11
1.145
21
1.53176
0
LINE
8
BLACK
6
CONTINUOUS
10
1.145
20
1.53176
11
1.14499
21
1.53203
0
LINE
8
BLACK
6
CONTINUOUS
10
1.14499
20
1.53203
11
1.14477
21
1.53403
0
LINE
8
BLACK
6
CONTINUOUS
10
1.14477
20
1.53403
11
1.14463
21
1.53463
0
LINE
8
BLACK
6
CONTINUOUS
10
1.14463
20
1.53463
11
1.14285
21
1.53937
0
LINE
8
BLACK
6
CONTINUOUS
10
1.14285
20
1.53937
11
1.14251
21
1.53999
0
LINE
8
BLACK
6
CONTINUOUS
10
1.14251
20
1.53999
11
1.1395
21
1.544
0
LINE
8
BLACK
6
CONTINUOUS
10
1.1395
20
1.544
11
1.139
21
1.5445
0
LINE
8
BLACK
6
CONTINUOUS
10
1.139
20
1.5445
11
1.13499
21
1.54751
0
LINE
8
BLACK
6
CONTINUOUS
10
1.13499
20
1.54751
11
1.13437
21
1.54785
0
LINE
8
BLACK
6
CONTINUOUS
10
1.13437
20
1.54785
11
1.12963
21
1.54963
0
LINE
8
BLACK
6
CONTINUOUS
10
1.12963
20
1.54963
11
1.12903
21
1.54977
0
LINE
8
BLACK
6
CONTINUOUS
10
1.12903
20
1.54977
11
1.12703
21
1.54999
0
LINE
8
BLACK
6
CONTINUOUS
10
1.12703
20
1.54999
11
1.12676
21
1.55
0
LINE
8
BLACK
6
CONTINUOUS
10
1.12676
20
1.55
11
1.10571
21
1.55
0
LINE
8
BLACK
6
CONTINUOUS
10
1.00571
20
1.55
11
1.00511
21
1.54982
0
LINE
8
BLACK
6
CONTINUOUS
10
1.00511
20
1.54982
11
1.00507
21
1.54977
0
LINE
8
BLACK
6
CONTINUOUS
10
1.00507
20
1.54977
11
1.005
21
1.54947
0
LINE
8
BLACK
6
CONTINUOUS
10
1.005
20
1.54947
11
1.005
21
1.53
0
LINE
8
BLACK
6
CONTINUOUS
10
1.005
20
1.53
11
1.025
21
1.53
0
LINE
8
BLACK
6
CONTINUOUS
10
1.025
20
1.53
11
1.025
21
1.51
0
LINE
8
BLACK
6
CONTINUOUS
10
1.025
20
1.51
11
1.065
21
1.51
0
LINE
8
BLACK
6
CONTINUOUS
10
1.065
20
1.51
11
1.065
21
1.53
0
LINE
8
BLACK
6
CONTINUOUS
10
1.065
20
1.53
11
1.085
21
1.53
0
LINE
8
BLACK
6
CONTINUOUS
10
1.085
20
1.53
11
1.085
21
1.54929
0
LINE
8
BLACK
6
CONTINUOUS
10
1.085
20
1.54929
11
1.08482
21
1.54989
0
LINE
8
BLACK
6
CONTINUOUS
10
1.08482
20
1.54989
11
1.08477
21
1.54993
0
LINE
8
BLACK
6
CONTINUOUS
10
1.08477
20
1.54993
11
1.08447
21
1.55
0
LINE
8
BLACK
6
CONTINUOUS
10
1.08447
20
1.55
11
1.06324
21
1.55
0
LINE
8
BLACK
6
CONTINUOUS
10
1.06324
20
1.55
11
1.06297
21
1.54999
0
LINE
8
BLACK
6
CONTINUOUS
10
1.06297
20
1.54999
11
1.06097
21
1.54977
0
LINE
8
BLACK
6
CONTINUOUS
10
1.06097
20
1.54977
11
1.06037
21
1.54963
0
LINE
8
BLACK
6
CONTINUOUS
10
1.06037
20
1.54963
11
1.05563
21
1.54785
0
LINE
8
BLACK
6
CONTINUOUS
10
1.05563
20
1.54785
11
1.05501
21
1.54751
0
LINE
8
BLACK
6
CONTINUOUS
10
1.05501
20
1.54751
11
1.051
21
1.5445
0
LINE
8
BLACK
6
CONTINUOUS
10
1.051
20
1.5445
11
1.0505
21
1.544
0
LINE
8
BLACK
6
CONTINUOUS
10
1.0505
20
1.544
11
1.04897
21
1.54196
0
LINE
8
BLACK
6
CONTINUOUS
10
1.04897
20
1.54196
11
1.04673
21
1.54029
0
LINE
8
BLACK
6
CONTINUOUS
10
1.04673
20
1.54029
11
1.04394
21
1.54009
0
LINE
8
BLACK
6
CONTINUOUS
10
1.04394
20
1.54009
11
1.04149
21
1.54143
0
LINE
8
BLACK
6
CONTINUOUS
10
1.04149
20
1.54143
11
1.04103
21
1.54196
0
LINE
8
BLACK
6
CONTINUOUS
10
1.04103
20
1.54196
11
1.0395
21
1.544
0
LINE
8
BLACK
6
CONTINUOUS
10
1.0395
20
1.544
11
1.039
21
1.5445
0
LINE
8
BLACK
6
CONTINUOUS
10
1.039
20
1.5445
11
1.03499
21
1.54751
0
LINE
8
BLACK
6
CONTINUOUS
10
1.03499
20
1.54751
11
1.03437
21
1.54785
0
LINE
8
BLACK
6
CONTINUOUS
10
1.03437
20
1.54785
11
1.02963
21
1.54963
0
LINE
8
BLACK
6
CONTINUOUS
10
1.02963
20
1.54963
11
1.02903
21
1.54977
0
LINE
8
BLACK
6
CONTINUOUS
10
1.02903
20
1.54977
11
1.02703
21
1.54999
0
LINE
8
BLACK
6
CONTINUOUS
10
1.02703
20
1.54999
11
1.02676
21
1.55
0
LINE
8
BLACK
6
CONTINUOUS
10
1.02676
20
1.55
11
1.00571
21
1.55
0
LINE
8
BLACK
6
CONTINUOUS
10
0.965
20
0.07
11
0.965
21
0.09
0
LINE
8
BLACK
6
CONTINUOUS
10
0.965
20
0.09
11
0.945713
21
0.09
0
LINE
8
BLACK
6
CONTINUOUS
10
0.945713
20
0.09
11
0.945113
21
0.0898238
0
LINE
8
BLACK
6
CONTINUOUS
10
0.945113
20
0.0898238
11
0.945066
21
0.0897691
0
LINE
8
BLACK
6
CONTINUOUS
10
0.945066
20
0.0897691
11
0.945
21
0.0894666
0
LINE
8
BLACK
6
CONTINUOUS
10
0.945
20
0.0894666
11
0.945
21
0.0682414
0
LINE
8
BLACK
6
CONTINUOUS
10
0.945
20
0.0682414
11
0.945015
21
0.0679728
0
LINE
8
BLACK
6
CONTINUOUS
10
0.945015
20
0.0679728
11
0.945232
21
0.0659704
0
LINE
8
BLACK
6
CONTINUOUS
10
0.945232
20
0.0659704
11
0.945375
21
0.0653699
0
LINE
8
BLACK
6
CONTINUOUS
10
0.945375
20
0.0653699
11
0.947153
21
0.0606278
0
LINE
8
BLACK
6
CONTINUOUS
10
0.947153
20
0.0606278
11
0.947489
21
0.0600138
0
LINE
8
BLACK
6
CONTINUOUS
10
0.947489
20
0.0600138
11
0.950501
21
0.0559951
0
LINE
8
BLACK
6
CONTINUOUS
10
0.950501
20
0.0559951
11
0.950995
21
0.0555006
0
LINE
8
BLACK
6
CONTINUOUS
10
0.950995
20
0.0555006
11
0.955014
21
0.0524887
0
LINE
8
BLACK
6
CONTINUOUS
10
0.955014
20
0.0524887
11
0.955628
21
0.0521526
0
LINE
8
BLACK
6
CONTINUOUS
10
0.955628
20
0.0521526
11
0.96037
21
0.0503749
0
LINE
8
BLACK
6
CONTINUOUS
10
0.96037
20
0.0503749
11
0.96097
21
0.0502321
0
LINE
8
BLACK
6
CONTINUOUS
10
0.96097
20
0.0502321
11
0.962973
21
0.0500145
0
LINE
8
BLACK
6
CONTINUOUS
10
0.962973
20
0.0500145
11
0.963241
21
0.05
0
LINE
8
BLACK
6
CONTINUOUS
10
0.963241
20
0.05
11
0.984287
21
0.05
0
LINE
8
BLACK
6
CONTINUOUS
10
0.984287
20
0.05
11
0.984887
21
0.0501762
0
LINE
8
BLACK
6
CONTINUOUS
10
0.984887
20
0.0501762
11
0.984934
21
0.0502309
0
LINE
8
BLACK
6
CONTINUOUS
10
0.984934
20
0.0502309
11
0.985
21
0.0505334
0
LINE
8
BLACK
6
CONTINUOUS
10
0.985
20
0.0505334
11
0.985
21
0.07
0
LINE
8
BLACK
6
CONTINUOUS
10
0.985
20
0.07
11
0.965
21
0.07
0
LINE
8
BLACK
6
CONTINUOUS
10
1.00523
20
0.0500658
11
1.00553
21
0.05
0
LINE
8
BLACK
6
CONTINUOUS
10
1.00553
20
0.05
11
1.02676
21
0.05
0
LINE
8
BLACK
6
CONTINUOUS
10
1.02676
20
0.05
11
1.02703
21
0.0500146
0
LINE
8
BLACK
6
CONTINUOUS
10
1.02703
20
0.0500146
11
1.02903
21
0.0502321
0
LINE
8
BLACK
6
CONTINUOUS
10
1.02903
20
0.0502321
11
1.02963
21
0.0503748
0
LINE
8
BLACK
6
CONTINUOUS
10
1.02963
20
0.0503748
11
1.03437
21
0.0521526
0
LINE
8
BLACK
6
CONTINUOUS
10
1.03437
20
0.0521526
11
1.03499
21
0.0524887
0
LINE
8
BLACK
6
CONTINUOUS
10
1.03499
20
0.0524887
11
1.039
21
0.0555006
0
LINE
8
BLACK
6
CONTINUOUS
10
1.039
20
0.0555006
11
1.0395
21
0.0559951
0
LINE
8
BLACK
6
CONTINUOUS
10
1.0395
20
0.0559951
11
1.04103
21
0.058038
0
LINE
8
BLACK
6
CONTINUOUS
10
1.04103
20
0.058038
11
1.04327
21
0.0597119
0
LINE
8
BLACK
6
CONTINUOUS
10
1.04327
20
0.0597119
11
1.04606
21
0.0599097
0
LINE
8
BLACK
6
CONTINUOUS
10
1.04606
20
0.0599097
11
1.04851
21
0.0585688
0
LINE
8
BLACK
6
CONTINUOUS
10
1.04851
20
0.0585688
11
1.04897
21
0.058038
0
LINE
8
BLACK
6
CONTINUOUS
10
1.04897
20
0.058038
11
1.0505
21
0.0559951
0
LINE
8
BLACK
6
CONTINUOUS
10
1.0505
20
0.0559951
11
1.051
21
0.0555006
0
LINE
8
BLACK
6
CONTINUOUS
10
1.051
20
0.0555006
11
1.05501
21
0.0524887
0
LINE
8
BLACK
6
CONTINUOUS
10
1.05501
20
0.0524887
11
1.05563
21
0.0521526
0
LINE
8
BLACK
6
CONTINUOUS
10
1.05563
20
0.0521526
11
1.06037
21
0.0503749
0
LINE
8
BLACK
6
CONTINUOUS
10
1.06037
20
0.0503749
11
1.06097
21
0.0502321
0
LINE
8
BLACK
6
CONTINUOUS
10
1.06097
20
0.0502321
11
1.06297
21
0.0500145
0
LINE
8
BLACK
6
CONTINUOUS
10
1.06297
20
0.0500145
11
1.06324
21
0.05
0
LINE
8
BLACK
6
CONTINUOUS
10
1.06324
20
0.05
11
1.08429
21
0.05
0
LINE
8
BLACK
6
CONTINUOUS
10
1.08429
20
0.05
11
1.08489
21
0.0501762
0
LINE
8
BLACK
6
CONTINUOUS
10
1.08489
20
0.0501762
11
1.08493
21
0.0502309
0
LINE
8
BLACK
6
CONTINUOUS
10
1.08493
20
0.0502309
11
1.085
21
0.0505334
0
LINE
8
BLACK
6
CONTINUOUS
10
1.085
20
0.0505334
11
1.085
21
0.07
0
LINE
8
BLACK
6
CONTINUOUS
10
1.085
20
0.07
11
1.065
21
0.07
0
LINE
8
BLACK
6
CONTINUOUS
10
1.065
20
0.07
11
1.065
21
0.09
0
LINE
8
BLACK
6
CONTINUOUS
10
1.065
20
0.09
11
1.025
21
0.09
0
LINE
8
BLACK
6
CONTINUOUS
10
1.025
20
0.09
11
1.025
21
0.07
0
LINE
8
BLACK
6
CONTINUOUS
10
1.025
20
0.07
11
1.005
21
0.07
0
LINE
8
BLACK
6
CONTINUOUS
10
1.005
20
0.07
11
1.005
21
0.0507132
0
LINE
8
BLACK
6
CONTINUOUS
10
1.005
20
0.0507132
11
1.00518
21
0.0501133
0
LINE
8
BLACK
6
CONTINUOUS
10
1.00518
20
0.0501133
11
1.00523
21
0.0500658
0
LINE
8
BLACK
6
CONTINUOUS
10
0.87837
20
0.690024
11
0.879424
21
0.690138
0
LINE
8
BLACK
6
CONTINUOUS
10
0.879424
20
0.690138
11
0.940309
21
0.690138
0
LINE
8
BLACK
6
CONTINUOUS
10
0.940309
20
0.690138
11
0.94299
21
0.68935
0
LINE
8
BLACK
6
CONTINUOUS
10
0.94299
20
0.68935
11
0.944821
21
0.687238
0
LINE
8
BLACK
6
CONTINUOUS
10
0.944821
20
0.687238
11
0.945091
21
0.686257
0
LINE
8
BLACK
6
CONTINUOUS
10
0.945091
20
0.686257
11
0.945141
21
0.686269
0
LINE
8
BLACK
6
CONTINUOUS
10
0.945141
20
0.686269
11
0.945213
21
0.685966
0
LINE
8
BLACK
6
CONTINUOUS
10
0.945213
20
0.685966
11
0.945246
21
0.685657
0
LINE
8
BLACK
6
CONTINUOUS
10
0.945246
20
0.685657
11
0.947259
21
0.680287
0
LINE
8
BLACK
6
CONTINUOUS
10
0.947259
20
0.680287
11
0.950698
21
0.675698
0
LINE
8
BLACK
6
CONTINUOUS
10
0.950698
20
0.675698
11
0.953022
21
0.673957
0
LINE
8
BLACK
6
CONTINUOUS
10
0.953022
20
0.673957
11
0.954695
21
0.671719
0
LINE
8
BLACK
6
CONTINUOUS
10
0.954695
20
0.671719
11
0.954893
21
0.668931
0
LINE
8
BLACK
6
CONTINUOUS
10
0.954893
20
0.668931
11
0.953552
21
0.666478
0
LINE
8
BLACK
6
CONTINUOUS
10
0.953552
20
0.666478
11
0.953022
21
0.666018
0
LINE
8
BLACK
6
CONTINUOUS
10
0.953022
20
0.666018
11
0.950995
21
0.664499
0
LINE
8
BLACK
6
CONTINUOUS
10
0.950995
20
0.664499
11
0.950501
21
0.664005
0
LINE
8
BLACK
6
CONTINUOUS
10
0.950501
20
0.664005
11
0.947489
21
0.659986
0
LINE
8
BLACK
6
CONTINUOUS
10
0.947489
20
0.659986
11
0.947153
21
0.659372
0
LINE
8
BLACK
6
CONTINUOUS
10
0.947153
20
0.659372
11
0.945375
21
0.65463
0
LINE
8
BLACK
6
CONTINUOUS
10
0.945375
20
0.65463
11
0.945232
21
0.65403
0
LINE
8
BLACK
6
CONTINUOUS
10
0.945232
20
0.65403
11
0.945015
21
0.652027
0
LINE
8
BLACK
6
CONTINUOUS
10
0.945015
20
0.652027
11
0.945
21
0.651759
0
LINE
8
BLACK
6
CONTINUOUS
10
0.945
20
0.651759
11
0.945
21
0.630713
0
LINE
8
BLACK
6
CONTINUOUS
10
0.945
20
0.630713
11
0.945176
21
0.630113
0
LINE
8
BLACK
6
CONTINUOUS
10
0.945176
20
0.630113
11
0.945231
21
0.630066
0
LINE
8
BLACK
6
CONTINUOUS
10
0.945231
20
0.630066
11
0.945533
21
0.63
0
LINE
8
BLACK
6
CONTINUOUS
10
0.945533
20
0.63
11
0.965
21
0.63
0
LINE
8
BLACK
6
CONTINUOUS
10
0.965
20
0.63
11
0.965
21
0.65
0
LINE
8
BLACK
6
CONTINUOUS
10
0.965
20
0.65
11
1.025
21
0.65
0
LINE
8
BLACK
6
CONTINUOUS
10
1.025
20
0.65
11
1.025
21
0.63
0
LINE
8
BLACK
6
CONTINUOUS
10
1.025
20
0.63
11
1.065
21
0.63
0
LINE
8
BLACK
6
CONTINUOUS
10
1.065
20
0.63
11
1.065
21
0.65
0
LINE
8
BLACK
6
CONTINUOUS
10
1.065
20
0.65
11
1.125
21
0.65
0
LINE
8
BLACK
6
CONTINUOUS
10
1.125
20
0.65
11
1.125
21
0.63
0
LINE
8
BLACK
6
CONTINUOUS
10
1.125
20
0.63
11
1.14429
21
0.63
0
LINE
8
BLACK
6
CONTINUOUS
10
1.14429
20
0.63
11
1.14489
21
0.630176
0
LINE
8
BLACK
6
CONTINUOUS
10
1.14489
20
0.630176
11
1.14493
21
0.630231
0
LINE
8
BLACK
6
CONTINUOUS
10
1.14493
20
0.630231
11
1.145
21
0.630533
0
LINE
8
BLACK
6
CONTINUOUS
10
1.145
20
0.630533
11
1.145
21
0.651759
0
LINE
8
BLACK
6
CONTINUOUS
10
1.145
20
0.651759
11
1.14499
21
0.652027
0
LINE
8
BLACK
6
CONTINUOUS
10
1.14499
20
0.652027
11
1.14477
21
0.65403
0
LINE
8
BLACK
6
CONTINUOUS
10
1.14477
20
0.65403
11
1.14463
21
0.65463
0
LINE
8
BLACK
6
CONTINUOUS
10
1.14463
20
0.65463
11
1.14285
21
0.659372
0
LINE
8
BLACK
6
CONTINUOUS
10
1.14285
20
0.659372
11
1.14251
21
0.659986
0
LINE
8
BLACK
6
CONTINUOUS
10
1.14251
20
0.659986
11
1.1395
21
0.664005
0
LINE
8
BLACK
6
CONTINUOUS
10
1.1395
20
0.664005
11
1.139
21
0.664499
0
LINE
8
BLACK
6
CONTINUOUS
10
1.139
20
0.664499
11
1.13698
21
0.666018
0
LINE
8
BLACK
6
CONTINUOUS
10
1.13698
20
0.666018
11
1.1353
21
0.668257
0
LINE
8
BLACK
6
CONTINUOUS
10
1.1353
20
0.668257
11
1.13511
21
0.671045
0
LINE
8
BLACK
6
CONTINUOUS
10
1.13511
20
0.671045
11
1.13645
21
0.673497
0
LINE
8
BLACK
6
CONTINUOUS
10
1.13645
20
0.673497
11
1.13698
21
0.673957
0
LINE
8
BLACK
6
CONTINUOUS
10
1.13698
20
0.673957
11
1.1393
21
0.675698
0
LINE
8
BLACK
6
CONTINUOUS
10
1.1393
20
0.675698
11
1.14274
21
0.680287
0
LINE
8
BLACK
6
CONTINUOUS
10
1.14274
20
0.680287
11
1.14475
21
0.685657
0
LINE
8
BLACK
6
CONTINUOUS
10
1.14475
20
0.685657
11
1.14502
21
0.688105
0
LINE
8
BLACK
6
CONTINUOUS
10
1.14502
20
0.688105
11
1.14502
21
0.751895
0
LINE
8
BLACK
6
CONTINUOUS
10
1.14502
20
0.751895
11
1.14475
21
0.754343
0
LINE
8
BLACK
6
CONTINUOUS
10
1.14475
20
0.754343
11
1.14274
21
0.759713
0
LINE
8
BLACK
6
CONTINUOUS
10
1.14274
20
0.759713
11
1.1393
21
0.764302
0
LINE
8
BLACK
6
CONTINUOUS
10
1.1393
20
0.764302
11
1.13699
21
0.76603
0
LINE
8
BLACK
6
CONTINUOUS
10
1.13699
20
0.76603
11
1.13532
21
0.768269
0
LINE
8
BLACK
6
CONTINUOUS
10
1.13532
20
0.768269
11
1.13512
21
0.771057
0
LINE
8
BLACK
6
CONTINUOUS
10
1.13512
20
0.771057
11
1.13646
21
0.77351
0
LINE
8
BLACK
6
CONTINUOUS
10
1.13646
20
0.77351
11
1.13699
21
0.77397
0
LINE
8
BLACK
6
CONTINUOUS
10
1.13699
20
0.77397
11
1.13902
21
0.775487
0
LINE
8
BLACK
6
CONTINUOUS
10
1.13902
20
0.775487
11
1.1393
21
0.775698
0
LINE
8
BLACK
6
CONTINUOUS
10
1.1393
20
0.775698
11
1.14274
21
0.780287
0
LINE
8
BLACK
6
CONTINUOUS
10
1.14274
20
0.780287
11
1.14475
21
0.785657
0
LINE
8
BLACK
6
CONTINUOUS
10
1.14475
20
0.785657
11
1.14502
21
0.788105
0
LINE
8
BLACK
6
CONTINUOUS
10
1.14502
20
0.788105
11
1.14502
21
0.851895
0
LINE
8
BLACK
6
CONTINUOUS
10
1.14502
20
0.851895
11
1.14475
21
0.854343
0
LINE
8
BLACK
6
CONTINUOUS
10
1.14475
20
0.854343
11
1.14274
21
0.859713
0
LINE
8
BLACK
6
CONTINUOUS
10
1.14274
20
0.859713
11
1.1393
21
0.864302
0
LINE
8
BLACK
6
CONTINUOUS
10
1.1393
20
0.864302
11
1.13699
21
0.86603
0
LINE
8
BLACK
6
CONTINUOUS
10
1.13699
20
0.86603
11
1.13532
21
0.868269
0
LINE
8
BLACK
6
CONTINUOUS
10
1.13532
20
0.868269
11
1.13512
21
0.871057
0
LINE
8
BLACK
6
CONTINUOUS
10
1.13512
20
0.871057
11
1.13646
21
0.87351
0
LINE
8
BLACK
6
CONTINUOUS
10
1.13646
20
0.87351
11
1.13699
21
0.87397
0
LINE
8
BLACK
6
CONTINUOUS
10
1.13699
20
0.87397
11
1.13902
21
0.875487
0
LINE
8
BLACK
6
CONTINUOUS
10
1.13902
20
0.875487
11
1.1393
21
0.875698
0
LINE
8
BLACK
6
CONTINUOUS
10
1.1393
20
0.875698
11
1.14274
21
0.880287
0
LINE
8
BLACK
6
CONTINUOUS
10
1.14274
20
0.880287
11
1.14475
21
0.885657
0
LINE
8
BLACK
6
CONTINUOUS
10
1.14475
20
0.885657
11
1.14502
21
0.888105
0
LINE
8
BLACK
6
CONTINUOUS
10
1.14502
20
0.888105
11
1.14502
21
0.951895
0
LINE
8
BLACK
6
CONTINUOUS
10
1.14502
20
0.951895
11
1.14475
21
0.954343
0
LINE
8
BLACK
6
CONTINUOUS
10
1.14475
20
0.954343
11
1.14274
21
0.959713
0
LINE
8
BLACK
6
CONTINUOUS
10
1.14274
20
0.959713
11
1.1393
21
0.964302
0
LINE
8
BLACK
6
CONTINUOUS
10
1.1393
20
0.964302
11
1.13471
21
0.967741
0
LINE
8
BLACK
6
CONTINUOUS
10
1.13471
20
0.967741
11
1.12934
21
0.969754
0
LINE
8
BLACK
6
CONTINUOUS
10
1.12934
20
0.969754
11
1.1269
21
0.97002
0
LINE
8
BLACK
6
CONTINUOUS
10
1.1269
20
0.97002
11
1.0631
21
0.97002
0
LINE
8
BLACK
6
CONTINUOUS
10
1.0631
20
0.97002
11
1.06066
21
0.969754
0
LINE
8
BLACK
6
CONTINUOUS
10
1.06066
20
0.969754
11
1.05529
21
0.967741
0
LINE
8
BLACK
6
CONTINUOUS
10
1.05529
20
0.967741
11
1.0507
21
0.964302
0
LINE
8
BLACK
6
CONTINUOUS
10
1.0507
20
0.964302
11
1.05049
21
0.964019
0
LINE
8
BLACK
6
CONTINUOUS
10
1.05049
20
0.964019
11
1.04897
21
0.961995
0
LINE
8
BLACK
6
CONTINUOUS
10
1.04897
20
0.961995
11
1.04673
21
0.960321
0
LINE
8
BLACK
6
CONTINUOUS
10
1.04673
20
0.960321
11
1.04394
21
0.960123
0
LINE
8
BLACK
6
CONTINUOUS
10
1.04394
20
0.960123
11
1.04149
21
0.961464
0
LINE
8
BLACK
6
CONTINUOUS
10
1.04149
20
0.961464
11
1.04103
21
0.961995
0
LINE
8
BLACK
6
CONTINUOUS
10
1.04103
20
0.961995
11
1.03951
21
0.964019
0
LINE
8
BLACK
6
CONTINUOUS
10
1.03951
20
0.964019
11
1.0393
21
0.964302
0
LINE
8
BLACK
6
CONTINUOUS
10
1.0393
20
0.964302
11
1.03471
21
0.967741
0
LINE
8
BLACK
6
CONTINUOUS
10
1.03471
20
0.967741
11
1.02934
21
0.969754
0
LINE
8
BLACK
6
CONTINUOUS
10
1.02934
20
0.969754
11
1.0269
21
0.97002
0
LINE
8
BLACK
6
CONTINUOUS
10
1.0269
20
0.97002
11
0.963105
21
0.97002
0
LINE
8
BLACK
6
CONTINUOUS
10
0.963105
20
0.97002
11
0.960657
21
0.969754
0
LINE
8
BLACK
6
CONTINUOUS
10
0.960657
20
0.969754
11
0.955287
21
0.967741
0
LINE
8
BLACK
6
CONTINUOUS
10
0.955287
20
0.967741
11
0.950698
21
0.964302
0
LINE
8
BLACK
6
CONTINUOUS
10
0.950698
20
0.964302
11
0.947259
21
0.959713
0
LINE
8
BLACK
6
CONTINUOUS
10
0.947259
20
0.959713
11
0.945246
21
0.954343
0
LINE
8
BLACK
6
CONTINUOUS
10
0.945246
20
0.954343
11
0.945213
21
0.954034
0
LINE
8
BLACK
6
CONTINUOUS
10
0.945213
20
0.954034
11
0.945141
21
0.953731
0
LINE
8
BLACK
6
CONTINUOUS
10
0.945141
20
0.953731
11
0.945021
21
0.95376
0
LINE
8
BLACK
6
CONTINUOUS
10
0.945021
20
0.95376
11
0.944167
21
0.951705
0
LINE
8
BLACK
6
CONTINUOUS
10
0.944167
20
0.951705
11
0.941869
21
0.950114
0
LINE
8
BLACK
6
CONTINUOUS
10
0.941869
20
0.950114
11
0.940309
21
0.949862
0
LINE
8
BLACK
6
CONTINUOUS
10
0.940309
20
0.949862
11
0.90764
21
0.949862
0
LINE
8
BLACK
6
CONTINUOUS
10
0.90764
20
0.949862
11
0.906894
21
0.949919
0
LINE
8
BLACK
6
CONTINUOUS
10
0.906894
20
0.949919
11
0.906886
21
0.94992
0
LINE
8
BLACK
6
CONTINUOUS
10
0.906886
20
0.94992
11
0.906049
21
0.950047
0
LINE
8
BLACK
6
CONTINUOUS
10
0.906049
20
0.950047
11
0.905762
21
0.950024
0
LINE
8
BLACK
6
CONTINUOUS
10
0.905762
20
0.950024
11
0.905762
21
0.950024
0
LINE
8
BLACK
6
CONTINUOUS
10
0.905762
20
0.950024
11
0.903976
21
0.949879
0
LINE
8
BLACK
6
CONTINUOUS
10
0.903976
20
0.949879
11
0.903574
21
0.949862
0
LINE
8
BLACK
6
CONTINUOUS
10
0.903574
20
0.949862
11
0.903256
21
0.949862
0
LINE
8
BLACK
6
CONTINUOUS
10
0.903256
20
0.949862
11
0.903114
21
0.949846
0
LINE
8
BLACK
6
CONTINUOUS
10
0.903114
20
0.949846
11
0.903113
21
0.949846
0
LINE
8
BLACK
6
CONTINUOUS
10
0.903113
20
0.949846
11
0.902144
21
0.949733
0
LINE
8
BLACK
6
CONTINUOUS
10
0.902144
20
0.949733
11
0.901972
21
0.949716
0
LINE
8
BLACK
6
CONTINUOUS
10
0.901972
20
0.949716
11
0.900984
21
0.949635
0
LINE
8
BLACK
6
CONTINUOUS
10
0.900984
20
0.949635
11
0.899396
21
0.949506
0
LINE
8
BLACK
6
CONTINUOUS
10
0.899396
20
0.949506
11
0.899396
21
0.949506
0
LINE
8
BLACK
6
CONTINUOUS
10
0.899396
20
0.949506
11
0.899109
21
0.949483
0
LINE
8
BLACK
6
CONTINUOUS
10
0.899109
20
0.949483
11
0.898835
21
0.949394
0
LINE
8
BLACK
6
CONTINUOUS
10
0.898835
20
0.949394
11
0.8986
21
0.949347
0
LINE
8
BLACK
6
CONTINUOUS
10
0.8986
20
0.949347
11
0.898369
21
0.949292
0
LINE
8
BLACK
6
CONTINUOUS
10
0.898369
20
0.949292
11
0.898083
21
0.949259
0
LINE
8
BLACK
6
CONTINUOUS
10
0.898083
20
0.949259
11
0.895381
21
0.948278
0
LINE
8
BLACK
6
CONTINUOUS
10
0.895381
20
0.948278
11
0.895218
21
0.948222
0
LINE
8
BLACK
6
CONTINUOUS
10
0.895218
20
0.948222
11
0.892758
21
0.947425
0
LINE
8
BLACK
6
CONTINUOUS
10
0.892758
20
0.947425
11
0.892758
21
0.947425
0
LINE
8
BLACK
6
CONTINUOUS
10
0.892758
20
0.947425
11
0.892484
21
0.947337
0
LINE
8
BLACK
6
CONTINUOUS
10
0.892484
20
0.947337
11
0.892238
21
0.947187
0
LINE
8
BLACK
6
CONTINUOUS
10
0.892238
20
0.947187
11
0.892023
21
0.947089
0
LINE
8
BLACK
6
CONTINUOUS
10
0.892023
20
0.947089
11
0.891809
21
0.946981
0
LINE
8
BLACK
6
CONTINUOUS
10
0.891809
20
0.946981
11
0.891538
21
0.946883
0
LINE
8
BLACK
6
CONTINUOUS
10
0.891538
20
0.946883
11
0.889134
21
0.945307
0
LINE
8
BLACK
6
CONTINUOUS
10
0.889134
20
0.945307
11
0.888989
21
0.945216
0
LINE
8
BLACK
6
CONTINUOUS
10
0.888989
20
0.945216
11
0.888194
21
0.944733
0
LINE
8
BLACK
6
CONTINUOUS
10
0.888194
20
0.944733
11
0.88672
21
0.943839
0
LINE
8
BLACK
6
CONTINUOUS
10
0.88672
20
0.943839
11
0.88672
21
0.943839
0
LINE
8
BLACK
6
CONTINUOUS
10
0.88672
20
0.943839
11
0.886531
21
0.943724
0
LINE
8
BLACK
6
CONTINUOUS
10
0.886531
20
0.943724
11
0.886201
21
0.943433
0
LINE
8
BLACK
6
CONTINUOUS
10
0.886201
20
0.943433
11
0.886201
21
0.943434
0
LINE
8
BLACK
6
CONTINUOUS
10
0.886201
20
0.943434
11
0.886083
21
0.94333
0
LINE
8
BLACK
6
CONTINUOUS
10
0.886083
20
0.94333
11
0.885955
21
0.943223
0
LINE
8
BLACK
6
CONTINUOUS
10
0.885955
20
0.943223
11
0.885714
21
0.943065
0
LINE
8
BLACK
6
CONTINUOUS
10
0.885714
20
0.943065
11
0.885517
21
0.942856
0
LINE
8
BLACK
6
CONTINUOUS
10
0.885517
20
0.942856
11
0.885516
21
0.942856
0
LINE
8
BLACK
6
CONTINUOUS
10
0.885516
20
0.942856
11
0.883617
21
0.940851
0
LINE
8
BLACK
6
CONTINUOUS
10
0.883617
20
0.940851
11
0.883523
21
0.940755
0
LINE
8
BLACK
6
CONTINUOUS
10
0.883523
20
0.940755
11
0.809832
21
0.867063
0
LINE
8
BLACK
6
CONTINUOUS
10
0.809832
20
0.867063
11
0.807378
21
0.865724
0
LINE
8
BLACK
6
CONTINUOUS
10
0.807378
20
0.865724
11
0.806324
21
0.86561
0
LINE
8
BLACK
6
CONTINUOUS
10
0.806324
20
0.86561
11
0.651019
21
0.86561
0
LINE
8
BLACK
6
CONTINUOUS
10
0.651019
20
0.86561
11
0.649866
21
0.865023
0
LINE
8
BLACK
6
CONTINUOUS
10
0.649866
20
0.865023
11
0.645
21
0.864252
0
LINE
8
BLACK
6
CONTINUOUS
10
0.645
20
0.864252
11
0.640134
21
0.865023
0
LINE
8
BLACK
6
CONTINUOUS
10
0.640134
20
0.865023
11
0.638981
21
0.86561
0
LINE
8
BLACK
6
CONTINUOUS
10
0.638981
20
0.86561
11
0.634705
21
0.86561
0
LINE
8
BLACK
6
CONTINUOUS
10
0.634705
20
0.86561
11
0.632023
21
0.866398
0
LINE
8
BLACK
6
CONTINUOUS
10
0.632023
20
0.866398
11
0.630192
21
0.86851
0
LINE
8
BLACK
6
CONTINUOUS
10
0.630192
20
0.86851
11
0.629744
21
0.870571
0
LINE
8
BLACK
6
CONTINUOUS
10
0.629744
20
0.870571
11
0.629744
21
0.876893
0
LINE
8
BLACK
6
CONTINUOUS
10
0.629744
20
0.876893
11
0.629252
21
0.88
0
LINE
8
BLACK
6
CONTINUOUS
10
0.629252
20
0.88
11
0.629744
21
0.883107
0
LINE
8
BLACK
6
CONTINUOUS
10
0.629744
20
0.883107
11
0.629744
21
0.916893
0
LINE
8
BLACK
6
CONTINUOUS
10
0.629744
20
0.916893
11
0.629252
21
0.92
0
LINE
8
BLACK
6
CONTINUOUS
10
0.629252
20
0.92
11
0.629744
21
0.923107
0
LINE
8
BLACK
6
CONTINUOUS
10
0.629744
20
0.923107
11
0.629744
21
0.948259
0
LINE
8
BLACK
6
CONTINUOUS
10
0.629744
20
0.948259
11
0.62726
21
0.950744
0
LINE
8
BLACK
6
CONTINUOUS
10
0.62726
20
0.950744
11
0.625023
21
0.955134
0
LINE
8
BLACK
6
CONTINUOUS
10
0.625023
20
0.955134
11
0.624252
21
0.96
0
LINE
8
BLACK
6
CONTINUOUS
10
0.624252
20
0.96
11
0.625023
21
0.964866
0
LINE
8
BLACK
6
CONTINUOUS
10
0.625023
20
0.964866
11
0.62726
21
0.969256
0
LINE
8
BLACK
6
CONTINUOUS
10
0.62726
20
0.969256
11
0.629744
21
0.971741
0
LINE
8
BLACK
6
CONTINUOUS
10
0.629744
20
0.971741
11
0.629744
21
1.00662
0
LINE
8
BLACK
6
CONTINUOUS
10
0.629744
20
1.00662
11
0.629478
21
1.00907
0
LINE
8
BLACK
6
CONTINUOUS
10
0.629478
20
1.00907
11
0.627465
21
1.01444
0
LINE
8
BLACK
6
CONTINUOUS
10
0.627465
20
1.01444
11
0.624026
21
1.01903
0
LINE
8
BLACK
6
CONTINUOUS
10
0.624026
20
1.01903
11
0.619437
21
1.02247
0
LINE
8
BLACK
6
CONTINUOUS
10
0.619437
20
1.02247
11
0.614068
21
1.02448
0
LINE
8
BLACK
6
CONTINUOUS
10
0.614068
20
1.02448
11
0.611619
21
1.02474
0
LINE
8
BLACK
6
CONTINUOUS
10
0.611619
20
1.02474
11
0.579779
21
1.02474
0
LINE
8
BLACK
6
CONTINUOUS
10
0.579779
20
1.02474
11
0.57774
21
1.02074
0
LINE
8
BLACK
6
CONTINUOUS
10
0.57774
20
1.02074
11
0.574256
21
1.01726
0
LINE
8
BLACK
6
CONTINUOUS
10
0.574256
20
1.01726
11
0.569866
21
1.01502
0
LINE
8
BLACK
6
CONTINUOUS
10
0.569866
20
1.01502
11
0.565
21
1.01425
0
LINE
8
BLACK
6
CONTINUOUS
10
0.565
20
1.01425
11
0.560134
21
1.01502
0
LINE
8
BLACK
6
CONTINUOUS
10
0.560134
20
1.01502
11
0.555744
21
1.01726
0
LINE
8
BLACK
6
CONTINUOUS
10
0.555744
20
1.01726
11
0.55226
21
1.02074
0
LINE
8
BLACK
6
CONTINUOUS
10
0.55226
20
1.02074
11
0.550221
21
1.02474
0
LINE
8
BLACK
6
CONTINUOUS
10
0.550221
20
1.02474
11
0.470034
21
1.02474
0
LINE
8
BLACK
6
CONTINUOUS
10
0.470034
20
1.02474
11
0.467586
21
1.02448
0
LINE
8
BLACK
6
CONTINUOUS
10
0.467586
20
1.02448
11
0.462216
21
1.02247
0
LINE
8
BLACK
6
CONTINUOUS
10
0.462216
20
1.02247
11
0.457628
21
1.01903
0
LINE
8
BLACK
6
CONTINUOUS
10
0.457628
20
1.01903
11
0.454188
21
1.01444
0
LINE
8
BLACK
6
CONTINUOUS
10
0.454188
20
1.01444
11
0.452175
21
1.00907
0
LINE
8
BLACK
6
CONTINUOUS
10
0.452175
20
1.00907
11
0.451909
21
1.00662
0
LINE
8
BLACK
6
CONTINUOUS
10
0.451909
20
1.00662
11
0.451909
21
0.865034
0
LINE
8
BLACK
6
CONTINUOUS
10
0.451909
20
0.865034
11
0.452175
21
0.862586
0
LINE
8
BLACK
6
CONTINUOUS
10
0.452175
20
0.862586
11
0.454188
21
0.857216
0
LINE
8
BLACK
6
CONTINUOUS
10
0.454188
20
0.857216
11
0.457628
21
0.852628
0
LINE
8
BLACK
6
CONTINUOUS
10
0.457628
20
0.852628
11
0.462216
21
0.849188
0
LINE
8
BLACK
6
CONTINUOUS
10
0.462216
20
0.849188
11
0.467586
21
0.847175
0
LINE
8
BLACK
6
CONTINUOUS
10
0.467586
20
0.847175
11
0.470034
21
0.846909
0
LINE
8
BLACK
6
CONTINUOUS
10
0.470034
20
0.846909
11
0.550643
21
0.846909
0
LINE
8
BLACK
6
CONTINUOUS
10
0.550643
20
0.846909
11
0.553325
21
0.846122
0
LINE
8
BLACK
6
CONTINUOUS
10
0.553325
20
0.846122
11
0.555156
21
0.84401
0
LINE
8
BLACK
6
CONTINUOUS
10
0.555156
20
0.84401
11
0.555553
21
0.841243
0
LINE
8
BLACK
6
CONTINUOUS
10
0.555553
20
0.841243
11
0.554939
21
0.839469
0
LINE
8
BLACK
6
CONTINUOUS
10
0.554939
20
0.839469
11
0.552145
21
0.834628
0
LINE
8
BLACK
6
CONTINUOUS
10
0.552145
20
0.834628
11
0.549821
21
0.827477
0
LINE
8
BLACK
6
CONTINUOUS
10
0.549821
20
0.827477
11
0.549035
21
0.82
0
LINE
8
BLACK
6
CONTINUOUS
10
0.549035
20
0.82
11
0.549062
21
0.819742
0
LINE
8
BLACK
6
CONTINUOUS
10
0.549062
20
0.819742
11
0.549567
21
0.814945
0
LINE
8
BLACK
6
CONTINUOUS
10
0.549567
20
0.814945
11
0.549821
21
0.812523
0
LINE
8
BLACK
6
CONTINUOUS
10
0.549821
20
0.812523
11
0.552145
21
0.805372
0
LINE
8
BLACK
6
CONTINUOUS
10
0.552145
20
0.805372
11
0.555904
21
0.79886
0
LINE
8
BLACK
6
CONTINUOUS
10
0.555904
20
0.79886
11
0.556078
21
0.798667
0
LINE
8
BLACK
6
CONTINUOUS
10
0.556078
20
0.798667
11
0.556078
21
0.798667
0
LINE
8
BLACK
6
CONTINUOUS
10
0.556078
20
0.798667
11
0.560761
21
0.793466
0
LINE
8
BLACK
6
CONTINUOUS
10
0.560761
20
0.793466
11
0.560935
21
0.793273
0
LINE
8
BLACK
6
CONTINUOUS
10
0.560935
20
0.793273
11
0.567018
21
0.788854
0
LINE
8
BLACK
6
CONTINUOUS
10
0.567018
20
0.788854
11
0.567255
21
0.788748
0
LINE
8
BLACK
6
CONTINUOUS
10
0.567255
20
0.788748
11
0.567255
21
0.788748
0
LINE
8
BLACK
6
CONTINUOUS
10
0.567255
20
0.788748
11
0.573649
21
0.785901
0
LINE
8
BLACK
6
CONTINUOUS
10
0.573649
20
0.785901
11
0.573886
21
0.785796
0
LINE
8
BLACK
6
CONTINUOUS
10
0.573886
20
0.785796
11
0.577564
21
0.785014
0
LINE
8
BLACK
6
CONTINUOUS
10
0.577564
20
0.785014
11
0.580986
21
0.784286
0
LINE
8
BLACK
6
CONTINUOUS
10
0.580986
20
0.784286
11
0.580987
21
0.784286
0
LINE
8
BLACK
6
CONTINUOUS
10
0.580987
20
0.784286
11
0.581241
21
0.784232
0
LINE
8
BLACK
6
CONTINUOUS
10
0.581241
20
0.784232
11
0.588759
21
0.784232
0
LINE
8
BLACK
6
CONTINUOUS
10
0.588759
20
0.784232
11
0.589013
21
0.784286
0
LINE
8
BLACK
6
CONTINUOUS
10
0.589013
20
0.784286
11
0.589014
21
0.784286
0
LINE
8
BLACK
6
CONTINUOUS
10
0.589014
20
0.784286
11
0.592436
21
0.785014
0
LINE
8
BLACK
6
CONTINUOUS
10
0.592436
20
0.785014
11
0.596114
21
0.785796
0
LINE
8
BLACK
6
CONTINUOUS
10
0.596114
20
0.785796
11
0.596351
21
0.785901
0
LINE
8
BLACK
6
CONTINUOUS
10
0.596351
20
0.785901
11
0.602745
21
0.788748
0
LINE
8
BLACK
6
CONTINUOUS
10
0.602745
20
0.788748
11
0.602745
21
0.788748
0
LINE
8
BLACK
6
CONTINUOUS
10
0.602745
20
0.788748
11
0.602982
21
0.788854
0
LINE
8
BLACK
6
CONTINUOUS
10
0.602982
20
0.788854
11
0.609065
21
0.793273
0
LINE
8
BLACK
6
CONTINUOUS
10
0.609065
20
0.793273
11
0.609239
21
0.793466
0
LINE
8
BLACK
6
CONTINUOUS
10
0.609239
20
0.793466
11
0.613922
21
0.798667
0
LINE
8
BLACK
6
CONTINUOUS
10
0.613922
20
0.798667
11
0.613922
21
0.798667
0
LINE
8
BLACK
6
CONTINUOUS
10
0.613922
20
0.798667
11
0.614096
21
0.79886
0
LINE
8
BLACK
6
CONTINUOUS
10
0.614096
20
0.79886
11
0.61672
21
0.803405
0
LINE
8
BLACK
6
CONTINUOUS
10
0.61672
20
0.803405
11
0.618743
21
0.805334
0
LINE
8
BLACK
6
CONTINUOUS
10
0.618743
20
0.805334
11
0.621016
21
0.805886
0
LINE
8
BLACK
6
CONTINUOUS
10
0.621016
20
0.805886
11
0.656678
21
0.805886
0
LINE
8
BLACK
6
CONTINUOUS
10
0.656678
20
0.805886
11
0.65936
21
0.805098
0
LINE
8
BLACK
6
CONTINUOUS
10
0.65936
20
0.805098
11
0.661191
21
0.802986
0
LINE
8
BLACK
6
CONTINUOUS
10
0.661191
20
0.802986
11
0.661588
21
0.800219
0
LINE
8
BLACK
6
CONTINUOUS
10
0.661588
20
0.800219
11
0.660427
21
0.797677
0
LINE
8
BLACK
6
CONTINUOUS
10
0.660427
20
0.797677
11
0.660186
21
0.797417
0
LINE
8
BLACK
6
CONTINUOUS
10
0.660186
20
0.797417
11
0.625752
21
0.762983
0
LINE
8
BLACK
6
CONTINUOUS
10
0.625752
20
0.762983
11
0.625184
21
0.762495
0
LINE
8
BLACK
6
CONTINUOUS
10
0.625184
20
0.762495
11
0.624728
21
0.762159
0
LINE
8
BLACK
6
CONTINUOUS
10
0.624728
20
0.762159
11
0.624727
21
0.762159
0
LINE
8
BLACK
6
CONTINUOUS
10
0.624727
20
0.762159
11
0.624495
21
0.761989
0
LINE
8
BLACK
6
CONTINUOUS
10
0.624495
20
0.761989
11
0.624309
21
0.761769
0
LINE
8
BLACK
6
CONTINUOUS
10
0.624309
20
0.761769
11
0.624309
21
0.761769
0
LINE
8
BLACK
6
CONTINUOUS
10
0.624309
20
0.761769
11
0.623148
21
0.760403
0
LINE
8
BLACK
6
CONTINUOUS
10
0.623148
20
0.760403
11
0.622875
21
0.760107
0
LINE
8
BLACK
6
CONTINUOUS
10
0.622875
20
0.760107
11
0.622651
21
0.759883
0
LINE
8
BLACK
6
CONTINUOUS
10
0.622651
20
0.759883
11
0.622561
21
0.759769
0
LINE
8
BLACK
6
CONTINUOUS
10
0.622561
20
0.759769
11
0.621957
21
0.759006
0
LINE
8
BLACK
6
CONTINUOUS
10
0.621957
20
0.759006
11
0.621848
21
0.758872
0
LINE
8
BLACK
6
CONTINUOUS
10
0.621848
20
0.758872
11
0.620174
21
0.756901
0
LINE
8
BLACK
6
CONTINUOUS
10
0.620174
20
0.756901
11
0.619987
21
0.756682
0
LINE
8
BLACK
6
CONTINUOUS
10
0.619987
20
0.756682
11
0.619856
21
0.756425
0
LINE
8
BLACK
6
CONTINUOUS
10
0.619856
20
0.756425
11
0.619723
21
0.756226
0
LINE
8
BLACK
6
CONTINUOUS
10
0.619723
20
0.756226
11
0.619599
21
0.756024
0
LINE
8
BLACK
6
CONTINUOUS
10
0.619599
20
0.756024
11
0.61942
21
0.755799
0
LINE
8
BLACK
6
CONTINUOUS
10
0.61942
20
0.755799
11
0.619298
21
0.755538
0
LINE
8
BLACK
6
CONTINUOUS
10
0.619298
20
0.755538
11
0.619147
21
0.755292
0
LINE
8
BLACK
6
CONTINUOUS
10
0.619147
20
0.755292
11
0.619087
21
0.755329
0
LINE
8
BLACK
6
CONTINUOUS
10
0.619087
20
0.755329
11
0.617479
21
0.753505
0
LINE
8
BLACK
6
CONTINUOUS
10
0.617479
20
0.753505
11
0.61479
21
0.752741
0
LINE
8
BLACK
6
CONTINUOUS
10
0.61479
20
0.752741
11
0.614068
21
0.752829
0
LINE
8
BLACK
6
CONTINUOUS
10
0.614068
20
0.752829
11
0.614068
21
0.752825
0
LINE
8
BLACK
6
CONTINUOUS
10
0.614068
20
0.752825
11
0.611753
21
0.753076
0
LINE
8
BLACK
6
CONTINUOUS
10
0.611753
20
0.753076
11
0.611619
21
0.753091
0
LINE
8
BLACK
6
CONTINUOUS
10
0.611619
20
0.753091
11
0.57967
21
0.753091
0
LINE
8
BLACK
6
CONTINUOUS
10
0.57967
20
0.753091
11
0.577652
21
0.753519
0
LINE
8
BLACK
6
CONTINUOUS
10
0.577652
20
0.753519
11
0.576351
21
0.754099
0
LINE
8
BLACK
6
CONTINUOUS
10
0.576351
20
0.754099
11
0.576351
21
0.754099
0
LINE
8
BLACK
6
CONTINUOUS
10
0.576351
20
0.754099
11
0.576114
21
0.754204
0
LINE
8
BLACK
6
CONTINUOUS
10
0.576114
20
0.754204
11
0.574091
21
0.754634
0
LINE
8
BLACK
6
CONTINUOUS
10
0.574091
20
0.754634
11
0.569014
21
0.755714
0
LINE
8
BLACK
6
CONTINUOUS
10
0.569014
20
0.755714
11
0.569013
21
0.755714
0
LINE
8
BLACK
6
CONTINUOUS
10
0.569013
20
0.755714
11
0.568759
21
0.755768
0
LINE
8
BLACK
6
CONTINUOUS
10
0.568759
20
0.755768
11
0.561241
21
0.755768
0
LINE
8
BLACK
6
CONTINUOUS
10
0.561241
20
0.755768
11
0.560987
21
0.755714
0
LINE
8
BLACK
6
CONTINUOUS
10
0.560987
20
0.755714
11
0.560986
21
0.755714
0
LINE
8
BLACK
6
CONTINUOUS
10
0.560986
20
0.755714
11
0.555909
21
0.754634
0
LINE
8
BLACK
6
CONTINUOUS
10
0.555909
20
0.754634
11
0.553886
21
0.754204
0
LINE
8
BLACK
6
CONTINUOUS
10
0.553886
20
0.754204
11
0.553649
21
0.754099
0
LINE
8
BLACK
6
CONTINUOUS
10
0.553649
20
0.754099
11
0.553649
21
0.754099
0
LINE
8
BLACK
6
CONTINUOUS
10
0.553649
20
0.754099
11
0.552348
21
0.753519
0
LINE
8
BLACK
6
CONTINUOUS
10
0.552348
20
0.753519
11
0.55033
21
0.753091
0
LINE
8
BLACK
6
CONTINUOUS
10
0.55033
20
0.753091
11
0.470034
21
0.753091
0
LINE
8
BLACK
6
CONTINUOUS
10
0.470034
20
0.753091
11
0.467586
21
0.752825
0
LINE
8
BLACK
6
CONTINUOUS
10
0.467586
20
0.752825
11
0.462216
21
0.750812
0
LINE
8
BLACK
6
CONTINUOUS
10
0.462216
20
0.750812
11
0.457628
21
0.747372
0
LINE
8
BLACK
6
CONTINUOUS
10
0.457628
20
0.747372
11
0.454188
21
0.742784
0
LINE
8
BLACK
6
CONTINUOUS
10
0.454188
20
0.742784
11
0.452175
21
0.737414
0
LINE
8
BLACK
6
CONTINUOUS
10
0.452175
20
0.737414
11
0.451909
21
0.734966
0
LINE
8
BLACK
6
CONTINUOUS
10
0.451909
20
0.734966
11
0.451909
21
0.593381
0
LINE
8
BLACK
6
CONTINUOUS
10
0.451909
20
0.593381
11
0.452175
21
0.590932
0
LINE
8
BLACK
6
CONTINUOUS
10
0.452175
20
0.590932
11
0.454188
21
0.585563
0
LINE
8
BLACK
6
CONTINUOUS
10
0.454188
20
0.585563
11
0.457628
21
0.580974
0
LINE
8
BLACK
6
CONTINUOUS
10
0.457628
20
0.580974
11
0.462216
21
0.577535
0
LINE
8
BLACK
6
CONTINUOUS
10
0.462216
20
0.577535
11
0.467586
21
0.575522
0
LINE
8
BLACK
6
CONTINUOUS
10
0.467586
20
0.575522
11
0.470034
21
0.575256
0
LINE
8
BLACK
6
CONTINUOUS
10
0.470034
20
0.575256
11
0.611619
21
0.575256
0
LINE
8
BLACK
6
CONTINUOUS
10
0.611619
20
0.575256
11
0.614068
21
0.575522
0
LINE
8
BLACK
6
CONTINUOUS
10
0.614068
20
0.575522
11
0.619437
21
0.577535
0
LINE
8
BLACK
6
CONTINUOUS
10
0.619437
20
0.577535
11
0.624026
21
0.580974
0
LINE
8
BLACK
6
CONTINUOUS
10
0.624026
20
0.580974
11
0.627465
21
0.585563
0
LINE
8
BLACK
6
CONTINUOUS
10
0.627465
20
0.585563
11
0.629478
21
0.590932
0
LINE
8
BLACK
6
CONTINUOUS
10
0.629478
20
0.590932
11
0.629744
21
0.593381
0
LINE
8
BLACK
6
CONTINUOUS
10
0.629744
20
0.593381
11
0.629744
21
0.60055
0
LINE
8
BLACK
6
CONTINUOUS
10
0.629744
20
0.60055
11
0.630532
21
0.603232
0
LINE
8
BLACK
6
CONTINUOUS
10
0.630532
20
0.603232
11
0.632644
21
0.605062
0
LINE
8
BLACK
6
CONTINUOUS
10
0.632644
20
0.605062
11
0.635411
21
0.60546
0
LINE
8
BLACK
6
CONTINUOUS
10
0.635411
20
0.60546
11
0.635736
21
0.605402
0
LINE
8
BLACK
6
CONTINUOUS
10
0.635736
20
0.605402
11
0.640986
21
0.604286
0
LINE
8
BLACK
6
CONTINUOUS
10
0.640986
20
0.604286
11
0.640987
21
0.604286
0
LINE
8
BLACK
6
CONTINUOUS
10
0.640987
20
0.604286
11
0.641241
21
0.604232
0
LINE
8
BLACK
6
CONTINUOUS
10
0.641241
20
0.604232
11
0.648759
21
0.604232
0
LINE
8
BLACK
6
CONTINUOUS
10
0.648759
20
0.604232
11
0.649013
21
0.604286
0
LINE
8
BLACK
6
CONTINUOUS
10
0.649013
20
0.604286
11
0.649014
21
0.604286
0
LINE
8
BLACK
6
CONTINUOUS
10
0.649014
20
0.604286
11
0.652665
21
0.605062
0
LINE
8
BLACK
6
CONTINUOUS
10
0.652665
20
0.605062
11
0.656114
21
0.605796
0
LINE
8
BLACK
6
CONTINUOUS
10
0.656114
20
0.605796
11
0.660256
21
0.60764
0
LINE
8
BLACK
6
CONTINUOUS
10
0.660256
20
0.60764
11
0.662745
21
0.608748
0
LINE
8
BLACK
6
CONTINUOUS
10
0.662745
20
0.608748
11
0.662745
21
0.608748
0
LINE
8
BLACK
6
CONTINUOUS
10
0.662745
20
0.608748
11
0.662982
21
0.608854
0
LINE
8
BLACK
6
CONTINUOUS
10
0.662982
20
0.608854
11
0.66447
21
0.609934
0
LINE
8
BLACK
6
CONTINUOUS
10
0.66447
20
0.609934
11
0.665164
21
0.610438
0
LINE
8
BLACK
6
CONTINUOUS
10
0.665164
20
0.610438
11
0.669065
21
0.613273
0
LINE
8
BLACK
6
CONTINUOUS
10
0.669065
20
0.613273
11
0.674096
21
0.61886
0
LINE
8
BLACK
6
CONTINUOUS
10
0.674096
20
0.61886
11
0.677855
21
0.625372
0
LINE
8
BLACK
6
CONTINUOUS
10
0.677855
20
0.625372
11
0.678394
21
0.627031
0
LINE
8
BLACK
6
CONTINUOUS
10
0.678394
20
0.627031
11
0.675744
21
0.628382
0
LINE
8
BLACK
6
CONTINUOUS
10
0.675744
20
0.628382
11
0.67226
21
0.631866
0
LINE
8
BLACK
6
CONTINUOUS
10
0.67226
20
0.631866
11
0.670023
21
0.636256
0
LINE
8
BLACK
6
CONTINUOUS
10
0.670023
20
0.636256
11
0.669252
21
0.641122
0
LINE
8
BLACK
6
CONTINUOUS
10
0.669252
20
0.641122
11
0.670023
21
0.645989
0
LINE
8
BLACK
6
CONTINUOUS
10
0.670023
20
0.645989
11
0.67226
21
0.650379
0
LINE
8
BLACK
6
CONTINUOUS
10
0.67226
20
0.650379
11
0.675744
21
0.653863
0
LINE
8
BLACK
6
CONTINUOUS
10
0.675744
20
0.653863
11
0.677717
21
0.654868
0
LINE
8
BLACK
6
CONTINUOUS
10
0.677717
20
0.654868
11
0.675527
21
0.658661
0
LINE
8
BLACK
6
CONTINUOUS
10
0.675527
20
0.658661
11
0.674862
21
0.661142
0
LINE
8
BLACK
6
CONTINUOUS
10
0.674862
20
0.661142
11
0.674862
21
0.725576
0
LINE
8
BLACK
6
CONTINUOUS
10
0.674862
20
0.725576
11
0.67565
21
0.728258
0
LINE
8
BLACK
6
CONTINUOUS
10
0.67565
20
0.728258
11
0.676315
21
0.729084
0
LINE
8
BLACK
6
CONTINUOUS
10
0.676315
20
0.729084
11
0.711155
21
0.763923
0
LINE
8
BLACK
6
CONTINUOUS
10
0.711155
20
0.763923
11
0.713631
21
0.765268
0
LINE
8
BLACK
6
CONTINUOUS
10
0.713631
20
0.765268
11
0.715859
21
0.765741
0
LINE
8
BLACK
6
CONTINUOUS
10
0.715859
20
0.765741
11
0.71586
21
0.765741
0
LINE
8
BLACK
6
CONTINUOUS
10
0.71586
20
0.765741
11
0.716114
21
0.765796
0
LINE
8
BLACK
6
CONTINUOUS
10
0.716114
20
0.765796
11
0.716351
21
0.765901
0
LINE
8
BLACK
6
CONTINUOUS
10
0.716351
20
0.765901
11
0.722745
21
0.768748
0
LINE
8
BLACK
6
CONTINUOUS
10
0.722745
20
0.768748
11
0.722745
21
0.768748
0
LINE
8
BLACK
6
CONTINUOUS
10
0.722745
20
0.768748
11
0.722982
21
0.768854
0
LINE
8
BLACK
6
CONTINUOUS
10
0.722982
20
0.768854
11
0.729065
21
0.773273
0
LINE
8
BLACK
6
CONTINUOUS
10
0.729065
20
0.773273
11
0.734096
21
0.77886
0
LINE
8
BLACK
6
CONTINUOUS
10
0.734096
20
0.77886
11
0.737855
21
0.785372
0
LINE
8
BLACK
6
CONTINUOUS
10
0.737855
20
0.785372
11
0.740179
21
0.792523
0
LINE
8
BLACK
6
CONTINUOUS
10
0.740179
20
0.792523
11
0.740242
21
0.79312
0
LINE
8
BLACK
6
CONTINUOUS
10
0.740242
20
0.79312
11
0.740938
21
0.799742
0
LINE
8
BLACK
6
CONTINUOUS
10
0.740938
20
0.799742
11
0.740965
21
0.8
0
LINE
8
BLACK
6
CONTINUOUS
10
0.740965
20
0.8
11
0.740922
21
0.800406
0
LINE
8
BLACK
6
CONTINUOUS
10
0.740922
20
0.800406
11
0.740938
21
0.800491
0
LINE
8
BLACK
6
CONTINUOUS
10
0.740938
20
0.800491
11
0.740938
21
0.800519
0
LINE
8
BLACK
6
CONTINUOUS
10
0.740938
20
0.800519
11
0.740943
21
0.800519
0
LINE
8
BLACK
6
CONTINUOUS
10
0.740943
20
0.800519
11
0.741425
21
0.803156
0
LINE
8
BLACK
6
CONTINUOUS
10
0.741425
20
0.803156
11
0.743334
21
0.805197
0
LINE
8
BLACK
6
CONTINUOUS
10
0.743334
20
0.805197
11
0.745855
21
0.805886
0
LINE
8
BLACK
6
CONTINUOUS
10
0.745855
20
0.805886
11
0.818107
21
0.805886
0
LINE
8
BLACK
6
CONTINUOUS
10
0.818107
20
0.805886
11
0.818854
21
0.805829
0
LINE
8
BLACK
6
CONTINUOUS
10
0.818854
20
0.805829
11
0.819414
21
0.805744
0
LINE
8
BLACK
6
CONTINUOUS
10
0.819414
20
0.805744
11
0.819414
21
0.805744
0
LINE
8
BLACK
6
CONTINUOUS
10
0.819414
20
0.805744
11
0.819699
21
0.805701
0
LINE
8
BLACK
6
CONTINUOUS
10
0.819699
20
0.805701
11
0.819986
21
0.805724
0
LINE
8
BLACK
6
CONTINUOUS
10
0.819986
20
0.805724
11
0.819986
21
0.805724
0
LINE
8
BLACK
6
CONTINUOUS
10
0.819986
20
0.805724
11
0.821772
21
0.805869
0
LINE
8
BLACK
6
CONTINUOUS
10
0.821772
20
0.805869
11
0.822174
21
0.805886
0
LINE
8
BLACK
6
CONTINUOUS
10
0.822174
20
0.805886
11
0.822492
21
0.805886
0
LINE
8
BLACK
6
CONTINUOUS
10
0.822492
20
0.805886
11
0.823015
21
0.805947
0
LINE
8
BLACK
6
CONTINUOUS
10
0.823015
20
0.805947
11
0.823603
21
0.806015
0
LINE
8
BLACK
6
CONTINUOUS
10
0.823603
20
0.806015
11
0.823775
21
0.806032
0
LINE
8
BLACK
6
CONTINUOUS
10
0.823775
20
0.806032
11
0.826352
21
0.806242
0
LINE
8
BLACK
6
CONTINUOUS
10
0.826352
20
0.806242
11
0.826352
21
0.806242
0
LINE
8
BLACK
6
CONTINUOUS
10
0.826352
20
0.806242
11
0.826639
21
0.806265
0
LINE
8
BLACK
6
CONTINUOUS
10
0.826639
20
0.806265
11
0.826913
21
0.806354
0
LINE
8
BLACK
6
CONTINUOUS
10
0.826913
20
0.806354
11
0.827148
21
0.806401
0
LINE
8
BLACK
6
CONTINUOUS
10
0.827148
20
0.806401
11
0.827379
21
0.806456
0
LINE
8
BLACK
6
CONTINUOUS
10
0.827379
20
0.806456
11
0.827665
21
0.806489
0
LINE
8
BLACK
6
CONTINUOUS
10
0.827665
20
0.806489
11
0.830367
21
0.80747
0
LINE
8
BLACK
6
CONTINUOUS
10
0.830367
20
0.80747
11
0.83053
21
0.807526
0
LINE
8
BLACK
6
CONTINUOUS
10
0.83053
20
0.807526
11
0.83299
21
0.808323
0
LINE
8
BLACK
6
CONTINUOUS
10
0.83299
20
0.808323
11
0.83299
21
0.808323
0
LINE
8
BLACK
6
CONTINUOUS
10
0.83299
20
0.808323
11
0.833264
21
0.808411
0
LINE
8
BLACK
6
CONTINUOUS
10
0.833264
20
0.808411
11
0.83351
21
0.808561
0
LINE
8
BLACK
6
CONTINUOUS
10
0.83351
20
0.808561
11
0.833725
21
0.808659
0
LINE
8
BLACK
6
CONTINUOUS
10
0.833725
20
0.808659
11
0.833939
21
0.808766
0
LINE
8
BLACK
6
CONTINUOUS
10
0.833939
20
0.808766
11
0.83421
21
0.808865
0
LINE
8
BLACK
6
CONTINUOUS
10
0.83421
20
0.808865
11
0.836613
21
0.81044
0
LINE
8
BLACK
6
CONTINUOUS
10
0.836613
20
0.81044
11
0.836759
21
0.810532
0
LINE
8
BLACK
6
CONTINUOUS
10
0.836759
20
0.810532
11
0.839217
21
0.812024
0
LINE
8
BLACK
6
CONTINUOUS
10
0.839217
20
0.812024
11
0.839547
21
0.812315
0
LINE
8
BLACK
6
CONTINUOUS
10
0.839547
20
0.812315
11
0.839548
21
0.812314
0
LINE
8
BLACK
6
CONTINUOUS
10
0.839548
20
0.812314
11
0.839665
21
0.812418
0
LINE
8
BLACK
6
CONTINUOUS
10
0.839665
20
0.812418
11
0.839793
21
0.812525
0
LINE
8
BLACK
6
CONTINUOUS
10
0.839793
20
0.812525
11
0.840034
21
0.812683
0
LINE
8
BLACK
6
CONTINUOUS
10
0.840034
20
0.812683
11
0.842131
21
0.814897
0
LINE
8
BLACK
6
CONTINUOUS
10
0.842131
20
0.814897
11
0.842225
21
0.814993
0
LINE
8
BLACK
6
CONTINUOUS
10
0.842225
20
0.814993
11
0.915916
21
0.888685
0
LINE
8
BLACK
6
CONTINUOUS
10
0.915916
20
0.888685
11
0.91837
21
0.890024
0
LINE
8
BLACK
6
CONTINUOUS
10
0.91837
20
0.890024
11
0.919424
21
0.890138
0
LINE
8
BLACK
6
CONTINUOUS
10
0.919424
20
0.890138
11
0.940309
21
0.890138
0
LINE
8
BLACK
6
CONTINUOUS
10
0.940309
20
0.890138
11
0.94299
21
0.88935
0
LINE
8
BLACK
6
CONTINUOUS
10
0.94299
20
0.88935
11
0.944821
21
0.887238
0
LINE
8
BLACK
6
CONTINUOUS
10
0.944821
20
0.887238
11
0.945091
21
0.886257
0
LINE
8
BLACK
6
CONTINUOUS
10
0.945091
20
0.886257
11
0.945141
21
0.886269
0
LINE
8
BLACK
6
CONTINUOUS
10
0.945141
20
0.886269
11
0.945213
21
0.885966
0
LINE
8
BLACK
6
CONTINUOUS
10
0.945213
20
0.885966
11
0.945246
21
0.885657
0
LINE
8
BLACK
6
CONTINUOUS
10
0.945246
20
0.885657
11
0.947259
21
0.880287
0
LINE
8
BLACK
6
CONTINUOUS
10
0.947259
20
0.880287
11
0.950698
21
0.875698
0
LINE
8
BLACK
6
CONTINUOUS
10
0.950698
20
0.875698
11
0.950981
21
0.875487
0
LINE
8
BLACK
6
CONTINUOUS
10
0.950981
20
0.875487
11
0.953005
21
0.87397
0
LINE
8
BLACK
6
CONTINUOUS
10
0.953005
20
0.87397
11
0.954679
21
0.871731
0
LINE
8
BLACK
6
CONTINUOUS
10
0.954679
20
0.871731
11
0.954877
21
0.868943
0
LINE
8
BLACK
6
CONTINUOUS
10
0.954877
20
0.868943
11
0.953536
21
0.86649
0
LINE
8
BLACK
6
CONTINUOUS
10
0.953536
20
0.86649
11
0.953005
21
0.866031
0
LINE
8
BLACK
6
CONTINUOUS
10
0.953005
20
0.866031
11
0.950698
21
0.864302
0
LINE
8
BLACK
6
CONTINUOUS
10
0.950698
20
0.864302
11
0.947259
21
0.859713
0
LINE
8
BLACK
6
CONTINUOUS
10
0.947259
20
0.859713
11
0.945246
21
0.854343
0
LINE
8
BLACK
6
CONTINUOUS
10
0.945246
20
0.854343
11
0.94498
21
0.851895
0
LINE
8
BLACK
6
CONTINUOUS
10
0.94498
20
0.851895
11
0.94498
21
0.788105
0
LINE
8
BLACK
6
CONTINUOUS
10
0.94498
20
0.788105
11
0.945246
21
0.785657
0
LINE
8
BLACK
6
CONTINUOUS
10
0.945246
20
0.785657
11
0.947259
21
0.780287
0
LINE
8
BLACK
6
CONTINUOUS
10
0.947259
20
0.780287
11
0.950698
21
0.775698
0
LINE
8
BLACK
6
CONTINUOUS
10
0.950698
20
0.775698
11
0.950981
21
0.775487
0
LINE
8
BLACK
6
CONTINUOUS
10
0.950981
20
0.775487
11
0.953005
21
0.77397
0
LINE
8
BLACK
6
CONTINUOUS
10
0.953005
20
0.77397
11
0.954679
21
0.771731
0
LINE
8
BLACK
6
CONTINUOUS
10
0.954679
20
0.771731
11
0.954877
21
0.768943
0
LINE
8
BLACK
6
CONTINUOUS
10
0.954877
20
0.768943
11
0.953536
21
0.76649
0
LINE
8
BLACK
6
CONTINUOUS
10
0.953536
20
0.76649
11
0.953005
21
0.766031
0
LINE
8
BLACK
6
CONTINUOUS
10
0.953005
20
0.766031
11
0.950698
21
0.764302
0
LINE
8
BLACK
6
CONTINUOUS
10
0.950698
20
0.764302
11
0.947259
21
0.759713
0
LINE
8
BLACK
6
CONTINUOUS
10
0.947259
20
0.759713
11
0.945246
21
0.754343
0
LINE
8
BLACK
6
CONTINUOUS
10
0.945246
20
0.754343
11
0.945213
21
0.754034
0
LINE
8
BLACK
6
CONTINUOUS
10
0.945213
20
0.754034
11
0.945141
21
0.753731
0
LINE
8
BLACK
6
CONTINUOUS
10
0.945141
20
0.753731
11
0.945021
21
0.75376
0
LINE
8
BLACK
6
CONTINUOUS
10
0.945021
20
0.75376
11
0.944167
21
0.751705
0
LINE
8
BLACK
6
CONTINUOUS
10
0.944167
20
0.751705
11
0.941869
21
0.750114
0
LINE
8
BLACK
6
CONTINUOUS
10
0.941869
20
0.750114
11
0.940309
21
0.749862
0
LINE
8
BLACK
6
CONTINUOUS
10
0.940309
20
0.749862
11
0.867641
21
0.749862
0
LINE
8
BLACK
6
CONTINUOUS
10
0.867641
20
0.749862
11
0.866894
21
0.749919
0
LINE
8
BLACK
6
CONTINUOUS
10
0.866894
20
0.749919
11
0.866334
21
0.750004
0
LINE
8
BLACK
6
CONTINUOUS
10
0.866334
20
0.750004
11
0.866334
21
0.750004
0
LINE
8
BLACK
6
CONTINUOUS
10
0.866334
20
0.750004
11
0.866049
21
0.750047
0
LINE
8
BLACK
6
CONTINUOUS
10
0.866049
20
0.750047
11
0.865762
21
0.750024
0
LINE
8
BLACK
6
CONTINUOUS
10
0.865762
20
0.750024
11
0.865762
21
0.750024
0
LINE
8
BLACK
6
CONTINUOUS
10
0.865762
20
0.750024
11
0.863976
21
0.749879
0
LINE
8
BLACK
6
CONTINUOUS
10
0.863976
20
0.749879
11
0.863574
21
0.749862
0
LINE
8
BLACK
6
CONTINUOUS
10
0.863574
20
0.749862
11
0.863256
21
0.749862
0
LINE
8
BLACK
6
CONTINUOUS
10
0.863256
20
0.749862
11
0.863113
21
0.749846
0
LINE
8
BLACK
6
CONTINUOUS
10
0.863113
20
0.749846
11
0.863113
21
0.749846
0
LINE
8
BLACK
6
CONTINUOUS
10
0.863113
20
0.749846
11
0.8626
21
0.749786
0
LINE
8
BLACK
6
CONTINUOUS
10
0.8626
20
0.749786
11
0.862145
21
0.749733
0
LINE
8
BLACK
6
CONTINUOUS
10
0.862145
20
0.749733
11
0.861974
21
0.749716
0
LINE
8
BLACK
6
CONTINUOUS
10
0.861974
20
0.749716
11
0.859109
21
0.749483
0
LINE
8
BLACK
6
CONTINUOUS
10
0.859109
20
0.749483
11
0.858835
21
0.749394
0
LINE
8
BLACK
6
CONTINUOUS
10
0.858835
20
0.749394
11
0.858601
21
0.749347
0
LINE
8
BLACK
6
CONTINUOUS
10
0.858601
20
0.749347
11
0.85837
21
0.749292
0
LINE
8
BLACK
6
CONTINUOUS
10
0.85837
20
0.749292
11
0.858083
21
0.749259
0
LINE
8
BLACK
6
CONTINUOUS
10
0.858083
20
0.749259
11
0.855381
21
0.748278
0
LINE
8
BLACK
6
CONTINUOUS
10
0.855381
20
0.748278
11
0.855218
21
0.748222
0
LINE
8
BLACK
6
CONTINUOUS
10
0.855218
20
0.748222
11
0.852758
21
0.747425
0
LINE
8
BLACK
6
CONTINUOUS
10
0.852758
20
0.747425
11
0.852758
21
0.747425
0
LINE
8
BLACK
6
CONTINUOUS
10
0.852758
20
0.747425
11
0.852484
21
0.747337
0
LINE
8
BLACK
6
CONTINUOUS
10
0.852484
20
0.747337
11
0.852238
21
0.747187
0
LINE
8
BLACK
6
CONTINUOUS
10
0.852238
20
0.747187
11
0.852023
21
0.747089
0
LINE
8
BLACK
6
CONTINUOUS
10
0.852023
20
0.747089
11
0.851809
21
0.746981
0
LINE
8
BLACK
6
CONTINUOUS
10
0.851809
20
0.746981
11
0.851538
21
0.746883
0
LINE
8
BLACK
6
CONTINUOUS
10
0.851538
20
0.746883
11
0.851297
21
0.746725
0
LINE
8
BLACK
6
CONTINUOUS
10
0.851297
20
0.746725
11
0.851297
21
0.746725
0
LINE
8
BLACK
6
CONTINUOUS
10
0.851297
20
0.746725
11
0.849135
21
0.745308
0
LINE
8
BLACK
6
CONTINUOUS
10
0.849135
20
0.745308
11
0.848989
21
0.745216
0
LINE
8
BLACK
6
CONTINUOUS
10
0.848989
20
0.745216
11
0.846531
21
0.743724
0
LINE
8
BLACK
6
CONTINUOUS
10
0.846531
20
0.743724
11
0.846201
21
0.743433
0
LINE
8
BLACK
6
CONTINUOUS
10
0.846201
20
0.743433
11
0.8462
21
0.743434
0
LINE
8
BLACK
6
CONTINUOUS
10
0.8462
20
0.743434
11
0.846083
21
0.74333
0
LINE
8
BLACK
6
CONTINUOUS
10
0.846083
20
0.74333
11
0.845955
21
0.743223
0
LINE
8
BLACK
6
CONTINUOUS
10
0.845955
20
0.743223
11
0.845714
21
0.743065
0
LINE
8
BLACK
6
CONTINUOUS
10
0.845714
20
0.743065
11
0.845516
21
0.742856
0
LINE
8
BLACK
6
CONTINUOUS
10
0.845516
20
0.742856
11
0.843617
21
0.740851
0
LINE
8
BLACK
6
CONTINUOUS
10
0.843617
20
0.740851
11
0.843523
21
0.740755
0
LINE
8
BLACK
6
CONTINUOUS
10
0.843523
20
0.740755
11
0.698845
21
0.596077
0
LINE
8
BLACK
6
CONTINUOUS
10
0.698845
20
0.596077
11
0.696369
21
0.594732
0
LINE
8
BLACK
6
CONTINUOUS
10
0.696369
20
0.594732
11
0.694141
21
0.594259
0
LINE
8
BLACK
6
CONTINUOUS
10
0.694141
20
0.594259
11
0.69414
21
0.594259
0
LINE
8
BLACK
6
CONTINUOUS
10
0.69414
20
0.594259
11
0.693886
21
0.594204
0
LINE
8
BLACK
6
CONTINUOUS
10
0.693886
20
0.594204
11
0.693649
21
0.594099
0
LINE
8
BLACK
6
CONTINUOUS
10
0.693649
20
0.594099
11
0.693649
21
0.594099
0
LINE
8
BLACK
6
CONTINUOUS
10
0.693649
20
0.594099
11
0.687255
21
0.591252
0
LINE
8
BLACK
6
CONTINUOUS
10
0.687255
20
0.591252
11
0.687255
21
0.591252
0
LINE
8
BLACK
6
CONTINUOUS
10
0.687255
20
0.591252
11
0.687018
21
0.591146
0
LINE
8
BLACK
6
CONTINUOUS
10
0.687018
20
0.591146
11
0.686807
21
0.590994
0
LINE
8
BLACK
6
CONTINUOUS
10
0.686807
20
0.590994
11
0.686807
21
0.590994
0
LINE
8
BLACK
6
CONTINUOUS
10
0.686807
20
0.590994
11
0.686322
21
0.590641
0
LINE
8
BLACK
6
CONTINUOUS
10
0.686322
20
0.590641
11
0.680935
21
0.586727
0
LINE
8
BLACK
6
CONTINUOUS
10
0.680935
20
0.586727
11
0.675904
21
0.58114
0
LINE
8
BLACK
6
CONTINUOUS
10
0.675904
20
0.58114
11
0.675774
21
0.580914
0
LINE
8
BLACK
6
CONTINUOUS
10
0.675774
20
0.580914
11
0.672648
21
0.575501
0
LINE
8
BLACK
6
CONTINUOUS
10
0.672648
20
0.575501
11
0.672145
21
0.574628
0
LINE
8
BLACK
6
CONTINUOUS
10
0.672145
20
0.574628
11
0.669821
21
0.567477
0
LINE
8
BLACK
6
CONTINUOUS
10
0.669821
20
0.567477
11
0.669035
21
0.56
0
LINE
8
BLACK
6
CONTINUOUS
10
0.669035
20
0.56
11
0.669821
21
0.552523
0
LINE
8
BLACK
6
CONTINUOUS
10
0.669821
20
0.552523
11
0.672145
21
0.545372
0
LINE
8
BLACK
6
CONTINUOUS
10
0.672145
20
0.545372
11
0.675904
21
0.53886
0
LINE
8
BLACK
6
CONTINUOUS
10
0.675904
20
0.53886
11
0.680935
21
0.533273
0
LINE
8
BLACK
6
CONTINUOUS
10
0.680935
20
0.533273
11
0.687018
21
0.528854
0
LINE
8
BLACK
6
CONTINUOUS
10
0.687018
20
0.528854
11
0.687255
21
0.528748
0
LINE
8
BLACK
6
CONTINUOUS
10
0.687255
20
0.528748
11
0.687255
21
0.528748
0
LINE
8
BLACK
6
CONTINUOUS
10
0.687255
20
0.528748
11
0.693649
21
0.525901
0
LINE
8
BLACK
6
CONTINUOUS
10
0.693649
20
0.525901
11
0.693886
21
0.525796
0
LINE
8
BLACK
6
CONTINUOUS
10
0.693886
20
0.525796
11
0.697563
21
0.525014
0
LINE
8
BLACK
6
CONTINUOUS
10
0.697563
20
0.525014
11
0.700986
21
0.524286
0
LINE
8
BLACK
6
CONTINUOUS
10
0.700986
20
0.524286
11
0.700987
21
0.524286
0
LINE
8
BLACK
6
CONTINUOUS
10
0.700987
20
0.524286
11
0.701241
21
0.524232
0
LINE
8
BLACK
6
CONTINUOUS
10
0.701241
20
0.524232
11
0.708759
21
0.524232
0
LINE
8
BLACK
6
CONTINUOUS
10
0.708759
20
0.524232
11
0.709013
21
0.524286
0
LINE
8
BLACK
6
CONTINUOUS
10
0.709013
20
0.524286
11
0.709014
21
0.524286
0
LINE
8
BLACK
6
CONTINUOUS
10
0.709014
20
0.524286
11
0.712436
21
0.525014
0
LINE
8
BLACK
6
CONTINUOUS
10
0.712436
20
0.525014
11
0.716114
21
0.525796
0
LINE
8
BLACK
6
CONTINUOUS
10
0.716114
20
0.525796
11
0.716351
21
0.525901
0
LINE
8
BLACK
6
CONTINUOUS
10
0.716351
20
0.525901
11
0.722745
21
0.528748
0
LINE
8
BLACK
6
CONTINUOUS
10
0.722745
20
0.528748
11
0.722745
21
0.528748
0
LINE
8
BLACK
6
CONTINUOUS
10
0.722745
20
0.528748
11
0.722982
21
0.528854
0
LINE
8
BLACK
6
CONTINUOUS
10
0.722982
20
0.528854
11
0.729065
21
0.533273
0
LINE
8
BLACK
6
CONTINUOUS
10
0.729065
20
0.533273
11
0.734096
21
0.53886
0
LINE
8
BLACK
6
CONTINUOUS
10
0.734096
20
0.53886
11
0.737855
21
0.545372
0
LINE
8
BLACK
6
CONTINUOUS
10
0.737855
20
0.545372
11
0.740015
21
0.552019
0
LINE
8
BLACK
6
CONTINUOUS
10
0.740015
20
0.552019
11
0.741225
21
0.553994
0
LINE
8
BLACK
6
CONTINUOUS
10
0.741225
20
0.553994
11
0.875916
21
0.688685
0
LINE
8
BLACK
6
CONTINUOUS
10
0.875916
20
0.688685
11
0.87837
21
0.690024
0
LINE
8
BLACK
6
CONTINUOUS
10
1.065
20
0.59
11
1.065
21
0.61
0
LINE
8
BLACK
6
CONTINUOUS
10
1.065
20
0.61
11
1.025
21
0.61
0
LINE
8
BLACK
6
CONTINUOUS
10
1.025
20
0.61
11
1.025
21
0.59
0
LINE
8
BLACK
6
CONTINUOUS
10
1.025
20
0.59
11
1.005
21
0.59
0
LINE
8
BLACK
6
CONTINUOUS
10
1.005
20
0.59
11
1.005
21
0.570713
0
LINE
8
BLACK
6
CONTINUOUS
10
1.005
20
0.570713
11
1.00518
21
0.570113
0
LINE
8
BLACK
6
CONTINUOUS
10
1.00518
20
0.570113
11
1.00523
21
0.570066
0
LINE
8
BLACK
6
CONTINUOUS
10
1.00523
20
0.570066
11
1.00553
21
0.57
0
LINE
8
BLACK
6
CONTINUOUS
10
1.00553
20
0.57
11
1.02676
21
0.57
0
LINE
8
BLACK
6
CONTINUOUS
10
1.02676
20
0.57
11
1.02703
21
0.570015
0
LINE
8
BLACK
6
CONTINUOUS
10
1.02703
20
0.570015
11
1.02903
21
0.570232
0
LINE
8
BLACK
6
CONTINUOUS
10
1.02903
20
0.570232
11
1.02963
21
0.570375
0
LINE
8
BLACK
6
CONTINUOUS
10
1.02963
20
0.570375
11
1.03437
21
0.572153
0
LINE
8
BLACK
6
CONTINUOUS
10
1.03437
20
0.572153
11
1.03499
21
0.572489
0
LINE
8
BLACK
6
CONTINUOUS
10
1.03499
20
0.572489
11
1.039
21
0.575501
0
LINE
8
BLACK
6
CONTINUOUS
10
1.039
20
0.575501
11
1.0395
21
0.575995
0
LINE
8
BLACK
6
CONTINUOUS
10
1.0395
20
0.575995
11
1.04103
21
0.578038
0
LINE
8
BLACK
6
CONTINUOUS
10
1.04103
20
0.578038
11
1.04327
21
0.579712
0
LINE
8
BLACK
6
CONTINUOUS
10
1.04327
20
0.579712
11
1.04606
21
0.57991
0
LINE
8
BLACK
6
CONTINUOUS
10
1.04606
20
0.57991
11
1.04851
21
0.578569
0
LINE
8
BLACK
6
CONTINUOUS
10
1.04851
20
0.578569
11
1.04897
21
0.578038
0
LINE
8
BLACK
6
CONTINUOUS
10
1.04897
20
0.578038
11
1.0505
21
0.575995
0
LINE
8
BLACK
6
CONTINUOUS
10
1.0505
20
0.575995
11
1.051
21
0.575501
0
LINE
8
BLACK
6
CONTINUOUS
10
1.051
20
0.575501
11
1.05501
21
0.572489
0
LINE
8
BLACK
6
CONTINUOUS
10
1.05501
20
0.572489
11
1.05563
21
0.572153
0
LINE
8
BLACK
6
CONTINUOUS
10
1.05563
20
0.572153
11
1.06037
21
0.570375
0
LINE
8
BLACK
6
CONTINUOUS
10
1.06037
20
0.570375
11
1.06097
21
0.570232
0
LINE
8
BLACK
6
CONTINUOUS
10
1.06097
20
0.570232
11
1.06297
21
0.570015
0
LINE
8
BLACK
6
CONTINUOUS
10
1.06297
20
0.570015
11
1.06324
21
0.57
0
LINE
8
BLACK
6
CONTINUOUS
10
1.06324
20
0.57
11
1.08429
21
0.57
0
LINE
8
BLACK
6
CONTINUOUS
10
1.08429
20
0.57
11
1.08489
21
0.570176
0
LINE
8
BLACK
6
CONTINUOUS
10
1.08489
20
0.570176
11
1.08493
21
0.570231
0
LINE
8
BLACK
6
CONTINUOUS
10
1.08493
20
0.570231
11
1.085
21
0.570533
0
LINE
8
BLACK
6
CONTINUOUS
10
1.085
20
0.570533
11
1.085
21
0.59
0
LINE
8
BLACK
6
CONTINUOUS
10
1.085
20
0.59
11
1.065
21
0.59
0
LINE
8
BLACK
6
CONTINUOUS
10
0.945232
20
0.58597
11
0.945375
21
0.58537
0
LINE
8
BLACK
6
CONTINUOUS
10
0.945375
20
0.58537
11
0.947153
21
0.580628
0
LINE
8
BLACK
6
CONTINUOUS
10
0.947153
20
0.580628
11
0.947489
21
0.580014
0
LINE
8
BLACK
6
CONTINUOUS
10
0.947489
20
0.580014
11
0.950501
21
0.575995
0
LINE
8
BLACK
6
CONTINUOUS
10
0.950501
20
0.575995
11
0.950995
21
0.575501
0
LINE
8
BLACK
6
CONTINUOUS
10
0.950995
20
0.575501
11
0.955014
21
0.572489
0
LINE
8
BLACK
6
CONTINUOUS
10
0.955014
20
0.572489
11
0.955628
21
0.572153
0
LINE
8
BLACK
6
CONTINUOUS
10
0.955628
20
0.572153
11
0.96037
21
0.570375
0
LINE
8
BLACK
6
CONTINUOUS
10
0.96037
20
0.570375
11
0.96097
21
0.570232
0
LINE
8
BLACK
6
CONTINUOUS
10
0.96097
20
0.570232
11
0.962973
21
0.570015
0
LINE
8
BLACK
6
CONTINUOUS
10
0.962973
20
0.570015
11
0.963241
21
0.57
0
LINE
8
BLACK
6
CONTINUOUS
10
0.963241
20
0.57
11
0.984287
21
0.57
0
LINE
8
BLACK
6
CONTINUOUS
10
0.984287
20
0.57
11
0.984887
21
0.570176
0
LINE
8
BLACK
6
CONTINUOUS
10
0.984887
20
0.570176
11
0.984934
21
0.570231
0
LINE
8
BLACK
6
CONTINUOUS
10
0.984934
20
0.570231
11
0.985
21
0.570533
0
LINE
8
BLACK
6
CONTINUOUS
10
0.985
20
0.570533
11
0.985
21
0.59
0
LINE
8
BLACK
6
CONTINUOUS
10
0.985
20
0.59
11
0.965
21
0.59
0
LINE
8
BLACK
6
CONTINUOUS
10
0.965
20
0.59
11
0.965
21
0.61
0
LINE
8
BLACK
6
CONTINUOUS
10
0.965
20
0.61
11
0.945713
21
0.61
0
LINE
8
BLACK
6
CONTINUOUS
10
0.945713
20
0.61
11
0.945113
21
0.609824
0
LINE
8
BLACK
6
CONTINUOUS
10
0.945113
20
0.609824
11
0.945066
21
0.609769
0
LINE
8
BLACK
6
CONTINUOUS
10
0.945066
20
0.609769
11
0.945
21
0.609467
0
LINE
8
BLACK
6
CONTINUOUS
10
0.945
20
0.609467
11
0.945
21
0.588241
0
LINE
8
BLACK
6
CONTINUOUS
10
0.945
20
0.588241
11
0.945015
21
0.587973
0
LINE
8
BLACK
6
CONTINUOUS
10
0.945015
20
0.587973
11
0.945232
21
0.58597
0
LINE
8
BLACK
6
CONTINUOUS
10
0.182535
20
0.857216
11
0.185974
21
0.852628
0
LINE
8
BLACK
6
CONTINUOUS
10
0.185974
20
0.852628
11
0.190563
21
0.849188
0
LINE
8
BLACK
6
CONTINUOUS
10
0.190563
20
0.849188
11
0.195932
21
0.847175
0
LINE
8
BLACK
6
CONTINUOUS
10
0.195932
20
0.847175
11
0.198381
21
0.846909
0
LINE
8
BLACK
6
CONTINUOUS
10
0.198381
20
0.846909
11
0.339966
21
0.846909
0
LINE
8
BLACK
6
CONTINUOUS
10
0.339966
20
0.846909
11
0.342414
21
0.847175
0
LINE
8
BLACK
6
CONTINUOUS
10
0.342414
20
0.847175
11
0.347784
21
0.849188
0
LINE
8
BLACK
6
CONTINUOUS
10
0.347784
20
0.849188
11
0.352372
21
0.852628
0
LINE
8
BLACK
6
CONTINUOUS
10
0.352372
20
0.852628
11
0.355812
21
0.857216
0
LINE
8
BLACK
6
CONTINUOUS
10
0.355812
20
0.857216
11
0.357825
21
0.862586
0
LINE
8
BLACK
6
CONTINUOUS
10
0.357825
20
0.862586
11
0.358091
21
0.865034
0
LINE
8
BLACK
6
CONTINUOUS
10
0.358091
20
0.865034
11
0.358091
21
1.00662
0
LINE
8
BLACK
6
CONTINUOUS
10
0.358091
20
1.00662
11
0.357825
21
1.00907
0
LINE
8
BLACK
6
CONTINUOUS
10
0.357825
20
1.00907
11
0.355812
21
1.01444
0
LINE
8
BLACK
6
CONTINUOUS
10
0.355812
20
1.01444
11
0.352372
21
1.01903
0
LINE
8
BLACK
6
CONTINUOUS
10
0.352372
20
1.01903
11
0.347784
21
1.02247
0
LINE
8
BLACK
6
CONTINUOUS
10
0.347784
20
1.02247
11
0.342414
21
1.02448
0
LINE
8
BLACK
6
CONTINUOUS
10
0.342414
20
1.02448
11
0.339966
21
1.02474
0
LINE
8
BLACK
6
CONTINUOUS
10
0.339966
20
1.02474
11
0.198381
21
1.02474
0
LINE
8
BLACK
6
CONTINUOUS
10
0.198381
20
1.02474
11
0.195932
21
1.02448
0
LINE
8
BLACK
6
CONTINUOUS
10
0.195932
20
1.02448
11
0.190563
21
1.02247
0
LINE
8
BLACK
6
CONTINUOUS
10
0.190563
20
1.02247
11
0.185974
21
1.01903
0
LINE
8
BLACK
6
CONTINUOUS
10
0.185974
20
1.01903
11
0.182535
21
1.01444
0
LINE
8
BLACK
6
CONTINUOUS
10
0.182535
20
1.01444
11
0.180522
21
1.00907
0
LINE
8
BLACK
6
CONTINUOUS
10
0.180522
20
1.00907
11
0.180256
21
1.00662
0
LINE
8
BLACK
6
CONTINUOUS
10
0.180256
20
1.00662
11
0.180256
21
0.865034
0
LINE
8
BLACK
6
CONTINUOUS
10
0.180256
20
0.865034
11
0.180522
21
0.862586
0
LINE
8
BLACK
6
CONTINUOUS
10
0.180522
20
0.862586
11
0.182535
21
0.857216
0
LINE
8
BLACK
6
CONTINUOUS
10
0.182535
20
0.585563
11
0.185974
21
0.580974
0
LINE
8
BLACK
6
CONTINUOUS
10
0.185974
20
0.580974
11
0.190563
21
0.577535
0
LINE
8
BLACK
6
CONTINUOUS
10
0.190563
20
0.577535
11
0.195932
21
0.575522
0
LINE
8
BLACK
6
CONTINUOUS
10
0.195932
20
0.575522
11
0.198381
21
0.575256
0
LINE
8
BLACK
6
CONTINUOUS
10
0.198381
20
0.575256
11
0.339966
21
0.575256
0
LINE
8
BLACK
6
CONTINUOUS
10
0.339966
20
0.575256
11
0.342414
21
0.575522
0
LINE
8
BLACK
6
CONTINUOUS
10
0.342414
20
0.575522
11
0.347784
21
0.577535
0
LINE
8
BLACK
6
CONTINUOUS
10
0.347784
20
0.577535
11
0.352372
21
0.580974
0
LINE
8
BLACK
6
CONTINUOUS
10
0.352372
20
0.580974
11
0.355812
21
0.585563
0
LINE
8
BLACK
6
CONTINUOUS
10
0.355812
20
0.585563
11
0.357825
21
0.590932
0
LINE
8
BLACK
6
CONTINUOUS
10
0.357825
20
0.590932
11
0.358091
21
0.593381
0
LINE
8
BLACK
6
CONTINUOUS
10
0.358091
20
0.593381
11
0.358091
21
0.734966
0
LINE
8
BLACK
6
CONTINUOUS
10
0.358091
20
0.734966
11
0.357825
21
0.737414
0
LINE
8
BLACK
6
CONTINUOUS
10
0.357825
20
0.737414
11
0.355812
21
0.742784
0
LINE
8
BLACK
6
CONTINUOUS
10
0.355812
20
0.742784
11
0.352372
21
0.747372
0
LINE
8
BLACK
6
CONTINUOUS
10
0.352372
20
0.747372
11
0.347784
21
0.750812
0
LINE
8
BLACK
6
CONTINUOUS
10
0.347784
20
0.750812
11
0.342414
21
0.752825
0
LINE
8
BLACK
6
CONTINUOUS
10
0.342414
20
0.752825
11
0.339966
21
0.753091
0
LINE
8
BLACK
6
CONTINUOUS
10
0.339966
20
0.753091
11
0.198381
21
0.753091
0
LINE
8
BLACK
6
CONTINUOUS
10
0.198381
20
0.753091
11
0.195932
21
0.752825
0
LINE
8
BLACK
6
CONTINUOUS
10
0.195932
20
0.752825
11
0.190563
21
0.750812
0
LINE
8
BLACK
6
CONTINUOUS
10
0.190563
20
0.750812
11
0.185974
21
0.747372
0
LINE
8
BLACK
6
CONTINUOUS
10
0.185974
20
0.747372
11
0.182535
21
0.742784
0
LINE
8
BLACK
6
CONTINUOUS
10
0.182535
20
0.742784
11
0.180522
21
0.737414
0
LINE
8
BLACK
6
CONTINUOUS
10
0.180522
20
0.737414
11
0.180256
21
0.734966
0
LINE
8
BLACK
6
CONTINUOUS
10
0.180256
20
0.734966
11
0.180256
21
0.593381
0
LINE
8
BLACK
6
CONTINUOUS
10
0.180256
20
0.593381
11
0.180522
21
0.590932
0
LINE
8
BLACK
6
CONTINUOUS
10
0.180522
20
0.590932
11
0.182535
21
0.585563
0
LINE
8
BLACK
6
CONTINUOUS
10
1.065
20
1.27
11
1.065
21
1.29
0
LINE
8
BLACK
6
CONTINUOUS
10
1.065
20
1.29
11
1.025
21
1.29
0
LINE
8
BLACK
6
CONTINUOUS
10
1.025
20
1.29
11
1.025
21
1.27
0
LINE
8
BLACK
6
CONTINUOUS
10
1.025
20
1.27
11
1.005
21
1.27
0
LINE
8
BLACK
6
CONTINUOUS
10
1.005
20
1.27
11
1.005
21
1.25071
0
LINE
8
BLACK
6
CONTINUOUS
10
1.005
20
1.25071
11
1.00518
21
1.25011
0
LINE
8
BLACK
6
CONTINUOUS
10
1.00518
20
1.25011
11
1.00523
21
1.25007
0
LINE
8
BLACK
6
CONTINUOUS
10
1.00523
20
1.25007
11
1.00553
21
1.25
0
LINE
8
BLACK
6
CONTINUOUS
10
1.00553
20
1.25
11
1.02676
21
1.25
0
LINE
8
BLACK
6
CONTINUOUS
10
1.02676
20
1.25
11
1.02703
21
1.25001
0
LINE
8
BLACK
6
CONTINUOUS
10
1.02703
20
1.25001
11
1.02903
21
1.25023
0
LINE
8
BLACK
6
CONTINUOUS
10
1.02903
20
1.25023
11
1.02963
21
1.25037
0
LINE
8
BLACK
6
CONTINUOUS
10
1.02963
20
1.25037
11
1.03437
21
1.25215
0
LINE
8
BLACK
6
CONTINUOUS
10
1.03437
20
1.25215
11
1.03499
21
1.25249
0
LINE
8
BLACK
6
CONTINUOUS
10
1.03499
20
1.25249
11
1.039
21
1.2555
0
LINE
8
BLACK
6
CONTINUOUS
10
1.039
20
1.2555
11
1.0395
21
1.256
0
LINE
8
BLACK
6
CONTINUOUS
10
1.0395
20
1.256
11
1.04103
21
1.25804
0
LINE
8
BLACK
6
CONTINUOUS
10
1.04103
20
1.25804
11
1.04327
21
1.25971
0
LINE
8
BLACK
6
CONTINUOUS
10
1.04327
20
1.25971
11
1.04606
21
1.25991
0
LINE
8
BLACK
6
CONTINUOUS
10
1.04606
20
1.25991
11
1.04851
21
1.25857
0
LINE
8
BLACK
6
CONTINUOUS
10
1.04851
20
1.25857
11
1.04897
21
1.25804
0
LINE
8
BLACK
6
CONTINUOUS
10
1.04897
20
1.25804
11
1.0505
21
1.256
0
LINE
8
BLACK
6
CONTINUOUS
10
1.0505
20
1.256
11
1.051
21
1.2555
0
LINE
8
BLACK
6
CONTINUOUS
10
1.051
20
1.2555
11
1.05501
21
1.25249
0
LINE
8
BLACK
6
CONTINUOUS
10
1.05501
20
1.25249
11
1.05563
21
1.25215
0
LINE
8
BLACK
6
CONTINUOUS
10
1.05563
20
1.25215
11
1.06037
21
1.25037
0
LINE
8
BLACK
6
CONTINUOUS
10
1.06037
20
1.25037
11
1.06097
21
1.25023
0
LINE
8
BLACK
6
CONTINUOUS
10
1.06097
20
1.25023
11
1.06297
21
1.25001
0
LINE
8
BLACK
6
CONTINUOUS
10
1.06297
20
1.25001
11
1.06324
21
1.25
0
LINE
8
BLACK
6
CONTINUOUS
10
1.06324
20
1.25
11
1.08429
21
1.25
0
LINE
8
BLACK
6
CONTINUOUS
10
1.08429
20
1.25
11
1.08489
21
1.25018
0
LINE
8
BLACK
6
CONTINUOUS
10
1.08489
20
1.25018
11
1.08493
21
1.25023
0
LINE
8
BLACK
6
CONTINUOUS
10
1.08493
20
1.25023
11
1.085
21
1.25053
0
LINE
8
BLACK
6
CONTINUOUS
10
1.085
20
1.25053
11
1.085
21
1.27
0
LINE
8
BLACK
6
CONTINUOUS
10
1.085
20
1.27
11
1.065
21
1.27
0
LINE
8
BLACK
6
CONTINUOUS
10
0.945232
20
1.26597
11
0.945375
21
1.26537
0
LINE
8
BLACK
6
CONTINUOUS
10
0.945375
20
1.26537
11
0.947153
21
1.26063
0
LINE
8
BLACK
6
CONTINUOUS
10
0.947153
20
1.26063
11
0.947489
21
1.26001
0
LINE
8
BLACK
6
CONTINUOUS
10
0.947489
20
1.26001
11
0.950501
21
1.256
0
LINE
8
BLACK
6
CONTINUOUS
10
0.950501
20
1.256
11
0.950995
21
1.2555
0
LINE
8
BLACK
6
CONTINUOUS
10
0.950995
20
1.2555
11
0.955014
21
1.25249
0
LINE
8
BLACK
6
CONTINUOUS
10
0.955014
20
1.25249
11
0.955628
21
1.25215
0
LINE
8
BLACK
6
CONTINUOUS
10
0.955628
20
1.25215
11
0.96037
21
1.25037
0
LINE
8
BLACK
6
CONTINUOUS
10
0.96037
20
1.25037
11
0.96097
21
1.25023
0
LINE
8
BLACK
6
CONTINUOUS
10
0.96097
20
1.25023
11
0.962973
21
1.25001
0
LINE
8
BLACK
6
CONTINUOUS
10
0.962973
20
1.25001
11
0.963241
21
1.25
0
LINE
8
BLACK
6
CONTINUOUS
10
0.963241
20
1.25
11
0.984287
21
1.25
0
LINE
8
BLACK
6
CONTINUOUS
10
0.984287
20
1.25
11
0.984887
21
1.25018
0
LINE
8
BLACK
6
CONTINUOUS
10
0.984887
20
1.25018
11
0.984934
21
1.25023
0
LINE
8
BLACK
6
CONTINUOUS
10
0.984934
20
1.25023
11
0.985
21
1.25053
0
LINE
8
BLACK
6
CONTINUOUS
10
0.985
20
1.25053
11
0.985
21
1.27
0
LINE
8
BLACK
6
CONTINUOUS
10
0.985
20
1.27
11
0.965
21
1.27
0
LINE
8
BLACK
6
CONTINUOUS
10
0.965
20
1.27
11
0.965
21
1.29
0
LINE
8
BLACK
6
CONTINUOUS
10
0.965
20
1.29
11
0.945713
21
1.29
0
LINE
8
BLACK
6
CONTINUOUS
10
0.945713
20
1.29
11
0.945113
21
1.28982
0
LINE
8
BLACK
6
CONTINUOUS
10
0.945113
20
1.28982
11
0.945066
21
1.28977
0
LINE
8
BLACK
6
CONTINUOUS
10
0.945066
20
1.28977
11
0.945
21
1.28947
0
LINE
8
BLACK
6
CONTINUOUS
10
0.945
20
1.28947
11
0.945
21
1.26824
0
LINE
8
BLACK
6
CONTINUOUS
10
0.945
20
1.26824
11
0.945015
21
1.26797
0
LINE
8
BLACK
6
CONTINUOUS
10
0.945015
20
1.26797
11
0.945232
21
1.26597
0
LINE
8
BLACK
6
CONTINUOUS
10
1.025
20
0.729843
11
1.065
21
0.729843
0
LINE
8
BLACK
6
CONTINUOUS
10
1.065
20
0.729843
11
1.065
21
0.75
0
LINE
8
BLACK
6
CONTINUOUS
10
1.065
20
0.75
11
1.125
21
0.75
0
LINE
8
BLACK
6
CONTINUOUS
10
1.125
20
0.75
11
1.125
21
0.69
0
LINE
8
BLACK
6
CONTINUOUS
10
1.125
20
0.69
11
1.065
21
0.69
0
LINE
8
BLACK
6
CONTINUOUS
10
1.065
20
0.69
11
1.065
21
0.710157
0
LINE
8
BLACK
6
CONTINUOUS
10
1.065
20
0.710157
11
1.025
21
0.710157
0
LINE
8
BLACK
6
CONTINUOUS
10
1.025
20
0.710157
11
1.025
21
0.69
0
LINE
8
BLACK
6
CONTINUOUS
10
1.025
20
0.69
11
0.965
21
0.69
0
LINE
8
BLACK
6
CONTINUOUS
10
0.965
20
0.69
11
0.965
21
0.710157
0
LINE
8
BLACK
6
CONTINUOUS
10
0.965
20
0.710157
11
0.869077
21
0.710157
0
LINE
8
BLACK
6
CONTINUOUS
10
0.869077
20
0.710157
11
0.720498
21
0.561579
0
LINE
8
BLACK
6
CONTINUOUS
10
0.720498
20
0.561579
11
0.720748
21
0.56
0
LINE
8
BLACK
6
CONTINUOUS
10
0.720748
20
0.56
11
0.719977
21
0.555134
0
LINE
8
BLACK
6
CONTINUOUS
10
0.719977
20
0.555134
11
0.71774
21
0.550744
0
LINE
8
BLACK
6
CONTINUOUS
10
0.71774
20
0.550744
11
0.714256
21
0.54726
0
LINE
8
BLACK
6
CONTINUOUS
10
0.714256
20
0.54726
11
0.709866
21
0.545023
0
LINE
8
BLACK
6
CONTINUOUS
10
0.709866
20
0.545023
11
0.705
21
0.544252
0
LINE
8
BLACK
6
CONTINUOUS
10
0.705
20
0.544252
11
0.700134
21
0.545023
0
LINE
8
BLACK
6
CONTINUOUS
10
0.700134
20
0.545023
11
0.695744
21
0.54726
0
LINE
8
BLACK
6
CONTINUOUS
10
0.695744
20
0.54726
11
0.69226
21
0.550744
0
LINE
8
BLACK
6
CONTINUOUS
10
0.69226
20
0.550744
11
0.690023
21
0.555134
0
LINE
8
BLACK
6
CONTINUOUS
10
0.690023
20
0.555134
11
0.689252
21
0.56
0
LINE
8
BLACK
6
CONTINUOUS
10
0.689252
20
0.56
11
0.690023
21
0.564866
0
LINE
8
BLACK
6
CONTINUOUS
10
0.690023
20
0.564866
11
0.69226
21
0.569256
0
LINE
8
BLACK
6
CONTINUOUS
10
0.69226
20
0.569256
11
0.695744
21
0.57274
0
LINE
8
BLACK
6
CONTINUOUS
10
0.695744
20
0.57274
11
0.700134
21
0.574977
0
LINE
8
BLACK
6
CONTINUOUS
10
0.700134
20
0.574977
11
0.705
21
0.575748
0
LINE
8
BLACK
6
CONTINUOUS
10
0.705
20
0.575748
11
0.706579
21
0.575498
0
LINE
8
BLACK
6
CONTINUOUS
10
0.706579
20
0.575498
11
0.85804
21
0.72696
0
LINE
8
BLACK
6
CONTINUOUS
10
0.85804
20
0.72696
11
0.861233
21
0.729093
0
LINE
8
BLACK
6
CONTINUOUS
10
0.861233
20
0.729093
11
0.865
21
0.729843
0
LINE
8
BLACK
6
CONTINUOUS
10
0.865
20
0.729843
11
0.965
21
0.729843
0
LINE
8
BLACK
6
CONTINUOUS
10
0.965
20
0.729843
11
0.965
21
0.75
0
LINE
8
BLACK
6
CONTINUOUS
10
0.965
20
0.75
11
1.025
21
0.75
0
LINE
8
BLACK
6
CONTINUOUS
10
1.025
20
0.75
11
1.025
21
0.729843
0
LINE
8
BLACK
6
CONTINUOUS
10
1.025
20
0.79
11
0.965
21
0.79
0
LINE
8
BLACK
6
CONTINUOUS
10
0.965
20
0.79
11
0.965
21
0.85
0
LINE
8
BLACK
6
CONTINUOUS
10
0.965
20
0.85
11
1.025
21
0.85
0
LINE
8
BLACK
6
CONTINUOUS
10
1.025
20
0.85
11
1.025
21
0.79
0
LINE
8
BLACK
6
CONTINUOUS
10
1.125
20
0.79
11
1.065
21
0.79
0
LINE
8
BLACK
6
CONTINUOUS
10
1.065
20
0.79
11
1.065
21
0.85
0
LINE
8
BLACK
6
CONTINUOUS
10
1.065
20
0.85
11
1.125
21
0.85
0
LINE
8
BLACK
6
CONTINUOUS
10
1.125
20
0.85
11
1.125
21
0.79
0
LINE
8
BLACK
6
CONTINUOUS
10
0.600498
20
0.821579
11
0.600748
21
0.82
0
LINE
8
BLACK
6
CONTINUOUS
10
0.600748
20
0.82
11
0.599977
21
0.815134
0
LINE
8
BLACK
6
CONTINUOUS
10
0.599977
20
0.815134
11
0.59774
21
0.810744
0
LINE
8
BLACK
6
CONTINUOUS
10
0.59774
20
0.810744
11
0.594256
21
0.80726
0
LINE
8
BLACK
6
CONTINUOUS
10
0.594256
20
0.80726
11
0.589866
21
0.805023
0
LINE
8
BLACK
6
CONTINUOUS
10
0.589866
20
0.805023
11
0.585
21
0.804252
0
LINE
8
BLACK
6
CONTINUOUS
10
0.585
20
0.804252
11
0.580134
21
0.805023
0
LINE
8
BLACK
6
CONTINUOUS
10
0.580134
20
0.805023
11
0.575744
21
0.80726
0
LINE
8
BLACK
6
CONTINUOUS
10
0.575744
20
0.80726
11
0.57226
21
0.810744
0
LINE
8
BLACK
6
CONTINUOUS
10
0.57226
20
0.810744
11
0.570023
21
0.815134
0
LINE
8
BLACK
6
CONTINUOUS
10
0.570023
20
0.815134
11
0.569252
21
0.82
0
LINE
8
BLACK
6
CONTINUOUS
10
0.569252
20
0.82
11
0.570023
21
0.824866
0
LINE
8
BLACK
6
CONTINUOUS
10
0.570023
20
0.824866
11
0.57226
21
0.829256
0
LINE
8
BLACK
6
CONTINUOUS
10
0.57226
20
0.829256
11
0.575744
21
0.83274
0
LINE
8
BLACK
6
CONTINUOUS
10
0.575744
20
0.83274
11
0.580134
21
0.834977
0
LINE
8
BLACK
6
CONTINUOUS
10
0.580134
20
0.834977
11
0.585
21
0.835748
0
LINE
8
BLACK
6
CONTINUOUS
10
0.585
20
0.835748
11
0.586579
21
0.835498
0
LINE
8
BLACK
6
CONTINUOUS
10
0.586579
20
0.835498
11
0.593788
21
0.842708
0
LINE
8
BLACK
6
CONTINUOUS
10
0.593788
20
0.842708
11
0.596981
21
0.844841
0
LINE
8
BLACK
6
CONTINUOUS
10
0.596981
20
0.844841
11
0.600748
21
0.845591
0
LINE
8
BLACK
6
CONTINUOUS
10
0.600748
20
0.845591
11
0.816671
21
0.845591
0
LINE
8
BLACK
6
CONTINUOUS
10
0.816671
20
0.845591
11
0.89804
21
0.92696
0
LINE
8
BLACK
6
CONTINUOUS
10
0.89804
20
0.92696
11
0.89804
21
0.92696
0
LINE
8
BLACK
6
CONTINUOUS
10
0.89804
20
0.92696
11
0.901233
21
0.929093
0
LINE
8
BLACK
6
CONTINUOUS
10
0.901233
20
0.929093
11
0.905
21
0.929843
0
LINE
8
BLACK
6
CONTINUOUS
10
0.905
20
0.929843
11
0.965
21
0.929843
0
LINE
8
BLACK
6
CONTINUOUS
10
0.965
20
0.929843
11
0.965
21
0.95
0
LINE
8
BLACK
6
CONTINUOUS
10
0.965
20
0.95
11
1.025
21
0.95
0
LINE
8
BLACK
6
CONTINUOUS
10
1.025
20
0.95
11
1.025
21
0.89
0
LINE
8
BLACK
6
CONTINUOUS
10
1.025
20
0.89
11
0.965
21
0.89
0
LINE
8
BLACK
6
CONTINUOUS
10
0.965
20
0.89
11
0.965
21
0.910157
0
LINE
8
BLACK
6
CONTINUOUS
10
0.965
20
0.910157
11
0.909077
21
0.910157
0
LINE
8
BLACK
6
CONTINUOUS
10
0.909077
20
0.910157
11
0.827708
21
0.828788
0
LINE
8
BLACK
6
CONTINUOUS
10
0.827708
20
0.828788
11
0.824515
21
0.826655
0
LINE
8
BLACK
6
CONTINUOUS
10
0.824515
20
0.826655
11
0.820748
21
0.825905
0
LINE
8
BLACK
6
CONTINUOUS
10
0.820748
20
0.825905
11
0.604825
21
0.825905
0
LINE
8
BLACK
6
CONTINUOUS
10
0.604825
20
0.825905
11
0.600498
21
0.821579
0
LINE
8
BLACK
6
CONTINUOUS
10
1.125
20
0.89
11
1.065
21
0.89
0
LINE
8
BLACK
6
CONTINUOUS
10
1.065
20
0.89
11
1.065
21
0.95
0
LINE
8
BLACK
6
CONTINUOUS
10
1.065
20
0.95
11
1.125
21
0.95
0
LINE
8
BLACK
6
CONTINUOUS
10
1.125
20
0.95
11
1.125
21
0.89
0
LINE
8
BLACK
6
CONTINUOUS
10
1.025
20
0.17
11
0.965
21
0.17
0
LINE
8
BLACK
6
CONTINUOUS
10
0.965
20
0.17
11
0.965
21
0.23
0
LINE
8
BLACK
6
CONTINUOUS
10
0.965
20
0.23
11
1.025
21
0.23
0
LINE
8
BLACK
6
CONTINUOUS
10
1.025
20
0.23
11
1.025
21
0.17
0
LINE
8
BLACK
6
CONTINUOUS
10
1.125
20
0.17
11
1.065
21
0.17
0
LINE
8
BLACK
6
CONTINUOUS
10
1.065
20
0.17
11
1.065
21
0.23
0
LINE
8
BLACK
6
CONTINUOUS
10
1.065
20
0.23
11
1.125
21
0.23
0
LINE
8
BLACK
6
CONTINUOUS
10
1.125
20
0.23
11
1.125
21
0.17
0
LINE
8
BLACK
6
CONTINUOUS
10
1.025
20
1.37
11
0.965
21
1.37
0
LINE
8
BLACK
6
CONTINUOUS
10
0.965
20
1.37
11
0.965
21
1.43
0
LINE
8
BLACK
6
CONTINUOUS
10
0.965
20
1.43
11
1.025
21
1.43
0
LINE
8
BLACK
6
CONTINUOUS
10
1.025
20
1.43
11
1.025
21
1.37
0
LINE
8
BLACK
6
CONTINUOUS
10
1.125
20
1.37
11
1.065
21
1.37
0
LINE
8
BLACK
6
CONTINUOUS
10
1.065
20
1.37
11
1.065
21
1.43
0
LINE
8
BLACK
6
CONTINUOUS
10
1.065
20
1.43
11
1.125
21
1.43
0
LINE
8
BLACK
6
CONTINUOUS
10
1.125
20
1.43
11
1.125
21
1.37
0
LINE
8
BLACK
6
CONTINUOUS
10
0.569866
20
0.734977
11
0.573608
21
0.733071
0
LINE
8
BLACK
6
CONTINUOUS
10
0.573608
20
0.733071
11
0.609724
21
0.733071
0
LINE
8
BLACK
6
CONTINUOUS
10
0.609724
20
0.733071
11
0.609724
21
0.595276
0
LINE
8
BLACK
6
CONTINUOUS
10
0.609724
20
0.595276
11
0.471929
21
0.595276
0
LINE
8
BLACK
6
CONTINUOUS
10
0.471929
20
0.595276
11
0.471929
21
0.733071
0
LINE
8
BLACK
6
CONTINUOUS
10
0.471929
20
0.733071
11
0.556392
21
0.733071
0
LINE
8
BLACK
6
CONTINUOUS
10
0.556392
20
0.733071
11
0.560134
21
0.734977
0
LINE
8
BLACK
6
CONTINUOUS
10
0.560134
20
0.734977
11
0.565
21
0.735748
0
LINE
8
BLACK
6
CONTINUOUS
10
0.565
20
0.735748
11
0.569866
21
0.734977
0
LINE
8
BLACK
6
CONTINUOUS
10
0.709866
20
0.814977
11
0.714256
21
0.81274
0
LINE
8
BLACK
6
CONTINUOUS
10
0.714256
20
0.81274
11
0.71774
21
0.809256
0
LINE
8
BLACK
6
CONTINUOUS
10
0.71774
20
0.809256
11
0.719977
21
0.804866
0
LINE
8
BLACK
6
CONTINUOUS
10
0.719977
20
0.804866
11
0.720748
21
0.8
0
LINE
8
BLACK
6
CONTINUOUS
10
0.720748
20
0.8
11
0.719977
21
0.795134
0
LINE
8
BLACK
6
CONTINUOUS
10
0.719977
20
0.795134
11
0.71774
21
0.790744
0
LINE
8
BLACK
6
CONTINUOUS
10
0.71774
20
0.790744
11
0.714256
21
0.78726
0
LINE
8
BLACK
6
CONTINUOUS
10
0.714256
20
0.78726
11
0.709866
21
0.785023
0
LINE
8
BLACK
6
CONTINUOUS
10
0.709866
20
0.785023
11
0.705
21
0.784252
0
LINE
8
BLACK
6
CONTINUOUS
10
0.705
20
0.784252
11
0.703421
21
0.784502
0
LINE
8
BLACK
6
CONTINUOUS
10
0.703421
20
0.784502
11
0.654843
21
0.735923
0
LINE
8
BLACK
6
CONTINUOUS
10
0.654843
20
0.735923
11
0.654843
21
0.652154
0
LINE
8
BLACK
6
CONTINUOUS
10
0.654843
20
0.652154
11
0.65774
21
0.649256
0
LINE
8
BLACK
6
CONTINUOUS
10
0.65774
20
0.649256
11
0.659977
21
0.644866
0
LINE
8
BLACK
6
CONTINUOUS
10
0.659977
20
0.644866
11
0.660748
21
0.64
0
LINE
8
BLACK
6
CONTINUOUS
10
0.660748
20
0.64
11
0.659977
21
0.635134
0
LINE
8
BLACK
6
CONTINUOUS
10
0.659977
20
0.635134
11
0.65774
21
0.630744
0
LINE
8
BLACK
6
CONTINUOUS
10
0.65774
20
0.630744
11
0.654256
21
0.62726
0
LINE
8
BLACK
6
CONTINUOUS
10
0.654256
20
0.62726
11
0.649866
21
0.625023
0
LINE
8
BLACK
6
CONTINUOUS
10
0.649866
20
0.625023
11
0.645
21
0.624252
0
LINE
8
BLACK
6
CONTINUOUS
10
0.645
20
0.624252
11
0.640134
21
0.625023
0
LINE
8
BLACK
6
CONTINUOUS
10
0.640134
20
0.625023
11
0.635744
21
0.62726
0
LINE
8
BLACK
6
CONTINUOUS
10
0.635744
20
0.62726
11
0.63226
21
0.630744
0
LINE
8
BLACK
6
CONTINUOUS
10
0.63226
20
0.630744
11
0.630023
21
0.635134
0
LINE
8
BLACK
6
CONTINUOUS
10
0.630023
20
0.635134
11
0.629252
21
0.64
0
LINE
8
BLACK
6
CONTINUOUS
10
0.629252
20
0.64
11
0.630023
21
0.644866
0
LINE
8
BLACK
6
CONTINUOUS
10
0.630023
20
0.644866
11
0.63226
21
0.649256
0
LINE
8
BLACK
6
CONTINUOUS
10
0.63226
20
0.649256
11
0.635157
21
0.652154
0
LINE
8
BLACK
6
CONTINUOUS
10
0.635157
20
0.652154
11
0.635157
21
0.74
0
LINE
8
BLACK
6
CONTINUOUS
10
0.635157
20
0.74
11
0.635907
21
0.743767
0
LINE
8
BLACK
6
CONTINUOUS
10
0.635907
20
0.743767
11
0.63804
21
0.74696
0
LINE
8
BLACK
6
CONTINUOUS
10
0.63804
20
0.74696
11
0.689502
21
0.798421
0
LINE
8
BLACK
6
CONTINUOUS
10
0.689502
20
0.798421
11
0.689252
21
0.8
0
LINE
8
BLACK
6
CONTINUOUS
10
0.689252
20
0.8
11
0.690023
21
0.804866
0
LINE
8
BLACK
6
CONTINUOUS
10
0.690023
20
0.804866
11
0.69226
21
0.809256
0
LINE
8
BLACK
6
CONTINUOUS
10
0.69226
20
0.809256
11
0.695744
21
0.81274
0
LINE
8
BLACK
6
CONTINUOUS
10
0.695744
20
0.81274
11
0.700134
21
0.814977
0
LINE
8
BLACK
6
CONTINUOUS
10
0.700134
20
0.814977
11
0.705
21
0.815748
0
LINE
8
BLACK
6
CONTINUOUS
10
0.705
20
0.815748
11
0.709866
21
0.814977
0
LINE
8
BLACK
6
CONTINUOUS
10
0.609724
20
0.866929
11
0.471929
21
0.866929
0
LINE
8
BLACK
6
CONTINUOUS
10
0.471929
20
0.866929
11
0.471929
21
1.00472
0
LINE
8
BLACK
6
CONTINUOUS
10
0.471929
20
1.00472
11
0.609724
21
1.00472
0
LINE
8
BLACK
6
CONTINUOUS
10
0.609724
20
1.00472
11
0.609724
21
0.866929
0
LINE
8
BLACK
6
CONTINUOUS
10
0.338071
20
0.866929
11
0.200276
21
0.866929
0
LINE
8
BLACK
6
CONTINUOUS
10
0.200276
20
0.866929
11
0.200276
21
1.00472
0
LINE
8
BLACK
6
CONTINUOUS
10
0.200276
20
1.00472
11
0.338071
21
1.00472
0
LINE
8
BLACK
6
CONTINUOUS
10
0.338071
20
1.00472
11
0.338071
21
0.866929
0
LINE
8
BLACK
6
CONTINUOUS
10
0.338071
20
0.595276
11
0.200276
21
0.595276
0
LINE
8
BLACK
6
CONTINUOUS
10
0.200276
20
0.595276
11
0.200276
21
0.733071
0
LINE
8
BLACK
6
CONTINUOUS
10
0.200276
20
0.733071
11
0.338071
21
0.733071
0
LINE
8
BLACK
6
CONTINUOUS
10
0.338071
20
0.733071
11
0.338071
21
0.595276
0
CIRCLE
8
BLACK
10
0.24
20
1.05
40
0.00787402
0
CIRCLE
8
BLACK
10
0.285
20
1.12
40
0.00787402
0
CIRCLE
8
BLACK
10
0.505
20
0.46
40
0.00787402
0
CIRCLE
8
BLACK
10
0.64
20
0.96
40
0.00787402
0
CIRCLE
8
BLACK
10
0.365
20
1.3
40
0.00787402
0
CIRCLE
8
BLACK
10
0.405
20
0.4
40
0.00787402
0
CIRCLE
8
BLACK
10
0.475
20
1.1
40
0.00787402
0
CIRCLE
8
BLACK
10
0.425
20
1.3
40
0.00787402
0
CIRCLE
8
BLACK
10
0.345
20
0.52
40
0.00787402
0
CIRCLE
8
BLACK
10
0.825
20
1.5
40
0.00787402
0
CIRCLE
8
BLACK
10
1.105
20
1.02
40
0.00787402
0
CIRCLE
8
BLACK
10
0.905
20
0.64
40
0.00787402
0
CIRCLE
8
BLACK
10
0.725
20
0.92
40
0.00787402
0
CIRCLE
8
BLACK
10
0.285
20
1.22
40
0.00787402
0
CIRCLE
8
BLACK
10
0.565
20
1.03
40
0.00787402
0
CIRCLE
8
BLACK
10
0.405
20
0.52
40
0.00787402
0
CIRCLE
8
BLACK
10
1.025
20
0.52
40
0.00787402
0
CIRCLE
8
BLACK
10
0.45
20
1.14
40
0.00787402
0
CIRCLE
8
BLACK
10
1.085
20
0.52
40
0.00787402
0
CIRCLE
8
BLACK
10
0.645
20
0.92
40
0.00787402
0
CIRCLE
8
BLACK
10
0.685
20
0.641122
40
0.00787402
0
CIRCLE
8
BLACK
10
1.025
20
1.02
40
0.00787402
0
CIRCLE
8
BLACK
10
0.905
20
0.52
40
0.00787402
0
CIRCLE
8
BLACK
10
0.285
20
1.16
40
0.00787402
0
CIRCLE
8
BLACK
10
0.905
20
0.58
40
0.00787402
0
CIRCLE
8
BLACK
10
0.805
20
0.78
40
0.00787402
0
CIRCLE
8
BLACK
10
1.105
20
1.08
40
0.00787402
0
CIRCLE
8
BLACK
10
0.965
20
0.52
40
0.00787402
0
CIRCLE
8
BLACK
10
0.645
20
0.88
40
0.00787402
0
CIRCLE
8
BLACK
10
0.285
20
0.4
40
0.00787402
0
CIRCLE
8
BLACK
10
0.225
20
0.4
40
0.00787402
0
CIRCLE
8
BLACK
10
0.24
20
1.095
40
0.00787402
0
CIRCLE
8
BLACK
10
0.345
20
0.4
40
0.00787402
0
CIRCLE
8
BLACK
10
0.905
20
1.5
40
0.00787402
0
CIRCLE
8
BLACK
10
0.49
20
1.14
40
0.00787402
0
CIRCLE
8
BLACK
10
1.025
20
1.08
40
0.00787402
0
CIRCLE
8
BLACK
10
0.465
20
0.4
40
0.00787402
0
CIRCLE
8
BLACK
10
0.525
20
0.4
40
0.00787402
0
CIRCLE
8
BLACK
10
0.285
20
1.08
40
0.00787402
0
CIRCLE
8
BLACK
10
1.105
20
1.16
40
0.00787402
0
CIRCLE
8
BLACK
10
1.105
20
1.22
40
0.00787402
0
CIRCLE
8
BLACK
10
1.025
20
1.22
40
0.00787402
0
CIRCLE
8
BLACK
10
0.765
20
1.42
40
0.00787402
0
CIRCLE
8
BLACK
10
0.285
20
1.045
40
0.00787402
0
CIRCLE
8
BLACK
10
0.765
20
1.36
40
0.00787402
0
CIRCLE
8
BLACK
10
0.765
20
1.28
40
0.00787402
0
CIRCLE
8
BLACK
10
1.025
20
1.16
40
0.00787402
0
CIRCLE
8
BLACK
10
0.785
20
0.92
40
0.00787402
0
CIRCLE
8
BLACK
10
0.765
20
1.5
40
0.00787402
0
CIRCLE
8
BLACK
10
0.505
20
0.98
40
0.00787402
0
CIRCLE
8
BLACK
10
0.585
20
0.82
40
0.00787402
0
CIRCLE
8
BLACK
10
0.305
20
0.62
40
0.00787402
0
CIRCLE
8
BLACK
10
0.705
20
0.56
40
0.00787402
0
CIRCLE
8
BLACK
10
0.565
20
0.72
40
0.00787402
0
CIRCLE
8
BLACK
10
0.705
20
0.8
40
0.00787402
0
CIRCLE
8
BLACK
10
0.645
20
0.64
40
0.00787402
  0
ENDSEC
  0
EOF
