  0
SECTION
  2
HEADER
  9
$ANGBASE
  50
0.0
  9
$ANGDIR
  70
1
  9
$MEASUREMENT
  70
0
  0
ENDSEC
  0
SECTION
  2
TABLES
  0
TABLE
  2
LTYPE
  70
4
  0
LTYPE
  5
40F
  2
CONTINUOUS
  70
0
  3
Solid line
  72
65
  73
0
  40
0.0
  0
LTYPE
  5
410
  2
DASHDOT
 70
0
  3
Dash Dot ____ _ ____ _
 72
65
 73
4
 40
2.0
 49
1.25
 49
-0.25
 49
0.25
 49
-0.25
  0
LTYPE
  5
411
  2
DASHED
 70
0
  3
Dashed __ __ __ __ __
 72
65
 73
2
 40
0.75
 49
0.5
 49
-0.25
  0
LTYPE
  5
43B
  2
DOTTED
 70
0
  3
Dotted .  .  .  .
 72
65
 73
2
 40
0.2
 49
0.0
 49
-0.2
  0
ENDTAB
  0
TABLE
  2
STYLE
  70
4
  0
STYLE
  2
KICAD
  70
0
  40
0
  41
1
  42
1
  50
0
  71
0
  3
isocp.shx
  0
STYLE
  2
KICADB
  70
0
  40
0
  41
1
  42
1
  50
0
  71
0
  3
isocp.shx
  0
STYLE
  2
KICADI
  70
0
  40
0
  41
1
  42
1
  50
15
  71
0
  3
isocp.shx
  0
STYLE
  2
KICADBI
  70
0
  40
0
  41
1
  42
1
  50
15
  71
0
  3
isocp.shx
  0
ENDTAB
  0
TABLE
  2
LAYER
  70
1
  0
LAYER
  2
BLACK
  70
0
  62
7
  6
CONTINUOUS
  0
ENDTAB
  0
ENDSEC
  0
SECTION
  2
ENTITIES
0
LINE
8
BLACK
6
CONTINUOUS
10
1.025
20
0.17
11
0.965
21
0.17
0
LINE
8
BLACK
6
CONTINUOUS
10
0.965
20
0.17
11
0.965
21
0.23
0
LINE
8
BLACK
6
CONTINUOUS
10
0.965
20
0.23
11
1.025
21
0.23
0
LINE
8
BLACK
6
CONTINUOUS
10
1.025
20
0.23
11
1.025
21
0.17
0
LINE
8
BLACK
6
CONTINUOUS
10
1.125
20
0.17
11
1.065
21
0.17
0
LINE
8
BLACK
6
CONTINUOUS
10
1.065
20
0.17
11
1.065
21
0.23
0
LINE
8
BLACK
6
CONTINUOUS
10
1.065
20
0.23
11
1.125
21
0.23
0
LINE
8
BLACK
6
CONTINUOUS
10
1.125
20
0.23
11
1.125
21
0.17
0
LINE
8
BLACK
6
CONTINUOUS
10
1.025
20
0.729843
11
1.065
21
0.729843
0
LINE
8
BLACK
6
CONTINUOUS
10
1.065
20
0.729843
11
1.065
21
0.75
0
LINE
8
BLACK
6
CONTINUOUS
10
1.065
20
0.75
11
1.125
21
0.75
0
LINE
8
BLACK
6
CONTINUOUS
10
1.125
20
0.75
11
1.125
21
0.69
0
LINE
8
BLACK
6
CONTINUOUS
10
1.125
20
0.69
11
1.065
21
0.69
0
LINE
8
BLACK
6
CONTINUOUS
10
1.065
20
0.69
11
1.065
21
0.710157
0
LINE
8
BLACK
6
CONTINUOUS
10
1.065
20
0.710157
11
1.025
21
0.710157
0
LINE
8
BLACK
6
CONTINUOUS
10
1.025
20
0.710157
11
1.025
21
0.69
0
LINE
8
BLACK
6
CONTINUOUS
10
1.025
20
0.69
11
0.965
21
0.69
0
LINE
8
BLACK
6
CONTINUOUS
10
0.965
20
0.69
11
0.965
21
0.710157
0
LINE
8
BLACK
6
CONTINUOUS
10
0.965
20
0.710157
11
0.869077
21
0.710157
0
LINE
8
BLACK
6
CONTINUOUS
10
0.869077
20
0.710157
11
0.720498
21
0.561579
0
LINE
8
BLACK
6
CONTINUOUS
10
0.720498
20
0.561579
11
0.720748
21
0.56
0
LINE
8
BLACK
6
CONTINUOUS
10
0.720748
20
0.56
11
0.719977
21
0.555134
0
LINE
8
BLACK
6
CONTINUOUS
10
0.719977
20
0.555134
11
0.71774
21
0.550744
0
LINE
8
BLACK
6
CONTINUOUS
10
0.71774
20
0.550744
11
0.714256
21
0.54726
0
LINE
8
BLACK
6
CONTINUOUS
10
0.714256
20
0.54726
11
0.709866
21
0.545023
0
LINE
8
BLACK
6
CONTINUOUS
10
0.709866
20
0.545023
11
0.705
21
0.544252
0
LINE
8
BLACK
6
CONTINUOUS
10
0.705
20
0.544252
11
0.700134
21
0.545023
0
LINE
8
BLACK
6
CONTINUOUS
10
0.700134
20
0.545023
11
0.695744
21
0.54726
0
LINE
8
BLACK
6
CONTINUOUS
10
0.695744
20
0.54726
11
0.69226
21
0.550744
0
LINE
8
BLACK
6
CONTINUOUS
10
0.69226
20
0.550744
11
0.690023
21
0.555134
0
LINE
8
BLACK
6
CONTINUOUS
10
0.690023
20
0.555134
11
0.689252
21
0.56
0
LINE
8
BLACK
6
CONTINUOUS
10
0.689252
20
0.56
11
0.690023
21
0.564866
0
LINE
8
BLACK
6
CONTINUOUS
10
0.690023
20
0.564866
11
0.69226
21
0.569256
0
LINE
8
BLACK
6
CONTINUOUS
10
0.69226
20
0.569256
11
0.695744
21
0.57274
0
LINE
8
BLACK
6
CONTINUOUS
10
0.695744
20
0.57274
11
0.700134
21
0.574977
0
LINE
8
BLACK
6
CONTINUOUS
10
0.700134
20
0.574977
11
0.705
21
0.575748
0
LINE
8
BLACK
6
CONTINUOUS
10
0.705
20
0.575748
11
0.706579
21
0.575498
0
LINE
8
BLACK
6
CONTINUOUS
10
0.706579
20
0.575498
11
0.85804
21
0.72696
0
LINE
8
BLACK
6
CONTINUOUS
10
0.85804
20
0.72696
11
0.861233
21
0.729093
0
LINE
8
BLACK
6
CONTINUOUS
10
0.861233
20
0.729093
11
0.865
21
0.729843
0
LINE
8
BLACK
6
CONTINUOUS
10
0.865
20
0.729843
11
0.965
21
0.729843
0
LINE
8
BLACK
6
CONTINUOUS
10
0.965
20
0.729843
11
0.965
21
0.75
0
LINE
8
BLACK
6
CONTINUOUS
10
0.965
20
0.75
11
1.025
21
0.75
0
LINE
8
BLACK
6
CONTINUOUS
10
1.025
20
0.75
11
1.025
21
0.729843
0
LINE
8
BLACK
6
CONTINUOUS
10
0.569866
20
0.734977
11
0.573608
21
0.733071
0
LINE
8
BLACK
6
CONTINUOUS
10
0.573608
20
0.733071
11
0.609724
21
0.733071
0
LINE
8
BLACK
6
CONTINUOUS
10
0.609724
20
0.733071
11
0.609724
21
0.595276
0
LINE
8
BLACK
6
CONTINUOUS
10
0.609724
20
0.595276
11
0.471929
21
0.595276
0
LINE
8
BLACK
6
CONTINUOUS
10
0.471929
20
0.595276
11
0.471929
21
0.733071
0
LINE
8
BLACK
6
CONTINUOUS
10
0.471929
20
0.733071
11
0.556392
21
0.733071
0
LINE
8
BLACK
6
CONTINUOUS
10
0.556392
20
0.733071
11
0.560134
21
0.734977
0
LINE
8
BLACK
6
CONTINUOUS
10
0.560134
20
0.734977
11
0.565
21
0.735748
0
LINE
8
BLACK
6
CONTINUOUS
10
0.565
20
0.735748
11
0.569866
21
0.734977
0
LINE
8
BLACK
6
CONTINUOUS
10
0.709866
20
0.814977
11
0.714256
21
0.81274
0
LINE
8
BLACK
6
CONTINUOUS
10
0.714256
20
0.81274
11
0.71774
21
0.809256
0
LINE
8
BLACK
6
CONTINUOUS
10
0.71774
20
0.809256
11
0.719977
21
0.804866
0
LINE
8
BLACK
6
CONTINUOUS
10
0.719977
20
0.804866
11
0.720748
21
0.8
0
LINE
8
BLACK
6
CONTINUOUS
10
0.720748
20
0.8
11
0.719977
21
0.795134
0
LINE
8
BLACK
6
CONTINUOUS
10
0.719977
20
0.795134
11
0.71774
21
0.790744
0
LINE
8
BLACK
6
CONTINUOUS
10
0.71774
20
0.790744
11
0.714256
21
0.78726
0
LINE
8
BLACK
6
CONTINUOUS
10
0.714256
20
0.78726
11
0.709866
21
0.785023
0
LINE
8
BLACK
6
CONTINUOUS
10
0.709866
20
0.785023
11
0.705
21
0.784252
0
LINE
8
BLACK
6
CONTINUOUS
10
0.705
20
0.784252
11
0.703421
21
0.784502
0
LINE
8
BLACK
6
CONTINUOUS
10
0.703421
20
0.784502
11
0.654843
21
0.735923
0
LINE
8
BLACK
6
CONTINUOUS
10
0.654843
20
0.735923
11
0.654843
21
0.652154
0
LINE
8
BLACK
6
CONTINUOUS
10
0.654843
20
0.652154
11
0.65774
21
0.649256
0
LINE
8
BLACK
6
CONTINUOUS
10
0.65774
20
0.649256
11
0.659977
21
0.644866
0
LINE
8
BLACK
6
CONTINUOUS
10
0.659977
20
0.644866
11
0.660748
21
0.64
0
LINE
8
BLACK
6
CONTINUOUS
10
0.660748
20
0.64
11
0.659977
21
0.635134
0
LINE
8
BLACK
6
CONTINUOUS
10
0.659977
20
0.635134
11
0.65774
21
0.630744
0
LINE
8
BLACK
6
CONTINUOUS
10
0.65774
20
0.630744
11
0.654256
21
0.62726
0
LINE
8
BLACK
6
CONTINUOUS
10
0.654256
20
0.62726
11
0.649866
21
0.625023
0
LINE
8
BLACK
6
CONTINUOUS
10
0.649866
20
0.625023
11
0.645
21
0.624252
0
LINE
8
BLACK
6
CONTINUOUS
10
0.645
20
0.624252
11
0.640134
21
0.625023
0
LINE
8
BLACK
6
CONTINUOUS
10
0.640134
20
0.625023
11
0.635744
21
0.62726
0
LINE
8
BLACK
6
CONTINUOUS
10
0.635744
20
0.62726
11
0.63226
21
0.630744
0
LINE
8
BLACK
6
CONTINUOUS
10
0.63226
20
0.630744
11
0.630023
21
0.635134
0
LINE
8
BLACK
6
CONTINUOUS
10
0.630023
20
0.635134
11
0.629252
21
0.64
0
LINE
8
BLACK
6
CONTINUOUS
10
0.629252
20
0.64
11
0.630023
21
0.644866
0
LINE
8
BLACK
6
CONTINUOUS
10
0.630023
20
0.644866
11
0.63226
21
0.649256
0
LINE
8
BLACK
6
CONTINUOUS
10
0.63226
20
0.649256
11
0.635157
21
0.652154
0
LINE
8
BLACK
6
CONTINUOUS
10
0.635157
20
0.652154
11
0.635157
21
0.74
0
LINE
8
BLACK
6
CONTINUOUS
10
0.635157
20
0.74
11
0.635907
21
0.743767
0
LINE
8
BLACK
6
CONTINUOUS
10
0.635907
20
0.743767
11
0.63804
21
0.74696
0
LINE
8
BLACK
6
CONTINUOUS
10
0.63804
20
0.74696
11
0.689502
21
0.798421
0
LINE
8
BLACK
6
CONTINUOUS
10
0.689502
20
0.798421
11
0.689252
21
0.8
0
LINE
8
BLACK
6
CONTINUOUS
10
0.689252
20
0.8
11
0.690023
21
0.804866
0
LINE
8
BLACK
6
CONTINUOUS
10
0.690023
20
0.804866
11
0.69226
21
0.809256
0
LINE
8
BLACK
6
CONTINUOUS
10
0.69226
20
0.809256
11
0.695744
21
0.81274
0
LINE
8
BLACK
6
CONTINUOUS
10
0.695744
20
0.81274
11
0.700134
21
0.814977
0
LINE
8
BLACK
6
CONTINUOUS
10
0.700134
20
0.814977
11
0.705
21
0.815748
0
LINE
8
BLACK
6
CONTINUOUS
10
0.705
20
0.815748
11
0.709866
21
0.814977
0
LINE
8
BLACK
6
CONTINUOUS
10
1.025
20
0.79
11
0.965
21
0.79
0
LINE
8
BLACK
6
CONTINUOUS
10
0.965
20
0.79
11
0.965
21
0.85
0
LINE
8
BLACK
6
CONTINUOUS
10
0.965
20
0.85
11
1.025
21
0.85
0
LINE
8
BLACK
6
CONTINUOUS
10
1.025
20
0.85
11
1.025
21
0.79
0
LINE
8
BLACK
6
CONTINUOUS
10
1.125
20
0.79
11
1.065
21
0.79
0
LINE
8
BLACK
6
CONTINUOUS
10
1.065
20
0.79
11
1.065
21
0.85
0
LINE
8
BLACK
6
CONTINUOUS
10
1.065
20
0.85
11
1.125
21
0.85
0
LINE
8
BLACK
6
CONTINUOUS
10
1.125
20
0.85
11
1.125
21
0.79
0
LINE
8
BLACK
6
CONTINUOUS
10
1.025
20
0.89
11
0.965
21
0.89
0
LINE
8
BLACK
6
CONTINUOUS
10
0.965
20
0.89
11
0.965
21
0.910157
0
LINE
8
BLACK
6
CONTINUOUS
10
0.965
20
0.910157
11
0.909077
21
0.910157
0
LINE
8
BLACK
6
CONTINUOUS
10
0.909077
20
0.910157
11
0.827708
21
0.828788
0
LINE
8
BLACK
6
CONTINUOUS
10
0.827708
20
0.828788
11
0.824515
21
0.826655
0
LINE
8
BLACK
6
CONTINUOUS
10
0.824515
20
0.826655
11
0.820748
21
0.825905
0
LINE
8
BLACK
6
CONTINUOUS
10
0.820748
20
0.825905
11
0.604825
21
0.825905
0
LINE
8
BLACK
6
CONTINUOUS
10
0.604825
20
0.825905
11
0.600498
21
0.821579
0
LINE
8
BLACK
6
CONTINUOUS
10
0.600498
20
0.821579
11
0.600748
21
0.82
0
LINE
8
BLACK
6
CONTINUOUS
10
0.600748
20
0.82
11
0.599977
21
0.815134
0
LINE
8
BLACK
6
CONTINUOUS
10
0.599977
20
0.815134
11
0.59774
21
0.810744
0
LINE
8
BLACK
6
CONTINUOUS
10
0.59774
20
0.810744
11
0.594256
21
0.80726
0
LINE
8
BLACK
6
CONTINUOUS
10
0.594256
20
0.80726
11
0.589866
21
0.805023
0
LINE
8
BLACK
6
CONTINUOUS
10
0.589866
20
0.805023
11
0.585
21
0.804252
0
LINE
8
BLACK
6
CONTINUOUS
10
0.585
20
0.804252
11
0.580134
21
0.805023
0
LINE
8
BLACK
6
CONTINUOUS
10
0.580134
20
0.805023
11
0.575744
21
0.80726
0
LINE
8
BLACK
6
CONTINUOUS
10
0.575744
20
0.80726
11
0.57226
21
0.810744
0
LINE
8
BLACK
6
CONTINUOUS
10
0.57226
20
0.810744
11
0.570023
21
0.815134
0
LINE
8
BLACK
6
CONTINUOUS
10
0.570023
20
0.815134
11
0.569252
21
0.82
0
LINE
8
BLACK
6
CONTINUOUS
10
0.569252
20
0.82
11
0.570023
21
0.824866
0
LINE
8
BLACK
6
CONTINUOUS
10
0.570023
20
0.824866
11
0.57226
21
0.829256
0
LINE
8
BLACK
6
CONTINUOUS
10
0.57226
20
0.829256
11
0.575744
21
0.83274
0
LINE
8
BLACK
6
CONTINUOUS
10
0.575744
20
0.83274
11
0.580134
21
0.834977
0
LINE
8
BLACK
6
CONTINUOUS
10
0.580134
20
0.834977
11
0.585
21
0.835748
0
LINE
8
BLACK
6
CONTINUOUS
10
0.585
20
0.835748
11
0.586579
21
0.835498
0
LINE
8
BLACK
6
CONTINUOUS
10
0.586579
20
0.835498
11
0.593788
21
0.842708
0
LINE
8
BLACK
6
CONTINUOUS
10
0.593788
20
0.842708
11
0.596981
21
0.844841
0
LINE
8
BLACK
6
CONTINUOUS
10
0.596981
20
0.844841
11
0.600748
21
0.845591
0
LINE
8
BLACK
6
CONTINUOUS
10
0.600748
20
0.845591
11
0.816671
21
0.845591
0
LINE
8
BLACK
6
CONTINUOUS
10
0.816671
20
0.845591
11
0.89804
21
0.92696
0
LINE
8
BLACK
6
CONTINUOUS
10
0.89804
20
0.92696
11
0.89804
21
0.92696
0
LINE
8
BLACK
6
CONTINUOUS
10
0.89804
20
0.92696
11
0.901233
21
0.929093
0
LINE
8
BLACK
6
CONTINUOUS
10
0.901233
20
0.929093
11
0.905
21
0.929843
0
LINE
8
BLACK
6
CONTINUOUS
10
0.905
20
0.929843
11
0.965
21
0.929843
0
LINE
8
BLACK
6
CONTINUOUS
10
0.965
20
0.929843
11
0.965
21
0.95
0
LINE
8
BLACK
6
CONTINUOUS
10
0.965
20
0.95
11
1.025
21
0.95
0
LINE
8
BLACK
6
CONTINUOUS
10
1.025
20
0.95
11
1.025
21
0.89
0
LINE
8
BLACK
6
CONTINUOUS
10
0.609724
20
0.866929
11
0.471929
21
0.866929
0
LINE
8
BLACK
6
CONTINUOUS
10
0.471929
20
0.866929
11
0.471929
21
1.00472
0
LINE
8
BLACK
6
CONTINUOUS
10
0.471929
20
1.00472
11
0.609724
21
1.00472
0
LINE
8
BLACK
6
CONTINUOUS
10
0.609724
20
1.00472
11
0.609724
21
0.866929
0
LINE
8
BLACK
6
CONTINUOUS
10
1.125
20
0.89
11
1.065
21
0.89
0
LINE
8
BLACK
6
CONTINUOUS
10
1.065
20
0.89
11
1.065
21
0.95
0
LINE
8
BLACK
6
CONTINUOUS
10
1.065
20
0.95
11
1.125
21
0.95
0
LINE
8
BLACK
6
CONTINUOUS
10
1.125
20
0.95
11
1.125
21
0.89
0
LINE
8
BLACK
6
CONTINUOUS
10
0.338071
20
0.595276
11
0.200276
21
0.595276
0
LINE
8
BLACK
6
CONTINUOUS
10
0.200276
20
0.595276
11
0.200276
21
0.733071
0
LINE
8
BLACK
6
CONTINUOUS
10
0.200276
20
0.733071
11
0.338071
21
0.733071
0
LINE
8
BLACK
6
CONTINUOUS
10
0.338071
20
0.733071
11
0.338071
21
0.595276
0
LINE
8
BLACK
6
CONTINUOUS
10
0.338071
20
0.866929
11
0.200276
21
0.866929
0
LINE
8
BLACK
6
CONTINUOUS
10
0.200276
20
0.866929
11
0.200276
21
1.00472
0
LINE
8
BLACK
6
CONTINUOUS
10
0.200276
20
1.00472
11
0.338071
21
1.00472
0
LINE
8
BLACK
6
CONTINUOUS
10
0.338071
20
1.00472
11
0.338071
21
0.866929
0
LINE
8
BLACK
6
CONTINUOUS
10
1.025
20
1.37
11
0.965
21
1.37
0
LINE
8
BLACK
6
CONTINUOUS
10
0.965
20
1.37
11
0.965
21
1.43
0
LINE
8
BLACK
6
CONTINUOUS
10
0.965
20
1.43
11
1.025
21
1.43
0
LINE
8
BLACK
6
CONTINUOUS
10
1.025
20
1.43
11
1.025
21
1.37
0
LINE
8
BLACK
6
CONTINUOUS
10
1.125
20
1.37
11
1.065
21
1.37
0
LINE
8
BLACK
6
CONTINUOUS
10
1.065
20
1.37
11
1.065
21
1.43
0
LINE
8
BLACK
6
CONTINUOUS
10
1.065
20
1.43
11
1.125
21
1.43
0
LINE
8
BLACK
6
CONTINUOUS
10
1.125
20
1.43
11
1.125
21
1.37
0
LINE
8
BLACK
6
CONTINUOUS
10
1.17302
20
1.56951
11
1.17485
21
1.5674
0
LINE
8
BLACK
6
CONTINUOUS
10
1.17485
20
1.5674
11
1.1753
21
1.56533
0
LINE
8
BLACK
6
CONTINUOUS
10
1.1753
20
1.56533
11
1.1753
21
0.0346654
0
LINE
8
BLACK
6
CONTINUOUS
10
1.1753
20
0.0346654
11
1.17451
21
0.0319834
0
LINE
8
BLACK
6
CONTINUOUS
10
1.17451
20
0.0319834
11
1.1724
21
0.030153
0
LINE
8
BLACK
6
CONTINUOUS
10
1.1724
20
0.030153
11
1.17033
21
0.0297047
0
LINE
8
BLACK
6
CONTINUOUS
10
1.17033
20
0.0297047
11
0.0396654
21
0.0297047
0
LINE
8
BLACK
6
CONTINUOUS
10
0.0396654
20
0.0297047
11
0.0369834
21
0.0304922
0
LINE
8
BLACK
6
CONTINUOUS
10
0.0369834
20
0.0304922
11
0.035153
21
0.0326046
0
LINE
8
BLACK
6
CONTINUOUS
10
0.035153
20
0.0326046
11
0.0347047
21
0.0346654
0
LINE
8
BLACK
6
CONTINUOUS
10
0.0347047
20
0.0346654
11
0.0347047
21
0.168085
0
LINE
8
BLACK
6
CONTINUOUS
10
0.0347047
20
0.168085
11
0.0347047
21
0.59336
0
LINE
8
BLACK
6
CONTINUOUS
10
0.0347047
20
0.59336
11
0.0347047
21
0.865014
0
LINE
8
BLACK
6
CONTINUOUS
10
0.0347047
20
0.865014
11
0.0347047
21
1.36808
0
LINE
8
BLACK
6
CONTINUOUS
10
0.0347047
20
1.36808
11
0.0347047
21
1.56533
0
LINE
8
BLACK
6
CONTINUOUS
10
0.0347047
20
1.56533
11
0.0354922
21
1.56802
0
LINE
8
BLACK
6
CONTINUOUS
10
0.0354922
20
1.56802
11
0.0376046
21
1.56985
0
LINE
8
BLACK
6
CONTINUOUS
10
0.0376046
20
1.56985
11
0.0396654
21
1.5703
0
LINE
8
BLACK
6
CONTINUOUS
10
0.0396654
20
1.5703
11
1.17033
21
1.5703
0
LINE
8
BLACK
6
CONTINUOUS
10
1.17033
20
1.5703
11
1.17302
21
1.56951
0
LINE
8
BLACK
6
CONTINUOUS
10
0.945
20
0.09
11
0.945
21
0.0680867
0
LINE
8
BLACK
6
CONTINUOUS
10
0.945
20
0.0680867
11
0.945256
21
0.065705
0
LINE
8
BLACK
6
CONTINUOUS
10
0.945256
20
0.065705
11
0.947266
21
0.0603163
0
LINE
8
BLACK
6
CONTINUOUS
10
0.947266
20
0.0603163
11
0.947266
21
0.0603163
0
LINE
8
BLACK
6
CONTINUOUS
10
0.947266
20
0.0603163
11
0.950712
21
0.0557124
0
LINE
8
BLACK
6
CONTINUOUS
10
0.950712
20
0.0557124
11
0.955316
21
0.0522659
0
LINE
8
BLACK
6
CONTINUOUS
10
0.955316
20
0.0522659
11
0.960705
21
0.0502561
0
LINE
8
BLACK
6
CONTINUOUS
10
0.960705
20
0.0502561
11
0.963087
21
0.05
0
LINE
8
BLACK
6
CONTINUOUS
10
0.963087
20
0.05
11
0.985
21
0.05
0
LINE
8
BLACK
6
CONTINUOUS
10
0.985
20
0.05
11
0.985
21
0.07
0
LINE
8
BLACK
6
CONTINUOUS
10
0.985
20
0.07
11
0.965
21
0.07
0
LINE
8
BLACK
6
CONTINUOUS
10
0.965
20
0.07
11
0.965
21
0.09
0
LINE
8
BLACK
6
CONTINUOUS
10
0.965
20
0.09
11
0.945
21
0.09
0
LINE
8
BLACK
6
CONTINUOUS
10
1.025
20
0.09
11
1.025
21
0.07
0
LINE
8
BLACK
6
CONTINUOUS
10
1.025
20
0.07
11
1.005
21
0.07
0
LINE
8
BLACK
6
CONTINUOUS
10
1.005
20
0.07
11
1.005
21
0.05
0
LINE
8
BLACK
6
CONTINUOUS
10
1.005
20
0.05
11
1.02691
21
0.05
0
LINE
8
BLACK
6
CONTINUOUS
10
1.02691
20
0.05
11
1.0293
21
0.0502561
0
LINE
8
BLACK
6
CONTINUOUS
10
1.0293
20
0.0502561
11
1.03468
21
0.0522659
0
LINE
8
BLACK
6
CONTINUOUS
10
1.03468
20
0.0522659
11
1.03468
21
0.0522659
0
LINE
8
BLACK
6
CONTINUOUS
10
1.03468
20
0.0522659
11
1.03929
21
0.0557124
0
LINE
8
BLACK
6
CONTINUOUS
10
1.03929
20
0.0557124
11
1.04103
21
0.0580385
0
LINE
8
BLACK
6
CONTINUOUS
10
1.04103
20
0.0580385
11
1.04327
21
0.0597135
0
LINE
8
BLACK
6
CONTINUOUS
10
1.04327
20
0.0597135
11
1.04605
21
0.0599129
0
LINE
8
BLACK
6
CONTINUOUS
10
1.04605
20
0.0599129
11
1.04851
21
0.0585733
0
LINE
8
BLACK
6
CONTINUOUS
10
1.04851
20
0.0585733
11
1.04897
21
0.0580385
0
LINE
8
BLACK
6
CONTINUOUS
10
1.04897
20
0.0580385
11
1.05071
21
0.0557124
0
LINE
8
BLACK
6
CONTINUOUS
10
1.05071
20
0.0557124
11
1.05532
21
0.0522659
0
LINE
8
BLACK
6
CONTINUOUS
10
1.05532
20
0.0522659
11
1.0607
21
0.0502561
0
LINE
8
BLACK
6
CONTINUOUS
10
1.0607
20
0.0502561
11
1.06309
21
0.05
0
LINE
8
BLACK
6
CONTINUOUS
10
1.06309
20
0.05
11
1.085
21
0.05
0
LINE
8
BLACK
6
CONTINUOUS
10
1.085
20
0.05
11
1.085
21
0.07
0
LINE
8
BLACK
6
CONTINUOUS
10
1.085
20
0.07
11
1.065
21
0.07
0
LINE
8
BLACK
6
CONTINUOUS
10
1.065
20
0.07
11
1.065
21
0.09
0
LINE
8
BLACK
6
CONTINUOUS
10
1.065
20
0.09
11
1.025
21
0.09
0
LINE
8
BLACK
6
CONTINUOUS
10
1.125
20
0.07
11
1.105
21
0.07
0
LINE
8
BLACK
6
CONTINUOUS
10
1.105
20
0.07
11
1.105
21
0.05
0
LINE
8
BLACK
6
CONTINUOUS
10
1.105
20
0.05
11
1.12691
21
0.05
0
LINE
8
BLACK
6
CONTINUOUS
10
1.12691
20
0.05
11
1.12929
21
0.0502561
0
LINE
8
BLACK
6
CONTINUOUS
10
1.12929
20
0.0502561
11
1.13468
21
0.0522659
0
LINE
8
BLACK
6
CONTINUOUS
10
1.13468
20
0.0522659
11
1.13468
21
0.0522659
0
LINE
8
BLACK
6
CONTINUOUS
10
1.13468
20
0.0522659
11
1.13929
21
0.0557124
0
LINE
8
BLACK
6
CONTINUOUS
10
1.13929
20
0.0557124
11
1.14273
21
0.0603163
0
LINE
8
BLACK
6
CONTINUOUS
10
1.14273
20
0.0603163
11
1.14273
21
0.0603163
0
LINE
8
BLACK
6
CONTINUOUS
10
1.14273
20
0.0603163
11
1.14474
21
0.065705
0
LINE
8
BLACK
6
CONTINUOUS
10
1.14474
20
0.065705
11
1.145
21
0.0680867
0
LINE
8
BLACK
6
CONTINUOUS
10
1.145
20
0.0680867
11
1.145
21
0.0680872
0
LINE
8
BLACK
6
CONTINUOUS
10
1.145
20
0.0680872
11
1.145
21
0.09
0
LINE
8
BLACK
6
CONTINUOUS
10
1.145
20
0.09
11
1.125
21
0.09
0
LINE
8
BLACK
6
CONTINUOUS
10
1.125
20
0.09
11
1.125
21
0.07
0
LINE
8
BLACK
6
CONTINUOUS
10
1.025
20
0.29
11
1.025
21
0.27
0
LINE
8
BLACK
6
CONTINUOUS
10
1.025
20
0.27
11
0.965
21
0.27
0
LINE
8
BLACK
6
CONTINUOUS
10
0.965
20
0.27
11
0.965
21
0.29
0
LINE
8
BLACK
6
CONTINUOUS
10
0.965
20
0.29
11
0.945
21
0.29
0
LINE
8
BLACK
6
CONTINUOUS
10
0.945
20
0.29
11
0.945
21
0.268087
0
LINE
8
BLACK
6
CONTINUOUS
10
0.945
20
0.268087
11
0.945256
21
0.265705
0
LINE
8
BLACK
6
CONTINUOUS
10
0.945256
20
0.265705
11
0.947266
21
0.260316
0
LINE
8
BLACK
6
CONTINUOUS
10
0.947266
20
0.260316
11
0.947266
21
0.260316
0
LINE
8
BLACK
6
CONTINUOUS
10
0.947266
20
0.260316
11
0.950712
21
0.255712
0
LINE
8
BLACK
6
CONTINUOUS
10
0.950712
20
0.255712
11
0.953022
21
0.253983
0
LINE
8
BLACK
6
CONTINUOUS
10
0.953022
20
0.253983
11
0.954697
21
0.251746
0
LINE
8
BLACK
6
CONTINUOUS
10
0.954697
20
0.251746
11
0.954896
21
0.248958
0
LINE
8
BLACK
6
CONTINUOUS
10
0.954896
20
0.248958
11
0.953557
21
0.246505
0
LINE
8
BLACK
6
CONTINUOUS
10
0.953557
20
0.246505
11
0.953022
21
0.246041
0
LINE
8
BLACK
6
CONTINUOUS
10
0.953022
20
0.246041
11
0.950698
21
0.244302
0
LINE
8
BLACK
6
CONTINUOUS
10
0.950698
20
0.244302
11
0.950698
21
0.244302
0
LINE
8
BLACK
6
CONTINUOUS
10
0.950698
20
0.244302
11
0.950698
21
0.244302
0
LINE
8
BLACK
6
CONTINUOUS
10
0.950698
20
0.244302
11
0.947249
21
0.239693
0
LINE
8
BLACK
6
CONTINUOUS
10
0.947249
20
0.239693
11
0.947248
21
0.239693
0
LINE
8
BLACK
6
CONTINUOUS
10
0.947248
20
0.239693
11
0.945237
21
0.234299
0
LINE
8
BLACK
6
CONTINUOUS
10
0.945237
20
0.234299
11
0.945237
21
0.234299
0
LINE
8
BLACK
6
CONTINUOUS
10
0.945237
20
0.234299
11
0.94498
21
0.231915
0
LINE
8
BLACK
6
CONTINUOUS
10
0.94498
20
0.231915
11
0.94498
21
0.168085
0
LINE
8
BLACK
6
CONTINUOUS
10
0.94498
20
0.168085
11
0.945237
21
0.165701
0
LINE
8
BLACK
6
CONTINUOUS
10
0.945237
20
0.165701
11
0.945237
21
0.165701
0
LINE
8
BLACK
6
CONTINUOUS
10
0.945237
20
0.165701
11
0.947248
21
0.160307
0
LINE
8
BLACK
6
CONTINUOUS
10
0.947248
20
0.160307
11
0.947249
21
0.160307
0
LINE
8
BLACK
6
CONTINUOUS
10
0.947249
20
0.160307
11
0.950698
21
0.155698
0
LINE
8
BLACK
6
CONTINUOUS
10
0.950698
20
0.155698
11
0.953022
21
0.153959
0
LINE
8
BLACK
6
CONTINUOUS
10
0.953022
20
0.153959
11
0.954697
21
0.151721
0
LINE
8
BLACK
6
CONTINUOUS
10
0.954697
20
0.151721
11
0.954896
21
0.148933
0
LINE
8
BLACK
6
CONTINUOUS
10
0.954896
20
0.148933
11
0.953557
21
0.14648
0
LINE
8
BLACK
6
CONTINUOUS
10
0.953557
20
0.14648
11
0.953022
21
0.146016
0
LINE
8
BLACK
6
CONTINUOUS
10
0.953022
20
0.146016
11
0.950712
21
0.144288
0
LINE
8
BLACK
6
CONTINUOUS
10
0.950712
20
0.144288
11
0.947266
21
0.139684
0
LINE
8
BLACK
6
CONTINUOUS
10
0.947266
20
0.139684
11
0.947266
21
0.139684
0
LINE
8
BLACK
6
CONTINUOUS
10
0.947266
20
0.139684
11
0.945256
21
0.134295
0
LINE
8
BLACK
6
CONTINUOUS
10
0.945256
20
0.134295
11
0.945
21
0.131913
0
LINE
8
BLACK
6
CONTINUOUS
10
0.945
20
0.131913
11
0.945
21
0.11
0
LINE
8
BLACK
6
CONTINUOUS
10
0.945
20
0.11
11
0.965
21
0.11
0
LINE
8
BLACK
6
CONTINUOUS
10
0.965
20
0.11
11
0.965
21
0.13
0
LINE
8
BLACK
6
CONTINUOUS
10
0.965
20
0.13
11
1.025
21
0.13
0
LINE
8
BLACK
6
CONTINUOUS
10
1.025
20
0.13
11
1.025
21
0.11
0
LINE
8
BLACK
6
CONTINUOUS
10
1.025
20
0.11
11
1.065
21
0.11
0
LINE
8
BLACK
6
CONTINUOUS
10
1.065
20
0.11
11
1.065
21
0.13
0
LINE
8
BLACK
6
CONTINUOUS
10
1.065
20
0.13
11
1.125
21
0.13
0
LINE
8
BLACK
6
CONTINUOUS
10
1.125
20
0.13
11
1.125
21
0.11
0
LINE
8
BLACK
6
CONTINUOUS
10
1.125
20
0.11
11
1.145
21
0.11
0
LINE
8
BLACK
6
CONTINUOUS
10
1.145
20
0.11
11
1.145
21
0.131913
0
LINE
8
BLACK
6
CONTINUOUS
10
1.145
20
0.131913
11
1.145
21
0.131913
0
LINE
8
BLACK
6
CONTINUOUS
10
1.145
20
0.131913
11
1.14474
21
0.134295
0
LINE
8
BLACK
6
CONTINUOUS
10
1.14474
20
0.134295
11
1.14273
21
0.139684
0
LINE
8
BLACK
6
CONTINUOUS
10
1.14273
20
0.139684
11
1.14273
21
0.139684
0
LINE
8
BLACK
6
CONTINUOUS
10
1.14273
20
0.139684
11
1.13929
21
0.144288
0
LINE
8
BLACK
6
CONTINUOUS
10
1.13929
20
0.144288
11
1.13698
21
0.146016
0
LINE
8
BLACK
6
CONTINUOUS
10
1.13698
20
0.146016
11
1.1353
21
0.148254
0
LINE
8
BLACK
6
CONTINUOUS
10
1.1353
20
0.148254
11
1.1351
21
0.151042
0
LINE
8
BLACK
6
CONTINUOUS
10
1.1351
20
0.151042
11
1.13644
21
0.153495
0
LINE
8
BLACK
6
CONTINUOUS
10
1.13644
20
0.153495
11
1.13698
21
0.153959
0
LINE
8
BLACK
6
CONTINUOUS
10
1.13698
20
0.153959
11
1.1393
21
0.155698
0
LINE
8
BLACK
6
CONTINUOUS
10
1.1393
20
0.155698
11
1.1393
21
0.155698
0
LINE
8
BLACK
6
CONTINUOUS
10
1.1393
20
0.155698
11
1.14103
21
0.158006
0
LINE
8
BLACK
6
CONTINUOUS
10
1.14103
20
0.158006
11
1.14275
21
0.160307
0
LINE
8
BLACK
6
CONTINUOUS
10
1.14275
20
0.160307
11
1.14275
21
0.160307
0
LINE
8
BLACK
6
CONTINUOUS
10
1.14275
20
0.160307
11
1.14476
21
0.165701
0
LINE
8
BLACK
6
CONTINUOUS
10
1.14476
20
0.165701
11
1.14476
21
0.165701
0
LINE
8
BLACK
6
CONTINUOUS
10
1.14476
20
0.165701
11
1.14502
21
0.168085
0
LINE
8
BLACK
6
CONTINUOUS
10
1.14502
20
0.168085
11
1.14502
21
0.168085
0
LINE
8
BLACK
6
CONTINUOUS
10
1.14502
20
0.168085
11
1.14502
21
0.231915
0
LINE
8
BLACK
6
CONTINUOUS
10
1.14502
20
0.231915
11
1.14502
21
0.231915
0
LINE
8
BLACK
6
CONTINUOUS
10
1.14502
20
0.231915
11
1.14476
21
0.234299
0
LINE
8
BLACK
6
CONTINUOUS
10
1.14476
20
0.234299
11
1.14476
21
0.234299
0
LINE
8
BLACK
6
CONTINUOUS
10
1.14476
20
0.234299
11
1.14449
21
0.235041
0
LINE
8
BLACK
6
CONTINUOUS
10
1.14449
20
0.235041
11
1.14275
21
0.239693
0
LINE
8
BLACK
6
CONTINUOUS
10
1.14275
20
0.239693
11
1.1393
21
0.244302
0
LINE
8
BLACK
6
CONTINUOUS
10
1.1393
20
0.244302
11
1.13698
21
0.246041
0
LINE
8
BLACK
6
CONTINUOUS
10
1.13698
20
0.246041
11
1.1353
21
0.248279
0
LINE
8
BLACK
6
CONTINUOUS
10
1.1353
20
0.248279
11
1.1351
21
0.251067
0
LINE
8
BLACK
6
CONTINUOUS
10
1.1351
20
0.251067
11
1.13644
21
0.25352
0
LINE
8
BLACK
6
CONTINUOUS
10
1.13644
20
0.25352
11
1.13698
21
0.253983
0
LINE
8
BLACK
6
CONTINUOUS
10
1.13698
20
0.253983
11
1.13929
21
0.255712
0
LINE
8
BLACK
6
CONTINUOUS
10
1.13929
20
0.255712
11
1.14273
21
0.260316
0
LINE
8
BLACK
6
CONTINUOUS
10
1.14273
20
0.260316
11
1.14273
21
0.260316
0
LINE
8
BLACK
6
CONTINUOUS
10
1.14273
20
0.260316
11
1.14474
21
0.265705
0
LINE
8
BLACK
6
CONTINUOUS
10
1.14474
20
0.265705
11
1.145
21
0.268087
0
LINE
8
BLACK
6
CONTINUOUS
10
1.145
20
0.268087
11
1.145
21
0.268087
0
LINE
8
BLACK
6
CONTINUOUS
10
1.145
20
0.268087
11
1.145
21
0.29
0
LINE
8
BLACK
6
CONTINUOUS
10
1.145
20
0.29
11
1.125
21
0.29
0
LINE
8
BLACK
6
CONTINUOUS
10
1.125
20
0.29
11
1.125
21
0.27
0
LINE
8
BLACK
6
CONTINUOUS
10
1.125
20
0.27
11
1.065
21
0.27
0
LINE
8
BLACK
6
CONTINUOUS
10
1.065
20
0.27
11
1.065
21
0.29
0
LINE
8
BLACK
6
CONTINUOUS
10
1.065
20
0.29
11
1.025
21
0.29
0
LINE
8
BLACK
6
CONTINUOUS
10
1.105
20
0.33
11
1.125
21
0.33
0
LINE
8
BLACK
6
CONTINUOUS
10
1.125
20
0.33
11
1.125
21
0.31
0
LINE
8
BLACK
6
CONTINUOUS
10
1.125
20
0.31
11
1.145
21
0.31
0
LINE
8
BLACK
6
CONTINUOUS
10
1.145
20
0.31
11
1.145
21
0.331913
0
LINE
8
BLACK
6
CONTINUOUS
10
1.145
20
0.331913
11
1.145
21
0.331913
0
LINE
8
BLACK
6
CONTINUOUS
10
1.145
20
0.331913
11
1.14474
21
0.334295
0
LINE
8
BLACK
6
CONTINUOUS
10
1.14474
20
0.334295
11
1.14273
21
0.339684
0
LINE
8
BLACK
6
CONTINUOUS
10
1.14273
20
0.339684
11
1.14273
21
0.339684
0
LINE
8
BLACK
6
CONTINUOUS
10
1.14273
20
0.339684
11
1.13929
21
0.344288
0
LINE
8
BLACK
6
CONTINUOUS
10
1.13929
20
0.344288
11
1.13468
21
0.347734
0
LINE
8
BLACK
6
CONTINUOUS
10
1.13468
20
0.347734
11
1.12929
21
0.349744
0
LINE
8
BLACK
6
CONTINUOUS
10
1.12929
20
0.349744
11
1.12691
21
0.35
0
LINE
8
BLACK
6
CONTINUOUS
10
1.12691
20
0.35
11
1.12691
21
0.35
0
LINE
8
BLACK
6
CONTINUOUS
10
1.12691
20
0.35
11
1.105
21
0.35
0
LINE
8
BLACK
6
CONTINUOUS
10
1.105
20
0.35
11
1.105
21
0.33
0
LINE
8
BLACK
6
CONTINUOUS
10
1.005
20
0.33
11
1.025
21
0.33
0
LINE
8
BLACK
6
CONTINUOUS
10
1.025
20
0.33
11
1.025
21
0.31
0
LINE
8
BLACK
6
CONTINUOUS
10
1.025
20
0.31
11
1.065
21
0.31
0
LINE
8
BLACK
6
CONTINUOUS
10
1.065
20
0.31
11
1.065
21
0.33
0
LINE
8
BLACK
6
CONTINUOUS
10
1.065
20
0.33
11
1.085
21
0.33
0
LINE
8
BLACK
6
CONTINUOUS
10
1.085
20
0.33
11
1.085
21
0.35
0
LINE
8
BLACK
6
CONTINUOUS
10
1.085
20
0.35
11
1.06309
21
0.35
0
LINE
8
BLACK
6
CONTINUOUS
10
1.06309
20
0.35
11
1.06309
21
0.35
0
LINE
8
BLACK
6
CONTINUOUS
10
1.06309
20
0.35
11
1.0607
21
0.349744
0
LINE
8
BLACK
6
CONTINUOUS
10
1.0607
20
0.349744
11
1.05532
21
0.347734
0
LINE
8
BLACK
6
CONTINUOUS
10
1.05532
20
0.347734
11
1.05532
21
0.347734
0
LINE
8
BLACK
6
CONTINUOUS
10
1.05532
20
0.347734
11
1.05071
21
0.344288
0
LINE
8
BLACK
6
CONTINUOUS
10
1.05071
20
0.344288
11
1.04897
21
0.341962
0
LINE
8
BLACK
6
CONTINUOUS
10
1.04897
20
0.341962
11
1.04673
21
0.340286
0
LINE
8
BLACK
6
CONTINUOUS
10
1.04673
20
0.340286
11
1.04395
21
0.340087
0
LINE
8
BLACK
6
CONTINUOUS
10
1.04395
20
0.340087
11
1.04149
21
0.341427
0
LINE
8
BLACK
6
CONTINUOUS
10
1.04149
20
0.341427
11
1.04103
21
0.341962
0
LINE
8
BLACK
6
CONTINUOUS
10
1.04103
20
0.341962
11
1.03929
21
0.344288
0
LINE
8
BLACK
6
CONTINUOUS
10
1.03929
20
0.344288
11
1.03468
21
0.347734
0
LINE
8
BLACK
6
CONTINUOUS
10
1.03468
20
0.347734
11
1.0293
21
0.349744
0
LINE
8
BLACK
6
CONTINUOUS
10
1.0293
20
0.349744
11
1.02691
21
0.35
0
LINE
8
BLACK
6
CONTINUOUS
10
1.02691
20
0.35
11
1.02691
21
0.35
0
LINE
8
BLACK
6
CONTINUOUS
10
1.02691
20
0.35
11
1.005
21
0.35
0
LINE
8
BLACK
6
CONTINUOUS
10
1.005
20
0.35
11
1.005
21
0.33
0
LINE
8
BLACK
6
CONTINUOUS
10
0.963087
20
0.35
11
0.960705
21
0.349744
0
LINE
8
BLACK
6
CONTINUOUS
10
0.960705
20
0.349744
11
0.955316
21
0.347734
0
LINE
8
BLACK
6
CONTINUOUS
10
0.955316
20
0.347734
11
0.955316
21
0.347734
0
LINE
8
BLACK
6
CONTINUOUS
10
0.955316
20
0.347734
11
0.950712
21
0.344288
0
LINE
8
BLACK
6
CONTINUOUS
10
0.950712
20
0.344288
11
0.947266
21
0.339684
0
LINE
8
BLACK
6
CONTINUOUS
10
0.947266
20
0.339684
11
0.947266
21
0.339684
0
LINE
8
BLACK
6
CONTINUOUS
10
0.947266
20
0.339684
11
0.945256
21
0.334295
0
LINE
8
BLACK
6
CONTINUOUS
10
0.945256
20
0.334295
11
0.945
21
0.331913
0
LINE
8
BLACK
6
CONTINUOUS
10
0.945
20
0.331913
11
0.945
21
0.31
0
LINE
8
BLACK
6
CONTINUOUS
10
0.945
20
0.31
11
0.965
21
0.31
0
LINE
8
BLACK
6
CONTINUOUS
10
0.965
20
0.31
11
0.965
21
0.33
0
LINE
8
BLACK
6
CONTINUOUS
10
0.965
20
0.33
11
0.985
21
0.33
0
LINE
8
BLACK
6
CONTINUOUS
10
0.985
20
0.33
11
0.985
21
0.35
0
LINE
8
BLACK
6
CONTINUOUS
10
0.985
20
0.35
11
0.963087
21
0.35
0
LINE
8
BLACK
6
CONTINUOUS
10
0.963087
20
0.35
11
0.963087
21
0.35
0
LINE
8
BLACK
6
CONTINUOUS
10
0.452166
20
0.590976
11
0.452166
21
0.590976
0
LINE
8
BLACK
6
CONTINUOUS
10
0.452166
20
0.590976
11
0.454178
21
0.585583
0
LINE
8
BLACK
6
CONTINUOUS
10
0.454178
20
0.585583
11
0.454178
21
0.585582
0
LINE
8
BLACK
6
CONTINUOUS
10
0.454178
20
0.585582
11
0.457627
21
0.580974
0
LINE
8
BLACK
6
CONTINUOUS
10
0.457627
20
0.580974
11
0.462236
21
0.577524
0
LINE
8
BLACK
6
CONTINUOUS
10
0.462236
20
0.577524
11
0.462236
21
0.577524
0
LINE
8
BLACK
6
CONTINUOUS
10
0.462236
20
0.577524
11
0.46763
21
0.575512
0
LINE
8
BLACK
6
CONTINUOUS
10
0.46763
20
0.575512
11
0.46763
21
0.575512
0
LINE
8
BLACK
6
CONTINUOUS
10
0.46763
20
0.575512
11
0.470014
21
0.575256
0
LINE
8
BLACK
6
CONTINUOUS
10
0.470014
20
0.575256
11
0.470014
21
0.575256
0
LINE
8
BLACK
6
CONTINUOUS
10
0.470014
20
0.575256
11
0.61164
21
0.575256
0
LINE
8
BLACK
6
CONTINUOUS
10
0.61164
20
0.575256
11
0.614023
21
0.575512
0
LINE
8
BLACK
6
CONTINUOUS
10
0.614023
20
0.575512
11
0.614024
21
0.575512
0
LINE
8
BLACK
6
CONTINUOUS
10
0.614024
20
0.575512
11
0.619417
21
0.577524
0
LINE
8
BLACK
6
CONTINUOUS
10
0.619417
20
0.577524
11
0.619418
21
0.577524
0
LINE
8
BLACK
6
CONTINUOUS
10
0.619418
20
0.577524
11
0.624026
21
0.580974
0
LINE
8
BLACK
6
CONTINUOUS
10
0.624026
20
0.580974
11
0.627476
21
0.585582
0
LINE
8
BLACK
6
CONTINUOUS
10
0.627476
20
0.585582
11
0.627476
21
0.585583
0
LINE
8
BLACK
6
CONTINUOUS
10
0.627476
20
0.585583
11
0.627903
21
0.586727
0
LINE
8
BLACK
6
CONTINUOUS
10
0.627903
20
0.586727
11
0.629488
21
0.590976
0
LINE
8
BLACK
6
CONTINUOUS
10
0.629488
20
0.590976
11
0.629488
21
0.590976
0
LINE
8
BLACK
6
CONTINUOUS
10
0.629488
20
0.590976
11
0.629744
21
0.59336
0
LINE
8
BLACK
6
CONTINUOUS
10
0.629744
20
0.59336
11
0.629744
21
0.59336
0
LINE
8
BLACK
6
CONTINUOUS
10
0.629744
20
0.59336
11
0.629744
21
0.593361
0
LINE
8
BLACK
6
CONTINUOUS
10
0.629744
20
0.593361
11
0.629744
21
0.60055
0
LINE
8
BLACK
6
CONTINUOUS
10
0.629744
20
0.60055
11
0.630532
21
0.603232
0
LINE
8
BLACK
6
CONTINUOUS
10
0.630532
20
0.603232
11
0.632644
21
0.605062
0
LINE
8
BLACK
6
CONTINUOUS
10
0.632644
20
0.605062
11
0.635411
21
0.60546
0
LINE
8
BLACK
6
CONTINUOUS
10
0.635411
20
0.60546
11
0.635736
21
0.605402
0
LINE
8
BLACK
6
CONTINUOUS
10
0.635736
20
0.605402
11
0.641241
21
0.604232
0
LINE
8
BLACK
6
CONTINUOUS
10
0.641241
20
0.604232
11
0.648759
21
0.604232
0
LINE
8
BLACK
6
CONTINUOUS
10
0.648759
20
0.604232
11
0.656114
21
0.605796
0
LINE
8
BLACK
6
CONTINUOUS
10
0.656114
20
0.605796
11
0.662982
21
0.608854
0
LINE
8
BLACK
6
CONTINUOUS
10
0.662982
20
0.608854
11
0.669065
21
0.613273
0
LINE
8
BLACK
6
CONTINUOUS
10
0.669065
20
0.613273
11
0.674096
21
0.61886
0
LINE
8
BLACK
6
CONTINUOUS
10
0.674096
20
0.61886
11
0.674096
21
0.618861
0
LINE
8
BLACK
6
CONTINUOUS
10
0.674096
20
0.618861
11
0.677242
21
0.624309
0
LINE
8
BLACK
6
CONTINUOUS
10
0.677242
20
0.624309
11
0.677855
21
0.625372
0
LINE
8
BLACK
6
CONTINUOUS
10
0.677855
20
0.625372
11
0.678394
21
0.627031
0
LINE
8
BLACK
6
CONTINUOUS
10
0.678394
20
0.627031
11
0.675744
21
0.628382
0
LINE
8
BLACK
6
CONTINUOUS
10
0.675744
20
0.628382
11
0.67226
21
0.631866
0
LINE
8
BLACK
6
CONTINUOUS
10
0.67226
20
0.631866
11
0.670023
21
0.636256
0
LINE
8
BLACK
6
CONTINUOUS
10
0.670023
20
0.636256
11
0.669252
21
0.641122
0
LINE
8
BLACK
6
CONTINUOUS
10
0.669252
20
0.641122
11
0.670023
21
0.645989
0
LINE
8
BLACK
6
CONTINUOUS
10
0.670023
20
0.645989
11
0.67226
21
0.650379
0
LINE
8
BLACK
6
CONTINUOUS
10
0.67226
20
0.650379
11
0.675744
21
0.653863
0
LINE
8
BLACK
6
CONTINUOUS
10
0.675744
20
0.653863
11
0.677717
21
0.654868
0
LINE
8
BLACK
6
CONTINUOUS
10
0.677717
20
0.654868
11
0.675527
21
0.658661
0
LINE
8
BLACK
6
CONTINUOUS
10
0.675527
20
0.658661
11
0.674862
21
0.661142
0
LINE
8
BLACK
6
CONTINUOUS
10
0.674862
20
0.661142
11
0.674862
21
0.725576
0
LINE
8
BLACK
6
CONTINUOUS
10
0.674862
20
0.725576
11
0.67565
21
0.728258
0
LINE
8
BLACK
6
CONTINUOUS
10
0.67565
20
0.728258
11
0.676315
21
0.729084
0
LINE
8
BLACK
6
CONTINUOUS
10
0.676315
20
0.729084
11
0.711155
21
0.763923
0
LINE
8
BLACK
6
CONTINUOUS
10
0.711155
20
0.763923
11
0.713608
21
0.765263
0
LINE
8
BLACK
6
CONTINUOUS
10
0.713608
20
0.765263
11
0.713631
21
0.765268
0
LINE
8
BLACK
6
CONTINUOUS
10
0.713631
20
0.765268
11
0.716114
21
0.765796
0
LINE
8
BLACK
6
CONTINUOUS
10
0.716114
20
0.765796
11
0.722982
21
0.768854
0
LINE
8
BLACK
6
CONTINUOUS
10
0.722982
20
0.768854
11
0.729065
21
0.773273
0
LINE
8
BLACK
6
CONTINUOUS
10
0.729065
20
0.773273
11
0.734096
21
0.77886
0
LINE
8
BLACK
6
CONTINUOUS
10
0.734096
20
0.77886
11
0.734096
21
0.778861
0
LINE
8
BLACK
6
CONTINUOUS
10
0.734096
20
0.778861
11
0.73457
21
0.779681
0
LINE
8
BLACK
6
CONTINUOUS
10
0.73457
20
0.779681
11
0.737855
21
0.785372
0
LINE
8
BLACK
6
CONTINUOUS
10
0.737855
20
0.785372
11
0.740179
21
0.792523
0
LINE
8
BLACK
6
CONTINUOUS
10
0.740179
20
0.792523
11
0.740965
21
0.8
0
LINE
8
BLACK
6
CONTINUOUS
10
0.740965
20
0.8
11
0.740922
21
0.800407
0
LINE
8
BLACK
6
CONTINUOUS
10
0.740922
20
0.800407
11
0.741425
21
0.803156
0
LINE
8
BLACK
6
CONTINUOUS
10
0.741425
20
0.803156
11
0.743334
21
0.805197
0
LINE
8
BLACK
6
CONTINUOUS
10
0.743334
20
0.805197
11
0.745855
21
0.805886
0
LINE
8
BLACK
6
CONTINUOUS
10
0.745855
20
0.805886
11
0.818211
21
0.805886
0
LINE
8
BLACK
6
CONTINUOUS
10
0.818211
20
0.805886
11
0.81893
21
0.805833
0
LINE
8
BLACK
6
CONTINUOUS
10
0.81893
20
0.805833
11
0.819874
21
0.805695
0
LINE
8
BLACK
6
CONTINUOUS
10
0.819874
20
0.805695
11
0.819874
21
0.805695
0
LINE
8
BLACK
6
CONTINUOUS
10
0.819874
20
0.805695
11
0.820127
21
0.805717
0
LINE
8
BLACK
6
CONTINUOUS
10
0.820127
20
0.805717
11
0.821944
21
0.805876
0
LINE
8
BLACK
6
CONTINUOUS
10
0.821944
20
0.805876
11
0.822161
21
0.805886
0
LINE
8
BLACK
6
CONTINUOUS
10
0.822161
20
0.805886
11
0.822487
21
0.805886
0
LINE
8
BLACK
6
CONTINUOUS
10
0.822487
20
0.805886
11
0.823351
21
0.805987
0
LINE
8
BLACK
6
CONTINUOUS
10
0.823351
20
0.805987
11
0.823783
21
0.806037
0
LINE
8
BLACK
6
CONTINUOUS
10
0.823783
20
0.806037
11
0.824344
21
0.806086
0
LINE
8
BLACK
6
CONTINUOUS
10
0.824344
20
0.806086
11
0.826827
21
0.806304
0
LINE
8
BLACK
6
CONTINUOUS
10
0.826827
20
0.806304
11
0.826828
21
0.806304
0
LINE
8
BLACK
6
CONTINUOUS
10
0.826828
20
0.806304
11
0.826828
21
0.806304
0
LINE
8
BLACK
6
CONTINUOUS
10
0.826828
20
0.806304
11
0.826828
21
0.806304
0
LINE
8
BLACK
6
CONTINUOUS
10
0.826828
20
0.806304
11
0.82711
21
0.806362
0
LINE
8
BLACK
6
CONTINUOUS
10
0.82711
20
0.806362
11
0.827111
21
0.806359
0
LINE
8
BLACK
6
CONTINUOUS
10
0.827111
20
0.806359
11
0.827401
21
0.806424
0
LINE
8
BLACK
6
CONTINUOUS
10
0.827401
20
0.806424
11
0.827401
21
0.806426
0
LINE
8
BLACK
6
CONTINUOUS
10
0.827401
20
0.806426
11
0.827682
21
0.806493
0
LINE
8
BLACK
6
CONTINUOUS
10
0.827682
20
0.806493
11
0.829836
21
0.807277
0
LINE
8
BLACK
6
CONTINUOUS
10
0.829836
20
0.807277
11
0.830554
21
0.807538
0
LINE
8
BLACK
6
CONTINUOUS
10
0.830554
20
0.807538
11
0.831991
21
0.808015
0
LINE
8
BLACK
6
CONTINUOUS
10
0.831991
20
0.808015
11
0.833454
21
0.808499
0
LINE
8
BLACK
6
CONTINUOUS
10
0.833454
20
0.808499
11
0.833716
21
0.808621
0
LINE
8
BLACK
6
CONTINUOUS
10
0.833716
20
0.808621
11
0.833717
21
0.808619
0
LINE
8
BLACK
6
CONTINUOUS
10
0.833717
20
0.808619
11
0.833984
21
0.808748
0
LINE
8
BLACK
6
CONTINUOUS
10
0.833984
20
0.808748
11
0.833983
21
0.808751
0
LINE
8
BLACK
6
CONTINUOUS
10
0.833983
20
0.808751
11
0.834241
21
0.80888
0
LINE
8
BLACK
6
CONTINUOUS
10
0.834241
20
0.80888
11
0.836795
21
0.81056
0
LINE
8
BLACK
6
CONTINUOUS
10
0.836795
20
0.81056
11
0.839396
21
0.812164
0
LINE
8
BLACK
6
CONTINUOUS
10
0.839396
20
0.812164
11
0.839622
21
0.812343
0
LINE
8
BLACK
6
CONTINUOUS
10
0.839622
20
0.812343
11
0.839624
21
0.812341
0
LINE
8
BLACK
6
CONTINUOUS
10
0.839624
20
0.812341
11
0.839854
21
0.812529
0
LINE
8
BLACK
6
CONTINUOUS
10
0.839854
20
0.812529
11
0.839852
21
0.812531
0
LINE
8
BLACK
6
CONTINUOUS
10
0.839852
20
0.812531
11
0.840074
21
0.812716
0
LINE
8
BLACK
6
CONTINUOUS
10
0.840074
20
0.812716
11
0.842172
21
0.81494
0
LINE
8
BLACK
6
CONTINUOUS
10
0.842172
20
0.81494
11
0.915916
21
0.888685
0
LINE
8
BLACK
6
CONTINUOUS
10
0.915916
20
0.888685
11
0.91837
21
0.890024
0
LINE
8
BLACK
6
CONTINUOUS
10
0.91837
20
0.890024
11
0.919424
21
0.890138
0
LINE
8
BLACK
6
CONTINUOUS
10
0.919424
20
0.890138
11
0.940304
21
0.890138
0
LINE
8
BLACK
6
CONTINUOUS
10
0.940304
20
0.890138
11
0.942986
21
0.88935
0
LINE
8
BLACK
6
CONTINUOUS
10
0.942986
20
0.88935
11
0.944816
21
0.887238
0
LINE
8
BLACK
6
CONTINUOUS
10
0.944816
20
0.887238
11
0.945155
21
0.886001
0
LINE
8
BLACK
6
CONTINUOUS
10
0.945155
20
0.886001
11
0.945165
21
0.886003
0
LINE
8
BLACK
6
CONTINUOUS
10
0.945165
20
0.886003
11
0.94523
21
0.88573
0
LINE
8
BLACK
6
CONTINUOUS
10
0.94523
20
0.88573
11
0.945236
21
0.885708
0
LINE
8
BLACK
6
CONTINUOUS
10
0.945236
20
0.885708
11
0.945237
21
0.885701
0
LINE
8
BLACK
6
CONTINUOUS
10
0.945237
20
0.885701
11
0.945237
21
0.885701
0
LINE
8
BLACK
6
CONTINUOUS
10
0.945237
20
0.885701
11
0.947248
21
0.880307
0
LINE
8
BLACK
6
CONTINUOUS
10
0.947248
20
0.880307
11
0.947249
21
0.880307
0
LINE
8
BLACK
6
CONTINUOUS
10
0.947249
20
0.880307
11
0.950698
21
0.875698
0
LINE
8
BLACK
6
CONTINUOUS
10
0.950698
20
0.875698
11
0.953006
21
0.873971
0
LINE
8
BLACK
6
CONTINUOUS
10
0.953006
20
0.873971
11
0.954681
21
0.871734
0
LINE
8
BLACK
6
CONTINUOUS
10
0.954681
20
0.871734
11
0.95488
21
0.868946
0
LINE
8
BLACK
6
CONTINUOUS
10
0.95488
20
0.868946
11
0.95354
21
0.866492
0
LINE
8
BLACK
6
CONTINUOUS
10
0.95354
20
0.866492
11
0.953006
21
0.866029
0
LINE
8
BLACK
6
CONTINUOUS
10
0.953006
20
0.866029
11
0.950698
21
0.864302
0
LINE
8
BLACK
6
CONTINUOUS
10
0.950698
20
0.864302
11
0.947249
21
0.859693
0
LINE
8
BLACK
6
CONTINUOUS
10
0.947249
20
0.859693
11
0.947248
21
0.859693
0
LINE
8
BLACK
6
CONTINUOUS
10
0.947248
20
0.859693
11
0.945237
21
0.854299
0
LINE
8
BLACK
6
CONTINUOUS
10
0.945237
20
0.854299
11
0.945237
21
0.854299
0
LINE
8
BLACK
6
CONTINUOUS
10
0.945237
20
0.854299
11
0.94498
21
0.851915
0
LINE
8
BLACK
6
CONTINUOUS
10
0.94498
20
0.851915
11
0.94498
21
0.788085
0
LINE
8
BLACK
6
CONTINUOUS
10
0.94498
20
0.788085
11
0.945237
21
0.785701
0
LINE
8
BLACK
6
CONTINUOUS
10
0.945237
20
0.785701
11
0.945237
21
0.785701
0
LINE
8
BLACK
6
CONTINUOUS
10
0.945237
20
0.785701
11
0.947248
21
0.780307
0
LINE
8
BLACK
6
CONTINUOUS
10
0.947248
20
0.780307
11
0.947249
21
0.780307
0
LINE
8
BLACK
6
CONTINUOUS
10
0.947249
20
0.780307
11
0.950698
21
0.775698
0
LINE
8
BLACK
6
CONTINUOUS
10
0.950698
20
0.775698
11
0.953006
21
0.773971
0
LINE
8
BLACK
6
CONTINUOUS
10
0.953006
20
0.773971
11
0.954681
21
0.771734
0
LINE
8
BLACK
6
CONTINUOUS
10
0.954681
20
0.771734
11
0.95488
21
0.768946
0
LINE
8
BLACK
6
CONTINUOUS
10
0.95488
20
0.768946
11
0.95354
21
0.766492
0
LINE
8
BLACK
6
CONTINUOUS
10
0.95354
20
0.766492
11
0.953006
21
0.766029
0
LINE
8
BLACK
6
CONTINUOUS
10
0.953006
20
0.766029
11
0.950698
21
0.764302
0
LINE
8
BLACK
6
CONTINUOUS
10
0.950698
20
0.764302
11
0.947249
21
0.759693
0
LINE
8
BLACK
6
CONTINUOUS
10
0.947249
20
0.759693
11
0.947248
21
0.759693
0
LINE
8
BLACK
6
CONTINUOUS
10
0.947248
20
0.759693
11
0.945237
21
0.754299
0
LINE
8
BLACK
6
CONTINUOUS
10
0.945237
20
0.754299
11
0.945237
21
0.754299
0
LINE
8
BLACK
6
CONTINUOUS
10
0.945237
20
0.754299
11
0.945236
21
0.754292
0
LINE
8
BLACK
6
CONTINUOUS
10
0.945236
20
0.754292
11
0.945234
21
0.754288
0
LINE
8
BLACK
6
CONTINUOUS
10
0.945234
20
0.754288
11
0.945165
21
0.753997
0
LINE
8
BLACK
6
CONTINUOUS
10
0.945165
20
0.753997
11
0.945118
21
0.754008
0
LINE
8
BLACK
6
CONTINUOUS
10
0.945118
20
0.754008
11
0.944166
21
0.75171
0
LINE
8
BLACK
6
CONTINUOUS
10
0.944166
20
0.75171
11
0.94187
21
0.750116
0
LINE
8
BLACK
6
CONTINUOUS
10
0.94187
20
0.750116
11
0.940304
21
0.749862
0
LINE
8
BLACK
6
CONTINUOUS
10
0.940304
20
0.749862
11
0.867537
21
0.749862
0
LINE
8
BLACK
6
CONTINUOUS
10
0.867537
20
0.749862
11
0.866818
21
0.749915
0
LINE
8
BLACK
6
CONTINUOUS
10
0.866818
20
0.749915
11
0.866598
21
0.749947
0
LINE
8
BLACK
6
CONTINUOUS
10
0.866598
20
0.749947
11
0.865874
21
0.750053
0
LINE
8
BLACK
6
CONTINUOUS
10
0.865874
20
0.750053
11
0.864561
21
0.749938
0
LINE
8
BLACK
6
CONTINUOUS
10
0.864561
20
0.749938
11
0.863804
21
0.749872
0
LINE
8
BLACK
6
CONTINUOUS
10
0.863804
20
0.749872
11
0.863587
21
0.749862
0
LINE
8
BLACK
6
CONTINUOUS
10
0.863587
20
0.749862
11
0.863261
21
0.749862
0
LINE
8
BLACK
6
CONTINUOUS
10
0.863261
20
0.749862
11
0.862613
21
0.749786
0
LINE
8
BLACK
6
CONTINUOUS
10
0.862613
20
0.749786
11
0.861965
21
0.749711
0
LINE
8
BLACK
6
CONTINUOUS
10
0.861965
20
0.749711
11
0.85892
21
0.749444
0
LINE
8
BLACK
6
CONTINUOUS
10
0.85892
20
0.749444
11
0.85892
21
0.749444
0
LINE
8
BLACK
6
CONTINUOUS
10
0.85892
20
0.749444
11
0.858637
21
0.749386
0
LINE
8
BLACK
6
CONTINUOUS
10
0.858637
20
0.749386
11
0.858637
21
0.749389
0
LINE
8
BLACK
6
CONTINUOUS
10
0.858637
20
0.749389
11
0.858347
21
0.749324
0
LINE
8
BLACK
6
CONTINUOUS
10
0.858347
20
0.749324
11
0.858348
21
0.749322
0
LINE
8
BLACK
6
CONTINUOUS
10
0.858348
20
0.749322
11
0.858067
21
0.749255
0
LINE
8
BLACK
6
CONTINUOUS
10
0.858067
20
0.749255
11
0.858066
21
0.749255
0
LINE
8
BLACK
6
CONTINUOUS
10
0.858066
20
0.749255
11
0.855194
21
0.74821
0
LINE
8
BLACK
6
CONTINUOUS
10
0.855194
20
0.74821
11
0.852294
21
0.747249
0
LINE
8
BLACK
6
CONTINUOUS
10
0.852294
20
0.747249
11
0.852294
21
0.747248
0
LINE
8
BLACK
6
CONTINUOUS
10
0.852294
20
0.747248
11
0.852032
21
0.747126
0
LINE
8
BLACK
6
CONTINUOUS
10
0.852032
20
0.747126
11
0.852031
21
0.747129
0
LINE
8
BLACK
6
CONTINUOUS
10
0.852031
20
0.747129
11
0.851764
21
0.747
0
LINE
8
BLACK
6
CONTINUOUS
10
0.851764
20
0.747
11
0.851765
21
0.746997
0
LINE
8
BLACK
6
CONTINUOUS
10
0.851765
20
0.746997
11
0.851507
21
0.746868
0
LINE
8
BLACK
6
CONTINUOUS
10
0.851507
20
0.746868
11
0.851507
21
0.746868
0
LINE
8
BLACK
6
CONTINUOUS
10
0.851507
20
0.746868
11
0.848953
21
0.745188
0
LINE
8
BLACK
6
CONTINUOUS
10
0.848953
20
0.745188
11
0.846352
21
0.743584
0
LINE
8
BLACK
6
CONTINUOUS
10
0.846352
20
0.743584
11
0.846352
21
0.743584
0
LINE
8
BLACK
6
CONTINUOUS
10
0.846352
20
0.743584
11
0.846126
21
0.743405
0
LINE
8
BLACK
6
CONTINUOUS
10
0.846126
20
0.743405
11
0.846124
21
0.743407
0
LINE
8
BLACK
6
CONTINUOUS
10
0.846124
20
0.743407
11
0.845894
21
0.743219
0
LINE
8
BLACK
6
CONTINUOUS
10
0.845894
20
0.743219
11
0.845895
21
0.743217
0
LINE
8
BLACK
6
CONTINUOUS
10
0.845895
20
0.743217
11
0.845674
21
0.743031
0
LINE
8
BLACK
6
CONTINUOUS
10
0.845674
20
0.743031
11
0.843576
21
0.740808
0
LINE
8
BLACK
6
CONTINUOUS
10
0.843576
20
0.740808
11
0.698845
21
0.596077
0
LINE
8
BLACK
6
CONTINUOUS
10
0.698845
20
0.596077
11
0.696392
21
0.594737
0
LINE
8
BLACK
6
CONTINUOUS
10
0.696392
20
0.594737
11
0.696372
21
0.594733
0
LINE
8
BLACK
6
CONTINUOUS
10
0.696372
20
0.594733
11
0.693886
21
0.594204
0
LINE
8
BLACK
6
CONTINUOUS
10
0.693886
20
0.594204
11
0.687018
21
0.591146
0
LINE
8
BLACK
6
CONTINUOUS
10
0.687018
20
0.591146
11
0.686783
21
0.590976
0
LINE
8
BLACK
6
CONTINUOUS
10
0.686783
20
0.590976
11
0.680935
21
0.586727
0
LINE
8
BLACK
6
CONTINUOUS
10
0.680935
20
0.586727
11
0.675904
21
0.58114
0
LINE
8
BLACK
6
CONTINUOUS
10
0.675904
20
0.58114
11
0.675904
21
0.581139
0
LINE
8
BLACK
6
CONTINUOUS
10
0.675904
20
0.581139
11
0.673261
21
0.576563
0
LINE
8
BLACK
6
CONTINUOUS
10
0.673261
20
0.576563
11
0.672145
21
0.574628
0
LINE
8
BLACK
6
CONTINUOUS
10
0.672145
20
0.574628
11
0.671005
21
0.571121
0
LINE
8
BLACK
6
CONTINUOUS
10
0.671005
20
0.571121
11
0.669821
21
0.567477
0
LINE
8
BLACK
6
CONTINUOUS
10
0.669821
20
0.567477
11
0.669035
21
0.56
0
LINE
8
BLACK
6
CONTINUOUS
10
0.669035
20
0.56
11
0.669821
21
0.552523
0
LINE
8
BLACK
6
CONTINUOUS
10
0.669821
20
0.552523
11
0.672145
21
0.545372
0
LINE
8
BLACK
6
CONTINUOUS
10
0.672145
20
0.545372
11
0.672145
21
0.545372
0
LINE
8
BLACK
6
CONTINUOUS
10
0.672145
20
0.545372
11
0.675904
21
0.538861
0
LINE
8
BLACK
6
CONTINUOUS
10
0.675904
20
0.538861
11
0.675904
21
0.53886
0
LINE
8
BLACK
6
CONTINUOUS
10
0.675904
20
0.53886
11
0.680935
21
0.533273
0
LINE
8
BLACK
6
CONTINUOUS
10
0.680935
20
0.533273
11
0.687018
21
0.528854
0
LINE
8
BLACK
6
CONTINUOUS
10
0.687018
20
0.528854
11
0.693886
21
0.525796
0
LINE
8
BLACK
6
CONTINUOUS
10
0.693886
20
0.525796
11
0.701241
21
0.524232
0
LINE
8
BLACK
6
CONTINUOUS
10
0.701241
20
0.524232
11
0.708759
21
0.524232
0
LINE
8
BLACK
6
CONTINUOUS
10
0.708759
20
0.524232
11
0.716114
21
0.525796
0
LINE
8
BLACK
6
CONTINUOUS
10
0.716114
20
0.525796
11
0.722982
21
0.528854
0
LINE
8
BLACK
6
CONTINUOUS
10
0.722982
20
0.528854
11
0.729065
21
0.533273
0
LINE
8
BLACK
6
CONTINUOUS
10
0.729065
20
0.533273
11
0.734096
21
0.53886
0
LINE
8
BLACK
6
CONTINUOUS
10
0.734096
20
0.53886
11
0.734096
21
0.538861
0
LINE
8
BLACK
6
CONTINUOUS
10
0.734096
20
0.538861
11
0.737855
21
0.545372
0
LINE
8
BLACK
6
CONTINUOUS
10
0.737855
20
0.545372
11
0.740015
21
0.552019
0
LINE
8
BLACK
6
CONTINUOUS
10
0.740015
20
0.552019
11
0.741225
21
0.553994
0
LINE
8
BLACK
6
CONTINUOUS
10
0.741225
20
0.553994
11
0.875916
21
0.688685
0
LINE
8
BLACK
6
CONTINUOUS
10
0.875916
20
0.688685
11
0.87837
21
0.690024
0
LINE
8
BLACK
6
CONTINUOUS
10
0.87837
20
0.690024
11
0.879424
21
0.690138
0
LINE
8
BLACK
6
CONTINUOUS
10
0.879424
20
0.690138
11
0.940304
21
0.690138
0
LINE
8
BLACK
6
CONTINUOUS
10
0.940304
20
0.690138
11
0.942986
21
0.68935
0
LINE
8
BLACK
6
CONTINUOUS
10
0.942986
20
0.68935
11
0.944816
21
0.687238
0
LINE
8
BLACK
6
CONTINUOUS
10
0.944816
20
0.687238
11
0.945155
21
0.686001
0
LINE
8
BLACK
6
CONTINUOUS
10
0.945155
20
0.686001
11
0.945165
21
0.686003
0
LINE
8
BLACK
6
CONTINUOUS
10
0.945165
20
0.686003
11
0.94523
21
0.68573
0
LINE
8
BLACK
6
CONTINUOUS
10
0.94523
20
0.68573
11
0.945236
21
0.685708
0
LINE
8
BLACK
6
CONTINUOUS
10
0.945236
20
0.685708
11
0.945237
21
0.685701
0
LINE
8
BLACK
6
CONTINUOUS
10
0.945237
20
0.685701
11
0.945237
21
0.685701
0
LINE
8
BLACK
6
CONTINUOUS
10
0.945237
20
0.685701
11
0.947248
21
0.680307
0
LINE
8
BLACK
6
CONTINUOUS
10
0.947248
20
0.680307
11
0.947249
21
0.680307
0
LINE
8
BLACK
6
CONTINUOUS
10
0.947249
20
0.680307
11
0.950698
21
0.675698
0
LINE
8
BLACK
6
CONTINUOUS
10
0.950698
20
0.675698
11
0.953022
21
0.673959
0
LINE
8
BLACK
6
CONTINUOUS
10
0.953022
20
0.673959
11
0.954697
21
0.671721
0
LINE
8
BLACK
6
CONTINUOUS
10
0.954697
20
0.671721
11
0.954896
21
0.668933
0
LINE
8
BLACK
6
CONTINUOUS
10
0.954896
20
0.668933
11
0.953557
21
0.66648
0
LINE
8
BLACK
6
CONTINUOUS
10
0.953557
20
0.66648
11
0.953022
21
0.666016
0
LINE
8
BLACK
6
CONTINUOUS
10
0.953022
20
0.666016
11
0.950712
21
0.664288
0
LINE
8
BLACK
6
CONTINUOUS
10
0.950712
20
0.664288
11
0.947266
21
0.659684
0
LINE
8
BLACK
6
CONTINUOUS
10
0.947266
20
0.659684
11
0.947266
21
0.659684
0
LINE
8
BLACK
6
CONTINUOUS
10
0.947266
20
0.659684
11
0.945256
21
0.654295
0
LINE
8
BLACK
6
CONTINUOUS
10
0.945256
20
0.654295
11
0.945
21
0.651913
0
LINE
8
BLACK
6
CONTINUOUS
10
0.945
20
0.651913
11
0.945
21
0.63
0
LINE
8
BLACK
6
CONTINUOUS
10
0.945
20
0.63
11
0.965
21
0.63
0
LINE
8
BLACK
6
CONTINUOUS
10
0.965
20
0.63
11
0.965
21
0.65
0
LINE
8
BLACK
6
CONTINUOUS
10
0.965
20
0.65
11
1.025
21
0.65
0
LINE
8
BLACK
6
CONTINUOUS
10
1.025
20
0.65
11
1.025
21
0.63
0
LINE
8
BLACK
6
CONTINUOUS
10
1.025
20
0.63
11
1.065
21
0.63
0
LINE
8
BLACK
6
CONTINUOUS
10
1.065
20
0.63
11
1.065
21
0.65
0
LINE
8
BLACK
6
CONTINUOUS
10
1.065
20
0.65
11
1.125
21
0.65
0
LINE
8
BLACK
6
CONTINUOUS
10
1.125
20
0.65
11
1.125
21
0.63
0
LINE
8
BLACK
6
CONTINUOUS
10
1.125
20
0.63
11
1.145
21
0.63
0
LINE
8
BLACK
6
CONTINUOUS
10
1.145
20
0.63
11
1.145
21
0.651913
0
LINE
8
BLACK
6
CONTINUOUS
10
1.145
20
0.651913
11
1.145
21
0.651913
0
LINE
8
BLACK
6
CONTINUOUS
10
1.145
20
0.651913
11
1.14474
21
0.654295
0
LINE
8
BLACK
6
CONTINUOUS
10
1.14474
20
0.654295
11
1.14273
21
0.659684
0
LINE
8
BLACK
6
CONTINUOUS
10
1.14273
20
0.659684
11
1.14273
21
0.659684
0
LINE
8
BLACK
6
CONTINUOUS
10
1.14273
20
0.659684
11
1.13929
21
0.664288
0
LINE
8
BLACK
6
CONTINUOUS
10
1.13929
20
0.664288
11
1.13698
21
0.666016
0
LINE
8
BLACK
6
CONTINUOUS
10
1.13698
20
0.666016
11
1.1353
21
0.668254
0
LINE
8
BLACK
6
CONTINUOUS
10
1.1353
20
0.668254
11
1.1351
21
0.671042
0
LINE
8
BLACK
6
CONTINUOUS
10
1.1351
20
0.671042
11
1.13644
21
0.673495
0
LINE
8
BLACK
6
CONTINUOUS
10
1.13644
20
0.673495
11
1.13698
21
0.673959
0
LINE
8
BLACK
6
CONTINUOUS
10
1.13698
20
0.673959
11
1.1393
21
0.675698
0
LINE
8
BLACK
6
CONTINUOUS
10
1.1393
20
0.675698
11
1.1393
21
0.675698
0
LINE
8
BLACK
6
CONTINUOUS
10
1.1393
20
0.675698
11
1.14103
21
0.678006
0
LINE
8
BLACK
6
CONTINUOUS
10
1.14103
20
0.678006
11
1.14275
21
0.680307
0
LINE
8
BLACK
6
CONTINUOUS
10
1.14275
20
0.680307
11
1.14275
21
0.680307
0
LINE
8
BLACK
6
CONTINUOUS
10
1.14275
20
0.680307
11
1.14476
21
0.685701
0
LINE
8
BLACK
6
CONTINUOUS
10
1.14476
20
0.685701
11
1.14476
21
0.685701
0
LINE
8
BLACK
6
CONTINUOUS
10
1.14476
20
0.685701
11
1.14502
21
0.688085
0
LINE
8
BLACK
6
CONTINUOUS
10
1.14502
20
0.688085
11
1.14502
21
0.688085
0
LINE
8
BLACK
6
CONTINUOUS
10
1.14502
20
0.688085
11
1.14502
21
0.751915
0
LINE
8
BLACK
6
CONTINUOUS
10
1.14502
20
0.751915
11
1.14502
21
0.751915
0
LINE
8
BLACK
6
CONTINUOUS
10
1.14502
20
0.751915
11
1.14476
21
0.754299
0
LINE
8
BLACK
6
CONTINUOUS
10
1.14476
20
0.754299
11
1.14476
21
0.754299
0
LINE
8
BLACK
6
CONTINUOUS
10
1.14476
20
0.754299
11
1.14429
21
0.755556
0
LINE
8
BLACK
6
CONTINUOUS
10
1.14429
20
0.755556
11
1.14275
21
0.759693
0
LINE
8
BLACK
6
CONTINUOUS
10
1.14275
20
0.759693
11
1.1393
21
0.764302
0
LINE
8
BLACK
6
CONTINUOUS
10
1.1393
20
0.764302
11
1.13699
21
0.766029
0
LINE
8
BLACK
6
CONTINUOUS
10
1.13699
20
0.766029
11
1.13532
21
0.768266
0
LINE
8
BLACK
6
CONTINUOUS
10
1.13532
20
0.768266
11
1.13512
21
0.771054
0
LINE
8
BLACK
6
CONTINUOUS
10
1.13512
20
0.771054
11
1.13646
21
0.773508
0
LINE
8
BLACK
6
CONTINUOUS
10
1.13646
20
0.773508
11
1.13699
21
0.773971
0
LINE
8
BLACK
6
CONTINUOUS
10
1.13699
20
0.773971
11
1.1393
21
0.775698
0
LINE
8
BLACK
6
CONTINUOUS
10
1.1393
20
0.775698
11
1.14275
21
0.780307
0
LINE
8
BLACK
6
CONTINUOUS
10
1.14275
20
0.780307
11
1.14275
21
0.780307
0
LINE
8
BLACK
6
CONTINUOUS
10
1.14275
20
0.780307
11
1.14476
21
0.785701
0
LINE
8
BLACK
6
CONTINUOUS
10
1.14476
20
0.785701
11
1.14476
21
0.785701
0
LINE
8
BLACK
6
CONTINUOUS
10
1.14476
20
0.785701
11
1.14502
21
0.788085
0
LINE
8
BLACK
6
CONTINUOUS
10
1.14502
20
0.788085
11
1.14502
21
0.788085
0
LINE
8
BLACK
6
CONTINUOUS
10
1.14502
20
0.788085
11
1.14502
21
0.851915
0
LINE
8
BLACK
6
CONTINUOUS
10
1.14502
20
0.851915
11
1.14502
21
0.851915
0
LINE
8
BLACK
6
CONTINUOUS
10
1.14502
20
0.851915
11
1.14476
21
0.854299
0
LINE
8
BLACK
6
CONTINUOUS
10
1.14476
20
0.854299
11
1.14476
21
0.854299
0
LINE
8
BLACK
6
CONTINUOUS
10
1.14476
20
0.854299
11
1.14449
21
0.855041
0
LINE
8
BLACK
6
CONTINUOUS
10
1.14449
20
0.855041
11
1.14275
21
0.859693
0
LINE
8
BLACK
6
CONTINUOUS
10
1.14275
20
0.859693
11
1.1393
21
0.864302
0
LINE
8
BLACK
6
CONTINUOUS
10
1.1393
20
0.864302
11
1.13835
21
0.865014
0
LINE
8
BLACK
6
CONTINUOUS
10
1.13835
20
0.865014
11
1.13699
21
0.866029
0
LINE
8
BLACK
6
CONTINUOUS
10
1.13699
20
0.866029
11
1.13532
21
0.868266
0
LINE
8
BLACK
6
CONTINUOUS
10
1.13532
20
0.868266
11
1.13512
21
0.871054
0
LINE
8
BLACK
6
CONTINUOUS
10
1.13512
20
0.871054
11
1.13646
21
0.873508
0
LINE
8
BLACK
6
CONTINUOUS
10
1.13646
20
0.873508
11
1.13699
21
0.873971
0
LINE
8
BLACK
6
CONTINUOUS
10
1.13699
20
0.873971
11
1.1393
21
0.875698
0
LINE
8
BLACK
6
CONTINUOUS
10
1.1393
20
0.875698
11
1.14275
21
0.880307
0
LINE
8
BLACK
6
CONTINUOUS
10
1.14275
20
0.880307
11
1.14275
21
0.880307
0
LINE
8
BLACK
6
CONTINUOUS
10
1.14275
20
0.880307
11
1.14476
21
0.885701
0
LINE
8
BLACK
6
CONTINUOUS
10
1.14476
20
0.885701
11
1.14476
21
0.885701
0
LINE
8
BLACK
6
CONTINUOUS
10
1.14476
20
0.885701
11
1.14502
21
0.888085
0
LINE
8
BLACK
6
CONTINUOUS
10
1.14502
20
0.888085
11
1.14502
21
0.888085
0
LINE
8
BLACK
6
CONTINUOUS
10
1.14502
20
0.888085
11
1.14502
21
0.951915
0
LINE
8
BLACK
6
CONTINUOUS
10
1.14502
20
0.951915
11
1.14502
21
0.951915
0
LINE
8
BLACK
6
CONTINUOUS
10
1.14502
20
0.951915
11
1.14476
21
0.954299
0
LINE
8
BLACK
6
CONTINUOUS
10
1.14476
20
0.954299
11
1.14476
21
0.954299
0
LINE
8
BLACK
6
CONTINUOUS
10
1.14476
20
0.954299
11
1.14449
21
0.955041
0
LINE
8
BLACK
6
CONTINUOUS
10
1.14449
20
0.955041
11
1.14275
21
0.959693
0
LINE
8
BLACK
6
CONTINUOUS
10
1.14275
20
0.959693
11
1.1393
21
0.964302
0
LINE
8
BLACK
6
CONTINUOUS
10
1.1393
20
0.964302
11
1.13469
21
0.967752
0
LINE
8
BLACK
6
CONTINUOUS
10
1.13469
20
0.967752
11
1.1293
21
0.969763
0
LINE
8
BLACK
6
CONTINUOUS
10
1.1293
20
0.969763
11
1.1293
21
0.969763
0
LINE
8
BLACK
6
CONTINUOUS
10
1.1293
20
0.969763
11
1.1293
21
0.969763
0
LINE
8
BLACK
6
CONTINUOUS
10
1.1293
20
0.969763
11
1.12692
21
0.97002
0
LINE
8
BLACK
6
CONTINUOUS
10
1.12692
20
0.97002
11
1.12692
21
0.97002
0
LINE
8
BLACK
6
CONTINUOUS
10
1.12692
20
0.97002
11
1.12691
21
0.97002
0
LINE
8
BLACK
6
CONTINUOUS
10
1.12691
20
0.97002
11
1.06309
21
0.97002
0
LINE
8
BLACK
6
CONTINUOUS
10
1.06309
20
0.97002
11
1.06308
21
0.97002
0
LINE
8
BLACK
6
CONTINUOUS
10
1.06308
20
0.97002
11
1.06308
21
0.97002
0
LINE
8
BLACK
6
CONTINUOUS
10
1.06308
20
0.97002
11
1.0607
21
0.969763
0
LINE
8
BLACK
6
CONTINUOUS
10
1.0607
20
0.969763
11
1.0607
21
0.969763
0
LINE
8
BLACK
6
CONTINUOUS
10
1.0607
20
0.969763
11
1.05763
21
0.968619
0
LINE
8
BLACK
6
CONTINUOUS
10
1.05763
20
0.968619
11
1.05531
21
0.967752
0
LINE
8
BLACK
6
CONTINUOUS
10
1.05531
20
0.967752
11
1.05531
21
0.967751
0
LINE
8
BLACK
6
CONTINUOUS
10
1.05531
20
0.967751
11
1.05531
21
0.967751
0
LINE
8
BLACK
6
CONTINUOUS
10
1.05531
20
0.967751
11
1.0507
21
0.964302
0
LINE
8
BLACK
6
CONTINUOUS
10
1.0507
20
0.964302
11
1.04897
21
0.961994
0
LINE
8
BLACK
6
CONTINUOUS
10
1.04897
20
0.961994
11
1.04673
21
0.960319
0
LINE
8
BLACK
6
CONTINUOUS
10
1.04673
20
0.960319
11
1.04395
21
0.96012
0
LINE
8
BLACK
6
CONTINUOUS
10
1.04395
20
0.96012
11
1.04149
21
0.961459
0
LINE
8
BLACK
6
CONTINUOUS
10
1.04149
20
0.961459
11
1.04103
21
0.961994
0
LINE
8
BLACK
6
CONTINUOUS
10
1.04103
20
0.961994
11
1.0393
21
0.964302
0
LINE
8
BLACK
6
CONTINUOUS
10
1.0393
20
0.964302
11
1.03469
21
0.967751
0
LINE
8
BLACK
6
CONTINUOUS
10
1.03469
20
0.967751
11
1.03469
21
0.967751
0
LINE
8
BLACK
6
CONTINUOUS
10
1.03469
20
0.967751
11
1.03469
21
0.967752
0
LINE
8
BLACK
6
CONTINUOUS
10
1.03469
20
0.967752
11
1.0293
21
0.969763
0
LINE
8
BLACK
6
CONTINUOUS
10
1.0293
20
0.969763
11
1.0293
21
0.969763
0
LINE
8
BLACK
6
CONTINUOUS
10
1.0293
20
0.969763
11
1.0293
21
0.969763
0
LINE
8
BLACK
6
CONTINUOUS
10
1.0293
20
0.969763
11
1.02692
21
0.97002
0
LINE
8
BLACK
6
CONTINUOUS
10
1.02692
20
0.97002
11
1.02692
21
0.97002
0
LINE
8
BLACK
6
CONTINUOUS
10
1.02692
20
0.97002
11
1.02691
21
0.97002
0
LINE
8
BLACK
6
CONTINUOUS
10
1.02691
20
0.97002
11
0.963085
21
0.97002
0
LINE
8
BLACK
6
CONTINUOUS
10
0.963085
20
0.97002
11
0.963085
21
0.97002
0
LINE
8
BLACK
6
CONTINUOUS
10
0.963085
20
0.97002
11
0.963085
21
0.97002
0
LINE
8
BLACK
6
CONTINUOUS
10
0.963085
20
0.97002
11
0.960701
21
0.969763
0
LINE
8
BLACK
6
CONTINUOUS
10
0.960701
20
0.969763
11
0.960701
21
0.969763
0
LINE
8
BLACK
6
CONTINUOUS
10
0.960701
20
0.969763
11
0.957633
21
0.968619
0
LINE
8
BLACK
6
CONTINUOUS
10
0.957633
20
0.968619
11
0.955307
21
0.967752
0
LINE
8
BLACK
6
CONTINUOUS
10
0.955307
20
0.967752
11
0.955307
21
0.967751
0
LINE
8
BLACK
6
CONTINUOUS
10
0.955307
20
0.967751
11
0.955307
21
0.967751
0
LINE
8
BLACK
6
CONTINUOUS
10
0.955307
20
0.967751
11
0.950698
21
0.964302
0
LINE
8
BLACK
6
CONTINUOUS
10
0.950698
20
0.964302
11
0.947249
21
0.959693
0
LINE
8
BLACK
6
CONTINUOUS
10
0.947249
20
0.959693
11
0.947248
21
0.959693
0
LINE
8
BLACK
6
CONTINUOUS
10
0.947248
20
0.959693
11
0.945237
21
0.954299
0
LINE
8
BLACK
6
CONTINUOUS
10
0.945237
20
0.954299
11
0.945237
21
0.954299
0
LINE
8
BLACK
6
CONTINUOUS
10
0.945237
20
0.954299
11
0.945236
21
0.954292
0
LINE
8
BLACK
6
CONTINUOUS
10
0.945236
20
0.954292
11
0.945234
21
0.954288
0
LINE
8
BLACK
6
CONTINUOUS
10
0.945234
20
0.954288
11
0.945165
21
0.953997
0
LINE
8
BLACK
6
CONTINUOUS
10
0.945165
20
0.953997
11
0.945118
21
0.954008
0
LINE
8
BLACK
6
CONTINUOUS
10
0.945118
20
0.954008
11
0.944166
21
0.95171
0
LINE
8
BLACK
6
CONTINUOUS
10
0.944166
20
0.95171
11
0.94187
21
0.950116
0
LINE
8
BLACK
6
CONTINUOUS
10
0.94187
20
0.950116
11
0.940304
21
0.949862
0
LINE
8
BLACK
6
CONTINUOUS
10
0.940304
20
0.949862
11
0.907537
21
0.949862
0
LINE
8
BLACK
6
CONTINUOUS
10
0.907537
20
0.949862
11
0.906818
21
0.949915
0
LINE
8
BLACK
6
CONTINUOUS
10
0.906818
20
0.949915
11
0.906649
21
0.949939
0
LINE
8
BLACK
6
CONTINUOUS
10
0.906649
20
0.949939
11
0.905874
21
0.950053
0
LINE
8
BLACK
6
CONTINUOUS
10
0.905874
20
0.950053
11
0.904602
21
0.949941
0
LINE
8
BLACK
6
CONTINUOUS
10
0.904602
20
0.949941
11
0.903804
21
0.949872
0
LINE
8
BLACK
6
CONTINUOUS
10
0.903804
20
0.949872
11
0.903587
21
0.949862
0
LINE
8
BLACK
6
CONTINUOUS
10
0.903587
20
0.949862
11
0.903261
21
0.949862
0
LINE
8
BLACK
6
CONTINUOUS
10
0.903261
20
0.949862
11
0.902224
21
0.949741
0
LINE
8
BLACK
6
CONTINUOUS
10
0.902224
20
0.949741
11
0.901965
21
0.949711
0
LINE
8
BLACK
6
CONTINUOUS
10
0.901965
20
0.949711
11
0.901555
21
0.949675
0
LINE
8
BLACK
6
CONTINUOUS
10
0.901555
20
0.949675
11
0.89892
21
0.949444
0
LINE
8
BLACK
6
CONTINUOUS
10
0.89892
20
0.949444
11
0.89892
21
0.949444
0
LINE
8
BLACK
6
CONTINUOUS
10
0.89892
20
0.949444
11
0.89892
21
0.949444
0
LINE
8
BLACK
6
CONTINUOUS
10
0.89892
20
0.949444
11
0.898637
21
0.949386
0
LINE
8
BLACK
6
CONTINUOUS
10
0.898637
20
0.949386
11
0.898637
21
0.949389
0
LINE
8
BLACK
6
CONTINUOUS
10
0.898637
20
0.949389
11
0.898347
21
0.949324
0
LINE
8
BLACK
6
CONTINUOUS
10
0.898347
20
0.949324
11
0.898348
21
0.949322
0
LINE
8
BLACK
6
CONTINUOUS
10
0.898348
20
0.949322
11
0.898067
21
0.949255
0
LINE
8
BLACK
6
CONTINUOUS
10
0.898067
20
0.949255
11
0.898066
21
0.949255
0
LINE
8
BLACK
6
CONTINUOUS
10
0.898066
20
0.949255
11
0.895195
21
0.94821
0
LINE
8
BLACK
6
CONTINUOUS
10
0.895195
20
0.94821
11
0.892294
21
0.947249
0
LINE
8
BLACK
6
CONTINUOUS
10
0.892294
20
0.947249
11
0.892294
21
0.947248
0
LINE
8
BLACK
6
CONTINUOUS
10
0.892294
20
0.947248
11
0.892032
21
0.947127
0
LINE
8
BLACK
6
CONTINUOUS
10
0.892032
20
0.947127
11
0.892031
21
0.947129
0
LINE
8
BLACK
6
CONTINUOUS
10
0.892031
20
0.947129
11
0.891764
21
0.947
0
LINE
8
BLACK
6
CONTINUOUS
10
0.891764
20
0.947
11
0.891765
21
0.946997
0
LINE
8
BLACK
6
CONTINUOUS
10
0.891765
20
0.946997
11
0.891507
21
0.946868
0
LINE
8
BLACK
6
CONTINUOUS
10
0.891507
20
0.946868
11
0.891507
21
0.946868
0
LINE
8
BLACK
6
CONTINUOUS
10
0.891507
20
0.946868
11
0.891507
21
0.946868
0
LINE
8
BLACK
6
CONTINUOUS
10
0.891507
20
0.946868
11
0.888953
21
0.945188
0
LINE
8
BLACK
6
CONTINUOUS
10
0.888953
20
0.945188
11
0.886352
21
0.943584
0
LINE
8
BLACK
6
CONTINUOUS
10
0.886352
20
0.943584
11
0.886352
21
0.943584
0
LINE
8
BLACK
6
CONTINUOUS
10
0.886352
20
0.943584
11
0.886126
21
0.943405
0
LINE
8
BLACK
6
CONTINUOUS
10
0.886126
20
0.943405
11
0.886124
21
0.943407
0
LINE
8
BLACK
6
CONTINUOUS
10
0.886124
20
0.943407
11
0.885894
21
0.943219
0
LINE
8
BLACK
6
CONTINUOUS
10
0.885894
20
0.943219
11
0.885895
21
0.943217
0
LINE
8
BLACK
6
CONTINUOUS
10
0.885895
20
0.943217
11
0.885674
21
0.943031
0
LINE
8
BLACK
6
CONTINUOUS
10
0.885674
20
0.943031
11
0.883576
21
0.940808
0
LINE
8
BLACK
6
CONTINUOUS
10
0.883576
20
0.940808
11
0.809832
21
0.867063
0
LINE
8
BLACK
6
CONTINUOUS
10
0.809832
20
0.867063
11
0.807378
21
0.865724
0
LINE
8
BLACK
6
CONTINUOUS
10
0.807378
20
0.865724
11
0.806324
21
0.86561
0
LINE
8
BLACK
6
CONTINUOUS
10
0.806324
20
0.86561
11
0.651019
21
0.86561
0
LINE
8
BLACK
6
CONTINUOUS
10
0.651019
20
0.86561
11
0.649866
21
0.865023
0
LINE
8
BLACK
6
CONTINUOUS
10
0.649866
20
0.865023
11
0.645
21
0.864252
0
LINE
8
BLACK
6
CONTINUOUS
10
0.645
20
0.864252
11
0.640134
21
0.865023
0
LINE
8
BLACK
6
CONTINUOUS
10
0.640134
20
0.865023
11
0.638981
21
0.86561
0
LINE
8
BLACK
6
CONTINUOUS
10
0.638981
20
0.86561
11
0.634705
21
0.86561
0
LINE
8
BLACK
6
CONTINUOUS
10
0.634705
20
0.86561
11
0.632023
21
0.866398
0
LINE
8
BLACK
6
CONTINUOUS
10
0.632023
20
0.866398
11
0.630192
21
0.86851
0
LINE
8
BLACK
6
CONTINUOUS
10
0.630192
20
0.86851
11
0.629744
21
0.870571
0
LINE
8
BLACK
6
CONTINUOUS
10
0.629744
20
0.870571
11
0.629744
21
0.876893
0
LINE
8
BLACK
6
CONTINUOUS
10
0.629744
20
0.876893
11
0.629252
21
0.88
0
LINE
8
BLACK
6
CONTINUOUS
10
0.629252
20
0.88
11
0.629744
21
0.883107
0
LINE
8
BLACK
6
CONTINUOUS
10
0.629744
20
0.883107
11
0.629744
21
0.916893
0
LINE
8
BLACK
6
CONTINUOUS
10
0.629744
20
0.916893
11
0.629252
21
0.92
0
LINE
8
BLACK
6
CONTINUOUS
10
0.629252
20
0.92
11
0.629744
21
0.923107
0
LINE
8
BLACK
6
CONTINUOUS
10
0.629744
20
0.923107
11
0.629744
21
0.948259
0
LINE
8
BLACK
6
CONTINUOUS
10
0.629744
20
0.948259
11
0.62726
21
0.950744
0
LINE
8
BLACK
6
CONTINUOUS
10
0.62726
20
0.950744
11
0.625023
21
0.955134
0
LINE
8
BLACK
6
CONTINUOUS
10
0.625023
20
0.955134
11
0.624252
21
0.96
0
LINE
8
BLACK
6
CONTINUOUS
10
0.624252
20
0.96
11
0.625023
21
0.964866
0
LINE
8
BLACK
6
CONTINUOUS
10
0.625023
20
0.964866
11
0.62726
21
0.969256
0
LINE
8
BLACK
6
CONTINUOUS
10
0.62726
20
0.969256
11
0.629744
21
0.971741
0
LINE
8
BLACK
6
CONTINUOUS
10
0.629744
20
0.971741
11
0.629744
21
1.00664
0
LINE
8
BLACK
6
CONTINUOUS
10
0.629744
20
1.00664
11
0.629744
21
1.00664
0
LINE
8
BLACK
6
CONTINUOUS
10
0.629744
20
1.00664
11
0.629488
21
1.00902
0
LINE
8
BLACK
6
CONTINUOUS
10
0.629488
20
1.00902
11
0.629488
21
1.00902
0
LINE
8
BLACK
6
CONTINUOUS
10
0.629488
20
1.00902
11
0.629211
21
1.00977
0
LINE
8
BLACK
6
CONTINUOUS
10
0.629211
20
1.00977
11
0.627476
21
1.01442
0
LINE
8
BLACK
6
CONTINUOUS
10
0.627476
20
1.01442
11
0.624026
21
1.01903
0
LINE
8
BLACK
6
CONTINUOUS
10
0.624026
20
1.01903
11
0.619417
21
1.02248
0
LINE
8
BLACK
6
CONTINUOUS
10
0.619417
20
1.02248
11
0.614024
21
1.02449
0
LINE
8
BLACK
6
CONTINUOUS
10
0.614024
20
1.02449
11
0.614024
21
1.02449
0
LINE
8
BLACK
6
CONTINUOUS
10
0.614024
20
1.02449
11
0.614023
21
1.02449
0
LINE
8
BLACK
6
CONTINUOUS
10
0.614023
20
1.02449
11
0.61164
21
1.02474
0
LINE
8
BLACK
6
CONTINUOUS
10
0.61164
20
1.02474
11
0.61164
21
1.02474
0
LINE
8
BLACK
6
CONTINUOUS
10
0.61164
20
1.02474
11
0.611639
21
1.02474
0
LINE
8
BLACK
6
CONTINUOUS
10
0.611639
20
1.02474
11
0.579779
21
1.02474
0
LINE
8
BLACK
6
CONTINUOUS
10
0.579779
20
1.02474
11
0.57774
21
1.02074
0
LINE
8
BLACK
6
CONTINUOUS
10
0.57774
20
1.02074
11
0.574256
21
1.01726
0
LINE
8
BLACK
6
CONTINUOUS
10
0.574256
20
1.01726
11
0.569866
21
1.01502
0
LINE
8
BLACK
6
CONTINUOUS
10
0.569866
20
1.01502
11
0.565
21
1.01425
0
LINE
8
BLACK
6
CONTINUOUS
10
0.565
20
1.01425
11
0.560134
21
1.01502
0
LINE
8
BLACK
6
CONTINUOUS
10
0.560134
20
1.01502
11
0.555744
21
1.01726
0
LINE
8
BLACK
6
CONTINUOUS
10
0.555744
20
1.01726
11
0.55226
21
1.02074
0
LINE
8
BLACK
6
CONTINUOUS
10
0.55226
20
1.02074
11
0.550221
21
1.02474
0
LINE
8
BLACK
6
CONTINUOUS
10
0.550221
20
1.02474
11
0.470014
21
1.02474
0
LINE
8
BLACK
6
CONTINUOUS
10
0.470014
20
1.02474
11
0.470014
21
1.02474
0
LINE
8
BLACK
6
CONTINUOUS
10
0.470014
20
1.02474
11
0.470014
21
1.02474
0
LINE
8
BLACK
6
CONTINUOUS
10
0.470014
20
1.02474
11
0.46763
21
1.02449
0
LINE
8
BLACK
6
CONTINUOUS
10
0.46763
20
1.02449
11
0.46763
21
1.02449
0
LINE
8
BLACK
6
CONTINUOUS
10
0.46763
20
1.02449
11
0.464562
21
1.02334
0
LINE
8
BLACK
6
CONTINUOUS
10
0.464562
20
1.02334
11
0.462236
21
1.02248
0
LINE
8
BLACK
6
CONTINUOUS
10
0.462236
20
1.02248
11
0.462236
21
1.02248
0
LINE
8
BLACK
6
CONTINUOUS
10
0.462236
20
1.02248
11
0.462236
21
1.02248
0
LINE
8
BLACK
6
CONTINUOUS
10
0.462236
20
1.02248
11
0.457627
21
1.01903
0
LINE
8
BLACK
6
CONTINUOUS
10
0.457627
20
1.01903
11
0.454178
21
1.01442
0
LINE
8
BLACK
6
CONTINUOUS
10
0.454178
20
1.01442
11
0.454178
21
1.01442
0
LINE
8
BLACK
6
CONTINUOUS
10
0.454178
20
1.01442
11
0.452166
21
1.00902
0
LINE
8
BLACK
6
CONTINUOUS
10
0.452166
20
1.00902
11
0.452166
21
1.00902
0
LINE
8
BLACK
6
CONTINUOUS
10
0.452166
20
1.00902
11
0.451909
21
1.00664
0
LINE
8
BLACK
6
CONTINUOUS
10
0.451909
20
1.00664
11
0.451909
21
0.865014
0
LINE
8
BLACK
6
CONTINUOUS
10
0.451909
20
0.865014
11
0.452166
21
0.86263
0
LINE
8
BLACK
6
CONTINUOUS
10
0.452166
20
0.86263
11
0.452166
21
0.86263
0
LINE
8
BLACK
6
CONTINUOUS
10
0.452166
20
0.86263
11
0.454178
21
0.857236
0
LINE
8
BLACK
6
CONTINUOUS
10
0.454178
20
0.857236
11
0.454178
21
0.857236
0
LINE
8
BLACK
6
CONTINUOUS
10
0.454178
20
0.857236
11
0.457627
21
0.852627
0
LINE
8
BLACK
6
CONTINUOUS
10
0.457627
20
0.852627
11
0.462236
21
0.849178
0
LINE
8
BLACK
6
CONTINUOUS
10
0.462236
20
0.849178
11
0.462236
21
0.849178
0
LINE
8
BLACK
6
CONTINUOUS
10
0.462236
20
0.849178
11
0.46763
21
0.847166
0
LINE
8
BLACK
6
CONTINUOUS
10
0.46763
20
0.847166
11
0.46763
21
0.847166
0
LINE
8
BLACK
6
CONTINUOUS
10
0.46763
20
0.847166
11
0.470014
21
0.846909
0
LINE
8
BLACK
6
CONTINUOUS
10
0.470014
20
0.846909
11
0.470014
21
0.846909
0
LINE
8
BLACK
6
CONTINUOUS
10
0.470014
20
0.846909
11
0.550643
21
0.846909
0
LINE
8
BLACK
6
CONTINUOUS
10
0.550643
20
0.846909
11
0.553325
21
0.846122
0
LINE
8
BLACK
6
CONTINUOUS
10
0.553325
20
0.846122
11
0.555156
21
0.84401
0
LINE
8
BLACK
6
CONTINUOUS
10
0.555156
20
0.84401
11
0.555553
21
0.841243
0
LINE
8
BLACK
6
CONTINUOUS
10
0.555553
20
0.841243
11
0.554939
21
0.839469
0
LINE
8
BLACK
6
CONTINUOUS
10
0.554939
20
0.839469
11
0.552145
21
0.834628
0
LINE
8
BLACK
6
CONTINUOUS
10
0.552145
20
0.834628
11
0.551005
21
0.831121
0
LINE
8
BLACK
6
CONTINUOUS
10
0.551005
20
0.831121
11
0.549821
21
0.827477
0
LINE
8
BLACK
6
CONTINUOUS
10
0.549821
20
0.827477
11
0.549035
21
0.82
0
LINE
8
BLACK
6
CONTINUOUS
10
0.549035
20
0.82
11
0.549821
21
0.812523
0
LINE
8
BLACK
6
CONTINUOUS
10
0.549821
20
0.812523
11
0.551053
21
0.80873
0
LINE
8
BLACK
6
CONTINUOUS
10
0.551053
20
0.80873
11
0.551995
21
0.805833
0
LINE
8
BLACK
6
CONTINUOUS
10
0.551995
20
0.805833
11
0.552145
21
0.805372
0
LINE
8
BLACK
6
CONTINUOUS
10
0.552145
20
0.805372
11
0.552145
21
0.805372
0
LINE
8
BLACK
6
CONTINUOUS
10
0.552145
20
0.805372
11
0.555904
21
0.798861
0
LINE
8
BLACK
6
CONTINUOUS
10
0.555904
20
0.798861
11
0.555904
21
0.79886
0
LINE
8
BLACK
6
CONTINUOUS
10
0.555904
20
0.79886
11
0.560935
21
0.793273
0
LINE
8
BLACK
6
CONTINUOUS
10
0.560935
20
0.793273
11
0.567018
21
0.788854
0
LINE
8
BLACK
6
CONTINUOUS
10
0.567018
20
0.788854
11
0.573886
21
0.785796
0
LINE
8
BLACK
6
CONTINUOUS
10
0.573886
20
0.785796
11
0.581241
21
0.784232
0
LINE
8
BLACK
6
CONTINUOUS
10
0.581241
20
0.784232
11
0.588759
21
0.784232
0
LINE
8
BLACK
6
CONTINUOUS
10
0.588759
20
0.784232
11
0.596114
21
0.785796
0
LINE
8
BLACK
6
CONTINUOUS
10
0.596114
20
0.785796
11
0.602982
21
0.788854
0
LINE
8
BLACK
6
CONTINUOUS
10
0.602982
20
0.788854
11
0.609065
21
0.793273
0
LINE
8
BLACK
6
CONTINUOUS
10
0.609065
20
0.793273
11
0.614096
21
0.79886
0
LINE
8
BLACK
6
CONTINUOUS
10
0.614096
20
0.79886
11
0.614096
21
0.79886
0
LINE
8
BLACK
6
CONTINUOUS
10
0.614096
20
0.79886
11
0.614096
21
0.79886
0
LINE
8
BLACK
6
CONTINUOUS
10
0.614096
20
0.79886
11
0.61672
21
0.803406
0
LINE
8
BLACK
6
CONTINUOUS
10
0.61672
20
0.803406
11
0.618743
21
0.805334
0
LINE
8
BLACK
6
CONTINUOUS
10
0.618743
20
0.805334
11
0.621016
21
0.805886
0
LINE
8
BLACK
6
CONTINUOUS
10
0.621016
20
0.805886
11
0.656678
21
0.805886
0
LINE
8
BLACK
6
CONTINUOUS
10
0.656678
20
0.805886
11
0.65936
21
0.805098
0
LINE
8
BLACK
6
CONTINUOUS
10
0.65936
20
0.805098
11
0.661191
21
0.802986
0
LINE
8
BLACK
6
CONTINUOUS
10
0.661191
20
0.802986
11
0.661588
21
0.800219
0
LINE
8
BLACK
6
CONTINUOUS
10
0.661588
20
0.800219
11
0.660427
21
0.797677
0
LINE
8
BLACK
6
CONTINUOUS
10
0.660427
20
0.797677
11
0.660186
21
0.797417
0
LINE
8
BLACK
6
CONTINUOUS
10
0.660186
20
0.797417
11
0.625678
21
0.76291
0
LINE
8
BLACK
6
CONTINUOUS
10
0.625678
20
0.76291
11
0.625133
21
0.762438
0
LINE
8
BLACK
6
CONTINUOUS
10
0.625133
20
0.762438
11
0.624368
21
0.761869
0
LINE
8
BLACK
6
CONTINUOUS
10
0.624368
20
0.761869
11
0.624368
21
0.761869
0
LINE
8
BLACK
6
CONTINUOUS
10
0.624368
20
0.761869
11
0.623032
21
0.760277
0
LINE
8
BLACK
6
CONTINUOUS
10
0.623032
20
0.760277
11
0.622885
21
0.760117
0
LINE
8
BLACK
6
CONTINUOUS
10
0.622885
20
0.760117
11
0.622655
21
0.759886
0
LINE
8
BLACK
6
CONTINUOUS
10
0.622655
20
0.759886
11
0.622654
21
0.759886
0
LINE
8
BLACK
6
CONTINUOUS
10
0.622654
20
0.759886
11
0.622654
21
0.759886
0
LINE
8
BLACK
6
CONTINUOUS
10
0.622654
20
0.759886
11
0.621845
21
0.758862
0
LINE
8
BLACK
6
CONTINUOUS
10
0.621845
20
0.758862
11
0.619881
21
0.756521
0
LINE
8
BLACK
6
CONTINUOUS
10
0.619881
20
0.756521
11
0.619722
21
0.75628
0
LINE
8
BLACK
6
CONTINUOUS
10
0.619722
20
0.75628
11
0.61972
21
0.756281
0
LINE
8
BLACK
6
CONTINUOUS
10
0.61972
20
0.756281
11
0.61956
21
0.756031
0
LINE
8
BLACK
6
CONTINUOUS
10
0.61956
20
0.756031
11
0.619562
21
0.75603
0
LINE
8
BLACK
6
CONTINUOUS
10
0.619562
20
0.75603
11
0.619411
21
0.755784
0
LINE
8
BLACK
6
CONTINUOUS
10
0.619411
20
0.755784
11
0.619411
21
0.755784
0
LINE
8
BLACK
6
CONTINUOUS
10
0.619411
20
0.755784
11
0.619403
21
0.755768
0
LINE
8
BLACK
6
CONTINUOUS
10
0.619403
20
0.755768
11
0.619343
21
0.755638
0
LINE
8
BLACK
6
CONTINUOUS
10
0.619343
20
0.755638
11
0.61927
21
0.755556
0
LINE
8
BLACK
6
CONTINUOUS
10
0.61927
20
0.755556
11
0.619259
21
0.755538
0
LINE
8
BLACK
6
CONTINUOUS
10
0.619259
20
0.755538
11
0.619256
21
0.75554
0
LINE
8
BLACK
6
CONTINUOUS
10
0.619256
20
0.75554
11
0.617496
21
0.753541
0
LINE
8
BLACK
6
CONTINUOUS
10
0.617496
20
0.753541
11
0.614808
21
0.752774
0
LINE
8
BLACK
6
CONTINUOUS
10
0.614808
20
0.752774
11
0.614317
21
0.752803
0
LINE
8
BLACK
6
CONTINUOUS
10
0.614317
20
0.752803
11
0.614024
21
0.752834
0
LINE
8
BLACK
6
CONTINUOUS
10
0.614024
20
0.752834
11
0.614024
21
0.752834
0
LINE
8
BLACK
6
CONTINUOUS
10
0.614024
20
0.752834
11
0.611639
21
0.753091
0
LINE
8
BLACK
6
CONTINUOUS
10
0.611639
20
0.753091
11
0.611639
21
0.753091
0
LINE
8
BLACK
6
CONTINUOUS
10
0.611639
20
0.753091
11
0.57967
21
0.753091
0
LINE
8
BLACK
6
CONTINUOUS
10
0.57967
20
0.753091
11
0.577652
21
0.753519
0
LINE
8
BLACK
6
CONTINUOUS
10
0.577652
20
0.753519
11
0.576114
21
0.754204
0
LINE
8
BLACK
6
CONTINUOUS
10
0.576114
20
0.754204
11
0.568759
21
0.755768
0
LINE
8
BLACK
6
CONTINUOUS
10
0.568759
20
0.755768
11
0.561241
21
0.755768
0
LINE
8
BLACK
6
CONTINUOUS
10
0.561241
20
0.755768
11
0.553886
21
0.754204
0
LINE
8
BLACK
6
CONTINUOUS
10
0.553886
20
0.754204
11
0.552348
21
0.753519
0
LINE
8
BLACK
6
CONTINUOUS
10
0.552348
20
0.753519
11
0.55033
21
0.753091
0
LINE
8
BLACK
6
CONTINUOUS
10
0.55033
20
0.753091
11
0.470014
21
0.753091
0
LINE
8
BLACK
6
CONTINUOUS
10
0.470014
20
0.753091
11
0.470014
21
0.753091
0
LINE
8
BLACK
6
CONTINUOUS
10
0.470014
20
0.753091
11
0.470014
21
0.753091
0
LINE
8
BLACK
6
CONTINUOUS
10
0.470014
20
0.753091
11
0.46763
21
0.752834
0
LINE
8
BLACK
6
CONTINUOUS
10
0.46763
20
0.752834
11
0.46763
21
0.752834
0
LINE
8
BLACK
6
CONTINUOUS
10
0.46763
20
0.752834
11
0.465165
21
0.751915
0
LINE
8
BLACK
6
CONTINUOUS
10
0.465165
20
0.751915
11
0.462236
21
0.750822
0
LINE
8
BLACK
6
CONTINUOUS
10
0.462236
20
0.750822
11
0.462236
21
0.750822
0
LINE
8
BLACK
6
CONTINUOUS
10
0.462236
20
0.750822
11
0.462236
21
0.750822
0
LINE
8
BLACK
6
CONTINUOUS
10
0.462236
20
0.750822
11
0.457627
21
0.747372
0
LINE
8
BLACK
6
CONTINUOUS
10
0.457627
20
0.747372
11
0.454178
21
0.742764
0
LINE
8
BLACK
6
CONTINUOUS
10
0.454178
20
0.742764
11
0.454178
21
0.742764
0
LINE
8
BLACK
6
CONTINUOUS
10
0.454178
20
0.742764
11
0.452166
21
0.73737
0
LINE
8
BLACK
6
CONTINUOUS
10
0.452166
20
0.73737
11
0.452166
21
0.73737
0
LINE
8
BLACK
6
CONTINUOUS
10
0.452166
20
0.73737
11
0.451909
21
0.734986
0
LINE
8
BLACK
6
CONTINUOUS
10
0.451909
20
0.734986
11
0.451909
21
0.59336
0
LINE
8
BLACK
6
CONTINUOUS
10
0.451909
20
0.59336
11
0.452166
21
0.590976
0
LINE
8
BLACK
6
CONTINUOUS
10
0.945
20
0.61
11
0.945
21
0.588087
0
LINE
8
BLACK
6
CONTINUOUS
10
0.945
20
0.588087
11
0.945256
21
0.585705
0
LINE
8
BLACK
6
CONTINUOUS
10
0.945256
20
0.585705
11
0.947266
21
0.580316
0
LINE
8
BLACK
6
CONTINUOUS
10
0.947266
20
0.580316
11
0.947266
21
0.580316
0
LINE
8
BLACK
6
CONTINUOUS
10
0.947266
20
0.580316
11
0.950712
21
0.575712
0
LINE
8
BLACK
6
CONTINUOUS
10
0.950712
20
0.575712
11
0.955316
21
0.572266
0
LINE
8
BLACK
6
CONTINUOUS
10
0.955316
20
0.572266
11
0.960705
21
0.570256
0
LINE
8
BLACK
6
CONTINUOUS
10
0.960705
20
0.570256
11
0.963087
21
0.57
0
LINE
8
BLACK
6
CONTINUOUS
10
0.963087
20
0.57
11
0.985
21
0.57
0
LINE
8
BLACK
6
CONTINUOUS
10
0.985
20
0.57
11
0.985
21
0.59
0
LINE
8
BLACK
6
CONTINUOUS
10
0.985
20
0.59
11
0.965
21
0.59
0
LINE
8
BLACK
6
CONTINUOUS
10
0.965
20
0.59
11
0.965
21
0.61
0
LINE
8
BLACK
6
CONTINUOUS
10
0.965
20
0.61
11
0.945
21
0.61
0
LINE
8
BLACK
6
CONTINUOUS
10
1.025
20
0.61
11
1.025
21
0.59
0
LINE
8
BLACK
6
CONTINUOUS
10
1.025
20
0.59
11
1.005
21
0.59
0
LINE
8
BLACK
6
CONTINUOUS
10
1.005
20
0.59
11
1.005
21
0.57
0
LINE
8
BLACK
6
CONTINUOUS
10
1.005
20
0.57
11
1.02691
21
0.57
0
LINE
8
BLACK
6
CONTINUOUS
10
1.02691
20
0.57
11
1.0293
21
0.570256
0
LINE
8
BLACK
6
CONTINUOUS
10
1.0293
20
0.570256
11
1.03468
21
0.572266
0
LINE
8
BLACK
6
CONTINUOUS
10
1.03468
20
0.572266
11
1.03468
21
0.572266
0
LINE
8
BLACK
6
CONTINUOUS
10
1.03468
20
0.572266
11
1.03929
21
0.575712
0
LINE
8
BLACK
6
CONTINUOUS
10
1.03929
20
0.575712
11
1.04103
21
0.578038
0
LINE
8
BLACK
6
CONTINUOUS
10
1.04103
20
0.578038
11
1.04327
21
0.579714
0
LINE
8
BLACK
6
CONTINUOUS
10
1.04327
20
0.579714
11
1.04605
21
0.579913
0
LINE
8
BLACK
6
CONTINUOUS
10
1.04605
20
0.579913
11
1.04851
21
0.578573
0
LINE
8
BLACK
6
CONTINUOUS
10
1.04851
20
0.578573
11
1.04897
21
0.578038
0
LINE
8
BLACK
6
CONTINUOUS
10
1.04897
20
0.578038
11
1.05071
21
0.575712
0
LINE
8
BLACK
6
CONTINUOUS
10
1.05071
20
0.575712
11
1.05532
21
0.572266
0
LINE
8
BLACK
6
CONTINUOUS
10
1.05532
20
0.572266
11
1.0607
21
0.570256
0
LINE
8
BLACK
6
CONTINUOUS
10
1.0607
20
0.570256
11
1.06309
21
0.57
0
LINE
8
BLACK
6
CONTINUOUS
10
1.06309
20
0.57
11
1.085
21
0.57
0
LINE
8
BLACK
6
CONTINUOUS
10
1.085
20
0.57
11
1.085
21
0.59
0
LINE
8
BLACK
6
CONTINUOUS
10
1.085
20
0.59
11
1.065
21
0.59
0
LINE
8
BLACK
6
CONTINUOUS
10
1.065
20
0.59
11
1.065
21
0.61
0
LINE
8
BLACK
6
CONTINUOUS
10
1.065
20
0.61
11
1.025
21
0.61
0
LINE
8
BLACK
6
CONTINUOUS
10
1.125
20
0.59
11
1.105
21
0.59
0
LINE
8
BLACK
6
CONTINUOUS
10
1.105
20
0.59
11
1.105
21
0.57
0
LINE
8
BLACK
6
CONTINUOUS
10
1.105
20
0.57
11
1.12691
21
0.57
0
LINE
8
BLACK
6
CONTINUOUS
10
1.12691
20
0.57
11
1.12929
21
0.570256
0
LINE
8
BLACK
6
CONTINUOUS
10
1.12929
20
0.570256
11
1.13468
21
0.572266
0
LINE
8
BLACK
6
CONTINUOUS
10
1.13468
20
0.572266
11
1.13468
21
0.572266
0
LINE
8
BLACK
6
CONTINUOUS
10
1.13468
20
0.572266
11
1.13929
21
0.575712
0
LINE
8
BLACK
6
CONTINUOUS
10
1.13929
20
0.575712
11
1.14273
21
0.580316
0
LINE
8
BLACK
6
CONTINUOUS
10
1.14273
20
0.580316
11
1.14273
21
0.580316
0
LINE
8
BLACK
6
CONTINUOUS
10
1.14273
20
0.580316
11
1.14474
21
0.585705
0
LINE
8
BLACK
6
CONTINUOUS
10
1.14474
20
0.585705
11
1.145
21
0.588087
0
LINE
8
BLACK
6
CONTINUOUS
10
1.145
20
0.588087
11
1.145
21
0.588087
0
LINE
8
BLACK
6
CONTINUOUS
10
1.145
20
0.588087
11
1.145
21
0.61
0
LINE
8
BLACK
6
CONTINUOUS
10
1.145
20
0.61
11
1.125
21
0.61
0
LINE
8
BLACK
6
CONTINUOUS
10
1.125
20
0.61
11
1.125
21
0.59
0
LINE
8
BLACK
6
CONTINUOUS
10
0.180512
20
0.590976
11
0.180512
21
0.590976
0
LINE
8
BLACK
6
CONTINUOUS
10
0.180512
20
0.590976
11
0.182524
21
0.585583
0
LINE
8
BLACK
6
CONTINUOUS
10
0.182524
20
0.585583
11
0.182524
21
0.585582
0
LINE
8
BLACK
6
CONTINUOUS
10
0.182524
20
0.585582
11
0.185974
21
0.580974
0
LINE
8
BLACK
6
CONTINUOUS
10
0.185974
20
0.580974
11
0.190582
21
0.577524
0
LINE
8
BLACK
6
CONTINUOUS
10
0.190582
20
0.577524
11
0.190583
21
0.577524
0
LINE
8
BLACK
6
CONTINUOUS
10
0.190583
20
0.577524
11
0.195976
21
0.575512
0
LINE
8
BLACK
6
CONTINUOUS
10
0.195976
20
0.575512
11
0.195976
21
0.575512
0
LINE
8
BLACK
6
CONTINUOUS
10
0.195976
20
0.575512
11
0.19836
21
0.575256
0
LINE
8
BLACK
6
CONTINUOUS
10
0.19836
20
0.575256
11
0.198361
21
0.575256
0
LINE
8
BLACK
6
CONTINUOUS
10
0.198361
20
0.575256
11
0.339986
21
0.575256
0
LINE
8
BLACK
6
CONTINUOUS
10
0.339986
20
0.575256
11
0.34237
21
0.575512
0
LINE
8
BLACK
6
CONTINUOUS
10
0.34237
20
0.575512
11
0.34237
21
0.575512
0
LINE
8
BLACK
6
CONTINUOUS
10
0.34237
20
0.575512
11
0.347764
21
0.577524
0
LINE
8
BLACK
6
CONTINUOUS
10
0.347764
20
0.577524
11
0.347764
21
0.577524
0
LINE
8
BLACK
6
CONTINUOUS
10
0.347764
20
0.577524
11
0.352372
21
0.580974
0
LINE
8
BLACK
6
CONTINUOUS
10
0.352372
20
0.580974
11
0.355822
21
0.585582
0
LINE
8
BLACK
6
CONTINUOUS
10
0.355822
20
0.585582
11
0.355822
21
0.585583
0
LINE
8
BLACK
6
CONTINUOUS
10
0.355822
20
0.585583
11
0.356249
21
0.586727
0
LINE
8
BLACK
6
CONTINUOUS
10
0.356249
20
0.586727
11
0.357834
21
0.590976
0
LINE
8
BLACK
6
CONTINUOUS
10
0.357834
20
0.590976
11
0.357834
21
0.590976
0
LINE
8
BLACK
6
CONTINUOUS
10
0.357834
20
0.590976
11
0.358091
21
0.59336
0
LINE
8
BLACK
6
CONTINUOUS
10
0.358091
20
0.59336
11
0.358091
21
0.593361
0
LINE
8
BLACK
6
CONTINUOUS
10
0.358091
20
0.593361
11
0.358091
21
0.734986
0
LINE
8
BLACK
6
CONTINUOUS
10
0.358091
20
0.734986
11
0.358091
21
0.734986
0
LINE
8
BLACK
6
CONTINUOUS
10
0.358091
20
0.734986
11
0.357834
21
0.73737
0
LINE
8
BLACK
6
CONTINUOUS
10
0.357834
20
0.73737
11
0.357834
21
0.73737
0
LINE
8
BLACK
6
CONTINUOUS
10
0.357834
20
0.73737
11
0.356552
21
0.740808
0
LINE
8
BLACK
6
CONTINUOUS
10
0.356552
20
0.740808
11
0.355822
21
0.742764
0
LINE
8
BLACK
6
CONTINUOUS
10
0.355822
20
0.742764
11
0.355343
21
0.743405
0
LINE
8
BLACK
6
CONTINUOUS
10
0.355343
20
0.743405
11
0.352372
21
0.747372
0
LINE
8
BLACK
6
CONTINUOUS
10
0.352372
20
0.747372
11
0.347764
21
0.750822
0
LINE
8
BLACK
6
CONTINUOUS
10
0.347764
20
0.750822
11
0.347764
21
0.750822
0
LINE
8
BLACK
6
CONTINUOUS
10
0.347764
20
0.750822
11
0.347764
21
0.750822
0
LINE
8
BLACK
6
CONTINUOUS
10
0.347764
20
0.750822
11
0.34237
21
0.752834
0
LINE
8
BLACK
6
CONTINUOUS
10
0.34237
20
0.752834
11
0.34237
21
0.752834
0
LINE
8
BLACK
6
CONTINUOUS
10
0.34237
20
0.752834
11
0.34237
21
0.752834
0
LINE
8
BLACK
6
CONTINUOUS
10
0.34237
20
0.752834
11
0.339986
21
0.753091
0
LINE
8
BLACK
6
CONTINUOUS
10
0.339986
20
0.753091
11
0.339986
21
0.753091
0
LINE
8
BLACK
6
CONTINUOUS
10
0.339986
20
0.753091
11
0.339986
21
0.753091
0
LINE
8
BLACK
6
CONTINUOUS
10
0.339986
20
0.753091
11
0.198361
21
0.753091
0
LINE
8
BLACK
6
CONTINUOUS
10
0.198361
20
0.753091
11
0.19836
21
0.753091
0
LINE
8
BLACK
6
CONTINUOUS
10
0.19836
20
0.753091
11
0.19836
21
0.753091
0
LINE
8
BLACK
6
CONTINUOUS
10
0.19836
20
0.753091
11
0.195976
21
0.752834
0
LINE
8
BLACK
6
CONTINUOUS
10
0.195976
20
0.752834
11
0.195976
21
0.752834
0
LINE
8
BLACK
6
CONTINUOUS
10
0.195976
20
0.752834
11
0.193512
21
0.751915
0
LINE
8
BLACK
6
CONTINUOUS
10
0.193512
20
0.751915
11
0.190583
21
0.750822
0
LINE
8
BLACK
6
CONTINUOUS
10
0.190583
20
0.750822
11
0.190582
21
0.750822
0
LINE
8
BLACK
6
CONTINUOUS
10
0.190582
20
0.750822
11
0.190582
21
0.750822
0
LINE
8
BLACK
6
CONTINUOUS
10
0.190582
20
0.750822
11
0.185974
21
0.747372
0
LINE
8
BLACK
6
CONTINUOUS
10
0.185974
20
0.747372
11
0.182524
21
0.742764
0
LINE
8
BLACK
6
CONTINUOUS
10
0.182524
20
0.742764
11
0.182524
21
0.742764
0
LINE
8
BLACK
6
CONTINUOUS
10
0.182524
20
0.742764
11
0.180512
21
0.73737
0
LINE
8
BLACK
6
CONTINUOUS
10
0.180512
20
0.73737
11
0.180512
21
0.73737
0
LINE
8
BLACK
6
CONTINUOUS
10
0.180512
20
0.73737
11
0.180256
21
0.734986
0
LINE
8
BLACK
6
CONTINUOUS
10
0.180256
20
0.734986
11
0.180256
21
0.59336
0
LINE
8
BLACK
6
CONTINUOUS
10
0.180256
20
0.59336
11
0.180512
21
0.590976
0
LINE
8
BLACK
6
CONTINUOUS
10
0.180512
20
0.86263
11
0.180512
21
0.86263
0
LINE
8
BLACK
6
CONTINUOUS
10
0.180512
20
0.86263
11
0.182524
21
0.857236
0
LINE
8
BLACK
6
CONTINUOUS
10
0.182524
20
0.857236
11
0.182524
21
0.857236
0
LINE
8
BLACK
6
CONTINUOUS
10
0.182524
20
0.857236
11
0.185974
21
0.852627
0
LINE
8
BLACK
6
CONTINUOUS
10
0.185974
20
0.852627
11
0.190582
21
0.849178
0
LINE
8
BLACK
6
CONTINUOUS
10
0.190582
20
0.849178
11
0.190583
21
0.849178
0
LINE
8
BLACK
6
CONTINUOUS
10
0.190583
20
0.849178
11
0.195976
21
0.847166
0
LINE
8
BLACK
6
CONTINUOUS
10
0.195976
20
0.847166
11
0.195976
21
0.847166
0
LINE
8
BLACK
6
CONTINUOUS
10
0.195976
20
0.847166
11
0.19836
21
0.846909
0
LINE
8
BLACK
6
CONTINUOUS
10
0.19836
20
0.846909
11
0.198361
21
0.846909
0
LINE
8
BLACK
6
CONTINUOUS
10
0.198361
20
0.846909
11
0.339986
21
0.846909
0
LINE
8
BLACK
6
CONTINUOUS
10
0.339986
20
0.846909
11
0.34237
21
0.847166
0
LINE
8
BLACK
6
CONTINUOUS
10
0.34237
20
0.847166
11
0.34237
21
0.847166
0
LINE
8
BLACK
6
CONTINUOUS
10
0.34237
20
0.847166
11
0.347764
21
0.849178
0
LINE
8
BLACK
6
CONTINUOUS
10
0.347764
20
0.849178
11
0.347764
21
0.849178
0
LINE
8
BLACK
6
CONTINUOUS
10
0.347764
20
0.849178
11
0.352372
21
0.852627
0
LINE
8
BLACK
6
CONTINUOUS
10
0.352372
20
0.852627
11
0.355822
21
0.857236
0
LINE
8
BLACK
6
CONTINUOUS
10
0.355822
20
0.857236
11
0.355822
21
0.857236
0
LINE
8
BLACK
6
CONTINUOUS
10
0.355822
20
0.857236
11
0.357834
21
0.86263
0
LINE
8
BLACK
6
CONTINUOUS
10
0.357834
20
0.86263
11
0.357834
21
0.86263
0
LINE
8
BLACK
6
CONTINUOUS
10
0.357834
20
0.86263
11
0.358091
21
0.865014
0
LINE
8
BLACK
6
CONTINUOUS
10
0.358091
20
0.865014
11
0.358091
21
0.865014
0
LINE
8
BLACK
6
CONTINUOUS
10
0.358091
20
0.865014
11
0.358091
21
1.00664
0
LINE
8
BLACK
6
CONTINUOUS
10
0.358091
20
1.00664
11
0.358091
21
1.00664
0
LINE
8
BLACK
6
CONTINUOUS
10
0.358091
20
1.00664
11
0.357834
21
1.00902
0
LINE
8
BLACK
6
CONTINUOUS
10
0.357834
20
1.00902
11
0.357834
21
1.00902
0
LINE
8
BLACK
6
CONTINUOUS
10
0.357834
20
1.00902
11
0.357557
21
1.00977
0
LINE
8
BLACK
6
CONTINUOUS
10
0.357557
20
1.00977
11
0.355822
21
1.01442
0
LINE
8
BLACK
6
CONTINUOUS
10
0.355822
20
1.01442
11
0.352372
21
1.01903
0
LINE
8
BLACK
6
CONTINUOUS
10
0.352372
20
1.01903
11
0.347764
21
1.02248
0
LINE
8
BLACK
6
CONTINUOUS
10
0.347764
20
1.02248
11
0.34237
21
1.02449
0
LINE
8
BLACK
6
CONTINUOUS
10
0.34237
20
1.02449
11
0.34237
21
1.02449
0
LINE
8
BLACK
6
CONTINUOUS
10
0.34237
20
1.02449
11
0.34237
21
1.02449
0
LINE
8
BLACK
6
CONTINUOUS
10
0.34237
20
1.02449
11
0.339986
21
1.02474
0
LINE
8
BLACK
6
CONTINUOUS
10
0.339986
20
1.02474
11
0.339986
21
1.02474
0
LINE
8
BLACK
6
CONTINUOUS
10
0.339986
20
1.02474
11
0.339986
21
1.02474
0
LINE
8
BLACK
6
CONTINUOUS
10
0.339986
20
1.02474
11
0.198361
21
1.02474
0
LINE
8
BLACK
6
CONTINUOUS
10
0.198361
20
1.02474
11
0.19836
21
1.02474
0
LINE
8
BLACK
6
CONTINUOUS
10
0.19836
20
1.02474
11
0.19836
21
1.02474
0
LINE
8
BLACK
6
CONTINUOUS
10
0.19836
20
1.02474
11
0.195976
21
1.02449
0
LINE
8
BLACK
6
CONTINUOUS
10
0.195976
20
1.02449
11
0.195976
21
1.02449
0
LINE
8
BLACK
6
CONTINUOUS
10
0.195976
20
1.02449
11
0.192908
21
1.02334
0
LINE
8
BLACK
6
CONTINUOUS
10
0.192908
20
1.02334
11
0.190583
21
1.02248
0
LINE
8
BLACK
6
CONTINUOUS
10
0.190583
20
1.02248
11
0.190582
21
1.02248
0
LINE
8
BLACK
6
CONTINUOUS
10
0.190582
20
1.02248
11
0.190582
21
1.02248
0
LINE
8
BLACK
6
CONTINUOUS
10
0.190582
20
1.02248
11
0.185974
21
1.01903
0
LINE
8
BLACK
6
CONTINUOUS
10
0.185974
20
1.01903
11
0.182524
21
1.01442
0
LINE
8
BLACK
6
CONTINUOUS
10
0.182524
20
1.01442
11
0.182524
21
1.01442
0
LINE
8
BLACK
6
CONTINUOUS
10
0.182524
20
1.01442
11
0.180512
21
1.00902
0
LINE
8
BLACK
6
CONTINUOUS
10
0.180512
20
1.00902
11
0.180512
21
1.00902
0
LINE
8
BLACK
6
CONTINUOUS
10
0.180512
20
1.00902
11
0.180256
21
1.00664
0
LINE
8
BLACK
6
CONTINUOUS
10
0.180256
20
1.00664
11
0.180256
21
0.865014
0
LINE
8
BLACK
6
CONTINUOUS
10
0.180256
20
0.865014
11
0.180512
21
0.86263
0
LINE
8
BLACK
6
CONTINUOUS
10
0.945
20
1.29
11
0.945
21
1.26809
0
LINE
8
BLACK
6
CONTINUOUS
10
0.945
20
1.26809
11
0.945256
21
1.2657
0
LINE
8
BLACK
6
CONTINUOUS
10
0.945256
20
1.2657
11
0.947266
21
1.26032
0
LINE
8
BLACK
6
CONTINUOUS
10
0.947266
20
1.26032
11
0.947266
21
1.26032
0
LINE
8
BLACK
6
CONTINUOUS
10
0.947266
20
1.26032
11
0.950712
21
1.25571
0
LINE
8
BLACK
6
CONTINUOUS
10
0.950712
20
1.25571
11
0.955316
21
1.25227
0
LINE
8
BLACK
6
CONTINUOUS
10
0.955316
20
1.25227
11
0.960705
21
1.25026
0
LINE
8
BLACK
6
CONTINUOUS
10
0.960705
20
1.25026
11
0.963087
21
1.25
0
LINE
8
BLACK
6
CONTINUOUS
10
0.963087
20
1.25
11
0.985
21
1.25
0
LINE
8
BLACK
6
CONTINUOUS
10
0.985
20
1.25
11
0.985
21
1.27
0
LINE
8
BLACK
6
CONTINUOUS
10
0.985
20
1.27
11
0.965
21
1.27
0
LINE
8
BLACK
6
CONTINUOUS
10
0.965
20
1.27
11
0.965
21
1.29
0
LINE
8
BLACK
6
CONTINUOUS
10
0.965
20
1.29
11
0.945
21
1.29
0
LINE
8
BLACK
6
CONTINUOUS
10
1.025
20
1.29
11
1.025
21
1.27
0
LINE
8
BLACK
6
CONTINUOUS
10
1.025
20
1.27
11
1.005
21
1.27
0
LINE
8
BLACK
6
CONTINUOUS
10
1.005
20
1.27
11
1.005
21
1.25
0
LINE
8
BLACK
6
CONTINUOUS
10
1.005
20
1.25
11
1.02691
21
1.25
0
LINE
8
BLACK
6
CONTINUOUS
10
1.02691
20
1.25
11
1.0293
21
1.25026
0
LINE
8
BLACK
6
CONTINUOUS
10
1.0293
20
1.25026
11
1.03468
21
1.25227
0
LINE
8
BLACK
6
CONTINUOUS
10
1.03468
20
1.25227
11
1.03468
21
1.25227
0
LINE
8
BLACK
6
CONTINUOUS
10
1.03468
20
1.25227
11
1.03929
21
1.25571
0
LINE
8
BLACK
6
CONTINUOUS
10
1.03929
20
1.25571
11
1.04103
21
1.25804
0
LINE
8
BLACK
6
CONTINUOUS
10
1.04103
20
1.25804
11
1.04327
21
1.25971
0
LINE
8
BLACK
6
CONTINUOUS
10
1.04327
20
1.25971
11
1.04605
21
1.25991
0
LINE
8
BLACK
6
CONTINUOUS
10
1.04605
20
1.25991
11
1.04851
21
1.25857
0
LINE
8
BLACK
6
CONTINUOUS
10
1.04851
20
1.25857
11
1.04897
21
1.25804
0
LINE
8
BLACK
6
CONTINUOUS
10
1.04897
20
1.25804
11
1.05071
21
1.25571
0
LINE
8
BLACK
6
CONTINUOUS
10
1.05071
20
1.25571
11
1.05532
21
1.25227
0
LINE
8
BLACK
6
CONTINUOUS
10
1.05532
20
1.25227
11
1.0607
21
1.25026
0
LINE
8
BLACK
6
CONTINUOUS
10
1.0607
20
1.25026
11
1.06309
21
1.25
0
LINE
8
BLACK
6
CONTINUOUS
10
1.06309
20
1.25
11
1.085
21
1.25
0
LINE
8
BLACK
6
CONTINUOUS
10
1.085
20
1.25
11
1.085
21
1.27
0
LINE
8
BLACK
6
CONTINUOUS
10
1.085
20
1.27
11
1.065
21
1.27
0
LINE
8
BLACK
6
CONTINUOUS
10
1.065
20
1.27
11
1.065
21
1.29
0
LINE
8
BLACK
6
CONTINUOUS
10
1.065
20
1.29
11
1.025
21
1.29
0
LINE
8
BLACK
6
CONTINUOUS
10
1.125
20
1.27
11
1.105
21
1.27
0
LINE
8
BLACK
6
CONTINUOUS
10
1.105
20
1.27
11
1.105
21
1.25
0
LINE
8
BLACK
6
CONTINUOUS
10
1.105
20
1.25
11
1.12691
21
1.25
0
LINE
8
BLACK
6
CONTINUOUS
10
1.12691
20
1.25
11
1.12929
21
1.25026
0
LINE
8
BLACK
6
CONTINUOUS
10
1.12929
20
1.25026
11
1.13468
21
1.25227
0
LINE
8
BLACK
6
CONTINUOUS
10
1.13468
20
1.25227
11
1.13468
21
1.25227
0
LINE
8
BLACK
6
CONTINUOUS
10
1.13468
20
1.25227
11
1.13929
21
1.25571
0
LINE
8
BLACK
6
CONTINUOUS
10
1.13929
20
1.25571
11
1.14273
21
1.26032
0
LINE
8
BLACK
6
CONTINUOUS
10
1.14273
20
1.26032
11
1.14273
21
1.26032
0
LINE
8
BLACK
6
CONTINUOUS
10
1.14273
20
1.26032
11
1.14474
21
1.2657
0
LINE
8
BLACK
6
CONTINUOUS
10
1.14474
20
1.2657
11
1.145
21
1.26809
0
LINE
8
BLACK
6
CONTINUOUS
10
1.145
20
1.26809
11
1.145
21
1.26809
0
LINE
8
BLACK
6
CONTINUOUS
10
1.145
20
1.26809
11
1.145
21
1.29
0
LINE
8
BLACK
6
CONTINUOUS
10
1.145
20
1.29
11
1.125
21
1.29
0
LINE
8
BLACK
6
CONTINUOUS
10
1.125
20
1.29
11
1.125
21
1.27
0
LINE
8
BLACK
6
CONTINUOUS
10
1.025
20
1.49
11
1.025
21
1.47
0
LINE
8
BLACK
6
CONTINUOUS
10
1.025
20
1.47
11
0.965
21
1.47
0
LINE
8
BLACK
6
CONTINUOUS
10
0.965
20
1.47
11
0.965
21
1.49
0
LINE
8
BLACK
6
CONTINUOUS
10
0.965
20
1.49
11
0.945
21
1.49
0
LINE
8
BLACK
6
CONTINUOUS
10
0.945
20
1.49
11
0.945
21
1.46809
0
LINE
8
BLACK
6
CONTINUOUS
10
0.945
20
1.46809
11
0.945256
21
1.4657
0
LINE
8
BLACK
6
CONTINUOUS
10
0.945256
20
1.4657
11
0.947266
21
1.46032
0
LINE
8
BLACK
6
CONTINUOUS
10
0.947266
20
1.46032
11
0.947266
21
1.46032
0
LINE
8
BLACK
6
CONTINUOUS
10
0.947266
20
1.46032
11
0.950712
21
1.45571
0
LINE
8
BLACK
6
CONTINUOUS
10
0.950712
20
1.45571
11
0.953022
21
1.45398
0
LINE
8
BLACK
6
CONTINUOUS
10
0.953022
20
1.45398
11
0.954697
21
1.45175
0
LINE
8
BLACK
6
CONTINUOUS
10
0.954697
20
1.45175
11
0.954896
21
1.44896
0
LINE
8
BLACK
6
CONTINUOUS
10
0.954896
20
1.44896
11
0.953557
21
1.4465
0
LINE
8
BLACK
6
CONTINUOUS
10
0.953557
20
1.4465
11
0.953022
21
1.44604
0
LINE
8
BLACK
6
CONTINUOUS
10
0.953022
20
1.44604
11
0.950698
21
1.4443
0
LINE
8
BLACK
6
CONTINUOUS
10
0.950698
20
1.4443
11
0.950698
21
1.4443
0
LINE
8
BLACK
6
CONTINUOUS
10
0.950698
20
1.4443
11
0.950698
21
1.4443
0
LINE
8
BLACK
6
CONTINUOUS
10
0.950698
20
1.4443
11
0.947249
21
1.43969
0
LINE
8
BLACK
6
CONTINUOUS
10
0.947249
20
1.43969
11
0.947248
21
1.43969
0
LINE
8
BLACK
6
CONTINUOUS
10
0.947248
20
1.43969
11
0.945237
21
1.4343
0
LINE
8
BLACK
6
CONTINUOUS
10
0.945237
20
1.4343
11
0.945237
21
1.4343
0
LINE
8
BLACK
6
CONTINUOUS
10
0.945237
20
1.4343
11
0.94498
21
1.43192
0
LINE
8
BLACK
6
CONTINUOUS
10
0.94498
20
1.43192
11
0.94498
21
1.36808
0
LINE
8
BLACK
6
CONTINUOUS
10
0.94498
20
1.36808
11
0.945237
21
1.3657
0
LINE
8
BLACK
6
CONTINUOUS
10
0.945237
20
1.3657
11
0.945237
21
1.3657
0
LINE
8
BLACK
6
CONTINUOUS
10
0.945237
20
1.3657
11
0.947248
21
1.36031
0
LINE
8
BLACK
6
CONTINUOUS
10
0.947248
20
1.36031
11
0.947249
21
1.36031
0
LINE
8
BLACK
6
CONTINUOUS
10
0.947249
20
1.36031
11
0.950698
21
1.3557
0
LINE
8
BLACK
6
CONTINUOUS
10
0.950698
20
1.3557
11
0.953022
21
1.35396
0
LINE
8
BLACK
6
CONTINUOUS
10
0.953022
20
1.35396
11
0.954697
21
1.35172
0
LINE
8
BLACK
6
CONTINUOUS
10
0.954697
20
1.35172
11
0.954896
21
1.34893
0
LINE
8
BLACK
6
CONTINUOUS
10
0.954896
20
1.34893
11
0.953557
21
1.34648
0
LINE
8
BLACK
6
CONTINUOUS
10
0.953557
20
1.34648
11
0.953022
21
1.34602
0
LINE
8
BLACK
6
CONTINUOUS
10
0.953022
20
1.34602
11
0.950712
21
1.34429
0
LINE
8
BLACK
6
CONTINUOUS
10
0.950712
20
1.34429
11
0.947266
21
1.33968
0
LINE
8
BLACK
6
CONTINUOUS
10
0.947266
20
1.33968
11
0.947266
21
1.33968
0
LINE
8
BLACK
6
CONTINUOUS
10
0.947266
20
1.33968
11
0.945256
21
1.3343
0
LINE
8
BLACK
6
CONTINUOUS
10
0.945256
20
1.3343
11
0.945
21
1.33191
0
LINE
8
BLACK
6
CONTINUOUS
10
0.945
20
1.33191
11
0.945
21
1.31
0
LINE
8
BLACK
6
CONTINUOUS
10
0.945
20
1.31
11
0.965
21
1.31
0
LINE
8
BLACK
6
CONTINUOUS
10
0.965
20
1.31
11
0.965
21
1.33
0
LINE
8
BLACK
6
CONTINUOUS
10
0.965
20
1.33
11
1.025
21
1.33
0
LINE
8
BLACK
6
CONTINUOUS
10
1.025
20
1.33
11
1.025
21
1.31
0
LINE
8
BLACK
6
CONTINUOUS
10
1.025
20
1.31
11
1.065
21
1.31
0
LINE
8
BLACK
6
CONTINUOUS
10
1.065
20
1.31
11
1.065
21
1.33
0
LINE
8
BLACK
6
CONTINUOUS
10
1.065
20
1.33
11
1.125
21
1.33
0
LINE
8
BLACK
6
CONTINUOUS
10
1.125
20
1.33
11
1.125
21
1.31
0
LINE
8
BLACK
6
CONTINUOUS
10
1.125
20
1.31
11
1.145
21
1.31
0
LINE
8
BLACK
6
CONTINUOUS
10
1.145
20
1.31
11
1.145
21
1.33191
0
LINE
8
BLACK
6
CONTINUOUS
10
1.145
20
1.33191
11
1.145
21
1.33191
0
LINE
8
BLACK
6
CONTINUOUS
10
1.145
20
1.33191
11
1.14474
21
1.3343
0
LINE
8
BLACK
6
CONTINUOUS
10
1.14474
20
1.3343
11
1.14273
21
1.33968
0
LINE
8
BLACK
6
CONTINUOUS
10
1.14273
20
1.33968
11
1.14273
21
1.33968
0
LINE
8
BLACK
6
CONTINUOUS
10
1.14273
20
1.33968
11
1.13929
21
1.34429
0
LINE
8
BLACK
6
CONTINUOUS
10
1.13929
20
1.34429
11
1.13698
21
1.34602
0
LINE
8
BLACK
6
CONTINUOUS
10
1.13698
20
1.34602
11
1.1353
21
1.34825
0
LINE
8
BLACK
6
CONTINUOUS
10
1.1353
20
1.34825
11
1.1351
21
1.35104
0
LINE
8
BLACK
6
CONTINUOUS
10
1.1351
20
1.35104
11
1.13644
21
1.3535
0
LINE
8
BLACK
6
CONTINUOUS
10
1.13644
20
1.3535
11
1.13698
21
1.35396
0
LINE
8
BLACK
6
CONTINUOUS
10
1.13698
20
1.35396
11
1.1393
21
1.3557
0
LINE
8
BLACK
6
CONTINUOUS
10
1.1393
20
1.3557
11
1.1393
21
1.3557
0
LINE
8
BLACK
6
CONTINUOUS
10
1.1393
20
1.3557
11
1.14103
21
1.35801
0
LINE
8
BLACK
6
CONTINUOUS
10
1.14103
20
1.35801
11
1.14275
21
1.36031
0
LINE
8
BLACK
6
CONTINUOUS
10
1.14275
20
1.36031
11
1.14275
21
1.36031
0
LINE
8
BLACK
6
CONTINUOUS
10
1.14275
20
1.36031
11
1.14476
21
1.3657
0
LINE
8
BLACK
6
CONTINUOUS
10
1.14476
20
1.3657
11
1.14476
21
1.3657
0
LINE
8
BLACK
6
CONTINUOUS
10
1.14476
20
1.3657
11
1.14502
21
1.36808
0
LINE
8
BLACK
6
CONTINUOUS
10
1.14502
20
1.36808
11
1.14502
21
1.36809
0
LINE
8
BLACK
6
CONTINUOUS
10
1.14502
20
1.36809
11
1.14502
21
1.43191
0
LINE
8
BLACK
6
CONTINUOUS
10
1.14502
20
1.43191
11
1.14502
21
1.43192
0
LINE
8
BLACK
6
CONTINUOUS
10
1.14502
20
1.43192
11
1.14476
21
1.4343
0
LINE
8
BLACK
6
CONTINUOUS
10
1.14476
20
1.4343
11
1.14476
21
1.4343
0
LINE
8
BLACK
6
CONTINUOUS
10
1.14476
20
1.4343
11
1.14449
21
1.43504
0
LINE
8
BLACK
6
CONTINUOUS
10
1.14449
20
1.43504
11
1.14275
21
1.43969
0
LINE
8
BLACK
6
CONTINUOUS
10
1.14275
20
1.43969
11
1.1393
21
1.4443
0
LINE
8
BLACK
6
CONTINUOUS
10
1.1393
20
1.4443
11
1.13698
21
1.44604
0
LINE
8
BLACK
6
CONTINUOUS
10
1.13698
20
1.44604
11
1.1353
21
1.44828
0
LINE
8
BLACK
6
CONTINUOUS
10
1.1353
20
1.44828
11
1.1351
21
1.45107
0
LINE
8
BLACK
6
CONTINUOUS
10
1.1351
20
1.45107
11
1.13644
21
1.45352
0
LINE
8
BLACK
6
CONTINUOUS
10
1.13644
20
1.45352
11
1.13698
21
1.45398
0
LINE
8
BLACK
6
CONTINUOUS
10
1.13698
20
1.45398
11
1.13929
21
1.45571
0
LINE
8
BLACK
6
CONTINUOUS
10
1.13929
20
1.45571
11
1.14273
21
1.46032
0
LINE
8
BLACK
6
CONTINUOUS
10
1.14273
20
1.46032
11
1.14273
21
1.46032
0
LINE
8
BLACK
6
CONTINUOUS
10
1.14273
20
1.46032
11
1.14474
21
1.4657
0
LINE
8
BLACK
6
CONTINUOUS
10
1.14474
20
1.4657
11
1.145
21
1.46809
0
LINE
8
BLACK
6
CONTINUOUS
10
1.145
20
1.46809
11
1.145
21
1.46809
0
LINE
8
BLACK
6
CONTINUOUS
10
1.145
20
1.46809
11
1.145
21
1.49
0
LINE
8
BLACK
6
CONTINUOUS
10
1.145
20
1.49
11
1.125
21
1.49
0
LINE
8
BLACK
6
CONTINUOUS
10
1.125
20
1.49
11
1.125
21
1.47
0
LINE
8
BLACK
6
CONTINUOUS
10
1.125
20
1.47
11
1.065
21
1.47
0
LINE
8
BLACK
6
CONTINUOUS
10
1.065
20
1.47
11
1.065
21
1.49
0
LINE
8
BLACK
6
CONTINUOUS
10
1.065
20
1.49
11
1.025
21
1.49
0
LINE
8
BLACK
6
CONTINUOUS
10
1.105
20
1.53
11
1.125
21
1.53
0
LINE
8
BLACK
6
CONTINUOUS
10
1.125
20
1.53
11
1.125
21
1.51
0
LINE
8
BLACK
6
CONTINUOUS
10
1.125
20
1.51
11
1.145
21
1.51
0
LINE
8
BLACK
6
CONTINUOUS
10
1.145
20
1.51
11
1.145
21
1.53191
0
LINE
8
BLACK
6
CONTINUOUS
10
1.145
20
1.53191
11
1.145
21
1.53191
0
LINE
8
BLACK
6
CONTINUOUS
10
1.145
20
1.53191
11
1.14474
21
1.53429
0
LINE
8
BLACK
6
CONTINUOUS
10
1.14474
20
1.53429
11
1.14273
21
1.53968
0
LINE
8
BLACK
6
CONTINUOUS
10
1.14273
20
1.53968
11
1.14273
21
1.53968
0
LINE
8
BLACK
6
CONTINUOUS
10
1.14273
20
1.53968
11
1.13929
21
1.54429
0
LINE
8
BLACK
6
CONTINUOUS
10
1.13929
20
1.54429
11
1.13468
21
1.54773
0
LINE
8
BLACK
6
CONTINUOUS
10
1.13468
20
1.54773
11
1.12929
21
1.54974
0
LINE
8
BLACK
6
CONTINUOUS
10
1.12929
20
1.54974
11
1.12691
21
1.55
0
LINE
8
BLACK
6
CONTINUOUS
10
1.12691
20
1.55
11
1.12691
21
1.55
0
LINE
8
BLACK
6
CONTINUOUS
10
1.12691
20
1.55
11
1.105
21
1.55
0
LINE
8
BLACK
6
CONTINUOUS
10
1.105
20
1.55
11
1.105
21
1.53
0
LINE
8
BLACK
6
CONTINUOUS
10
1.005
20
1.53
11
1.025
21
1.53
0
LINE
8
BLACK
6
CONTINUOUS
10
1.025
20
1.53
11
1.025
21
1.51
0
LINE
8
BLACK
6
CONTINUOUS
10
1.025
20
1.51
11
1.065
21
1.51
0
LINE
8
BLACK
6
CONTINUOUS
10
1.065
20
1.51
11
1.065
21
1.53
0
LINE
8
BLACK
6
CONTINUOUS
10
1.065
20
1.53
11
1.085
21
1.53
0
LINE
8
BLACK
6
CONTINUOUS
10
1.085
20
1.53
11
1.085
21
1.55
0
LINE
8
BLACK
6
CONTINUOUS
10
1.085
20
1.55
11
1.06309
21
1.55
0
LINE
8
BLACK
6
CONTINUOUS
10
1.06309
20
1.55
11
1.06309
21
1.55
0
LINE
8
BLACK
6
CONTINUOUS
10
1.06309
20
1.55
11
1.0607
21
1.54974
0
LINE
8
BLACK
6
CONTINUOUS
10
1.0607
20
1.54974
11
1.05532
21
1.54773
0
LINE
8
BLACK
6
CONTINUOUS
10
1.05532
20
1.54773
11
1.05532
21
1.54773
0
LINE
8
BLACK
6
CONTINUOUS
10
1.05532
20
1.54773
11
1.05071
21
1.54429
0
LINE
8
BLACK
6
CONTINUOUS
10
1.05071
20
1.54429
11
1.04897
21
1.54196
0
LINE
8
BLACK
6
CONTINUOUS
10
1.04897
20
1.54196
11
1.04673
21
1.54029
0
LINE
8
BLACK
6
CONTINUOUS
10
1.04673
20
1.54029
11
1.04395
21
1.54009
0
LINE
8
BLACK
6
CONTINUOUS
10
1.04395
20
1.54009
11
1.04149
21
1.54143
0
LINE
8
BLACK
6
CONTINUOUS
10
1.04149
20
1.54143
11
1.04103
21
1.54196
0
LINE
8
BLACK
6
CONTINUOUS
10
1.04103
20
1.54196
11
1.03929
21
1.54429
0
LINE
8
BLACK
6
CONTINUOUS
10
1.03929
20
1.54429
11
1.03468
21
1.54773
0
LINE
8
BLACK
6
CONTINUOUS
10
1.03468
20
1.54773
11
1.0293
21
1.54974
0
LINE
8
BLACK
6
CONTINUOUS
10
1.0293
20
1.54974
11
1.02691
21
1.55
0
LINE
8
BLACK
6
CONTINUOUS
10
1.02691
20
1.55
11
1.02691
21
1.55
0
LINE
8
BLACK
6
CONTINUOUS
10
1.02691
20
1.55
11
1.005
21
1.55
0
LINE
8
BLACK
6
CONTINUOUS
10
1.005
20
1.55
11
1.005
21
1.53
0
LINE
8
BLACK
6
CONTINUOUS
10
0.963087
20
1.55
11
0.960705
21
1.54974
0
LINE
8
BLACK
6
CONTINUOUS
10
0.960705
20
1.54974
11
0.955316
21
1.54773
0
LINE
8
BLACK
6
CONTINUOUS
10
0.955316
20
1.54773
11
0.955316
21
1.54773
0
LINE
8
BLACK
6
CONTINUOUS
10
0.955316
20
1.54773
11
0.950712
21
1.54429
0
LINE
8
BLACK
6
CONTINUOUS
10
0.950712
20
1.54429
11
0.947266
21
1.53968
0
LINE
8
BLACK
6
CONTINUOUS
10
0.947266
20
1.53968
11
0.947266
21
1.53968
0
LINE
8
BLACK
6
CONTINUOUS
10
0.947266
20
1.53968
11
0.945256
21
1.53429
0
LINE
8
BLACK
6
CONTINUOUS
10
0.945256
20
1.53429
11
0.945
21
1.53191
0
LINE
8
BLACK
6
CONTINUOUS
10
0.945
20
1.53191
11
0.945
21
1.51
0
LINE
8
BLACK
6
CONTINUOUS
10
0.945
20
1.51
11
0.965
21
1.51
0
LINE
8
BLACK
6
CONTINUOUS
10
0.965
20
1.51
11
0.965
21
1.53
0
LINE
8
BLACK
6
CONTINUOUS
10
0.965
20
1.53
11
0.985
21
1.53
0
LINE
8
BLACK
6
CONTINUOUS
10
0.985
20
1.53
11
0.985
21
1.55
0
LINE
8
BLACK
6
CONTINUOUS
10
0.985
20
1.55
11
0.963087
21
1.55
0
LINE
8
BLACK
6
CONTINUOUS
10
0.963087
20
1.55
11
0.963087
21
1.55
0
CIRCLE
8
BLACK
10
0.205
20
0.2
40
0.00688976
0
CIRCLE
8
BLACK
10
0.205
20
1.4
40
0.00688976
0
CIRCLE
8
BLACK
10
0.995
20
0.82
40
0.00688976
0
CIRCLE
8
BLACK
10
1.095
20
0.82
40
0.00688976
0
CIRCLE
8
BLACK
10
0.995
20
0.72
40
0.00688976
0
CIRCLE
8
BLACK
10
1.095
20
0.72
40
0.00688976
0
CIRCLE
8
BLACK
10
0.995
20
0.1
40
0.00688976
0
CIRCLE
8
BLACK
10
1.095
20
0.1
40
0.00688976
0
CIRCLE
8
BLACK
10
0.995
20
0.62
40
0.00688976
0
CIRCLE
8
BLACK
10
1.095
20
0.62
40
0.00688976
0
CIRCLE
8
BLACK
10
0.995
20
1.3
40
0.00688976
0
CIRCLE
8
BLACK
10
1.095
20
1.3
40
0.00688976
0
CIRCLE
8
BLACK
10
0.995
20
1.4
40
0.00688976
0
CIRCLE
8
BLACK
10
1.095
20
1.4
40
0.00688976
0
CIRCLE
8
BLACK
10
0.995
20
1.5
40
0.00688976
0
CIRCLE
8
BLACK
10
1.095
20
1.5
40
0.00688976
0
CIRCLE
8
BLACK
10
1.095
20
0.2
40
0.00688976
0
CIRCLE
8
BLACK
10
0.995
20
0.2
40
0.00688976
0
CIRCLE
8
BLACK
10
1.095
20
0.3
40
0.00688976
0
CIRCLE
8
BLACK
10
0.995
20
0.3
40
0.00688976
0
CIRCLE
8
BLACK
10
0.995
20
0.92
40
0.00688976
0
CIRCLE
8
BLACK
10
1.095
20
0.92
40
0.00688976
0
CIRCLE
8
BLACK
10
0.605
20
0.2
40
0.00688976
0
CIRCLE
8
BLACK
10
0.605
20
1.4
40
0.00688976
0
CIRCLE
8
BLACK
10
0.24
20
1.05
40
0.00787402
0
CIRCLE
8
BLACK
10
0.285
20
1.12
40
0.00787402
0
CIRCLE
8
BLACK
10
0.505
20
0.46
40
0.00787402
0
CIRCLE
8
BLACK
10
0.64
20
0.96
40
0.00787402
0
CIRCLE
8
BLACK
10
0.365
20
1.3
40
0.00787402
0
CIRCLE
8
BLACK
10
0.405
20
0.4
40
0.00787402
0
CIRCLE
8
BLACK
10
0.475
20
1.1
40
0.00787402
0
CIRCLE
8
BLACK
10
0.425
20
1.3
40
0.00787402
0
CIRCLE
8
BLACK
10
0.345
20
0.52
40
0.00787402
0
CIRCLE
8
BLACK
10
0.825
20
1.5
40
0.00787402
0
CIRCLE
8
BLACK
10
1.105
20
1.02
40
0.00787402
0
CIRCLE
8
BLACK
10
0.905
20
0.64
40
0.00787402
0
CIRCLE
8
BLACK
10
0.725
20
0.92
40
0.00787402
0
CIRCLE
8
BLACK
10
0.285
20
1.22
40
0.00787402
0
CIRCLE
8
BLACK
10
0.565
20
1.03
40
0.00787402
0
CIRCLE
8
BLACK
10
0.405
20
0.52
40
0.00787402
0
CIRCLE
8
BLACK
10
1.025
20
0.52
40
0.00787402
0
CIRCLE
8
BLACK
10
0.45
20
1.14
40
0.00787402
0
CIRCLE
8
BLACK
10
1.085
20
0.52
40
0.00787402
0
CIRCLE
8
BLACK
10
0.645
20
0.92
40
0.00787402
0
CIRCLE
8
BLACK
10
0.685
20
0.641122
40
0.00787402
0
CIRCLE
8
BLACK
10
1.025
20
1.02
40
0.00787402
0
CIRCLE
8
BLACK
10
0.905
20
0.52
40
0.00787402
0
CIRCLE
8
BLACK
10
0.285
20
1.16
40
0.00787402
0
CIRCLE
8
BLACK
10
0.905
20
0.58
40
0.00787402
0
CIRCLE
8
BLACK
10
0.805
20
0.78
40
0.00787402
0
CIRCLE
8
BLACK
10
1.105
20
1.08
40
0.00787402
0
CIRCLE
8
BLACK
10
0.965
20
0.52
40
0.00787402
0
CIRCLE
8
BLACK
10
0.645
20
0.88
40
0.00787402
0
CIRCLE
8
BLACK
10
0.285
20
0.4
40
0.00787402
0
CIRCLE
8
BLACK
10
0.225
20
0.4
40
0.00787402
0
CIRCLE
8
BLACK
10
0.24
20
1.095
40
0.00787402
0
CIRCLE
8
BLACK
10
0.345
20
0.4
40
0.00787402
0
CIRCLE
8
BLACK
10
0.905
20
1.5
40
0.00787402
0
CIRCLE
8
BLACK
10
0.49
20
1.14
40
0.00787402
0
CIRCLE
8
BLACK
10
1.025
20
1.08
40
0.00787402
0
CIRCLE
8
BLACK
10
0.465
20
0.4
40
0.00787402
0
CIRCLE
8
BLACK
10
0.525
20
0.4
40
0.00787402
0
CIRCLE
8
BLACK
10
0.285
20
1.08
40
0.00787402
0
CIRCLE
8
BLACK
10
1.105
20
1.16
40
0.00787402
0
CIRCLE
8
BLACK
10
1.105
20
1.22
40
0.00787402
0
CIRCLE
8
BLACK
10
1.025
20
1.22
40
0.00787402
0
CIRCLE
8
BLACK
10
0.765
20
1.42
40
0.00787402
0
CIRCLE
8
BLACK
10
0.285
20
1.045
40
0.00787402
0
CIRCLE
8
BLACK
10
0.765
20
1.36
40
0.00787402
0
CIRCLE
8
BLACK
10
0.765
20
1.28
40
0.00787402
0
CIRCLE
8
BLACK
10
1.025
20
1.16
40
0.00787402
0
CIRCLE
8
BLACK
10
0.785
20
0.92
40
0.00787402
0
CIRCLE
8
BLACK
10
0.765
20
1.5
40
0.00787402
0
CIRCLE
8
BLACK
10
0.505
20
0.98
40
0.00787402
0
CIRCLE
8
BLACK
10
0.585
20
0.82
40
0.00787402
0
CIRCLE
8
BLACK
10
0.305
20
0.62
40
0.00787402
0
CIRCLE
8
BLACK
10
0.705
20
0.56
40
0.00787402
0
CIRCLE
8
BLACK
10
0.565
20
0.72
40
0.00787402
0
CIRCLE
8
BLACK
10
0.705
20
0.8
40
0.00787402
0
CIRCLE
8
BLACK
10
0.645
20
0.64
40
0.00787402
  0
ENDSEC
  0
EOF
