<?xml version='1.0' encoding='ASCII' standalone='yes'?>
<svg xmlns:svg="http://www.w3.org/2000/svg" xmlns="http://www.w3.org/2000/svg" xmlns:xlink="http://www.w3.org/1999/xlink" version="1.1" width="297.0022mm" height="210.0072mm" viewBox="0.0000 0.0000 297.0022 210.0072">
<title>SVG Image created as SIPM02-B_Fab.svg date 2023/07/20 11:52:53 </title>
  <desc>Image generated by PCBNEW </desc>
<g style="fill:#000084; fill-opacity:1.0000;stroke:#000084; stroke-opacity:1.0000; stroke-linecap:round; stroke-linejoin:round;" transform="translate(0 0) scale(1 1)">
</g>
<g style="fill:#000084; fill-opacity:0.0;  stroke:#000084; stroke-width:0.0000; stroke-opacity:1;  stroke-linecap:round; stroke-linejoin:round;">
</g>
<g style="fill:#000084; fill-opacity:0.01;  stroke:#000084; stroke-width:0.5694; stroke-opacity:1;  stroke-linecap:round; stroke-linejoin:round;">
<text x="153.4667" y="54.9965" transform="scale(-1 1) translate(-306.933430 0)" textLength="5.9947" font-size="3.4781" lengthAdjust="spacingAndGlyphs" text-anchor="middle" opacity="0.01" style="font-family:monospace">C5</text>
<g class="stroked-text"><desc>C5</desc>
<path d="M153.0320 54.6210 L152.9077 54.7452 "/>
<path d="M152.9077 54.7452 L152.5351 54.8694 "/>
<path d="M152.5351 54.8694 L152.2866 54.8694 "/>
<path d="M152.2866 54.8694 L151.9140 54.7452 "/>
<path d="M151.9140 54.7452 L151.6655 54.4967 "/>
<path d="M151.6655 54.4967 L151.5413 54.2483 "/>
<path d="M151.5413 54.2483 L151.4171 53.7514 "/>
<path d="M151.4171 53.7514 L151.4171 53.3788 "/>
<path d="M151.4171 53.3788 L151.5413 52.8819 "/>
<path d="M151.5413 52.8819 L151.6655 52.6335 "/>
<path d="M151.6655 52.6335 L151.9140 52.3850 "/>
<path d="M151.9140 52.3850 L152.2866 52.2608 "/>
<path d="M152.2866 52.2608 L152.5351 52.2608 "/>
<path d="M152.5351 52.2608 L152.9077 52.3850 "/>
<path d="M152.9077 52.3850 L153.0320 52.5092 "/>
<path d="M155.3921 52.2608 L154.1499 52.2608 "/>
<path d="M154.1499 52.2608 L154.0257 53.5030 "/>
<path d="M154.0257 53.5030 L154.1499 53.3788 "/>
<path d="M154.1499 53.3788 L154.3984 53.2546 "/>
<path d="M154.3984 53.2546 L155.0195 53.2546 "/>
<path d="M155.0195 53.2546 L155.2679 53.3788 "/>
<path d="M155.2679 53.3788 L155.3921 53.5030 "/>
<path d="M155.3921 53.5030 L155.5163 53.7514 "/>
<path d="M155.5163 53.7514 L155.5163 54.3725 "/>
<path d="M155.5163 54.3725 L155.3921 54.6210 "/>
<path d="M155.3921 54.6210 L155.2679 54.7452 "/>
<path d="M155.2679 54.7452 L155.0195 54.8694 "/>
<path d="M155.0195 54.8694 L154.3984 54.8694 "/>
<path d="M154.3984 54.8694 L154.1499 54.7452 "/>
<path d="M154.1499 54.7452 L154.0257 54.6210 "/>
</g><text x="152.8046" y="51.3551" transform="scale(-1 1) translate(-305.609266 0)" textLength="12.9510" font-size="3.4781" lengthAdjust="spacingAndGlyphs" text-anchor="middle" opacity="0.01" style="font-family:monospace">100nF</text>
<g class="stroked-text"><desc>100nF</desc>
<path d="M148.7675 51.2280 L147.2769 51.2280 "/>
<path d="M148.0222 51.2280 L148.0222 48.6193 "/>
<path d="M148.0222 48.6193 L147.7738 48.9920 "/>
<path d="M147.7738 48.9920 L147.5253 49.2404 "/>
<path d="M147.5253 49.2404 L147.2769 49.3647 "/>
<path d="M150.3824 48.6193 L150.6308 48.6193 "/>
<path d="M150.6308 48.6193 L150.8792 48.7436 "/>
<path d="M150.8792 48.7436 L151.0035 48.8678 "/>
<path d="M151.0035 48.8678 L151.1277 49.1162 "/>
<path d="M151.1277 49.1162 L151.2519 49.6131 "/>
<path d="M151.2519 49.6131 L151.2519 50.2342 "/>
<path d="M151.2519 50.2342 L151.1277 50.7311 "/>
<path d="M151.1277 50.7311 L151.0035 50.9795 "/>
<path d="M151.0035 50.9795 L150.8792 51.1037 "/>
<path d="M150.8792 51.1037 L150.6308 51.2280 "/>
<path d="M150.6308 51.2280 L150.3824 51.2280 "/>
<path d="M150.3824 51.2280 L150.1339 51.1037 "/>
<path d="M150.1339 51.1037 L150.0097 50.9795 "/>
<path d="M150.0097 50.9795 L149.8855 50.7311 "/>
<path d="M149.8855 50.7311 L149.7613 50.2342 "/>
<path d="M149.7613 50.2342 L149.7613 49.6131 "/>
<path d="M149.7613 49.6131 L149.8855 49.1162 "/>
<path d="M149.8855 49.1162 L150.0097 48.8678 "/>
<path d="M150.0097 48.8678 L150.1339 48.7436 "/>
<path d="M150.1339 48.7436 L150.3824 48.6193 "/>
<path d="M152.8667 48.6193 L153.1152 48.6193 "/>
<path d="M153.1152 48.6193 L153.3636 48.7436 "/>
<path d="M153.3636 48.7436 L153.4878 48.8678 "/>
<path d="M153.4878 48.8678 L153.6121 49.1162 "/>
<path d="M153.6121 49.1162 L153.7363 49.6131 "/>
<path d="M153.7363 49.6131 L153.7363 50.2342 "/>
<path d="M153.7363 50.2342 L153.6121 50.7311 "/>
<path d="M153.6121 50.7311 L153.4878 50.9795 "/>
<path d="M153.4878 50.9795 L153.3636 51.1037 "/>
<path d="M153.3636 51.1037 L153.1152 51.2280 "/>
<path d="M153.1152 51.2280 L152.8667 51.2280 "/>
<path d="M152.8667 51.2280 L152.6183 51.1037 "/>
<path d="M152.6183 51.1037 L152.4941 50.9795 "/>
<path d="M152.4941 50.9795 L152.3699 50.7311 "/>
<path d="M152.3699 50.7311 L152.2456 50.2342 "/>
<path d="M152.2456 50.2342 L152.2456 49.6131 "/>
<path d="M152.2456 49.6131 L152.3699 49.1162 "/>
<path d="M152.3699 49.1162 L152.4941 48.8678 "/>
<path d="M152.4941 48.8678 L152.6183 48.7436 "/>
<path d="M152.6183 48.7436 L152.8667 48.6193 "/>
<path d="M154.8543 49.4889 L154.8543 51.2280 "/>
<path d="M154.8543 49.7373 L154.9785 49.6131 "/>
<path d="M154.9785 49.6131 L155.2269 49.4889 "/>
<path d="M155.2269 49.4889 L155.5996 49.4889 "/>
<path d="M155.5996 49.4889 L155.8480 49.6131 "/>
<path d="M155.8480 49.6131 L155.9722 49.8615 "/>
<path d="M155.9722 49.8615 L155.9722 51.2280 "/>
<path d="M158.0840 49.8615 L157.2144 49.8615 "/>
<path d="M157.2144 51.2280 L157.2144 48.6193 "/>
<path d="M157.2144 48.6193 L158.4566 48.6193 "/>
</g><text x="130.2938" y="102.6665" transform="scale(-1 1) translate(-260.587668 0)" textLength="8.4791" font-size="3.4781" lengthAdjust="spacingAndGlyphs" text-anchor="middle" opacity="0.01" style="font-family:monospace">R10</text>
<g class="stroked-text"><desc>R10</desc>
<path d="M128.6169 102.5393 L127.7473 101.2971 "/>
<path d="M127.1262 102.5393 L127.1262 99.9307 "/>
<path d="M127.1262 99.9307 L128.1200 99.9307 "/>
<path d="M128.1200 99.9307 L128.3684 100.0549 "/>
<path d="M128.3684 100.0549 L128.4927 100.1792 "/>
<path d="M128.4927 100.1792 L128.6169 100.4276 "/>
<path d="M128.6169 100.4276 L128.6169 100.8003 "/>
<path d="M128.6169 100.8003 L128.4927 101.0487 "/>
<path d="M128.4927 101.0487 L128.3684 101.1729 "/>
<path d="M128.3684 101.1729 L128.1200 101.2971 "/>
<path d="M128.1200 101.2971 L127.1262 101.2971 "/>
<path d="M131.1013 102.5393 L129.6106 102.5393 "/>
<path d="M130.3559 102.5393 L130.3559 99.9307 "/>
<path d="M130.3559 99.9307 L130.1075 100.3034 "/>
<path d="M130.1075 100.3034 L129.8591 100.5518 "/>
<path d="M129.8591 100.5518 L129.6106 100.6760 "/>
<path d="M132.7161 99.9307 L132.9645 99.9307 "/>
<path d="M132.9645 99.9307 L133.2130 100.0549 "/>
<path d="M133.2130 100.0549 L133.3372 100.1792 "/>
<path d="M133.3372 100.1792 L133.4614 100.4276 "/>
<path d="M133.4614 100.4276 L133.5856 100.9245 "/>
<path d="M133.5856 100.9245 L133.5856 101.5456 "/>
<path d="M133.5856 101.5456 L133.4614 102.0425 "/>
<path d="M133.4614 102.0425 L133.3372 102.2909 "/>
<path d="M133.3372 102.2909 L133.2130 102.4151 "/>
<path d="M133.2130 102.4151 L132.9645 102.5393 "/>
<path d="M132.9645 102.5393 L132.7161 102.5393 "/>
<path d="M132.7161 102.5393 L132.4677 102.4151 "/>
<path d="M132.4677 102.4151 L132.3435 102.2909 "/>
<path d="M132.3435 102.2909 L132.2192 102.0425 "/>
<path d="M132.2192 102.0425 L132.0950 101.5456 "/>
<path d="M132.0950 101.5456 L132.0950 100.9245 "/>
<path d="M132.0950 100.9245 L132.2192 100.4276 "/>
<path d="M132.2192 100.4276 L132.3435 100.1792 "/>
<path d="M132.3435 100.1792 L132.4677 100.0549 "/>
<path d="M132.4677 100.0549 L132.7161 99.9307 "/>
</g><text x="129.6318" y="99.0250" transform="scale(-1 1) translate(-259.263503 0)" textLength="7.9823" font-size="3.4781" lengthAdjust="spacingAndGlyphs" text-anchor="middle" opacity="0.01" style="font-family:monospace">12k</text>
<g class="stroked-text"><desc>12k</desc>
<path d="M128.0790 98.8979 L126.5884 98.8979 "/>
<path d="M127.3337 98.8979 L127.3337 96.2893 "/>
<path d="M127.3337 96.2893 L127.0853 96.6619 "/>
<path d="M127.0853 96.6619 L126.8368 96.9104 "/>
<path d="M126.8368 96.9104 L126.5884 97.0346 "/>
<path d="M129.0728 96.5377 L129.1970 96.4135 "/>
<path d="M129.1970 96.4135 L129.4454 96.2893 "/>
<path d="M129.4454 96.2893 L130.0665 96.2893 "/>
<path d="M130.0665 96.2893 L130.3150 96.4135 "/>
<path d="M130.3150 96.4135 L130.4392 96.5377 "/>
<path d="M130.4392 96.5377 L130.5634 96.7862 "/>
<path d="M130.5634 96.7862 L130.5634 97.0346 "/>
<path d="M130.5634 97.0346 L130.4392 97.4073 "/>
<path d="M130.4392 97.4073 L128.9485 98.8979 "/>
<path d="M128.9485 98.8979 L130.5634 98.8979 "/>
<path d="M131.6814 98.8979 L131.6814 96.2893 "/>
<path d="M131.9298 97.9041 L132.6751 98.8979 "/>
<path d="M132.6751 97.1588 L131.6814 98.1526 "/>
</g><g transform="rotate(-90.000000 131.6180 155.6529)">
<text x="131.6180" y="156.9572" transform="scale(-1 1) translate(-263.235997 0)" textLength="5.9947" font-size="3.4781" lengthAdjust="spacingAndGlyphs" text-anchor="middle" opacity="0.01" style="font-family:monospace">R3</text>
</g>
<g class="stroked-text"><desc>R3</desc>
<path d="M130.4408 155.2181 L131.6830 154.3486 "/>
<path d="M130.4408 153.7275 L133.0494 153.7275 "/>
<path d="M133.0494 153.7275 L133.0494 154.7213 "/>
<path d="M133.0494 154.7213 L132.9252 154.9697 "/>
<path d="M132.9252 154.9697 L132.8010 155.0939 "/>
<path d="M132.8010 155.0939 L132.5525 155.2181 "/>
<path d="M132.5525 155.2181 L132.1799 155.2181 "/>
<path d="M132.1799 155.2181 L131.9315 155.0939 "/>
<path d="M131.9315 155.0939 L131.8072 154.9697 "/>
<path d="M131.8072 154.9697 L131.6830 154.7213 "/>
<path d="M131.6830 154.7213 L131.6830 153.7275 "/>
<path d="M133.0494 156.0877 L133.0494 157.7025 "/>
<path d="M133.0494 157.7025 L132.0557 156.8330 "/>
<path d="M132.0557 156.8330 L132.0557 157.2056 "/>
<path d="M132.0557 157.2056 L131.9315 157.4541 "/>
<path d="M131.9315 157.4541 L131.8072 157.5783 "/>
<path d="M131.8072 157.5783 L131.5588 157.7025 "/>
<path d="M131.5588 157.7025 L130.9377 157.7025 "/>
<path d="M130.9377 157.7025 L130.6893 157.5783 "/>
<path d="M130.6893 157.5783 L130.5650 157.4541 "/>
<path d="M130.5650 157.4541 L130.4408 157.2056 "/>
<path d="M130.4408 157.2056 L130.4408 156.4603 "/>
<path d="M130.4408 156.4603 L130.5650 156.2119 "/>
<path d="M130.5650 156.2119 L130.6893 156.0877 "/>
</g><g transform="rotate(-90.000000 127.9765 156.3150)">
<text x="127.9765" y="157.6193" transform="scale(-1 1) translate(-255.953092 0)" textLength="10.9635" font-size="3.4781" lengthAdjust="spacingAndGlyphs" text-anchor="middle" opacity="0.01" style="font-family:monospace">100R</text>
</g>
<g class="stroked-text"><desc>100R</desc>
<path d="M126.7994 153.2716 L126.7994 151.7810 "/>
<path d="M126.7994 152.5263 L129.4080 152.5263 "/>
<path d="M129.4080 152.5263 L129.0353 152.2779 "/>
<path d="M129.0353 152.2779 L128.7869 152.0294 "/>
<path d="M128.7869 152.0294 L128.6627 151.7810 "/>
<path d="M129.4080 154.8865 L129.4080 155.1349 "/>
<path d="M129.4080 155.1349 L129.2838 155.3833 "/>
<path d="M129.2838 155.3833 L129.1595 155.5076 "/>
<path d="M129.1595 155.5076 L128.9111 155.6318 "/>
<path d="M128.9111 155.6318 L128.4142 155.7560 "/>
<path d="M128.4142 155.7560 L127.7931 155.7560 "/>
<path d="M127.7931 155.7560 L127.2962 155.6318 "/>
<path d="M127.2962 155.6318 L127.0478 155.5076 "/>
<path d="M127.0478 155.5076 L126.9236 155.3833 "/>
<path d="M126.9236 155.3833 L126.7994 155.1349 "/>
<path d="M126.7994 155.1349 L126.7994 154.8865 "/>
<path d="M126.7994 154.8865 L126.9236 154.6380 "/>
<path d="M126.9236 154.6380 L127.0478 154.5138 "/>
<path d="M127.0478 154.5138 L127.2962 154.3896 "/>
<path d="M127.2962 154.3896 L127.7931 154.2654 "/>
<path d="M127.7931 154.2654 L128.4142 154.2654 "/>
<path d="M128.4142 154.2654 L128.9111 154.3896 "/>
<path d="M128.9111 154.3896 L129.1595 154.5138 "/>
<path d="M129.1595 154.5138 L129.2838 154.6380 "/>
<path d="M129.2838 154.6380 L129.4080 154.8865 "/>
<path d="M129.4080 157.3708 L129.4080 157.6193 "/>
<path d="M129.4080 157.6193 L129.2838 157.8677 "/>
<path d="M129.2838 157.8677 L129.1595 157.9919 "/>
<path d="M129.1595 157.9919 L128.9111 158.1162 "/>
<path d="M128.9111 158.1162 L128.4142 158.2404 "/>
<path d="M128.4142 158.2404 L127.7931 158.2404 "/>
<path d="M127.7931 158.2404 L127.2962 158.1162 "/>
<path d="M127.2962 158.1162 L127.0478 157.9919 "/>
<path d="M127.0478 157.9919 L126.9236 157.8677 "/>
<path d="M126.9236 157.8677 L126.7994 157.6193 "/>
<path d="M126.7994 157.6193 L126.7994 157.3708 "/>
<path d="M126.7994 157.3708 L126.9236 157.1224 "/>
<path d="M126.9236 157.1224 L127.0478 156.9982 "/>
<path d="M127.0478 156.9982 L127.2962 156.8740 "/>
<path d="M127.2962 156.8740 L127.7931 156.7498 "/>
<path d="M127.7931 156.7498 L128.4142 156.7498 "/>
<path d="M128.4142 156.7498 L128.9111 156.8740 "/>
<path d="M128.9111 156.8740 L129.1595 156.9982 "/>
<path d="M129.1595 156.9982 L129.2838 157.1224 "/>
<path d="M129.2838 157.1224 L129.4080 157.3708 "/>
<path d="M126.7994 160.8490 L128.0416 159.9795 "/>
<path d="M126.7994 159.3584 L129.4080 159.3584 "/>
<path d="M129.4080 159.3584 L129.4080 160.3521 "/>
<path d="M129.4080 160.3521 L129.2838 160.6005 "/>
<path d="M129.2838 160.6005 L129.1595 160.7248 "/>
<path d="M129.1595 160.7248 L128.9111 160.8490 "/>
<path d="M128.9111 160.8490 L128.5384 160.8490 "/>
<path d="M128.5384 160.8490 L128.2900 160.7248 "/>
<path d="M128.2900 160.7248 L128.1658 160.6005 "/>
<path d="M128.1658 160.6005 L128.0416 160.3521 "/>
<path d="M128.0416 160.3521 L128.0416 159.3584 "/>
</g><text x="145.5217" y="157.9503" transform="scale(-1 1) translate(-291.043455 0)" textLength="5.9947" font-size="3.4781" lengthAdjust="spacingAndGlyphs" text-anchor="middle" opacity="0.01" style="font-family:monospace">C4</text>
<g class="stroked-text"><desc>C4</desc>
<path d="M145.0870 157.5748 L144.9627 157.6990 "/>
<path d="M144.9627 157.6990 L144.5901 157.8232 "/>
<path d="M144.5901 157.8232 L144.3416 157.8232 "/>
<path d="M144.3416 157.8232 L143.9690 157.6990 "/>
<path d="M143.9690 157.6990 L143.7206 157.4505 "/>
<path d="M143.7206 157.4505 L143.5963 157.2021 "/>
<path d="M143.5963 157.2021 L143.4721 156.7052 "/>
<path d="M143.4721 156.7052 L143.4721 156.3326 "/>
<path d="M143.4721 156.3326 L143.5963 155.8357 "/>
<path d="M143.5963 155.8357 L143.7206 155.5873 "/>
<path d="M143.7206 155.5873 L143.9690 155.3388 "/>
<path d="M143.9690 155.3388 L144.3416 155.2146 "/>
<path d="M144.3416 155.2146 L144.5901 155.2146 "/>
<path d="M144.5901 155.2146 L144.9627 155.3388 "/>
<path d="M144.9627 155.3388 L145.0870 155.4630 "/>
<path d="M147.3229 156.0841 L147.3229 157.8232 "/>
<path d="M146.7018 155.0904 L146.0807 156.9537 "/>
<path d="M146.0807 156.9537 L147.6956 156.9537 "/>
</g><text x="146.1838" y="161.5918" transform="scale(-1 1) translate(-292.367619 0)" textLength="8.2307" font-size="3.4781" lengthAdjust="spacingAndGlyphs" text-anchor="middle" opacity="0.01" style="font-family:monospace">10u</text>
<g class="stroked-text"><desc>10u</desc>
<path d="M144.5069 161.4647 L143.0162 161.4647 "/>
<path d="M143.7615 161.4647 L143.7615 158.8561 "/>
<path d="M143.7615 158.8561 L143.5131 159.2287 "/>
<path d="M143.5131 159.2287 L143.2647 159.4771 "/>
<path d="M143.2647 159.4771 L143.0162 159.6014 "/>
<path d="M146.1217 158.8561 L146.3701 158.8561 "/>
<path d="M146.3701 158.8561 L146.6186 158.9803 "/>
<path d="M146.6186 158.9803 L146.7428 159.1045 "/>
<path d="M146.7428 159.1045 L146.8670 159.3529 "/>
<path d="M146.8670 159.3529 L146.9912 159.8498 "/>
<path d="M146.9912 159.8498 L146.9912 160.4709 "/>
<path d="M146.9912 160.4709 L146.8670 160.9678 "/>
<path d="M146.8670 160.9678 L146.7428 161.2162 "/>
<path d="M146.7428 161.2162 L146.6186 161.3404 "/>
<path d="M146.6186 161.3404 L146.3701 161.4647 "/>
<path d="M146.3701 161.4647 L146.1217 161.4647 "/>
<path d="M146.1217 161.4647 L145.8733 161.3404 "/>
<path d="M145.8733 161.3404 L145.7490 161.2162 "/>
<path d="M145.7490 161.2162 L145.6248 160.9678 "/>
<path d="M145.6248 160.9678 L145.5006 160.4709 "/>
<path d="M145.5006 160.4709 L145.5006 159.8498 "/>
<path d="M145.5006 159.8498 L145.6248 159.3529 "/>
<path d="M145.6248 159.3529 L145.7490 159.1045 "/>
<path d="M145.7490 159.1045 L145.8733 158.9803 "/>
<path d="M145.8733 158.9803 L146.1217 158.8561 "/>
<path d="M149.2272 159.7256 L149.2272 161.4647 "/>
<path d="M148.1092 159.7256 L148.1092 161.0920 "/>
<path d="M148.1092 161.0920 L148.2334 161.3404 "/>
<path d="M148.2334 161.3404 L148.4819 161.4647 "/>
<path d="M148.4819 161.4647 L148.8545 161.4647 "/>
<path d="M148.8545 161.4647 L149.1030 161.3404 "/>
<path d="M149.1030 161.3404 L149.2272 161.2162 "/>
</g></g>
<g style="fill:#000084; fill-opacity:0.0;  stroke:#000084; stroke-width:0.7820; stroke-opacity:1;  stroke-linecap:round; stroke-linejoin:round;">
<g transform="rotate(-90.000000 129.7543 187.1018)">
<text x="129.7543" y="189.7084" transform="scale(-1 1) translate(-259.508526 0)" textLength="11.0906" font-size="6.9510" lengthAdjust="spacingAndGlyphs" text-anchor="middle" opacity="0.01" style="font-family:monospace">D1</text>
</g>
<g class="stroked-text"><desc>D1</desc>
<path d="M127.3832 183.2539 L132.5964 183.2539 "/>
<path d="M132.5964 183.2539 L132.5964 184.4952 "/>
<path d="M132.5964 184.4952 L132.3482 185.2399 "/>
<path d="M132.3482 185.2399 L131.8517 185.7364 "/>
<path d="M131.8517 185.7364 L131.3552 185.9847 "/>
<path d="M131.3552 185.9847 L130.3622 186.2329 "/>
<path d="M130.3622 186.2329 L129.6174 186.2329 "/>
<path d="M129.6174 186.2329 L128.6244 185.9847 "/>
<path d="M128.6244 185.9847 L128.1279 185.7364 "/>
<path d="M128.1279 185.7364 L127.6314 185.2399 "/>
<path d="M127.6314 185.2399 L127.3832 184.4952 "/>
<path d="M127.3832 184.4952 L127.3832 183.2539 "/>
<path d="M127.3832 191.1979 L127.3832 188.2189 "/>
<path d="M127.3832 189.7084 L132.5964 189.7084 "/>
<path d="M132.5964 189.7084 L131.8517 189.2119 "/>
<path d="M131.8517 189.2119 L131.3552 188.7154 "/>
<path d="M131.3552 188.7154 L131.1069 188.2189 "/>
</g></g>
<g style="fill:#000084; fill-opacity:0.01;  stroke:#000084; stroke-width:0.5694; stroke-opacity:1;  stroke-linecap:round; stroke-linejoin:round;">
<text x="124.3351" y="145.0397" transform="scale(-1 1) translate(-248.670186 0)" textLength="5.9947" font-size="3.4781" lengthAdjust="spacingAndGlyphs" text-anchor="middle" opacity="0.01" style="font-family:monospace">C7</text>
<g class="stroked-text"><desc>C7</desc>
<path d="M123.9003 144.6642 L123.7761 144.7884 "/>
<path d="M123.7761 144.7884 L123.4035 144.9126 "/>
<path d="M123.4035 144.9126 L123.1550 144.9126 "/>
<path d="M123.1550 144.9126 L122.7824 144.7884 "/>
<path d="M122.7824 144.7884 L122.5339 144.5399 "/>
<path d="M122.5339 144.5399 L122.4097 144.2915 "/>
<path d="M122.4097 144.2915 L122.2855 143.7946 "/>
<path d="M122.2855 143.7946 L122.2855 143.4220 "/>
<path d="M122.2855 143.4220 L122.4097 142.9251 "/>
<path d="M122.4097 142.9251 L122.5339 142.6767 "/>
<path d="M122.5339 142.6767 L122.7824 142.4282 "/>
<path d="M122.7824 142.4282 L123.1550 142.3040 "/>
<path d="M123.1550 142.3040 L123.4035 142.3040 "/>
<path d="M123.4035 142.3040 L123.7761 142.4282 "/>
<path d="M123.7761 142.4282 L123.9003 142.5524 "/>
<path d="M124.7699 142.3040 L126.5089 142.3040 "/>
<path d="M126.5089 142.3040 L125.3910 144.9126 "/>
</g><text x="123.6730" y="141.3983" transform="scale(-1 1) translate(-247.346022 0)" textLength="8.2307" font-size="3.4781" lengthAdjust="spacingAndGlyphs" text-anchor="middle" opacity="0.01" style="font-family:monospace">10u</text>
<g class="stroked-text"><desc>10u</desc>
<path d="M121.9961 141.2711 L120.5054 141.2711 "/>
<path d="M121.2507 141.2711 L121.2507 138.6625 "/>
<path d="M121.2507 138.6625 L121.0023 139.0352 "/>
<path d="M121.0023 139.0352 L120.7539 139.2836 "/>
<path d="M120.7539 139.2836 L120.5054 139.4079 "/>
<path d="M123.6109 138.6625 L123.8593 138.6625 "/>
<path d="M123.8593 138.6625 L124.1078 138.7868 "/>
<path d="M124.1078 138.7868 L124.2320 138.9110 "/>
<path d="M124.2320 138.9110 L124.3562 139.1594 "/>
<path d="M124.3562 139.1594 L124.4804 139.6563 "/>
<path d="M124.4804 139.6563 L124.4804 140.2774 "/>
<path d="M124.4804 140.2774 L124.3562 140.7743 "/>
<path d="M124.3562 140.7743 L124.2320 141.0227 "/>
<path d="M124.2320 141.0227 L124.1078 141.1469 "/>
<path d="M124.1078 141.1469 L123.8593 141.2711 "/>
<path d="M123.8593 141.2711 L123.6109 141.2711 "/>
<path d="M123.6109 141.2711 L123.3625 141.1469 "/>
<path d="M123.3625 141.1469 L123.2382 141.0227 "/>
<path d="M123.2382 141.0227 L123.1140 140.7743 "/>
<path d="M123.1140 140.7743 L122.9898 140.2774 "/>
<path d="M122.9898 140.2774 L122.9898 139.6563 "/>
<path d="M122.9898 139.6563 L123.1140 139.1594 "/>
<path d="M123.1140 139.1594 L123.2382 138.9110 "/>
<path d="M123.2382 138.9110 L123.3625 138.7868 "/>
<path d="M123.3625 138.7868 L123.6109 138.6625 "/>
<path d="M126.7164 139.5321 L126.7164 141.2711 "/>
<path d="M125.5984 139.5321 L125.5984 140.8985 "/>
<path d="M125.5984 140.8985 L125.7226 141.1469 "/>
<path d="M125.7226 141.1469 L125.9711 141.2711 "/>
<path d="M125.9711 141.2711 L126.3437 141.2711 "/>
<path d="M126.3437 141.2711 L126.5922 141.1469 "/>
<path d="M126.5922 141.1469 L126.7164 141.0227 "/>
</g></g>
<g style="fill:#000084; fill-opacity:0.01;  stroke:#000084; stroke-width:1.5640; stroke-opacity:1;  stroke-linecap:round; stroke-linejoin:round;">
<text x="97.6532" y="159.2944" transform="scale(-1 1) translate(-195.306351 0)" textLength="17.8326" font-size="10.5933" lengthAdjust="spacingAndGlyphs" text-anchor="middle" opacity="0.01" style="font-family:monospace">C3</text>
<g class="stroked-text"><desc>C3</desc>
<path d="M96.3290 158.1594 L95.9507 158.5377 "/>
<path d="M95.9507 158.5377 L94.8157 158.9160 "/>
<path d="M94.8157 158.9160 L94.0590 158.9160 "/>
<path d="M94.0590 158.9160 L92.9240 158.5377 "/>
<path d="M92.9240 158.5377 L92.1674 157.7810 "/>
<path d="M92.1674 157.7810 L91.7890 157.0244 "/>
<path d="M91.7890 157.0244 L91.4107 155.5110 "/>
<path d="M91.4107 155.5110 L91.4107 154.3760 "/>
<path d="M91.4107 154.3760 L91.7890 152.8627 "/>
<path d="M91.7890 152.8627 L92.1674 152.1060 "/>
<path d="M92.1674 152.1060 L92.9240 151.3494 "/>
<path d="M92.9240 151.3494 L94.0590 150.9710 "/>
<path d="M94.0590 150.9710 L94.8157 150.9710 "/>
<path d="M94.8157 150.9710 L95.9507 151.3494 "/>
<path d="M95.9507 151.3494 L96.3290 151.7277 "/>
<path d="M98.9773 150.9710 L103.8957 150.9710 "/>
<path d="M103.8957 150.9710 L101.2473 153.9977 "/>
<path d="M101.2473 153.9977 L102.3823 153.9977 "/>
<path d="M102.3823 153.9977 L103.1390 154.3760 "/>
<path d="M103.1390 154.3760 L103.5173 154.7544 "/>
<path d="M103.5173 154.7544 L103.8957 155.5110 "/>
<path d="M103.8957 155.5110 L103.8957 157.4027 "/>
<path d="M103.8957 157.4027 L103.5173 158.1594 "/>
<path d="M103.5173 158.1594 L103.1390 158.5377 "/>
<path d="M103.1390 158.5377 L102.3823 158.9160 "/>
<path d="M102.3823 158.9160 L100.1123 158.9160 "/>
<path d="M100.1123 158.9160 L99.3557 158.5377 "/>
<path d="M99.3557 158.5377 L98.9773 158.1594 "/>
</g></g>
<g style="fill:#000084; fill-opacity:0.01;  stroke:#000084; stroke-width:0.7820; stroke-opacity:1;  stroke-linecap:round; stroke-linejoin:round;">
<text x="125.3282" y="171.1493" transform="scale(-1 1) translate(-250.656433 0)" textLength="10.0727" font-size="10.4265" lengthAdjust="spacingAndGlyphs" text-anchor="middle" opacity="0.01" style="font-family:monospace">+</text>
<g class="stroked-text"><desc>+</desc>
<path d="M122.3492 167.8373 L128.3072 167.8373 "/>
<path d="M125.3282 170.8163 L125.3282 164.8583 "/>
</g></g>
<g style="fill:#000084; fill-opacity:0.01;  stroke:#000084; stroke-width:0.5694; stroke-opacity:1;  stroke-linecap:round; stroke-linejoin:round;">
<text x="124.3351" y="134.4464" transform="scale(-1 1) translate(-248.670186 0)" textLength="5.9947" font-size="3.4781" lengthAdjust="spacingAndGlyphs" text-anchor="middle" opacity="0.01" style="font-family:monospace">C8</text>
<g class="stroked-text"><desc>C8</desc>
<path d="M123.9003 134.0708 L123.7761 134.1951 "/>
<path d="M123.7761 134.1951 L123.4035 134.3193 "/>
<path d="M123.4035 134.3193 L123.1550 134.3193 "/>
<path d="M123.1550 134.3193 L122.7824 134.1951 "/>
<path d="M122.7824 134.1951 L122.5339 133.9466 "/>
<path d="M122.5339 133.9466 L122.4097 133.6982 "/>
<path d="M122.4097 133.6982 L122.2855 133.2013 "/>
<path d="M122.2855 133.2013 L122.2855 132.8287 "/>
<path d="M122.2855 132.8287 L122.4097 132.3318 "/>
<path d="M122.4097 132.3318 L122.5339 132.0833 "/>
<path d="M122.5339 132.0833 L122.7824 131.8349 "/>
<path d="M122.7824 131.8349 L123.1550 131.7107 "/>
<path d="M123.1550 131.7107 L123.4035 131.7107 "/>
<path d="M123.4035 131.7107 L123.7761 131.8349 "/>
<path d="M123.7761 131.8349 L123.9003 131.9591 "/>
<path d="M125.3910 132.8287 L125.1425 132.7044 "/>
<path d="M125.1425 132.7044 L125.0183 132.5802 "/>
<path d="M125.0183 132.5802 L124.8941 132.3318 "/>
<path d="M124.8941 132.3318 L124.8941 132.2076 "/>
<path d="M124.8941 132.2076 L125.0183 131.9591 "/>
<path d="M125.0183 131.9591 L125.1425 131.8349 "/>
<path d="M125.1425 131.8349 L125.3910 131.7107 "/>
<path d="M125.3910 131.7107 L125.8878 131.7107 "/>
<path d="M125.8878 131.7107 L126.1363 131.8349 "/>
<path d="M126.1363 131.8349 L126.2605 131.9591 "/>
<path d="M126.2605 131.9591 L126.3847 132.2076 "/>
<path d="M126.3847 132.2076 L126.3847 132.3318 "/>
<path d="M126.3847 132.3318 L126.2605 132.5802 "/>
<path d="M126.2605 132.5802 L126.1363 132.7044 "/>
<path d="M126.1363 132.7044 L125.8878 132.8287 "/>
<path d="M125.8878 132.8287 L125.3910 132.8287 "/>
<path d="M125.3910 132.8287 L125.1425 132.9529 "/>
<path d="M125.1425 132.9529 L125.0183 133.0771 "/>
<path d="M125.0183 133.0771 L124.8941 133.3255 "/>
<path d="M124.8941 133.3255 L124.8941 133.8224 "/>
<path d="M124.8941 133.8224 L125.0183 134.0708 "/>
<path d="M125.0183 134.0708 L125.1425 134.1951 "/>
<path d="M125.1425 134.1951 L125.3910 134.3193 "/>
<path d="M125.3910 134.3193 L125.8878 134.3193 "/>
<path d="M125.8878 134.3193 L126.1363 134.1951 "/>
<path d="M126.1363 134.1951 L126.2605 134.0708 "/>
<path d="M126.2605 134.0708 L126.3847 133.8224 "/>
<path d="M126.3847 133.8224 L126.3847 133.3255 "/>
<path d="M126.3847 133.3255 L126.2605 133.0771 "/>
<path d="M126.2605 133.0771 L126.1363 132.9529 "/>
<path d="M126.1363 132.9529 L125.8878 132.8287 "/>
</g><text x="123.6730" y="130.8050" transform="scale(-1 1) translate(-247.346022 0)" textLength="12.9510" font-size="3.4781" lengthAdjust="spacingAndGlyphs" text-anchor="middle" opacity="0.01" style="font-family:monospace">100nF</text>
<g class="stroked-text"><desc>100nF</desc>
<path d="M119.6359 130.6778 L118.1453 130.6778 "/>
<path d="M118.8906 130.6778 L118.8906 128.0692 "/>
<path d="M118.8906 128.0692 L118.6421 128.4419 "/>
<path d="M118.6421 128.4419 L118.3937 128.6903 "/>
<path d="M118.3937 128.6903 L118.1453 128.8145 "/>
<path d="M121.2507 128.0692 L121.4992 128.0692 "/>
<path d="M121.4992 128.0692 L121.7476 128.1934 "/>
<path d="M121.7476 128.1934 L121.8718 128.3177 "/>
<path d="M121.8718 128.3177 L121.9961 128.5661 "/>
<path d="M121.9961 128.5661 L122.1203 129.0630 "/>
<path d="M122.1203 129.0630 L122.1203 129.6841 "/>
<path d="M122.1203 129.6841 L121.9961 130.1810 "/>
<path d="M121.9961 130.1810 L121.8718 130.4294 "/>
<path d="M121.8718 130.4294 L121.7476 130.5536 "/>
<path d="M121.7476 130.5536 L121.4992 130.6778 "/>
<path d="M121.4992 130.6778 L121.2507 130.6778 "/>
<path d="M121.2507 130.6778 L121.0023 130.5536 "/>
<path d="M121.0023 130.5536 L120.8781 130.4294 "/>
<path d="M120.8781 130.4294 L120.7539 130.1810 "/>
<path d="M120.7539 130.1810 L120.6296 129.6841 "/>
<path d="M120.6296 129.6841 L120.6296 129.0630 "/>
<path d="M120.6296 129.0630 L120.7539 128.5661 "/>
<path d="M120.7539 128.5661 L120.8781 128.3177 "/>
<path d="M120.8781 128.3177 L121.0023 128.1934 "/>
<path d="M121.0023 128.1934 L121.2507 128.0692 "/>
<path d="M123.7351 128.0692 L123.9836 128.0692 "/>
<path d="M123.9836 128.0692 L124.2320 128.1934 "/>
<path d="M124.2320 128.1934 L124.3562 128.3177 "/>
<path d="M124.3562 128.3177 L124.4804 128.5661 "/>
<path d="M124.4804 128.5661 L124.6047 129.0630 "/>
<path d="M124.6047 129.0630 L124.6047 129.6841 "/>
<path d="M124.6047 129.6841 L124.4804 130.1810 "/>
<path d="M124.4804 130.1810 L124.3562 130.4294 "/>
<path d="M124.3562 130.4294 L124.2320 130.5536 "/>
<path d="M124.2320 130.5536 L123.9836 130.6778 "/>
<path d="M123.9836 130.6778 L123.7351 130.6778 "/>
<path d="M123.7351 130.6778 L123.4867 130.5536 "/>
<path d="M123.4867 130.5536 L123.3625 130.4294 "/>
<path d="M123.3625 130.4294 L123.2382 130.1810 "/>
<path d="M123.2382 130.1810 L123.1140 129.6841 "/>
<path d="M123.1140 129.6841 L123.1140 129.0630 "/>
<path d="M123.1140 129.0630 L123.2382 128.5661 "/>
<path d="M123.2382 128.5661 L123.3625 128.3177 "/>
<path d="M123.3625 128.3177 L123.4867 128.1934 "/>
<path d="M123.4867 128.1934 L123.7351 128.0692 "/>
<path d="M125.7226 128.9388 L125.7226 130.6778 "/>
<path d="M125.7226 129.1872 L125.8468 129.0630 "/>
<path d="M125.8468 129.0630 L126.0953 128.9388 "/>
<path d="M126.0953 128.9388 L126.4679 128.9388 "/>
<path d="M126.4679 128.9388 L126.7164 129.0630 "/>
<path d="M126.7164 129.0630 L126.8406 129.3114 "/>
<path d="M126.8406 129.3114 L126.8406 130.6778 "/>
<path d="M128.9523 129.3114 L128.0828 129.3114 "/>
<path d="M128.0828 130.6778 L128.0828 128.0692 "/>
<path d="M128.0828 128.0692 L129.3250 128.0692 "/>
</g><text x="153.7978" y="70.8865" transform="scale(-1 1) translate(-307.595513 0)" textLength="5.9947" font-size="3.4781" lengthAdjust="spacingAndGlyphs" text-anchor="middle" opacity="0.01" style="font-family:monospace">R2</text>
<g class="stroked-text"><desc>R2</desc>
<path d="M153.3630 70.7594 L152.4935 69.5172 "/>
<path d="M151.8724 70.7594 L151.8724 68.1508 "/>
<path d="M151.8724 68.1508 L152.8661 68.1508 "/>
<path d="M152.8661 68.1508 L153.1146 68.2750 "/>
<path d="M153.1146 68.2750 L153.2388 68.3992 "/>
<path d="M153.2388 68.3992 L153.3630 68.6477 "/>
<path d="M153.3630 68.6477 L153.3630 69.0203 "/>
<path d="M153.3630 69.0203 L153.2388 69.2688 "/>
<path d="M153.2388 69.2688 L153.1146 69.3930 "/>
<path d="M153.1146 69.3930 L152.8661 69.5172 "/>
<path d="M152.8661 69.5172 L151.8724 69.5172 "/>
<path d="M154.3567 68.3992 L154.4810 68.2750 "/>
<path d="M154.4810 68.2750 L154.7294 68.1508 "/>
<path d="M154.7294 68.1508 L155.3505 68.1508 "/>
<path d="M155.3505 68.1508 L155.5989 68.2750 "/>
<path d="M155.5989 68.2750 L155.7232 68.3992 "/>
<path d="M155.7232 68.3992 L155.8474 68.6477 "/>
<path d="M155.8474 68.6477 L155.8474 68.8961 "/>
<path d="M155.8474 68.8961 L155.7232 69.2688 "/>
<path d="M155.7232 69.2688 L154.2325 70.7594 "/>
<path d="M154.2325 70.7594 L155.8474 70.7594 "/>
</g><text x="153.1357" y="67.2450" transform="scale(-1 1) translate(-306.271348 0)" textLength="8.4791" font-size="3.4781" lengthAdjust="spacingAndGlyphs" text-anchor="middle" opacity="0.01" style="font-family:monospace">10R</text>
<g class="stroked-text"><desc>10R</desc>
<path d="M151.3345 67.1179 L149.8439 67.1179 "/>
<path d="M150.5892 67.1179 L150.5892 64.5093 "/>
<path d="M150.5892 64.5093 L150.3407 64.8820 "/>
<path d="M150.3407 64.8820 L150.0923 65.1304 "/>
<path d="M150.0923 65.1304 L149.8439 65.2546 "/>
<path d="M152.9493 64.5093 L153.1978 64.5093 "/>
<path d="M153.1978 64.5093 L153.4462 64.6335 "/>
<path d="M153.4462 64.6335 L153.5704 64.7578 "/>
<path d="M153.5704 64.7578 L153.6947 65.0062 "/>
<path d="M153.6947 65.0062 L153.8189 65.5031 "/>
<path d="M153.8189 65.5031 L153.8189 66.1242 "/>
<path d="M153.8189 66.1242 L153.6947 66.6211 "/>
<path d="M153.6947 66.6211 L153.5704 66.8695 "/>
<path d="M153.5704 66.8695 L153.4462 66.9937 "/>
<path d="M153.4462 66.9937 L153.1978 67.1179 "/>
<path d="M153.1978 67.1179 L152.9493 67.1179 "/>
<path d="M152.9493 67.1179 L152.7009 66.9937 "/>
<path d="M152.7009 66.9937 L152.5767 66.8695 "/>
<path d="M152.5767 66.8695 L152.4525 66.6211 "/>
<path d="M152.4525 66.6211 L152.3283 66.1242 "/>
<path d="M152.3283 66.1242 L152.3283 65.5031 "/>
<path d="M152.3283 65.5031 L152.4525 65.0062 "/>
<path d="M152.4525 65.0062 L152.5767 64.7578 "/>
<path d="M152.5767 64.7578 L152.7009 64.6335 "/>
<path d="M152.7009 64.6335 L152.9493 64.5093 "/>
<path d="M156.4275 67.1179 L155.5580 65.8757 "/>
<path d="M154.9369 67.1179 L154.9369 64.5093 "/>
<path d="M154.9369 64.5093 L155.9306 64.5093 "/>
<path d="M155.9306 64.5093 L156.1790 64.6335 "/>
<path d="M156.1790 64.6335 L156.3033 64.7578 "/>
<path d="M156.3033 64.7578 L156.4275 65.0062 "/>
<path d="M156.4275 65.0062 L156.4275 65.3789 "/>
<path d="M156.4275 65.3789 L156.3033 65.6273 "/>
<path d="M156.3033 65.6273 L156.1790 65.7515 "/>
<path d="M156.1790 65.7515 L155.9306 65.8757 "/>
<path d="M155.9306 65.8757 L154.9369 65.8757 "/>
</g><text x="177.9638" y="67.5761" transform="scale(-1 1) translate(-355.927522 0)" textLength="5.9947" font-size="3.4781" lengthAdjust="spacingAndGlyphs" text-anchor="middle" opacity="0.01" style="font-family:monospace">C6</text>
<g class="stroked-text"><desc>C6</desc>
<path d="M177.5290 67.2005 L177.4048 67.3247 "/>
<path d="M177.4048 67.3247 L177.0321 67.4490 "/>
<path d="M177.0321 67.4490 L176.7837 67.4490 "/>
<path d="M176.7837 67.4490 L176.4110 67.3247 "/>
<path d="M176.4110 67.3247 L176.1626 67.0763 "/>
<path d="M176.1626 67.0763 L176.0384 66.8279 "/>
<path d="M176.0384 66.8279 L175.9141 66.3310 "/>
<path d="M175.9141 66.3310 L175.9141 65.9583 "/>
<path d="M175.9141 65.9583 L176.0384 65.4615 "/>
<path d="M176.0384 65.4615 L176.1626 65.2130 "/>
<path d="M176.1626 65.2130 L176.4110 64.9646 "/>
<path d="M176.4110 64.9646 L176.7837 64.8404 "/>
<path d="M176.7837 64.8404 L177.0321 64.8404 "/>
<path d="M177.0321 64.8404 L177.4048 64.9646 "/>
<path d="M177.4048 64.9646 L177.5290 65.0888 "/>
<path d="M179.7649 64.8404 L179.2681 64.8404 "/>
<path d="M179.2681 64.8404 L179.0196 64.9646 "/>
<path d="M179.0196 64.9646 L178.8954 65.0888 "/>
<path d="M178.8954 65.0888 L178.6470 65.4615 "/>
<path d="M178.6470 65.4615 L178.5228 65.9583 "/>
<path d="M178.5228 65.9583 L178.5228 66.9521 "/>
<path d="M178.5228 66.9521 L178.6470 67.2005 "/>
<path d="M178.6470 67.2005 L178.7712 67.3247 "/>
<path d="M178.7712 67.3247 L179.0196 67.4490 "/>
<path d="M179.0196 67.4490 L179.5165 67.4490 "/>
<path d="M179.5165 67.4490 L179.7649 67.3247 "/>
<path d="M179.7649 67.3247 L179.8892 67.2005 "/>
<path d="M179.8892 67.2005 L180.0134 66.9521 "/>
<path d="M180.0134 66.9521 L180.0134 66.3310 "/>
<path d="M180.0134 66.3310 L179.8892 66.0826 "/>
<path d="M179.8892 66.0826 L179.7649 65.9583 "/>
<path d="M179.7649 65.9583 L179.5165 65.8341 "/>
<path d="M179.5165 65.8341 L179.0196 65.8341 "/>
<path d="M179.0196 65.8341 L178.7712 65.9583 "/>
<path d="M178.7712 65.9583 L178.6470 66.0826 "/>
<path d="M178.6470 66.0826 L178.5228 66.3310 "/>
</g><text x="178.6258" y="71.2175" transform="scale(-1 1) translate(-357.251687 0)" textLength="12.9510" font-size="3.4781" lengthAdjust="spacingAndGlyphs" text-anchor="middle" opacity="0.01" style="font-family:monospace">100nF</text>
<g class="stroked-text"><desc>100nF</desc>
<path d="M174.5887 71.0904 L173.0981 71.0904 "/>
<path d="M173.8434 71.0904 L173.8434 68.4818 "/>
<path d="M173.8434 68.4818 L173.5950 68.8545 "/>
<path d="M173.5950 68.8545 L173.3465 69.1029 "/>
<path d="M173.3465 69.1029 L173.0981 69.2271 "/>
<path d="M176.2036 68.4818 L176.4520 68.4818 "/>
<path d="M176.4520 68.4818 L176.7005 68.6060 "/>
<path d="M176.7005 68.6060 L176.8247 68.7303 "/>
<path d="M176.8247 68.7303 L176.9489 68.9787 "/>
<path d="M176.9489 68.9787 L177.0731 69.4756 "/>
<path d="M177.0731 69.4756 L177.0731 70.0967 "/>
<path d="M177.0731 70.0967 L176.9489 70.5935 "/>
<path d="M176.9489 70.5935 L176.8247 70.8420 "/>
<path d="M176.8247 70.8420 L176.7005 70.9662 "/>
<path d="M176.7005 70.9662 L176.4520 71.0904 "/>
<path d="M176.4520 71.0904 L176.2036 71.0904 "/>
<path d="M176.2036 71.0904 L175.9551 70.9662 "/>
<path d="M175.9551 70.9662 L175.8309 70.8420 "/>
<path d="M175.8309 70.8420 L175.7067 70.5935 "/>
<path d="M175.7067 70.5935 L175.5825 70.0967 "/>
<path d="M175.5825 70.0967 L175.5825 69.4756 "/>
<path d="M175.5825 69.4756 L175.7067 68.9787 "/>
<path d="M175.7067 68.9787 L175.8309 68.7303 "/>
<path d="M175.8309 68.7303 L175.9551 68.6060 "/>
<path d="M175.9551 68.6060 L176.2036 68.4818 "/>
<path d="M178.6880 68.4818 L178.9364 68.4818 "/>
<path d="M178.9364 68.4818 L179.1848 68.6060 "/>
<path d="M179.1848 68.6060 L179.3090 68.7303 "/>
<path d="M179.3090 68.7303 L179.4333 68.9787 "/>
<path d="M179.4333 68.9787 L179.5575 69.4756 "/>
<path d="M179.5575 69.4756 L179.5575 70.0967 "/>
<path d="M179.5575 70.0967 L179.4333 70.5935 "/>
<path d="M179.4333 70.5935 L179.3090 70.8420 "/>
<path d="M179.3090 70.8420 L179.1848 70.9662 "/>
<path d="M179.1848 70.9662 L178.9364 71.0904 "/>
<path d="M178.9364 71.0904 L178.6880 71.0904 "/>
<path d="M178.6880 71.0904 L178.4395 70.9662 "/>
<path d="M178.4395 70.9662 L178.3153 70.8420 "/>
<path d="M178.3153 70.8420 L178.1911 70.5935 "/>
<path d="M178.1911 70.5935 L178.0669 70.0967 "/>
<path d="M178.0669 70.0967 L178.0669 69.4756 "/>
<path d="M178.0669 69.4756 L178.1911 68.9787 "/>
<path d="M178.1911 68.9787 L178.3153 68.7303 "/>
<path d="M178.3153 68.7303 L178.4395 68.6060 "/>
<path d="M178.4395 68.6060 L178.6880 68.4818 "/>
<path d="M180.6755 69.3514 L180.6755 71.0904 "/>
<path d="M180.6755 69.5998 L180.7997 69.4756 "/>
<path d="M180.7997 69.4756 L181.0481 69.3514 "/>
<path d="M181.0481 69.3514 L181.4208 69.3514 "/>
<path d="M181.4208 69.3514 L181.6692 69.4756 "/>
<path d="M181.6692 69.4756 L181.7934 69.7240 "/>
<path d="M181.7934 69.7240 L181.7934 71.0904 "/>
<path d="M183.9052 69.7240 L183.0356 69.7240 "/>
<path d="M183.0356 71.0904 L183.0356 68.4818 "/>
<path d="M183.0356 68.4818 L184.2778 68.4818 "/>
</g></g>
<g style="fill:#000084; fill-opacity:0.01;  stroke:#000084; stroke-width:0.7820; stroke-opacity:1;  stroke-linecap:round; stroke-linejoin:round;">
<text x="96.0112" y="45.2742" transform="scale(-1 1) translate(-192.022423 0)" textLength="10.0727" font-size="10.4265" lengthAdjust="spacingAndGlyphs" text-anchor="middle" opacity="0.01" style="font-family:monospace">+</text>
<g class="stroked-text"><desc>+</desc>
<path d="M93.0322 41.9622 L98.9902 41.9622 "/>
<path d="M96.0112 44.9412 L96.0112 38.9832 "/>
</g></g>
<g style="fill:#000084; fill-opacity:0.01;  stroke:#000084; stroke-width:1.5640; stroke-opacity:1;  stroke-linecap:round; stroke-linejoin:round;">
<text x="122.6269" y="58.5784" transform="scale(-1 1) translate(-245.253841 0)" textLength="17.8326" font-size="10.5933" lengthAdjust="spacingAndGlyphs" text-anchor="middle" opacity="0.01" style="font-family:monospace">C1</text>
<g class="stroked-text"><desc>C1</desc>
<path d="M121.3028 57.4434 L120.9244 57.8217 "/>
<path d="M120.9244 57.8217 L119.7894 58.2001 "/>
<path d="M119.7894 58.2001 L119.0328 58.2001 "/>
<path d="M119.0328 58.2001 L117.8978 57.8217 "/>
<path d="M117.8978 57.8217 L117.1411 57.0651 "/>
<path d="M117.1411 57.0651 L116.7628 56.3084 "/>
<path d="M116.7628 56.3084 L116.3844 54.7951 "/>
<path d="M116.3844 54.7951 L116.3844 53.6601 "/>
<path d="M116.3844 53.6601 L116.7628 52.1468 "/>
<path d="M116.7628 52.1468 L117.1411 51.3901 "/>
<path d="M117.1411 51.3901 L117.8978 50.6334 "/>
<path d="M117.8978 50.6334 L119.0328 50.2551 "/>
<path d="M119.0328 50.2551 L119.7894 50.2551 "/>
<path d="M119.7894 50.2551 L120.9244 50.6334 "/>
<path d="M120.9244 50.6334 L121.3028 51.0118 "/>
<path d="M128.8694 58.2001 L124.3294 58.2001 "/>
<path d="M126.5994 58.2001 L126.5994 50.2551 "/>
<path d="M126.5994 50.2551 L125.8428 51.3901 "/>
<path d="M125.8428 51.3901 L125.0861 52.1468 "/>
<path d="M125.0861 52.1468 L124.3294 52.5251 "/>
</g></g>
<g style="fill:#000084; fill-opacity:0.01;  stroke:#000084; stroke-width:0.7820; stroke-opacity:1;  stroke-linecap:round; stroke-linejoin:round;">
<text x="122.0178" y="78.4786" transform="scale(-1 1) translate(-244.035610 0)" textLength="11.0906" font-size="6.9510" lengthAdjust="spacingAndGlyphs" text-anchor="middle" opacity="0.01" style="font-family:monospace">C2</text>
<g class="stroked-text"><desc>C2</desc>
<path d="M121.1489 77.7466 L120.9007 77.9948 "/>
<path d="M120.9007 77.9948 L120.1559 78.2431 "/>
<path d="M120.1559 78.2431 L119.6594 78.2431 "/>
<path d="M119.6594 78.2431 L118.9147 77.9948 "/>
<path d="M118.9147 77.9948 L118.4182 77.4983 "/>
<path d="M118.4182 77.4983 L118.1699 77.0018 "/>
<path d="M118.1699 77.0018 L117.9217 76.0088 "/>
<path d="M117.9217 76.0088 L117.9217 75.2641 "/>
<path d="M117.9217 75.2641 L118.1699 74.2711 "/>
<path d="M118.1699 74.2711 L118.4182 73.7746 "/>
<path d="M118.4182 73.7746 L118.9147 73.2781 "/>
<path d="M118.9147 73.2781 L119.6594 73.0298 "/>
<path d="M119.6594 73.0298 L120.1559 73.0298 "/>
<path d="M120.1559 73.0298 L120.9007 73.2781 "/>
<path d="M120.9007 73.2781 L121.1489 73.5263 "/>
<path d="M123.1349 73.5263 L123.3832 73.2781 "/>
<path d="M123.3832 73.2781 L123.8797 73.0298 "/>
<path d="M123.8797 73.0298 L125.1209 73.0298 "/>
<path d="M125.1209 73.0298 L125.6174 73.2781 "/>
<path d="M125.6174 73.2781 L125.8657 73.5263 "/>
<path d="M125.8657 73.5263 L126.1139 74.0228 "/>
<path d="M126.1139 74.0228 L126.1139 74.5193 "/>
<path d="M126.1139 74.5193 L125.8657 75.2641 "/>
<path d="M125.8657 75.2641 L122.8867 78.2431 "/>
<path d="M122.8867 78.2431 L126.1139 78.2431 "/>
</g></g>
<g style="fill:#000084; fill-opacity:0.01;  stroke:#000084; stroke-width:0.5694; stroke-opacity:1;  stroke-linecap:round; stroke-linejoin:round;">
<text x="172.6671" y="80.8177" transform="scale(-1 1) translate(-345.334205 0)" textLength="5.9947" font-size="3.4781" lengthAdjust="spacingAndGlyphs" text-anchor="middle" opacity="0.01" style="font-family:monospace">C9</text>
<g class="stroked-text"><desc>C9</desc>
<path d="M172.2323 80.4422 L172.1081 80.5664 "/>
<path d="M172.1081 80.5664 L171.7355 80.6906 "/>
<path d="M171.7355 80.6906 L171.4870 80.6906 "/>
<path d="M171.4870 80.6906 L171.1144 80.5664 "/>
<path d="M171.1144 80.5664 L170.8659 80.3180 "/>
<path d="M170.8659 80.3180 L170.7417 80.0695 "/>
<path d="M170.7417 80.0695 L170.6175 79.5726 "/>
<path d="M170.6175 79.5726 L170.6175 79.2000 "/>
<path d="M170.6175 79.2000 L170.7417 78.7031 "/>
<path d="M170.7417 78.7031 L170.8659 78.4547 "/>
<path d="M170.8659 78.4547 L171.1144 78.2062 "/>
<path d="M171.1144 78.2062 L171.4870 78.0820 "/>
<path d="M171.4870 78.0820 L171.7355 78.0820 "/>
<path d="M171.7355 78.0820 L172.1081 78.2062 "/>
<path d="M172.1081 78.2062 L172.2323 78.3304 "/>
<path d="M173.4745 80.6906 L173.9714 80.6906 "/>
<path d="M173.9714 80.6906 L174.2198 80.5664 "/>
<path d="M174.2198 80.5664 L174.3441 80.4422 "/>
<path d="M174.3441 80.4422 L174.5925 80.0695 "/>
<path d="M174.5925 80.0695 L174.7167 79.5726 "/>
<path d="M174.7167 79.5726 L174.7167 78.5789 "/>
<path d="M174.7167 78.5789 L174.5925 78.3304 "/>
<path d="M174.5925 78.3304 L174.4683 78.2062 "/>
<path d="M174.4683 78.2062 L174.2198 78.0820 "/>
<path d="M174.2198 78.0820 L173.7230 78.0820 "/>
<path d="M173.7230 78.0820 L173.4745 78.2062 "/>
<path d="M173.4745 78.2062 L173.3503 78.3304 "/>
<path d="M173.3503 78.3304 L173.2261 78.5789 "/>
<path d="M173.2261 78.5789 L173.2261 79.2000 "/>
<path d="M173.2261 79.2000 L173.3503 79.4484 "/>
<path d="M173.3503 79.4484 L173.4745 79.5726 "/>
<path d="M173.4745 79.5726 L173.7230 79.6969 "/>
<path d="M173.7230 79.6969 L174.2198 79.6969 "/>
<path d="M174.2198 79.6969 L174.4683 79.5726 "/>
<path d="M174.4683 79.5726 L174.5925 79.4484 "/>
<path d="M174.5925 79.4484 L174.7167 79.2000 "/>
</g><text x="173.3292" y="84.4592" transform="scale(-1 1) translate(-346.658370 0)" textLength="10.4666" font-size="3.4781" lengthAdjust="spacingAndGlyphs" text-anchor="middle" opacity="0.01" style="font-family:monospace">10nF</text>
<g class="stroked-text"><desc>10nF</desc>
<path d="M170.5343 84.3321 L169.0436 84.3321 "/>
<path d="M169.7889 84.3321 L169.7889 81.7235 "/>
<path d="M169.7889 81.7235 L169.5405 82.0961 "/>
<path d="M169.5405 82.0961 L169.2921 82.3446 "/>
<path d="M169.2921 82.3446 L169.0436 82.4688 "/>
<path d="M172.1491 81.7235 L172.3975 81.7235 "/>
<path d="M172.3975 81.7235 L172.6460 81.8477 "/>
<path d="M172.6460 81.8477 L172.7702 81.9719 "/>
<path d="M172.7702 81.9719 L172.8944 82.2203 "/>
<path d="M172.8944 82.2203 L173.0186 82.7172 "/>
<path d="M173.0186 82.7172 L173.0186 83.3383 "/>
<path d="M173.0186 83.3383 L172.8944 83.8352 "/>
<path d="M172.8944 83.8352 L172.7702 84.0836 "/>
<path d="M172.7702 84.0836 L172.6460 84.2078 "/>
<path d="M172.6460 84.2078 L172.3975 84.3321 "/>
<path d="M172.3975 84.3321 L172.1491 84.3321 "/>
<path d="M172.1491 84.3321 L171.9007 84.2078 "/>
<path d="M171.9007 84.2078 L171.7764 84.0836 "/>
<path d="M171.7764 84.0836 L171.6522 83.8352 "/>
<path d="M171.6522 83.8352 L171.5280 83.3383 "/>
<path d="M171.5280 83.3383 L171.5280 82.7172 "/>
<path d="M171.5280 82.7172 L171.6522 82.2203 "/>
<path d="M171.6522 82.2203 L171.7764 81.9719 "/>
<path d="M171.7764 81.9719 L171.9007 81.8477 "/>
<path d="M171.9007 81.8477 L172.1491 81.7235 "/>
<path d="M174.1366 82.5930 L174.1366 84.3321 "/>
<path d="M174.1366 82.8414 L174.2608 82.7172 "/>
<path d="M174.2608 82.7172 L174.5093 82.5930 "/>
<path d="M174.5093 82.5930 L174.8819 82.5930 "/>
<path d="M174.8819 82.5930 L175.1304 82.7172 "/>
<path d="M175.1304 82.7172 L175.2546 82.9657 "/>
<path d="M175.2546 82.9657 L175.2546 84.3321 "/>
<path d="M177.3663 82.9657 L176.4968 82.9657 "/>
<path d="M176.4968 84.3321 L176.4968 81.7235 "/>
<path d="M176.4968 81.7235 L177.7390 81.7235 "/>
</g><text x="177.3017" y="131.1360" transform="scale(-1 1) translate(-354.603357 0)" textLength="8.4791" font-size="3.4781" lengthAdjust="spacingAndGlyphs" text-anchor="middle" opacity="0.01" style="font-family:monospace">C10</text>
<g class="stroked-text"><desc>C10</desc>
<path d="M175.6247 130.7604 L175.5005 130.8847 "/>
<path d="M175.5005 130.8847 L175.1278 131.0089 "/>
<path d="M175.1278 131.0089 L174.8794 131.0089 "/>
<path d="M174.8794 131.0089 L174.5067 130.8847 "/>
<path d="M174.5067 130.8847 L174.2583 130.6362 "/>
<path d="M174.2583 130.6362 L174.1341 130.3878 "/>
<path d="M174.1341 130.3878 L174.0099 129.8909 "/>
<path d="M174.0099 129.8909 L174.0099 129.5182 "/>
<path d="M174.0099 129.5182 L174.1341 129.0214 "/>
<path d="M174.1341 129.0214 L174.2583 128.7729 "/>
<path d="M174.2583 128.7729 L174.5067 128.5245 "/>
<path d="M174.5067 128.5245 L174.8794 128.4003 "/>
<path d="M174.8794 128.4003 L175.1278 128.4003 "/>
<path d="M175.1278 128.4003 L175.5005 128.5245 "/>
<path d="M175.5005 128.5245 L175.6247 128.6487 "/>
<path d="M178.1091 131.0089 L176.6185 131.0089 "/>
<path d="M177.3638 131.0089 L177.3638 128.4003 "/>
<path d="M177.3638 128.4003 L177.1154 128.7729 "/>
<path d="M177.1154 128.7729 L176.8669 129.0214 "/>
<path d="M176.8669 129.0214 L176.6185 129.1456 "/>
<path d="M179.7240 128.4003 L179.9724 128.4003 "/>
<path d="M179.9724 128.4003 L180.2208 128.5245 "/>
<path d="M180.2208 128.5245 L180.3451 128.6487 "/>
<path d="M180.3451 128.6487 L180.4693 128.8971 "/>
<path d="M180.4693 128.8971 L180.5935 129.3940 "/>
<path d="M180.5935 129.3940 L180.5935 130.0151 "/>
<path d="M180.5935 130.0151 L180.4693 130.5120 "/>
<path d="M180.4693 130.5120 L180.3451 130.7604 "/>
<path d="M180.3451 130.7604 L180.2208 130.8847 "/>
<path d="M180.2208 130.8847 L179.9724 131.0089 "/>
<path d="M179.9724 131.0089 L179.7240 131.0089 "/>
<path d="M179.7240 131.0089 L179.4755 130.8847 "/>
<path d="M179.4755 130.8847 L179.3513 130.7604 "/>
<path d="M179.3513 130.7604 L179.2271 130.5120 "/>
<path d="M179.2271 130.5120 L179.1029 130.0151 "/>
<path d="M179.1029 130.0151 L179.1029 129.3940 "/>
<path d="M179.1029 129.3940 L179.2271 128.8971 "/>
<path d="M179.2271 128.8971 L179.3513 128.6487 "/>
<path d="M179.3513 128.6487 L179.4755 128.5245 "/>
<path d="M179.4755 128.5245 L179.7240 128.4003 "/>
</g><text x="177.9638" y="134.7774" transform="scale(-1 1) translate(-355.927522 0)" textLength="5.9947" font-size="3.4781" lengthAdjust="spacingAndGlyphs" text-anchor="middle" opacity="0.01" style="font-family:monospace">0R</text>
<g class="stroked-text"><desc>0R</desc>
<path d="M176.5352 132.0417 L176.7837 132.0417 "/>
<path d="M176.7837 132.0417 L177.0321 132.1659 "/>
<path d="M177.0321 132.1659 L177.1563 132.2902 "/>
<path d="M177.1563 132.2902 L177.2806 132.5386 "/>
<path d="M177.2806 132.5386 L177.4048 133.0355 "/>
<path d="M177.4048 133.0355 L177.4048 133.6566 "/>
<path d="M177.4048 133.6566 L177.2806 134.1534 "/>
<path d="M177.2806 134.1534 L177.1563 134.4019 "/>
<path d="M177.1563 134.4019 L177.0321 134.5261 "/>
<path d="M177.0321 134.5261 L176.7837 134.6503 "/>
<path d="M176.7837 134.6503 L176.5352 134.6503 "/>
<path d="M176.5352 134.6503 L176.2868 134.5261 "/>
<path d="M176.2868 134.5261 L176.1626 134.4019 "/>
<path d="M176.1626 134.4019 L176.0384 134.1534 "/>
<path d="M176.0384 134.1534 L175.9141 133.6566 "/>
<path d="M175.9141 133.6566 L175.9141 133.0355 "/>
<path d="M175.9141 133.0355 L176.0384 132.5386 "/>
<path d="M176.0384 132.5386 L176.1626 132.2902 "/>
<path d="M176.1626 132.2902 L176.2868 132.1659 "/>
<path d="M176.2868 132.1659 L176.5352 132.0417 "/>
<path d="M180.0134 134.6503 L179.1438 133.4081 "/>
<path d="M178.5228 134.6503 L178.5228 132.0417 "/>
<path d="M178.5228 132.0417 L179.5165 132.0417 "/>
<path d="M179.5165 132.0417 L179.7649 132.1659 "/>
<path d="M179.7649 132.1659 L179.8892 132.2902 "/>
<path d="M179.8892 132.2902 L180.0134 132.5386 "/>
<path d="M180.0134 132.5386 L180.0134 132.9113 "/>
<path d="M180.0134 132.9113 L179.8892 133.1597 "/>
<path d="M179.8892 133.1597 L179.7649 133.2839 "/>
<path d="M179.7649 133.2839 L179.5165 133.4081 "/>
<path d="M179.5165 133.4081 L178.5228 133.4081 "/>
</g><g transform="rotate(-90.000000 112.4176 30.5193)">
<text x="112.4176" y="31.8236" transform="scale(-1 1) translate(-224.835223 0)" textLength="5.9947" font-size="3.4781" lengthAdjust="spacingAndGlyphs" text-anchor="middle" opacity="0.01" style="font-family:monospace">R1</text>
</g>
<g class="stroked-text"><desc>R1</desc>
<path d="M111.2404 30.0846 L112.4826 29.2150 "/>
<path d="M111.2404 28.5939 L113.8490 28.5939 "/>
<path d="M113.8490 28.5939 L113.8490 29.5877 "/>
<path d="M113.8490 29.5877 L113.7248 29.8361 "/>
<path d="M113.7248 29.8361 L113.6006 29.9604 "/>
<path d="M113.6006 29.9604 L113.3522 30.0846 "/>
<path d="M113.3522 30.0846 L112.9795 30.0846 "/>
<path d="M112.9795 30.0846 L112.7311 29.9604 "/>
<path d="M112.7311 29.9604 L112.6068 29.8361 "/>
<path d="M112.6068 29.8361 L112.4826 29.5877 "/>
<path d="M112.4826 29.5877 L112.4826 28.5939 "/>
<path d="M111.2404 32.5690 L111.2404 31.0783 "/>
<path d="M111.2404 31.8236 L113.8490 31.8236 "/>
<path d="M113.8490 31.8236 L113.4764 31.5752 "/>
<path d="M113.4764 31.5752 L113.2279 31.3268 "/>
<path d="M113.2279 31.3268 L113.1037 31.0783 "/>
</g><g transform="rotate(-90.000000 116.0591 29.8573)">
<text x="116.0591" y="31.1616" transform="scale(-1 1) translate(-232.118128 0)" textLength="8.4791" font-size="3.4781" lengthAdjust="spacingAndGlyphs" text-anchor="middle" opacity="0.01" style="font-family:monospace">10R</text>
</g>
<g class="stroked-text"><desc>10R</desc>
<path d="M114.8819 28.0561 L114.8819 26.5655 "/>
<path d="M114.8819 27.3108 L117.4905 27.3108 "/>
<path d="M117.4905 27.3108 L117.1178 27.0623 "/>
<path d="M117.1178 27.0623 L116.8694 26.8139 "/>
<path d="M116.8694 26.8139 L116.7452 26.5655 "/>
<path d="M117.4905 29.6709 L117.4905 29.9194 "/>
<path d="M117.4905 29.9194 L117.3663 30.1678 "/>
<path d="M117.3663 30.1678 L117.2421 30.2920 "/>
<path d="M117.2421 30.2920 L116.9936 30.4162 "/>
<path d="M116.9936 30.4162 L116.4967 30.5405 "/>
<path d="M116.4967 30.5405 L115.8756 30.5405 "/>
<path d="M115.8756 30.5405 L115.3788 30.4162 "/>
<path d="M115.3788 30.4162 L115.1303 30.2920 "/>
<path d="M115.1303 30.2920 L115.0061 30.1678 "/>
<path d="M115.0061 30.1678 L114.8819 29.9194 "/>
<path d="M114.8819 29.9194 L114.8819 29.6709 "/>
<path d="M114.8819 29.6709 L115.0061 29.4225 "/>
<path d="M115.0061 29.4225 L115.1303 29.2983 "/>
<path d="M115.1303 29.2983 L115.3788 29.1741 "/>
<path d="M115.3788 29.1741 L115.8756 29.0498 "/>
<path d="M115.8756 29.0498 L116.4967 29.0498 "/>
<path d="M116.4967 29.0498 L116.9936 29.1741 "/>
<path d="M116.9936 29.1741 L117.2421 29.2983 "/>
<path d="M117.2421 29.2983 L117.3663 29.4225 "/>
<path d="M117.3663 29.4225 L117.4905 29.6709 "/>
<path d="M114.8819 33.1491 L116.1241 32.2795 "/>
<path d="M114.8819 31.6584 L117.4905 31.6584 "/>
<path d="M117.4905 31.6584 L117.4905 32.6522 "/>
<path d="M117.4905 32.6522 L117.3663 32.9006 "/>
<path d="M117.3663 32.9006 L117.2421 33.0248 "/>
<path d="M117.2421 33.0248 L116.9936 33.1491 "/>
<path d="M116.9936 33.1491 L116.6210 33.1491 "/>
<path d="M116.6210 33.1491 L116.3725 33.0248 "/>
<path d="M116.3725 33.0248 L116.2483 32.9006 "/>
<path d="M116.2483 32.9006 L116.1241 32.6522 "/>
<path d="M116.1241 32.6522 L116.1241 31.6584 "/>
</g><text x="174.6533" y="54.9965" transform="scale(-1 1) translate(-349.306699 0)" textLength="5.9947" font-size="3.4781" lengthAdjust="spacingAndGlyphs" text-anchor="middle" opacity="0.01" style="font-family:monospace">R4</text>
<g class="stroked-text"><desc>R4</desc>
<path d="M174.2186 54.8694 L173.3491 53.6272 "/>
<path d="M172.7280 54.8694 L172.7280 52.2608 "/>
<path d="M172.7280 52.2608 L173.7217 52.2608 "/>
<path d="M173.7217 52.2608 L173.9701 52.3850 "/>
<path d="M173.9701 52.3850 L174.0944 52.5092 "/>
<path d="M174.0944 52.5092 L174.2186 52.7577 "/>
<path d="M174.2186 52.7577 L174.2186 53.1303 "/>
<path d="M174.2186 53.1303 L174.0944 53.3788 "/>
<path d="M174.0944 53.3788 L173.9701 53.5030 "/>
<path d="M173.9701 53.5030 L173.7217 53.6272 "/>
<path d="M173.7217 53.6272 L172.7280 53.6272 "/>
<path d="M176.4545 53.1303 L176.4545 54.8694 "/>
<path d="M175.8334 52.1366 L175.2123 53.9999 "/>
<path d="M175.2123 53.9999 L176.8272 53.9999 "/>
</g><text x="173.9913" y="51.3551" transform="scale(-1 1) translate(-347.982534 0)" textLength="8.4791" font-size="3.4781" lengthAdjust="spacingAndGlyphs" text-anchor="middle" opacity="0.01" style="font-family:monospace">10R</text>
<g class="stroked-text"><desc>10R</desc>
<path d="M172.1901 51.2280 L170.6995 51.2280 "/>
<path d="M171.4448 51.2280 L171.4448 48.6193 "/>
<path d="M171.4448 48.6193 L171.1963 48.9920 "/>
<path d="M171.1963 48.9920 L170.9479 49.2404 "/>
<path d="M170.9479 49.2404 L170.6995 49.3647 "/>
<path d="M173.8049 48.6193 L174.0534 48.6193 "/>
<path d="M174.0534 48.6193 L174.3018 48.7436 "/>
<path d="M174.3018 48.7436 L174.4260 48.8678 "/>
<path d="M174.4260 48.8678 L174.5503 49.1162 "/>
<path d="M174.5503 49.1162 L174.6745 49.6131 "/>
<path d="M174.6745 49.6131 L174.6745 50.2342 "/>
<path d="M174.6745 50.2342 L174.5503 50.7311 "/>
<path d="M174.5503 50.7311 L174.4260 50.9795 "/>
<path d="M174.4260 50.9795 L174.3018 51.1037 "/>
<path d="M174.3018 51.1037 L174.0534 51.2280 "/>
<path d="M174.0534 51.2280 L173.8049 51.2280 "/>
<path d="M173.8049 51.2280 L173.5565 51.1037 "/>
<path d="M173.5565 51.1037 L173.4323 50.9795 "/>
<path d="M173.4323 50.9795 L173.3081 50.7311 "/>
<path d="M173.3081 50.7311 L173.1838 50.2342 "/>
<path d="M173.1838 50.2342 L173.1838 49.6131 "/>
<path d="M173.1838 49.6131 L173.3081 49.1162 "/>
<path d="M173.3081 49.1162 L173.4323 48.8678 "/>
<path d="M173.4323 48.8678 L173.5565 48.7436 "/>
<path d="M173.5565 48.7436 L173.8049 48.6193 "/>
<path d="M177.2831 51.2280 L176.4135 49.9858 "/>
<path d="M175.7924 51.2280 L175.7924 48.6193 "/>
<path d="M175.7924 48.6193 L176.7862 48.6193 "/>
<path d="M176.7862 48.6193 L177.0346 48.7436 "/>
<path d="M177.0346 48.7436 L177.1589 48.8678 "/>
<path d="M177.1589 48.8678 L177.2831 49.1162 "/>
<path d="M177.2831 49.1162 L177.2831 49.4889 "/>
<path d="M177.2831 49.4889 L177.1589 49.7373 "/>
<path d="M177.1589 49.7373 L177.0346 49.8615 "/>
<path d="M177.0346 49.8615 L176.7862 49.9858 "/>
<path d="M176.7862 49.9858 L175.7924 49.9858 "/>
</g><g transform="rotate(-90.000000 191.8675 139.1008)">
<text x="191.8675" y="140.4051" transform="scale(-1 1) translate(-383.734979 0)" textLength="5.9947" font-size="3.4781" lengthAdjust="spacingAndGlyphs" text-anchor="middle" opacity="0.01" style="font-family:monospace">R5</text>
</g>
<g class="stroked-text"><desc>R5</desc>
<path d="M190.6903 138.6661 L191.9325 137.7965 "/>
<path d="M190.6903 137.1754 L193.2989 137.1754 "/>
<path d="M193.2989 137.1754 L193.2989 138.1692 "/>
<path d="M193.2989 138.1692 L193.1747 138.4176 "/>
<path d="M193.1747 138.4176 L193.0505 138.5419 "/>
<path d="M193.0505 138.5419 L192.8020 138.6661 "/>
<path d="M192.8020 138.6661 L192.4294 138.6661 "/>
<path d="M192.4294 138.6661 L192.1809 138.5419 "/>
<path d="M192.1809 138.5419 L192.0567 138.4176 "/>
<path d="M192.0567 138.4176 L191.9325 138.1692 "/>
<path d="M191.9325 138.1692 L191.9325 137.1754 "/>
<path d="M193.2989 141.0262 L193.2989 139.7841 "/>
<path d="M193.2989 139.7841 L192.0567 139.6598 "/>
<path d="M192.0567 139.6598 L192.1809 139.7841 "/>
<path d="M192.1809 139.7841 L192.3052 140.0325 "/>
<path d="M192.3052 140.0325 L192.3052 140.6536 "/>
<path d="M192.3052 140.6536 L192.1809 140.9020 "/>
<path d="M192.1809 140.9020 L192.0567 141.0262 "/>
<path d="M192.0567 141.0262 L191.8083 141.1505 "/>
<path d="M191.8083 141.1505 L191.1872 141.1505 "/>
<path d="M191.1872 141.1505 L190.9387 141.0262 "/>
<path d="M190.9387 141.0262 L190.8145 140.9020 "/>
<path d="M190.8145 140.9020 L190.6903 140.6536 "/>
<path d="M190.6903 140.6536 L190.6903 140.0325 "/>
<path d="M190.6903 140.0325 L190.8145 139.7841 "/>
<path d="M190.8145 139.7841 L190.9387 139.6598 "/>
</g><g transform="rotate(-90.000000 195.5089 138.4388)">
<text x="195.5089" y="139.7431" transform="scale(-1 1) translate(-391.017885 0)" textLength="8.4791" font-size="3.4781" lengthAdjust="spacingAndGlyphs" text-anchor="middle" opacity="0.01" style="font-family:monospace">10R</text>
</g>
<g class="stroked-text"><desc>10R</desc>
<path d="M194.3318 136.6376 L194.3318 135.1470 "/>
<path d="M194.3318 135.8923 L196.9404 135.8923 "/>
<path d="M196.9404 135.8923 L196.5677 135.6438 "/>
<path d="M196.5677 135.6438 L196.3193 135.3954 "/>
<path d="M196.3193 135.3954 L196.1951 135.1470 "/>
<path d="M196.9404 138.2524 L196.9404 138.5009 "/>
<path d="M196.9404 138.5009 L196.8161 138.7493 "/>
<path d="M196.8161 138.7493 L196.6919 138.8735 "/>
<path d="M196.6919 138.8735 L196.4435 138.9977 "/>
<path d="M196.4435 138.9977 L195.9466 139.1220 "/>
<path d="M195.9466 139.1220 L195.3255 139.1220 "/>
<path d="M195.3255 139.1220 L194.8286 138.9977 "/>
<path d="M194.8286 138.9977 L194.5802 138.8735 "/>
<path d="M194.5802 138.8735 L194.4560 138.7493 "/>
<path d="M194.4560 138.7493 L194.3318 138.5009 "/>
<path d="M194.3318 138.5009 L194.3318 138.2524 "/>
<path d="M194.3318 138.2524 L194.4560 138.0040 "/>
<path d="M194.4560 138.0040 L194.5802 137.8798 "/>
<path d="M194.5802 137.8798 L194.8286 137.7556 "/>
<path d="M194.8286 137.7556 L195.3255 137.6313 "/>
<path d="M195.3255 137.6313 L195.9466 137.6313 "/>
<path d="M195.9466 137.6313 L196.4435 137.7556 "/>
<path d="M196.4435 137.7556 L196.6919 137.8798 "/>
<path d="M196.6919 137.8798 L196.8161 138.0040 "/>
<path d="M196.8161 138.0040 L196.9404 138.2524 "/>
<path d="M194.3318 141.7306 L195.5740 140.8610 "/>
<path d="M194.3318 140.2399 L196.9404 140.2399 "/>
<path d="M196.9404 140.2399 L196.9404 141.2337 "/>
<path d="M196.9404 141.2337 L196.8161 141.4821 "/>
<path d="M196.8161 141.4821 L196.6919 141.6063 "/>
<path d="M196.6919 141.6063 L196.4435 141.7306 "/>
<path d="M196.4435 141.7306 L196.0708 141.7306 "/>
<path d="M196.0708 141.7306 L195.8224 141.6063 "/>
<path d="M195.8224 141.6063 L195.6982 141.4821 "/>
<path d="M195.6982 141.4821 L195.5740 141.2337 "/>
<path d="M195.5740 141.2337 L195.5740 140.2399 "/>
</g><g transform="rotate(-90.000000 157.4392 107.3209)">
<text x="157.4392" y="108.6252" transform="scale(-1 1) translate(-314.878418 0)" textLength="5.9947" font-size="3.4781" lengthAdjust="spacingAndGlyphs" text-anchor="middle" opacity="0.01" style="font-family:monospace">R6</text>
</g>
<g class="stroked-text"><desc>R6</desc>
<path d="M156.2620 106.8861 L157.5042 106.0166 "/>
<path d="M156.2620 105.3955 L158.8706 105.3955 "/>
<path d="M158.8706 105.3955 L158.8706 106.3893 "/>
<path d="M158.8706 106.3893 L158.7464 106.6377 "/>
<path d="M158.7464 106.6377 L158.6222 106.7619 "/>
<path d="M158.6222 106.7619 L158.3738 106.8861 "/>
<path d="M158.3738 106.8861 L158.0011 106.8861 "/>
<path d="M158.0011 106.8861 L157.7527 106.7619 "/>
<path d="M157.7527 106.7619 L157.6284 106.6377 "/>
<path d="M157.6284 106.6377 L157.5042 106.3893 "/>
<path d="M157.5042 106.3893 L157.5042 105.3955 "/>
<path d="M158.8706 109.1221 L158.8706 108.6252 "/>
<path d="M158.8706 108.6252 L158.7464 108.3768 "/>
<path d="M158.7464 108.3768 L158.6222 108.2525 "/>
<path d="M158.6222 108.2525 L158.2495 108.0041 "/>
<path d="M158.2495 108.0041 L157.7527 107.8799 "/>
<path d="M157.7527 107.8799 L156.7589 107.8799 "/>
<path d="M156.7589 107.8799 L156.5105 108.0041 "/>
<path d="M156.5105 108.0041 L156.3862 108.1283 "/>
<path d="M156.3862 108.1283 L156.2620 108.3768 "/>
<path d="M156.2620 108.3768 L156.2620 108.8736 "/>
<path d="M156.2620 108.8736 L156.3862 109.1221 "/>
<path d="M156.3862 109.1221 L156.5105 109.2463 "/>
<path d="M156.5105 109.2463 L156.7589 109.3705 "/>
<path d="M156.7589 109.3705 L157.3800 109.3705 "/>
<path d="M157.3800 109.3705 L157.6284 109.2463 "/>
<path d="M157.6284 109.2463 L157.7527 109.1221 "/>
<path d="M157.7527 109.1221 L157.8769 108.8736 "/>
<path d="M157.8769 108.8736 L157.8769 108.3768 "/>
<path d="M157.8769 108.3768 L157.7527 108.1283 "/>
<path d="M157.7527 108.1283 L157.6284 108.0041 "/>
<path d="M157.6284 108.0041 L157.3800 107.8799 "/>
</g><g transform="rotate(-90.000000 161.0807 106.6588)">
<text x="161.0807" y="107.9631" transform="scale(-1 1) translate(-322.161324 0)" textLength="4.1315" font-size="3.4781" lengthAdjust="spacingAndGlyphs" text-anchor="middle" opacity="0.01" style="font-family:monospace">-</text>
</g>
<g class="stroked-text"><desc>-</desc>
<path d="M160.8972 105.6651 L160.8972 107.6526 "/>
</g><g transform="rotate(-90.000000 149.4942 136.4525)">
<text x="149.4942" y="137.7568" transform="scale(-1 1) translate(-298.988443 0)" textLength="5.9947" font-size="3.4781" lengthAdjust="spacingAndGlyphs" text-anchor="middle" opacity="0.01" style="font-family:monospace">R7</text>
</g>
<g class="stroked-text"><desc>R7</desc>
<path d="M148.3170 136.0177 L149.5592 135.1482 "/>
<path d="M148.3170 134.5271 L150.9256 134.5271 "/>
<path d="M150.9256 134.5271 L150.9256 135.5209 "/>
<path d="M150.9256 135.5209 L150.8014 135.7693 "/>
<path d="M150.8014 135.7693 L150.6772 135.8935 "/>
<path d="M150.6772 135.8935 L150.4288 136.0177 "/>
<path d="M150.4288 136.0177 L150.0561 136.0177 "/>
<path d="M150.0561 136.0177 L149.8077 135.8935 "/>
<path d="M149.8077 135.8935 L149.6835 135.7693 "/>
<path d="M149.6835 135.7693 L149.5592 135.5209 "/>
<path d="M149.5592 135.5209 L149.5592 134.5271 "/>
<path d="M150.9256 136.8873 L150.9256 138.6264 "/>
<path d="M150.9256 138.6264 L148.3170 137.5084 "/>
</g><g transform="rotate(-90.000000 153.1357 135.7904)">
<text x="153.1357" y="137.0947" transform="scale(-1 1) translate(-306.271348 0)" textLength="4.1315" font-size="3.4781" lengthAdjust="spacingAndGlyphs" text-anchor="middle" opacity="0.01" style="font-family:monospace">-</text>
</g>
<g class="stroked-text"><desc>-</desc>
<path d="M152.9523 134.7967 L152.9523 136.7842 "/>
</g><g transform="rotate(-90.000000 163.3979 136.4525)">
<text x="163.3979" y="137.7568" transform="scale(-1 1) translate(-326.795900 0)" textLength="5.9947" font-size="3.4781" lengthAdjust="spacingAndGlyphs" text-anchor="middle" opacity="0.01" style="font-family:monospace">R8</text>
</g>
<g class="stroked-text"><desc>R8</desc>
<path d="M162.2208 136.0177 L163.4630 135.1482 "/>
<path d="M162.2208 134.5271 L164.8294 134.5271 "/>
<path d="M164.8294 134.5271 L164.8294 135.5209 "/>
<path d="M164.8294 135.5209 L164.7052 135.7693 "/>
<path d="M164.7052 135.7693 L164.5809 135.8935 "/>
<path d="M164.5809 135.8935 L164.3325 136.0177 "/>
<path d="M164.3325 136.0177 L163.9598 136.0177 "/>
<path d="M163.9598 136.0177 L163.7114 135.8935 "/>
<path d="M163.7114 135.8935 L163.5872 135.7693 "/>
<path d="M163.5872 135.7693 L163.4630 135.5209 "/>
<path d="M163.4630 135.5209 L163.4630 134.5271 "/>
<path d="M163.7114 137.5084 L163.8356 137.2599 "/>
<path d="M163.8356 137.2599 L163.9598 137.1357 "/>
<path d="M163.9598 137.1357 L164.2083 137.0115 "/>
<path d="M164.2083 137.0115 L164.3325 137.0115 "/>
<path d="M164.3325 137.0115 L164.5809 137.1357 "/>
<path d="M164.5809 137.1357 L164.7052 137.2599 "/>
<path d="M164.7052 137.2599 L164.8294 137.5084 "/>
<path d="M164.8294 137.5084 L164.8294 138.0053 "/>
<path d="M164.8294 138.0053 L164.7052 138.2537 "/>
<path d="M164.7052 138.2537 L164.5809 138.3779 "/>
<path d="M164.5809 138.3779 L164.3325 138.5021 "/>
<path d="M164.3325 138.5021 L164.2083 138.5021 "/>
<path d="M164.2083 138.5021 L163.9598 138.3779 "/>
<path d="M163.9598 138.3779 L163.8356 138.2537 "/>
<path d="M163.8356 138.2537 L163.7114 138.0053 "/>
<path d="M163.7114 138.0053 L163.7114 137.5084 "/>
<path d="M163.7114 137.5084 L163.5872 137.2599 "/>
<path d="M163.5872 137.2599 L163.4630 137.1357 "/>
<path d="M163.4630 137.1357 L163.2145 137.0115 "/>
<path d="M163.2145 137.0115 L162.7176 137.0115 "/>
<path d="M162.7176 137.0115 L162.4692 137.1357 "/>
<path d="M162.4692 137.1357 L162.3450 137.2599 "/>
<path d="M162.3450 137.2599 L162.2208 137.5084 "/>
<path d="M162.2208 137.5084 L162.2208 138.0053 "/>
<path d="M162.2208 138.0053 L162.3450 138.2537 "/>
<path d="M162.3450 138.2537 L162.4692 138.3779 "/>
<path d="M162.4692 138.3779 L162.7176 138.5021 "/>
<path d="M162.7176 138.5021 L163.2145 138.5021 "/>
<path d="M163.2145 138.5021 L163.4630 138.3779 "/>
<path d="M163.4630 138.3779 L163.5872 138.2537 "/>
<path d="M163.5872 138.2537 L163.7114 138.0053 "/>
</g><g transform="rotate(-90.000000 159.7565 137.1146)">
<text x="159.7565" y="138.4189" transform="scale(-1 1) translate(-319.512994 0)" textLength="12.9510" font-size="3.4781" lengthAdjust="spacingAndGlyphs" text-anchor="middle" opacity="0.01" style="font-family:monospace">100nF</text>
</g>
<g class="stroked-text"><desc>100nF</desc>
<path d="M158.5793 133.0775 L158.5793 131.5868 "/>
<path d="M158.5793 132.3322 L161.1879 132.3322 "/>
<path d="M161.1879 132.3322 L160.8153 132.0837 "/>
<path d="M160.8153 132.0837 L160.5668 131.8353 "/>
<path d="M160.5668 131.8353 L160.4426 131.5868 "/>
<path d="M161.1879 134.6923 L161.1879 134.9408 "/>
<path d="M161.1879 134.9408 L161.0637 135.1892 "/>
<path d="M161.0637 135.1892 L160.9395 135.3134 "/>
<path d="M160.9395 135.3134 L160.6910 135.4376 "/>
<path d="M160.6910 135.4376 L160.1942 135.5619 "/>
<path d="M160.1942 135.5619 L159.5731 135.5619 "/>
<path d="M159.5731 135.5619 L159.0762 135.4376 "/>
<path d="M159.0762 135.4376 L158.8278 135.3134 "/>
<path d="M158.8278 135.3134 L158.7035 135.1892 "/>
<path d="M158.7035 135.1892 L158.5793 134.9408 "/>
<path d="M158.5793 134.9408 L158.5793 134.6923 "/>
<path d="M158.5793 134.6923 L158.7035 134.4439 "/>
<path d="M158.7035 134.4439 L158.8278 134.3197 "/>
<path d="M158.8278 134.3197 L159.0762 134.1954 "/>
<path d="M159.0762 134.1954 L159.5731 134.0712 "/>
<path d="M159.5731 134.0712 L160.1942 134.0712 "/>
<path d="M160.1942 134.0712 L160.6910 134.1954 "/>
<path d="M160.6910 134.1954 L160.9395 134.3197 "/>
<path d="M160.9395 134.3197 L161.0637 134.4439 "/>
<path d="M161.0637 134.4439 L161.1879 134.6923 "/>
<path d="M161.1879 137.1767 L161.1879 137.4251 "/>
<path d="M161.1879 137.4251 L161.0637 137.6736 "/>
<path d="M161.0637 137.6736 L160.9395 137.7978 "/>
<path d="M160.9395 137.7978 L160.6910 137.9220 "/>
<path d="M160.6910 137.9220 L160.1942 138.0462 "/>
<path d="M160.1942 138.0462 L159.5731 138.0462 "/>
<path d="M159.5731 138.0462 L159.0762 137.9220 "/>
<path d="M159.0762 137.9220 L158.8278 137.7978 "/>
<path d="M158.8278 137.7978 L158.7035 137.6736 "/>
<path d="M158.7035 137.6736 L158.5793 137.4251 "/>
<path d="M158.5793 137.4251 L158.5793 137.1767 "/>
<path d="M158.5793 137.1767 L158.7035 136.9283 "/>
<path d="M158.7035 136.9283 L158.8278 136.8040 "/>
<path d="M158.8278 136.8040 L159.0762 136.6798 "/>
<path d="M159.0762 136.6798 L159.5731 136.5556 "/>
<path d="M159.5731 136.5556 L160.1942 136.5556 "/>
<path d="M160.1942 136.5556 L160.6910 136.6798 "/>
<path d="M160.6910 136.6798 L160.9395 136.8040 "/>
<path d="M160.9395 136.8040 L161.0637 136.9283 "/>
<path d="M161.0637 136.9283 L161.1879 137.1767 "/>
<path d="M160.3184 139.1642 L158.5793 139.1642 "/>
<path d="M160.0699 139.1642 L160.1942 139.2884 "/>
<path d="M160.1942 139.2884 L160.3184 139.5369 "/>
<path d="M160.3184 139.5369 L160.3184 139.9095 "/>
<path d="M160.3184 139.9095 L160.1942 140.1580 "/>
<path d="M160.1942 140.1580 L159.9457 140.2822 "/>
<path d="M159.9457 140.2822 L158.5793 140.2822 "/>
<path d="M159.9457 142.3939 L159.9457 141.5244 "/>
<path d="M158.5793 141.5244 L161.1879 141.5244 "/>
<path d="M161.1879 141.5244 L161.1879 142.7666 "/>
</g><g transform="rotate(-90.000000 112.4176 94.7413)">
<text x="112.4176" y="96.0456" transform="scale(-1 1) translate(-224.835223 0)" textLength="5.9947" font-size="3.4781" lengthAdjust="spacingAndGlyphs" text-anchor="middle" opacity="0.01" style="font-family:monospace">R9</text>
</g>
<g class="stroked-text"><desc>R9</desc>
<path d="M111.2404 94.3066 L112.4826 93.4370 "/>
<path d="M111.2404 92.8159 L113.8490 92.8159 "/>
<path d="M113.8490 92.8159 L113.8490 93.8097 "/>
<path d="M113.8490 93.8097 L113.7248 94.0581 "/>
<path d="M113.7248 94.0581 L113.6006 94.1823 "/>
<path d="M113.6006 94.1823 L113.3522 94.3066 "/>
<path d="M113.3522 94.3066 L112.9795 94.3066 "/>
<path d="M112.9795 94.3066 L112.7311 94.1823 "/>
<path d="M112.7311 94.1823 L112.6068 94.0581 "/>
<path d="M112.6068 94.0581 L112.4826 93.8097 "/>
<path d="M112.4826 93.8097 L112.4826 92.8159 "/>
<path d="M111.2404 95.5488 L111.2404 96.0456 "/>
<path d="M111.2404 96.0456 L111.3647 96.2941 "/>
<path d="M111.3647 96.2941 L111.4889 96.4183 "/>
<path d="M111.4889 96.4183 L111.8615 96.6667 "/>
<path d="M111.8615 96.6667 L112.3584 96.7909 "/>
<path d="M112.3584 96.7909 L113.3522 96.7909 "/>
<path d="M113.3522 96.7909 L113.6006 96.6667 "/>
<path d="M113.6006 96.6667 L113.7248 96.5425 "/>
<path d="M113.7248 96.5425 L113.8490 96.2941 "/>
<path d="M113.8490 96.2941 L113.8490 95.7972 "/>
<path d="M113.8490 95.7972 L113.7248 95.5488 "/>
<path d="M113.7248 95.5488 L113.6006 95.4245 "/>
<path d="M113.6006 95.4245 L113.3522 95.3003 "/>
<path d="M113.3522 95.3003 L112.7311 95.3003 "/>
<path d="M112.7311 95.3003 L112.4826 95.4245 "/>
<path d="M112.4826 95.4245 L112.3584 95.5488 "/>
<path d="M112.3584 95.5488 L112.2342 95.7972 "/>
<path d="M112.2342 95.7972 L112.2342 96.2941 "/>
<path d="M112.2342 96.2941 L112.3584 96.5425 "/>
<path d="M112.3584 96.5425 L112.4826 96.6667 "/>
<path d="M112.4826 96.6667 L112.7311 96.7909 "/>
</g><g transform="rotate(-90.000000 116.0591 94.0792)">
<text x="116.0591" y="95.3835" transform="scale(-1 1) translate(-232.118128 0)" textLength="10.9635" font-size="3.4781" lengthAdjust="spacingAndGlyphs" text-anchor="middle" opacity="0.01" style="font-family:monospace">470R</text>
</g>
<g class="stroked-text"><desc>470R</desc>
<path d="M116.6210 90.7874 L114.8819 90.7874 "/>
<path d="M117.6147 90.1663 L115.7514 89.5452 "/>
<path d="M115.7514 89.5452 L115.7514 91.1601 "/>
<path d="M117.4905 91.9054 L117.4905 93.6445 "/>
<path d="M117.4905 93.6445 L114.8819 92.5265 "/>
<path d="M117.4905 95.1351 L117.4905 95.3835 "/>
<path d="M117.4905 95.3835 L117.3663 95.6320 "/>
<path d="M117.3663 95.6320 L117.2421 95.7562 "/>
<path d="M117.2421 95.7562 L116.9936 95.8804 "/>
<path d="M116.9936 95.8804 L116.4967 96.0046 "/>
<path d="M116.4967 96.0046 L115.8756 96.0046 "/>
<path d="M115.8756 96.0046 L115.3788 95.8804 "/>
<path d="M115.3788 95.8804 L115.1303 95.7562 "/>
<path d="M115.1303 95.7562 L115.0061 95.6320 "/>
<path d="M115.0061 95.6320 L114.8819 95.3835 "/>
<path d="M114.8819 95.3835 L114.8819 95.1351 "/>
<path d="M114.8819 95.1351 L115.0061 94.8867 "/>
<path d="M115.0061 94.8867 L115.1303 94.7625 "/>
<path d="M115.1303 94.7625 L115.3788 94.6382 "/>
<path d="M115.3788 94.6382 L115.8756 94.5140 "/>
<path d="M115.8756 94.5140 L116.4967 94.5140 "/>
<path d="M116.4967 94.5140 L116.9936 94.6382 "/>
<path d="M116.9936 94.6382 L117.2421 94.7625 "/>
<path d="M117.2421 94.7625 L117.3663 94.8867 "/>
<path d="M117.3663 94.8867 L117.4905 95.1351 "/>
<path d="M114.8819 98.6132 L116.1241 97.7437 "/>
<path d="M114.8819 97.1226 L117.4905 97.1226 "/>
<path d="M117.4905 97.1226 L117.4905 98.1164 "/>
<path d="M117.4905 98.1164 L117.3663 98.3648 "/>
<path d="M117.3663 98.3648 L117.2421 98.4890 "/>
<path d="M117.2421 98.4890 L116.9936 98.6132 "/>
<path d="M116.9936 98.6132 L116.6210 98.6132 "/>
<path d="M116.6210 98.6132 L116.3725 98.4890 "/>
<path d="M116.3725 98.4890 L116.2483 98.3648 "/>
<path d="M116.2483 98.3648 L116.1241 98.1164 "/>
<path d="M116.1241 98.1164 L116.1241 97.1226 "/>
</g><text x="117.0522" y="115.2460" transform="scale(-1 1) translate(-234.104375 0)" textLength="8.4791" font-size="3.4781" lengthAdjust="spacingAndGlyphs" text-anchor="middle" opacity="0.01" style="font-family:monospace">R11</text>
<g class="stroked-text"><desc>R11</desc>
<path d="M115.3752 115.1189 L114.5057 113.8767 "/>
<path d="M113.8846 115.1189 L113.8846 112.5103 "/>
<path d="M113.8846 112.5103 L114.8784 112.5103 "/>
<path d="M114.8784 112.5103 L115.1268 112.6345 "/>
<path d="M115.1268 112.6345 L115.2510 112.7587 "/>
<path d="M115.2510 112.7587 L115.3752 113.0072 "/>
<path d="M115.3752 113.0072 L115.3752 113.3798 "/>
<path d="M115.3752 113.3798 L115.2510 113.6283 "/>
<path d="M115.2510 113.6283 L115.1268 113.7525 "/>
<path d="M115.1268 113.7525 L114.8784 113.8767 "/>
<path d="M114.8784 113.8767 L113.8846 113.8767 "/>
<path d="M117.8596 115.1189 L116.3690 115.1189 "/>
<path d="M117.1143 115.1189 L117.1143 112.5103 "/>
<path d="M117.1143 112.5103 L116.8659 112.8830 "/>
<path d="M116.8659 112.8830 L116.6174 113.1314 "/>
<path d="M116.6174 113.1314 L116.3690 113.2556 "/>
<path d="M120.3440 115.1189 L118.8534 115.1189 "/>
<path d="M119.5987 115.1189 L119.5987 112.5103 "/>
<path d="M119.5987 112.5103 L119.3502 112.8830 "/>
<path d="M119.3502 112.8830 L119.1018 113.1314 "/>
<path d="M119.1018 113.1314 L118.8534 113.2556 "/>
</g><text x="117.7143" y="118.8875" transform="scale(-1 1) translate(-235.428540 0)" textLength="5.4979" font-size="3.4781" lengthAdjust="spacingAndGlyphs" text-anchor="middle" opacity="0.01" style="font-family:monospace">1k</text>
<g class="stroked-text"><desc>1k</desc>
<path d="M117.4037 118.7603 L115.9131 118.7603 "/>
<path d="M116.6584 118.7603 L116.6584 116.1517 "/>
<path d="M116.6584 116.1517 L116.4100 116.5244 "/>
<path d="M116.4100 116.5244 L116.1615 116.7728 "/>
<path d="M116.1615 116.7728 L115.9131 116.8971 "/>
<path d="M118.5217 118.7603 L118.5217 116.1517 "/>
<path d="M118.7701 117.7666 L119.5155 118.7603 "/>
<path d="M119.5155 117.0213 L118.5217 118.0150 "/>
</g><g transform="rotate(-90.000000 138.9009 136.4525)">
<text x="138.9009" y="137.7568" transform="scale(-1 1) translate(-277.801808 0)" textLength="8.4791" font-size="3.4781" lengthAdjust="spacingAndGlyphs" text-anchor="middle" opacity="0.01" style="font-family:monospace">R12</text>
</g>
<g class="stroked-text"><desc>R12</desc>
<path d="M137.7237 134.7756 L138.9659 133.9060 "/>
<path d="M137.7237 133.2849 L140.3323 133.2849 "/>
<path d="M140.3323 133.2849 L140.3323 134.2787 "/>
<path d="M140.3323 134.2787 L140.2081 134.5271 "/>
<path d="M140.2081 134.5271 L140.0839 134.6513 "/>
<path d="M140.0839 134.6513 L139.8355 134.7756 "/>
<path d="M139.8355 134.7756 L139.4628 134.7756 "/>
<path d="M139.4628 134.7756 L139.2144 134.6513 "/>
<path d="M139.2144 134.6513 L139.0901 134.5271 "/>
<path d="M139.0901 134.5271 L138.9659 134.2787 "/>
<path d="M138.9659 134.2787 L138.9659 133.2849 "/>
<path d="M137.7237 137.2599 L137.7237 135.7693 "/>
<path d="M137.7237 136.5146 L140.3323 136.5146 "/>
<path d="M140.3323 136.5146 L139.9597 136.2662 "/>
<path d="M139.9597 136.2662 L139.7112 136.0177 "/>
<path d="M139.7112 136.0177 L139.5870 135.7693 "/>
<path d="M140.0839 138.2537 L140.2081 138.3779 "/>
<path d="M140.2081 138.3779 L140.3323 138.6264 "/>
<path d="M140.3323 138.6264 L140.3323 139.2474 "/>
<path d="M140.3323 139.2474 L140.2081 139.4959 "/>
<path d="M140.2081 139.4959 L140.0839 139.6201 "/>
<path d="M140.0839 139.6201 L139.8355 139.7443 "/>
<path d="M139.8355 139.7443 L139.5870 139.7443 "/>
<path d="M139.5870 139.7443 L139.2144 139.6201 "/>
<path d="M139.2144 139.6201 L137.7237 138.1295 "/>
<path d="M137.7237 138.1295 L137.7237 139.7443 "/>
</g><g transform="rotate(-90.000000 142.5424 135.7904)">
<text x="142.5424" y="137.0947" transform="scale(-1 1) translate(-285.084714 0)" textLength="5.4979" font-size="3.4781" lengthAdjust="spacingAndGlyphs" text-anchor="middle" opacity="0.01" style="font-family:monospace">1k</text>
</g>
<g class="stroked-text"><desc>1k</desc>
<path d="M141.3652 135.4799 L141.3652 133.9893 "/>
<path d="M141.3652 134.7346 L143.9738 134.7346 "/>
<path d="M143.9738 134.7346 L143.6011 134.4861 "/>
<path d="M143.6011 134.4861 L143.3527 134.2377 "/>
<path d="M143.3527 134.2377 L143.2285 133.9893 "/>
<path d="M141.3652 136.5979 L143.9738 136.5979 "/>
<path d="M142.3589 136.8463 L141.3652 137.5916 "/>
<path d="M143.1043 137.5916 L142.1105 136.5979 "/>
</g></g>
<g style="fill:#000084; fill-opacity:0.0;  stroke:#000084; stroke-width:0.3910; stroke-opacity:1;  stroke-linecap:round; stroke-linejoin:round;">
<g transform="rotate(-90.000000 137.4699 115.5969)">
<text x="137.4699" y="116.9002" transform="scale(-1 1) translate(-274.939736 0)" textLength="5.6694" font-size="3.4755" lengthAdjust="spacingAndGlyphs" text-anchor="middle" opacity="0.01" style="font-family:monospace">U2</text>
</g>
<g class="stroked-text"><desc>U2</desc>
<path d="M138.8910 113.6109 L136.7808 113.6109 "/>
<path d="M136.7808 113.6109 L136.5326 113.7351 "/>
<path d="M136.5326 113.7351 L136.4085 113.8592 "/>
<path d="M136.4085 113.8592 L136.2843 114.1074 "/>
<path d="M136.2843 114.1074 L136.2843 114.6039 "/>
<path d="M136.2843 114.6039 L136.4085 114.8522 "/>
<path d="M136.4085 114.8522 L136.5326 114.9763 "/>
<path d="M136.5326 114.9763 L136.7808 115.1004 "/>
<path d="M136.7808 115.1004 L138.8910 115.1004 "/>
<path d="M138.6427 116.2176 L138.7668 116.3417 "/>
<path d="M138.7668 116.3417 L138.8910 116.5899 "/>
<path d="M138.8910 116.5899 L138.8910 117.2105 "/>
<path d="M138.8910 117.2105 L138.7668 117.4588 "/>
<path d="M138.7668 117.4588 L138.6427 117.5829 "/>
<path d="M138.6427 117.5829 L138.3945 117.7070 "/>
<path d="M138.3945 117.7070 L138.1462 117.7070 "/>
<path d="M138.1462 117.7070 L137.7738 117.5829 "/>
<path d="M137.7738 117.5829 L136.2843 116.0934 "/>
<path d="M136.2843 116.0934 L136.2843 117.7070 "/>
</g></g>
<g style="fill:#000084; fill-opacity:0.0;  stroke:#000084; stroke-width:0.7820; stroke-opacity:1;  stroke-linecap:round; stroke-linejoin:round;">
<path d="M161.4117 56.0095 L156.1150 56.0095 "/>
<path d="M150.8184 56.0095 L145.5217 56.0095 "/>
<path d="M161.4117 48.0645 L161.4117 56.0095 "/>
<path d="M145.5217 48.0645 L150.8184 48.0645 "/>
<path d="M156.1150 48.0645 L161.4117 48.0645 "/>
<path d="M145.5217 56.0095 L145.5217 48.0645 "/>
<path d="M138.2388 103.6794 L132.9422 103.6794 "/>
<path d="M138.2388 95.7344 L138.2388 103.6794 "/>
<path d="M127.6455 103.6794 L122.3488 103.6794 "/>
<path d="M122.3488 95.7344 L127.6455 95.7344 "/>
<path d="M122.3488 103.6794 L122.3488 95.7344 "/>
<path d="M132.9422 95.7344 L138.2388 95.7344 "/>
<path d="M133.9353 158.3012 L133.9353 163.5979 "/>
<path d="M125.9903 153.0046 L125.9903 147.7079 "/>
<path d="M125.9903 147.7079 L133.9353 147.7079 "/>
<path d="M125.9903 163.5979 L125.9903 158.3012 "/>
<path d="M133.9353 147.7079 L133.9353 153.0046 "/>
<path d="M133.9353 163.5979 L125.9903 163.5979 "/>
<path d="M137.5767 154.3287 L142.8734 154.3287 "/>
<path d="M153.4667 162.2737 L148.1701 162.2737 "/>
<path d="M142.8734 162.2737 L137.5767 162.2737 "/>
<path d="M153.4667 154.3287 L153.4667 162.2737 "/>
<path d="M137.5767 162.2737 L137.5767 154.3287 "/>
<path d="M148.1701 154.3287 L153.4667 154.3287 "/>
</g>
<g style="fill:#000084; fill-opacity:0.0;  stroke:#000084; stroke-width:0.5213; stroke-opacity:1;  stroke-linecap:round; stroke-linejoin:round;">
<path d="M116.7158 183.7161 L112.8095 189.7146 "/>
<path d="M116.7158 183.7161 L116.7158 179.0153 "/>
<path d="M108.9013 175.1113 L124.5410 175.1113 "/>
<path d="M124.5410 199.0923 L108.9013 199.0923 "/>
<path d="M112.8095 189.7146 L120.8869 189.7146 "/>
<path d="M120.8869 183.7161 L112.5447 183.7161 "/>
<path d="M116.7158 183.7161 L120.8869 189.7146 "/>
<path d="M124.5410 199.0923 L124.5410 175.1113 "/>
<path d="M108.9013 199.0923 L108.9013 175.1113 "/>
<path d="M116.7158 189.7146 L116.7158 194.9186 "/>
</g>
<g style="fill:#000084; fill-opacity:0.0;  stroke:#000084; stroke-width:0.7820; stroke-opacity:1;  stroke-linecap:round; stroke-linejoin:round;">
<path d="M121.6868 146.0527 L116.3901 146.0527 "/>
<path d="M116.3901 146.0527 L116.3901 138.1077 "/>
<path d="M126.9834 138.1077 L132.2801 138.1077 "/>
<path d="M132.2801 138.1077 L132.2801 146.0527 "/>
<path d="M132.2801 146.0527 L126.9834 146.0527 "/>
<path d="M116.3901 138.1077 L121.6868 138.1077 "/>
<path d="M82.6636 146.4632 L113.9404 146.4632 "/>
<path d="M82.5445 164.1805 L113.8212 164.1805 "/>
<path d="M116.3901 127.5144 L121.6868 127.5144 "/>
<path d="M121.6868 135.4594 L116.3901 135.4594 "/>
<path d="M116.3901 135.4594 L116.3901 127.5144 "/>
<path d="M132.2801 127.5144 L132.2801 135.4594 "/>
<path d="M132.2801 135.4594 L126.9834 135.4594 "/>
<path d="M126.9834 127.5144 L132.2801 127.5144 "/>
<path d="M161.7427 71.8995 L156.4461 71.8995 "/>
<path d="M151.1494 71.8995 L145.8528 71.8995 "/>
<path d="M161.7427 63.9545 L161.7427 71.8995 "/>
<path d="M145.8528 63.9545 L151.1494 63.9545 "/>
<path d="M145.8528 71.8995 L145.8528 63.9545 "/>
<path d="M156.4461 63.9545 L161.7427 63.9545 "/>
<path d="M180.6121 63.9545 L185.9087 63.9545 "/>
<path d="M170.0188 71.8995 L170.0188 63.9545 "/>
<path d="M185.9087 63.9545 L185.9087 71.8995 "/>
<path d="M185.9087 71.8995 L180.6121 71.8995 "/>
<path d="M170.0188 63.9545 L175.3154 63.9545 "/>
<path d="M175.3154 71.8995 L170.0188 71.8995 "/>
<path d="M137.7356 45.7472 L106.4589 45.7472 "/>
<path d="M137.6165 63.4646 L106.3397 63.4646 "/>
</g>
<g style="fill:#000084; fill-opacity:0.0;  stroke:#000084; stroke-width:0.5213; stroke-opacity:1;  stroke-linecap:round; stroke-linejoin:round;">
<path d="M133.7476 71.7014 L133.7476 80.0426 "/>
<path d="M110.2880 71.7014 L133.7476 71.7014 "/>
<path d="M110.2880 80.0426 L110.2880 71.7014 "/>
<path d="M133.7476 80.0426 L110.2880 80.0426 "/>
</g>
<g style="fill:#000084; fill-opacity:0.0;  stroke:#000084; stroke-width:0.7820; stroke-opacity:1;  stroke-linecap:round; stroke-linejoin:round;">
<path d="M180.6121 77.1961 L180.6121 85.1411 "/>
<path d="M180.6121 85.1411 L175.3154 85.1411 "/>
<path d="M164.7221 85.1411 L164.7221 77.1961 "/>
<path d="M164.7221 77.1961 L170.0188 77.1961 "/>
<path d="M175.3154 77.1961 L180.6121 77.1961 "/>
<path d="M170.0188 85.1411 L164.7221 85.1411 "/>
<path d="M185.2467 135.4594 L179.9500 135.4594 "/>
<path d="M169.3567 127.5144 L174.6533 127.5144 "/>
<path d="M169.3567 135.4594 L169.3567 127.5144 "/>
<path d="M185.2467 127.5144 L185.2467 135.4594 "/>
<path d="M174.6533 135.4594 L169.3567 135.4594 "/>
<path d="M179.9500 127.5144 L185.2467 127.5144 "/>
<path d="M110.1003 27.8710 L110.1003 22.5744 "/>
<path d="M110.1003 22.5744 L118.0453 22.5744 "/>
<path d="M110.1003 38.4643 L110.1003 33.1677 "/>
<path d="M118.0453 33.1677 L118.0453 38.4643 "/>
<path d="M118.0453 22.5744 L118.0453 27.8710 "/>
<path d="M118.0453 38.4643 L110.1003 38.4643 "/>
<path d="M182.5983 48.0645 L182.5983 56.0095 "/>
<path d="M172.0050 56.0095 L166.7084 56.0095 "/>
<path d="M182.5983 56.0095 L177.3017 56.0095 "/>
<path d="M166.7084 56.0095 L166.7084 48.0645 "/>
<path d="M177.3017 48.0645 L182.5983 48.0645 "/>
<path d="M166.7084 48.0645 L172.0050 48.0645 "/>
<path d="M189.5502 147.0458 L189.5502 141.7492 "/>
<path d="M189.5502 131.1559 L197.4952 131.1559 "/>
<path d="M189.5502 136.4525 L189.5502 131.1559 "/>
<path d="M197.4952 147.0458 L189.5502 147.0458 "/>
<path d="M197.4952 141.7492 L197.4952 147.0458 "/>
<path d="M197.4952 131.1559 L197.4952 136.4525 "/>
<path d="M155.1219 99.3759 L163.0669 99.3759 "/>
<path d="M163.0669 99.3759 L163.0669 104.6726 "/>
<path d="M163.0669 115.2659 L155.1219 115.2659 "/>
<path d="M155.1219 104.6726 L155.1219 99.3759 "/>
<path d="M155.1219 115.2659 L155.1219 109.9692 "/>
<path d="M163.0669 109.9692 L163.0669 115.2659 "/>
<path d="M155.1219 144.3975 L147.1769 144.3975 "/>
<path d="M147.1769 144.3975 L147.1769 139.1008 "/>
<path d="M147.1769 133.8042 L147.1769 128.5075 "/>
<path d="M155.1219 128.5075 L155.1219 133.8042 "/>
<path d="M147.1769 128.5075 L155.1219 128.5075 "/>
<path d="M155.1219 139.1008 L155.1219 144.3975 "/>
<path d="M157.7703 133.8042 L157.7703 128.5075 "/>
<path d="M165.7152 139.1008 L165.7152 144.3975 "/>
<path d="M165.7152 144.3975 L157.7703 144.3975 "/>
<path d="M157.7703 128.5075 L165.7152 128.5075 "/>
<path d="M165.7152 128.5075 L165.7152 133.8042 "/>
<path d="M157.7703 144.3975 L157.7703 139.1008 "/>
<path d="M110.1003 92.0930 L110.1003 86.7963 "/>
<path d="M118.0453 102.6863 L110.1003 102.6863 "/>
<path d="M118.0453 97.3897 L118.0453 102.6863 "/>
<path d="M118.0453 86.7963 L118.0453 92.0930 "/>
<path d="M110.1003 102.6863 L110.1003 97.3897 "/>
<path d="M110.1003 86.7963 L118.0453 86.7963 "/>
<path d="M119.7005 111.6244 L124.9972 111.6244 "/>
<path d="M109.1072 111.6244 L114.4039 111.6244 "/>
<path d="M124.9972 119.5694 L119.7005 119.5694 "/>
<path d="M124.9972 111.6244 L124.9972 119.5694 "/>
<path d="M109.1072 119.5694 L109.1072 111.6244 "/>
<path d="M114.4039 119.5694 L109.1072 119.5694 "/>
<path d="M144.5286 144.3975 L136.5836 144.3975 "/>
<path d="M144.5286 128.5075 L144.5286 133.8042 "/>
<path d="M136.5836 128.5075 L144.5286 128.5075 "/>
<path d="M144.5286 139.1008 L144.5286 144.3975 "/>
<path d="M136.5836 133.8042 L136.5836 128.5075 "/>
<path d="M136.5836 144.3975 L136.5836 139.1008 "/>
</g>
<g style="fill:#000084; fill-opacity:0.0;  stroke:#000084; stroke-width:0.5213; stroke-opacity:1;  stroke-linecap:round; stroke-linejoin:round;">
<path d="M132.7779 123.6775 L132.7779 107.5164 "/>
<path d="M132.7779 123.6775 L138.7732 123.6775 "/>
<path d="M142.1618 120.2888 L142.1618 107.5164 "/>
<path d="M142.1618 120.2888 L138.7732 123.6775 "/>
<path d="M132.7779 107.5164 L142.1618 107.5164 "/>
<g>
</g>
<g>
</g>
<g>
</g>
<g>
</g>
<g>
</g>
<g>
</g>
<g>
</g>
<g>
</g>
<g>
</g>
<g>
</g>
<g>
</g>
<g>
</g>
<g>
</g>
<g>
</g>
<g>
</g>
<g>
</g>
<g>
</g>
<g>
</g>
<g>
</g>
<g>
</g>
<g>
</g>
<g>
</g>
<g>
</g>
<g>
</g>
<g>
</g>
<g>
</g>
<g>
</g>
<g>
</g>
<g>
</g>
<g>
</g>
<g>
</g>
<g>
</g>
<g>
</g>
<g>
</g>
<g>
</g>
<g>
</g>
<g>
</g>
<g>
</g>
<g>
</g>
<g>
</g>
<g>
</g>
<g>
</g>
</g> 
<svg:g><svg:g><svg:title>SVG Image created as SIPM02-Edge_Cuts.svg date 2023/07/20 11:52:53 </svg:title>
  <svg:desc>Image generated by PCBNEW </svg:desc>
<svg:g style="fill:#C2C200; fill-opacity:1.0000;stroke:#C2C200; stroke-opacity:1.0000; stroke-linecap:round; stroke-linejoin:round;" transform="translate(0 0) scale(1 1)">
</svg:g>
<svg:g style="fill:#C2C200; fill-opacity:0.0;  stroke:#C2C200; stroke-width:0.0000; stroke-opacity:1;  stroke-linecap:round; stroke-linejoin:round;">
</svg:g>
<svg:g style="fill:#C2C200; fill-opacity:0.0;  stroke:#C2C200; stroke-width:0.7820; stroke-opacity:1;  stroke-linecap:round; stroke-linejoin:round;">
<svg:path d="M70.3754 209.6126 L70.3754 0.3946 "/>
<svg:path d="M226.6268 209.6126 L226.6268 0.3946 "/>
<svg:path d="M226.6268 209.6126 L70.3754 209.6126 "/>
<svg:path d="M226.6268 0.3946 L70.3754 0.3946 "/>
<svg:g>
</svg:g>
<svg:g>
</svg:g>
<svg:g>
</svg:g>
<svg:g>
</svg:g>
<svg:g>
</svg:g>
<svg:g>
</svg:g>
<svg:g>
</svg:g>
<svg:g>
</svg:g>
<svg:g>
</svg:g>
<svg:g>
</svg:g>
<svg:g>
</svg:g>
<svg:g>
</svg:g>
<svg:g>
</svg:g>
<svg:g>
</svg:g>
<svg:g>
</svg:g>
<svg:g>
</svg:g>
<svg:g>
</svg:g>
<svg:g>
</svg:g>
<svg:g>
</svg:g>
<svg:g>
</svg:g>
<svg:g>
</svg:g>
<svg:g>
</svg:g>
<svg:g>
</svg:g>
<svg:g>
</svg:g>
<svg:g>
</svg:g>
<svg:g>
</svg:g>
<svg:g>
</svg:g>
<svg:g>
</svg:g>
<svg:g>
</svg:g>
<svg:g>
</svg:g>
<svg:g>
</svg:g>
<svg:g>
</svg:g>
<svg:g>
</svg:g>
<svg:g>
</svg:g>
<svg:g>
</svg:g>
<svg:g>
</svg:g>
<svg:g>
</svg:g>
<svg:g>
</svg:g>
<svg:g>
</svg:g>
<svg:g>
</svg:g>
<svg:g>
</svg:g>
<svg:g>
</svg:g>
</svg:g> 
</svg:g></svg:g></svg>
