<?xml version='1.0' encoding='ASCII' standalone='yes'?>
<svg xmlns:svg="http://www.w3.org/2000/svg" xmlns="http://www.w3.org/2000/svg" xmlns:xlink="http://www.w3.org/1999/xlink" version="1.1" width="297.0022mm" height="210.0072mm" viewBox="0.0000 0.0000 297.0022 210.0072">
<title>SVG Image created as SIPM02-F_Fab.svg date 2023/07/21 01:19:16 </title>
  <desc>Image generated by PCBNEW </desc>
<g style="fill:#848484; fill-opacity:1.0000;stroke:#848484; stroke-opacity:1.0000; stroke-linecap:round; stroke-linejoin:round;" transform="translate(0 0) scale(1 1)">
</g>
<g style="fill:#848484; fill-opacity:0.0;  stroke:#848484; stroke-width:0.0000; stroke-opacity:1;  stroke-linecap:round; stroke-linejoin:round;">
</g>
<g style="fill:#848484; fill-opacity:0.01;  stroke:#848484; stroke-width:0.7820; stroke-opacity:1;  stroke-linecap:round; stroke-linejoin:round;">
<text x="121.9516" y="110.2586" textLength="11.3388" font-size="6.9510" lengthAdjust="spacingAndGlyphs" text-anchor="middle" opacity="0.01" style="font-family:monospace">U1</text>
<g class="stroked-text"><desc>U1</desc>
<path d="M117.9796 104.8098 L117.9796 109.0300 "/>
<path d="M117.9796 109.0300 L118.2279 109.5265 "/>
<path d="M118.2279 109.5265 L118.4761 109.7748 "/>
<path d="M118.4761 109.7748 L118.9726 110.0230 "/>
<path d="M118.9726 110.0230 L119.9656 110.0230 "/>
<path d="M119.9656 110.0230 L120.4621 109.7748 "/>
<path d="M120.4621 109.7748 L120.7103 109.5265 "/>
<path d="M120.7103 109.5265 L120.9586 109.0300 "/>
<path d="M120.9586 109.0300 L120.9586 104.8098 "/>
<path d="M126.1718 110.0230 L123.1928 110.0230 "/>
<path d="M124.6823 110.0230 L124.6823 104.8098 "/>
<path d="M124.6823 104.8098 L124.1858 105.5545 "/>
<path d="M124.1858 105.5545 L123.6893 106.0510 "/>
<path d="M123.6893 106.0510 L123.1928 106.2993 "/>
</g><path d="M220.0060 108.9761 L193.5227 108.9761 "/>
<path d="M193.5227 95.7344 L220.0060 95.7344 "/>
<path d="M193.5227 108.9761 L193.5227 95.7344 "/>
<path d="M220.0060 95.7344 L220.0060 108.9761 "/>
<path d="M193.5227 108.9761 L220.0060 108.9761 "/>
<path d="M220.0060 122.2177 L193.5227 122.2177 "/>
<path d="M193.5227 122.2177 L193.5227 108.9761 "/>
<path d="M220.0060 108.9761 L220.0060 122.2177 "/>
<path d="M220.0060 191.0743 L220.0060 204.3160 "/>
<path d="M193.5227 204.3160 L193.5227 191.0743 "/>
<path d="M220.0060 204.3160 L193.5227 204.3160 "/>
<path d="M193.5227 191.0743 L220.0060 191.0743 "/>
<path d="M220.0060 135.4594 L193.5227 135.4594 "/>
<path d="M193.5227 135.4594 L193.5227 122.2177 "/>
<path d="M193.5227 122.2177 L220.0060 122.2177 "/>
<path d="M220.0060 122.2177 L220.0060 135.4594 "/>
<path d="M140.2642 123.2500 L103.7714 123.2500 "/>
<path d="M140.2642 86.7572 L140.2642 123.2500 "/>
<path d="M103.7714 86.7572 L140.2642 86.7572 "/>
<path d="M103.7714 123.2500 L103.7714 86.7572 "/>
<circle cx="107.2534" cy="110.3665" r="2.0937"/> 
<path d="M220.0060 32.1745 L220.0060 45.4162 "/>
<path d="M220.0060 45.4162 L193.5227 45.4162 "/>
<path d="M193.5227 32.1745 L220.0060 32.1745 "/>
<path d="M193.5227 45.4162 L193.5227 32.1745 "/>
<path d="M220.0060 18.9329 L220.0060 32.1745 "/>
<path d="M220.0060 32.1745 L193.5227 32.1745 "/>
<path d="M193.5227 32.1745 L193.5227 18.9329 "/>
<path d="M193.5227 18.9329 L220.0060 18.9329 "/>
<path d="M220.0060 5.6913 L220.0060 18.9329 "/>
<path d="M193.5227 5.6913 L220.0060 5.6913 "/>
<path d="M193.5227 18.9329 L193.5227 5.6913 "/>
<path d="M220.0060 18.9329 L193.5227 18.9329 "/>
<path d="M220.0060 177.8327 L220.0060 191.0743 "/>
<path d="M193.5227 191.0743 L193.5227 177.8327 "/>
<path d="M220.0060 191.0743 L193.5227 191.0743 "/>
<path d="M193.5227 177.8327 L220.0060 177.8327 "/>
<path d="M220.0060 164.5910 L220.0060 177.8327 "/>
<path d="M193.5227 177.8327 L193.5227 164.5910 "/>
<path d="M193.5227 164.5910 L220.0060 164.5910 "/>
<path d="M220.0060 177.8327 L193.5227 177.8327 "/>
<path d="M220.0060 95.7344 L193.5227 95.7344 "/>
<path d="M220.0060 82.4928 L220.0060 95.7344 "/>
<path d="M193.5227 95.7344 L193.5227 82.4928 "/>
<path d="M193.5227 82.4928 L220.0060 82.4928 "/>
<g>
</g>
<g>
</g>
<g>
</g>
<g>
</g>
<g>
</g>
<g>
</g>
<g>
</g>
<g>
</g>
<g>
</g>
<g>
</g>
<g>
</g>
<g>
</g>
<g>
</g>
<g>
</g>
<g>
</g>
<g>
</g>
<g>
</g>
<g>
</g>
<g>
</g>
<g>
</g>
<g>
</g>
<g>
</g>
<g>
</g>
<g>
</g>
<g>
</g>
<g>
</g>
<g>
</g>
<g>
</g>
<g>
</g>
<g>
</g>
<g>
</g>
<g>
</g>
<g>
</g>
<g>
</g>
<g>
</g>
<g>
</g>
<g>
</g>
<g>
</g>
<g>
</g>
<g>
</g>
<g>
</g>
<g>
</g>
</g> 
<svg:g><svg:g><svg:title>SVG Image created as SIPM02-Edge_Cuts.svg date 2023/07/21 01:19:16 </svg:title>
  <svg:desc>Image generated by PCBNEW </svg:desc>
<svg:g style="fill:#C2C200; fill-opacity:1.0000;stroke:#C2C200; stroke-opacity:1.0000; stroke-linecap:round; stroke-linejoin:round;" transform="translate(0 0) scale(1 1)">
</svg:g>
<svg:g style="fill:#C2C200; fill-opacity:0.0;  stroke:#C2C200; stroke-width:0.0000; stroke-opacity:1;  stroke-linecap:round; stroke-linejoin:round;">
</svg:g>
<svg:g style="fill:#C2C200; fill-opacity:0.0;  stroke:#C2C200; stroke-width:0.7820; stroke-opacity:1;  stroke-linecap:round; stroke-linejoin:round;">
<svg:path d="M226.6268 209.6126 L226.6268 0.3946 "/>
<svg:path d="M70.3754 209.6126 L70.3754 0.3946 "/>
<svg:path d="M70.3754 209.6126 L226.6268 209.6126 "/>
<svg:path d="M70.3754 0.3946 L226.6268 0.3946 "/>
<svg:g>
</svg:g>
<svg:g>
</svg:g>
<svg:g>
</svg:g>
<svg:g>
</svg:g>
<svg:g>
</svg:g>
<svg:g>
</svg:g>
<svg:g>
</svg:g>
<svg:g>
</svg:g>
<svg:g>
</svg:g>
<svg:g>
</svg:g>
<svg:g>
</svg:g>
<svg:g>
</svg:g>
<svg:g>
</svg:g>
<svg:g>
</svg:g>
<svg:g>
</svg:g>
<svg:g>
</svg:g>
<svg:g>
</svg:g>
<svg:g>
</svg:g>
<svg:g>
</svg:g>
<svg:g>
</svg:g>
<svg:g>
</svg:g>
<svg:g>
</svg:g>
<svg:g>
</svg:g>
<svg:g>
</svg:g>
<svg:g>
</svg:g>
<svg:g>
</svg:g>
<svg:g>
</svg:g>
<svg:g>
</svg:g>
<svg:g>
</svg:g>
<svg:g>
</svg:g>
<svg:g>
</svg:g>
<svg:g>
</svg:g>
<svg:g>
</svg:g>
<svg:g>
</svg:g>
<svg:g>
</svg:g>
<svg:g>
</svg:g>
<svg:g>
</svg:g>
<svg:g>
</svg:g>
<svg:g>
</svg:g>
<svg:g>
</svg:g>
<svg:g>
</svg:g>
<svg:g>
</svg:g>
</svg:g> 
</svg:g></svg:g></svg>
