<?xml version='1.0' encoding='ASCII' standalone='yes'?>
<svg xmlns:svg="http://www.w3.org/2000/svg" xmlns="http://www.w3.org/2000/svg" xmlns:xlink="http://www.w3.org/1999/xlink" version="1.1" width="297.0022mm" height="210.0072mm" viewBox="0.0000 0.0000 297.0022 210.0072">
<title>SVG Image created as SIPM02-B_Fab.svg date 2023/07/05 01:38:45 </title>
  <desc>Image generated by PCBNEW </desc>
<g style="fill:#000084; fill-opacity:1.0000;stroke:#000084; stroke-opacity:1.0000; stroke-linecap:round; stroke-linejoin:round;" transform="translate(0 0) scale(1 1)">
</g>
<g style="fill:#000084; fill-opacity:0.0;  stroke:#000084; stroke-width:0.0000; stroke-opacity:1;  stroke-linecap:round; stroke-linejoin:round;">
</g>
<g style="fill:#000084; fill-opacity:0.01;  stroke:#000084; stroke-width:0.5694; stroke-opacity:1;  stroke-linecap:round; stroke-linejoin:round;">
<text x="143.5355" y="54.9965" transform="scale(-1 1) translate(-287.070970 0)" textLength="5.9947" font-size="3.4781" lengthAdjust="spacingAndGlyphs" text-anchor="middle" opacity="0.01" style="font-family:monospace">C5</text>
<g class="stroked-text"><desc>C5</desc>
<path d="M143.9702 54.6210 L144.0945 54.7452 "/>
<path d="M144.0945 54.7452 L144.4671 54.8694 "/>
<path d="M144.4671 54.8694 L144.7156 54.8694 "/>
<path d="M144.7156 54.8694 L145.0882 54.7452 "/>
<path d="M145.0882 54.7452 L145.3367 54.4967 "/>
<path d="M145.3367 54.4967 L145.4609 54.2483 "/>
<path d="M145.4609 54.2483 L145.5851 53.7514 "/>
<path d="M145.5851 53.7514 L145.5851 53.3788 "/>
<path d="M145.5851 53.3788 L145.4609 52.8819 "/>
<path d="M145.4609 52.8819 L145.3367 52.6335 "/>
<path d="M145.3367 52.6335 L145.0882 52.3850 "/>
<path d="M145.0882 52.3850 L144.7156 52.2608 "/>
<path d="M144.7156 52.2608 L144.4671 52.2608 "/>
<path d="M144.4671 52.2608 L144.0945 52.3850 "/>
<path d="M144.0945 52.3850 L143.9702 52.5092 "/>
<path d="M141.6101 52.2608 L142.8523 52.2608 "/>
<path d="M142.8523 52.2608 L142.9765 53.5030 "/>
<path d="M142.9765 53.5030 L142.8523 53.3788 "/>
<path d="M142.8523 53.3788 L142.6038 53.2546 "/>
<path d="M142.6038 53.2546 L141.9827 53.2546 "/>
<path d="M141.9827 53.2546 L141.7343 53.3788 "/>
<path d="M141.7343 53.3788 L141.6101 53.5030 "/>
<path d="M141.6101 53.5030 L141.4859 53.7514 "/>
<path d="M141.4859 53.7514 L141.4859 54.3725 "/>
<path d="M141.4859 54.3725 L141.6101 54.6210 "/>
<path d="M141.6101 54.6210 L141.7343 54.7452 "/>
<path d="M141.7343 54.7452 L141.9827 54.8694 "/>
<path d="M141.9827 54.8694 L142.6038 54.8694 "/>
<path d="M142.6038 54.8694 L142.8523 54.7452 "/>
<path d="M142.8523 54.7452 L142.9765 54.6210 "/>
</g><text x="144.1976" y="51.3551" transform="scale(-1 1) translate(-288.395134 0)" textLength="12.9510" font-size="3.4781" lengthAdjust="spacingAndGlyphs" text-anchor="middle" opacity="0.01" style="font-family:monospace">100nF</text>
<g class="stroked-text"><desc>100nF</desc>
<path d="M148.2347 51.2280 L149.7253 51.2280 "/>
<path d="M148.9800 51.2280 L148.9800 48.6193 "/>
<path d="M148.9800 48.6193 L149.2284 48.9920 "/>
<path d="M149.2284 48.9920 L149.4769 49.2404 "/>
<path d="M149.4769 49.2404 L149.7253 49.3647 "/>
<path d="M146.6198 48.6193 L146.3714 48.6193 "/>
<path d="M146.3714 48.6193 L146.1230 48.7436 "/>
<path d="M146.1230 48.7436 L145.9987 48.8678 "/>
<path d="M145.9987 48.8678 L145.8745 49.1162 "/>
<path d="M145.8745 49.1162 L145.7503 49.6131 "/>
<path d="M145.7503 49.6131 L145.7503 50.2342 "/>
<path d="M145.7503 50.2342 L145.8745 50.7311 "/>
<path d="M145.8745 50.7311 L145.9987 50.9795 "/>
<path d="M145.9987 50.9795 L146.1230 51.1037 "/>
<path d="M146.1230 51.1037 L146.3714 51.2280 "/>
<path d="M146.3714 51.2280 L146.6198 51.2280 "/>
<path d="M146.6198 51.2280 L146.8683 51.1037 "/>
<path d="M146.8683 51.1037 L146.9925 50.9795 "/>
<path d="M146.9925 50.9795 L147.1167 50.7311 "/>
<path d="M147.1167 50.7311 L147.2409 50.2342 "/>
<path d="M147.2409 50.2342 L147.2409 49.6131 "/>
<path d="M147.2409 49.6131 L147.1167 49.1162 "/>
<path d="M147.1167 49.1162 L146.9925 48.8678 "/>
<path d="M146.9925 48.8678 L146.8683 48.7436 "/>
<path d="M146.8683 48.7436 L146.6198 48.6193 "/>
<path d="M144.1355 48.6193 L143.8870 48.6193 "/>
<path d="M143.8870 48.6193 L143.6386 48.7436 "/>
<path d="M143.6386 48.7436 L143.5144 48.8678 "/>
<path d="M143.5144 48.8678 L143.3901 49.1162 "/>
<path d="M143.3901 49.1162 L143.2659 49.6131 "/>
<path d="M143.2659 49.6131 L143.2659 50.2342 "/>
<path d="M143.2659 50.2342 L143.3901 50.7311 "/>
<path d="M143.3901 50.7311 L143.5144 50.9795 "/>
<path d="M143.5144 50.9795 L143.6386 51.1037 "/>
<path d="M143.6386 51.1037 L143.8870 51.2280 "/>
<path d="M143.8870 51.2280 L144.1355 51.2280 "/>
<path d="M144.1355 51.2280 L144.3839 51.1037 "/>
<path d="M144.3839 51.1037 L144.5081 50.9795 "/>
<path d="M144.5081 50.9795 L144.6323 50.7311 "/>
<path d="M144.6323 50.7311 L144.7566 50.2342 "/>
<path d="M144.7566 50.2342 L144.7566 49.6131 "/>
<path d="M144.7566 49.6131 L144.6323 49.1162 "/>
<path d="M144.6323 49.1162 L144.5081 48.8678 "/>
<path d="M144.5081 48.8678 L144.3839 48.7436 "/>
<path d="M144.3839 48.7436 L144.1355 48.6193 "/>
<path d="M142.1479 49.4889 L142.1479 51.2280 "/>
<path d="M142.1479 49.7373 L142.0237 49.6131 "/>
<path d="M142.0237 49.6131 L141.7753 49.4889 "/>
<path d="M141.7753 49.4889 L141.4026 49.4889 "/>
<path d="M141.4026 49.4889 L141.1542 49.6131 "/>
<path d="M141.1542 49.6131 L141.0300 49.8615 "/>
<path d="M141.0300 49.8615 L141.0300 51.2280 "/>
<path d="M138.9182 49.8615 L139.7878 49.8615 "/>
<path d="M139.7878 51.2280 L139.7878 48.6193 "/>
<path d="M139.7878 48.6193 L138.5456 48.6193 "/>
</g><text x="166.7084" y="102.6665" transform="scale(-1 1) translate(-333.416732 0)" textLength="8.4791" font-size="3.4781" lengthAdjust="spacingAndGlyphs" text-anchor="middle" opacity="0.01" style="font-family:monospace">R10</text>
<g class="stroked-text"><desc>R10</desc>
<path d="M168.3853 102.5393 L169.2549 101.2971 "/>
<path d="M169.8760 102.5393 L169.8760 99.9307 "/>
<path d="M169.8760 99.9307 L168.8822 99.9307 "/>
<path d="M168.8822 99.9307 L168.6338 100.0549 "/>
<path d="M168.6338 100.0549 L168.5095 100.1792 "/>
<path d="M168.5095 100.1792 L168.3853 100.4276 "/>
<path d="M168.3853 100.4276 L168.3853 100.8003 "/>
<path d="M168.3853 100.8003 L168.5095 101.0487 "/>
<path d="M168.5095 101.0487 L168.6338 101.1729 "/>
<path d="M168.6338 101.1729 L168.8822 101.2971 "/>
<path d="M168.8822 101.2971 L169.8760 101.2971 "/>
<path d="M165.9009 102.5393 L167.3916 102.5393 "/>
<path d="M166.6463 102.5393 L166.6463 99.9307 "/>
<path d="M166.6463 99.9307 L166.8947 100.3034 "/>
<path d="M166.8947 100.3034 L167.1431 100.5518 "/>
<path d="M167.1431 100.5518 L167.3916 100.6760 "/>
<path d="M164.2861 99.9307 L164.0377 99.9307 "/>
<path d="M164.0377 99.9307 L163.7892 100.0549 "/>
<path d="M163.7892 100.0549 L163.6650 100.1792 "/>
<path d="M163.6650 100.1792 L163.5408 100.4276 "/>
<path d="M163.5408 100.4276 L163.4166 100.9245 "/>
<path d="M163.4166 100.9245 L163.4166 101.5456 "/>
<path d="M163.4166 101.5456 L163.5408 102.0425 "/>
<path d="M163.5408 102.0425 L163.6650 102.2909 "/>
<path d="M163.6650 102.2909 L163.7892 102.4151 "/>
<path d="M163.7892 102.4151 L164.0377 102.5393 "/>
<path d="M164.0377 102.5393 L164.2861 102.5393 "/>
<path d="M164.2861 102.5393 L164.5345 102.4151 "/>
<path d="M164.5345 102.4151 L164.6587 102.2909 "/>
<path d="M164.6587 102.2909 L164.7830 102.0425 "/>
<path d="M164.7830 102.0425 L164.9072 101.5456 "/>
<path d="M164.9072 101.5456 L164.9072 100.9245 "/>
<path d="M164.9072 100.9245 L164.7830 100.4276 "/>
<path d="M164.7830 100.4276 L164.6587 100.1792 "/>
<path d="M164.6587 100.1792 L164.5345 100.0549 "/>
<path d="M164.5345 100.0549 L164.2861 99.9307 "/>
</g><text x="167.3704" y="99.0250" transform="scale(-1 1) translate(-334.740897 0)" textLength="7.9823" font-size="3.4781" lengthAdjust="spacingAndGlyphs" text-anchor="middle" opacity="0.01" style="font-family:monospace">12k</text>
<g class="stroked-text"><desc>12k</desc>
<path d="M168.9232 98.8979 L170.4138 98.8979 "/>
<path d="M169.6685 98.8979 L169.6685 96.2893 "/>
<path d="M169.6685 96.2893 L169.9169 96.6619 "/>
<path d="M169.9169 96.6619 L170.1654 96.9104 "/>
<path d="M170.1654 96.9104 L170.4138 97.0346 "/>
<path d="M167.9294 96.5377 L167.8052 96.4135 "/>
<path d="M167.8052 96.4135 L167.5568 96.2893 "/>
<path d="M167.5568 96.2893 L166.9357 96.2893 "/>
<path d="M166.9357 96.2893 L166.6872 96.4135 "/>
<path d="M166.6872 96.4135 L166.5630 96.5377 "/>
<path d="M166.5630 96.5377 L166.4388 96.7862 "/>
<path d="M166.4388 96.7862 L166.4388 97.0346 "/>
<path d="M166.4388 97.0346 L166.5630 97.4073 "/>
<path d="M166.5630 97.4073 L168.0537 98.8979 "/>
<path d="M168.0537 98.8979 L166.4388 98.8979 "/>
<path d="M165.3208 98.8979 L165.3208 96.2893 "/>
<path d="M165.0724 97.9041 L164.3271 98.8979 "/>
<path d="M164.3271 97.1588 L165.3208 98.1526 "/>
</g><g transform="rotate(-90.000000 165.3842 155.6529)">
<text x="165.3842" y="156.9572" transform="scale(-1 1) translate(-330.768403 0)" textLength="5.9947" font-size="3.4781" lengthAdjust="spacingAndGlyphs" text-anchor="middle" opacity="0.01" style="font-family:monospace">R3</text>
</g>
<g class="stroked-text"><desc>R3</desc>
<path d="M166.5614 155.2181 L165.3192 154.3486 "/>
<path d="M166.5614 153.7275 L163.9528 153.7275 "/>
<path d="M163.9528 153.7275 L163.9528 154.7213 "/>
<path d="M163.9528 154.7213 L164.0770 154.9697 "/>
<path d="M164.0770 154.9697 L164.2012 155.0939 "/>
<path d="M164.2012 155.0939 L164.4497 155.2181 "/>
<path d="M164.4497 155.2181 L164.8223 155.2181 "/>
<path d="M164.8223 155.2181 L165.0707 155.0939 "/>
<path d="M165.0707 155.0939 L165.1950 154.9697 "/>
<path d="M165.1950 154.9697 L165.3192 154.7213 "/>
<path d="M165.3192 154.7213 L165.3192 153.7275 "/>
<path d="M163.9528 156.0877 L163.9528 157.7025 "/>
<path d="M163.9528 157.7025 L164.9465 156.8330 "/>
<path d="M164.9465 156.8330 L164.9465 157.2056 "/>
<path d="M164.9465 157.2056 L165.0707 157.4541 "/>
<path d="M165.0707 157.4541 L165.1950 157.5783 "/>
<path d="M165.1950 157.5783 L165.4434 157.7025 "/>
<path d="M165.4434 157.7025 L166.0645 157.7025 "/>
<path d="M166.0645 157.7025 L166.3129 157.5783 "/>
<path d="M166.3129 157.5783 L166.4372 157.4541 "/>
<path d="M166.4372 157.4541 L166.5614 157.2056 "/>
<path d="M166.5614 157.2056 L166.5614 156.4603 "/>
<path d="M166.5614 156.4603 L166.4372 156.2119 "/>
<path d="M166.4372 156.2119 L166.3129 156.0877 "/>
</g><g transform="rotate(-90.000000 169.0257 156.3150)">
<text x="169.0257" y="157.6193" transform="scale(-1 1) translate(-338.051308 0)" textLength="10.9635" font-size="3.4781" lengthAdjust="spacingAndGlyphs" text-anchor="middle" opacity="0.01" style="font-family:monospace">100R</text>
</g>
<g class="stroked-text"><desc>100R</desc>
<path d="M170.2028 153.2716 L170.2028 151.7810 "/>
<path d="M170.2028 152.5263 L167.5942 152.5263 "/>
<path d="M167.5942 152.5263 L167.9669 152.2779 "/>
<path d="M167.9669 152.2779 L168.2153 152.0294 "/>
<path d="M168.2153 152.0294 L168.3395 151.7810 "/>
<path d="M167.5942 154.8865 L167.5942 155.1349 "/>
<path d="M167.5942 155.1349 L167.7184 155.3833 "/>
<path d="M167.7184 155.3833 L167.8427 155.5076 "/>
<path d="M167.8427 155.5076 L168.0911 155.6318 "/>
<path d="M168.0911 155.6318 L168.5880 155.7560 "/>
<path d="M168.5880 155.7560 L169.2091 155.7560 "/>
<path d="M169.2091 155.7560 L169.7060 155.6318 "/>
<path d="M169.7060 155.6318 L169.9544 155.5076 "/>
<path d="M169.9544 155.5076 L170.0786 155.3833 "/>
<path d="M170.0786 155.3833 L170.2028 155.1349 "/>
<path d="M170.2028 155.1349 L170.2028 154.8865 "/>
<path d="M170.2028 154.8865 L170.0786 154.6380 "/>
<path d="M170.0786 154.6380 L169.9544 154.5138 "/>
<path d="M169.9544 154.5138 L169.7060 154.3896 "/>
<path d="M169.7060 154.3896 L169.2091 154.2654 "/>
<path d="M169.2091 154.2654 L168.5880 154.2654 "/>
<path d="M168.5880 154.2654 L168.0911 154.3896 "/>
<path d="M168.0911 154.3896 L167.8427 154.5138 "/>
<path d="M167.8427 154.5138 L167.7184 154.6380 "/>
<path d="M167.7184 154.6380 L167.5942 154.8865 "/>
<path d="M167.5942 157.3708 L167.5942 157.6193 "/>
<path d="M167.5942 157.6193 L167.7184 157.8677 "/>
<path d="M167.7184 157.8677 L167.8427 157.9919 "/>
<path d="M167.8427 157.9919 L168.0911 158.1162 "/>
<path d="M168.0911 158.1162 L168.5880 158.2404 "/>
<path d="M168.5880 158.2404 L169.2091 158.2404 "/>
<path d="M169.2091 158.2404 L169.7060 158.1162 "/>
<path d="M169.7060 158.1162 L169.9544 157.9919 "/>
<path d="M169.9544 157.9919 L170.0786 157.8677 "/>
<path d="M170.0786 157.8677 L170.2028 157.6193 "/>
<path d="M170.2028 157.6193 L170.2028 157.3708 "/>
<path d="M170.2028 157.3708 L170.0786 157.1224 "/>
<path d="M170.0786 157.1224 L169.9544 156.9982 "/>
<path d="M169.9544 156.9982 L169.7060 156.8740 "/>
<path d="M169.7060 156.8740 L169.2091 156.7498 "/>
<path d="M169.2091 156.7498 L168.5880 156.7498 "/>
<path d="M168.5880 156.7498 L168.0911 156.8740 "/>
<path d="M168.0911 156.8740 L167.8427 156.9982 "/>
<path d="M167.8427 156.9982 L167.7184 157.1224 "/>
<path d="M167.7184 157.1224 L167.5942 157.3708 "/>
<path d="M170.2028 160.8490 L168.9606 159.9795 "/>
<path d="M170.2028 159.3584 L167.5942 159.3584 "/>
<path d="M167.5942 159.3584 L167.5942 160.3521 "/>
<path d="M167.5942 160.3521 L167.7184 160.6005 "/>
<path d="M167.7184 160.6005 L167.8427 160.7248 "/>
<path d="M167.8427 160.7248 L168.0911 160.8490 "/>
<path d="M168.0911 160.8490 L168.4638 160.8490 "/>
<path d="M168.4638 160.8490 L168.7122 160.7248 "/>
<path d="M168.7122 160.7248 L168.8364 160.6005 "/>
<path d="M168.8364 160.6005 L168.9606 160.3521 "/>
<path d="M168.9606 160.3521 L168.9606 159.3584 "/>
</g><text x="151.4805" y="157.9503" transform="scale(-1 1) translate(-302.960945 0)" textLength="5.9947" font-size="3.4781" lengthAdjust="spacingAndGlyphs" text-anchor="middle" opacity="0.01" style="font-family:monospace">C4</text>
<g class="stroked-text"><desc>C4</desc>
<path d="M151.9152 157.5748 L152.0395 157.6990 "/>
<path d="M152.0395 157.6990 L152.4121 157.8232 "/>
<path d="M152.4121 157.8232 L152.6606 157.8232 "/>
<path d="M152.6606 157.8232 L153.0332 157.6990 "/>
<path d="M153.0332 157.6990 L153.2816 157.4505 "/>
<path d="M153.2816 157.4505 L153.4059 157.2021 "/>
<path d="M153.4059 157.2021 L153.5301 156.7052 "/>
<path d="M153.5301 156.7052 L153.5301 156.3326 "/>
<path d="M153.5301 156.3326 L153.4059 155.8357 "/>
<path d="M153.4059 155.8357 L153.2816 155.5873 "/>
<path d="M153.2816 155.5873 L153.0332 155.3388 "/>
<path d="M153.0332 155.3388 L152.6606 155.2146 "/>
<path d="M152.6606 155.2146 L152.4121 155.2146 "/>
<path d="M152.4121 155.2146 L152.0395 155.3388 "/>
<path d="M152.0395 155.3388 L151.9152 155.4630 "/>
<path d="M149.6793 156.0841 L149.6793 157.8232 "/>
<path d="M150.3004 155.0904 L150.9215 156.9537 "/>
<path d="M150.9215 156.9537 L149.3066 156.9537 "/>
</g><text x="150.8184" y="161.5918" transform="scale(-1 1) translate(-301.636781 0)" textLength="8.2307" font-size="3.4781" lengthAdjust="spacingAndGlyphs" text-anchor="middle" opacity="0.01" style="font-family:monospace">10u</text>
<g class="stroked-text"><desc>10u</desc>
<path d="M152.4953 161.4647 L153.9860 161.4647 "/>
<path d="M153.2407 161.4647 L153.2407 158.8561 "/>
<path d="M153.2407 158.8561 L153.4891 159.2287 "/>
<path d="M153.4891 159.2287 L153.7375 159.4771 "/>
<path d="M153.7375 159.4771 L153.9860 159.6014 "/>
<path d="M150.8805 158.8561 L150.6321 158.8561 "/>
<path d="M150.6321 158.8561 L150.3836 158.9803 "/>
<path d="M150.3836 158.9803 L150.2594 159.1045 "/>
<path d="M150.2594 159.1045 L150.1352 159.3529 "/>
<path d="M150.1352 159.3529 L150.0110 159.8498 "/>
<path d="M150.0110 159.8498 L150.0110 160.4709 "/>
<path d="M150.0110 160.4709 L150.1352 160.9678 "/>
<path d="M150.1352 160.9678 L150.2594 161.2162 "/>
<path d="M150.2594 161.2162 L150.3836 161.3404 "/>
<path d="M150.3836 161.3404 L150.6321 161.4647 "/>
<path d="M150.6321 161.4647 L150.8805 161.4647 "/>
<path d="M150.8805 161.4647 L151.1289 161.3404 "/>
<path d="M151.1289 161.3404 L151.2532 161.2162 "/>
<path d="M151.2532 161.2162 L151.3774 160.9678 "/>
<path d="M151.3774 160.9678 L151.5016 160.4709 "/>
<path d="M151.5016 160.4709 L151.5016 159.8498 "/>
<path d="M151.5016 159.8498 L151.3774 159.3529 "/>
<path d="M151.3774 159.3529 L151.2532 159.1045 "/>
<path d="M151.2532 159.1045 L151.1289 158.9803 "/>
<path d="M151.1289 158.9803 L150.8805 158.8561 "/>
<path d="M147.7750 159.7256 L147.7750 161.4647 "/>
<path d="M148.8930 159.7256 L148.8930 161.0920 "/>
<path d="M148.8930 161.0920 L148.7688 161.3404 "/>
<path d="M148.7688 161.3404 L148.5203 161.4647 "/>
<path d="M148.5203 161.4647 L148.1477 161.4647 "/>
<path d="M148.1477 161.4647 L147.8992 161.3404 "/>
<path d="M147.8992 161.3404 L147.7750 161.2162 "/>
</g></g>
<g style="fill:#000084; fill-opacity:0.0;  stroke:#000084; stroke-width:0.7820; stroke-opacity:1;  stroke-linecap:round; stroke-linejoin:round;">
<g transform="rotate(-90.000000 167.2479 187.1018)">
<text x="167.2479" y="189.7084" transform="scale(-1 1) translate(-334.495874 0)" textLength="11.0906" font-size="6.9510" lengthAdjust="spacingAndGlyphs" text-anchor="middle" opacity="0.01" style="font-family:monospace">D1</text>
</g>
<g class="stroked-text"><desc>D1</desc>
<path d="M169.6190 183.2539 L164.4058 183.2539 "/>
<path d="M164.4058 183.2539 L164.4058 184.4952 "/>
<path d="M164.4058 184.4952 L164.6540 185.2399 "/>
<path d="M164.6540 185.2399 L165.1505 185.7364 "/>
<path d="M165.1505 185.7364 L165.6470 185.9847 "/>
<path d="M165.6470 185.9847 L166.6400 186.2329 "/>
<path d="M166.6400 186.2329 L167.3848 186.2329 "/>
<path d="M167.3848 186.2329 L168.3778 185.9847 "/>
<path d="M168.3778 185.9847 L168.8743 185.7364 "/>
<path d="M168.8743 185.7364 L169.3708 185.2399 "/>
<path d="M169.3708 185.2399 L169.6190 184.4952 "/>
<path d="M169.6190 184.4952 L169.6190 183.2539 "/>
<path d="M169.6190 191.1979 L169.6190 188.2189 "/>
<path d="M169.6190 189.7084 L164.4058 189.7084 "/>
<path d="M164.4058 189.7084 L165.1505 189.2119 "/>
<path d="M165.1505 189.2119 L165.6470 188.7154 "/>
<path d="M165.6470 188.7154 L165.8953 188.2189 "/>
</g></g>
<g style="fill:#000084; fill-opacity:0.01;  stroke:#000084; stroke-width:0.5694; stroke-opacity:1;  stroke-linecap:round; stroke-linejoin:round;">
<text x="172.6671" y="145.0397" transform="scale(-1 1) translate(-345.334214 0)" textLength="5.9947" font-size="3.4781" lengthAdjust="spacingAndGlyphs" text-anchor="middle" opacity="0.01" style="font-family:monospace">C7</text>
<g class="stroked-text"><desc>C7</desc>
<path d="M173.1019 144.6642 L173.2261 144.7884 "/>
<path d="M173.2261 144.7884 L173.5987 144.9126 "/>
<path d="M173.5987 144.9126 L173.8472 144.9126 "/>
<path d="M173.8472 144.9126 L174.2198 144.7884 "/>
<path d="M174.2198 144.7884 L174.4683 144.5399 "/>
<path d="M174.4683 144.5399 L174.5925 144.2915 "/>
<path d="M174.5925 144.2915 L174.7167 143.7946 "/>
<path d="M174.7167 143.7946 L174.7167 143.4220 "/>
<path d="M174.7167 143.4220 L174.5925 142.9251 "/>
<path d="M174.5925 142.9251 L174.4683 142.6767 "/>
<path d="M174.4683 142.6767 L174.2198 142.4282 "/>
<path d="M174.2198 142.4282 L173.8472 142.3040 "/>
<path d="M173.8472 142.3040 L173.5987 142.3040 "/>
<path d="M173.5987 142.3040 L173.2261 142.4282 "/>
<path d="M173.2261 142.4282 L173.1019 142.5524 "/>
<path d="M172.2323 142.3040 L170.4933 142.3040 "/>
<path d="M170.4933 142.3040 L171.6112 144.9126 "/>
</g><text x="173.3292" y="141.3983" transform="scale(-1 1) translate(-346.658378 0)" textLength="8.2307" font-size="3.4781" lengthAdjust="spacingAndGlyphs" text-anchor="middle" opacity="0.01" style="font-family:monospace">10u</text>
<g class="stroked-text"><desc>10u</desc>
<path d="M175.0061 141.2711 L176.4968 141.2711 "/>
<path d="M175.7515 141.2711 L175.7515 138.6625 "/>
<path d="M175.7515 138.6625 L175.9999 139.0352 "/>
<path d="M175.9999 139.0352 L176.2483 139.2836 "/>
<path d="M176.2483 139.2836 L176.4968 139.4079 "/>
<path d="M173.3913 138.6625 L173.1429 138.6625 "/>
<path d="M173.1429 138.6625 L172.8944 138.7868 "/>
<path d="M172.8944 138.7868 L172.7702 138.9110 "/>
<path d="M172.7702 138.9110 L172.6460 139.1594 "/>
<path d="M172.6460 139.1594 L172.5218 139.6563 "/>
<path d="M172.5218 139.6563 L172.5218 140.2774 "/>
<path d="M172.5218 140.2774 L172.6460 140.7743 "/>
<path d="M172.6460 140.7743 L172.7702 141.0227 "/>
<path d="M172.7702 141.0227 L172.8944 141.1469 "/>
<path d="M172.8944 141.1469 L173.1429 141.2711 "/>
<path d="M173.1429 141.2711 L173.3913 141.2711 "/>
<path d="M173.3913 141.2711 L173.6397 141.1469 "/>
<path d="M173.6397 141.1469 L173.7640 141.0227 "/>
<path d="M173.7640 141.0227 L173.8882 140.7743 "/>
<path d="M173.8882 140.7743 L174.0124 140.2774 "/>
<path d="M174.0124 140.2774 L174.0124 139.6563 "/>
<path d="M174.0124 139.6563 L173.8882 139.1594 "/>
<path d="M173.8882 139.1594 L173.7640 138.9110 "/>
<path d="M173.7640 138.9110 L173.6397 138.7868 "/>
<path d="M173.6397 138.7868 L173.3913 138.6625 "/>
<path d="M170.2858 139.5321 L170.2858 141.2711 "/>
<path d="M171.4038 139.5321 L171.4038 140.8985 "/>
<path d="M171.4038 140.8985 L171.2796 141.1469 "/>
<path d="M171.2796 141.1469 L171.0311 141.2711 "/>
<path d="M171.0311 141.2711 L170.6585 141.2711 "/>
<path d="M170.6585 141.2711 L170.4100 141.1469 "/>
<path d="M170.4100 141.1469 L170.2858 141.0227 "/>
</g></g>
<g style="fill:#000084; fill-opacity:0.01;  stroke:#000084; stroke-width:1.5640; stroke-opacity:1;  stroke-linecap:round; stroke-linejoin:round;">
<text x="199.3490" y="159.2944" transform="scale(-1 1) translate(-398.698049 0)" textLength="17.8326" font-size="10.5933" lengthAdjust="spacingAndGlyphs" text-anchor="middle" opacity="0.01" style="font-family:monospace">C3</text>
<g class="stroked-text"><desc>C3</desc>
<path d="M200.6732 158.1594 L201.0515 158.5377 "/>
<path d="M201.0515 158.5377 L202.1865 158.9160 "/>
<path d="M202.1865 158.9160 L202.9432 158.9160 "/>
<path d="M202.9432 158.9160 L204.0782 158.5377 "/>
<path d="M204.0782 158.5377 L204.8348 157.7810 "/>
<path d="M204.8348 157.7810 L205.2132 157.0244 "/>
<path d="M205.2132 157.0244 L205.5915 155.5110 "/>
<path d="M205.5915 155.5110 L205.5915 154.3760 "/>
<path d="M205.5915 154.3760 L205.2132 152.8627 "/>
<path d="M205.2132 152.8627 L204.8348 152.1060 "/>
<path d="M204.8348 152.1060 L204.0782 151.3494 "/>
<path d="M204.0782 151.3494 L202.9432 150.9710 "/>
<path d="M202.9432 150.9710 L202.1865 150.9710 "/>
<path d="M202.1865 150.9710 L201.0515 151.3494 "/>
<path d="M201.0515 151.3494 L200.6732 151.7277 "/>
<path d="M198.0249 150.9710 L193.1065 150.9710 "/>
<path d="M193.1065 150.9710 L195.7549 153.9977 "/>
<path d="M195.7549 153.9977 L194.6199 153.9977 "/>
<path d="M194.6199 153.9977 L193.8632 154.3760 "/>
<path d="M193.8632 154.3760 L193.4849 154.7544 "/>
<path d="M193.4849 154.7544 L193.1065 155.5110 "/>
<path d="M193.1065 155.5110 L193.1065 157.4027 "/>
<path d="M193.1065 157.4027 L193.4849 158.1594 "/>
<path d="M193.4849 158.1594 L193.8632 158.5377 "/>
<path d="M193.8632 158.5377 L194.6199 158.9160 "/>
<path d="M194.6199 158.9160 L196.8899 158.9160 "/>
<path d="M196.8899 158.9160 L197.6465 158.5377 "/>
<path d="M197.6465 158.5377 L198.0249 158.1594 "/>
</g></g>
<g style="fill:#000084; fill-opacity:0.01;  stroke:#000084; stroke-width:0.7820; stroke-opacity:1;  stroke-linecap:round; stroke-linejoin:round;">
<text x="171.6740" y="171.1493" transform="scale(-1 1) translate(-343.347967 0)" textLength="10.0727" font-size="10.4265" lengthAdjust="spacingAndGlyphs" text-anchor="middle" opacity="0.01" style="font-family:monospace">+</text>
<g class="stroked-text"><desc>+</desc>
<path d="M174.6530 167.8373 L168.6950 167.8373 "/>
<path d="M171.6740 170.8163 L171.6740 164.8583 "/>
</g></g>
<g style="fill:#000084; fill-opacity:0.01;  stroke:#000084; stroke-width:0.5694; stroke-opacity:1;  stroke-linecap:round; stroke-linejoin:round;">
<text x="172.6671" y="134.4464" transform="scale(-1 1) translate(-345.334214 0)" textLength="5.9947" font-size="3.4781" lengthAdjust="spacingAndGlyphs" text-anchor="middle" opacity="0.01" style="font-family:monospace">C8</text>
<g class="stroked-text"><desc>C8</desc>
<path d="M173.1019 134.0708 L173.2261 134.1951 "/>
<path d="M173.2261 134.1951 L173.5987 134.3193 "/>
<path d="M173.5987 134.3193 L173.8472 134.3193 "/>
<path d="M173.8472 134.3193 L174.2198 134.1951 "/>
<path d="M174.2198 134.1951 L174.4683 133.9466 "/>
<path d="M174.4683 133.9466 L174.5925 133.6982 "/>
<path d="M174.5925 133.6982 L174.7167 133.2013 "/>
<path d="M174.7167 133.2013 L174.7167 132.8287 "/>
<path d="M174.7167 132.8287 L174.5925 132.3318 "/>
<path d="M174.5925 132.3318 L174.4683 132.0833 "/>
<path d="M174.4683 132.0833 L174.2198 131.8349 "/>
<path d="M174.2198 131.8349 L173.8472 131.7107 "/>
<path d="M173.8472 131.7107 L173.5987 131.7107 "/>
<path d="M173.5987 131.7107 L173.2261 131.8349 "/>
<path d="M173.2261 131.8349 L173.1019 131.9591 "/>
<path d="M171.6112 132.8287 L171.8597 132.7044 "/>
<path d="M171.8597 132.7044 L171.9839 132.5802 "/>
<path d="M171.9839 132.5802 L172.1081 132.3318 "/>
<path d="M172.1081 132.3318 L172.1081 132.2076 "/>
<path d="M172.1081 132.2076 L171.9839 131.9591 "/>
<path d="M171.9839 131.9591 L171.8597 131.8349 "/>
<path d="M171.8597 131.8349 L171.6112 131.7107 "/>
<path d="M171.6112 131.7107 L171.1144 131.7107 "/>
<path d="M171.1144 131.7107 L170.8659 131.8349 "/>
<path d="M170.8659 131.8349 L170.7417 131.9591 "/>
<path d="M170.7417 131.9591 L170.6175 132.2076 "/>
<path d="M170.6175 132.2076 L170.6175 132.3318 "/>
<path d="M170.6175 132.3318 L170.7417 132.5802 "/>
<path d="M170.7417 132.5802 L170.8659 132.7044 "/>
<path d="M170.8659 132.7044 L171.1144 132.8287 "/>
<path d="M171.1144 132.8287 L171.6112 132.8287 "/>
<path d="M171.6112 132.8287 L171.8597 132.9529 "/>
<path d="M171.8597 132.9529 L171.9839 133.0771 "/>
<path d="M171.9839 133.0771 L172.1081 133.3255 "/>
<path d="M172.1081 133.3255 L172.1081 133.8224 "/>
<path d="M172.1081 133.8224 L171.9839 134.0708 "/>
<path d="M171.9839 134.0708 L171.8597 134.1951 "/>
<path d="M171.8597 134.1951 L171.6112 134.3193 "/>
<path d="M171.6112 134.3193 L171.1144 134.3193 "/>
<path d="M171.1144 134.3193 L170.8659 134.1951 "/>
<path d="M170.8659 134.1951 L170.7417 134.0708 "/>
<path d="M170.7417 134.0708 L170.6175 133.8224 "/>
<path d="M170.6175 133.8224 L170.6175 133.3255 "/>
<path d="M170.6175 133.3255 L170.7417 133.0771 "/>
<path d="M170.7417 133.0771 L170.8659 132.9529 "/>
<path d="M170.8659 132.9529 L171.1144 132.8287 "/>
</g><text x="173.3292" y="130.8050" transform="scale(-1 1) translate(-346.658378 0)" textLength="12.9510" font-size="3.4781" lengthAdjust="spacingAndGlyphs" text-anchor="middle" opacity="0.01" style="font-family:monospace">100nF</text>
<g class="stroked-text"><desc>100nF</desc>
<path d="M177.3663 130.6778 L178.8569 130.6778 "/>
<path d="M178.1116 130.6778 L178.1116 128.0692 "/>
<path d="M178.1116 128.0692 L178.3601 128.4419 "/>
<path d="M178.3601 128.4419 L178.6085 128.6903 "/>
<path d="M178.6085 128.6903 L178.8569 128.8145 "/>
<path d="M175.7515 128.0692 L175.5030 128.0692 "/>
<path d="M175.5030 128.0692 L175.2546 128.1934 "/>
<path d="M175.2546 128.1934 L175.1304 128.3177 "/>
<path d="M175.1304 128.3177 L175.0061 128.5661 "/>
<path d="M175.0061 128.5661 L174.8819 129.0630 "/>
<path d="M174.8819 129.0630 L174.8819 129.6841 "/>
<path d="M174.8819 129.6841 L175.0061 130.1810 "/>
<path d="M175.0061 130.1810 L175.1304 130.4294 "/>
<path d="M175.1304 130.4294 L175.2546 130.5536 "/>
<path d="M175.2546 130.5536 L175.5030 130.6778 "/>
<path d="M175.5030 130.6778 L175.7515 130.6778 "/>
<path d="M175.7515 130.6778 L175.9999 130.5536 "/>
<path d="M175.9999 130.5536 L176.1241 130.4294 "/>
<path d="M176.1241 130.4294 L176.2483 130.1810 "/>
<path d="M176.2483 130.1810 L176.3726 129.6841 "/>
<path d="M176.3726 129.6841 L176.3726 129.0630 "/>
<path d="M176.3726 129.0630 L176.2483 128.5661 "/>
<path d="M176.2483 128.5661 L176.1241 128.3177 "/>
<path d="M176.1241 128.3177 L175.9999 128.1934 "/>
<path d="M175.9999 128.1934 L175.7515 128.0692 "/>
<path d="M173.2671 128.0692 L173.0186 128.0692 "/>
<path d="M173.0186 128.0692 L172.7702 128.1934 "/>
<path d="M172.7702 128.1934 L172.6460 128.3177 "/>
<path d="M172.6460 128.3177 L172.5218 128.5661 "/>
<path d="M172.5218 128.5661 L172.3975 129.0630 "/>
<path d="M172.3975 129.0630 L172.3975 129.6841 "/>
<path d="M172.3975 129.6841 L172.5218 130.1810 "/>
<path d="M172.5218 130.1810 L172.6460 130.4294 "/>
<path d="M172.6460 130.4294 L172.7702 130.5536 "/>
<path d="M172.7702 130.5536 L173.0186 130.6778 "/>
<path d="M173.0186 130.6778 L173.2671 130.6778 "/>
<path d="M173.2671 130.6778 L173.5155 130.5536 "/>
<path d="M173.5155 130.5536 L173.6397 130.4294 "/>
<path d="M173.6397 130.4294 L173.7640 130.1810 "/>
<path d="M173.7640 130.1810 L173.8882 129.6841 "/>
<path d="M173.8882 129.6841 L173.8882 129.0630 "/>
<path d="M173.8882 129.0630 L173.7640 128.5661 "/>
<path d="M173.7640 128.5661 L173.6397 128.3177 "/>
<path d="M173.6397 128.3177 L173.5155 128.1934 "/>
<path d="M173.5155 128.1934 L173.2671 128.0692 "/>
<path d="M171.2796 128.9388 L171.2796 130.6778 "/>
<path d="M171.2796 129.1872 L171.1554 129.0630 "/>
<path d="M171.1554 129.0630 L170.9069 128.9388 "/>
<path d="M170.9069 128.9388 L170.5343 128.9388 "/>
<path d="M170.5343 128.9388 L170.2858 129.0630 "/>
<path d="M170.2858 129.0630 L170.1616 129.3114 "/>
<path d="M170.1616 129.3114 L170.1616 130.6778 "/>
<path d="M168.0499 129.3114 L168.9194 129.3114 "/>
<path d="M168.9194 130.6778 L168.9194 128.0692 "/>
<path d="M168.9194 128.0692 L167.6772 128.0692 "/>
</g><text x="143.2044" y="70.8865" transform="scale(-1 1) translate(-286.408887 0)" textLength="5.9947" font-size="3.4781" lengthAdjust="spacingAndGlyphs" text-anchor="middle" opacity="0.01" style="font-family:monospace">R2</text>
<g class="stroked-text"><desc>R2</desc>
<path d="M143.6392 70.7594 L144.5087 69.5172 "/>
<path d="M145.1298 70.7594 L145.1298 68.1508 "/>
<path d="M145.1298 68.1508 L144.1361 68.1508 "/>
<path d="M144.1361 68.1508 L143.8876 68.2750 "/>
<path d="M143.8876 68.2750 L143.7634 68.3992 "/>
<path d="M143.7634 68.3992 L143.6392 68.6477 "/>
<path d="M143.6392 68.6477 L143.6392 69.0203 "/>
<path d="M143.6392 69.0203 L143.7634 69.2688 "/>
<path d="M143.7634 69.2688 L143.8876 69.3930 "/>
<path d="M143.8876 69.3930 L144.1361 69.5172 "/>
<path d="M144.1361 69.5172 L145.1298 69.5172 "/>
<path d="M142.6455 68.3992 L142.5212 68.2750 "/>
<path d="M142.5212 68.2750 L142.2728 68.1508 "/>
<path d="M142.2728 68.1508 L141.6517 68.1508 "/>
<path d="M141.6517 68.1508 L141.4033 68.2750 "/>
<path d="M141.4033 68.2750 L141.2790 68.3992 "/>
<path d="M141.2790 68.3992 L141.1548 68.6477 "/>
<path d="M141.1548 68.6477 L141.1548 68.8961 "/>
<path d="M141.1548 68.8961 L141.2790 69.2688 "/>
<path d="M141.2790 69.2688 L142.7697 70.7594 "/>
<path d="M142.7697 70.7594 L141.1548 70.7594 "/>
</g><text x="143.8665" y="67.2450" transform="scale(-1 1) translate(-287.733052 0)" textLength="8.4791" font-size="3.4781" lengthAdjust="spacingAndGlyphs" text-anchor="middle" opacity="0.01" style="font-family:monospace">10R</text>
<g class="stroked-text"><desc>10R</desc>
<path d="M145.6677 67.1179 L147.1583 67.1179 "/>
<path d="M146.4130 67.1179 L146.4130 64.5093 "/>
<path d="M146.4130 64.5093 L146.6615 64.8820 "/>
<path d="M146.6615 64.8820 L146.9099 65.1304 "/>
<path d="M146.9099 65.1304 L147.1583 65.2546 "/>
<path d="M144.0529 64.5093 L143.8044 64.5093 "/>
<path d="M143.8044 64.5093 L143.5560 64.6335 "/>
<path d="M143.5560 64.6335 L143.4318 64.7578 "/>
<path d="M143.4318 64.7578 L143.3075 65.0062 "/>
<path d="M143.3075 65.0062 L143.1833 65.5031 "/>
<path d="M143.1833 65.5031 L143.1833 66.1242 "/>
<path d="M143.1833 66.1242 L143.3075 66.6211 "/>
<path d="M143.3075 66.6211 L143.4318 66.8695 "/>
<path d="M143.4318 66.8695 L143.5560 66.9937 "/>
<path d="M143.5560 66.9937 L143.8044 67.1179 "/>
<path d="M143.8044 67.1179 L144.0529 67.1179 "/>
<path d="M144.0529 67.1179 L144.3013 66.9937 "/>
<path d="M144.3013 66.9937 L144.4255 66.8695 "/>
<path d="M144.4255 66.8695 L144.5497 66.6211 "/>
<path d="M144.5497 66.6211 L144.6739 66.1242 "/>
<path d="M144.6739 66.1242 L144.6739 65.5031 "/>
<path d="M144.6739 65.5031 L144.5497 65.0062 "/>
<path d="M144.5497 65.0062 L144.4255 64.7578 "/>
<path d="M144.4255 64.7578 L144.3013 64.6335 "/>
<path d="M144.3013 64.6335 L144.0529 64.5093 "/>
<path d="M140.5747 67.1179 L141.4442 65.8757 "/>
<path d="M142.0653 67.1179 L142.0653 64.5093 "/>
<path d="M142.0653 64.5093 L141.0716 64.5093 "/>
<path d="M141.0716 64.5093 L140.8232 64.6335 "/>
<path d="M140.8232 64.6335 L140.6989 64.7578 "/>
<path d="M140.6989 64.7578 L140.5747 65.0062 "/>
<path d="M140.5747 65.0062 L140.5747 65.3789 "/>
<path d="M140.5747 65.3789 L140.6989 65.6273 "/>
<path d="M140.6989 65.6273 L140.8232 65.7515 "/>
<path d="M140.8232 65.7515 L141.0716 65.8757 "/>
<path d="M141.0716 65.8757 L142.0653 65.8757 "/>
</g><text x="119.0384" y="67.5761" transform="scale(-1 1) translate(-238.076878 0)" textLength="5.9947" font-size="3.4781" lengthAdjust="spacingAndGlyphs" text-anchor="middle" opacity="0.01" style="font-family:monospace">C6</text>
<g class="stroked-text"><desc>C6</desc>
<path d="M119.4732 67.2005 L119.5974 67.3247 "/>
<path d="M119.5974 67.3247 L119.9701 67.4490 "/>
<path d="M119.9701 67.4490 L120.2185 67.4490 "/>
<path d="M120.2185 67.4490 L120.5912 67.3247 "/>
<path d="M120.5912 67.3247 L120.8396 67.0763 "/>
<path d="M120.8396 67.0763 L120.9638 66.8279 "/>
<path d="M120.9638 66.8279 L121.0881 66.3310 "/>
<path d="M121.0881 66.3310 L121.0881 65.9583 "/>
<path d="M121.0881 65.9583 L120.9638 65.4615 "/>
<path d="M120.9638 65.4615 L120.8396 65.2130 "/>
<path d="M120.8396 65.2130 L120.5912 64.9646 "/>
<path d="M120.5912 64.9646 L120.2185 64.8404 "/>
<path d="M120.2185 64.8404 L119.9701 64.8404 "/>
<path d="M119.9701 64.8404 L119.5974 64.9646 "/>
<path d="M119.5974 64.9646 L119.4732 65.0888 "/>
<path d="M117.2373 64.8404 L117.7341 64.8404 "/>
<path d="M117.7341 64.8404 L117.9826 64.9646 "/>
<path d="M117.9826 64.9646 L118.1068 65.0888 "/>
<path d="M118.1068 65.0888 L118.3552 65.4615 "/>
<path d="M118.3552 65.4615 L118.4794 65.9583 "/>
<path d="M118.4794 65.9583 L118.4794 66.9521 "/>
<path d="M118.4794 66.9521 L118.3552 67.2005 "/>
<path d="M118.3552 67.2005 L118.2310 67.3247 "/>
<path d="M118.2310 67.3247 L117.9826 67.4490 "/>
<path d="M117.9826 67.4490 L117.4857 67.4490 "/>
<path d="M117.4857 67.4490 L117.2373 67.3247 "/>
<path d="M117.2373 67.3247 L117.1130 67.2005 "/>
<path d="M117.1130 67.2005 L116.9888 66.9521 "/>
<path d="M116.9888 66.9521 L116.9888 66.3310 "/>
<path d="M116.9888 66.3310 L117.1130 66.0826 "/>
<path d="M117.1130 66.0826 L117.2373 65.9583 "/>
<path d="M117.2373 65.9583 L117.4857 65.8341 "/>
<path d="M117.4857 65.8341 L117.9826 65.8341 "/>
<path d="M117.9826 65.8341 L118.2310 65.9583 "/>
<path d="M118.2310 65.9583 L118.3552 66.0826 "/>
<path d="M118.3552 66.0826 L118.4794 66.3310 "/>
</g><text x="118.3764" y="71.2175" transform="scale(-1 1) translate(-236.752713 0)" textLength="12.9510" font-size="3.4781" lengthAdjust="spacingAndGlyphs" text-anchor="middle" opacity="0.01" style="font-family:monospace">100nF</text>
<g class="stroked-text"><desc>100nF</desc>
<path d="M122.4135 71.0904 L123.9041 71.0904 "/>
<path d="M123.1588 71.0904 L123.1588 68.4818 "/>
<path d="M123.1588 68.4818 L123.4072 68.8545 "/>
<path d="M123.4072 68.8545 L123.6557 69.1029 "/>
<path d="M123.6557 69.1029 L123.9041 69.2271 "/>
<path d="M120.7986 68.4818 L120.5502 68.4818 "/>
<path d="M120.5502 68.4818 L120.3017 68.6060 "/>
<path d="M120.3017 68.6060 L120.1775 68.7303 "/>
<path d="M120.1775 68.7303 L120.0533 68.9787 "/>
<path d="M120.0533 68.9787 L119.9291 69.4756 "/>
<path d="M119.9291 69.4756 L119.9291 70.0967 "/>
<path d="M119.9291 70.0967 L120.0533 70.5935 "/>
<path d="M120.0533 70.5935 L120.1775 70.8420 "/>
<path d="M120.1775 70.8420 L120.3017 70.9662 "/>
<path d="M120.3017 70.9662 L120.5502 71.0904 "/>
<path d="M120.5502 71.0904 L120.7986 71.0904 "/>
<path d="M120.7986 71.0904 L121.0471 70.9662 "/>
<path d="M121.0471 70.9662 L121.1713 70.8420 "/>
<path d="M121.1713 70.8420 L121.2955 70.5935 "/>
<path d="M121.2955 70.5935 L121.4197 70.0967 "/>
<path d="M121.4197 70.0967 L121.4197 69.4756 "/>
<path d="M121.4197 69.4756 L121.2955 68.9787 "/>
<path d="M121.2955 68.9787 L121.1713 68.7303 "/>
<path d="M121.1713 68.7303 L121.0471 68.6060 "/>
<path d="M121.0471 68.6060 L120.7986 68.4818 "/>
<path d="M118.3142 68.4818 L118.0658 68.4818 "/>
<path d="M118.0658 68.4818 L117.8174 68.6060 "/>
<path d="M117.8174 68.6060 L117.6932 68.7303 "/>
<path d="M117.6932 68.7303 L117.5689 68.9787 "/>
<path d="M117.5689 68.9787 L117.4447 69.4756 "/>
<path d="M117.4447 69.4756 L117.4447 70.0967 "/>
<path d="M117.4447 70.0967 L117.5689 70.5935 "/>
<path d="M117.5689 70.5935 L117.6932 70.8420 "/>
<path d="M117.6932 70.8420 L117.8174 70.9662 "/>
<path d="M117.8174 70.9662 L118.0658 71.0904 "/>
<path d="M118.0658 71.0904 L118.3142 71.0904 "/>
<path d="M118.3142 71.0904 L118.5627 70.9662 "/>
<path d="M118.5627 70.9662 L118.6869 70.8420 "/>
<path d="M118.6869 70.8420 L118.8111 70.5935 "/>
<path d="M118.8111 70.5935 L118.9353 70.0967 "/>
<path d="M118.9353 70.0967 L118.9353 69.4756 "/>
<path d="M118.9353 69.4756 L118.8111 68.9787 "/>
<path d="M118.8111 68.9787 L118.6869 68.7303 "/>
<path d="M118.6869 68.7303 L118.5627 68.6060 "/>
<path d="M118.5627 68.6060 L118.3142 68.4818 "/>
<path d="M116.3267 69.3514 L116.3267 71.0904 "/>
<path d="M116.3267 69.5998 L116.2025 69.4756 "/>
<path d="M116.2025 69.4756 L115.9541 69.3514 "/>
<path d="M115.9541 69.3514 L115.5814 69.3514 "/>
<path d="M115.5814 69.3514 L115.3330 69.4756 "/>
<path d="M115.3330 69.4756 L115.2088 69.7240 "/>
<path d="M115.2088 69.7240 L115.2088 71.0904 "/>
<path d="M113.0970 69.7240 L113.9666 69.7240 "/>
<path d="M113.9666 71.0904 L113.9666 68.4818 "/>
<path d="M113.9666 68.4818 L112.7244 68.4818 "/>
</g></g>
<g style="fill:#000084; fill-opacity:0.01;  stroke:#000084; stroke-width:0.7820; stroke-opacity:1;  stroke-linecap:round; stroke-linejoin:round;">
<text x="200.9910" y="45.2742" transform="scale(-1 1) translate(-401.981977 0)" textLength="10.0727" font-size="10.4265" lengthAdjust="spacingAndGlyphs" text-anchor="middle" opacity="0.01" style="font-family:monospace">+</text>
<g class="stroked-text"><desc>+</desc>
<path d="M203.9700 41.9622 L198.0120 41.9622 "/>
<path d="M200.9910 44.9412 L200.9910 38.9832 "/>
</g></g>
<g style="fill:#000084; fill-opacity:0.01;  stroke:#000084; stroke-width:1.5640; stroke-opacity:1;  stroke-linecap:round; stroke-linejoin:round;">
<text x="174.3753" y="58.5784" transform="scale(-1 1) translate(-348.750559 0)" textLength="17.8326" font-size="10.5933" lengthAdjust="spacingAndGlyphs" text-anchor="middle" opacity="0.01" style="font-family:monospace">C1</text>
<g class="stroked-text"><desc>C1</desc>
<path d="M175.6994 57.4434 L176.0778 57.8217 "/>
<path d="M176.0778 57.8217 L177.2128 58.2001 "/>
<path d="M177.2128 58.2001 L177.9694 58.2001 "/>
<path d="M177.9694 58.2001 L179.1044 57.8217 "/>
<path d="M179.1044 57.8217 L179.8611 57.0651 "/>
<path d="M179.8611 57.0651 L180.2394 56.3084 "/>
<path d="M180.2394 56.3084 L180.6178 54.7951 "/>
<path d="M180.6178 54.7951 L180.6178 53.6601 "/>
<path d="M180.6178 53.6601 L180.2394 52.1468 "/>
<path d="M180.2394 52.1468 L179.8611 51.3901 "/>
<path d="M179.8611 51.3901 L179.1044 50.6334 "/>
<path d="M179.1044 50.6334 L177.9694 50.2551 "/>
<path d="M177.9694 50.2551 L177.2128 50.2551 "/>
<path d="M177.2128 50.2551 L176.0778 50.6334 "/>
<path d="M176.0778 50.6334 L175.6994 51.0118 "/>
<path d="M168.1328 58.2001 L172.6728 58.2001 "/>
<path d="M170.4028 58.2001 L170.4028 50.2551 "/>
<path d="M170.4028 50.2551 L171.1594 51.3901 "/>
<path d="M171.1594 51.3901 L171.9161 52.1468 "/>
<path d="M171.9161 52.1468 L172.6728 52.5251 "/>
</g></g>
<g style="fill:#000084; fill-opacity:0.01;  stroke:#000084; stroke-width:0.7820; stroke-opacity:1;  stroke-linecap:round; stroke-linejoin:round;">
<text x="174.9844" y="78.4786" transform="scale(-1 1) translate(-349.968790 0)" textLength="11.0906" font-size="6.9510" lengthAdjust="spacingAndGlyphs" text-anchor="middle" opacity="0.01" style="font-family:monospace">C2</text>
<g class="stroked-text"><desc>C2</desc>
<path d="M175.8533 77.7466 L176.1015 77.9948 "/>
<path d="M176.1015 77.9948 L176.8463 78.2431 "/>
<path d="M176.8463 78.2431 L177.3428 78.2431 "/>
<path d="M177.3428 78.2431 L178.0875 77.9948 "/>
<path d="M178.0875 77.9948 L178.5840 77.4983 "/>
<path d="M178.5840 77.4983 L178.8323 77.0018 "/>
<path d="M178.8323 77.0018 L179.0805 76.0088 "/>
<path d="M179.0805 76.0088 L179.0805 75.2641 "/>
<path d="M179.0805 75.2641 L178.8323 74.2711 "/>
<path d="M178.8323 74.2711 L178.5840 73.7746 "/>
<path d="M178.5840 73.7746 L178.0875 73.2781 "/>
<path d="M178.0875 73.2781 L177.3428 73.0298 "/>
<path d="M177.3428 73.0298 L176.8463 73.0298 "/>
<path d="M176.8463 73.0298 L176.1015 73.2781 "/>
<path d="M176.1015 73.2781 L175.8533 73.5263 "/>
<path d="M173.8673 73.5263 L173.6190 73.2781 "/>
<path d="M173.6190 73.2781 L173.1225 73.0298 "/>
<path d="M173.1225 73.0298 L171.8813 73.0298 "/>
<path d="M171.8813 73.0298 L171.3848 73.2781 "/>
<path d="M171.3848 73.2781 L171.1365 73.5263 "/>
<path d="M171.1365 73.5263 L170.8883 74.0228 "/>
<path d="M170.8883 74.0228 L170.8883 74.5193 "/>
<path d="M170.8883 74.5193 L171.1365 75.2641 "/>
<path d="M171.1365 75.2641 L174.1155 78.2431 "/>
<path d="M174.1155 78.2431 L170.8883 78.2431 "/>
</g></g>
<g style="fill:#000084; fill-opacity:0.01;  stroke:#000084; stroke-width:0.5694; stroke-opacity:1;  stroke-linecap:round; stroke-linejoin:round;">
<text x="124.3351" y="80.8177" transform="scale(-1 1) translate(-248.670195 0)" textLength="5.9947" font-size="3.4781" lengthAdjust="spacingAndGlyphs" text-anchor="middle" opacity="0.01" style="font-family:monospace">C9</text>
<g class="stroked-text"><desc>C9</desc>
<path d="M124.7699 80.4422 L124.8941 80.5664 "/>
<path d="M124.8941 80.5664 L125.2667 80.6906 "/>
<path d="M125.2667 80.6906 L125.5152 80.6906 "/>
<path d="M125.5152 80.6906 L125.8878 80.5664 "/>
<path d="M125.8878 80.5664 L126.1363 80.3180 "/>
<path d="M126.1363 80.3180 L126.2605 80.0695 "/>
<path d="M126.2605 80.0695 L126.3847 79.5726 "/>
<path d="M126.3847 79.5726 L126.3847 79.2000 "/>
<path d="M126.3847 79.2000 L126.2605 78.7031 "/>
<path d="M126.2605 78.7031 L126.1363 78.4547 "/>
<path d="M126.1363 78.4547 L125.8878 78.2062 "/>
<path d="M125.8878 78.2062 L125.5152 78.0820 "/>
<path d="M125.5152 78.0820 L125.2667 78.0820 "/>
<path d="M125.2667 78.0820 L124.8941 78.2062 "/>
<path d="M124.8941 78.2062 L124.7699 78.3304 "/>
<path d="M123.5277 80.6906 L123.0308 80.6906 "/>
<path d="M123.0308 80.6906 L122.7824 80.5664 "/>
<path d="M122.7824 80.5664 L122.6581 80.4422 "/>
<path d="M122.6581 80.4422 L122.4097 80.0695 "/>
<path d="M122.4097 80.0695 L122.2855 79.5726 "/>
<path d="M122.2855 79.5726 L122.2855 78.5789 "/>
<path d="M122.2855 78.5789 L122.4097 78.3304 "/>
<path d="M122.4097 78.3304 L122.5339 78.2062 "/>
<path d="M122.5339 78.2062 L122.7824 78.0820 "/>
<path d="M122.7824 78.0820 L123.2792 78.0820 "/>
<path d="M123.2792 78.0820 L123.5277 78.2062 "/>
<path d="M123.5277 78.2062 L123.6519 78.3304 "/>
<path d="M123.6519 78.3304 L123.7761 78.5789 "/>
<path d="M123.7761 78.5789 L123.7761 79.2000 "/>
<path d="M123.7761 79.2000 L123.6519 79.4484 "/>
<path d="M123.6519 79.4484 L123.5277 79.5726 "/>
<path d="M123.5277 79.5726 L123.2792 79.6969 "/>
<path d="M123.2792 79.6969 L122.7824 79.6969 "/>
<path d="M122.7824 79.6969 L122.5339 79.5726 "/>
<path d="M122.5339 79.5726 L122.4097 79.4484 "/>
<path d="M122.4097 79.4484 L122.2855 79.2000 "/>
</g><text x="123.6730" y="84.4592" transform="scale(-1 1) translate(-247.346030 0)" textLength="10.4666" font-size="3.4781" lengthAdjust="spacingAndGlyphs" text-anchor="middle" opacity="0.01" style="font-family:monospace">10nF</text>
<g class="stroked-text"><desc>10nF</desc>
<path d="M126.4679 84.3321 L127.9586 84.3321 "/>
<path d="M127.2133 84.3321 L127.2133 81.7235 "/>
<path d="M127.2133 81.7235 L127.4617 82.0961 "/>
<path d="M127.4617 82.0961 L127.7101 82.3446 "/>
<path d="M127.7101 82.3446 L127.9586 82.4688 "/>
<path d="M124.8531 81.7235 L124.6047 81.7235 "/>
<path d="M124.6047 81.7235 L124.3562 81.8477 "/>
<path d="M124.3562 81.8477 L124.2320 81.9719 "/>
<path d="M124.2320 81.9719 L124.1078 82.2203 "/>
<path d="M124.1078 82.2203 L123.9836 82.7172 "/>
<path d="M123.9836 82.7172 L123.9836 83.3383 "/>
<path d="M123.9836 83.3383 L124.1078 83.8352 "/>
<path d="M124.1078 83.8352 L124.2320 84.0836 "/>
<path d="M124.2320 84.0836 L124.3562 84.2078 "/>
<path d="M124.3562 84.2078 L124.6047 84.3321 "/>
<path d="M124.6047 84.3321 L124.8531 84.3321 "/>
<path d="M124.8531 84.3321 L125.1015 84.2078 "/>
<path d="M125.1015 84.2078 L125.2258 84.0836 "/>
<path d="M125.2258 84.0836 L125.3500 83.8352 "/>
<path d="M125.3500 83.8352 L125.4742 83.3383 "/>
<path d="M125.4742 83.3383 L125.4742 82.7172 "/>
<path d="M125.4742 82.7172 L125.3500 82.2203 "/>
<path d="M125.3500 82.2203 L125.2258 81.9719 "/>
<path d="M125.2258 81.9719 L125.1015 81.8477 "/>
<path d="M125.1015 81.8477 L124.8531 81.7235 "/>
<path d="M122.8656 82.5930 L122.8656 84.3321 "/>
<path d="M122.8656 82.8414 L122.7414 82.7172 "/>
<path d="M122.7414 82.7172 L122.4929 82.5930 "/>
<path d="M122.4929 82.5930 L122.1203 82.5930 "/>
<path d="M122.1203 82.5930 L121.8718 82.7172 "/>
<path d="M121.8718 82.7172 L121.7476 82.9657 "/>
<path d="M121.7476 82.9657 L121.7476 84.3321 "/>
<path d="M119.6359 82.9657 L120.5054 82.9657 "/>
<path d="M120.5054 84.3321 L120.5054 81.7235 "/>
<path d="M120.5054 81.7235 L119.2632 81.7235 "/>
</g><text x="119.7005" y="131.1360" transform="scale(-1 1) translate(-239.401043 0)" textLength="8.4791" font-size="3.4781" lengthAdjust="spacingAndGlyphs" text-anchor="middle" opacity="0.01" style="font-family:monospace">C10</text>
<g class="stroked-text"><desc>C10</desc>
<path d="M121.3775 130.7604 L121.5017 130.8847 "/>
<path d="M121.5017 130.8847 L121.8744 131.0089 "/>
<path d="M121.8744 131.0089 L122.1228 131.0089 "/>
<path d="M122.1228 131.0089 L122.4955 130.8847 "/>
<path d="M122.4955 130.8847 L122.7439 130.6362 "/>
<path d="M122.7439 130.6362 L122.8681 130.3878 "/>
<path d="M122.8681 130.3878 L122.9923 129.8909 "/>
<path d="M122.9923 129.8909 L122.9923 129.5182 "/>
<path d="M122.9923 129.5182 L122.8681 129.0214 "/>
<path d="M122.8681 129.0214 L122.7439 128.7729 "/>
<path d="M122.7439 128.7729 L122.4955 128.5245 "/>
<path d="M122.4955 128.5245 L122.1228 128.4003 "/>
<path d="M122.1228 128.4003 L121.8744 128.4003 "/>
<path d="M121.8744 128.4003 L121.5017 128.5245 "/>
<path d="M121.5017 128.5245 L121.3775 128.6487 "/>
<path d="M118.8931 131.0089 L120.3837 131.0089 "/>
<path d="M119.6384 131.0089 L119.6384 128.4003 "/>
<path d="M119.6384 128.4003 L119.8868 128.7729 "/>
<path d="M119.8868 128.7729 L120.1353 129.0214 "/>
<path d="M120.1353 129.0214 L120.3837 129.1456 "/>
<path d="M117.2782 128.4003 L117.0298 128.4003 "/>
<path d="M117.0298 128.4003 L116.7814 128.5245 "/>
<path d="M116.7814 128.5245 L116.6571 128.6487 "/>
<path d="M116.6571 128.6487 L116.5329 128.8971 "/>
<path d="M116.5329 128.8971 L116.4087 129.3940 "/>
<path d="M116.4087 129.3940 L116.4087 130.0151 "/>
<path d="M116.4087 130.0151 L116.5329 130.5120 "/>
<path d="M116.5329 130.5120 L116.6571 130.7604 "/>
<path d="M116.6571 130.7604 L116.7814 130.8847 "/>
<path d="M116.7814 130.8847 L117.0298 131.0089 "/>
<path d="M117.0298 131.0089 L117.2782 131.0089 "/>
<path d="M117.2782 131.0089 L117.5267 130.8847 "/>
<path d="M117.5267 130.8847 L117.6509 130.7604 "/>
<path d="M117.6509 130.7604 L117.7751 130.5120 "/>
<path d="M117.7751 130.5120 L117.8993 130.0151 "/>
<path d="M117.8993 130.0151 L117.8993 129.3940 "/>
<path d="M117.8993 129.3940 L117.7751 128.8971 "/>
<path d="M117.7751 128.8971 L117.6509 128.6487 "/>
<path d="M117.6509 128.6487 L117.5267 128.5245 "/>
<path d="M117.5267 128.5245 L117.2782 128.4003 "/>
</g><text x="119.0384" y="134.7774" transform="scale(-1 1) translate(-238.076878 0)" textLength="5.9947" font-size="3.4781" lengthAdjust="spacingAndGlyphs" text-anchor="middle" opacity="0.01" style="font-family:monospace">0R</text>
<g class="stroked-text"><desc>0R</desc>
<path d="M120.4670 132.0417 L120.2185 132.0417 "/>
<path d="M120.2185 132.0417 L119.9701 132.1659 "/>
<path d="M119.9701 132.1659 L119.8459 132.2902 "/>
<path d="M119.8459 132.2902 L119.7216 132.5386 "/>
<path d="M119.7216 132.5386 L119.5974 133.0355 "/>
<path d="M119.5974 133.0355 L119.5974 133.6566 "/>
<path d="M119.5974 133.6566 L119.7216 134.1534 "/>
<path d="M119.7216 134.1534 L119.8459 134.4019 "/>
<path d="M119.8459 134.4019 L119.9701 134.5261 "/>
<path d="M119.9701 134.5261 L120.2185 134.6503 "/>
<path d="M120.2185 134.6503 L120.4670 134.6503 "/>
<path d="M120.4670 134.6503 L120.7154 134.5261 "/>
<path d="M120.7154 134.5261 L120.8396 134.4019 "/>
<path d="M120.8396 134.4019 L120.9638 134.1534 "/>
<path d="M120.9638 134.1534 L121.0881 133.6566 "/>
<path d="M121.0881 133.6566 L121.0881 133.0355 "/>
<path d="M121.0881 133.0355 L120.9638 132.5386 "/>
<path d="M120.9638 132.5386 L120.8396 132.2902 "/>
<path d="M120.8396 132.2902 L120.7154 132.1659 "/>
<path d="M120.7154 132.1659 L120.4670 132.0417 "/>
<path d="M116.9888 134.6503 L117.8584 133.4081 "/>
<path d="M118.4794 134.6503 L118.4794 132.0417 "/>
<path d="M118.4794 132.0417 L117.4857 132.0417 "/>
<path d="M117.4857 132.0417 L117.2373 132.1659 "/>
<path d="M117.2373 132.1659 L117.1130 132.2902 "/>
<path d="M117.1130 132.2902 L116.9888 132.5386 "/>
<path d="M116.9888 132.5386 L116.9888 132.9113 "/>
<path d="M116.9888 132.9113 L117.1130 133.1597 "/>
<path d="M117.1130 133.1597 L117.2373 133.2839 "/>
<path d="M117.2373 133.2839 L117.4857 133.4081 "/>
<path d="M117.4857 133.4081 L118.4794 133.4081 "/>
</g><g transform="rotate(-90.000000 184.5846 30.5193)">
<text x="184.5846" y="31.8236" transform="scale(-1 1) translate(-369.169177 0)" textLength="5.9947" font-size="3.4781" lengthAdjust="spacingAndGlyphs" text-anchor="middle" opacity="0.01" style="font-family:monospace">R1</text>
</g>
<g class="stroked-text"><desc>R1</desc>
<path d="M185.7618 30.0846 L184.5196 29.2150 "/>
<path d="M185.7618 28.5939 L183.1532 28.5939 "/>
<path d="M183.1532 28.5939 L183.1532 29.5877 "/>
<path d="M183.1532 29.5877 L183.2774 29.8361 "/>
<path d="M183.2774 29.8361 L183.4016 29.9604 "/>
<path d="M183.4016 29.9604 L183.6500 30.0846 "/>
<path d="M183.6500 30.0846 L184.0227 30.0846 "/>
<path d="M184.0227 30.0846 L184.2711 29.9604 "/>
<path d="M184.2711 29.9604 L184.3954 29.8361 "/>
<path d="M184.3954 29.8361 L184.5196 29.5877 "/>
<path d="M184.5196 29.5877 L184.5196 28.5939 "/>
<path d="M185.7618 32.5690 L185.7618 31.0783 "/>
<path d="M185.7618 31.8236 L183.1532 31.8236 "/>
<path d="M183.1532 31.8236 L183.5258 31.5752 "/>
<path d="M183.5258 31.5752 L183.7743 31.3268 "/>
<path d="M183.7743 31.3268 L183.8985 31.0783 "/>
</g><g transform="rotate(-90.000000 180.9431 29.8573)">
<text x="180.9431" y="31.1616" transform="scale(-1 1) translate(-361.886272 0)" textLength="8.4791" font-size="3.4781" lengthAdjust="spacingAndGlyphs" text-anchor="middle" opacity="0.01" style="font-family:monospace">10R</text>
</g>
<g class="stroked-text"><desc>10R</desc>
<path d="M182.1203 28.0561 L182.1203 26.5655 "/>
<path d="M182.1203 27.3108 L179.5117 27.3108 "/>
<path d="M179.5117 27.3108 L179.8844 27.0623 "/>
<path d="M179.8844 27.0623 L180.1328 26.8139 "/>
<path d="M180.1328 26.8139 L180.2570 26.5655 "/>
<path d="M179.5117 29.6709 L179.5117 29.9194 "/>
<path d="M179.5117 29.9194 L179.6359 30.1678 "/>
<path d="M179.6359 30.1678 L179.7601 30.2920 "/>
<path d="M179.7601 30.2920 L180.0086 30.4162 "/>
<path d="M180.0086 30.4162 L180.5055 30.5405 "/>
<path d="M180.5055 30.5405 L181.1266 30.5405 "/>
<path d="M181.1266 30.5405 L181.6234 30.4162 "/>
<path d="M181.6234 30.4162 L181.8719 30.2920 "/>
<path d="M181.8719 30.2920 L181.9961 30.1678 "/>
<path d="M181.9961 30.1678 L182.1203 29.9194 "/>
<path d="M182.1203 29.9194 L182.1203 29.6709 "/>
<path d="M182.1203 29.6709 L181.9961 29.4225 "/>
<path d="M181.9961 29.4225 L181.8719 29.2983 "/>
<path d="M181.8719 29.2983 L181.6234 29.1741 "/>
<path d="M181.6234 29.1741 L181.1266 29.0498 "/>
<path d="M181.1266 29.0498 L180.5055 29.0498 "/>
<path d="M180.5055 29.0498 L180.0086 29.1741 "/>
<path d="M180.0086 29.1741 L179.7601 29.2983 "/>
<path d="M179.7601 29.2983 L179.6359 29.4225 "/>
<path d="M179.6359 29.4225 L179.5117 29.6709 "/>
<path d="M182.1203 33.1491 L180.8781 32.2795 "/>
<path d="M182.1203 31.6584 L179.5117 31.6584 "/>
<path d="M179.5117 31.6584 L179.5117 32.6522 "/>
<path d="M179.5117 32.6522 L179.6359 32.9006 "/>
<path d="M179.6359 32.9006 L179.7601 33.0248 "/>
<path d="M179.7601 33.0248 L180.0086 33.1491 "/>
<path d="M180.0086 33.1491 L180.3812 33.1491 "/>
<path d="M180.3812 33.1491 L180.6297 33.0248 "/>
<path d="M180.6297 33.0248 L180.7539 32.9006 "/>
<path d="M180.7539 32.9006 L180.8781 32.6522 "/>
<path d="M180.8781 32.6522 L180.8781 31.6584 "/>
</g><text x="122.3489" y="54.9965" transform="scale(-1 1) translate(-244.697701 0)" textLength="5.9947" font-size="3.4781" lengthAdjust="spacingAndGlyphs" text-anchor="middle" opacity="0.01" style="font-family:monospace">R4</text>
<g class="stroked-text"><desc>R4</desc>
<path d="M122.7836 54.8694 L123.6531 53.6272 "/>
<path d="M124.2742 54.8694 L124.2742 52.2608 "/>
<path d="M124.2742 52.2608 L123.2805 52.2608 "/>
<path d="M123.2805 52.2608 L123.0321 52.3850 "/>
<path d="M123.0321 52.3850 L122.9078 52.5092 "/>
<path d="M122.9078 52.5092 L122.7836 52.7577 "/>
<path d="M122.7836 52.7577 L122.7836 53.1303 "/>
<path d="M122.7836 53.1303 L122.9078 53.3788 "/>
<path d="M122.9078 53.3788 L123.0321 53.5030 "/>
<path d="M123.0321 53.5030 L123.2805 53.6272 "/>
<path d="M123.2805 53.6272 L124.2742 53.6272 "/>
<path d="M120.5477 53.1303 L120.5477 54.8694 "/>
<path d="M121.1688 52.1366 L121.7899 53.9999 "/>
<path d="M121.7899 53.9999 L120.1750 53.9999 "/>
</g><text x="123.0109" y="51.3551" transform="scale(-1 1) translate(-246.021866 0)" textLength="8.4791" font-size="3.4781" lengthAdjust="spacingAndGlyphs" text-anchor="middle" opacity="0.01" style="font-family:monospace">10R</text>
<g class="stroked-text"><desc>10R</desc>
<path d="M124.8121 51.2280 L126.3027 51.2280 "/>
<path d="M125.5574 51.2280 L125.5574 48.6193 "/>
<path d="M125.5574 48.6193 L125.8059 48.9920 "/>
<path d="M125.8059 48.9920 L126.0543 49.2404 "/>
<path d="M126.0543 49.2404 L126.3027 49.3647 "/>
<path d="M123.1973 48.6193 L122.9488 48.6193 "/>
<path d="M122.9488 48.6193 L122.7004 48.7436 "/>
<path d="M122.7004 48.7436 L122.5762 48.8678 "/>
<path d="M122.5762 48.8678 L122.4519 49.1162 "/>
<path d="M122.4519 49.1162 L122.3277 49.6131 "/>
<path d="M122.3277 49.6131 L122.3277 50.2342 "/>
<path d="M122.3277 50.2342 L122.4519 50.7311 "/>
<path d="M122.4519 50.7311 L122.5762 50.9795 "/>
<path d="M122.5762 50.9795 L122.7004 51.1037 "/>
<path d="M122.7004 51.1037 L122.9488 51.2280 "/>
<path d="M122.9488 51.2280 L123.1973 51.2280 "/>
<path d="M123.1973 51.2280 L123.4457 51.1037 "/>
<path d="M123.4457 51.1037 L123.5699 50.9795 "/>
<path d="M123.5699 50.9795 L123.6941 50.7311 "/>
<path d="M123.6941 50.7311 L123.8184 50.2342 "/>
<path d="M123.8184 50.2342 L123.8184 49.6131 "/>
<path d="M123.8184 49.6131 L123.6941 49.1162 "/>
<path d="M123.6941 49.1162 L123.5699 48.8678 "/>
<path d="M123.5699 48.8678 L123.4457 48.7436 "/>
<path d="M123.4457 48.7436 L123.1973 48.6193 "/>
<path d="M119.7191 51.2280 L120.5887 49.9858 "/>
<path d="M121.2098 51.2280 L121.2098 48.6193 "/>
<path d="M121.2098 48.6193 L120.2160 48.6193 "/>
<path d="M120.2160 48.6193 L119.9676 48.7436 "/>
<path d="M119.9676 48.7436 L119.8433 48.8678 "/>
<path d="M119.8433 48.8678 L119.7191 49.1162 "/>
<path d="M119.7191 49.1162 L119.7191 49.4889 "/>
<path d="M119.7191 49.4889 L119.8433 49.7373 "/>
<path d="M119.8433 49.7373 L119.9676 49.8615 "/>
<path d="M119.9676 49.8615 L120.2160 49.9858 "/>
<path d="M120.2160 49.9858 L121.2098 49.9858 "/>
</g><g transform="rotate(-90.000000 105.1347 139.1008)">
<text x="105.1347" y="140.4051" transform="scale(-1 1) translate(-210.269421 0)" textLength="5.9947" font-size="3.4781" lengthAdjust="spacingAndGlyphs" text-anchor="middle" opacity="0.01" style="font-family:monospace">R5</text>
</g>
<g class="stroked-text"><desc>R5</desc>
<path d="M106.3119 138.6661 L105.0697 137.7965 "/>
<path d="M106.3119 137.1754 L103.7033 137.1754 "/>
<path d="M103.7033 137.1754 L103.7033 138.1692 "/>
<path d="M103.7033 138.1692 L103.8275 138.4176 "/>
<path d="M103.8275 138.4176 L103.9517 138.5419 "/>
<path d="M103.9517 138.5419 L104.2002 138.6661 "/>
<path d="M104.2002 138.6661 L104.5728 138.6661 "/>
<path d="M104.5728 138.6661 L104.8213 138.5419 "/>
<path d="M104.8213 138.5419 L104.9455 138.4176 "/>
<path d="M104.9455 138.4176 L105.0697 138.1692 "/>
<path d="M105.0697 138.1692 L105.0697 137.1754 "/>
<path d="M103.7033 141.0262 L103.7033 139.7841 "/>
<path d="M103.7033 139.7841 L104.9455 139.6598 "/>
<path d="M104.9455 139.6598 L104.8213 139.7841 "/>
<path d="M104.8213 139.7841 L104.6970 140.0325 "/>
<path d="M104.6970 140.0325 L104.6970 140.6536 "/>
<path d="M104.6970 140.6536 L104.8213 140.9020 "/>
<path d="M104.8213 140.9020 L104.9455 141.0262 "/>
<path d="M104.9455 141.0262 L105.1939 141.1505 "/>
<path d="M105.1939 141.1505 L105.8150 141.1505 "/>
<path d="M105.8150 141.1505 L106.0635 141.0262 "/>
<path d="M106.0635 141.0262 L106.1877 140.9020 "/>
<path d="M106.1877 140.9020 L106.3119 140.6536 "/>
<path d="M106.3119 140.6536 L106.3119 140.0325 "/>
<path d="M106.3119 140.0325 L106.1877 139.7841 "/>
<path d="M106.1877 139.7841 L106.0635 139.6598 "/>
</g><g transform="rotate(-90.000000 101.4933 138.4388)">
<text x="101.4933" y="139.7431" transform="scale(-1 1) translate(-202.986515 0)" textLength="8.4791" font-size="3.4781" lengthAdjust="spacingAndGlyphs" text-anchor="middle" opacity="0.01" style="font-family:monospace">10R</text>
</g>
<g class="stroked-text"><desc>10R</desc>
<path d="M102.6704 136.6376 L102.6704 135.1470 "/>
<path d="M102.6704 135.8923 L100.0618 135.8923 "/>
<path d="M100.0618 135.8923 L100.4345 135.6438 "/>
<path d="M100.4345 135.6438 L100.6829 135.3954 "/>
<path d="M100.6829 135.3954 L100.8071 135.1470 "/>
<path d="M100.0618 138.2524 L100.0618 138.5009 "/>
<path d="M100.0618 138.5009 L100.1861 138.7493 "/>
<path d="M100.1861 138.7493 L100.3103 138.8735 "/>
<path d="M100.3103 138.8735 L100.5587 138.9977 "/>
<path d="M100.5587 138.9977 L101.0556 139.1220 "/>
<path d="M101.0556 139.1220 L101.6767 139.1220 "/>
<path d="M101.6767 139.1220 L102.1736 138.9977 "/>
<path d="M102.1736 138.9977 L102.4220 138.8735 "/>
<path d="M102.4220 138.8735 L102.5462 138.7493 "/>
<path d="M102.5462 138.7493 L102.6704 138.5009 "/>
<path d="M102.6704 138.5009 L102.6704 138.2524 "/>
<path d="M102.6704 138.2524 L102.5462 138.0040 "/>
<path d="M102.5462 138.0040 L102.4220 137.8798 "/>
<path d="M102.4220 137.8798 L102.1736 137.7556 "/>
<path d="M102.1736 137.7556 L101.6767 137.6313 "/>
<path d="M101.6767 137.6313 L101.0556 137.6313 "/>
<path d="M101.0556 137.6313 L100.5587 137.7556 "/>
<path d="M100.5587 137.7556 L100.3103 137.8798 "/>
<path d="M100.3103 137.8798 L100.1861 138.0040 "/>
<path d="M100.1861 138.0040 L100.0618 138.2524 "/>
<path d="M102.6704 141.7306 L101.4282 140.8610 "/>
<path d="M102.6704 140.2399 L100.0618 140.2399 "/>
<path d="M100.0618 140.2399 L100.0618 141.2337 "/>
<path d="M100.0618 141.2337 L100.1861 141.4821 "/>
<path d="M100.1861 141.4821 L100.3103 141.6063 "/>
<path d="M100.3103 141.6063 L100.5587 141.7306 "/>
<path d="M100.5587 141.7306 L100.9314 141.7306 "/>
<path d="M100.9314 141.7306 L101.1798 141.6063 "/>
<path d="M101.1798 141.6063 L101.3040 141.4821 "/>
<path d="M101.3040 141.4821 L101.4282 141.2337 "/>
<path d="M101.4282 141.2337 L101.4282 140.2399 "/>
</g><g transform="rotate(-90.000000 139.5630 107.3209)">
<text x="139.5630" y="108.6252" transform="scale(-1 1) translate(-279.125982 0)" textLength="5.9947" font-size="3.4781" lengthAdjust="spacingAndGlyphs" text-anchor="middle" opacity="0.01" style="font-family:monospace">R6</text>
</g>
<g class="stroked-text"><desc>R6</desc>
<path d="M140.7402 106.8861 L139.4980 106.0166 "/>
<path d="M140.7402 105.3955 L138.1316 105.3955 "/>
<path d="M138.1316 105.3955 L138.1316 106.3893 "/>
<path d="M138.1316 106.3893 L138.2558 106.6377 "/>
<path d="M138.2558 106.6377 L138.3800 106.7619 "/>
<path d="M138.3800 106.7619 L138.6284 106.8861 "/>
<path d="M138.6284 106.8861 L139.0011 106.8861 "/>
<path d="M139.0011 106.8861 L139.2495 106.7619 "/>
<path d="M139.2495 106.7619 L139.3738 106.6377 "/>
<path d="M139.3738 106.6377 L139.4980 106.3893 "/>
<path d="M139.4980 106.3893 L139.4980 105.3955 "/>
<path d="M138.1316 109.1221 L138.1316 108.6252 "/>
<path d="M138.1316 108.6252 L138.2558 108.3768 "/>
<path d="M138.2558 108.3768 L138.3800 108.2525 "/>
<path d="M138.3800 108.2525 L138.7527 108.0041 "/>
<path d="M138.7527 108.0041 L139.2495 107.8799 "/>
<path d="M139.2495 107.8799 L140.2433 107.8799 "/>
<path d="M140.2433 107.8799 L140.4917 108.0041 "/>
<path d="M140.4917 108.0041 L140.6160 108.1283 "/>
<path d="M140.6160 108.1283 L140.7402 108.3768 "/>
<path d="M140.7402 108.3768 L140.7402 108.8736 "/>
<path d="M140.7402 108.8736 L140.6160 109.1221 "/>
<path d="M140.6160 109.1221 L140.4917 109.2463 "/>
<path d="M140.4917 109.2463 L140.2433 109.3705 "/>
<path d="M140.2433 109.3705 L139.6222 109.3705 "/>
<path d="M139.6222 109.3705 L139.3738 109.2463 "/>
<path d="M139.3738 109.2463 L139.2495 109.1221 "/>
<path d="M139.2495 109.1221 L139.1253 108.8736 "/>
<path d="M139.1253 108.8736 L139.1253 108.3768 "/>
<path d="M139.1253 108.3768 L139.2495 108.1283 "/>
<path d="M139.2495 108.1283 L139.3738 108.0041 "/>
<path d="M139.3738 108.0041 L139.6222 107.8799 "/>
</g><g transform="rotate(-90.000000 135.9215 106.6588)">
<text x="135.9215" y="107.9631" transform="scale(-1 1) translate(-271.843076 0)" textLength="4.1315" font-size="3.4781" lengthAdjust="spacingAndGlyphs" text-anchor="middle" opacity="0.01" style="font-family:monospace">-</text>
</g>
<g class="stroked-text"><desc>-</desc>
<path d="M136.1050 105.6651 L136.1050 107.6526 "/>
</g><g transform="rotate(-90.000000 147.5080 136.4525)">
<text x="147.5080" y="137.7568" transform="scale(-1 1) translate(-295.015957 0)" textLength="5.9947" font-size="3.4781" lengthAdjust="spacingAndGlyphs" text-anchor="middle" opacity="0.01" style="font-family:monospace">R7</text>
</g>
<g class="stroked-text"><desc>R7</desc>
<path d="M148.6852 136.0177 L147.4430 135.1482 "/>
<path d="M148.6852 134.5271 L146.0766 134.5271 "/>
<path d="M146.0766 134.5271 L146.0766 135.5209 "/>
<path d="M146.0766 135.5209 L146.2008 135.7693 "/>
<path d="M146.2008 135.7693 L146.3250 135.8935 "/>
<path d="M146.3250 135.8935 L146.5734 136.0177 "/>
<path d="M146.5734 136.0177 L146.9461 136.0177 "/>
<path d="M146.9461 136.0177 L147.1945 135.8935 "/>
<path d="M147.1945 135.8935 L147.3187 135.7693 "/>
<path d="M147.3187 135.7693 L147.4430 135.5209 "/>
<path d="M147.4430 135.5209 L147.4430 134.5271 "/>
<path d="M146.0766 136.8873 L146.0766 138.6264 "/>
<path d="M146.0766 138.6264 L148.6852 137.5084 "/>
</g><g transform="rotate(-90.000000 143.8665 135.7904)">
<text x="143.8665" y="137.0947" transform="scale(-1 1) translate(-287.733052 0)" textLength="4.1315" font-size="3.4781" lengthAdjust="spacingAndGlyphs" text-anchor="middle" opacity="0.01" style="font-family:monospace">-</text>
</g>
<g class="stroked-text"><desc>-</desc>
<path d="M144.0499 134.7967 L144.0499 136.7842 "/>
</g><g transform="rotate(-90.000000 133.6043 136.4525)">
<text x="133.6043" y="137.7568" transform="scale(-1 1) translate(-267.208500 0)" textLength="5.9947" font-size="3.4781" lengthAdjust="spacingAndGlyphs" text-anchor="middle" opacity="0.01" style="font-family:monospace">R8</text>
</g>
<g class="stroked-text"><desc>R8</desc>
<path d="M134.7814 136.0177 L133.5392 135.1482 "/>
<path d="M134.7814 134.5271 L132.1728 134.5271 "/>
<path d="M132.1728 134.5271 L132.1728 135.5209 "/>
<path d="M132.1728 135.5209 L132.2970 135.7693 "/>
<path d="M132.2970 135.7693 L132.4213 135.8935 "/>
<path d="M132.4213 135.8935 L132.6697 136.0177 "/>
<path d="M132.6697 136.0177 L133.0424 136.0177 "/>
<path d="M133.0424 136.0177 L133.2908 135.8935 "/>
<path d="M133.2908 135.8935 L133.4150 135.7693 "/>
<path d="M133.4150 135.7693 L133.5392 135.5209 "/>
<path d="M133.5392 135.5209 L133.5392 134.5271 "/>
<path d="M133.2908 137.5084 L133.1666 137.2599 "/>
<path d="M133.1666 137.2599 L133.0424 137.1357 "/>
<path d="M133.0424 137.1357 L132.7939 137.0115 "/>
<path d="M132.7939 137.0115 L132.6697 137.0115 "/>
<path d="M132.6697 137.0115 L132.4213 137.1357 "/>
<path d="M132.4213 137.1357 L132.2970 137.2599 "/>
<path d="M132.2970 137.2599 L132.1728 137.5084 "/>
<path d="M132.1728 137.5084 L132.1728 138.0053 "/>
<path d="M132.1728 138.0053 L132.2970 138.2537 "/>
<path d="M132.2970 138.2537 L132.4213 138.3779 "/>
<path d="M132.4213 138.3779 L132.6697 138.5021 "/>
<path d="M132.6697 138.5021 L132.7939 138.5021 "/>
<path d="M132.7939 138.5021 L133.0424 138.3779 "/>
<path d="M133.0424 138.3779 L133.1666 138.2537 "/>
<path d="M133.1666 138.2537 L133.2908 138.0053 "/>
<path d="M133.2908 138.0053 L133.2908 137.5084 "/>
<path d="M133.2908 137.5084 L133.4150 137.2599 "/>
<path d="M133.4150 137.2599 L133.5392 137.1357 "/>
<path d="M133.5392 137.1357 L133.7877 137.0115 "/>
<path d="M133.7877 137.0115 L134.2846 137.0115 "/>
<path d="M134.2846 137.0115 L134.5330 137.1357 "/>
<path d="M134.5330 137.1357 L134.6572 137.2599 "/>
<path d="M134.6572 137.2599 L134.7814 137.5084 "/>
<path d="M134.7814 137.5084 L134.7814 138.0053 "/>
<path d="M134.7814 138.0053 L134.6572 138.2537 "/>
<path d="M134.6572 138.2537 L134.5330 138.3779 "/>
<path d="M134.5330 138.3779 L134.2846 138.5021 "/>
<path d="M134.2846 138.5021 L133.7877 138.5021 "/>
<path d="M133.7877 138.5021 L133.5392 138.3779 "/>
<path d="M133.5392 138.3779 L133.4150 138.2537 "/>
<path d="M133.4150 138.2537 L133.2908 138.0053 "/>
</g><g transform="rotate(-90.000000 137.2457 137.1146)">
<text x="137.2457" y="138.4189" transform="scale(-1 1) translate(-274.491406 0)" textLength="12.9510" font-size="3.4781" lengthAdjust="spacingAndGlyphs" text-anchor="middle" opacity="0.01" style="font-family:monospace">100nF</text>
</g>
<g class="stroked-text"><desc>100nF</desc>
<path d="M138.4229 133.0775 L138.4229 131.5868 "/>
<path d="M138.4229 132.3322 L135.8143 132.3322 "/>
<path d="M135.8143 132.3322 L136.1869 132.0837 "/>
<path d="M136.1869 132.0837 L136.4354 131.8353 "/>
<path d="M136.4354 131.8353 L136.5596 131.5868 "/>
<path d="M135.8143 134.6923 L135.8143 134.9408 "/>
<path d="M135.8143 134.9408 L135.9385 135.1892 "/>
<path d="M135.9385 135.1892 L136.0627 135.3134 "/>
<path d="M136.0627 135.3134 L136.3112 135.4376 "/>
<path d="M136.3112 135.4376 L136.8080 135.5619 "/>
<path d="M136.8080 135.5619 L137.4291 135.5619 "/>
<path d="M137.4291 135.5619 L137.9260 135.4376 "/>
<path d="M137.9260 135.4376 L138.1744 135.3134 "/>
<path d="M138.1744 135.3134 L138.2987 135.1892 "/>
<path d="M138.2987 135.1892 L138.4229 134.9408 "/>
<path d="M138.4229 134.9408 L138.4229 134.6923 "/>
<path d="M138.4229 134.6923 L138.2987 134.4439 "/>
<path d="M138.2987 134.4439 L138.1744 134.3197 "/>
<path d="M138.1744 134.3197 L137.9260 134.1954 "/>
<path d="M137.9260 134.1954 L137.4291 134.0712 "/>
<path d="M137.4291 134.0712 L136.8080 134.0712 "/>
<path d="M136.8080 134.0712 L136.3112 134.1954 "/>
<path d="M136.3112 134.1954 L136.0627 134.3197 "/>
<path d="M136.0627 134.3197 L135.9385 134.4439 "/>
<path d="M135.9385 134.4439 L135.8143 134.6923 "/>
<path d="M135.8143 137.1767 L135.8143 137.4251 "/>
<path d="M135.8143 137.4251 L135.9385 137.6736 "/>
<path d="M135.9385 137.6736 L136.0627 137.7978 "/>
<path d="M136.0627 137.7978 L136.3112 137.9220 "/>
<path d="M136.3112 137.9220 L136.8080 138.0462 "/>
<path d="M136.8080 138.0462 L137.4291 138.0462 "/>
<path d="M137.4291 138.0462 L137.9260 137.9220 "/>
<path d="M137.9260 137.9220 L138.1744 137.7978 "/>
<path d="M138.1744 137.7978 L138.2987 137.6736 "/>
<path d="M138.2987 137.6736 L138.4229 137.4251 "/>
<path d="M138.4229 137.4251 L138.4229 137.1767 "/>
<path d="M138.4229 137.1767 L138.2987 136.9283 "/>
<path d="M138.2987 136.9283 L138.1744 136.8040 "/>
<path d="M138.1744 136.8040 L137.9260 136.6798 "/>
<path d="M137.9260 136.6798 L137.4291 136.5556 "/>
<path d="M137.4291 136.5556 L136.8080 136.5556 "/>
<path d="M136.8080 136.5556 L136.3112 136.6798 "/>
<path d="M136.3112 136.6798 L136.0627 136.8040 "/>
<path d="M136.0627 136.8040 L135.9385 136.9283 "/>
<path d="M135.9385 136.9283 L135.8143 137.1767 "/>
<path d="M136.6838 139.1642 L138.4229 139.1642 "/>
<path d="M136.9323 139.1642 L136.8080 139.2884 "/>
<path d="M136.8080 139.2884 L136.6838 139.5369 "/>
<path d="M136.6838 139.5369 L136.6838 139.9095 "/>
<path d="M136.6838 139.9095 L136.8080 140.1580 "/>
<path d="M136.8080 140.1580 L137.0565 140.2822 "/>
<path d="M137.0565 140.2822 L138.4229 140.2822 "/>
<path d="M137.0565 142.3939 L137.0565 141.5244 "/>
<path d="M138.4229 141.5244 L135.8143 141.5244 "/>
<path d="M135.8143 141.5244 L135.8143 142.7666 "/>
</g><g transform="rotate(-90.000000 184.5846 94.7413)">
<text x="184.5846" y="96.0456" transform="scale(-1 1) translate(-369.169177 0)" textLength="5.9947" font-size="3.4781" lengthAdjust="spacingAndGlyphs" text-anchor="middle" opacity="0.01" style="font-family:monospace">R9</text>
</g>
<g class="stroked-text"><desc>R9</desc>
<path d="M185.7618 94.3066 L184.5196 93.4370 "/>
<path d="M185.7618 92.8159 L183.1532 92.8159 "/>
<path d="M183.1532 92.8159 L183.1532 93.8097 "/>
<path d="M183.1532 93.8097 L183.2774 94.0581 "/>
<path d="M183.2774 94.0581 L183.4016 94.1823 "/>
<path d="M183.4016 94.1823 L183.6500 94.3066 "/>
<path d="M183.6500 94.3066 L184.0227 94.3066 "/>
<path d="M184.0227 94.3066 L184.2711 94.1823 "/>
<path d="M184.2711 94.1823 L184.3954 94.0581 "/>
<path d="M184.3954 94.0581 L184.5196 93.8097 "/>
<path d="M184.5196 93.8097 L184.5196 92.8159 "/>
<path d="M185.7618 95.5488 L185.7618 96.0456 "/>
<path d="M185.7618 96.0456 L185.6375 96.2941 "/>
<path d="M185.6375 96.2941 L185.5133 96.4183 "/>
<path d="M185.5133 96.4183 L185.1407 96.6667 "/>
<path d="M185.1407 96.6667 L184.6438 96.7909 "/>
<path d="M184.6438 96.7909 L183.6500 96.7909 "/>
<path d="M183.6500 96.7909 L183.4016 96.6667 "/>
<path d="M183.4016 96.6667 L183.2774 96.5425 "/>
<path d="M183.2774 96.5425 L183.1532 96.2941 "/>
<path d="M183.1532 96.2941 L183.1532 95.7972 "/>
<path d="M183.1532 95.7972 L183.2774 95.5488 "/>
<path d="M183.2774 95.5488 L183.4016 95.4245 "/>
<path d="M183.4016 95.4245 L183.6500 95.3003 "/>
<path d="M183.6500 95.3003 L184.2711 95.3003 "/>
<path d="M184.2711 95.3003 L184.5196 95.4245 "/>
<path d="M184.5196 95.4245 L184.6438 95.5488 "/>
<path d="M184.6438 95.5488 L184.7680 95.7972 "/>
<path d="M184.7680 95.7972 L184.7680 96.2941 "/>
<path d="M184.7680 96.2941 L184.6438 96.5425 "/>
<path d="M184.6438 96.5425 L184.5196 96.6667 "/>
<path d="M184.5196 96.6667 L184.2711 96.7909 "/>
</g><g transform="rotate(-90.000000 180.9431 94.0792)">
<text x="180.9431" y="95.3835" transform="scale(-1 1) translate(-361.886272 0)" textLength="10.9635" font-size="3.4781" lengthAdjust="spacingAndGlyphs" text-anchor="middle" opacity="0.01" style="font-family:monospace">470R</text>
</g>
<g class="stroked-text"><desc>470R</desc>
<path d="M180.3812 90.7874 L182.1203 90.7874 "/>
<path d="M179.3875 90.1663 L181.2508 89.5452 "/>
<path d="M181.2508 89.5452 L181.2508 91.1601 "/>
<path d="M179.5117 91.9054 L179.5117 93.6445 "/>
<path d="M179.5117 93.6445 L182.1203 92.5265 "/>
<path d="M179.5117 95.1351 L179.5117 95.3835 "/>
<path d="M179.5117 95.3835 L179.6359 95.6320 "/>
<path d="M179.6359 95.6320 L179.7601 95.7562 "/>
<path d="M179.7601 95.7562 L180.0086 95.8804 "/>
<path d="M180.0086 95.8804 L180.5055 96.0046 "/>
<path d="M180.5055 96.0046 L181.1266 96.0046 "/>
<path d="M181.1266 96.0046 L181.6234 95.8804 "/>
<path d="M181.6234 95.8804 L181.8719 95.7562 "/>
<path d="M181.8719 95.7562 L181.9961 95.6320 "/>
<path d="M181.9961 95.6320 L182.1203 95.3835 "/>
<path d="M182.1203 95.3835 L182.1203 95.1351 "/>
<path d="M182.1203 95.1351 L181.9961 94.8867 "/>
<path d="M181.9961 94.8867 L181.8719 94.7625 "/>
<path d="M181.8719 94.7625 L181.6234 94.6382 "/>
<path d="M181.6234 94.6382 L181.1266 94.5140 "/>
<path d="M181.1266 94.5140 L180.5055 94.5140 "/>
<path d="M180.5055 94.5140 L180.0086 94.6382 "/>
<path d="M180.0086 94.6382 L179.7601 94.7625 "/>
<path d="M179.7601 94.7625 L179.6359 94.8867 "/>
<path d="M179.6359 94.8867 L179.5117 95.1351 "/>
<path d="M182.1203 98.6132 L180.8781 97.7437 "/>
<path d="M182.1203 97.1226 L179.5117 97.1226 "/>
<path d="M179.5117 97.1226 L179.5117 98.1164 "/>
<path d="M179.5117 98.1164 L179.6359 98.3648 "/>
<path d="M179.6359 98.3648 L179.7601 98.4890 "/>
<path d="M179.7601 98.4890 L180.0086 98.6132 "/>
<path d="M180.0086 98.6132 L180.3812 98.6132 "/>
<path d="M180.3812 98.6132 L180.6297 98.4890 "/>
<path d="M180.6297 98.4890 L180.7539 98.3648 "/>
<path d="M180.7539 98.3648 L180.8781 98.1164 "/>
<path d="M180.8781 98.1164 L180.8781 97.1226 "/>
</g><text x="179.9500" y="115.2460" transform="scale(-1 1) translate(-359.900025 0)" textLength="8.4791" font-size="3.4781" lengthAdjust="spacingAndGlyphs" text-anchor="middle" opacity="0.01" style="font-family:monospace">R11</text>
<g class="stroked-text"><desc>R11</desc>
<path d="M181.6270 115.1189 L182.4965 113.8767 "/>
<path d="M183.1176 115.1189 L183.1176 112.5103 "/>
<path d="M183.1176 112.5103 L182.1238 112.5103 "/>
<path d="M182.1238 112.5103 L181.8754 112.6345 "/>
<path d="M181.8754 112.6345 L181.7512 112.7587 "/>
<path d="M181.7512 112.7587 L181.6270 113.0072 "/>
<path d="M181.6270 113.0072 L181.6270 113.3798 "/>
<path d="M181.6270 113.3798 L181.7512 113.6283 "/>
<path d="M181.7512 113.6283 L181.8754 113.7525 "/>
<path d="M181.8754 113.7525 L182.1238 113.8767 "/>
<path d="M182.1238 113.8767 L183.1176 113.8767 "/>
<path d="M179.1426 115.1189 L180.6332 115.1189 "/>
<path d="M179.8879 115.1189 L179.8879 112.5103 "/>
<path d="M179.8879 112.5103 L180.1363 112.8830 "/>
<path d="M180.1363 112.8830 L180.3848 113.1314 "/>
<path d="M180.3848 113.1314 L180.6332 113.2556 "/>
<path d="M176.6582 115.1189 L178.1488 115.1189 "/>
<path d="M177.4035 115.1189 L177.4035 112.5103 "/>
<path d="M177.4035 112.5103 L177.6520 112.8830 "/>
<path d="M177.6520 112.8830 L177.9004 113.1314 "/>
<path d="M177.9004 113.1314 L178.1488 113.2556 "/>
</g><text x="179.2879" y="118.8875" transform="scale(-1 1) translate(-358.575860 0)" textLength="5.4979" font-size="3.4781" lengthAdjust="spacingAndGlyphs" text-anchor="middle" opacity="0.01" style="font-family:monospace">1k</text>
<g class="stroked-text"><desc>1k</desc>
<path d="M179.5985 118.7603 L181.0891 118.7603 "/>
<path d="M180.3438 118.7603 L180.3438 116.1517 "/>
<path d="M180.3438 116.1517 L180.5922 116.5244 "/>
<path d="M180.5922 116.5244 L180.8407 116.7728 "/>
<path d="M180.8407 116.7728 L181.0891 116.8971 "/>
<path d="M178.4805 118.7603 L178.4805 116.1517 "/>
<path d="M178.2321 117.7666 L177.4867 118.7603 "/>
<path d="M177.4867 117.0213 L178.4805 118.0150 "/>
</g><g transform="rotate(-90.000000 158.1013 136.4525)">
<text x="158.1013" y="137.7568" transform="scale(-1 1) translate(-316.202592 0)" textLength="8.4791" font-size="3.4781" lengthAdjust="spacingAndGlyphs" text-anchor="middle" opacity="0.01" style="font-family:monospace">R12</text>
</g>
<g class="stroked-text"><desc>R12</desc>
<path d="M159.2785 134.7756 L158.0363 133.9060 "/>
<path d="M159.2785 133.2849 L156.6699 133.2849 "/>
<path d="M156.6699 133.2849 L156.6699 134.2787 "/>
<path d="M156.6699 134.2787 L156.7941 134.5271 "/>
<path d="M156.7941 134.5271 L156.9183 134.6513 "/>
<path d="M156.9183 134.6513 L157.1667 134.7756 "/>
<path d="M157.1667 134.7756 L157.5394 134.7756 "/>
<path d="M157.5394 134.7756 L157.7878 134.6513 "/>
<path d="M157.7878 134.6513 L157.9121 134.5271 "/>
<path d="M157.9121 134.5271 L158.0363 134.2787 "/>
<path d="M158.0363 134.2787 L158.0363 133.2849 "/>
<path d="M159.2785 137.2599 L159.2785 135.7693 "/>
<path d="M159.2785 136.5146 L156.6699 136.5146 "/>
<path d="M156.6699 136.5146 L157.0425 136.2662 "/>
<path d="M157.0425 136.2662 L157.2910 136.0177 "/>
<path d="M157.2910 136.0177 L157.4152 135.7693 "/>
<path d="M156.9183 138.2537 L156.7941 138.3779 "/>
<path d="M156.7941 138.3779 L156.6699 138.6264 "/>
<path d="M156.6699 138.6264 L156.6699 139.2474 "/>
<path d="M156.6699 139.2474 L156.7941 139.4959 "/>
<path d="M156.7941 139.4959 L156.9183 139.6201 "/>
<path d="M156.9183 139.6201 L157.1667 139.7443 "/>
<path d="M157.1667 139.7443 L157.4152 139.7443 "/>
<path d="M157.4152 139.7443 L157.7878 139.6201 "/>
<path d="M157.7878 139.6201 L159.2785 138.1295 "/>
<path d="M159.2785 138.1295 L159.2785 139.7443 "/>
</g><g transform="rotate(-90.000000 154.4598 135.7904)">
<text x="154.4598" y="137.0947" transform="scale(-1 1) translate(-308.919686 0)" textLength="5.4979" font-size="3.4781" lengthAdjust="spacingAndGlyphs" text-anchor="middle" opacity="0.01" style="font-family:monospace">1k</text>
</g>
<g class="stroked-text"><desc>1k</desc>
<path d="M155.6370 135.4799 L155.6370 133.9893 "/>
<path d="M155.6370 134.7346 L153.0284 134.7346 "/>
<path d="M153.0284 134.7346 L153.4011 134.4861 "/>
<path d="M153.4011 134.4861 L153.6495 134.2377 "/>
<path d="M153.6495 134.2377 L153.7737 133.9893 "/>
<path d="M155.6370 136.5979 L153.0284 136.5979 "/>
<path d="M154.6433 136.8463 L155.6370 137.5916 "/>
<path d="M153.8979 137.5916 L154.8917 136.5979 "/>
</g></g>
<g style="fill:#000084; fill-opacity:0.0;  stroke:#000084; stroke-width:0.3910; stroke-opacity:1;  stroke-linecap:round; stroke-linejoin:round;">
<g transform="rotate(-90.000000 159.5323 115.5969)">
<text x="159.5323" y="116.9002" transform="scale(-1 1) translate(-319.064664 0)" textLength="5.6694" font-size="3.4755" lengthAdjust="spacingAndGlyphs" text-anchor="middle" opacity="0.01" style="font-family:monospace">U2</text>
</g>
<g class="stroked-text"><desc>U2</desc>
<path d="M158.1112 113.6109 L160.2214 113.6109 "/>
<path d="M160.2214 113.6109 L160.4696 113.7351 "/>
<path d="M160.4696 113.7351 L160.5937 113.8592 "/>
<path d="M160.5937 113.8592 L160.7179 114.1074 "/>
<path d="M160.7179 114.1074 L160.7179 114.6039 "/>
<path d="M160.7179 114.6039 L160.5937 114.8522 "/>
<path d="M160.5937 114.8522 L160.4696 114.9763 "/>
<path d="M160.4696 114.9763 L160.2214 115.1004 "/>
<path d="M160.2214 115.1004 L158.1112 115.1004 "/>
<path d="M158.3595 116.2176 L158.2354 116.3417 "/>
<path d="M158.2354 116.3417 L158.1112 116.5899 "/>
<path d="M158.1112 116.5899 L158.1112 117.2105 "/>
<path d="M158.1112 117.2105 L158.2354 117.4588 "/>
<path d="M158.2354 117.4588 L158.3595 117.5829 "/>
<path d="M158.3595 117.5829 L158.6077 117.7070 "/>
<path d="M158.6077 117.7070 L158.8560 117.7070 "/>
<path d="M158.8560 117.7070 L159.2284 117.5829 "/>
<path d="M159.2284 117.5829 L160.7179 116.0934 "/>
<path d="M160.7179 116.0934 L160.7179 117.7070 "/>
</g></g>
<g style="fill:#000084; fill-opacity:0.0;  stroke:#000084; stroke-width:0.7820; stroke-opacity:1;  stroke-linecap:round; stroke-linejoin:round;">
<path d="M135.5905 56.0095 L140.8872 56.0095 "/>
<path d="M146.1838 56.0095 L151.4805 56.0095 "/>
<path d="M135.5905 48.0645 L135.5905 56.0095 "/>
<path d="M151.4805 48.0645 L146.1838 48.0645 "/>
<path d="M140.8872 48.0645 L135.5905 48.0645 "/>
<path d="M151.4805 56.0095 L151.4805 48.0645 "/>
<path d="M158.7634 103.6794 L164.0600 103.6794 "/>
<path d="M158.7634 95.7344 L158.7634 103.6794 "/>
<path d="M169.3567 103.6794 L174.6534 103.6794 "/>
<path d="M174.6534 95.7344 L169.3567 95.7344 "/>
<path d="M174.6534 103.6794 L174.6534 95.7344 "/>
<path d="M164.0600 95.7344 L158.7634 95.7344 "/>
<path d="M163.0669 158.3012 L163.0669 163.5979 "/>
<path d="M171.0119 153.0046 L171.0119 147.7079 "/>
<path d="M171.0119 147.7079 L163.0669 147.7079 "/>
<path d="M171.0119 163.5979 L171.0119 158.3012 "/>
<path d="M163.0669 147.7079 L163.0669 153.0046 "/>
<path d="M163.0669 163.5979 L171.0119 163.5979 "/>
<path d="M159.4255 154.3287 L154.1288 154.3287 "/>
<path d="M143.5355 162.2737 L148.8321 162.2737 "/>
<path d="M154.1288 162.2737 L159.4255 162.2737 "/>
<path d="M143.5355 154.3287 L143.5355 162.2737 "/>
<path d="M159.4255 162.2737 L159.4255 154.3287 "/>
<path d="M148.8321 154.3287 L143.5355 154.3287 "/>
</g>
<g style="fill:#000084; fill-opacity:0.0;  stroke:#000084; stroke-width:0.5213; stroke-opacity:1;  stroke-linecap:round; stroke-linejoin:round;">
<path d="M180.2864 183.7161 L184.1927 189.7146 "/>
<path d="M180.2864 183.7161 L180.2864 179.0153 "/>
<path d="M188.1009 175.1113 L172.4612 175.1113 "/>
<path d="M172.4612 199.0923 L188.1009 199.0923 "/>
<path d="M184.1927 189.7146 L176.1153 189.7146 "/>
<path d="M176.1153 183.7161 L184.4575 183.7161 "/>
<path d="M180.2864 183.7161 L176.1153 189.7146 "/>
<path d="M172.4612 199.0923 L172.4612 175.1113 "/>
<path d="M188.1009 199.0923 L188.1009 175.1113 "/>
<path d="M180.2864 189.7146 L180.2864 194.9186 "/>
</g>
<g style="fill:#000084; fill-opacity:0.0;  stroke:#000084; stroke-width:0.7820; stroke-opacity:1;  stroke-linecap:round; stroke-linejoin:round;">
<path d="M175.3154 146.0527 L180.6121 146.0527 "/>
<path d="M180.6121 146.0527 L180.6121 138.1077 "/>
<path d="M170.0188 138.1077 L164.7221 138.1077 "/>
<path d="M164.7221 138.1077 L164.7221 146.0527 "/>
<path d="M164.7221 146.0527 L170.0188 146.0527 "/>
<path d="M180.6121 138.1077 L175.3154 138.1077 "/>
<path d="M214.3386 146.4632 L183.0618 146.4632 "/>
<path d="M214.4577 164.1805 L183.1810 164.1805 "/>
<path d="M180.6121 127.5144 L175.3154 127.5144 "/>
<path d="M175.3154 135.4594 L180.6121 135.4594 "/>
<path d="M180.6121 135.4594 L180.6121 127.5144 "/>
<path d="M164.7221 127.5144 L164.7221 135.4594 "/>
<path d="M164.7221 135.4594 L170.0188 135.4594 "/>
<path d="M170.0188 127.5144 L164.7221 127.5144 "/>
<path d="M135.2595 71.8995 L140.5561 71.8995 "/>
<path d="M145.8528 71.8995 L151.1494 71.8995 "/>
<path d="M135.2595 63.9545 L135.2595 71.8995 "/>
<path d="M151.1494 63.9545 L145.8528 63.9545 "/>
<path d="M151.1494 71.8995 L151.1494 63.9545 "/>
<path d="M140.5561 63.9545 L135.2595 63.9545 "/>
<path d="M116.3901 63.9545 L111.0935 63.9545 "/>
<path d="M126.9834 71.8995 L126.9834 63.9545 "/>
<path d="M111.0935 63.9545 L111.0935 71.8995 "/>
<path d="M111.0935 71.8995 L116.3901 71.8995 "/>
<path d="M126.9834 63.9545 L121.6868 63.9545 "/>
<path d="M121.6868 71.8995 L126.9834 71.8995 "/>
<path d="M159.2666 45.7472 L190.5433 45.7472 "/>
<path d="M159.3857 63.4646 L190.6625 63.4646 "/>
</g>
<g style="fill:#000084; fill-opacity:0.0;  stroke:#000084; stroke-width:0.5213; stroke-opacity:1;  stroke-linecap:round; stroke-linejoin:round;">
<path d="M163.2546 71.7014 L163.2546 80.0426 "/>
<path d="M186.7142 71.7014 L163.2546 71.7014 "/>
<path d="M186.7142 80.0426 L186.7142 71.7014 "/>
<path d="M163.2546 80.0426 L186.7142 80.0426 "/>
</g>
<g style="fill:#000084; fill-opacity:0.0;  stroke:#000084; stroke-width:0.7820; stroke-opacity:1;  stroke-linecap:round; stroke-linejoin:round;">
<path d="M116.3901 77.1961 L116.3901 85.1411 "/>
<path d="M116.3901 85.1411 L121.6868 85.1411 "/>
<path d="M132.2801 85.1411 L132.2801 77.1961 "/>
<path d="M132.2801 77.1961 L126.9834 77.1961 "/>
<path d="M121.6868 77.1961 L116.3901 77.1961 "/>
<path d="M126.9834 85.1411 L132.2801 85.1411 "/>
<path d="M111.7555 135.4594 L117.0522 135.4594 "/>
<path d="M127.6455 127.5144 L122.3489 127.5144 "/>
<path d="M127.6455 135.4594 L127.6455 127.5144 "/>
<path d="M111.7555 127.5144 L111.7555 135.4594 "/>
<path d="M122.3489 135.4594 L127.6455 135.4594 "/>
<path d="M117.0522 127.5144 L111.7555 127.5144 "/>
<path d="M186.9019 27.8710 L186.9019 22.5744 "/>
<path d="M186.9019 22.5744 L178.9569 22.5744 "/>
<path d="M186.9019 38.4643 L186.9019 33.1677 "/>
<path d="M178.9569 33.1677 L178.9569 38.4643 "/>
<path d="M178.9569 22.5744 L178.9569 27.8710 "/>
<path d="M178.9569 38.4643 L186.9019 38.4643 "/>
<path d="M114.4039 48.0645 L114.4039 56.0095 "/>
<path d="M124.9972 56.0095 L130.2938 56.0095 "/>
<path d="M114.4039 56.0095 L119.7005 56.0095 "/>
<path d="M130.2938 56.0095 L130.2938 48.0645 "/>
<path d="M119.7005 48.0645 L114.4039 48.0645 "/>
<path d="M130.2938 48.0645 L124.9972 48.0645 "/>
<path d="M107.4520 147.0458 L107.4520 141.7492 "/>
<path d="M107.4520 131.1559 L99.5070 131.1559 "/>
<path d="M107.4520 136.4525 L107.4520 131.1559 "/>
<path d="M99.5070 147.0458 L107.4520 147.0458 "/>
<path d="M99.5070 141.7492 L99.5070 147.0458 "/>
<path d="M99.5070 131.1559 L99.5070 136.4525 "/>
<path d="M141.8803 99.3759 L133.9353 99.3759 "/>
<path d="M133.9353 99.3759 L133.9353 104.6726 "/>
<path d="M133.9353 115.2659 L141.8803 115.2659 "/>
<path d="M141.8803 104.6726 L141.8803 99.3759 "/>
<path d="M141.8803 115.2659 L141.8803 109.9692 "/>
<path d="M133.9353 109.9692 L133.9353 115.2659 "/>
<path d="M141.8803 144.3975 L149.8253 144.3975 "/>
<path d="M149.8253 144.3975 L149.8253 139.1008 "/>
<path d="M149.8253 133.8042 L149.8253 128.5075 "/>
<path d="M141.8803 128.5075 L141.8803 133.8042 "/>
<path d="M149.8253 128.5075 L141.8803 128.5075 "/>
<path d="M141.8803 139.1008 L141.8803 144.3975 "/>
<path d="M139.2319 133.8042 L139.2319 128.5075 "/>
<path d="M131.2870 139.1008 L131.2870 144.3975 "/>
<path d="M131.2870 144.3975 L139.2319 144.3975 "/>
<path d="M139.2319 128.5075 L131.2870 128.5075 "/>
<path d="M131.2870 128.5075 L131.2870 133.8042 "/>
<path d="M139.2319 144.3975 L139.2319 139.1008 "/>
<path d="M186.9019 92.0930 L186.9019 86.7963 "/>
<path d="M178.9569 102.6863 L186.9019 102.6863 "/>
<path d="M178.9569 97.3897 L178.9569 102.6863 "/>
<path d="M178.9569 86.7963 L178.9569 92.0930 "/>
<path d="M186.9019 102.6863 L186.9019 97.3897 "/>
<path d="M186.9019 86.7963 L178.9569 86.7963 "/>
<path d="M177.3017 111.6244 L172.0050 111.6244 "/>
<path d="M187.8950 111.6244 L182.5983 111.6244 "/>
<path d="M172.0050 119.5694 L177.3017 119.5694 "/>
<path d="M172.0050 111.6244 L172.0050 119.5694 "/>
<path d="M187.8950 119.5694 L187.8950 111.6244 "/>
<path d="M182.5983 119.5694 L187.8950 119.5694 "/>
<path d="M152.4736 144.3975 L160.4186 144.3975 "/>
<path d="M152.4736 128.5075 L152.4736 133.8042 "/>
<path d="M160.4186 128.5075 L152.4736 128.5075 "/>
<path d="M152.4736 139.1008 L152.4736 144.3975 "/>
<path d="M160.4186 133.8042 L160.4186 128.5075 "/>
<path d="M160.4186 144.3975 L160.4186 139.1008 "/>
</g>
<g style="fill:#000084; fill-opacity:0.0;  stroke:#000084; stroke-width:0.5213; stroke-opacity:1;  stroke-linecap:round; stroke-linejoin:round;">
<path d="M164.2243 123.6775 L164.2243 107.5164 "/>
<path d="M164.2243 123.6775 L158.2290 123.6775 "/>
<path d="M154.8404 120.2888 L154.8404 107.5164 "/>
<path d="M154.8404 120.2888 L158.2290 123.6775 "/>
<path d="M164.2243 107.5164 L154.8404 107.5164 "/>
<g>
</g>
<g>
</g>
<g>
</g>
<g>
</g>
<g>
</g>
<g>
</g>
<g>
</g>
<g>
</g>
<g>
</g>
<g>
</g>
<g>
</g>
<g>
</g>
<g>
</g>
<g>
</g>
<g>
</g>
<g>
</g>
<g>
</g>
<g>
</g>
<g>
</g>
<g>
</g>
<g>
</g>
<g>
</g>
<g>
</g>
<g>
</g>
<g>
</g>
<g>
</g>
<g>
</g>
<g>
</g>
<g>
</g>
<g>
</g>
<g>
</g>
<g>
</g>
<g>
</g>
<g>
</g>
<g>
</g>
<g>
</g>
<g>
</g>
<g>
</g>
<g>
</g>
<g>
</g>
<g>
</g>
<g>
</g>
</g> 
<svg:g><svg:g><svg:title>SVG Image created as SIPM02-Edge_Cuts.svg date 2023/07/05 01:38:45 </svg:title>
  <svg:desc>Image generated by PCBNEW </svg:desc>
<svg:g style="fill:#C2C200; fill-opacity:1.0000;stroke:#C2C200; stroke-opacity:1.0000; stroke-linecap:round; stroke-linejoin:round;" transform="translate(0 0) scale(1 1)">
</svg:g>
<svg:g style="fill:#C2C200; fill-opacity:0.0;  stroke:#C2C200; stroke-width:0.0000; stroke-opacity:1;  stroke-linecap:round; stroke-linejoin:round;">
</svg:g>
<svg:g style="fill:#C2C200; fill-opacity:0.0;  stroke:#C2C200; stroke-width:0.7820; stroke-opacity:1;  stroke-linecap:round; stroke-linejoin:round;">
<svg:path d="M226.6268 209.6126 L226.6268 0.3946 "/>
<svg:path d="M70.3754 209.6126 L70.3754 0.3946 "/>
<svg:path d="M70.3754 209.6126 L226.6268 209.6126 "/>
<svg:path d="M70.3754 0.3946 L226.6268 0.3946 "/>
<svg:g>
</svg:g>
<svg:g>
</svg:g>
<svg:g>
</svg:g>
<svg:g>
</svg:g>
<svg:g>
</svg:g>
<svg:g>
</svg:g>
<svg:g>
</svg:g>
<svg:g>
</svg:g>
<svg:g>
</svg:g>
<svg:g>
</svg:g>
<svg:g>
</svg:g>
<svg:g>
</svg:g>
<svg:g>
</svg:g>
<svg:g>
</svg:g>
<svg:g>
</svg:g>
<svg:g>
</svg:g>
<svg:g>
</svg:g>
<svg:g>
</svg:g>
<svg:g>
</svg:g>
<svg:g>
</svg:g>
<svg:g>
</svg:g>
<svg:g>
</svg:g>
<svg:g>
</svg:g>
<svg:g>
</svg:g>
<svg:g>
</svg:g>
<svg:g>
</svg:g>
<svg:g>
</svg:g>
<svg:g>
</svg:g>
<svg:g>
</svg:g>
<svg:g>
</svg:g>
<svg:g>
</svg:g>
<svg:g>
</svg:g>
<svg:g>
</svg:g>
<svg:g>
</svg:g>
<svg:g>
</svg:g>
<svg:g>
</svg:g>
<svg:g>
</svg:g>
<svg:g>
</svg:g>
<svg:g>
</svg:g>
<svg:g>
</svg:g>
<svg:g>
</svg:g>
<svg:g>
</svg:g>
</svg:g> 
</svg:g></svg:g></svg>
