<?xml version='1.0' encoding='ASCII' standalone='yes'?>
<svg xmlns:svg="http://www.w3.org/2000/svg" xmlns="http://www.w3.org/2000/svg" xmlns:xlink="http://www.w3.org/1999/xlink" version="1.1" width="29.700220cm" height="21.000720cm" viewBox="0 0 2970022 2100072">
<title>SVG Picture created as SIPM02-B_Fab.svg date 2023/06/15 01:22:33 </title>
  <desc>Picture generated by PCBNEW </desc>
<g style="fill:#000084; fill-opacity:1.000000;stroke:#000084; stroke-opacity:1.000000; stroke-linecap:round; stroke-linejoin:round;" transform="translate(0 0) scale(1 1)">
</g>
<g style="fill:#000084; fill-opacity:0.0;  stroke:#000084; stroke-width:0.000000; stroke-opacity:1;  stroke-linecap:round; stroke-linejoin:round;">
</g>
<g style="fill:#000084; fill-opacity:0.01;  stroke:#000084; stroke-width:5693.907949; stroke-opacity:1;  stroke-linecap:round; stroke-linejoin:round;">
<text x="1435354.848319" y="549965.247505" transform="scale(-1 1) translate(-2870709.696639 0)" textLength="50929.822253" font-size="34781.373815" lengthAdjust="spacingAndGlyphs" text-anchor="middle" opacity="0.01" style="font-family:monospace">C5</text>
<g class="stroked-text"><desc>C5</desc>
<path d="M1439702 546238 L1440944 547480 L1444671 548723 L1447155 548723 L1450882 547480 L1453366 544996 L1454608 542512 L1455850 537543 L1455850 533816 L1454608 528848 L1453366 526363 L1450882 523879 L1447155 522637 L1444671 522637 L1440944 523879 L1439702 525121 "/>
<path d="M1416100 522637 L1428522 522637 L1429764 535058 L1428522 533816 L1426038 532574 L1419827 532574 L1417343 533816 L1416100 535058 L1414858 537543 L1414858 543754 L1416100 546238 L1417343 547480 L1419827 548723 L1426038 548723 L1428522 547480 L1429764 546238 "/>
</g><text x="1441975.671516" y="513550.719925" transform="scale(-1 1) translate(-2883951.343032 0)" textLength="113090.593814" font-size="34781.373815" lengthAdjust="spacingAndGlyphs" text-anchor="middle" opacity="0.01" style="font-family:monospace">100nF</text>
<g class="stroked-text"><desc>100nF</desc>
<path d="M1482346 512308 L1497253 512308 "/>
<path d="M1489800 512308 L1489800 486222 L1492284 489949 L1494768 492433 L1497253 493675 "/>
<path d="M1466198 486222 L1463714 486222 L1461229 487464 L1459987 488706 L1458745 491191 L1457503 496160 L1457503 502371 L1458745 507339 L1459987 509824 L1461229 511066 L1463714 512308 L1466198 512308 L1468682 511066 L1469924 509824 L1471167 507339 L1472409 502371 L1472409 496160 L1471167 491191 L1469924 488706 L1468682 487464 L1466198 486222 "/>
<path d="M1441354 486222 L1438870 486222 L1436385 487464 L1435143 488706 L1433901 491191 L1432659 496160 L1432659 502371 L1433901 507339 L1435143 509824 L1436385 511066 L1438870 512308 L1441354 512308 L1443838 511066 L1445081 509824 L1446323 507339 L1447565 502371 L1447565 496160 L1446323 491191 L1445081 488706 L1443838 487464 L1441354 486222 "/>
<path d="M1421479 494917 L1421479 512308 "/>
<path d="M1421479 497402 L1420237 496160 L1417752 494917 L1414026 494917 L1411541 496160 L1410299 498644 L1410299 512308 "/>
<path d="M1389182 498644 L1397877 498644 "/>
<path d="M1397877 512308 L1397877 486222 L1385455 486222 "/>
</g><text x="1667083.660196" y="1026664.517651" transform="scale(-1 1) translate(-3334167.320391 0)" textLength="68371.677176" font-size="34781.373815" lengthAdjust="spacingAndGlyphs" text-anchor="middle" opacity="0.01" style="font-family:monospace">R10</text>
<g class="stroked-text"><desc>R10</desc>
<path d="M1683853 1025422 L1692548 1013000 "/>
<path d="M1698759 1025422 L1698759 999336 L1688822 999336 L1686337 1000578 L1685095 1001820 L1683853 1004305 L1683853 1008031 L1685095 1010516 L1686337 1011758 L1688822 1013000 L1698759 1013000 "/>
<path d="M1659009 1025422 L1673915 1025422 "/>
<path d="M1666462 1025422 L1666462 999336 L1668946 1003062 L1671431 1005547 L1673915 1006789 "/>
<path d="M1642860 999336 L1640376 999336 L1637892 1000578 L1636649 1001820 L1635407 1004305 L1634165 1009273 L1634165 1015484 L1635407 1020453 L1636649 1022937 L1637892 1024180 L1640376 1025422 L1642860 1025422 L1645345 1024180 L1646587 1022937 L1647829 1020453 L1649071 1015484 L1649071 1009273 L1647829 1004305 L1646587 1001820 L1645345 1000578 L1642860 999336 "/>
</g><text x="1673704.483392" y="990249.990070" transform="scale(-1 1) translate(-3347408.966784 0)" textLength="63402.879698" font-size="34781.373815" lengthAdjust="spacingAndGlyphs" text-anchor="middle" opacity="0.01" style="font-family:monospace">12k</text>
<g class="stroked-text"><desc>12k</desc>
<path d="M1689231 989007 L1704138 989007 "/>
<path d="M1696684 989007 L1696684 962921 L1699169 966648 L1701653 969132 L1704138 970374 "/>
<path d="M1679294 965406 L1678052 964163 L1675567 962921 L1669356 962921 L1666872 964163 L1665630 965406 L1664387 967890 L1664387 970374 L1665630 974101 L1680536 989007 L1664387 989007 "/>
<path d="M1653208 989007 L1653208 962921 "/>
<path d="M1650723 979070 L1643270 989007 "/>
<path d="M1643270 971617 L1653208 981554 "/>
</g><g transform="rotate(-90.000000 1653842.013803 1556528.998064)">
<text x="1653842.013803" y="1569572.019761" transform="scale(-1 1) translate(-3307684.027605 0)" textLength="43527.794052" font-size="34781.373815" lengthAdjust="spacingAndGlyphs" text-anchor="middle" opacity="0.01" style="font-family:monospace">R3</text>
</g>
<g class="stroked-text"><desc>R3</desc>
<path d="M1665642 1552181 L1653220 1543485 "/>
<path d="M1665642 1537275 L1639556 1537275 L1639556 1547212 L1640798 1549696 L1642041 1550939 L1644525 1552181 L1648252 1552181 L1650736 1550939 L1651978 1549696 L1653220 1547212 L1653220 1537275 "/>
<path d="M1639556 1560876 L1639556 1577025 L1649494 1568329 L1649494 1572056 L1650736 1574540 L1651978 1575783 L1654463 1577025 L1660674 1577025 L1663158 1575783 L1664400 1574540 L1665642 1572056 L1665642 1564603 L1664400 1562118 L1663158 1560876 "/>
</g><g transform="rotate(-90.000000 1690256.541383 1563149.821260)">
<text x="1690256.541383" y="1576192.842957" transform="scale(-1 1) translate(-3380513.082766 0)" textLength="93215.508167" font-size="34781.373815" lengthAdjust="spacingAndGlyphs" text-anchor="middle" opacity="0.01" style="font-family:monospace">100R</text>
</g>
<g class="stroked-text"><desc>100R</desc>
<path d="M1702057 1532716 L1702057 1517809 "/>
<path d="M1702057 1525262 L1675971 1525262 L1679697 1522778 L1682182 1520294 L1683424 1517809 "/>
<path d="M1675971 1548864 L1675971 1551349 L1677213 1553833 L1678455 1555075 L1680940 1556317 L1685908 1557559 L1692119 1557559 L1697088 1556317 L1699572 1555075 L1700815 1553833 L1702057 1551349 L1702057 1548864 L1700815 1546380 L1699572 1545138 L1697088 1543895 L1692119 1542653 L1685908 1542653 L1680940 1543895 L1678455 1545138 L1677213 1546380 L1675971 1548864 "/>
<path d="M1675971 1573708 L1675971 1576192 L1677213 1578677 L1678455 1579919 L1680940 1581161 L1685908 1582403 L1692119 1582403 L1697088 1581161 L1699572 1579919 L1700815 1578677 L1702057 1576192 L1702057 1573708 L1700815 1571224 L1699572 1569981 L1697088 1568739 L1692119 1567497 L1685908 1567497 L1680940 1568739 L1678455 1569981 L1677213 1571224 L1675971 1573708 "/>
<path d="M1702057 1608489 L1689635 1599794 "/>
<path d="M1702057 1593583 L1675971 1593583 L1675971 1603521 L1677213 1606005 L1678455 1607247 L1680940 1608489 L1684666 1608489 L1687151 1607247 L1688393 1606005 L1689635 1603521 L1689635 1593583 "/>
</g><text x="1514804.726677" y="1579503.254555" transform="scale(-1 1) translate(-3029609.453354 0)" textLength="43527.794052" font-size="34781.373815" lengthAdjust="spacingAndGlyphs" text-anchor="middle" opacity="0.01" style="font-family:monospace">C4</text>
<g class="stroked-text"><desc>C4</desc>
<path d="M1519152 1575776 L1520394 1577018 L1524121 1578261 L1526605 1578261 L1530332 1577018 L1532816 1574534 L1534058 1572050 L1535300 1567081 L1535300 1563354 L1534058 1558386 L1532816 1555901 L1530332 1553417 L1526605 1552175 L1524121 1552175 L1520394 1553417 L1519152 1554659 "/>
<path d="M1496792 1560870 L1496792 1578261 "/>
<path d="M1503003 1550932 L1509214 1569565 L1493066 1569565 "/>
</g><text x="1508183.903480" y="1615917.782136" transform="scale(-1 1) translate(-3016367.806961 0)" textLength="65887.304503" font-size="34781.373815" lengthAdjust="spacingAndGlyphs" text-anchor="middle" opacity="0.01" style="font-family:monospace">10u</text>
<g class="stroked-text"><desc>10u</desc>
<path d="M1524953 1614675 L1539859 1614675 "/>
<path d="M1532406 1614675 L1532406 1588589 L1534891 1592316 L1537375 1594800 L1539859 1596042 "/>
<path d="M1508804 1588589 L1506320 1588589 L1503836 1589831 L1502593 1591073 L1501351 1593558 L1500109 1598527 L1500109 1604738 L1501351 1609706 L1502593 1612191 L1503836 1613433 L1506320 1614675 L1508804 1614675 L1511289 1613433 L1512531 1612191 L1513773 1609706 L1515015 1604738 L1515015 1598527 L1513773 1593558 L1512531 1591073 L1511289 1589831 L1508804 1588589 "/>
<path d="M1477750 1597284 L1477750 1614675 "/>
<path d="M1488929 1597284 L1488929 1610949 L1487687 1613433 L1485203 1614675 L1481476 1614675 L1478992 1613433 L1477750 1612191 "/>
</g></g>
<g style="fill:#000084; fill-opacity:0.0;  stroke:#000084; stroke-width:7819.869917; stroke-opacity:1;  stroke-linecap:round; stroke-linejoin:round;">
<g transform="rotate(-90.000000 1672479.370438 1871018.099896)">
<text x="1672479.370438" y="1897084.332953" transform="scale(-1 1) translate(-3344958.740877 0)" textLength="94380.355990" font-size="69509.937441" lengthAdjust="spacingAndGlyphs" text-anchor="middle" opacity="0.01" style="font-family:monospace">D1</text>
</g>
<g class="stroked-text"><desc>D1</desc>
<path d="M1696063 1832539 L1643930 1832539 L1643930 1844951 L1646413 1852399 L1651378 1857364 L1656343 1859846 L1666273 1862329 L1673720 1862329 L1683650 1859846 L1688615 1857364 L1693580 1852399 L1696063 1844951 L1696063 1832539 "/>
<path d="M1696063 1911979 L1696063 1882189 "/>
<path d="M1696063 1897084 L1643930 1897084 L1651378 1892119 L1656343 1887154 L1658825 1882189 "/>
</g></g>
<g style="fill:#000084; fill-opacity:0.01;  stroke:#000084; stroke-width:5693.907949; stroke-opacity:1;  stroke-linecap:round; stroke-linejoin:round;">
<text x="1726671.068964" y="1450397.202224" transform="scale(-1 1) translate(-3453342.137928 0)" textLength="40764.043493" font-size="34781.373815" lengthAdjust="spacingAndGlyphs" text-anchor="middle" opacity="0.01" style="font-family:monospace">C7</text>
<g class="stroked-text"><desc>C7</desc>
<path d="M1731018 1446670 L1732260 1447912 L1735987 1449155 L1738471 1449155 L1742198 1447912 L1744682 1445428 L1745925 1442944 L1747167 1437975 L1747167 1434248 L1745925 1429279 L1744682 1426795 L1742198 1424311 L1738471 1423068 L1735987 1423068 L1732260 1424311 L1731018 1425553 "/>
<path d="M1722323 1423068 L1704932 1423068 L1716112 1449155 "/>
</g><text x="1733291.892160" y="1413982.674644" transform="scale(-1 1) translate(-3466583.784321 0)" textLength="65887.304503" font-size="34781.373815" lengthAdjust="spacingAndGlyphs" text-anchor="middle" opacity="0.01" style="font-family:monospace">10u</text>
<g class="stroked-text"><desc>10u</desc>
<path d="M1750061 1412740 L1764967 1412740 "/>
<path d="M1757514 1412740 L1757514 1386654 L1759998 1390381 L1762483 1392865 L1764967 1394107 "/>
<path d="M1733912 1386654 L1731428 1386654 L1728944 1387896 L1727701 1389138 L1726459 1391623 L1725217 1396592 L1725217 1402802 L1726459 1407771 L1727701 1410256 L1728944 1411498 L1731428 1412740 L1733912 1412740 L1736397 1411498 L1737639 1410256 L1738881 1407771 L1740123 1402802 L1740123 1396592 L1738881 1391623 L1737639 1389138 L1736397 1387896 L1733912 1386654 "/>
<path d="M1702858 1395349 L1702858 1412740 "/>
<path d="M1714037 1395349 L1714037 1409013 L1712795 1411498 L1710311 1412740 L1706584 1412740 L1704100 1411498 L1702858 1410256 "/>
</g></g>
<g style="fill:#000084; fill-opacity:0.01;  stroke:#000084; stroke-width:15639.739834; stroke-opacity:1;  stroke-linecap:round; stroke-linejoin:round;">
<text x="1993490.243781" y="1592943.525644" transform="scale(-1 1) translate(-3986980.487563 0)" textLength="147714.371183" font-size="105933.171143" lengthAdjust="spacingAndGlyphs" text-anchor="middle" opacity="0.01" style="font-family:monospace">C3</text>
<g class="stroked-text"><desc>C3</desc>
<path d="M2006731 1581593 L2010515 1585376 L2021865 1589160 L2029431 1589160 L2040781 1585376 L2048348 1577810 L2052131 1570243 L2055915 1555110 L2055915 1543760 L2052131 1528626 L2048348 1521060 L2040781 1513493 L2029431 1509710 L2021865 1509710 L2010515 1513493 L2006731 1517277 "/>
<path d="M1980248 1509710 L1931065 1509710 L1957548 1539976 L1946198 1539976 L1938631 1543760 L1934848 1547543 L1931065 1555110 L1931065 1574026 L1934848 1581593 L1938631 1585376 L1946198 1589160 L1968898 1589160 L1976465 1585376 L1980248 1581593 "/>
</g></g>
<g style="fill:#000084; fill-opacity:0.01;  stroke:#000084; stroke-width:7819.869917; stroke-opacity:1;  stroke-linecap:round; stroke-linejoin:round;">
<text x="1716739.834169" y="1711492.753587" transform="scale(-1 1) translate(-3433479.668338 0)" textLength="76485.782732" font-size="104264.932228" lengthAdjust="spacingAndGlyphs" text-anchor="middle" opacity="0.01" style="font-family:monospace">+</text>
<g class="stroked-text"><desc>+</desc>
<path d="M1746529 1677979 L1686949 1677979 "/>
<path d="M1716739 1707769 L1716739 1648189 "/>
</g></g>
<g style="fill:#000084; fill-opacity:0.01;  stroke:#000084; stroke-width:5693.907949; stroke-opacity:1;  stroke-linecap:round; stroke-linejoin:round;">
<text x="1726671.068964" y="1344464.031081" transform="scale(-1 1) translate(-3453342.137928 0)" textLength="40764.043493" font-size="34781.373815" lengthAdjust="spacingAndGlyphs" text-anchor="middle" opacity="0.01" style="font-family:monospace">C8</text>
<g class="stroked-text"><desc>C8</desc>
<path d="M1731018 1340737 L1732260 1341979 L1735987 1343221 L1738471 1343221 L1742198 1341979 L1744682 1339495 L1745925 1337010 L1747167 1332042 L1747167 1328315 L1745925 1323346 L1744682 1320862 L1742198 1318377 L1738471 1317135 L1735987 1317135 L1732260 1318377 L1731018 1319620 "/>
<path d="M1716112 1328315 L1718596 1327073 L1719839 1325831 L1721081 1323346 L1721081 1322104 L1719839 1319620 L1718596 1318377 L1716112 1317135 L1711143 1317135 L1708659 1318377 L1707417 1319620 L1706174 1322104 L1706174 1323346 L1707417 1325831 L1708659 1327073 L1711143 1328315 L1716112 1328315 L1718596 1329557 L1719839 1330799 L1721081 1333284 L1721081 1338253 L1719839 1340737 L1718596 1341979 L1716112 1343221 L1711143 1343221 L1708659 1341979 L1707417 1340737 L1706174 1338253 L1706174 1333284 L1707417 1330799 L1708659 1329557 L1711143 1328315 "/>
</g><text x="1733291.892160" y="1308049.503500" transform="scale(-1 1) translate(-3466583.784321 0)" textLength="113090.593814" font-size="34781.373815" lengthAdjust="spacingAndGlyphs" text-anchor="middle" opacity="0.01" style="font-family:monospace">100nF</text>
<g class="stroked-text"><desc>100nF</desc>
<path d="M1773663 1306807 L1788569 1306807 "/>
<path d="M1781116 1306807 L1781116 1280721 L1783600 1284447 L1786085 1286932 L1788569 1288174 "/>
<path d="M1757514 1280721 L1755030 1280721 L1752545 1281963 L1751303 1283205 L1750061 1285690 L1748819 1290658 L1748819 1296869 L1750061 1301838 L1751303 1304322 L1752545 1305565 L1755030 1306807 L1757514 1306807 L1759998 1305565 L1761241 1304322 L1762483 1301838 L1763725 1296869 L1763725 1290658 L1762483 1285690 L1761241 1283205 L1759998 1281963 L1757514 1280721 "/>
<path d="M1732670 1280721 L1730186 1280721 L1727701 1281963 L1726459 1283205 L1725217 1285690 L1723975 1290658 L1723975 1296869 L1725217 1301838 L1726459 1304322 L1727701 1305565 L1730186 1306807 L1732670 1306807 L1735155 1305565 L1736397 1304322 L1737639 1301838 L1738881 1296869 L1738881 1290658 L1737639 1285690 L1736397 1283205 L1735155 1281963 L1732670 1280721 "/>
<path d="M1712795 1289416 L1712795 1306807 "/>
<path d="M1712795 1291901 L1711553 1290658 L1709069 1289416 L1705342 1289416 L1702858 1290658 L1701615 1293143 L1701615 1306807 "/>
<path d="M1680498 1293143 L1689194 1293143 "/>
<path d="M1689194 1306807 L1689194 1280721 L1676772 1280721 "/>
</g><text x="1432044.436721" y="708865.004220" transform="scale(-1 1) translate(-2864088.873442 0)" textLength="43527.794052" font-size="34781.373815" lengthAdjust="spacingAndGlyphs" text-anchor="middle" opacity="0.01" style="font-family:monospace">R2</text>
<g class="stroked-text"><desc>R2</desc>
<path d="M1436392 707622 L1445087 695200 "/>
<path d="M1451298 707622 L1451298 681536 L1441360 681536 L1438876 682778 L1437634 684021 L1436392 686505 L1436392 690232 L1437634 692716 L1438876 693958 L1441360 695200 L1451298 695200 "/>
<path d="M1426454 684021 L1425212 682778 L1422727 681536 L1416516 681536 L1414032 682778 L1412790 684021 L1411548 686505 L1411548 688989 L1412790 692716 L1427696 707622 L1411548 707622 "/>
</g><text x="1438665.259918" y="672450.476640" transform="scale(-1 1) translate(-2877330.519835 0)" textLength="68371.677176" font-size="34781.373815" lengthAdjust="spacingAndGlyphs" text-anchor="middle" opacity="0.01" style="font-family:monospace">10R</text>
<g class="stroked-text"><desc>10R</desc>
<path d="M1456677 671208 L1471583 671208 "/>
<path d="M1464130 671208 L1464130 645122 L1466614 648848 L1469098 651333 L1471583 652575 "/>
<path d="M1440528 645122 L1438044 645122 L1435559 646364 L1434317 647606 L1433075 650091 L1431833 655059 L1431833 661270 L1433075 666239 L1434317 668723 L1435559 669966 L1438044 671208 L1440528 671208 L1443012 669966 L1444255 668723 L1445497 666239 L1446739 661270 L1446739 655059 L1445497 650091 L1444255 647606 L1443012 646364 L1440528 645122 "/>
<path d="M1405747 671208 L1414442 658786 "/>
<path d="M1420653 671208 L1420653 645122 L1410715 645122 L1408231 646364 L1406989 647606 L1405747 650091 L1405747 653817 L1406989 656301 L1408231 657544 L1410715 658786 L1420653 658786 "/>
</g><text x="1190384.390050" y="675760.888238" transform="scale(-1 1) translate(-2380768.780100 0)" textLength="43527.794052" font-size="34781.373815" lengthAdjust="spacingAndGlyphs" text-anchor="middle" opacity="0.01" style="font-family:monospace">C6</text>
<g class="stroked-text"><desc>C6</desc>
<path d="M1194732 672034 L1195974 673276 L1199700 674518 L1202185 674518 L1205911 673276 L1208396 670792 L1209638 668307 L1210880 663338 L1210880 659612 L1209638 654643 L1208396 652159 L1205911 649674 L1202185 648432 L1199700 648432 L1195974 649674 L1194732 650917 "/>
<path d="M1172372 648432 L1177341 648432 L1179825 649674 L1181067 650917 L1183552 654643 L1184794 659612 L1184794 669549 L1183552 672034 L1182310 673276 L1179825 674518 L1174856 674518 L1172372 673276 L1171130 672034 L1169888 669549 L1169888 663338 L1171130 660854 L1172372 659612 L1174856 658370 L1179825 658370 L1182310 659612 L1183552 660854 L1184794 663338 "/>
</g><text x="1183763.566854" y="712175.415818" transform="scale(-1 1) translate(-2367527.133707 0)" textLength="113090.593814" font-size="34781.373815" lengthAdjust="spacingAndGlyphs" text-anchor="middle" opacity="0.01" style="font-family:monospace">100nF</text>
<g class="stroked-text"><desc>100nF</desc>
<path d="M1224134 710933 L1239041 710933 "/>
<path d="M1231587 710933 L1231587 684847 L1234072 688573 L1236556 691058 L1239041 692300 "/>
<path d="M1207986 684847 L1205501 684847 L1203017 686089 L1201775 687331 L1200533 689815 L1199290 694784 L1199290 700995 L1200533 705964 L1201775 708448 L1203017 709691 L1205501 710933 L1207986 710933 L1210470 709691 L1211712 708448 L1212955 705964 L1214197 700995 L1214197 694784 L1212955 689815 L1211712 687331 L1210470 686089 L1207986 684847 "/>
<path d="M1183142 684847 L1180658 684847 L1178173 686089 L1176931 687331 L1175689 689815 L1174447 694784 L1174447 700995 L1175689 705964 L1176931 708448 L1178173 709691 L1180658 710933 L1183142 710933 L1185626 709691 L1186869 708448 L1188111 705964 L1189353 700995 L1189353 694784 L1188111 689815 L1186869 687331 L1185626 686089 L1183142 684847 "/>
<path d="M1163267 693542 L1163267 710933 "/>
<path d="M1163267 696026 L1162025 694784 L1159540 693542 L1155814 693542 L1153329 694784 L1152087 697269 L1152087 710933 "/>
<path d="M1130970 697269 L1139665 697269 "/>
<path d="M1139665 710933 L1139665 684847 L1127243 684847 "/>
</g></g>
<g style="fill:#000084; fill-opacity:0.01;  stroke:#000084; stroke-width:7819.869917; stroke-opacity:1;  stroke-linecap:round; stroke-linejoin:round;">
<text x="2009909.885309" y="452741.847475" transform="scale(-1 1) translate(-4019819.770617 0)" textLength="89415.364183" font-size="104264.932228" lengthAdjust="spacingAndGlyphs" text-anchor="middle" opacity="0.01" style="font-family:monospace">+</text>
<g class="stroked-text"><desc>+</desc>
<path d="M2039699 419228 L1980119 419228 "/>
<path d="M2009909 449018 L2009909 389438 "/>
</g></g>
<g style="fill:#000084; fill-opacity:0.01;  stroke:#000084; stroke-width:15639.739834; stroke-opacity:1;  stroke-linecap:round; stroke-linejoin:round;">
<text x="1743752.792811" y="585783.900998" transform="scale(-1 1) translate(-3487505.585621 0)" textLength="144950.620625" font-size="105933.171143" lengthAdjust="spacingAndGlyphs" text-anchor="middle" opacity="0.01" style="font-family:monospace">C1</text>
<g class="stroked-text"><desc>C1</desc>
<path d="M1756994 574433 L1760777 578217 L1772127 582000 L1779694 582000 L1791044 578217 L1798611 570650 L1802394 563083 L1806177 547950 L1806177 536600 L1802394 521467 L1798611 513900 L1791044 506334 L1779694 502550 L1772127 502550 L1760777 506334 L1756994 510117 "/>
<path d="M1681327 582000 L1726727 582000 "/>
<path d="M1704027 582000 L1704027 502550 L1711594 513900 L1719161 521467 L1726727 525250 "/>
</g></g>
<g style="fill:#000084; fill-opacity:0.01;  stroke:#000084; stroke-width:7819.869917; stroke-opacity:1;  stroke-linecap:round; stroke-linejoin:round;">
<text x="1749843.950151" y="784786.035947" transform="scale(-1 1) translate(-3499687.900303 0)" textLength="81450.774539" font-size="69509.937441" lengthAdjust="spacingAndGlyphs" text-anchor="middle" opacity="0.01" style="font-family:monospace">C2</text>
<g class="stroked-text"><desc>C2</desc>
<path d="M1758532 777338 L1761015 779821 L1768462 782303 L1773427 782303 L1780875 779821 L1785840 774856 L1788322 769891 L1790805 759961 L1790805 752513 L1788322 742583 L1785840 737618 L1780875 732653 L1773427 730171 L1768462 730171 L1761015 732653 L1758532 735136 "/>
<path d="M1738672 735136 L1736190 732653 L1731225 730171 L1718812 730171 L1713847 732653 L1711365 735136 L1708882 740101 L1708882 745066 L1711365 752513 L1741155 782303 L1708882 782303 "/>
</g></g>
<g style="fill:#000084; fill-opacity:0.01;  stroke:#000084; stroke-width:5693.907949; stroke-opacity:1;  stroke-linecap:round; stroke-linejoin:round;">
<text x="1243350.975622" y="808177.352167" transform="scale(-1 1) translate(-2486701.951244 0)" textLength="40764.043493" font-size="34781.373815" lengthAdjust="spacingAndGlyphs" text-anchor="middle" opacity="0.01" style="font-family:monospace">C9</text>
<g class="stroked-text"><desc>C9</desc>
<path d="M1247698 804450 L1248940 805692 L1252667 806935 L1255151 806935 L1258878 805692 L1261362 803208 L1262604 800724 L1263847 795755 L1263847 792028 L1262604 787060 L1261362 784575 L1258878 782091 L1255151 780849 L1252667 780849 L1248940 782091 L1247698 783333 "/>
<path d="M1235276 806935 L1230307 806935 L1227823 805692 L1226581 804450 L1224096 800724 L1222854 795755 L1222854 785817 L1224096 783333 L1225339 782091 L1227823 780849 L1232792 780849 L1235276 782091 L1236518 783333 L1237761 785817 L1237761 792028 L1236518 794513 L1235276 795755 L1232792 796997 L1227823 796997 L1225339 795755 L1224096 794513 L1222854 792028 "/>
</g><text x="1236730.152425" y="844591.879748" transform="scale(-1 1) translate(-2473460.304851 0)" textLength="88246.762822" font-size="34781.373815" lengthAdjust="spacingAndGlyphs" text-anchor="middle" opacity="0.01" style="font-family:monospace">10nF</text>
<g class="stroked-text"><desc>10nF</desc>
<path d="M1264679 843349 L1279585 843349 "/>
<path d="M1272132 843349 L1272132 817263 L1274617 820990 L1277101 823474 L1279585 824716 "/>
<path d="M1248530 817263 L1246046 817263 L1243562 818505 L1242320 819748 L1241077 822232 L1239835 827201 L1239835 833412 L1241077 838380 L1242320 840865 L1243562 842107 L1246046 843349 L1248530 843349 L1251015 842107 L1252257 840865 L1253499 838380 L1254741 833412 L1254741 827201 L1253499 822232 L1252257 819748 L1251015 818505 L1248530 817263 "/>
<path d="M1228655 825959 L1228655 843349 "/>
<path d="M1228655 828443 L1227413 827201 L1224929 825959 L1221202 825959 L1218718 827201 L1217476 829685 L1217476 843349 "/>
<path d="M1196358 829685 L1205054 829685 "/>
<path d="M1205054 843349 L1205054 817263 L1192632 817263 "/>
</g><text x="1197005.213247" y="1311359.915099" transform="scale(-1 1) translate(-2394010.426493 0)" textLength="68371.677176" font-size="34781.373815" lengthAdjust="spacingAndGlyphs" text-anchor="middle" opacity="0.01" style="font-family:monospace">C10</text>
<g class="stroked-text"><desc>C10</desc>
<path d="M1213774 1307633 L1215016 1308875 L1218743 1310117 L1221227 1310117 L1224954 1308875 L1227438 1306391 L1228681 1303906 L1229923 1298937 L1229923 1295211 L1228681 1290242 L1227438 1287758 L1224954 1285273 L1221227 1284031 L1218743 1284031 L1215016 1285273 L1213774 1286516 "/>
<path d="M1188930 1310117 L1203837 1310117 "/>
<path d="M1196384 1310117 L1196384 1284031 L1198868 1287758 L1201352 1290242 L1203837 1291484 "/>
<path d="M1172782 1284031 L1170298 1284031 L1167813 1285273 L1166571 1286516 L1165329 1289000 L1164087 1293969 L1164087 1300180 L1165329 1305148 L1166571 1307633 L1167813 1308875 L1170298 1310117 L1172782 1310117 L1175266 1308875 L1176509 1307633 L1177751 1305148 L1178993 1300180 L1178993 1293969 L1177751 1289000 L1176509 1286516 L1175266 1285273 L1172782 1284031 "/>
</g><text x="1190384.390050" y="1347774.442679" transform="scale(-1 1) translate(-2380768.780100 0)" textLength="43527.794052" font-size="34781.373815" lengthAdjust="spacingAndGlyphs" text-anchor="middle" opacity="0.01" style="font-family:monospace">0R</text>
<g class="stroked-text"><desc>0R</desc>
<path d="M1204669 1320446 L1202185 1320446 L1199700 1321688 L1198458 1322930 L1197216 1325414 L1195974 1330383 L1195974 1336594 L1197216 1341563 L1198458 1344047 L1199700 1345290 L1202185 1346532 L1204669 1346532 L1207153 1345290 L1208396 1344047 L1209638 1341563 L1210880 1336594 L1210880 1330383 L1209638 1325414 L1208396 1322930 L1207153 1321688 L1204669 1320446 "/>
<path d="M1169888 1346532 L1178583 1334110 "/>
<path d="M1184794 1346532 L1184794 1320446 L1174856 1320446 L1172372 1321688 L1171130 1322930 L1169888 1325414 L1169888 1329141 L1171130 1331625 L1172372 1332868 L1174856 1334110 L1184794 1334110 "/>
</g><g transform="rotate(-90.000000 1845845.886500 305193.413932)">
<text x="1845845.886500" y="318236.435629" transform="scale(-1 1) translate(-3691691.773000 0)" textLength="43527.794052" font-size="34781.373815" lengthAdjust="spacingAndGlyphs" text-anchor="middle" opacity="0.01" style="font-family:monospace">R1</text>
</g>
<g class="stroked-text"><desc>R1</desc>
<path d="M1857646 300845 L1845224 292150 "/>
<path d="M1857646 285939 L1831560 285939 L1831560 295876 L1832802 298361 L1834045 299603 L1836529 300845 L1840255 300845 L1842740 299603 L1843982 298361 L1845224 295876 L1845224 285939 "/>
<path d="M1857646 325689 L1857646 310783 "/>
<path d="M1857646 318236 L1831560 318236 L1835287 315752 L1837771 313267 L1839013 310783 "/>
</g><g transform="rotate(-90.000000 1809431.358920 298572.590735)">
<text x="1809431.358920" y="311615.612432" transform="scale(-1 1) translate(-3618862.717839 0)" textLength="68371.677176" font-size="34781.373815" lengthAdjust="spacingAndGlyphs" text-anchor="middle" opacity="0.01" style="font-family:monospace">10R</text>
</g>
<g class="stroked-text"><desc>10R</desc>
<path d="M1821232 280560 L1821232 265654 "/>
<path d="M1821232 273107 L1795146 273107 L1798872 270623 L1801357 268138 L1802599 265654 "/>
<path d="M1795146 296709 L1795146 299193 L1796388 301678 L1797630 302920 L1800114 304162 L1805083 305404 L1811294 305404 L1816263 304162 L1818747 302920 L1819989 301678 L1821232 299193 L1821232 296709 L1819989 294224 L1818747 292982 L1816263 291740 L1811294 290498 L1805083 290498 L1800114 291740 L1797630 292982 L1796388 294224 L1795146 296709 "/>
<path d="M1821232 331490 L1808810 322795 "/>
<path d="M1821232 316584 L1795146 316584 L1795146 326521 L1796388 329006 L1797630 330248 L1800114 331490 L1803841 331490 L1806325 330248 L1807568 329006 L1808810 326521 L1808810 316584 "/>
</g><text x="1223488.506032" y="549965.247505" transform="scale(-1 1) translate(-2446977.012065 0)" textLength="43527.794052" font-size="34781.373815" lengthAdjust="spacingAndGlyphs" text-anchor="middle" opacity="0.01" style="font-family:monospace">R4</text>
<g class="stroked-text"><desc>R4</desc>
<path d="M1227836 548723 L1236531 536301 "/>
<path d="M1242742 548723 L1242742 522637 L1232804 522637 L1230320 523879 L1229078 525121 L1227836 527605 L1227836 531332 L1229078 533816 L1230320 535058 L1232804 536301 L1242742 536301 "/>
<path d="M1205476 531332 L1205476 548723 "/>
<path d="M1211687 521394 L1217898 540027 L1201750 540027 "/>
</g><text x="1230109.329229" y="513550.719925" transform="scale(-1 1) translate(-2460218.658458 0)" textLength="68371.677176" font-size="34781.373815" lengthAdjust="spacingAndGlyphs" text-anchor="middle" opacity="0.01" style="font-family:monospace">10R</text>
<g class="stroked-text"><desc>10R</desc>
<path d="M1248121 512308 L1263027 512308 "/>
<path d="M1255574 512308 L1255574 486222 L1258058 489949 L1260543 492433 L1263027 493675 "/>
<path d="M1231972 486222 L1229488 486222 L1227003 487464 L1225761 488706 L1224519 491191 L1223277 496160 L1223277 502371 L1224519 507339 L1225761 509824 L1227003 511066 L1229488 512308 L1231972 512308 L1234456 511066 L1235699 509824 L1236941 507339 L1238183 502371 L1238183 496160 L1236941 491191 L1235699 488706 L1234456 487464 L1231972 486222 "/>
<path d="M1197191 512308 L1205886 499886 "/>
<path d="M1212097 512308 L1212097 486222 L1202159 486222 L1199675 487464 L1198433 488706 L1197191 491191 L1197191 494917 L1198433 497402 L1199675 498644 L1202159 499886 L1212097 499886 "/>
</g><g transform="rotate(-90.000000 1051347.102924 1391008.418152)">
<text x="1051347.102924" y="1404051.439849" transform="scale(-1 1) translate(-2102694.205849 0)" textLength="43527.794052" font-size="34781.373815" lengthAdjust="spacingAndGlyphs" text-anchor="middle" opacity="0.01" style="font-family:monospace">R5</text>
</g>
<g class="stroked-text"><desc>R5</desc>
<path d="M1063147 1386660 L1050725 1377965 "/>
<path d="M1063147 1371754 L1037061 1371754 L1037061 1381691 L1038304 1384176 L1039546 1385418 L1042030 1386660 L1045757 1386660 L1048241 1385418 L1049483 1384176 L1050725 1381691 L1050725 1371754 "/>
<path d="M1037061 1410262 L1037061 1397840 L1049483 1396598 L1048241 1397840 L1046999 1400324 L1046999 1406535 L1048241 1409020 L1049483 1410262 L1051968 1411504 L1058179 1411504 L1060663 1410262 L1061905 1409020 L1063147 1406535 L1063147 1400324 L1061905 1397840 L1060663 1396598 "/>
</g><g transform="rotate(-90.000000 1014932.575344 1384387.594956)">
<text x="1014932.575344" y="1397430.616653" transform="scale(-1 1) translate(-2029865.150688 0)" textLength="68371.677176" font-size="34781.373815" lengthAdjust="spacingAndGlyphs" text-anchor="middle" opacity="0.01" style="font-family:monospace">10R</text>
</g>
<g class="stroked-text"><desc>10R</desc>
<path d="M1026733 1366375 L1026733 1351469 "/>
<path d="M1026733 1358922 L1000647 1358922 L1004373 1356438 L1006858 1353953 L1008100 1351469 "/>
<path d="M1000647 1382524 L1000647 1385008 L1001889 1387493 L1003131 1388735 L1005616 1389977 L1010584 1391219 L1016795 1391219 L1021764 1389977 L1024249 1388735 L1025491 1387493 L1026733 1385008 L1026733 1382524 L1025491 1380039 L1024249 1378797 L1021764 1377555 L1016795 1376313 L1010584 1376313 L1005616 1377555 L1003131 1378797 L1001889 1380039 L1000647 1382524 "/>
<path d="M1026733 1417305 L1014311 1408610 "/>
<path d="M1026733 1402399 L1000647 1402399 L1000647 1412336 L1001889 1414821 L1003131 1416063 L1005616 1417305 L1009342 1417305 L1011827 1416063 L1013069 1414821 L1014311 1412336 L1014311 1402399 "/>
</g><g transform="rotate(-90.000000 1395629.909141 1073208.904722)">
<text x="1395629.909141" y="1086251.926419" transform="scale(-1 1) translate(-2791259.818281 0)" textLength="43527.794052" font-size="34781.373815" lengthAdjust="spacingAndGlyphs" text-anchor="middle" opacity="0.01" style="font-family:monospace">R6</text>
</g>
<g class="stroked-text"><desc>R6</desc>
<path d="M1407430 1068861 L1395008 1060165 "/>
<path d="M1407430 1053954 L1381344 1053954 L1381344 1063892 L1382586 1066376 L1383829 1067619 L1386313 1068861 L1390040 1068861 L1392524 1067619 L1393766 1066376 L1395008 1063892 L1395008 1053954 "/>
<path d="M1381344 1091220 L1381344 1086251 L1382586 1083767 L1383829 1082525 L1387555 1080040 L1392524 1078798 L1402461 1078798 L1404946 1080040 L1406188 1081283 L1407430 1083767 L1407430 1088736 L1406188 1091220 L1404946 1092462 L1402461 1093705 L1396250 1093705 L1393766 1092462 L1392524 1091220 L1391282 1088736 L1391282 1083767 L1392524 1081283 L1393766 1080040 L1396250 1078798 "/>
</g><g transform="rotate(-90.000000 1359215.381560 1066588.081525)">
<text x="1359215.381560" y="1079631.103222" transform="scale(-1 1) translate(-2718430.763120 0)" textLength="24894.920808" font-size="34781.373815" lengthAdjust="spacingAndGlyphs" text-anchor="middle" opacity="0.01" style="font-family:monospace">-</text>
</g>
<g class="stroked-text"><desc>-</desc>
<path d="M1361078 1056650 L1361078 1076525 "/>
</g><g transform="rotate(-90.000000 1475079.787498 1364525.125366)">
<text x="1475079.787498" y="1377568.147063" transform="scale(-1 1) translate(-2950159.574996 0)" textLength="43527.794052" font-size="34781.373815" lengthAdjust="spacingAndGlyphs" text-anchor="middle" opacity="0.01" style="font-family:monospace">R7</text>
</g>
<g class="stroked-text"><desc>R7</desc>
<path d="M1486880 1360177 L1474458 1351482 "/>
<path d="M1486880 1345271 L1460794 1345271 L1460794 1355208 L1462036 1357693 L1463278 1358935 L1465763 1360177 L1469489 1360177 L1471974 1358935 L1473216 1357693 L1474458 1355208 L1474458 1345271 "/>
<path d="M1460794 1368872 L1460794 1386263 L1486880 1375083 "/>
</g><g transform="rotate(-90.000000 1438665.259918 1357904.302170)">
<text x="1438665.259918" y="1370947.323867" transform="scale(-1 1) translate(-2877330.519835 0)" textLength="24894.920808" font-size="34781.373815" lengthAdjust="spacingAndGlyphs" text-anchor="middle" opacity="0.01" style="font-family:monospace">-</text>
</g>
<g class="stroked-text"><desc>-</desc>
<path d="M1440528 1347966 L1440528 1367841 "/>
</g><g transform="rotate(-90.000000 1336042.500372 1364525.125366)">
<text x="1336042.500372" y="1377568.147063" transform="scale(-1 1) translate(-2672085.000745 0)" textLength="43527.794052" font-size="34781.373815" lengthAdjust="spacingAndGlyphs" text-anchor="middle" opacity="0.01" style="font-family:monospace">R8</text>
</g>
<g class="stroked-text"><desc>R8</desc>
<path d="M1347843 1360177 L1335421 1351482 "/>
<path d="M1347843 1345271 L1321757 1345271 L1321757 1355208 L1322999 1357693 L1324241 1358935 L1326726 1360177 L1330452 1360177 L1332936 1358935 L1334179 1357693 L1335421 1355208 L1335421 1345271 "/>
<path d="M1332936 1375083 L1331694 1372599 L1330452 1371357 L1327968 1370115 L1326726 1370115 L1324241 1371357 L1322999 1372599 L1321757 1375083 L1321757 1380052 L1322999 1382536 L1324241 1383779 L1326726 1385021 L1327968 1385021 L1330452 1383779 L1331694 1382536 L1332936 1380052 L1332936 1375083 L1334179 1372599 L1335421 1371357 L1337905 1370115 L1342874 1370115 L1345358 1371357 L1346601 1372599 L1347843 1375083 L1347843 1380052 L1346601 1382536 L1345358 1383779 L1342874 1385021 L1337905 1385021 L1335421 1383779 L1334179 1382536 L1332936 1380052 "/>
</g><g transform="rotate(-90.000000 1372457.027953 1371145.948563)">
<text x="1372457.027953" y="1384188.970260" transform="scale(-1 1) translate(-2744914.055906 0)" textLength="113090.593814" font-size="34781.373815" lengthAdjust="spacingAndGlyphs" text-anchor="middle" opacity="0.01" style="font-family:monospace">100nF</text>
</g>
<g class="stroked-text"><desc>100nF</desc>
<path d="M1384257 1330774 L1384257 1315868 "/>
<path d="M1384257 1323321 L1358171 1323321 L1361898 1320837 L1364382 1318352 L1365624 1315868 "/>
<path d="M1358171 1346923 L1358171 1349407 L1359414 1351891 L1360656 1353134 L1363140 1354376 L1368109 1355618 L1374320 1355618 L1379289 1354376 L1381773 1353134 L1383015 1351891 L1384257 1349407 L1384257 1346923 L1383015 1344438 L1381773 1343196 L1379289 1341954 L1374320 1340712 L1368109 1340712 L1363140 1341954 L1360656 1343196 L1359414 1344438 L1358171 1346923 "/>
<path d="M1358171 1371767 L1358171 1374251 L1359414 1376735 L1360656 1377978 L1363140 1379220 L1368109 1380462 L1374320 1380462 L1379289 1379220 L1381773 1377978 L1383015 1376735 L1384257 1374251 L1384257 1371767 L1383015 1369282 L1381773 1368040 L1379289 1366798 L1374320 1365556 L1368109 1365556 L1363140 1366798 L1360656 1368040 L1359414 1369282 L1358171 1371767 "/>
<path d="M1366867 1391642 L1384257 1391642 "/>
<path d="M1369351 1391642 L1368109 1392884 L1366867 1395368 L1366867 1399095 L1368109 1401579 L1370593 1402821 L1384257 1402821 "/>
<path d="M1370593 1423939 L1370593 1415243 "/>
<path d="M1384257 1415243 L1358171 1415243 L1358171 1427665 "/>
</g><g transform="rotate(-90.000000 1845845.886500 947413.263989)">
<text x="1845845.886500" y="960456.285686" transform="scale(-1 1) translate(-3691691.773000 0)" textLength="43527.794052" font-size="34781.373815" lengthAdjust="spacingAndGlyphs" text-anchor="middle" opacity="0.01" style="font-family:monospace">R9</text>
</g>
<g class="stroked-text"><desc>R9</desc>
<path d="M1857646 943065 L1845224 934370 "/>
<path d="M1857646 928159 L1831560 928159 L1831560 938096 L1832802 940581 L1834045 941823 L1836529 943065 L1840255 943065 L1842740 941823 L1843982 940581 L1845224 938096 L1845224 928159 "/>
<path d="M1857646 955487 L1857646 960456 L1856404 962940 L1855162 964182 L1851435 966667 L1846466 967909 L1836529 967909 L1834045 966667 L1832802 965425 L1831560 962940 L1831560 957971 L1832802 955487 L1834045 954245 L1836529 953003 L1842740 953003 L1845224 954245 L1846466 955487 L1847709 957971 L1847709 962940 L1846466 965425 L1845224 966667 L1842740 967909 "/>
</g><g transform="rotate(-90.000000 1809431.358920 940792.440792)">
<text x="1809431.358920" y="953835.462489" transform="scale(-1 1) translate(-3618862.717839 0)" textLength="93215.508167" font-size="34781.373815" lengthAdjust="spacingAndGlyphs" text-anchor="middle" opacity="0.01" style="font-family:monospace">470R</text>
</g>
<g class="stroked-text"><desc>470R</desc>
<path d="M1803841 907874 L1821232 907874 "/>
<path d="M1793903 901663 L1812536 895452 L1812536 911600 "/>
<path d="M1795146 919054 L1795146 936444 L1821232 925265 "/>
<path d="M1795146 951351 L1795146 953835 L1796388 956319 L1797630 957562 L1800114 958804 L1805083 960046 L1811294 960046 L1816263 958804 L1818747 957562 L1819989 956319 L1821232 953835 L1821232 951351 L1819989 948866 L1818747 947624 L1816263 946382 L1811294 945140 L1805083 945140 L1800114 946382 L1797630 947624 L1796388 948866 L1795146 951351 "/>
<path d="M1821232 986132 L1808810 977437 "/>
<path d="M1821232 971226 L1795146 971226 L1795146 981163 L1796388 983648 L1797630 984890 L1800114 986132 L1803841 986132 L1806325 984890 L1807568 983648 L1808810 981163 L1808810 971226 "/>
</g><text x="1799500.124125" y="1152460.158383" transform="scale(-1 1) translate(-3599000.248250 0)" textLength="68371.677176" font-size="34781.373815" lengthAdjust="spacingAndGlyphs" text-anchor="middle" opacity="0.01" style="font-family:monospace">R11</text>
<g class="stroked-text"><desc>R11</desc>
<path d="M1816269 1151217 L1824965 1138796 "/>
<path d="M1831176 1151217 L1831176 1125131 L1821238 1125131 L1818754 1126374 L1817511 1127616 L1816269 1130100 L1816269 1133827 L1817511 1136311 L1818754 1137553 L1821238 1138796 L1831176 1138796 "/>
<path d="M1791425 1151217 L1806332 1151217 "/>
<path d="M1798879 1151217 L1798879 1125131 L1801363 1128858 L1803847 1131342 L1806332 1132585 "/>
<path d="M1766582 1151217 L1781488 1151217 "/>
<path d="M1774035 1151217 L1774035 1125131 L1776519 1128858 L1779003 1131342 L1781488 1132585 "/>
</g><text x="1792879.300928" y="1188874.685964" transform="scale(-1 1) translate(-3585758.601857 0)" textLength="38559.048707" font-size="34781.373815" lengthAdjust="spacingAndGlyphs" text-anchor="middle" opacity="0.01" style="font-family:monospace">1k</text>
<g class="stroked-text"><desc>1k</desc>
<path d="M1795984 1187632 L1810891 1187632 "/>
<path d="M1803437 1187632 L1803437 1161546 L1805922 1165273 L1808406 1167757 L1810891 1168999 "/>
<path d="M1784805 1187632 L1784805 1161546 "/>
<path d="M1782320 1177694 L1774867 1187632 "/>
<path d="M1774867 1170241 L1784805 1180179 "/>
</g><g transform="rotate(-90.000000 1581012.958642 1364525.125366)">
<text x="1581012.958642" y="1377568.147063" transform="scale(-1 1) translate(-3162025.917283 0)" textLength="68371.677176" font-size="34781.373815" lengthAdjust="spacingAndGlyphs" text-anchor="middle" opacity="0.01" style="font-family:monospace">R12</text>
</g>
<g class="stroked-text"><desc>R12</desc>
<path d="M1592813 1347755 L1580391 1339060 "/>
<path d="M1592813 1332849 L1566727 1332849 L1566727 1342786 L1567969 1345271 L1569212 1346513 L1571696 1347755 L1575423 1347755 L1577907 1346513 L1579149 1345271 L1580391 1342786 L1580391 1332849 "/>
<path d="M1592813 1372599 L1592813 1357693 "/>
<path d="M1592813 1365146 L1566727 1365146 L1570454 1362661 L1572938 1360177 L1574180 1357693 "/>
<path d="M1569212 1382536 L1567969 1383779 L1566727 1386263 L1566727 1392474 L1567969 1394958 L1569212 1396201 L1571696 1397443 L1574180 1397443 L1577907 1396201 L1592813 1381294 L1592813 1397443 "/>
</g><g transform="rotate(-90.000000 1544598.431061 1357904.302170)">
<text x="1544598.431061" y="1370947.323867" transform="scale(-1 1) translate(-3089196.862122 0)" textLength="38559.048707" font-size="34781.373815" lengthAdjust="spacingAndGlyphs" text-anchor="middle" opacity="0.01" style="font-family:monospace">1k</text>
</g>
<g class="stroked-text"><desc>1k</desc>
<path d="M1556399 1354798 L1556399 1339892 "/>
<path d="M1556399 1347345 L1530313 1347345 L1534039 1344861 L1536524 1342376 L1537766 1339892 "/>
<path d="M1556399 1365978 L1530313 1365978 "/>
<path d="M1546461 1368462 L1556399 1375916 "/>
<path d="M1539008 1375916 L1548946 1365978 "/>
</g></g>
<g style="fill:#000084; fill-opacity:0.0;  stroke:#000084; stroke-width:3909.934959; stroke-opacity:1;  stroke-linecap:round; stroke-linejoin:round;">
<g transform="rotate(-90.000000 1595323.320590 1155969.194678)">
<text x="1595323.320590" y="1169002.311206" transform="scale(-1 1) translate(-3190646.641180 0)" textLength="44730.385780" font-size="34754.942654" lengthAdjust="spacingAndGlyphs" text-anchor="middle" opacity="0.01" style="font-family:monospace">U2</text>
</g>
<g class="stroked-text"><desc>U2</desc>
<path d="M1581048 1136109 L1602150 1136109 L1604632 1137350 L1605873 1138591 L1607115 1141074 L1607115 1146039 L1605873 1148521 L1604632 1149762 L1602150 1151004 L1581048 1151004 "/>
<path d="M1583531 1162175 L1582290 1163416 L1581048 1165899 L1581048 1172105 L1582290 1174587 L1583531 1175829 L1586013 1177070 L1588496 1177070 L1592220 1175829 L1607115 1160934 L1607115 1177070 "/>
</g></g>
<g style="fill:#000084; fill-opacity:0.0;  stroke:#000084; stroke-width:7819.869917; stroke-opacity:1;  stroke-linecap:round; stroke-linejoin:round;">
<path d="M1355904 560095 L1408871 560095 "/>
<path d="M1461838 560095 L1514804 560095 "/>
<path d="M1355904 480645 L1355904 560095 "/>
<path d="M1514804 480645 L1461838 480645 "/>
<path d="M1408871 480645 L1355904 480645 "/>
<path d="M1514804 560095 L1514804 480645 "/>
<path d="M1587633 1036794 L1640600 1036794 "/>
<path d="M1587633 957344 L1587633 1036794 "/>
<path d="M1693566 1036794 L1746533 1036794 "/>
<path d="M1746533 957344 L1693566 957344 "/>
<path d="M1746533 1036794 L1746533 957344 "/>
<path d="M1640600 957344 L1587633 957344 "/>
<path d="M1630669 1583012 L1630669 1635978 "/>
<path d="M1710119 1530045 L1710119 1477079 "/>
<path d="M1710119 1477079 L1630669 1477079 "/>
<path d="M1710119 1635978 L1710119 1583012 "/>
<path d="M1630669 1477079 L1630669 1530045 "/>
<path d="M1630669 1635978 L1710119 1635978 "/>
<path d="M1594254 1543287 L1541288 1543287 "/>
<path d="M1435354 1622737 L1488321 1622737 "/>
<path d="M1541288 1622737 L1594254 1622737 "/>
<path d="M1435354 1543287 L1435354 1622737 "/>
<path d="M1594254 1622737 L1594254 1543287 "/>
<path d="M1488321 1543287 L1435354 1543287 "/>
</g>
<g style="fill:#000084; fill-opacity:0.0;  stroke:#000084; stroke-width:5213.246611; stroke-opacity:1;  stroke-linecap:round; stroke-linejoin:round;">
<path d="M1802863 1837161 L1841926 1897145 "/>
<path d="M1802863 1837161 L1802863 1790153 "/>
<path d="M1881009 1751113 L1724611 1751113 "/>
<path d="M1724611 1990922 L1881009 1990922 "/>
<path d="M1841926 1897145 L1761152 1897145 "/>
<path d="M1761152 1837161 L1844574 1837161 "/>
<path d="M1802863 1837161 L1761152 1897145 "/>
<path d="M1724611 1990922 L1724611 1751113 "/>
<path d="M1881009 1990922 L1881009 1751113 "/>
<path d="M1802863 1897145 L1802863 1949185 "/>
</g>
<g style="fill:#000084; fill-opacity:0.0;  stroke:#000084; stroke-width:7819.869917; stroke-opacity:1;  stroke-linecap:round; stroke-linejoin:round;">
<path d="M1753154 1460527 L1806120 1460527 "/>
<path d="M1806120 1460527 L1806120 1381077 "/>
<path d="M1700187 1381077 L1647221 1381077 "/>
<path d="M1647221 1381077 L1647221 1460527 "/>
<path d="M1647221 1460527 L1700187 1460527 "/>
<path d="M1806120 1381077 L1753154 1381077 "/>
<path d="M2143385 1464631 L1830617 1464631 "/>
<path d="M2144577 1641805 L1831809 1641805 "/>
<path d="M1806120 1275144 L1753154 1275144 "/>
<path d="M1753154 1354593 L1806120 1354593 "/>
<path d="M1806120 1354593 L1806120 1275144 "/>
<path d="M1647221 1275144 L1647221 1354593 "/>
<path d="M1647221 1354593 L1700187 1354593 "/>
<path d="M1700187 1275144 L1647221 1275144 "/>
<path d="M1352594 718994 L1405561 718994 "/>
<path d="M1458527 718994 L1511494 718994 "/>
<path d="M1352594 639544 L1352594 718994 "/>
<path d="M1511494 639544 L1458527 639544 "/>
<path d="M1511494 718994 L1511494 639544 "/>
<path d="M1405561 639544 L1352594 639544 "/>
<path d="M1163901 639544 L1110934 639544 "/>
<path d="M1269834 718994 L1269834 639544 "/>
<path d="M1110934 639544 L1110934 718994 "/>
<path d="M1110934 718994 L1163901 718994 "/>
<path d="M1269834 639544 L1216867 639544 "/>
<path d="M1216867 718994 L1269834 718994 "/>
<path d="M1592665 457472 L1905433 457472 "/>
<path d="M1593857 634645 L1906625 634645 "/>
</g>
<g style="fill:#000084; fill-opacity:0.0;  stroke:#000084; stroke-width:5213.246611; stroke-opacity:1;  stroke-linecap:round; stroke-linejoin:round;">
<path d="M1632545 717013 L1632545 800425 "/>
<path d="M1867141 717013 L1632545 717013 "/>
<path d="M1867141 800425 L1867141 717013 "/>
<path d="M1632545 800425 L1867141 800425 "/>
</g>
<g style="fill:#000084; fill-opacity:0.0;  stroke:#000084; stroke-width:7819.869917; stroke-opacity:1;  stroke-linecap:round; stroke-linejoin:round;">
<path d="M1163901 771961 L1163901 851411 "/>
<path d="M1163901 851411 L1216867 851411 "/>
<path d="M1322800 851411 L1322800 771961 "/>
<path d="M1322800 771961 L1269834 771961 "/>
<path d="M1216867 771961 L1163901 771961 "/>
<path d="M1269834 851411 L1322800 851411 "/>
<path d="M1117555 1354593 L1170521 1354593 "/>
<path d="M1276455 1275144 L1223488 1275144 "/>
<path d="M1276455 1354593 L1276455 1275144 "/>
<path d="M1117555 1275144 L1117555 1354593 "/>
<path d="M1223488 1354593 L1276455 1354593 "/>
<path d="M1170521 1275144 L1117555 1275144 "/>
<path d="M1869018 278710 L1869018 225743 "/>
<path d="M1869018 225743 L1789568 225743 "/>
<path d="M1869018 384643 L1869018 331676 "/>
<path d="M1789568 331676 L1789568 384643 "/>
<path d="M1789568 225743 L1789568 278710 "/>
<path d="M1789568 384643 L1869018 384643 "/>
<path d="M1144038 480645 L1144038 560095 "/>
<path d="M1249971 560095 L1302938 560095 "/>
<path d="M1144038 560095 L1197005 560095 "/>
<path d="M1302938 560095 L1302938 480645 "/>
<path d="M1197005 480645 L1144038 480645 "/>
<path d="M1302938 480645 L1249971 480645 "/>
<path d="M1074519 1470458 L1074519 1417491 "/>
<path d="M1074519 1311558 L995070 1311558 "/>
<path d="M1074519 1364525 L1074519 1311558 "/>
<path d="M995070 1470458 L1074519 1470458 "/>
<path d="M995070 1417491 L995070 1470458 "/>
<path d="M995070 1311558 L995070 1364525 "/>
<path d="M1418802 993759 L1339352 993759 "/>
<path d="M1339352 993759 L1339352 1046725 "/>
<path d="M1339352 1152658 L1418802 1152658 "/>
<path d="M1418802 1046725 L1418802 993759 "/>
<path d="M1418802 1152658 L1418802 1099692 "/>
<path d="M1339352 1099692 L1339352 1152658 "/>
<path d="M1418802 1443975 L1498252 1443975 "/>
<path d="M1498252 1443975 L1498252 1391008 "/>
<path d="M1498252 1338041 L1498252 1285075 "/>
<path d="M1418802 1285075 L1418802 1338041 "/>
<path d="M1498252 1285075 L1418802 1285075 "/>
<path d="M1418802 1391008 L1418802 1443975 "/>
<path d="M1392319 1338041 L1392319 1285075 "/>
<path d="M1312869 1391008 L1312869 1443975 "/>
<path d="M1312869 1443975 L1392319 1443975 "/>
<path d="M1392319 1285075 L1312869 1285075 "/>
<path d="M1312869 1285075 L1312869 1338041 "/>
<path d="M1392319 1443975 L1392319 1391008 "/>
<path d="M1869018 920929 L1869018 867963 "/>
<path d="M1789568 1026863 L1869018 1026863 "/>
<path d="M1789568 973896 L1789568 1026863 "/>
<path d="M1789568 867963 L1789568 920929 "/>
<path d="M1869018 1026863 L1869018 973896 "/>
<path d="M1869018 867963 L1789568 867963 "/>
<path d="M1773016 1116244 L1720050 1116244 "/>
<path d="M1878950 1116244 L1825983 1116244 "/>
<path d="M1720050 1195694 L1773016 1195694 "/>
<path d="M1720050 1116244 L1720050 1195694 "/>
<path d="M1878950 1195694 L1878950 1116244 "/>
<path d="M1825983 1195694 L1878950 1195694 "/>
<path d="M1524735 1443975 L1604185 1443975 "/>
<path d="M1524735 1285075 L1524735 1338041 "/>
<path d="M1604185 1285075 L1524735 1285075 "/>
<path d="M1524735 1391008 L1524735 1443975 "/>
<path d="M1604185 1338041 L1604185 1285075 "/>
<path d="M1604185 1443975 L1604185 1391008 "/>
</g>
<g style="fill:#000084; fill-opacity:0.0;  stroke:#000084; stroke-width:5213.246611; stroke-opacity:1;  stroke-linecap:round; stroke-linejoin:round;">
<path d="M1642242 1236774 L1642242 1075163 "/>
<path d="M1642242 1236774 L1582290 1236774 "/>
<path d="M1548404 1202888 L1548404 1075163 "/>
<path d="M1548404 1202888 L1582290 1236774 "/>
<path d="M1642242 1075163 L1548404 1075163 "/>
<g>
</g>
<g>
</g>
<g>
</g>
<g>
</g>
<g>
</g>
<g>
</g>
<g>
</g>
<g>
</g>
<g>
</g>
<g>
</g>
<g>
</g>
<g>
</g>
<g>
</g>
<g>
</g>
<g>
</g>
<g>
</g>
<g>
</g>
<g>
</g>
<g>
</g>
<g>
</g>
<g>
</g>
<g>
</g>
<g>
</g>
<g>
</g>
<g>
</g>
<g>
</g>
<g>
</g>
<g>
</g>
<g>
</g>
<g>
</g>
<g>
</g>
<g>
</g>
<g>
</g>
<g>
</g>
<g>
</g>
<g>
</g>
<g>
</g>
<g>
</g>
<g>
</g>
<g>
</g>
<g>
</g>
<g>
</g>
</g> 
<svg:g><svg:g><svg:title>SVG Picture created as SIPM02-Edge_Cuts.svg date 2023/06/15 01:22:33 </svg:title>
  <svg:desc>Picture generated by PCBNEW </svg:desc>
<svg:g style="fill:#C2C200; fill-opacity:1.000000;stroke:#C2C200; stroke-opacity:1.000000; stroke-linecap:round; stroke-linejoin:round;" transform="translate(0 0) scale(1 1)">
</svg:g>
<svg:g style="fill:#C2C200; fill-opacity:0.0;  stroke:#C2C200; stroke-width:0.000000; stroke-opacity:1;  stroke-linecap:round; stroke-linejoin:round;">
</svg:g>
<svg:g style="fill:#C2C200; fill-opacity:0.0;  stroke:#C2C200; stroke-width:7819.869917; stroke-opacity:1;  stroke-linecap:round; stroke-linejoin:round;">
<svg:path d="M2266268 2096126 L2266268 3945 "/>
<svg:path d="M703753 2096126 L703753 3945 "/>
<svg:path d="M703753 2096126 L2266268 2096126 "/>
<svg:path d="M703753 3945 L2266268 3945 "/>
<svg:g>
</svg:g>
<svg:g>
</svg:g>
<svg:g>
</svg:g>
<svg:g>
</svg:g>
<svg:g>
</svg:g>
<svg:g>
</svg:g>
<svg:g>
</svg:g>
<svg:g>
</svg:g>
<svg:g>
</svg:g>
<svg:g>
</svg:g>
<svg:g>
</svg:g>
<svg:g>
</svg:g>
<svg:g>
</svg:g>
<svg:g>
</svg:g>
<svg:g>
</svg:g>
<svg:g>
</svg:g>
<svg:g>
</svg:g>
<svg:g>
</svg:g>
<svg:g>
</svg:g>
<svg:g>
</svg:g>
<svg:g>
</svg:g>
<svg:g>
</svg:g>
<svg:g>
</svg:g>
<svg:g>
</svg:g>
<svg:g>
</svg:g>
<svg:g>
</svg:g>
<svg:g>
</svg:g>
<svg:g>
</svg:g>
<svg:g>
</svg:g>
<svg:g>
</svg:g>
<svg:g>
</svg:g>
<svg:g>
</svg:g>
<svg:g>
</svg:g>
<svg:g>
</svg:g>
<svg:g>
</svg:g>
<svg:g>
</svg:g>
<svg:g>
</svg:g>
<svg:g>
</svg:g>
<svg:g>
</svg:g>
<svg:g>
</svg:g>
<svg:g>
</svg:g>
<svg:g>
</svg:g>
</svg:g> 
</svg:g></svg:g></svg>
