<?xml version='1.0' encoding='ASCII' standalone='yes'?>
<svg xmlns:svg="http://www.w3.org/2000/svg" xmlns="http://www.w3.org/2000/svg" xmlns:xlink="http://www.w3.org/1999/xlink" version="1.1" width="29.700220cm" height="21.000720cm" viewBox="0 0 2970022 2100072">
<title>SVG Picture created as SIPM02-F_Fab.svg date 2023/05/28 01:24:18 </title>
  <desc>Picture generated by PCBNEW </desc>
<g style="fill:#848484; fill-opacity:1.000000;stroke:#848484; stroke-opacity:1.000000; stroke-linecap:round; stroke-linejoin:round;" transform="translate(0 0) scale(1 1)">
</g>
<g style="fill:#848484; fill-opacity:0.0;  stroke:#848484; stroke-width:0.000000; stroke-opacity:1;  stroke-linecap:round; stroke-linejoin:round;">
</g>
<g style="fill:#848484; fill-opacity:0.01;  stroke:#848484; stroke-width:7819.869917; stroke-opacity:1;  stroke-linecap:round; stroke-linejoin:round;">
<text x="1750505.987885" y="1102585.549377" textLength="109347.847674" font-size="69509.937441" lengthAdjust="spacingAndGlyphs" text-anchor="middle" opacity="0.01" style="font-family:monospace">U1</text>
<g class="stroked-text"><desc>U1</desc>
<path d="M1790225 1047970 L1790225 1090173 L1787743 1095138 L1785260 1097620 L1780295 1100103 L1770366 1100103 L1765401 1097620 L1762918 1095138 L1760436 1090173 L1760436 1047970 "/>
<path d="M1708303 1100103 L1738093 1100103 "/>
<path d="M1723198 1100103 L1723198 1047970 L1728163 1055418 L1733128 1060383 L1738093 1062865 "/>
</g><path d="M769962 1089760 L1034795 1089760 "/>
<path d="M1034795 957344 L769962 957344 "/>
<path d="M1034795 1089760 L1034795 957344 "/>
<path d="M769962 957344 L769962 1089760 "/>
<path d="M1034795 1089760 L769962 1089760 "/>
<path d="M769962 1222177 L1034795 1222177 "/>
<path d="M1034795 1222177 L1034795 1089760 "/>
<path d="M769962 1089760 L769962 1222177 "/>
<path d="M769962 1910743 L769962 2043159 "/>
<path d="M1034795 2043159 L1034795 1910743 "/>
<path d="M769962 2043159 L1034795 2043159 "/>
<path d="M1034795 1910743 L769962 1910743 "/>
<path d="M769962 1354593 L1034795 1354593 "/>
<path d="M1034795 1354593 L1034795 1222177 "/>
<path d="M1034795 1222177 L769962 1222177 "/>
<path d="M769962 1222177 L769962 1354593 "/>
<path d="M1567380 1232499 L1932307 1232499 "/>
<path d="M1567380 867572 L1567380 1232499 "/>
<path d="M1932307 867572 L1567380 867572 "/>
<path d="M1932307 1232499 L1932307 867572 "/>
<circle cx="1897488.262847" cy="1103664.691425" r="20936.867584"/> 
<path d="M769962 321745 L769962 454161 "/>
<path d="M769962 454161 L1034795 454161 "/>
<path d="M1034795 321745 L769962 321745 "/>
<path d="M1034795 454161 L1034795 321745 "/>
<path d="M769962 189329 L769962 321745 "/>
<path d="M769962 321745 L1034795 321745 "/>
<path d="M1034795 321745 L1034795 189329 "/>
<path d="M1034795 189329 L769962 189329 "/>
<path d="M769962 56912 L769962 189329 "/>
<path d="M1034795 56912 L769962 56912 "/>
<path d="M1034795 189329 L1034795 56912 "/>
<path d="M769962 189329 L1034795 189329 "/>
<path d="M769962 1778326 L769962 1910743 "/>
<path d="M1034795 1910743 L1034795 1778326 "/>
<path d="M769962 1910743 L1034795 1910743 "/>
<path d="M1034795 1778326 L769962 1778326 "/>
<path d="M769962 1645910 L769962 1778326 "/>
<path d="M1034795 1778326 L1034795 1645910 "/>
<path d="M1034795 1645910 L769962 1645910 "/>
<path d="M769962 1778326 L1034795 1778326 "/>
<path d="M769962 957344 L1034795 957344 "/>
<path d="M769962 824928 L769962 957344 "/>
<path d="M1034795 957344 L1034795 824928 "/>
<path d="M1034795 824928 L769962 824928 "/>
<g>
</g>
<g>
</g>
<g>
</g>
<g>
</g>
<g>
</g>
<g>
</g>
<g>
</g>
<g>
</g>
<g>
</g>
<g>
</g>
<g>
</g>
<g>
</g>
<g>
</g>
<g>
</g>
<g>
</g>
<g>
</g>
<g>
</g>
<g>
</g>
<g>
</g>
<g>
</g>
<g>
</g>
<g>
</g>
<g>
</g>
<g>
</g>
<g>
</g>
<g>
</g>
<g>
</g>
<g>
</g>
<g>
</g>
<g>
</g>
<g>
</g>
<g>
</g>
<g>
</g>
<g>
</g>
<g>
</g>
<g>
</g>
<g>
</g>
<g>
</g>
<g>
</g>
<g>
</g>
<g>
</g>
<g>
</g>
</g> 
<svg:g><svg:g><svg:title>SVG Picture created as SIPM02-Edge_Cuts.svg date 2023/05/28 01:24:18 </svg:title>
  <svg:desc>Picture generated by PCBNEW </svg:desc>
<svg:g style="fill:#C2C200; fill-opacity:1.000000;stroke:#C2C200; stroke-opacity:1.000000; stroke-linecap:round; stroke-linejoin:round;" transform="translate(0 0) scale(1 1)">
</svg:g>
<svg:g style="fill:#C2C200; fill-opacity:0.0;  stroke:#C2C200; stroke-width:0.000000; stroke-opacity:1;  stroke-linecap:round; stroke-linejoin:round;">
</svg:g>
<svg:g style="fill:#C2C200; fill-opacity:0.0;  stroke:#C2C200; stroke-width:7819.869917; stroke-opacity:1;  stroke-linecap:round; stroke-linejoin:round;">
<svg:path d="M703753 2096126 L703753 3945 "/>
<svg:path d="M2266268 2096126 L2266268 3945 "/>
<svg:path d="M2266268 2096126 L703753 2096126 "/>
<svg:path d="M2266268 3945 L703753 3945 "/>
<svg:g>
</svg:g>
<svg:g>
</svg:g>
<svg:g>
</svg:g>
<svg:g>
</svg:g>
<svg:g>
</svg:g>
<svg:g>
</svg:g>
<svg:g>
</svg:g>
<svg:g>
</svg:g>
<svg:g>
</svg:g>
<svg:g>
</svg:g>
<svg:g>
</svg:g>
<svg:g>
</svg:g>
<svg:g>
</svg:g>
<svg:g>
</svg:g>
<svg:g>
</svg:g>
<svg:g>
</svg:g>
<svg:g>
</svg:g>
<svg:g>
</svg:g>
<svg:g>
</svg:g>
<svg:g>
</svg:g>
<svg:g>
</svg:g>
<svg:g>
</svg:g>
<svg:g>
</svg:g>
<svg:g>
</svg:g>
<svg:g>
</svg:g>
<svg:g>
</svg:g>
<svg:g>
</svg:g>
<svg:g>
</svg:g>
<svg:g>
</svg:g>
<svg:g>
</svg:g>
<svg:g>
</svg:g>
<svg:g>
</svg:g>
<svg:g>
</svg:g>
<svg:g>
</svg:g>
<svg:g>
</svg:g>
<svg:g>
</svg:g>
<svg:g>
</svg:g>
<svg:g>
</svg:g>
<svg:g>
</svg:g>
<svg:g>
</svg:g>
<svg:g>
</svg:g>
<svg:g>
</svg:g>
</svg:g> 
</svg:g></svg:g></svg>
