<?xml version='1.0' encoding='ASCII' standalone='yes'?>
<svg xmlns:svg="http://www.w3.org/2000/svg" xmlns="http://www.w3.org/2000/svg" xmlns:xlink="http://www.w3.org/1999/xlink" version="1.1" width="297.0022mm" height="210.0072mm" viewBox="0.0000 0.0000 297.0022 210.0072">
<title>SVG Image created as SIPM02-F_Fab.svg date 2023/07/05 01:38:45 </title>
  <desc>Image generated by PCBNEW </desc>
<g style="fill:#848484; fill-opacity:1.0000;stroke:#848484; stroke-opacity:1.0000; stroke-linecap:round; stroke-linejoin:round;" transform="translate(0 0) scale(1 1)">
</g>
<g style="fill:#848484; fill-opacity:0.0;  stroke:#848484; stroke-width:0.0000; stroke-opacity:1;  stroke-linecap:round; stroke-linejoin:round;">
</g>
<g style="fill:#848484; fill-opacity:0.01;  stroke:#848484; stroke-width:0.7820; stroke-opacity:1;  stroke-linecap:round; stroke-linejoin:round;">
<text x="175.0506" y="110.2586" textLength="11.3388" font-size="6.9510" lengthAdjust="spacingAndGlyphs" text-anchor="middle" opacity="0.01" style="font-family:monospace">U1</text>
<g class="stroked-text"><desc>U1</desc>
<path d="M179.0226 104.8098 L179.0226 109.0300 "/>
<path d="M179.0226 109.0300 L178.7743 109.5265 "/>
<path d="M178.7743 109.5265 L178.5261 109.7748 "/>
<path d="M178.5261 109.7748 L178.0296 110.0230 "/>
<path d="M178.0296 110.0230 L177.0366 110.0230 "/>
<path d="M177.0366 110.0230 L176.5401 109.7748 "/>
<path d="M176.5401 109.7748 L176.2919 109.5265 "/>
<path d="M176.2919 109.5265 L176.0436 109.0300 "/>
<path d="M176.0436 109.0300 L176.0436 104.8098 "/>
<path d="M170.8304 110.0230 L173.8094 110.0230 "/>
<path d="M172.3199 110.0230 L172.3199 104.8098 "/>
<path d="M172.3199 104.8098 L172.8164 105.5545 "/>
<path d="M172.8164 105.5545 L173.3129 106.0510 "/>
<path d="M173.3129 106.0510 L173.8094 106.2993 "/>
</g><path d="M76.9962 108.9761 L103.4795 108.9761 "/>
<path d="M103.4795 95.7344 L76.9962 95.7344 "/>
<path d="M103.4795 108.9761 L103.4795 95.7344 "/>
<path d="M76.9962 95.7344 L76.9962 108.9761 "/>
<path d="M103.4795 108.9761 L76.9962 108.9761 "/>
<path d="M76.9962 122.2177 L103.4795 122.2177 "/>
<path d="M103.4795 122.2177 L103.4795 108.9761 "/>
<path d="M76.9962 108.9761 L76.9962 122.2177 "/>
<path d="M76.9962 191.0743 L76.9962 204.3160 "/>
<path d="M103.4795 204.3160 L103.4795 191.0743 "/>
<path d="M76.9962 204.3160 L103.4795 204.3160 "/>
<path d="M103.4795 191.0743 L76.9962 191.0743 "/>
<path d="M76.9962 135.4594 L103.4795 135.4594 "/>
<path d="M103.4795 135.4594 L103.4795 122.2177 "/>
<path d="M103.4795 122.2177 L76.9962 122.2177 "/>
<path d="M76.9962 122.2177 L76.9962 135.4594 "/>
<path d="M156.7380 123.2500 L193.2308 123.2500 "/>
<path d="M156.7380 86.7572 L156.7380 123.2500 "/>
<path d="M193.2308 86.7572 L156.7380 86.7572 "/>
<path d="M193.2308 123.2500 L193.2308 86.7572 "/>
<circle cx="189.7488" cy="110.3665" r="2.0937"/> 
<path d="M76.9962 32.1745 L76.9962 45.4162 "/>
<path d="M76.9962 45.4162 L103.4795 45.4162 "/>
<path d="M103.4795 32.1745 L76.9962 32.1745 "/>
<path d="M103.4795 45.4162 L103.4795 32.1745 "/>
<path d="M76.9962 18.9329 L76.9962 32.1745 "/>
<path d="M76.9962 32.1745 L103.4795 32.1745 "/>
<path d="M103.4795 32.1745 L103.4795 18.9329 "/>
<path d="M103.4795 18.9329 L76.9962 18.9329 "/>
<path d="M76.9962 5.6913 L76.9962 18.9329 "/>
<path d="M103.4795 5.6913 L76.9962 5.6913 "/>
<path d="M103.4795 18.9329 L103.4795 5.6913 "/>
<path d="M76.9962 18.9329 L103.4795 18.9329 "/>
<path d="M76.9962 177.8327 L76.9962 191.0743 "/>
<path d="M103.4795 191.0743 L103.4795 177.8327 "/>
<path d="M76.9962 191.0743 L103.4795 191.0743 "/>
<path d="M103.4795 177.8327 L76.9962 177.8327 "/>
<path d="M76.9962 164.5910 L76.9962 177.8327 "/>
<path d="M103.4795 177.8327 L103.4795 164.5910 "/>
<path d="M103.4795 164.5910 L76.9962 164.5910 "/>
<path d="M76.9962 177.8327 L103.4795 177.8327 "/>
<path d="M76.9962 95.7344 L103.4795 95.7344 "/>
<path d="M76.9962 82.4928 L76.9962 95.7344 "/>
<path d="M103.4795 95.7344 L103.4795 82.4928 "/>
<path d="M103.4795 82.4928 L76.9962 82.4928 "/>
<g>
</g>
<g>
</g>
<g>
</g>
<g>
</g>
<g>
</g>
<g>
</g>
<g>
</g>
<g>
</g>
<g>
</g>
<g>
</g>
<g>
</g>
<g>
</g>
<g>
</g>
<g>
</g>
<g>
</g>
<g>
</g>
<g>
</g>
<g>
</g>
<g>
</g>
<g>
</g>
<g>
</g>
<g>
</g>
<g>
</g>
<g>
</g>
<g>
</g>
<g>
</g>
<g>
</g>
<g>
</g>
<g>
</g>
<g>
</g>
<g>
</g>
<g>
</g>
<g>
</g>
<g>
</g>
<g>
</g>
<g>
</g>
<g>
</g>
<g>
</g>
<g>
</g>
<g>
</g>
<g>
</g>
<g>
</g>
</g> 
<svg:g><svg:g><svg:title>SVG Image created as SIPM02-Edge_Cuts.svg date 2023/07/05 01:38:45 </svg:title>
  <svg:desc>Image generated by PCBNEW </svg:desc>
<svg:g style="fill:#C2C200; fill-opacity:1.0000;stroke:#C2C200; stroke-opacity:1.0000; stroke-linecap:round; stroke-linejoin:round;" transform="translate(0 0) scale(1 1)">
</svg:g>
<svg:g style="fill:#C2C200; fill-opacity:0.0;  stroke:#C2C200; stroke-width:0.0000; stroke-opacity:1;  stroke-linecap:round; stroke-linejoin:round;">
</svg:g>
<svg:g style="fill:#C2C200; fill-opacity:0.0;  stroke:#C2C200; stroke-width:0.7820; stroke-opacity:1;  stroke-linecap:round; stroke-linejoin:round;">
<svg:path d="M70.3754 209.6126 L70.3754 0.3946 "/>
<svg:path d="M226.6268 209.6126 L226.6268 0.3946 "/>
<svg:path d="M226.6268 209.6126 L70.3754 209.6126 "/>
<svg:path d="M226.6268 0.3946 L70.3754 0.3946 "/>
<svg:g>
</svg:g>
<svg:g>
</svg:g>
<svg:g>
</svg:g>
<svg:g>
</svg:g>
<svg:g>
</svg:g>
<svg:g>
</svg:g>
<svg:g>
</svg:g>
<svg:g>
</svg:g>
<svg:g>
</svg:g>
<svg:g>
</svg:g>
<svg:g>
</svg:g>
<svg:g>
</svg:g>
<svg:g>
</svg:g>
<svg:g>
</svg:g>
<svg:g>
</svg:g>
<svg:g>
</svg:g>
<svg:g>
</svg:g>
<svg:g>
</svg:g>
<svg:g>
</svg:g>
<svg:g>
</svg:g>
<svg:g>
</svg:g>
<svg:g>
</svg:g>
<svg:g>
</svg:g>
<svg:g>
</svg:g>
<svg:g>
</svg:g>
<svg:g>
</svg:g>
<svg:g>
</svg:g>
<svg:g>
</svg:g>
<svg:g>
</svg:g>
<svg:g>
</svg:g>
<svg:g>
</svg:g>
<svg:g>
</svg:g>
<svg:g>
</svg:g>
<svg:g>
</svg:g>
<svg:g>
</svg:g>
<svg:g>
</svg:g>
<svg:g>
</svg:g>
<svg:g>
</svg:g>
<svg:g>
</svg:g>
<svg:g>
</svg:g>
<svg:g>
</svg:g>
<svg:g>
</svg:g>
</svg:g> 
</svg:g></svg:g></svg>
