%TF.GenerationSoftware,KiCad,Pcbnew,6.0.11+dfsg-1~bpo11+1*%
%TF.CreationDate,2023-07-05T12:13:44+00:00*%
%TF.ProjectId,SIPM02,5349504d-3032-42e6-9b69-6361645f7063,rev?*%
%TF.SameCoordinates,Original*%
%TF.FileFunction,Copper,L1,Top*%
%TF.FilePolarity,Positive*%
%FSLAX46Y46*%
G04 Gerber Fmt 4.6, Leading zero omitted, Abs format (unit mm)*
G04 Created by KiCad (PCBNEW 6.0.11+dfsg-1~bpo11+1) date 2023-07-05 12:13:44*
%MOMM*%
%LPD*%
G01*
G04 APERTURE LIST*
G04 Aperture macros list*
%AMOutline4P*
0 Free polygon, 4 corners , with rotation*
0 The origin of the aperture is its center*
0 number of corners: always 4*
0 $1 to $8 corner X, Y*
0 $9 Rotation angle, in degrees counterclockwise*
0 create outline with 4 corners*
4,1,4,$1,$2,$3,$4,$5,$6,$7,$8,$1,$2,$9*%
G04 Aperture macros list end*
%TA.AperFunction,ComponentPad*%
%ADD10C,6.000000*%
%TD*%
%TA.AperFunction,ComponentPad*%
%ADD11R,1.524000X1.524000*%
%TD*%
%TA.AperFunction,SMDPad,CuDef*%
%ADD12Outline4P,-1.750000X-1.750000X1.750000X-1.750000X1.750000X1.750000X-1.750000X1.750000X0.000000*%
%TD*%
%TA.AperFunction,SMDPad,CuDef*%
%ADD13Outline4P,-1.750000X-1.750000X1.750000X-1.750000X1.750000X1.750000X-1.750000X1.750000X90.000000*%
%TD*%
%TA.AperFunction,SMDPad,CuDef*%
%ADD14Outline4P,-1.750000X-1.750000X1.750000X-1.750000X1.750000X1.750000X-1.750000X1.750000X180.000000*%
%TD*%
%TA.AperFunction,SMDPad,CuDef*%
%ADD15Outline4P,-1.750000X-1.750000X1.750000X-1.750000X1.750000X1.750000X-1.750000X1.750000X270.000000*%
%TD*%
%TA.AperFunction,ViaPad*%
%ADD16C,0.800000*%
%TD*%
%TA.AperFunction,Conductor*%
%ADD17C,0.500000*%
%TD*%
%TA.AperFunction,Conductor*%
%ADD18C,0.400000*%
%TD*%
G04 APERTURE END LIST*
D10*
%TO.P,M2,1*%
%TO.N,GND*%
X5207000Y5080000D03*
%TD*%
%TO.P,M3,1*%
%TO.N,GND*%
X5207000Y35560000D03*
%TD*%
D11*
%TO.P,J10,1*%
%TO.N,/#PD*%
X25273000Y20828000D03*
%TO.P,J10,2*%
X27813000Y20828000D03*
%TD*%
%TO.P,J8,1*%
%TO.N,/OUT*%
X25273000Y18288000D03*
%TO.P,J8,2*%
X27813000Y18288000D03*
%TD*%
%TO.P,J4,1*%
%TO.N,GND*%
X25273000Y2540000D03*
%TO.P,J4,2*%
X27813000Y2540000D03*
%TD*%
%TO.P,J9,1*%
%TO.N,GND*%
X25273000Y15748000D03*
%TO.P,J9,2*%
X27813000Y15748000D03*
%TD*%
D12*
%TO.P,U1,1,A*%
%TO.N,Net-(C10-Pad2)*%
X6837000Y16870000D03*
D13*
%TO.P,U1,2,FO*%
%TO.N,Net-(R6-Pad1)*%
X13737000Y16870000D03*
D14*
%TO.P,U1,3,K*%
%TO.N,Net-(C6-Pad1)*%
X13737000Y23770000D03*
D15*
%TO.P,U1,4,NC*%
%TO.N,unconnected-(U1-Pad4)*%
X6837000Y23770000D03*
%TD*%
D11*
%TO.P,J1,1*%
%TO.N,GND*%
X25273000Y33020000D03*
%TO.P,J1,2*%
X27813000Y33020000D03*
%TD*%
%TO.P,J2,1*%
%TO.N,+28V*%
X25273000Y35560000D03*
%TO.P,J2,2*%
X27813000Y35560000D03*
%TD*%
%TO.P,J3,1*%
%TO.N,GND*%
X25273000Y38100000D03*
%TO.P,J3,2*%
X27813000Y38100000D03*
%TD*%
%TO.P,J5,1*%
%TO.N,/+3V6*%
X27813000Y5080000D03*
%TO.P,J5,2*%
X25273000Y5080000D03*
%TD*%
%TO.P,J6,1*%
%TO.N,GND*%
X27813000Y7620000D03*
%TO.P,J6,2*%
X25273000Y7620000D03*
%TD*%
%TO.P,J7,1*%
%TO.N,/DIRECT_OUT*%
X25273000Y23368000D03*
%TO.P,J7,2*%
X27813000Y23368000D03*
%TD*%
D10*
%TO.P,M1,1*%
%TO.N,GND*%
X15367000Y5080000D03*
%TD*%
%TO.P,M4,1*%
%TO.N,GND*%
X15367000Y35560000D03*
%TD*%
D16*
%TO.N,GND*%
X6096000Y26670000D03*
X7239000Y28448000D03*
X12827000Y11684000D03*
X16256000Y24384000D03*
X9271000Y33020000D03*
X10287000Y10160000D03*
X12065000Y27940000D03*
X10795000Y33020000D03*
X8763000Y13208000D03*
X20955000Y38100000D03*
X28067000Y25908000D03*
X22987000Y16256000D03*
X18415000Y23368000D03*
X7239000Y30988000D03*
X14351000Y26162000D03*
X10287000Y13208000D03*
X26035000Y13208000D03*
X11430000Y28956000D03*
X27559000Y13208000D03*
X16383000Y23368000D03*
X17399000Y16284502D03*
X26035000Y25908000D03*
X22987000Y13208000D03*
X7239000Y29464000D03*
X22987000Y14732000D03*
X20447000Y19812000D03*
X28067000Y27432000D03*
X24511000Y13208000D03*
X16383000Y22352000D03*
X7239000Y10160000D03*
X5715000Y10160000D03*
X6096000Y27813000D03*
X8763000Y10160000D03*
X22987000Y38100000D03*
X12446000Y28956000D03*
X26035000Y27432000D03*
X11811000Y10160000D03*
X13335000Y10160000D03*
X7239000Y27432000D03*
X28067000Y29464000D03*
X28067000Y30988000D03*
X26035000Y30988000D03*
X19431000Y36068000D03*
X7239000Y26543000D03*
X19431000Y34544000D03*
X19431000Y32512000D03*
X26035000Y29464000D03*
X19939000Y23368000D03*
X19431000Y38100000D03*
%TO.N,Net-(C6-Pad1)*%
X12827000Y24892000D03*
%TO.N,/DIRECT_OUT*%
X14859000Y20828000D03*
%TO.N,Net-(C10-Pad2)*%
X7747000Y15748000D03*
%TO.N,/OUT*%
X17907000Y14224000D03*
%TO.N,Net-(R6-Pad1)*%
X14351000Y18288000D03*
%TO.N,Net-(R10-Pad1)*%
X17907000Y20320000D03*
X16383000Y16256000D03*
%TD*%
D17*
%TO.N,GND*%
X7239000Y27432000D02*
X7239000Y26543000D01*
X19939000Y23368000D02*
X18415000Y23368000D01*
X10287000Y10160000D02*
X8763000Y10160000D01*
X19431000Y36068000D02*
X19431000Y38100000D01*
X7239000Y29464000D02*
X7239000Y30988000D01*
X19431000Y32512000D02*
X19431000Y34544000D01*
X7239000Y10160000D02*
X5715000Y10160000D01*
X22987000Y13208000D02*
X22987000Y14732000D01*
X13335000Y10160000D02*
X11811000Y10160000D01*
X27559000Y13208000D02*
X26035000Y13208000D01*
D18*
%TO.N,Net-(C6-Pad1)*%
X13137000Y24582000D02*
X12827000Y24892000D01*
X13137000Y23320000D02*
X13137000Y24582000D01*
D17*
%TO.N,/DIRECT_OUT*%
X22987000Y23368000D02*
X25273000Y23368000D01*
X14859000Y20828000D02*
X15258999Y21227999D01*
X20846999Y21227999D02*
X22987000Y23368000D01*
X15258999Y21227999D02*
X20846999Y21227999D01*
%TO.N,Net-(C10-Pad2)*%
X7437000Y16058000D02*
X7747000Y15748000D01*
X7437000Y17320000D02*
X7437000Y16058000D01*
%TO.N,/OUT*%
X17907000Y14224000D02*
X21971000Y18288000D01*
X25273000Y18288000D02*
X27813000Y18288000D01*
X21971000Y18288000D02*
X25273000Y18288000D01*
%TO.N,Net-(R6-Pad1)*%
X13533000Y17470000D02*
X14351000Y18288000D01*
X13287000Y17470000D02*
X13533000Y17470000D01*
%TO.N,Net-(R10-Pad1)*%
X16383000Y16256000D02*
X16383000Y18796000D01*
X16383000Y18796000D02*
X17907000Y20320000D01*
%TD*%
%TA.AperFunction,Conductor*%
%TO.N,GND*%
G36*
X29786621Y39857498D02*
G01*
X29833114Y39803842D01*
X29844500Y39751500D01*
X29844500Y888500D01*
X29824498Y820379D01*
X29770842Y773886D01*
X29718500Y762500D01*
X1015500Y762500D01*
X947379Y782502D01*
X900886Y836158D01*
X889500Y888500D01*
X889500Y1733331D01*
X24003001Y1733331D01*
X24003371Y1726510D01*
X24008895Y1675648D01*
X24012521Y1660396D01*
X24057676Y1539946D01*
X24066214Y1524351D01*
X24142715Y1422276D01*
X24155276Y1409715D01*
X24257351Y1333214D01*
X24272946Y1324676D01*
X24393394Y1279522D01*
X24408649Y1275895D01*
X24459514Y1270369D01*
X24466328Y1270000D01*
X25000885Y1270000D01*
X25016124Y1274475D01*
X25017329Y1275865D01*
X25019000Y1283548D01*
X25019000Y1288116D01*
X25527000Y1288116D01*
X25531475Y1272877D01*
X25532865Y1271672D01*
X25540548Y1270001D01*
X26079669Y1270001D01*
X26086490Y1270371D01*
X26137352Y1275895D01*
X26152604Y1279521D01*
X26273054Y1324676D01*
X26288649Y1333214D01*
X26390724Y1409715D01*
X26403284Y1422275D01*
X26442173Y1474165D01*
X26499032Y1516681D01*
X26569851Y1521707D01*
X26632144Y1487647D01*
X26643827Y1474165D01*
X26682716Y1422275D01*
X26695276Y1409715D01*
X26797351Y1333214D01*
X26812946Y1324676D01*
X26933394Y1279522D01*
X26948649Y1275895D01*
X26999514Y1270369D01*
X27006328Y1270000D01*
X27540885Y1270000D01*
X27556124Y1274475D01*
X27557329Y1275865D01*
X27559000Y1283548D01*
X27559000Y1288116D01*
X28067000Y1288116D01*
X28071475Y1272877D01*
X28072865Y1271672D01*
X28080548Y1270001D01*
X28619669Y1270001D01*
X28626490Y1270371D01*
X28677352Y1275895D01*
X28692604Y1279521D01*
X28813054Y1324676D01*
X28828649Y1333214D01*
X28930724Y1409715D01*
X28943285Y1422276D01*
X29019786Y1524351D01*
X29028324Y1539946D01*
X29073478Y1660394D01*
X29077105Y1675649D01*
X29082631Y1726514D01*
X29083000Y1733328D01*
X29083000Y2267885D01*
X29078525Y2283124D01*
X29077135Y2284329D01*
X29069452Y2286000D01*
X28085115Y2286000D01*
X28069876Y2281525D01*
X28068671Y2280135D01*
X28067000Y2272452D01*
X28067000Y1288116D01*
X27559000Y1288116D01*
X27559000Y2267885D01*
X27554525Y2283124D01*
X27553135Y2284329D01*
X27545452Y2286000D01*
X25545115Y2286000D01*
X25529876Y2281525D01*
X25528671Y2280135D01*
X25527000Y2272452D01*
X25527000Y1288116D01*
X25019000Y1288116D01*
X25019000Y2267885D01*
X25014525Y2283124D01*
X25013135Y2284329D01*
X25005452Y2286000D01*
X24021116Y2286000D01*
X24005877Y2281525D01*
X24004672Y2280135D01*
X24003001Y2272452D01*
X24003001Y1733331D01*
X889500Y1733331D01*
X889500Y4269866D01*
X24002500Y4269866D01*
X24009255Y4207684D01*
X24060385Y4071295D01*
X24147739Y3954739D01*
X24206749Y3910513D01*
X24249264Y3853656D01*
X24254290Y3782837D01*
X24220230Y3720544D01*
X24206749Y3708862D01*
X24155276Y3670285D01*
X24142715Y3657724D01*
X24066214Y3555649D01*
X24057676Y3540054D01*
X24012522Y3419606D01*
X24008895Y3404351D01*
X24003369Y3353486D01*
X24003000Y3346672D01*
X24003000Y2812115D01*
X24007475Y2796876D01*
X24008865Y2795671D01*
X24016548Y2794000D01*
X29064884Y2794000D01*
X29080123Y2798475D01*
X29081328Y2799865D01*
X29082999Y2807548D01*
X29082999Y3346669D01*
X29082629Y3353490D01*
X29077105Y3404352D01*
X29073479Y3419604D01*
X29028324Y3540054D01*
X29019786Y3555649D01*
X28943285Y3657724D01*
X28930724Y3670285D01*
X28879251Y3708862D01*
X28836736Y3765721D01*
X28831710Y3836540D01*
X28865770Y3898833D01*
X28879245Y3910509D01*
X28938261Y3954739D01*
X29025615Y4071295D01*
X29076745Y4207684D01*
X29083500Y4269866D01*
X29083500Y5890134D01*
X29076745Y5952316D01*
X29025615Y6088705D01*
X28938261Y6205261D01*
X28879251Y6249487D01*
X28836736Y6306344D01*
X28831710Y6377163D01*
X28865770Y6439456D01*
X28879251Y6451138D01*
X28930724Y6489715D01*
X28943285Y6502276D01*
X29019786Y6604351D01*
X29028324Y6619946D01*
X29073478Y6740394D01*
X29077105Y6755649D01*
X29082631Y6806514D01*
X29083000Y6813328D01*
X29083000Y7347885D01*
X29078525Y7363124D01*
X29077135Y7364329D01*
X29069452Y7366000D01*
X24021116Y7366000D01*
X24005877Y7361525D01*
X24004672Y7360135D01*
X24003001Y7352452D01*
X24003001Y6813331D01*
X24003371Y6806510D01*
X24008895Y6755648D01*
X24012521Y6740396D01*
X24057676Y6619946D01*
X24066214Y6604351D01*
X24142715Y6502276D01*
X24155276Y6489715D01*
X24206749Y6451138D01*
X24249264Y6394279D01*
X24254290Y6323460D01*
X24220230Y6261167D01*
X24206755Y6249491D01*
X24147739Y6205261D01*
X24060385Y6088705D01*
X24009255Y5952316D01*
X24002500Y5890134D01*
X24002500Y4269866D01*
X889500Y4269866D01*
X889500Y7892115D01*
X24003000Y7892115D01*
X24007475Y7876876D01*
X24008865Y7875671D01*
X24016548Y7874000D01*
X25000885Y7874000D01*
X25016124Y7878475D01*
X25017329Y7879865D01*
X25019000Y7887548D01*
X25019000Y7892115D01*
X25527000Y7892115D01*
X25531475Y7876876D01*
X25532865Y7875671D01*
X25540548Y7874000D01*
X27540885Y7874000D01*
X27556124Y7878475D01*
X27557329Y7879865D01*
X27559000Y7887548D01*
X27559000Y7892115D01*
X28067000Y7892115D01*
X28071475Y7876876D01*
X28072865Y7875671D01*
X28080548Y7874000D01*
X29064884Y7874000D01*
X29080123Y7878475D01*
X29081328Y7879865D01*
X29082999Y7887548D01*
X29082999Y8426669D01*
X29082629Y8433490D01*
X29077105Y8484352D01*
X29073479Y8499604D01*
X29028324Y8620054D01*
X29019786Y8635649D01*
X28943285Y8737724D01*
X28930724Y8750285D01*
X28828649Y8826786D01*
X28813054Y8835324D01*
X28692606Y8880478D01*
X28677351Y8884105D01*
X28626486Y8889631D01*
X28619672Y8890000D01*
X28085115Y8890000D01*
X28069876Y8885525D01*
X28068671Y8884135D01*
X28067000Y8876452D01*
X28067000Y7892115D01*
X27559000Y7892115D01*
X27559000Y8871884D01*
X27554525Y8887123D01*
X27553135Y8888328D01*
X27545452Y8889999D01*
X27006331Y8889999D01*
X26999510Y8889629D01*
X26948648Y8884105D01*
X26933396Y8880479D01*
X26812946Y8835324D01*
X26797351Y8826786D01*
X26695276Y8750285D01*
X26682716Y8737725D01*
X26643827Y8685835D01*
X26586968Y8643319D01*
X26516149Y8638293D01*
X26453856Y8672353D01*
X26442173Y8685835D01*
X26403284Y8737725D01*
X26390724Y8750285D01*
X26288649Y8826786D01*
X26273054Y8835324D01*
X26152606Y8880478D01*
X26137351Y8884105D01*
X26086486Y8889631D01*
X26079672Y8890000D01*
X25545115Y8890000D01*
X25529876Y8885525D01*
X25528671Y8884135D01*
X25527000Y8876452D01*
X25527000Y7892115D01*
X25019000Y7892115D01*
X25019000Y8871884D01*
X25014525Y8887123D01*
X25013135Y8888328D01*
X25005452Y8889999D01*
X24466331Y8889999D01*
X24459510Y8889629D01*
X24408648Y8884105D01*
X24393396Y8880479D01*
X24272946Y8835324D01*
X24257351Y8826786D01*
X24155276Y8750285D01*
X24142715Y8737724D01*
X24066214Y8635649D01*
X24057676Y8620054D01*
X24012522Y8499606D01*
X24008895Y8484351D01*
X24003369Y8433486D01*
X24003000Y8426672D01*
X24003000Y7892115D01*
X889500Y7892115D01*
X889500Y15071866D01*
X4578500Y15071866D01*
X4585255Y15009684D01*
X4636385Y14873295D01*
X4723739Y14756739D01*
X4840295Y14669385D01*
X4976684Y14618255D01*
X5038866Y14611500D01*
X8635134Y14611500D01*
X8697316Y14618255D01*
X8833705Y14669385D01*
X8950261Y14756739D01*
X9037615Y14873295D01*
X9088745Y15009684D01*
X9095500Y15071866D01*
X11478500Y15071866D01*
X11485255Y15009684D01*
X11536385Y14873295D01*
X11623739Y14756739D01*
X11740295Y14669385D01*
X11876684Y14618255D01*
X11938866Y14611500D01*
X15535134Y14611500D01*
X15597316Y14618255D01*
X15733705Y14669385D01*
X15850261Y14756739D01*
X15937615Y14873295D01*
X15988745Y15009684D01*
X15995500Y15071866D01*
X15995500Y15253972D01*
X16015502Y15322093D01*
X16069158Y15368586D01*
X16139432Y15378690D01*
X16147697Y15377219D01*
X16281056Y15348872D01*
X16281061Y15348872D01*
X16287513Y15347500D01*
X16478487Y15347500D01*
X16484939Y15348872D01*
X16484944Y15348872D01*
X16577688Y15368586D01*
X16665288Y15387206D01*
X16770500Y15434049D01*
X16833722Y15462197D01*
X16833724Y15462198D01*
X16839752Y15464882D01*
X16877530Y15492329D01*
X16895157Y15505136D01*
X16994253Y15577134D01*
X17122040Y15719056D01*
X17217527Y15884444D01*
X17276542Y16066072D01*
X17296504Y16256000D01*
X17276542Y16445928D01*
X17217527Y16627556D01*
X17158381Y16730000D01*
X17141500Y16792999D01*
X17141500Y18429629D01*
X17161502Y18497750D01*
X17178405Y18518724D01*
X18063331Y19403650D01*
X18126228Y19437801D01*
X18182824Y19449831D01*
X18182833Y19449834D01*
X18189288Y19451206D01*
X18195319Y19453891D01*
X18357722Y19526197D01*
X18357724Y19526198D01*
X18363752Y19528882D01*
X18518253Y19641134D01*
X18646040Y19783056D01*
X18741527Y19948444D01*
X18800542Y20130072D01*
X18802138Y20145251D01*
X18819814Y20313435D01*
X18820504Y20320000D01*
X18819419Y20330323D01*
X18819814Y20332483D01*
X18819814Y20333171D01*
X18819940Y20333171D01*
X18832188Y20400162D01*
X18880687Y20452011D01*
X18944728Y20469499D01*
X20779929Y20469499D01*
X20798879Y20468066D01*
X20813114Y20465900D01*
X20813118Y20465900D01*
X20820348Y20464800D01*
X20827640Y20465393D01*
X20827643Y20465393D01*
X20873017Y20469084D01*
X20883232Y20469499D01*
X20891292Y20469499D01*
X20904582Y20471048D01*
X20919506Y20472788D01*
X20923881Y20473221D01*
X20989338Y20478545D01*
X20989341Y20478546D01*
X20996636Y20479139D01*
X21003600Y20481395D01*
X21009559Y20482586D01*
X21015414Y20483970D01*
X21022680Y20484817D01*
X21091326Y20509734D01*
X21095454Y20511151D01*
X21157935Y20531392D01*
X21157937Y20531393D01*
X21164898Y20533648D01*
X21171153Y20537444D01*
X21176627Y20539950D01*
X21182057Y20542669D01*
X21188936Y20545166D01*
X21249975Y20585185D01*
X21253679Y20587522D01*
X21316106Y20625404D01*
X21324483Y20632802D01*
X21324507Y20632775D01*
X21327499Y20635428D01*
X21330732Y20638131D01*
X21336851Y20642143D01*
X21390127Y20698382D01*
X21392505Y20700824D01*
X23264276Y22572595D01*
X23326588Y22606621D01*
X23353371Y22609500D01*
X23883837Y22609500D01*
X23951958Y22589498D01*
X23998451Y22535842D01*
X24005305Y22510920D01*
X24006575Y22511222D01*
X24008402Y22503540D01*
X24009255Y22495684D01*
X24060385Y22359295D01*
X24147739Y22242739D01*
X24154919Y22237358D01*
X24206332Y22198826D01*
X24248847Y22141967D01*
X24253873Y22071148D01*
X24219813Y22008855D01*
X24206333Y21997175D01*
X24147739Y21953261D01*
X24060385Y21836705D01*
X24009255Y21700316D01*
X24002500Y21638134D01*
X24002500Y20017866D01*
X24009255Y19955684D01*
X24060385Y19819295D01*
X24147739Y19702739D01*
X24154919Y19697358D01*
X24206332Y19658826D01*
X24248847Y19601967D01*
X24253873Y19531148D01*
X24219813Y19468855D01*
X24206333Y19457175D01*
X24147739Y19413261D01*
X24060385Y19296705D01*
X24009255Y19160316D01*
X24008402Y19152460D01*
X24006575Y19144778D01*
X24003540Y19145500D01*
X23981841Y19093309D01*
X23923470Y19052895D01*
X23883837Y19046500D01*
X22038070Y19046500D01*
X22019120Y19047933D01*
X22004885Y19050099D01*
X22004881Y19050099D01*
X21997651Y19051199D01*
X21990359Y19050606D01*
X21990356Y19050606D01*
X21944982Y19046915D01*
X21934767Y19046500D01*
X21926707Y19046500D01*
X21923073Y19046076D01*
X21923067Y19046076D01*
X21910042Y19044557D01*
X21898480Y19043209D01*
X21894132Y19042779D01*
X21821364Y19036860D01*
X21814403Y19034605D01*
X21808463Y19033418D01*
X21802588Y19032029D01*
X21795319Y19031182D01*
X21726670Y19006264D01*
X21722542Y19004847D01*
X21660064Y18984607D01*
X21660062Y18984606D01*
X21653101Y18982351D01*
X21646846Y18978555D01*
X21641372Y18976049D01*
X21635942Y18973330D01*
X21629063Y18970833D01*
X21622943Y18966820D01*
X21622942Y18966820D01*
X21568024Y18930814D01*
X21564320Y18928477D01*
X21501893Y18890595D01*
X21493516Y18883197D01*
X21493492Y18883224D01*
X21490500Y18880571D01*
X21487267Y18877868D01*
X21481148Y18873856D01*
X21476116Y18868544D01*
X21427872Y18817617D01*
X21425494Y18815175D01*
X17750669Y15140350D01*
X17687772Y15106199D01*
X17631176Y15094169D01*
X17631167Y15094166D01*
X17624712Y15092794D01*
X17618682Y15090109D01*
X17618681Y15090109D01*
X17456278Y15017803D01*
X17456276Y15017802D01*
X17450248Y15015118D01*
X17444907Y15011238D01*
X17444906Y15011237D01*
X17432585Y15002285D01*
X17295747Y14902866D01*
X17167960Y14760944D01*
X17164659Y14755226D01*
X17085267Y14617715D01*
X17072473Y14595556D01*
X17013458Y14413928D01*
X16993496Y14224000D01*
X17013458Y14034072D01*
X17072473Y13852444D01*
X17167960Y13687056D01*
X17295747Y13545134D01*
X17450248Y13432882D01*
X17456276Y13430198D01*
X17456278Y13430197D01*
X17618681Y13357891D01*
X17624712Y13355206D01*
X17718112Y13335353D01*
X17805056Y13316872D01*
X17805061Y13316872D01*
X17811513Y13315500D01*
X18002487Y13315500D01*
X18008939Y13316872D01*
X18008944Y13316872D01*
X18095887Y13335353D01*
X18189288Y13355206D01*
X18195319Y13357891D01*
X18357722Y13430197D01*
X18357724Y13430198D01*
X18363752Y13432882D01*
X18518253Y13545134D01*
X18646040Y13687056D01*
X18741527Y13852444D01*
X18796387Y14021286D01*
X18827125Y14071444D01*
X19697012Y14941331D01*
X24003001Y14941331D01*
X24003371Y14934510D01*
X24008895Y14883648D01*
X24012521Y14868396D01*
X24057676Y14747946D01*
X24066214Y14732351D01*
X24142715Y14630276D01*
X24155276Y14617715D01*
X24257351Y14541214D01*
X24272946Y14532676D01*
X24393394Y14487522D01*
X24408649Y14483895D01*
X24459514Y14478369D01*
X24466328Y14478000D01*
X25000885Y14478000D01*
X25016124Y14482475D01*
X25017329Y14483865D01*
X25019000Y14491548D01*
X25019000Y14496116D01*
X25527000Y14496116D01*
X25531475Y14480877D01*
X25532865Y14479672D01*
X25540548Y14478001D01*
X26079669Y14478001D01*
X26086490Y14478371D01*
X26137352Y14483895D01*
X26152604Y14487521D01*
X26273054Y14532676D01*
X26288649Y14541214D01*
X26390724Y14617715D01*
X26403284Y14630275D01*
X26442173Y14682165D01*
X26499032Y14724681D01*
X26569851Y14729707D01*
X26632144Y14695647D01*
X26643827Y14682165D01*
X26682716Y14630275D01*
X26695276Y14617715D01*
X26797351Y14541214D01*
X26812946Y14532676D01*
X26933394Y14487522D01*
X26948649Y14483895D01*
X26999514Y14478369D01*
X27006328Y14478000D01*
X27540885Y14478000D01*
X27556124Y14482475D01*
X27557329Y14483865D01*
X27559000Y14491548D01*
X27559000Y14496116D01*
X28067000Y14496116D01*
X28071475Y14480877D01*
X28072865Y14479672D01*
X28080548Y14478001D01*
X28619669Y14478001D01*
X28626490Y14478371D01*
X28677352Y14483895D01*
X28692604Y14487521D01*
X28813054Y14532676D01*
X28828649Y14541214D01*
X28930724Y14617715D01*
X28943285Y14630276D01*
X29019786Y14732351D01*
X29028324Y14747946D01*
X29073478Y14868394D01*
X29077105Y14883649D01*
X29082631Y14934514D01*
X29083000Y14941328D01*
X29083000Y15475885D01*
X29078525Y15491124D01*
X29077135Y15492329D01*
X29069452Y15494000D01*
X28085115Y15494000D01*
X28069876Y15489525D01*
X28068671Y15488135D01*
X28067000Y15480452D01*
X28067000Y14496116D01*
X27559000Y14496116D01*
X27559000Y15475885D01*
X27554525Y15491124D01*
X27553135Y15492329D01*
X27545452Y15494000D01*
X25545115Y15494000D01*
X25529876Y15489525D01*
X25528671Y15488135D01*
X25527000Y15480452D01*
X25527000Y14496116D01*
X25019000Y14496116D01*
X25019000Y15475885D01*
X25014525Y15491124D01*
X25013135Y15492329D01*
X25005452Y15494000D01*
X24021116Y15494000D01*
X24005877Y15489525D01*
X24004672Y15488135D01*
X24003001Y15480452D01*
X24003001Y14941331D01*
X19697012Y14941331D01*
X22248276Y17492595D01*
X22310588Y17526621D01*
X22337371Y17529500D01*
X23883837Y17529500D01*
X23951958Y17509498D01*
X23998451Y17455842D01*
X24005305Y17430920D01*
X24006575Y17431222D01*
X24008402Y17423540D01*
X24009255Y17415684D01*
X24060385Y17279295D01*
X24147739Y17162739D01*
X24206749Y17118513D01*
X24249264Y17061656D01*
X24254290Y16990837D01*
X24220230Y16928544D01*
X24206749Y16916862D01*
X24155276Y16878285D01*
X24142715Y16865724D01*
X24066214Y16763649D01*
X24057676Y16748054D01*
X24012522Y16627606D01*
X24008895Y16612351D01*
X24003369Y16561486D01*
X24003000Y16554672D01*
X24003000Y16020115D01*
X24007475Y16004876D01*
X24008865Y16003671D01*
X24016548Y16002000D01*
X29064884Y16002000D01*
X29080123Y16006475D01*
X29081328Y16007865D01*
X29082999Y16015548D01*
X29082999Y16554669D01*
X29082629Y16561490D01*
X29077105Y16612352D01*
X29073479Y16627604D01*
X29028324Y16748054D01*
X29019786Y16763649D01*
X28943285Y16865724D01*
X28930724Y16878285D01*
X28879251Y16916862D01*
X28836736Y16973721D01*
X28831710Y17044540D01*
X28865770Y17106833D01*
X28879245Y17118509D01*
X28938261Y17162739D01*
X29025615Y17279295D01*
X29076745Y17415684D01*
X29083500Y17477866D01*
X29083500Y19098134D01*
X29076745Y19160316D01*
X29025615Y19296705D01*
X28938261Y19413261D01*
X28879668Y19457174D01*
X28837153Y19514033D01*
X28832127Y19584852D01*
X28866187Y19647145D01*
X28879668Y19658826D01*
X28931081Y19697358D01*
X28938261Y19702739D01*
X29025615Y19819295D01*
X29076745Y19955684D01*
X29083500Y20017866D01*
X29083500Y21638134D01*
X29076745Y21700316D01*
X29025615Y21836705D01*
X28938261Y21953261D01*
X28879668Y21997174D01*
X28837153Y22054033D01*
X28832127Y22124852D01*
X28866187Y22187145D01*
X28879668Y22198826D01*
X28931081Y22237358D01*
X28938261Y22242739D01*
X29025615Y22359295D01*
X29076745Y22495684D01*
X29083500Y22557866D01*
X29083500Y24178134D01*
X29076745Y24240316D01*
X29025615Y24376705D01*
X28938261Y24493261D01*
X28821705Y24580615D01*
X28685316Y24631745D01*
X28623134Y24638500D01*
X27002866Y24638500D01*
X26940684Y24631745D01*
X26804295Y24580615D01*
X26687739Y24493261D01*
X26682358Y24486081D01*
X26643826Y24434668D01*
X26586967Y24392153D01*
X26516148Y24387127D01*
X26453855Y24421187D01*
X26442174Y24434668D01*
X26403642Y24486081D01*
X26398261Y24493261D01*
X26281705Y24580615D01*
X26145316Y24631745D01*
X26083134Y24638500D01*
X24462866Y24638500D01*
X24400684Y24631745D01*
X24264295Y24580615D01*
X24147739Y24493261D01*
X24060385Y24376705D01*
X24009255Y24240316D01*
X24008402Y24232460D01*
X24006575Y24224778D01*
X24003540Y24225500D01*
X23981841Y24173309D01*
X23923470Y24132895D01*
X23883837Y24126500D01*
X23054063Y24126500D01*
X23035114Y24127933D01*
X23034907Y24127964D01*
X23013651Y24131198D01*
X23006359Y24130605D01*
X23006356Y24130605D01*
X22960991Y24126915D01*
X22950777Y24126500D01*
X22942707Y24126500D01*
X22939087Y24126078D01*
X22939069Y24126077D01*
X22914461Y24123208D01*
X22910100Y24122776D01*
X22884981Y24120733D01*
X22844661Y24117454D01*
X22844658Y24117453D01*
X22837363Y24116860D01*
X22830399Y24114604D01*
X22824440Y24113413D01*
X22818585Y24112029D01*
X22811319Y24111182D01*
X22742673Y24086265D01*
X22738545Y24084848D01*
X22676064Y24064607D01*
X22676062Y24064606D01*
X22669101Y24062351D01*
X22662846Y24058555D01*
X22657372Y24056049D01*
X22651942Y24053330D01*
X22645063Y24050833D01*
X22584016Y24010809D01*
X22580327Y24008482D01*
X22560135Y23996229D01*
X22522693Y23973509D01*
X22522688Y23973505D01*
X22517892Y23970595D01*
X22509516Y23963197D01*
X22509493Y23963223D01*
X22506503Y23960574D01*
X22503264Y23957866D01*
X22497148Y23953856D01*
X22492121Y23948549D01*
X22492117Y23948546D01*
X22443872Y23897617D01*
X22441494Y23895175D01*
X20569723Y22023404D01*
X20507411Y21989378D01*
X20480628Y21986499D01*
X16121500Y21986499D01*
X16053379Y22006501D01*
X16006886Y22060157D01*
X15995500Y22112499D01*
X15995500Y25568134D01*
X15988745Y25630316D01*
X15937615Y25766705D01*
X15850261Y25883261D01*
X15733705Y25970615D01*
X15597316Y26021745D01*
X15535134Y26028500D01*
X11938866Y26028500D01*
X11876684Y26021745D01*
X11740295Y25970615D01*
X11623739Y25883261D01*
X11536385Y25766705D01*
X11485255Y25630316D01*
X11478500Y25568134D01*
X11478500Y21971866D01*
X11485255Y21909684D01*
X11536385Y21773295D01*
X11623739Y21656739D01*
X11740295Y21569385D01*
X11876684Y21518255D01*
X11938866Y21511500D01*
X13986336Y21511500D01*
X14054457Y21491498D01*
X14100950Y21437842D01*
X14111054Y21367568D01*
X14095455Y21322500D01*
X14024473Y21199556D01*
X13965458Y21017928D01*
X13945496Y20828000D01*
X13946186Y20821435D01*
X13958992Y20699597D01*
X13965458Y20638072D01*
X14024473Y20456444D01*
X14119960Y20291056D01*
X14124378Y20286149D01*
X14124379Y20286148D01*
X14243325Y20154045D01*
X14247747Y20149134D01*
X14402248Y20036882D01*
X14408276Y20034198D01*
X14408278Y20034197D01*
X14570681Y19961891D01*
X14576712Y19959206D01*
X14670113Y19939353D01*
X14757056Y19920872D01*
X14757061Y19920872D01*
X14763513Y19919500D01*
X14954487Y19919500D01*
X14960939Y19920872D01*
X14960944Y19920872D01*
X15047887Y19939353D01*
X15141288Y19959206D01*
X15147319Y19961891D01*
X15309722Y20034197D01*
X15309724Y20034198D01*
X15315752Y20036882D01*
X15470253Y20149134D01*
X15474675Y20154045D01*
X15593621Y20286148D01*
X15593622Y20286149D01*
X15598040Y20291056D01*
X15664691Y20406499D01*
X15716073Y20455492D01*
X15773810Y20469499D01*
X16679628Y20469499D01*
X16747749Y20449497D01*
X16794242Y20395841D01*
X16804346Y20325567D01*
X16774852Y20260987D01*
X16768723Y20254404D01*
X15894089Y19379770D01*
X15879677Y19367384D01*
X15868082Y19358851D01*
X15868077Y19358846D01*
X15862182Y19354508D01*
X15857443Y19348930D01*
X15857440Y19348927D01*
X15827965Y19314232D01*
X15821035Y19306716D01*
X15815340Y19301021D01*
X15813060Y19298139D01*
X15797719Y19278749D01*
X15794928Y19275345D01*
X15752409Y19225297D01*
X15747667Y19219715D01*
X15744339Y19213199D01*
X15740972Y19208150D01*
X15737804Y19203020D01*
X15733266Y19197284D01*
X15730167Y19190653D01*
X15726322Y19184427D01*
X15724822Y19185354D01*
X15683964Y19139027D01*
X15615671Y19119622D01*
X15597328Y19121854D01*
X15597316Y19121745D01*
X15538531Y19128131D01*
X15535134Y19128500D01*
X14723620Y19128500D01*
X14672372Y19139393D01*
X14639324Y19154107D01*
X14639321Y19154108D01*
X14633288Y19156794D01*
X14581909Y19167715D01*
X14452944Y19195128D01*
X14452939Y19195128D01*
X14446487Y19196500D01*
X14255513Y19196500D01*
X14249061Y19195128D01*
X14249056Y19195128D01*
X14120091Y19167715D01*
X14068712Y19156794D01*
X14062679Y19154108D01*
X14062676Y19154107D01*
X14029628Y19139393D01*
X13978380Y19128500D01*
X11938866Y19128500D01*
X11876684Y19121745D01*
X11740295Y19070615D01*
X11623739Y18983261D01*
X11536385Y18866705D01*
X11485255Y18730316D01*
X11478500Y18668134D01*
X11478500Y15071866D01*
X9095500Y15071866D01*
X9095500Y18668134D01*
X9088745Y18730316D01*
X9037615Y18866705D01*
X8950261Y18983261D01*
X8833705Y19070615D01*
X8697316Y19121745D01*
X8635134Y19128500D01*
X5038866Y19128500D01*
X4976684Y19121745D01*
X4840295Y19070615D01*
X4723739Y18983261D01*
X4636385Y18866705D01*
X4585255Y18730316D01*
X4578500Y18668134D01*
X4578500Y15071866D01*
X889500Y15071866D01*
X889500Y21971866D01*
X4578500Y21971866D01*
X4585255Y21909684D01*
X4636385Y21773295D01*
X4723739Y21656739D01*
X4840295Y21569385D01*
X4976684Y21518255D01*
X5038866Y21511500D01*
X8635134Y21511500D01*
X8697316Y21518255D01*
X8833705Y21569385D01*
X8950261Y21656739D01*
X9037615Y21773295D01*
X9088745Y21909684D01*
X9095500Y21971866D01*
X9095500Y25568134D01*
X9088745Y25630316D01*
X9037615Y25766705D01*
X8950261Y25883261D01*
X8833705Y25970615D01*
X8697316Y26021745D01*
X8635134Y26028500D01*
X5038866Y26028500D01*
X4976684Y26021745D01*
X4840295Y25970615D01*
X4723739Y25883261D01*
X4636385Y25766705D01*
X4585255Y25630316D01*
X4578500Y25568134D01*
X4578500Y21971866D01*
X889500Y21971866D01*
X889500Y32213331D01*
X24003001Y32213331D01*
X24003371Y32206510D01*
X24008895Y32155648D01*
X24012521Y32140396D01*
X24057676Y32019946D01*
X24066214Y32004351D01*
X24142715Y31902276D01*
X24155276Y31889715D01*
X24257351Y31813214D01*
X24272946Y31804676D01*
X24393394Y31759522D01*
X24408649Y31755895D01*
X24459514Y31750369D01*
X24466328Y31750000D01*
X25000885Y31750000D01*
X25016124Y31754475D01*
X25017329Y31755865D01*
X25019000Y31763548D01*
X25019000Y31768116D01*
X25527000Y31768116D01*
X25531475Y31752877D01*
X25532865Y31751672D01*
X25540548Y31750001D01*
X26079669Y31750001D01*
X26086490Y31750371D01*
X26137352Y31755895D01*
X26152604Y31759521D01*
X26273054Y31804676D01*
X26288649Y31813214D01*
X26390724Y31889715D01*
X26403284Y31902275D01*
X26442173Y31954165D01*
X26499032Y31996681D01*
X26569851Y32001707D01*
X26632144Y31967647D01*
X26643827Y31954165D01*
X26682716Y31902275D01*
X26695276Y31889715D01*
X26797351Y31813214D01*
X26812946Y31804676D01*
X26933394Y31759522D01*
X26948649Y31755895D01*
X26999514Y31750369D01*
X27006328Y31750000D01*
X27540885Y31750000D01*
X27556124Y31754475D01*
X27557329Y31755865D01*
X27559000Y31763548D01*
X27559000Y31768116D01*
X28067000Y31768116D01*
X28071475Y31752877D01*
X28072865Y31751672D01*
X28080548Y31750001D01*
X28619669Y31750001D01*
X28626490Y31750371D01*
X28677352Y31755895D01*
X28692604Y31759521D01*
X28813054Y31804676D01*
X28828649Y31813214D01*
X28930724Y31889715D01*
X28943285Y31902276D01*
X29019786Y32004351D01*
X29028324Y32019946D01*
X29073478Y32140394D01*
X29077105Y32155649D01*
X29082631Y32206514D01*
X29083000Y32213328D01*
X29083000Y32747885D01*
X29078525Y32763124D01*
X29077135Y32764329D01*
X29069452Y32766000D01*
X28085115Y32766000D01*
X28069876Y32761525D01*
X28068671Y32760135D01*
X28067000Y32752452D01*
X28067000Y31768116D01*
X27559000Y31768116D01*
X27559000Y32747885D01*
X27554525Y32763124D01*
X27553135Y32764329D01*
X27545452Y32766000D01*
X25545115Y32766000D01*
X25529876Y32761525D01*
X25528671Y32760135D01*
X25527000Y32752452D01*
X25527000Y31768116D01*
X25019000Y31768116D01*
X25019000Y32747885D01*
X25014525Y32763124D01*
X25013135Y32764329D01*
X25005452Y32766000D01*
X24021116Y32766000D01*
X24005877Y32761525D01*
X24004672Y32760135D01*
X24003001Y32752452D01*
X24003001Y32213331D01*
X889500Y32213331D01*
X889500Y34749866D01*
X24002500Y34749866D01*
X24009255Y34687684D01*
X24060385Y34551295D01*
X24147739Y34434739D01*
X24206749Y34390513D01*
X24249264Y34333656D01*
X24254290Y34262837D01*
X24220230Y34200544D01*
X24206749Y34188862D01*
X24155276Y34150285D01*
X24142715Y34137724D01*
X24066214Y34035649D01*
X24057676Y34020054D01*
X24012522Y33899606D01*
X24008895Y33884351D01*
X24003369Y33833486D01*
X24003000Y33826672D01*
X24003000Y33292115D01*
X24007475Y33276876D01*
X24008865Y33275671D01*
X24016548Y33274000D01*
X29064884Y33274000D01*
X29080123Y33278475D01*
X29081328Y33279865D01*
X29082999Y33287548D01*
X29082999Y33826669D01*
X29082629Y33833490D01*
X29077105Y33884352D01*
X29073479Y33899604D01*
X29028324Y34020054D01*
X29019786Y34035649D01*
X28943285Y34137724D01*
X28930724Y34150285D01*
X28879251Y34188862D01*
X28836736Y34245721D01*
X28831710Y34316540D01*
X28865770Y34378833D01*
X28879245Y34390509D01*
X28938261Y34434739D01*
X29025615Y34551295D01*
X29076745Y34687684D01*
X29083500Y34749866D01*
X29083500Y36370134D01*
X29076745Y36432316D01*
X29025615Y36568705D01*
X28938261Y36685261D01*
X28879251Y36729487D01*
X28836736Y36786344D01*
X28831710Y36857163D01*
X28865770Y36919456D01*
X28879251Y36931138D01*
X28930724Y36969715D01*
X28943285Y36982276D01*
X29019786Y37084351D01*
X29028324Y37099946D01*
X29073478Y37220394D01*
X29077105Y37235649D01*
X29082631Y37286514D01*
X29083000Y37293328D01*
X29083000Y37827885D01*
X29078525Y37843124D01*
X29077135Y37844329D01*
X29069452Y37846000D01*
X24021116Y37846000D01*
X24005877Y37841525D01*
X24004672Y37840135D01*
X24003001Y37832452D01*
X24003001Y37293331D01*
X24003371Y37286510D01*
X24008895Y37235648D01*
X24012521Y37220396D01*
X24057676Y37099946D01*
X24066214Y37084351D01*
X24142715Y36982276D01*
X24155276Y36969715D01*
X24206749Y36931138D01*
X24249264Y36874279D01*
X24254290Y36803460D01*
X24220230Y36741167D01*
X24206755Y36729491D01*
X24147739Y36685261D01*
X24060385Y36568705D01*
X24009255Y36432316D01*
X24002500Y36370134D01*
X24002500Y34749866D01*
X889500Y34749866D01*
X889500Y38372115D01*
X24003000Y38372115D01*
X24007475Y38356876D01*
X24008865Y38355671D01*
X24016548Y38354000D01*
X25000885Y38354000D01*
X25016124Y38358475D01*
X25017329Y38359865D01*
X25019000Y38367548D01*
X25019000Y38372115D01*
X25527000Y38372115D01*
X25531475Y38356876D01*
X25532865Y38355671D01*
X25540548Y38354000D01*
X27540885Y38354000D01*
X27556124Y38358475D01*
X27557329Y38359865D01*
X27559000Y38367548D01*
X27559000Y38372115D01*
X28067000Y38372115D01*
X28071475Y38356876D01*
X28072865Y38355671D01*
X28080548Y38354000D01*
X29064884Y38354000D01*
X29080123Y38358475D01*
X29081328Y38359865D01*
X29082999Y38367548D01*
X29082999Y38906669D01*
X29082629Y38913490D01*
X29077105Y38964352D01*
X29073479Y38979604D01*
X29028324Y39100054D01*
X29019786Y39115649D01*
X28943285Y39217724D01*
X28930724Y39230285D01*
X28828649Y39306786D01*
X28813054Y39315324D01*
X28692606Y39360478D01*
X28677351Y39364105D01*
X28626486Y39369631D01*
X28619672Y39370000D01*
X28085115Y39370000D01*
X28069876Y39365525D01*
X28068671Y39364135D01*
X28067000Y39356452D01*
X28067000Y38372115D01*
X27559000Y38372115D01*
X27559000Y39351884D01*
X27554525Y39367123D01*
X27553135Y39368328D01*
X27545452Y39369999D01*
X27006331Y39369999D01*
X26999510Y39369629D01*
X26948648Y39364105D01*
X26933396Y39360479D01*
X26812946Y39315324D01*
X26797351Y39306786D01*
X26695276Y39230285D01*
X26682716Y39217725D01*
X26643827Y39165835D01*
X26586968Y39123319D01*
X26516149Y39118293D01*
X26453856Y39152353D01*
X26442173Y39165835D01*
X26403284Y39217725D01*
X26390724Y39230285D01*
X26288649Y39306786D01*
X26273054Y39315324D01*
X26152606Y39360478D01*
X26137351Y39364105D01*
X26086486Y39369631D01*
X26079672Y39370000D01*
X25545115Y39370000D01*
X25529876Y39365525D01*
X25528671Y39364135D01*
X25527000Y39356452D01*
X25527000Y38372115D01*
X25019000Y38372115D01*
X25019000Y39351884D01*
X25014525Y39367123D01*
X25013135Y39368328D01*
X25005452Y39369999D01*
X24466331Y39369999D01*
X24459510Y39369629D01*
X24408648Y39364105D01*
X24393396Y39360479D01*
X24272946Y39315324D01*
X24257351Y39306786D01*
X24155276Y39230285D01*
X24142715Y39217724D01*
X24066214Y39115649D01*
X24057676Y39100054D01*
X24012522Y38979606D01*
X24008895Y38964351D01*
X24003369Y38913486D01*
X24003000Y38906672D01*
X24003000Y38372115D01*
X889500Y38372115D01*
X889500Y39751500D01*
X909502Y39819621D01*
X963158Y39866114D01*
X1015500Y39877500D01*
X29718500Y39877500D01*
X29786621Y39857498D01*
G37*
%TD.AperFunction*%
%TD*%
M02*
