%TF.GenerationSoftware,KiCad,Pcbnew,7.0.5.1-1-g8f565ef7f0-dirty-deb11*%
%TF.CreationDate,2023-07-10T01:40:10+00:00*%
%TF.ProjectId,SIPM02,5349504d-3032-42e6-9b69-6361645f7063,rev?*%
%TF.SameCoordinates,Original*%
%TF.FileFunction,Legend,Bot*%
%TF.FilePolarity,Positive*%
%FSLAX46Y46*%
G04 Gerber Fmt 4.6, Leading zero omitted, Abs format (unit mm)*
G04 Created by KiCad (PCBNEW 7.0.5.1-1-g8f565ef7f0-dirty-deb11) date 2023-07-10 01:40:10*
%MOMM*%
%LPD*%
G01*
G04 APERTURE LIST*
%ADD10C,0.150000*%
%ADD11C,0.304800*%
%ADD12C,0.120000*%
G04 APERTURE END LIST*
D10*
%TO.C,D1*%
X19417819Y5310094D02*
X18417819Y5310094D01*
X18417819Y5310094D02*
X18417819Y5071999D01*
X18417819Y5071999D02*
X18465438Y4929142D01*
X18465438Y4929142D02*
X18560676Y4833904D01*
X18560676Y4833904D02*
X18655914Y4786285D01*
X18655914Y4786285D02*
X18846390Y4738666D01*
X18846390Y4738666D02*
X18989247Y4738666D01*
X18989247Y4738666D02*
X19179723Y4786285D01*
X19179723Y4786285D02*
X19274961Y4833904D01*
X19274961Y4833904D02*
X19370200Y4929142D01*
X19370200Y4929142D02*
X19417819Y5071999D01*
X19417819Y5071999D02*
X19417819Y5310094D01*
X19417819Y3786285D02*
X19417819Y4357713D01*
X19417819Y4071999D02*
X18417819Y4071999D01*
X18417819Y4071999D02*
X18560676Y4167237D01*
X18560676Y4167237D02*
X18655914Y4262475D01*
X18655914Y4262475D02*
X18703533Y4357713D01*
X19250819Y7500904D02*
X18250819Y7500904D01*
X19250819Y6929476D02*
X18679390Y7358047D01*
X18250819Y6929476D02*
X18822247Y7500904D01*
D11*
%TO.C,C3*%
X25563038Y11048999D02*
X25635610Y11121571D01*
X25635610Y11121571D02*
X25708181Y11339285D01*
X25708181Y11339285D02*
X25708181Y11484428D01*
X25708181Y11484428D02*
X25635610Y11702142D01*
X25635610Y11702142D02*
X25490467Y11847285D01*
X25490467Y11847285D02*
X25345324Y11919856D01*
X25345324Y11919856D02*
X25055038Y11992428D01*
X25055038Y11992428D02*
X24837324Y11992428D01*
X24837324Y11992428D02*
X24547038Y11919856D01*
X24547038Y11919856D02*
X24401895Y11847285D01*
X24401895Y11847285D02*
X24256752Y11702142D01*
X24256752Y11702142D02*
X24184181Y11484428D01*
X24184181Y11484428D02*
X24184181Y11339285D01*
X24184181Y11339285D02*
X24256752Y11121571D01*
X24256752Y11121571D02*
X24329324Y11048999D01*
X24184181Y10540999D02*
X24184181Y9597571D01*
X24184181Y9597571D02*
X24764752Y10105571D01*
X24764752Y10105571D02*
X24764752Y9887856D01*
X24764752Y9887856D02*
X24837324Y9742714D01*
X24837324Y9742714D02*
X24909895Y9670142D01*
X24909895Y9670142D02*
X25055038Y9597571D01*
X25055038Y9597571D02*
X25417895Y9597571D01*
X25417895Y9597571D02*
X25563038Y9670142D01*
X25563038Y9670142D02*
X25635610Y9742714D01*
X25635610Y9742714D02*
X25708181Y9887856D01*
X25708181Y9887856D02*
X25708181Y10323285D01*
X25708181Y10323285D02*
X25635610Y10468428D01*
X25635610Y10468428D02*
X25563038Y10540999D01*
X20600850Y8009230D02*
X19439708Y8009230D01*
X20020279Y7428658D02*
X20020279Y8589801D01*
%TO.C,C1*%
X19557999Y32348961D02*
X19630571Y32276390D01*
X19630571Y32276390D02*
X19848285Y32203818D01*
X19848285Y32203818D02*
X19993428Y32203818D01*
X19993428Y32203818D02*
X20211142Y32276390D01*
X20211142Y32276390D02*
X20356285Y32421532D01*
X20356285Y32421532D02*
X20428856Y32566675D01*
X20428856Y32566675D02*
X20501428Y32856961D01*
X20501428Y32856961D02*
X20501428Y33074675D01*
X20501428Y33074675D02*
X20428856Y33364961D01*
X20428856Y33364961D02*
X20356285Y33510104D01*
X20356285Y33510104D02*
X20211142Y33655247D01*
X20211142Y33655247D02*
X19993428Y33727818D01*
X19993428Y33727818D02*
X19848285Y33727818D01*
X19848285Y33727818D02*
X19630571Y33655247D01*
X19630571Y33655247D02*
X19557999Y33582675D01*
X18106571Y32203818D02*
X18977428Y32203818D01*
X18541999Y32203818D02*
X18541999Y33727818D01*
X18541999Y33727818D02*
X18687142Y33510104D01*
X18687142Y33510104D02*
X18832285Y33364961D01*
X18832285Y33364961D02*
X18977428Y33292390D01*
X26011050Y32428790D02*
X24849908Y32428790D01*
X25430479Y31848218D02*
X25430479Y33009361D01*
D10*
%TO.C,C2*%
X18073666Y23516419D02*
X18121285Y23468800D01*
X18121285Y23468800D02*
X18264142Y23421180D01*
X18264142Y23421180D02*
X18359380Y23421180D01*
X18359380Y23421180D02*
X18502237Y23468800D01*
X18502237Y23468800D02*
X18597475Y23564038D01*
X18597475Y23564038D02*
X18645094Y23659276D01*
X18645094Y23659276D02*
X18692713Y23849752D01*
X18692713Y23849752D02*
X18692713Y23992609D01*
X18692713Y23992609D02*
X18645094Y24183085D01*
X18645094Y24183085D02*
X18597475Y24278323D01*
X18597475Y24278323D02*
X18502237Y24373561D01*
X18502237Y24373561D02*
X18359380Y24421180D01*
X18359380Y24421180D02*
X18264142Y24421180D01*
X18264142Y24421180D02*
X18121285Y24373561D01*
X18121285Y24373561D02*
X18073666Y24325942D01*
X17692713Y24325942D02*
X17645094Y24373561D01*
X17645094Y24373561D02*
X17549856Y24421180D01*
X17549856Y24421180D02*
X17311761Y24421180D01*
X17311761Y24421180D02*
X17216523Y24373561D01*
X17216523Y24373561D02*
X17168904Y24325942D01*
X17168904Y24325942D02*
X17121285Y24230704D01*
X17121285Y24230704D02*
X17121285Y24135466D01*
X17121285Y24135466D02*
X17168904Y23992609D01*
X17168904Y23992609D02*
X17740332Y23421180D01*
X17740332Y23421180D02*
X17121285Y23421180D01*
%TO.C,U2*%
X16636904Y21373180D02*
X16636904Y20563657D01*
X16636904Y20563657D02*
X16589285Y20468419D01*
X16589285Y20468419D02*
X16541666Y20420800D01*
X16541666Y20420800D02*
X16446428Y20373180D01*
X16446428Y20373180D02*
X16255952Y20373180D01*
X16255952Y20373180D02*
X16160714Y20420800D01*
X16160714Y20420800D02*
X16113095Y20468419D01*
X16113095Y20468419D02*
X16065476Y20563657D01*
X16065476Y20563657D02*
X16065476Y21373180D01*
X15636904Y21277942D02*
X15589285Y21325561D01*
X15589285Y21325561D02*
X15494047Y21373180D01*
X15494047Y21373180D02*
X15255952Y21373180D01*
X15255952Y21373180D02*
X15160714Y21325561D01*
X15160714Y21325561D02*
X15113095Y21277942D01*
X15113095Y21277942D02*
X15065476Y21182704D01*
X15065476Y21182704D02*
X15065476Y21087466D01*
X15065476Y21087466D02*
X15113095Y20944609D01*
X15113095Y20944609D02*
X15684523Y20373180D01*
X15684523Y20373180D02*
X15065476Y20373180D01*
%TO.C,C5*%
X15938500Y29718000D02*
X15938500Y31242000D01*
D12*
X14033500Y31242000D02*
X14795500Y31242000D01*
D10*
X12890500Y31242000D02*
X12890500Y29718000D01*
D12*
X14033500Y29718000D02*
X14795500Y29718000D01*
%TO.C,R10*%
X18478500Y22098000D02*
X19240500Y22098000D01*
D10*
X20383500Y20574000D02*
X20383500Y22098000D01*
D12*
X18478500Y20574000D02*
X19240500Y20574000D01*
D10*
X17335500Y22098000D02*
X17335500Y20574000D01*
%TO.C,R3*%
X19685000Y12128500D02*
X18161000Y12128500D01*
D12*
X19685000Y10985500D02*
X19685000Y10223500D01*
D10*
X18161000Y9080500D02*
X19685000Y9080500D01*
D12*
X18161000Y10985500D02*
X18161000Y10223500D01*
%TO.C,C4*%
X16319500Y10858500D02*
X15557500Y10858500D01*
D10*
X14414500Y10858500D02*
X14414500Y9334500D01*
X17462500Y9334500D02*
X17462500Y10858500D01*
D12*
X16319500Y9334500D02*
X15557500Y9334500D01*
%TO.C,D1*%
X19813000Y7972000D02*
X23113000Y7972000D01*
X19813000Y7972000D02*
X19813000Y2572000D01*
X23113000Y7972000D02*
X23113000Y2572000D01*
%TO.C,C7*%
X19621500Y12446000D02*
X20383500Y12446000D01*
D10*
X18478500Y13970000D02*
X18478500Y12446000D01*
X21526500Y12446000D02*
X21526500Y13970000D01*
D12*
X19621500Y13970000D02*
X20383500Y13970000D01*
D10*
%TO.C,C3*%
X20718780Y8968740D02*
X20718780Y12367260D01*
X27995880Y8966200D02*
X21996400Y8966200D01*
X20701000Y8966200D02*
X20701000Y12364720D01*
X28018740Y12367260D02*
X22019260Y12367260D01*
X19418300Y8115300D02*
X20617180Y8115300D01*
X20017740Y7614920D02*
X20017740Y8714740D01*
D12*
%TO.C,C8*%
X19621500Y14478000D02*
X20383500Y14478000D01*
D10*
X21526500Y14478000D02*
X21526500Y16002000D01*
X18478500Y16002000D02*
X18478500Y14478000D01*
D12*
X19621500Y16002000D02*
X20383500Y16002000D01*
D10*
%TO.C,R2*%
X12827000Y28194000D02*
X12827000Y26670000D01*
D12*
X13970000Y28194000D02*
X14732000Y28194000D01*
D10*
X15875000Y26670000D02*
X15875000Y28194000D01*
D12*
X13970000Y26670000D02*
X14732000Y26670000D01*
%TO.C,C6*%
X10096500Y26670000D02*
X9334500Y26670000D01*
D10*
X8191500Y28194000D02*
X8191500Y26670000D01*
X11239500Y26670000D02*
X11239500Y28194000D01*
D12*
X10096500Y28194000D02*
X9334500Y28194000D01*
D10*
%TO.C,C1*%
X17432020Y28287980D02*
X23431500Y28287980D01*
X24749760Y31689040D02*
X24749760Y28290520D01*
X24731980Y31686500D02*
X24731980Y28287980D01*
X17454880Y31689040D02*
X23454360Y31689040D01*
X25433020Y33040320D02*
X25433020Y31940500D01*
X26032460Y32539940D02*
X24833580Y32539940D01*
D12*
%TO.C,C2*%
X21558252Y24998000D02*
X19335748Y24998000D01*
X21558252Y26818000D02*
X19335748Y26818000D01*
%TO.C,C9*%
X11112500Y25654000D02*
X10350500Y25654000D01*
D10*
X12255500Y24130000D02*
X12255500Y25654000D01*
X9207500Y25654000D02*
X9207500Y24130000D01*
D12*
X11112500Y24130000D02*
X10350500Y24130000D01*
D10*
%TO.C,C10*%
X8318500Y16002000D02*
X8318500Y14478000D01*
X11366500Y14478000D02*
X11366500Y16002000D01*
D12*
X10223500Y16002000D02*
X9461500Y16002000D01*
X10223500Y14478000D02*
X9461500Y14478000D01*
%TO.C,R1*%
X21209000Y34226500D02*
X21209000Y34988500D01*
D10*
X22733000Y36131500D02*
X21209000Y36131500D01*
X21209000Y33083500D02*
X22733000Y33083500D01*
D12*
X22733000Y34226500D02*
X22733000Y34988500D01*
D10*
%TO.C,R4*%
X8826500Y31242000D02*
X8826500Y29718000D01*
X11874500Y29718000D02*
X11874500Y31242000D01*
D12*
X9969500Y31242000D02*
X10731500Y31242000D01*
X9969500Y29718000D02*
X10731500Y29718000D01*
%TO.C,R5*%
X7493000Y13398500D02*
X7493000Y14160500D01*
D10*
X5969000Y12255500D02*
X7493000Y12255500D01*
D12*
X5969000Y13398500D02*
X5969000Y14160500D01*
D10*
X7493000Y15303500D02*
X5969000Y15303500D01*
%TO.C,R6*%
X14097000Y21399500D02*
X12573000Y21399500D01*
D12*
X14097000Y19494500D02*
X14097000Y20256500D01*
X12573000Y19494500D02*
X12573000Y20256500D01*
D10*
X12573000Y18351500D02*
X14097000Y18351500D01*
%TO.C,R7*%
X14097000Y12763500D02*
X15621000Y12763500D01*
D12*
X15621000Y13906500D02*
X15621000Y14668500D01*
D10*
X15621000Y15811500D02*
X14097000Y15811500D01*
D12*
X14097000Y13906500D02*
X14097000Y14668500D01*
%TO.C,R8*%
X13589000Y14668500D02*
X13589000Y13906500D01*
D10*
X12065000Y12763500D02*
X13589000Y12763500D01*
X13589000Y15811500D02*
X12065000Y15811500D01*
D12*
X12065000Y14668500D02*
X12065000Y13906500D01*
%TO.C,R9*%
X21209000Y21907500D02*
X21209000Y22669500D01*
D10*
X21209000Y20764500D02*
X22733000Y20764500D01*
X22733000Y23812500D02*
X21209000Y23812500D01*
D12*
X22733000Y21907500D02*
X22733000Y22669500D01*
%TO.C,R11*%
X21780500Y17526000D02*
X21018500Y17526000D01*
D10*
X22923500Y17526000D02*
X22923500Y19050000D01*
X19875500Y19050000D02*
X19875500Y17526000D01*
D12*
X21780500Y19050000D02*
X21018500Y19050000D01*
D10*
%TO.C,R12*%
X17653000Y15811500D02*
X16129000Y15811500D01*
X16129000Y12763500D02*
X17653000Y12763500D01*
D12*
X17653000Y13906500D02*
X17653000Y14668500D01*
X16129000Y13906500D02*
X16129000Y14668500D01*
%TO.C,U2*%
X16583000Y19898000D02*
X18383000Y19898000D01*
X18383000Y16678000D02*
X15933000Y16678000D01*
%TD*%
M02*
