%TF.GenerationSoftware,KiCad,Pcbnew,7.0.5.1-1-g8f565ef7f0-dirty-deb11*%
%TF.CreationDate,2023-07-05T13:10:57+00:00*%
%TF.ProjectId,SIPM02,5349504d-3032-42e6-9b69-6361645f7063,rev?*%
%TF.SameCoordinates,Original*%
%TF.FileFunction,Copper,L1,Top*%
%TF.FilePolarity,Positive*%
%FSLAX46Y46*%
G04 Gerber Fmt 4.6, Leading zero omitted, Abs format (unit mm)*
G04 Created by KiCad (PCBNEW 7.0.5.1-1-g8f565ef7f0-dirty-deb11) date 2023-07-05 13:10:57*
%MOMM*%
%LPD*%
G01*
G04 APERTURE LIST*
G04 Aperture macros list*
%AMOutline4P*
0 Free polygon, 4 corners , with rotation*
0 The origin of the aperture is its center*
0 number of corners: always 4*
0 $1 to $8 corner X, Y*
0 $9 Rotation angle, in degrees counterclockwise*
0 create outline with 4 corners*
4,1,4,$1,$2,$3,$4,$5,$6,$7,$8,$1,$2,$9*%
G04 Aperture macros list end*
%TA.AperFunction,ComponentPad*%
%ADD10C,6.000000*%
%TD*%
%TA.AperFunction,ComponentPad*%
%ADD11R,1.524000X1.524000*%
%TD*%
%TA.AperFunction,SMDPad,CuDef*%
%ADD12Outline4P,-1.750000X-1.750000X1.750000X-1.750000X1.750000X1.750000X-1.750000X1.750000X0.000000*%
%TD*%
%TA.AperFunction,SMDPad,CuDef*%
%ADD13Outline4P,-1.750000X-1.750000X1.750000X-1.750000X1.750000X1.750000X-1.750000X1.750000X90.000000*%
%TD*%
%TA.AperFunction,SMDPad,CuDef*%
%ADD14Outline4P,-1.750000X-1.750000X1.750000X-1.750000X1.750000X1.750000X-1.750000X1.750000X180.000000*%
%TD*%
%TA.AperFunction,SMDPad,CuDef*%
%ADD15Outline4P,-1.750000X-1.750000X1.750000X-1.750000X1.750000X1.750000X-1.750000X1.750000X270.000000*%
%TD*%
%TA.AperFunction,ViaPad*%
%ADD16C,0.800000*%
%TD*%
%TA.AperFunction,Conductor*%
%ADD17C,0.500000*%
%TD*%
%TA.AperFunction,Conductor*%
%ADD18C,0.400000*%
%TD*%
G04 APERTURE END LIST*
D10*
%TO.P,M2,1*%
%TO.N,GND*%
X5207000Y5080000D03*
%TD*%
%TO.P,M3,1*%
%TO.N,GND*%
X5207000Y35560000D03*
%TD*%
D11*
%TO.P,J10,1*%
%TO.N,/#PD*%
X25273000Y20828000D03*
%TO.P,J10,2*%
X27813000Y20828000D03*
%TD*%
%TO.P,J8,1*%
%TO.N,/OUT*%
X25273000Y18288000D03*
%TO.P,J8,2*%
X27813000Y18288000D03*
%TD*%
%TO.P,J4,1*%
%TO.N,GND*%
X25273000Y2540000D03*
%TO.P,J4,2*%
X27813000Y2540000D03*
%TD*%
%TO.P,J9,1*%
%TO.N,GND*%
X25273000Y15748000D03*
%TO.P,J9,2*%
X27813000Y15748000D03*
%TD*%
D12*
%TO.P,U1,1,A*%
%TO.N,Net-(C10-Pad2)*%
X6837000Y16870000D03*
D13*
%TO.P,U1,2,FO*%
%TO.N,Net-(R6-Pad1)*%
X13737000Y16870000D03*
D14*
%TO.P,U1,3,K*%
%TO.N,Net-(C6-Pad1)*%
X13737000Y23770000D03*
D15*
%TO.P,U1,4,NC*%
%TO.N,unconnected-(U1-Pad4)*%
X6837000Y23770000D03*
%TD*%
D11*
%TO.P,J1,1*%
%TO.N,GND*%
X25273000Y33020000D03*
%TO.P,J1,2*%
X27813000Y33020000D03*
%TD*%
%TO.P,J2,1*%
%TO.N,+28V*%
X25273000Y35560000D03*
%TO.P,J2,2*%
X27813000Y35560000D03*
%TD*%
%TO.P,J3,1*%
%TO.N,GND*%
X25273000Y38100000D03*
%TO.P,J3,2*%
X27813000Y38100000D03*
%TD*%
%TO.P,J5,1*%
%TO.N,/+3V6*%
X27813000Y5080000D03*
%TO.P,J5,2*%
X25273000Y5080000D03*
%TD*%
%TO.P,J6,1*%
%TO.N,GND*%
X27813000Y7620000D03*
%TO.P,J6,2*%
X25273000Y7620000D03*
%TD*%
%TO.P,J7,1*%
%TO.N,/DIRECT_OUT*%
X25273000Y23368000D03*
%TO.P,J7,2*%
X27813000Y23368000D03*
%TD*%
D10*
%TO.P,M1,1*%
%TO.N,GND*%
X15367000Y5080000D03*
%TD*%
%TO.P,M4,1*%
%TO.N,GND*%
X15367000Y35560000D03*
%TD*%
D16*
%TO.N,GND*%
X6096000Y26670000D03*
X7239000Y28448000D03*
X12827000Y11684000D03*
X16256000Y24384000D03*
X9271000Y33020000D03*
X10287000Y10160000D03*
X12065000Y27940000D03*
X10795000Y33020000D03*
X8763000Y13208000D03*
X20955000Y38100000D03*
X28067000Y25908000D03*
X22987000Y16256000D03*
X18415000Y23368000D03*
X7239000Y30988000D03*
X14351000Y26162000D03*
X10287000Y13208000D03*
X26035000Y13208000D03*
X11430000Y28956000D03*
X27559000Y13208000D03*
X16383000Y23368000D03*
X17399000Y16284502D03*
X26035000Y25908000D03*
X22987000Y13208000D03*
X7239000Y29464000D03*
X22987000Y14732000D03*
X20447000Y19812000D03*
X28067000Y27432000D03*
X24511000Y13208000D03*
X16383000Y22352000D03*
X7239000Y10160000D03*
X5715000Y10160000D03*
X6096000Y27813000D03*
X8763000Y10160000D03*
X22987000Y38100000D03*
X12446000Y28956000D03*
X26035000Y27432000D03*
X11811000Y10160000D03*
X13335000Y10160000D03*
X7239000Y27432000D03*
X28067000Y29464000D03*
X28067000Y30988000D03*
X26035000Y30988000D03*
X19431000Y36068000D03*
X7239000Y26543000D03*
X19431000Y34544000D03*
X19431000Y32512000D03*
X26035000Y29464000D03*
X19939000Y23368000D03*
X19431000Y38100000D03*
%TO.N,Net-(C6-Pad1)*%
X12827000Y24892000D03*
%TO.N,/DIRECT_OUT*%
X14859000Y20828000D03*
%TO.N,Net-(C10-Pad2)*%
X7747000Y15748000D03*
%TO.N,/OUT*%
X17907000Y14224000D03*
%TO.N,Net-(R6-Pad1)*%
X14351000Y18288000D03*
%TO.N,Net-(R10-Pad1)*%
X17907000Y20320000D03*
X16383000Y16256000D03*
%TD*%
D17*
%TO.N,GND*%
X7239000Y27432000D02*
X7239000Y26543000D01*
X19939000Y23368000D02*
X18415000Y23368000D01*
X10287000Y10160000D02*
X8763000Y10160000D01*
X19431000Y36068000D02*
X19431000Y38100000D01*
X7239000Y29464000D02*
X7239000Y30988000D01*
X19431000Y32512000D02*
X19431000Y34544000D01*
X7239000Y10160000D02*
X5715000Y10160000D01*
X22987000Y13208000D02*
X22987000Y14732000D01*
X13335000Y10160000D02*
X11811000Y10160000D01*
X27559000Y13208000D02*
X26035000Y13208000D01*
D18*
%TO.N,Net-(C6-Pad1)*%
X13137000Y24582000D02*
X12827000Y24892000D01*
X13137000Y23320000D02*
X13137000Y24582000D01*
D17*
%TO.N,/DIRECT_OUT*%
X22987000Y23368000D02*
X25273000Y23368000D01*
X14859000Y20828000D02*
X15258999Y21227999D01*
X20846999Y21227999D02*
X22987000Y23368000D01*
X15258999Y21227999D02*
X20846999Y21227999D01*
%TO.N,Net-(C10-Pad2)*%
X7437000Y16058000D02*
X7747000Y15748000D01*
X7437000Y17320000D02*
X7437000Y16058000D01*
%TO.N,/OUT*%
X17907000Y14224000D02*
X21971000Y18288000D01*
X25273000Y18288000D02*
X27813000Y18288000D01*
X21971000Y18288000D02*
X25273000Y18288000D01*
%TO.N,Net-(R6-Pad1)*%
X13533000Y17470000D02*
X14351000Y18288000D01*
X13287000Y17470000D02*
X13533000Y17470000D01*
%TO.N,Net-(R10-Pad1)*%
X16383000Y16256000D02*
X16383000Y18796000D01*
X16383000Y18796000D02*
X17907000Y20320000D01*
%TD*%
%TA.AperFunction,Conductor*%
%TO.N,GND*%
G36*
X27394553Y2704228D02*
G01*
X27364736Y2573593D01*
X27374749Y2439972D01*
X27423703Y2315240D01*
X27447021Y2286000D01*
X25639618Y2286000D01*
X25691447Y2375772D01*
X25721264Y2506407D01*
X25711251Y2640028D01*
X25662297Y2764760D01*
X25638979Y2794000D01*
X27446382Y2794000D01*
X27394553Y2704228D01*
G37*
%TD.AperFunction*%
%TA.AperFunction,Conductor*%
G36*
X27394553Y7784228D02*
G01*
X27364736Y7653593D01*
X27374749Y7519972D01*
X27423703Y7395240D01*
X27447021Y7366000D01*
X25639618Y7366000D01*
X25691447Y7455772D01*
X25721264Y7586407D01*
X25711251Y7720028D01*
X25662297Y7844760D01*
X25638979Y7874000D01*
X27446382Y7874000D01*
X27394553Y7784228D01*
G37*
%TD.AperFunction*%
%TA.AperFunction,Conductor*%
G36*
X27394553Y15912228D02*
G01*
X27364736Y15781593D01*
X27374749Y15647972D01*
X27423703Y15523240D01*
X27447021Y15494000D01*
X25639618Y15494000D01*
X25691447Y15583772D01*
X25721264Y15714407D01*
X25711251Y15848028D01*
X25662297Y15972760D01*
X25638979Y16002000D01*
X27446382Y16002000D01*
X27394553Y15912228D01*
G37*
%TD.AperFunction*%
%TA.AperFunction,Conductor*%
G36*
X27394553Y33184228D02*
G01*
X27364736Y33053593D01*
X27374749Y32919972D01*
X27423703Y32795240D01*
X27447021Y32766000D01*
X25639618Y32766000D01*
X25691447Y32855772D01*
X25721264Y32986407D01*
X25711251Y33120028D01*
X25662297Y33244760D01*
X25638979Y33274000D01*
X27446382Y33274000D01*
X27394553Y33184228D01*
G37*
%TD.AperFunction*%
%TA.AperFunction,Conductor*%
G36*
X27394553Y38264228D02*
G01*
X27364736Y38133593D01*
X27374749Y37999972D01*
X27423703Y37875240D01*
X27447021Y37846000D01*
X25639618Y37846000D01*
X25691447Y37935772D01*
X25721264Y38066407D01*
X25711251Y38200028D01*
X25662297Y38324760D01*
X25638979Y38354000D01*
X27446382Y38354000D01*
X27394553Y38264228D01*
G37*
%TD.AperFunction*%
%TA.AperFunction,Conductor*%
G36*
X29794621Y39865498D02*
G01*
X29841114Y39811842D01*
X29852500Y39759500D01*
X29852500Y880500D01*
X29832498Y812379D01*
X29778842Y765886D01*
X29726500Y754500D01*
X1007500Y754500D01*
X939379Y774502D01*
X892886Y828158D01*
X881500Y880500D01*
X881500Y4269350D01*
X24002500Y4269350D01*
X24009009Y4208803D01*
X24009011Y4208795D01*
X24060110Y4071797D01*
X24060112Y4071792D01*
X24147738Y3954739D01*
X24206761Y3910554D01*
X24249306Y3853717D01*
X24254370Y3782902D01*
X24220344Y3720590D01*
X24206759Y3708819D01*
X24148095Y3664904D01*
X24060555Y3547965D01*
X24060555Y3547964D01*
X24009505Y3411093D01*
X24003000Y3350597D01*
X24003000Y2794000D01*
X24906382Y2794000D01*
X24854553Y2704228D01*
X24824736Y2573593D01*
X24834749Y2439972D01*
X24883703Y2315240D01*
X24907021Y2286000D01*
X24003000Y2286000D01*
X24003000Y1729402D01*
X24009505Y1668906D01*
X24060555Y1532035D01*
X24060555Y1532034D01*
X24148095Y1415095D01*
X24265034Y1327555D01*
X24401906Y1276505D01*
X24462402Y1270000D01*
X25019000Y1270000D01*
X25019000Y2175194D01*
X25077960Y2134996D01*
X25206002Y2095500D01*
X25306312Y2095500D01*
X25405499Y2110450D01*
X25526224Y2168588D01*
X25527000Y2169308D01*
X25527000Y1270000D01*
X26083597Y1270000D01*
X26144093Y1276505D01*
X26280964Y1327555D01*
X26280965Y1327555D01*
X26397902Y1415094D01*
X26442132Y1474177D01*
X26498969Y1516723D01*
X26569784Y1521787D01*
X26632096Y1487762D01*
X26643868Y1474177D01*
X26688097Y1415094D01*
X26805034Y1327555D01*
X26941906Y1276505D01*
X27002402Y1270000D01*
X27559000Y1270000D01*
X27559000Y2175194D01*
X27617960Y2134996D01*
X27746002Y2095500D01*
X27846312Y2095500D01*
X27945499Y2110450D01*
X28066224Y2168588D01*
X28067000Y2169308D01*
X28067000Y1270000D01*
X28623597Y1270000D01*
X28684093Y1276505D01*
X28820964Y1327555D01*
X28820965Y1327555D01*
X28937904Y1415095D01*
X29025444Y1532034D01*
X29025444Y1532035D01*
X29076494Y1668906D01*
X29082999Y1729402D01*
X29083000Y1729414D01*
X29083000Y2286000D01*
X28179618Y2286000D01*
X28231447Y2375772D01*
X28261264Y2506407D01*
X28251251Y2640028D01*
X28202297Y2764760D01*
X28178979Y2794000D01*
X29083000Y2794000D01*
X29083000Y3350585D01*
X29082999Y3350597D01*
X29076494Y3411093D01*
X29025444Y3547964D01*
X29025444Y3547965D01*
X28937904Y3664903D01*
X28879241Y3708818D01*
X28836694Y3765654D01*
X28831628Y3836469D01*
X28865653Y3898782D01*
X28879239Y3910554D01*
X28938260Y3954738D01*
X28938262Y3954740D01*
X28982132Y4013343D01*
X29025887Y4071792D01*
X29025889Y4071797D01*
X29076988Y4208795D01*
X29076990Y4208803D01*
X29083499Y4269350D01*
X29083500Y4269367D01*
X29083500Y5890632D01*
X29083499Y5890649D01*
X29076990Y5951196D01*
X29076988Y5951204D01*
X29069960Y5970045D01*
X29025889Y6088204D01*
X28938261Y6205261D01*
X28879240Y6249444D01*
X28836693Y6306280D01*
X28831629Y6377095D01*
X28865654Y6439408D01*
X28879240Y6451180D01*
X28937904Y6495095D01*
X29025444Y6612034D01*
X29025444Y6612035D01*
X29076494Y6748906D01*
X29082999Y6809402D01*
X29083000Y6809414D01*
X29083000Y7366000D01*
X28179618Y7366000D01*
X28231447Y7455772D01*
X28261264Y7586407D01*
X28251251Y7720028D01*
X28202297Y7844760D01*
X28178979Y7874000D01*
X29083000Y7874000D01*
X29083000Y8430585D01*
X29082999Y8430597D01*
X29076494Y8491093D01*
X29025444Y8627964D01*
X29025444Y8627965D01*
X28937904Y8744904D01*
X28820965Y8832444D01*
X28684093Y8883494D01*
X28623597Y8889999D01*
X28623585Y8890000D01*
X28067000Y8890000D01*
X28067000Y7984805D01*
X28008040Y8025004D01*
X27879998Y8064500D01*
X27779688Y8064500D01*
X27680501Y8049550D01*
X27559776Y7991412D01*
X27559000Y7990691D01*
X27559000Y8890000D01*
X27002415Y8890000D01*
X27002402Y8889999D01*
X26941906Y8883494D01*
X26805035Y8832444D01*
X26805034Y8832444D01*
X26688095Y8744904D01*
X26643868Y8685823D01*
X26587032Y8643276D01*
X26516217Y8638212D01*
X26453904Y8672237D01*
X26442132Y8685823D01*
X26397904Y8744904D01*
X26280965Y8832444D01*
X26144093Y8883494D01*
X26083597Y8889999D01*
X26083585Y8890000D01*
X25527000Y8890000D01*
X25527000Y7984805D01*
X25468040Y8025004D01*
X25339998Y8064500D01*
X25239688Y8064500D01*
X25140501Y8049550D01*
X25019776Y7991412D01*
X25019000Y7990691D01*
X25019000Y8890000D01*
X24462415Y8890000D01*
X24462402Y8889999D01*
X24401906Y8883494D01*
X24265035Y8832444D01*
X24265034Y8832444D01*
X24148095Y8744904D01*
X24060555Y8627965D01*
X24060555Y8627964D01*
X24009505Y8491093D01*
X24003000Y8430597D01*
X24003000Y7874000D01*
X24906382Y7874000D01*
X24854553Y7784228D01*
X24824736Y7653593D01*
X24834749Y7519972D01*
X24883703Y7395240D01*
X24907021Y7366000D01*
X24003000Y7366000D01*
X24003000Y6809402D01*
X24009505Y6748906D01*
X24060555Y6612035D01*
X24060555Y6612034D01*
X24148096Y6495095D01*
X24206760Y6451179D01*
X24249306Y6394343D01*
X24254370Y6323527D01*
X24220345Y6261216D01*
X24206760Y6249444D01*
X24147739Y6205261D01*
X24147738Y6205259D01*
X24147737Y6205259D01*
X24060112Y6088207D01*
X24060110Y6088202D01*
X24009011Y5951204D01*
X24009009Y5951196D01*
X24002500Y5890649D01*
X24002500Y4269350D01*
X881500Y4269350D01*
X881500Y15071350D01*
X4578500Y15071350D01*
X4585009Y15010803D01*
X4585011Y15010795D01*
X4636110Y14873797D01*
X4636112Y14873792D01*
X4723738Y14756738D01*
X4840792Y14669112D01*
X4840797Y14669110D01*
X4977795Y14618011D01*
X4977803Y14618009D01*
X5038350Y14611500D01*
X5038362Y14611500D01*
X8635649Y14611500D01*
X8696196Y14618009D01*
X8696204Y14618011D01*
X8833202Y14669110D01*
X8833207Y14669112D01*
X8950261Y14756738D01*
X9037887Y14873792D01*
X9037889Y14873797D01*
X9048732Y14902866D01*
X9088989Y15010799D01*
X9088990Y15010803D01*
X9095499Y15071350D01*
X11478500Y15071350D01*
X11485009Y15010803D01*
X11485011Y15010795D01*
X11536110Y14873797D01*
X11536112Y14873792D01*
X11623738Y14756738D01*
X11740792Y14669112D01*
X11740797Y14669110D01*
X11877795Y14618011D01*
X11877803Y14618009D01*
X11938350Y14611500D01*
X11938362Y14611500D01*
X15535649Y14611500D01*
X15596196Y14618009D01*
X15596204Y14618011D01*
X15733202Y14669110D01*
X15733207Y14669112D01*
X15850261Y14756738D01*
X15937887Y14873792D01*
X15937889Y14873797D01*
X15948732Y14902866D01*
X15988989Y15010799D01*
X15988990Y15010803D01*
X15995499Y15071350D01*
X15995499Y15071352D01*
X15995500Y15071362D01*
X15995499Y15253974D01*
X16015501Y15322092D01*
X16069156Y15368585D01*
X16139430Y15378690D01*
X16147696Y15377219D01*
X16287513Y15347500D01*
X16478487Y15347500D01*
X16665288Y15387206D01*
X16839752Y15464882D01*
X16994255Y15577135D01*
X17122034Y15719048D01*
X17122041Y15719058D01*
X17196502Y15848028D01*
X17217527Y15884444D01*
X17276542Y16066072D01*
X17296504Y16256000D01*
X17276542Y16445928D01*
X17217527Y16627556D01*
X17158380Y16730000D01*
X17141500Y16792999D01*
X17141500Y18429629D01*
X17161502Y18497750D01*
X17178405Y18518724D01*
X18063331Y19403650D01*
X18125643Y19437676D01*
X18126227Y19437801D01*
X18189288Y19451206D01*
X18363752Y19528882D01*
X18518255Y19641135D01*
X18646034Y19783048D01*
X18646041Y19783058D01*
X18658068Y19803889D01*
X18741527Y19948444D01*
X18800542Y20130072D01*
X18820504Y20320000D01*
X18819418Y20330329D01*
X18832190Y20400166D01*
X18880691Y20452013D01*
X18944728Y20469499D01*
X20782558Y20469499D01*
X20800818Y20468169D01*
X20824787Y20464658D01*
X20824788Y20464658D01*
X20831225Y20465221D01*
X20877384Y20469259D01*
X20882877Y20469499D01*
X20891184Y20469499D01*
X20923198Y20473241D01*
X20925014Y20473426D01*
X20936427Y20474425D01*
X21001418Y20480111D01*
X21001421Y20480111D01*
X21001425Y20480112D01*
X21001428Y20480113D01*
X21008605Y20481595D01*
X21008618Y20481530D01*
X21015988Y20483164D01*
X21015974Y20483228D01*
X21023114Y20484920D01*
X21058907Y20497948D01*
X21095246Y20511174D01*
X21096933Y20511760D01*
X21169735Y20535884D01*
X21176387Y20538986D01*
X21176415Y20538925D01*
X21183201Y20542210D01*
X21183172Y20542269D01*
X21189729Y20545562D01*
X21253849Y20587735D01*
X21255395Y20588720D01*
X21320650Y20628969D01*
X21320652Y20628971D01*
X21326407Y20633521D01*
X21326449Y20633467D01*
X21332291Y20638227D01*
X21332249Y20638278D01*
X21337871Y20642996D01*
X21390539Y20698821D01*
X21391816Y20700135D01*
X23264276Y22572595D01*
X23326588Y22606621D01*
X23353371Y22609500D01*
X23883714Y22609500D01*
X23951835Y22589498D01*
X23998328Y22535842D01*
X24006949Y22504415D01*
X24007197Y22504474D01*
X24008835Y22497542D01*
X24008992Y22496971D01*
X24009010Y22496802D01*
X24009011Y22496795D01*
X24060110Y22359797D01*
X24060112Y22359792D01*
X24147739Y22242738D01*
X24206343Y22198867D01*
X24248889Y22142031D01*
X24253953Y22071216D01*
X24219928Y22008904D01*
X24206343Y21997133D01*
X24147739Y21953261D01*
X24060112Y21836207D01*
X24060110Y21836202D01*
X24009011Y21699204D01*
X24009009Y21699196D01*
X24002500Y21638649D01*
X24002500Y20017350D01*
X24009009Y19956803D01*
X24009011Y19956795D01*
X24060110Y19819797D01*
X24060112Y19819792D01*
X24147739Y19702738D01*
X24206343Y19658867D01*
X24248889Y19602031D01*
X24253953Y19531216D01*
X24219928Y19468904D01*
X24206343Y19457133D01*
X24147739Y19413261D01*
X24060112Y19296207D01*
X24060110Y19296202D01*
X24009011Y19159204D01*
X24009010Y19159197D01*
X24008992Y19159029D01*
X24008941Y19158906D01*
X24007197Y19151526D01*
X24006001Y19151808D01*
X23981821Y19093437D01*
X23923502Y19052947D01*
X23883714Y19046500D01*
X22035441Y19046500D01*
X22017182Y19047830D01*
X22011595Y19048648D01*
X21993211Y19051341D01*
X21959853Y19048422D01*
X21940615Y19046740D01*
X21935122Y19046500D01*
X21926813Y19046500D01*
X21903765Y19043804D01*
X21894800Y19042756D01*
X21893033Y19042575D01*
X21816574Y19035887D01*
X21816571Y19035886D01*
X21809388Y19034403D01*
X21809374Y19034469D01*
X21802012Y19032837D01*
X21802028Y19032772D01*
X21794893Y19031080D01*
X21794891Y19031079D01*
X21794887Y19031079D01*
X21722805Y19004843D01*
X21721073Y19004241D01*
X21704205Y18998651D01*
X21648262Y18980114D01*
X21648255Y18980109D01*
X21641611Y18977012D01*
X21641581Y18977074D01*
X21634795Y18973788D01*
X21634826Y18973728D01*
X21628271Y18970436D01*
X21628268Y18970435D01*
X21564155Y18928266D01*
X21562626Y18927293D01*
X21497351Y18887032D01*
X21491592Y18882478D01*
X21491549Y18882531D01*
X21485700Y18877766D01*
X21485744Y18877715D01*
X21480122Y18872998D01*
X21427441Y18817159D01*
X21426197Y18815878D01*
X19583973Y16973654D01*
X17750668Y15140349D01*
X17688356Y15106323D01*
X17687860Y15106216D01*
X17624712Y15092794D01*
X17450248Y15015118D01*
X17444298Y15010795D01*
X17295744Y14902864D01*
X17167965Y14760951D01*
X17167958Y14760941D01*
X17100841Y14644691D01*
X17072473Y14595556D01*
X17043526Y14506470D01*
X17013457Y14413927D01*
X16993496Y14224000D01*
X17013457Y14034072D01*
X17072473Y13852445D01*
X17072476Y13852438D01*
X17167958Y13687058D01*
X17167965Y13687048D01*
X17295744Y13545135D01*
X17450247Y13432882D01*
X17624711Y13355206D01*
X17811513Y13315500D01*
X18002487Y13315500D01*
X18189288Y13355206D01*
X18363752Y13432882D01*
X18518255Y13545135D01*
X18646034Y13687048D01*
X18646041Y13687058D01*
X18741527Y13852444D01*
X18796387Y14021285D01*
X18827125Y14071444D01*
X22248276Y17492595D01*
X22310588Y17526621D01*
X22337371Y17529500D01*
X23883714Y17529500D01*
X23951835Y17509498D01*
X23998328Y17455842D01*
X24006949Y17424415D01*
X24007197Y17424474D01*
X24008835Y17417542D01*
X24008992Y17416971D01*
X24009010Y17416802D01*
X24009011Y17416795D01*
X24060110Y17279797D01*
X24060112Y17279792D01*
X24147738Y17162739D01*
X24206761Y17118554D01*
X24249306Y17061717D01*
X24254370Y16990902D01*
X24220344Y16928590D01*
X24206759Y16916819D01*
X24148095Y16872904D01*
X24060555Y16755965D01*
X24060555Y16755964D01*
X24009505Y16619093D01*
X24003000Y16558597D01*
X24003000Y16002000D01*
X24906382Y16002000D01*
X24854553Y15912228D01*
X24824736Y15781593D01*
X24834749Y15647972D01*
X24883703Y15523240D01*
X24907021Y15494000D01*
X24003000Y15494000D01*
X24003000Y14937402D01*
X24009505Y14876906D01*
X24060555Y14740035D01*
X24060555Y14740034D01*
X24148095Y14623095D01*
X24265034Y14535555D01*
X24401906Y14484505D01*
X24462402Y14478000D01*
X25019000Y14478000D01*
X25019000Y15383194D01*
X25077960Y15342996D01*
X25206002Y15303500D01*
X25306312Y15303500D01*
X25405499Y15318450D01*
X25526224Y15376588D01*
X25527000Y15377308D01*
X25527000Y14478000D01*
X26083597Y14478000D01*
X26144093Y14484505D01*
X26280964Y14535555D01*
X26280965Y14535555D01*
X26397902Y14623094D01*
X26442132Y14682177D01*
X26498969Y14724723D01*
X26569784Y14729787D01*
X26632096Y14695762D01*
X26643868Y14682177D01*
X26688097Y14623094D01*
X26805034Y14535555D01*
X26941906Y14484505D01*
X27002402Y14478000D01*
X27559000Y14478000D01*
X27559000Y15383194D01*
X27617960Y15342996D01*
X27746002Y15303500D01*
X27846312Y15303500D01*
X27945499Y15318450D01*
X28066224Y15376588D01*
X28067000Y15377308D01*
X28067000Y14478000D01*
X28623597Y14478000D01*
X28684093Y14484505D01*
X28820964Y14535555D01*
X28820965Y14535555D01*
X28937904Y14623095D01*
X29025444Y14740034D01*
X29025444Y14740035D01*
X29076494Y14876906D01*
X29082999Y14937402D01*
X29083000Y14937414D01*
X29083000Y15494000D01*
X28179618Y15494000D01*
X28231447Y15583772D01*
X28261264Y15714407D01*
X28251251Y15848028D01*
X28202297Y15972760D01*
X28178979Y16002000D01*
X29083000Y16002000D01*
X29083000Y16558585D01*
X29082999Y16558597D01*
X29076494Y16619093D01*
X29025444Y16755964D01*
X29025444Y16755965D01*
X28937904Y16872903D01*
X28879241Y16916818D01*
X28836694Y16973654D01*
X28831628Y17044469D01*
X28865653Y17106782D01*
X28879239Y17118554D01*
X28938260Y17162738D01*
X28938262Y17162740D01*
X28982132Y17221343D01*
X29025887Y17279792D01*
X29025889Y17279797D01*
X29076988Y17416795D01*
X29076990Y17416803D01*
X29083499Y17477350D01*
X29083500Y17477367D01*
X29083500Y19098632D01*
X29083499Y19098649D01*
X29076990Y19159196D01*
X29076988Y19159204D01*
X29065087Y19191110D01*
X29025889Y19296204D01*
X28938261Y19413261D01*
X28879657Y19457132D01*
X28837110Y19513968D01*
X28832046Y19584784D01*
X28866071Y19647096D01*
X28879657Y19658868D01*
X28938261Y19702738D01*
X29025887Y19819792D01*
X29025889Y19819797D01*
X29076988Y19956795D01*
X29076990Y19956803D01*
X29083499Y20017350D01*
X29083500Y20017367D01*
X29083500Y21638632D01*
X29083499Y21638649D01*
X29076990Y21699196D01*
X29076988Y21699204D01*
X29069960Y21718045D01*
X29025889Y21836204D01*
X28938261Y21953261D01*
X28914081Y21971362D01*
X28879657Y21997132D01*
X28837110Y22053968D01*
X28832046Y22124784D01*
X28866071Y22187096D01*
X28879657Y22198868D01*
X28938261Y22242738D01*
X29025887Y22359792D01*
X29025889Y22359797D01*
X29076988Y22496795D01*
X29076990Y22496803D01*
X29083499Y22557350D01*
X29083500Y22557367D01*
X29083500Y24178632D01*
X29083499Y24178649D01*
X29076990Y24239196D01*
X29076988Y24239204D01*
X29069960Y24258045D01*
X29025889Y24376204D01*
X28938261Y24493261D01*
X28821204Y24580889D01*
X28684201Y24631989D01*
X28684199Y24631989D01*
X28684196Y24631990D01*
X28623649Y24638499D01*
X28623645Y24638499D01*
X28623638Y24638500D01*
X27002362Y24638500D01*
X27002355Y24638499D01*
X27002350Y24638499D01*
X26941803Y24631990D01*
X26941795Y24631988D01*
X26863875Y24602924D01*
X26804796Y24580889D01*
X26804794Y24580888D01*
X26804792Y24580887D01*
X26687738Y24493261D01*
X26643868Y24434657D01*
X26587032Y24392110D01*
X26516216Y24387046D01*
X26453904Y24421071D01*
X26442132Y24434657D01*
X26398261Y24493261D01*
X26281207Y24580887D01*
X26281206Y24580887D01*
X26281204Y24580889D01*
X26144201Y24631989D01*
X26144199Y24631989D01*
X26144196Y24631990D01*
X26083649Y24638499D01*
X26083645Y24638499D01*
X26083638Y24638500D01*
X24462362Y24638500D01*
X24462355Y24638499D01*
X24462350Y24638499D01*
X24401803Y24631990D01*
X24401795Y24631988D01*
X24323875Y24602924D01*
X24264796Y24580889D01*
X24264794Y24580888D01*
X24264792Y24580887D01*
X24147738Y24493261D01*
X24060112Y24376207D01*
X24060110Y24376202D01*
X24009011Y24239204D01*
X24009010Y24239197D01*
X24008992Y24239029D01*
X24008941Y24238906D01*
X24007197Y24231526D01*
X24006001Y24231808D01*
X23981821Y24173437D01*
X23923502Y24132947D01*
X23883714Y24126500D01*
X23051441Y24126500D01*
X23033181Y24127830D01*
X23028872Y24128460D01*
X23009211Y24131341D01*
X22976887Y24128513D01*
X22956615Y24126740D01*
X22951122Y24126500D01*
X22942820Y24126500D01*
X22920769Y24123922D01*
X22910818Y24122759D01*
X22909014Y24122574D01*
X22832573Y24115887D01*
X22832570Y24115886D01*
X22832569Y24115886D01*
X22825387Y24114403D01*
X22825373Y24114469D01*
X22818019Y24112839D01*
X22818035Y24112773D01*
X22810890Y24111079D01*
X22810887Y24111079D01*
X22738795Y24084839D01*
X22737104Y24084252D01*
X22699519Y24071797D01*
X22664261Y24060114D01*
X22664255Y24060110D01*
X22657615Y24057014D01*
X22657586Y24057076D01*
X22650800Y24053791D01*
X22650831Y24053731D01*
X22644268Y24050435D01*
X22580143Y24008259D01*
X22578636Y24007299D01*
X22513348Y23967029D01*
X22513347Y23967028D01*
X22507590Y23962476D01*
X22507547Y23962529D01*
X22501700Y23957766D01*
X22501744Y23957715D01*
X22496122Y23952998D01*
X22443441Y23897159D01*
X22442197Y23895878D01*
X21155819Y22609500D01*
X20569723Y22023404D01*
X20507411Y21989378D01*
X20480628Y21986499D01*
X16121500Y21986499D01*
X16053379Y22006501D01*
X16006886Y22060157D01*
X15995500Y22112499D01*
X15995500Y25568632D01*
X15995499Y25568649D01*
X15988990Y25629196D01*
X15988988Y25629204D01*
X15981960Y25648045D01*
X15937889Y25766204D01*
X15850261Y25883261D01*
X15733204Y25970889D01*
X15596201Y26021989D01*
X15596199Y26021989D01*
X15596196Y26021990D01*
X15535649Y26028499D01*
X15535645Y26028499D01*
X15535638Y26028500D01*
X11938362Y26028500D01*
X11938355Y26028499D01*
X11938350Y26028499D01*
X11877803Y26021990D01*
X11877795Y26021988D01*
X11799875Y25992924D01*
X11740796Y25970889D01*
X11740794Y25970888D01*
X11740792Y25970887D01*
X11623738Y25883261D01*
X11536112Y25766207D01*
X11536110Y25766202D01*
X11485011Y25629204D01*
X11485009Y25629196D01*
X11478500Y25568649D01*
X11478500Y21971350D01*
X11485009Y21910803D01*
X11485011Y21910795D01*
X11536110Y21773797D01*
X11536112Y21773792D01*
X11623738Y21656738D01*
X11740792Y21569112D01*
X11740797Y21569110D01*
X11877795Y21518011D01*
X11877803Y21518009D01*
X11938350Y21511500D01*
X11938362Y21511500D01*
X13986336Y21511500D01*
X14054457Y21491498D01*
X14100950Y21437842D01*
X14111054Y21367568D01*
X14095455Y21322500D01*
X14024473Y21199556D01*
X13995526Y21110470D01*
X13965457Y21017927D01*
X13945496Y20827999D01*
X13965457Y20638072D01*
X13996757Y20541744D01*
X14020663Y20468169D01*
X14024473Y20456445D01*
X14024476Y20456438D01*
X14119958Y20291058D01*
X14119965Y20291048D01*
X14247744Y20149135D01*
X14402247Y20036882D01*
X14576711Y19959206D01*
X14763513Y19919500D01*
X14954487Y19919500D01*
X15141288Y19959206D01*
X15315752Y20036882D01*
X15470255Y20149135D01*
X15598034Y20291048D01*
X15598036Y20291051D01*
X15598040Y20291056D01*
X15664692Y20406500D01*
X15716075Y20455493D01*
X15773811Y20469499D01*
X16679628Y20469499D01*
X16747749Y20449497D01*
X16794242Y20395841D01*
X16804346Y20325567D01*
X16774852Y20260987D01*
X16768723Y20254404D01*
X15892227Y19377908D01*
X15878376Y19365937D01*
X15858942Y19351469D01*
X15858940Y19351467D01*
X15825003Y19311024D01*
X15821289Y19306970D01*
X15815420Y19301101D01*
X15807871Y19291555D01*
X15795421Y19275810D01*
X15794266Y19274392D01*
X15744964Y19215635D01*
X15740933Y19209506D01*
X15740878Y19209541D01*
X15736829Y19203187D01*
X15736886Y19203153D01*
X15733034Y19196908D01*
X15733033Y19196906D01*
X15732844Y19196500D01*
X15731313Y19193217D01*
X15729458Y19191110D01*
X15729181Y19190661D01*
X15729104Y19190708D01*
X15684396Y19139931D01*
X15616119Y19120470D01*
X15603649Y19121188D01*
X15596201Y19121988D01*
X15596201Y19121989D01*
X15535638Y19128500D01*
X15535632Y19128500D01*
X14723620Y19128500D01*
X14672372Y19139392D01*
X14633288Y19156794D01*
X14446487Y19196500D01*
X14255513Y19196500D01*
X14068712Y19156794D01*
X14029627Y19139392D01*
X13978380Y19128500D01*
X11938362Y19128500D01*
X11938355Y19128499D01*
X11938350Y19128499D01*
X11877803Y19121990D01*
X11877795Y19121988D01*
X11815193Y19098638D01*
X11740796Y19070889D01*
X11740794Y19070888D01*
X11740792Y19070887D01*
X11623738Y18983261D01*
X11536112Y18866207D01*
X11536110Y18866202D01*
X11485011Y18729204D01*
X11485009Y18729196D01*
X11478500Y18668649D01*
X11478500Y15071350D01*
X9095499Y15071350D01*
X9095500Y15071367D01*
X9095500Y18668632D01*
X9095499Y18668649D01*
X9088990Y18729196D01*
X9088988Y18729204D01*
X9081960Y18748045D01*
X9037889Y18866204D01*
X9025706Y18882478D01*
X8950261Y18983261D01*
X8833207Y19070887D01*
X8833206Y19070887D01*
X8833204Y19070889D01*
X8696201Y19121989D01*
X8696199Y19121989D01*
X8696196Y19121990D01*
X8635649Y19128499D01*
X8635645Y19128499D01*
X8635638Y19128500D01*
X5038362Y19128500D01*
X5038355Y19128499D01*
X5038350Y19128499D01*
X4977803Y19121990D01*
X4977795Y19121988D01*
X4915193Y19098638D01*
X4840796Y19070889D01*
X4840794Y19070888D01*
X4840792Y19070887D01*
X4723738Y18983261D01*
X4636112Y18866207D01*
X4636110Y18866202D01*
X4585011Y18729204D01*
X4585009Y18729196D01*
X4578500Y18668649D01*
X4578500Y15071350D01*
X881500Y15071350D01*
X881500Y21971350D01*
X4578500Y21971350D01*
X4585009Y21910803D01*
X4585011Y21910795D01*
X4636110Y21773797D01*
X4636112Y21773792D01*
X4723738Y21656738D01*
X4840792Y21569112D01*
X4840797Y21569110D01*
X4977795Y21518011D01*
X4977803Y21518009D01*
X5038350Y21511500D01*
X5038362Y21511500D01*
X8635649Y21511500D01*
X8696196Y21518009D01*
X8696204Y21518011D01*
X8833202Y21569110D01*
X8833207Y21569112D01*
X8950261Y21656738D01*
X9037887Y21773792D01*
X9037889Y21773797D01*
X9088988Y21910795D01*
X9088990Y21910803D01*
X9095499Y21971350D01*
X9095500Y21971367D01*
X9095500Y25568632D01*
X9095499Y25568649D01*
X9088990Y25629196D01*
X9088988Y25629204D01*
X9081960Y25648045D01*
X9037889Y25766204D01*
X8950261Y25883261D01*
X8833204Y25970889D01*
X8696201Y26021989D01*
X8696199Y26021989D01*
X8696196Y26021990D01*
X8635649Y26028499D01*
X8635645Y26028499D01*
X8635638Y26028500D01*
X5038362Y26028500D01*
X5038355Y26028499D01*
X5038350Y26028499D01*
X4977803Y26021990D01*
X4977795Y26021988D01*
X4899875Y25992924D01*
X4840796Y25970889D01*
X4840794Y25970888D01*
X4840792Y25970887D01*
X4723738Y25883261D01*
X4636112Y25766207D01*
X4636110Y25766202D01*
X4585011Y25629204D01*
X4585009Y25629196D01*
X4578500Y25568649D01*
X4578500Y21971350D01*
X881500Y21971350D01*
X881500Y34749350D01*
X24002500Y34749350D01*
X24009009Y34688803D01*
X24009011Y34688795D01*
X24060110Y34551797D01*
X24060112Y34551792D01*
X24147738Y34434739D01*
X24206761Y34390554D01*
X24249306Y34333717D01*
X24254370Y34262902D01*
X24220344Y34200590D01*
X24206759Y34188819D01*
X24148095Y34144904D01*
X24060555Y34027965D01*
X24060555Y34027964D01*
X24009505Y33891093D01*
X24003000Y33830597D01*
X24003000Y33274000D01*
X24906382Y33274000D01*
X24854553Y33184228D01*
X24824736Y33053593D01*
X24834749Y32919972D01*
X24883703Y32795240D01*
X24907021Y32766000D01*
X24003000Y32766000D01*
X24003000Y32209402D01*
X24009505Y32148906D01*
X24060555Y32012035D01*
X24060555Y32012034D01*
X24148095Y31895095D01*
X24265034Y31807555D01*
X24401906Y31756505D01*
X24462402Y31750000D01*
X25019000Y31750000D01*
X25019000Y32655194D01*
X25077960Y32614996D01*
X25206002Y32575500D01*
X25306312Y32575500D01*
X25405499Y32590450D01*
X25526224Y32648588D01*
X25527000Y32649308D01*
X25527000Y31750000D01*
X26083597Y31750000D01*
X26144093Y31756505D01*
X26280964Y31807555D01*
X26280965Y31807555D01*
X26397902Y31895094D01*
X26442132Y31954177D01*
X26498969Y31996723D01*
X26569784Y32001787D01*
X26632096Y31967762D01*
X26643868Y31954177D01*
X26688097Y31895094D01*
X26805034Y31807555D01*
X26941906Y31756505D01*
X27002402Y31750000D01*
X27559000Y31750000D01*
X27559000Y32655194D01*
X27617960Y32614996D01*
X27746002Y32575500D01*
X27846312Y32575500D01*
X27945499Y32590450D01*
X28066224Y32648588D01*
X28067000Y32649308D01*
X28067000Y31750000D01*
X28623597Y31750000D01*
X28684093Y31756505D01*
X28820964Y31807555D01*
X28820965Y31807555D01*
X28937904Y31895095D01*
X29025444Y32012034D01*
X29025444Y32012035D01*
X29076494Y32148906D01*
X29082999Y32209402D01*
X29083000Y32209414D01*
X29083000Y32766000D01*
X28179618Y32766000D01*
X28231447Y32855772D01*
X28261264Y32986407D01*
X28251251Y33120028D01*
X28202297Y33244760D01*
X28178979Y33274000D01*
X29083000Y33274000D01*
X29083000Y33830585D01*
X29082999Y33830597D01*
X29076494Y33891093D01*
X29025444Y34027964D01*
X29025444Y34027965D01*
X28937904Y34144903D01*
X28879241Y34188818D01*
X28836694Y34245654D01*
X28831628Y34316469D01*
X28865653Y34378782D01*
X28879239Y34390554D01*
X28938260Y34434738D01*
X28938262Y34434740D01*
X28982132Y34493343D01*
X29025887Y34551792D01*
X29025889Y34551797D01*
X29076988Y34688795D01*
X29076990Y34688803D01*
X29083499Y34749350D01*
X29083500Y34749367D01*
X29083500Y36370632D01*
X29083499Y36370649D01*
X29076990Y36431196D01*
X29076988Y36431204D01*
X29069960Y36450045D01*
X29025889Y36568204D01*
X28938261Y36685261D01*
X28879240Y36729444D01*
X28836693Y36786280D01*
X28831629Y36857095D01*
X28865654Y36919408D01*
X28879240Y36931180D01*
X28937904Y36975095D01*
X29025444Y37092034D01*
X29025444Y37092035D01*
X29076494Y37228906D01*
X29082999Y37289402D01*
X29083000Y37289414D01*
X29083000Y37846000D01*
X28179618Y37846000D01*
X28231447Y37935772D01*
X28261264Y38066407D01*
X28251251Y38200028D01*
X28202297Y38324760D01*
X28178979Y38354000D01*
X29083000Y38354000D01*
X29083000Y38910585D01*
X29082999Y38910597D01*
X29076494Y38971093D01*
X29025444Y39107964D01*
X29025444Y39107965D01*
X28937904Y39224904D01*
X28820965Y39312444D01*
X28684093Y39363494D01*
X28623597Y39369999D01*
X28623585Y39370000D01*
X28067000Y39370000D01*
X28067000Y38464805D01*
X28008040Y38505004D01*
X27879998Y38544500D01*
X27779688Y38544500D01*
X27680501Y38529550D01*
X27559776Y38471412D01*
X27559000Y38470691D01*
X27559000Y39370000D01*
X27002415Y39370000D01*
X27002402Y39369999D01*
X26941906Y39363494D01*
X26805035Y39312444D01*
X26805034Y39312444D01*
X26688095Y39224904D01*
X26643868Y39165823D01*
X26587032Y39123276D01*
X26516217Y39118212D01*
X26453904Y39152237D01*
X26442132Y39165823D01*
X26397904Y39224904D01*
X26280965Y39312444D01*
X26144093Y39363494D01*
X26083597Y39369999D01*
X26083585Y39370000D01*
X25527000Y39370000D01*
X25527000Y38464805D01*
X25468040Y38505004D01*
X25339998Y38544500D01*
X25239688Y38544500D01*
X25140501Y38529550D01*
X25019776Y38471412D01*
X25019000Y38470691D01*
X25019000Y39370000D01*
X24462415Y39370000D01*
X24462402Y39369999D01*
X24401906Y39363494D01*
X24265035Y39312444D01*
X24265034Y39312444D01*
X24148095Y39224904D01*
X24060555Y39107965D01*
X24060555Y39107964D01*
X24009505Y38971093D01*
X24003000Y38910597D01*
X24003000Y38354000D01*
X24906382Y38354000D01*
X24854553Y38264228D01*
X24824736Y38133593D01*
X24834749Y37999972D01*
X24883703Y37875240D01*
X24907021Y37846000D01*
X24003000Y37846000D01*
X24003000Y37289402D01*
X24009505Y37228906D01*
X24060555Y37092035D01*
X24060555Y37092034D01*
X24148096Y36975095D01*
X24206760Y36931179D01*
X24249306Y36874343D01*
X24254370Y36803527D01*
X24220345Y36741216D01*
X24206760Y36729444D01*
X24147739Y36685261D01*
X24147738Y36685259D01*
X24147737Y36685259D01*
X24060112Y36568207D01*
X24060110Y36568202D01*
X24009011Y36431204D01*
X24009009Y36431196D01*
X24002500Y36370649D01*
X24002500Y34749350D01*
X881500Y34749350D01*
X881500Y39759500D01*
X901502Y39827621D01*
X955158Y39874114D01*
X1007500Y39885500D01*
X29726500Y39885500D01*
X29794621Y39865498D01*
G37*
%TD.AperFunction*%
%TD*%
M02*
