%TF.GenerationSoftware,KiCad,Pcbnew,6.0.11+dfsg-1~bpo11+1*%
%TF.CreationDate,2023-06-15T01:21:20+00:00*%
%TF.ProjectId,SIPM02,5349504d-3032-42e6-9b69-6361645f7063,rev?*%
%TF.SameCoordinates,Original*%
%TF.FileFunction,Copper,L2,Bot*%
%TF.FilePolarity,Positive*%
%FSLAX46Y46*%
G04 Gerber Fmt 4.6, Leading zero omitted, Abs format (unit mm)*
G04 Created by KiCad (PCBNEW 6.0.11+dfsg-1~bpo11+1) date 2023-06-15 01:21:20*
%MOMM*%
%LPD*%
G01*
G04 APERTURE LIST*
G04 Aperture macros list*
%AMRoundRect*
0 Rectangle with rounded corners*
0 $1 Rounding radius*
0 $2 $3 $4 $5 $6 $7 $8 $9 X,Y pos of 4 corners*
0 Add a 4 corners polygon primitive as box body*
4,1,4,$2,$3,$4,$5,$6,$7,$8,$9,$2,$3,0*
0 Add four circle primitives for the rounded corners*
1,1,$1+$1,$2,$3*
1,1,$1+$1,$4,$5*
1,1,$1+$1,$6,$7*
1,1,$1+$1,$8,$9*
0 Add four rect primitives between the rounded corners*
20,1,$1+$1,$2,$3,$4,$5,0*
20,1,$1+$1,$4,$5,$6,$7,0*
20,1,$1+$1,$6,$7,$8,$9,0*
20,1,$1+$1,$8,$9,$2,$3,0*%
%AMOutline4P*
0 Free polygon, 4 corners , with rotation*
0 The origin of the aperture is its center*
0 number of corners: always 4*
0 $1 to $8 corner X, Y*
0 $9 Rotation angle, in degrees counterclockwise*
0 create outline with 4 corners*
4,1,4,$1,$2,$3,$4,$5,$6,$7,$8,$1,$2,$9*%
G04 Aperture macros list end*
%TA.AperFunction,ComponentPad*%
%ADD10C,6.000000*%
%TD*%
%TA.AperFunction,ComponentPad*%
%ADD11R,1.524000X1.524000*%
%TD*%
%TA.AperFunction,SMDPad,CuDef*%
%ADD12R,0.889000X1.397000*%
%TD*%
%TA.AperFunction,SMDPad,CuDef*%
%ADD13R,1.397000X0.889000*%
%TD*%
%TA.AperFunction,SMDPad,CuDef*%
%ADD14R,1.800000X2.500000*%
%TD*%
%TA.AperFunction,SMDPad,CuDef*%
%ADD15R,2.550160X2.499360*%
%TD*%
%TA.AperFunction,SMDPad,CuDef*%
%ADD16RoundRect,0.250000X0.537500X0.650000X-0.537500X0.650000X-0.537500X-0.650000X0.537500X-0.650000X0*%
%TD*%
%TA.AperFunction,SMDPad,CuDef*%
%ADD17Outline4P,-0.750000X-1.500000X0.750000X-1.500000X0.750000X1.500000X-0.750000X1.500000X180.000000*%
%TD*%
%TA.AperFunction,SMDPad,CuDef*%
%ADD18RoundRect,0.250425X0.537075X0.649575X-0.537075X0.649575X-0.537075X-0.649575X0.537075X-0.649575X0*%
%TD*%
%TA.AperFunction,SMDPad,CuDef*%
%ADD19R,1.060000X0.650000*%
%TD*%
%TA.AperFunction,ViaPad*%
%ADD20C,0.800000*%
%TD*%
%TA.AperFunction,Conductor*%
%ADD21C,0.800000*%
%TD*%
%TA.AperFunction,Conductor*%
%ADD22C,0.400000*%
%TD*%
%TA.AperFunction,Conductor*%
%ADD23C,0.500000*%
%TD*%
G04 APERTURE END LIST*
D10*
%TO.P,M2,1*%
%TO.N,GND*%
X5207000Y5080000D03*
%TD*%
%TO.P,M3,1*%
%TO.N,GND*%
X5207000Y35560000D03*
%TD*%
D11*
%TO.P,J10,1*%
%TO.N,/#PD*%
X25273000Y20828000D03*
%TO.P,J10,2*%
X27813000Y20828000D03*
%TD*%
%TO.P,J8,1*%
%TO.N,/OUT*%
X25273000Y18288000D03*
%TO.P,J8,2*%
X27813000Y18288000D03*
%TD*%
%TO.P,J4,1*%
%TO.N,GND*%
X25273000Y2540000D03*
%TO.P,J4,2*%
X27813000Y2540000D03*
%TD*%
%TO.P,J9,1*%
%TO.N,GND*%
X25273000Y15748000D03*
%TO.P,J9,2*%
X27813000Y15748000D03*
%TD*%
%TO.P,J1,1*%
%TO.N,GND*%
X25273000Y33020000D03*
%TO.P,J1,2*%
X27813000Y33020000D03*
%TD*%
%TO.P,J2,1*%
%TO.N,+28V*%
X25273000Y35560000D03*
%TO.P,J2,2*%
X27813000Y35560000D03*
%TD*%
%TO.P,J3,1*%
%TO.N,GND*%
X25273000Y38100000D03*
%TO.P,J3,2*%
X27813000Y38100000D03*
%TD*%
%TO.P,J5,1*%
%TO.N,/+3V6*%
X27813000Y5080000D03*
%TO.P,J5,2*%
X25273000Y5080000D03*
%TD*%
%TO.P,J6,1*%
%TO.N,GND*%
X27813000Y7620000D03*
%TO.P,J6,2*%
X25273000Y7620000D03*
%TD*%
%TO.P,J7,1*%
%TO.N,/DIRECT_OUT*%
X25273000Y23368000D03*
%TO.P,J7,2*%
X27813000Y23368000D03*
%TD*%
D10*
%TO.P,M1,1*%
%TO.N,GND*%
X15367000Y5080000D03*
%TD*%
%TO.P,M4,1*%
%TO.N,GND*%
X15367000Y35560000D03*
%TD*%
D12*
%TO.P,C5,1*%
%TO.N,Net-(C5-Pad1)*%
X13462000Y30480000D03*
%TO.P,C5,2*%
%TO.N,GND*%
X15367000Y30480000D03*
%TD*%
%TO.P,R10,1*%
%TO.N,Net-(R10-Pad1)*%
X17907000Y21336000D03*
%TO.P,R10,2*%
%TO.N,Net-(R10-Pad2)*%
X19812000Y21336000D03*
%TD*%
D13*
%TO.P,R3,1*%
%TO.N,+3V3*%
X18923000Y11557000D03*
%TO.P,R3,2*%
%TO.N,/+3V6*%
X18923000Y9652000D03*
%TD*%
D12*
%TO.P,C4,1*%
%TO.N,/+3V6*%
X16891000Y10096500D03*
%TO.P,C4,2*%
%TO.N,GND*%
X14986000Y10096500D03*
%TD*%
D14*
%TO.P,D1,1,K*%
%TO.N,/+3V6*%
X21463000Y6572000D03*
%TO.P,D1,2,A*%
%TO.N,GND*%
X21463000Y2572000D03*
%TD*%
D12*
%TO.P,C7,1*%
%TO.N,+3V3*%
X19050000Y13208000D03*
%TO.P,C7,2*%
%TO.N,GND*%
X20955000Y13208000D03*
%TD*%
D15*
%TO.P,C3,1*%
%TO.N,/+3V6*%
X22494240Y10668000D03*
%TO.P,C3,2*%
%TO.N,GND*%
X27543760Y10668000D03*
%TD*%
D12*
%TO.P,C8,1*%
%TO.N,+3V3*%
X19050000Y15240000D03*
%TO.P,C8,2*%
%TO.N,GND*%
X20955000Y15240000D03*
%TD*%
%TO.P,R2,1*%
%TO.N,Net-(C5-Pad1)*%
X13398500Y27432000D03*
%TO.P,R2,2*%
%TO.N,Net-(C2-Pad3)*%
X15303500Y27432000D03*
%TD*%
%TO.P,C6,1*%
%TO.N,Net-(C6-Pad1)*%
X10668000Y27432000D03*
%TO.P,C6,2*%
%TO.N,GND*%
X8763000Y27432000D03*
%TD*%
D15*
%TO.P,C1,1*%
%TO.N,Net-(C1-Pad1)*%
X22956520Y29987240D03*
%TO.P,C1,2*%
%TO.N,GND*%
X17907000Y29987240D03*
%TD*%
D16*
%TO.P,C2,1,1*%
%TO.N,Net-(C1-Pad1)*%
X22534500Y25908000D03*
D17*
%TO.P,C2,2,2*%
%TO.N,GND*%
X20447000Y25908000D03*
D18*
%TO.P,C2,3,3*%
%TO.N,Net-(C2-Pad3)*%
X18359500Y25908000D03*
%TD*%
D12*
%TO.P,C9,1*%
%TO.N,Net-(C6-Pad1)*%
X11684000Y24892000D03*
%TO.P,C9,2*%
%TO.N,GND*%
X9779000Y24892000D03*
%TD*%
%TO.P,C10,1*%
%TO.N,/DIRECT_OUT*%
X10795000Y15240000D03*
%TO.P,C10,2*%
%TO.N,Net-(C10-Pad2)*%
X8890000Y15240000D03*
%TD*%
D13*
%TO.P,R1,1*%
%TO.N,Net-(C1-Pad1)*%
X21971000Y33655000D03*
%TO.P,R1,2*%
%TO.N,+28V*%
X21971000Y35560000D03*
%TD*%
D12*
%TO.P,R4,1*%
%TO.N,Net-(C6-Pad1)*%
X9398000Y30480000D03*
%TO.P,R4,2*%
%TO.N,Net-(C5-Pad1)*%
X11303000Y30480000D03*
%TD*%
D13*
%TO.P,R5,1*%
%TO.N,GND*%
X6731000Y12827000D03*
%TO.P,R5,2*%
%TO.N,Net-(C10-Pad2)*%
X6731000Y14732000D03*
%TD*%
%TO.P,R6,1*%
%TO.N,Net-(R6-Pad1)*%
X13335000Y18923000D03*
%TO.P,R6,2*%
%TO.N,/DIRECT_OUT*%
X13335000Y20828000D03*
%TD*%
%TO.P,R7,1*%
%TO.N,+3V3*%
X14859000Y13335000D03*
%TO.P,R7,2*%
%TO.N,/DIRECT_OUT*%
X14859000Y15240000D03*
%TD*%
%TO.P,R8,1*%
%TO.N,/DIRECT_OUT*%
X12827000Y15240000D03*
%TO.P,R8,2*%
%TO.N,GND*%
X12827000Y13335000D03*
%TD*%
%TO.P,R9,1*%
%TO.N,Net-(R10-Pad2)*%
X21971000Y21336000D03*
%TO.P,R9,2*%
%TO.N,GND*%
X21971000Y23241000D03*
%TD*%
D12*
%TO.P,R11,1*%
%TO.N,+3V3*%
X22352000Y18288000D03*
%TO.P,R11,2*%
%TO.N,/#PD*%
X20447000Y18288000D03*
%TD*%
D13*
%TO.P,R12,1*%
%TO.N,/OUT*%
X16891000Y13335000D03*
%TO.P,R12,2*%
%TO.N,Net-(R10-Pad1)*%
X16891000Y15240000D03*
%TD*%
D19*
%TO.P,U2,1*%
%TO.N,Net-(R10-Pad1)*%
X16383000Y17338000D03*
%TO.P,U2,2,V-*%
%TO.N,GND*%
X16383000Y18288000D03*
%TO.P,U2,3,+*%
%TO.N,/DIRECT_OUT*%
X16383000Y19238000D03*
%TO.P,U2,4,-*%
%TO.N,Net-(R10-Pad2)*%
X18583000Y19238000D03*
%TO.P,U2,5,~{DIS}*%
%TO.N,/#PD*%
X18583000Y18288000D03*
%TO.P,U2,6,V+*%
%TO.N,+3V3*%
X18583000Y17338000D03*
%TD*%
D20*
%TO.N,GND*%
X6096000Y26670000D03*
X7239000Y28448000D03*
X12827000Y11684000D03*
X16256000Y24384000D03*
X9271000Y33020000D03*
X10287000Y10160000D03*
X12065000Y27940000D03*
X10795000Y33020000D03*
X8763000Y13208000D03*
X20955000Y38100000D03*
X28067000Y25908000D03*
X22987000Y16256000D03*
X18415000Y23368000D03*
X7239000Y30988000D03*
X14351000Y26162000D03*
X10287000Y13208000D03*
X26035000Y13208000D03*
X11430000Y28956000D03*
X27559000Y13208000D03*
X16383000Y23368000D03*
X17399000Y16284502D03*
X26035000Y25908000D03*
X22987000Y13208000D03*
X7239000Y29464000D03*
X22987000Y14732000D03*
X20447000Y19812000D03*
X28067000Y27432000D03*
X24511000Y13208000D03*
X16383000Y22352000D03*
X7239000Y10160000D03*
X5715000Y10160000D03*
X6096000Y27813000D03*
X8763000Y10160000D03*
X22987000Y38100000D03*
X12446000Y28956000D03*
X26035000Y27432000D03*
X11811000Y10160000D03*
X13335000Y10160000D03*
X7239000Y27432000D03*
X28067000Y29464000D03*
X28067000Y30988000D03*
X26035000Y30988000D03*
X19431000Y36068000D03*
X7239000Y26543000D03*
X19431000Y34544000D03*
X19431000Y32512000D03*
X26035000Y29464000D03*
X19939000Y23368000D03*
X19431000Y38100000D03*
%TO.N,Net-(C6-Pad1)*%
X12827000Y24892000D03*
%TO.N,/DIRECT_OUT*%
X14859000Y20828000D03*
%TO.N,Net-(C10-Pad2)*%
X7747000Y15748000D03*
%TO.N,/OUT*%
X17907000Y14224000D03*
%TO.N,Net-(R6-Pad1)*%
X14351000Y18288000D03*
%TO.N,Net-(R10-Pad1)*%
X17907000Y20320000D03*
X16383000Y16256000D03*
%TD*%
D21*
%TO.N,Net-(C1-Pad1)*%
X22534500Y29565220D02*
X22956520Y29987240D01*
X21971000Y33655000D02*
X21971000Y30972760D01*
D22*
X22534500Y25908000D02*
X22534500Y29565220D01*
D21*
X21971000Y30972760D02*
X22956520Y29987240D01*
D23*
%TO.N,GND*%
X17098002Y18288000D02*
X17399000Y17987002D01*
X13398500Y10096500D02*
X13335000Y10160000D01*
X22987000Y14732000D02*
X22987000Y16256000D01*
D22*
X14351000Y26162000D02*
X14224000Y26035000D01*
X14224000Y26035000D02*
X12933380Y26035000D01*
D23*
X11811000Y10160000D02*
X10287000Y10160000D01*
D22*
X12483520Y27521480D02*
X12065000Y27940000D01*
D23*
X17399000Y17987002D02*
X17399000Y16284502D01*
X21971000Y23241000D02*
X20066000Y23241000D01*
X17907000Y30988000D02*
X19431000Y32512000D01*
X17907000Y29987240D02*
X17907000Y30988000D01*
X14986000Y10096500D02*
X13398500Y10096500D01*
X7239000Y27432000D02*
X7239000Y28448000D01*
X18415000Y23368000D02*
X16383000Y23368000D01*
X16383000Y18288000D02*
X17098002Y18288000D01*
X20066000Y23241000D02*
X19939000Y23368000D01*
D22*
X12483520Y26484860D02*
X12483520Y27521480D01*
D23*
X19431000Y34544000D02*
X19431000Y36068000D01*
X26035000Y13208000D02*
X24511000Y13208000D01*
X7239000Y28448000D02*
X7239000Y29464000D01*
X27543760Y10668000D02*
X27543760Y13192760D01*
X27543760Y13192760D02*
X27559000Y13208000D01*
X20955000Y13208000D02*
X22987000Y13208000D01*
X8763000Y27432000D02*
X7239000Y27432000D01*
D22*
X12933380Y26035000D02*
X12483520Y26484860D01*
D23*
X8763000Y10160000D02*
X7239000Y10160000D01*
D21*
%TO.N,Net-(C2-Pad3)*%
X16827500Y25908000D02*
X15303500Y27432000D01*
X18359500Y25908000D02*
X16827500Y25908000D01*
%TO.N,/+3V6*%
X21478240Y9652000D02*
X22494240Y10668000D01*
X25273000Y5080000D02*
X22955000Y5080000D01*
X17335500Y9652000D02*
X16891000Y10096500D01*
X21463000Y6572000D02*
X21463000Y9636760D01*
X22955000Y5080000D02*
X21463000Y6572000D01*
X18923000Y9652000D02*
X17335500Y9652000D01*
X21463000Y9636760D02*
X22494240Y10668000D01*
X18923000Y9652000D02*
X21478240Y9652000D01*
X27813000Y5080000D02*
X25273000Y5080000D01*
%TO.N,Net-(C5-Pad1)*%
X11303000Y30480000D02*
X13462000Y30480000D01*
X13462000Y30480000D02*
X13462000Y27495500D01*
X13462000Y27495500D02*
X13398500Y27432000D01*
%TO.N,Net-(C6-Pad1)*%
X10668000Y27686000D02*
X10668000Y27432000D01*
X10668000Y27432000D02*
X11684000Y26416000D01*
X9398000Y28956000D02*
X10668000Y27686000D01*
D22*
X12827000Y24892000D02*
X11684000Y24892000D01*
D21*
X9398000Y30480000D02*
X9398000Y28956000D01*
X11684000Y26416000D02*
X11684000Y24892000D01*
%TO.N,+3V3*%
X18923000Y13081000D02*
X19050000Y13208000D01*
D23*
X19050000Y16871000D02*
X21189000Y16871000D01*
X21189000Y16871000D02*
X22352000Y18034000D01*
X19050000Y15240000D02*
X19050000Y16871000D01*
D21*
X19050000Y13208000D02*
X19050000Y15240000D01*
D23*
X22352000Y18034000D02*
X22352000Y18288000D01*
X17724500Y11557000D02*
X18923000Y11557000D01*
X19050000Y16871000D02*
X18583000Y17338000D01*
D21*
X18923000Y11557000D02*
X18923000Y13081000D01*
D23*
X15692500Y11557000D02*
X17724500Y11557000D01*
X14859000Y12390500D02*
X15692500Y11557000D01*
X14859000Y13335000D02*
X14859000Y12390500D01*
%TO.N,/DIRECT_OUT*%
X12827000Y15240000D02*
X14859000Y15240000D01*
X10795000Y15240000D02*
X12827000Y15240000D01*
X15201001Y17034501D02*
X15201001Y18961999D01*
X14859000Y20828000D02*
X14859000Y19304000D01*
X13335000Y20828000D02*
X14859000Y20828000D01*
X14859000Y15240000D02*
X14859000Y16692500D01*
X14925000Y19238000D02*
X14859000Y19304000D01*
X27813000Y23368000D02*
X25273000Y23368000D01*
X16383000Y19238000D02*
X14925000Y19238000D01*
X15201001Y18961999D02*
X14859000Y19304000D01*
X14859000Y16692500D02*
X15201001Y17034501D01*
%TO.N,Net-(C10-Pad2)*%
X7747000Y15748000D02*
X8382000Y15748000D01*
X8382000Y15748000D02*
X8890000Y15240000D01*
X6731000Y14732000D02*
X7747000Y15748000D01*
D21*
%TO.N,+28V*%
X27813000Y35560000D02*
X25273000Y35560000D01*
X25273000Y35560000D02*
X21971000Y35560000D01*
D23*
%TO.N,/OUT*%
X16891000Y13335000D02*
X17018000Y13335000D01*
X17018000Y13335000D02*
X17907000Y14224000D01*
%TO.N,/#PD*%
X21709000Y19804000D02*
X22987000Y19804000D01*
X20447000Y18288000D02*
X20447000Y18542000D01*
X25273000Y20828000D02*
X24011000Y20828000D01*
X20447000Y18542000D02*
X21709000Y19804000D01*
X27813000Y20828000D02*
X25273000Y20828000D01*
X18583000Y18288000D02*
X20447000Y18288000D01*
X24011000Y20828000D02*
X22987000Y19804000D01*
%TO.N,Net-(R6-Pad1)*%
X13970000Y18288000D02*
X13335000Y18923000D01*
X14351000Y18288000D02*
X13970000Y18288000D01*
%TO.N,Net-(R10-Pad2)*%
X19812000Y20467000D02*
X19812000Y21336000D01*
X19812000Y21336000D02*
X21971000Y21336000D01*
X18583000Y19238000D02*
X19812000Y20467000D01*
%TO.N,Net-(R10-Pad1)*%
X16383000Y15748000D02*
X16891000Y15240000D01*
X16383000Y17338000D02*
X16383000Y16256000D01*
X17907000Y20320000D02*
X17907000Y21336000D01*
X16383000Y16256000D02*
X16383000Y15748000D01*
%TD*%
%TA.AperFunction,Conductor*%
%TO.N,GND*%
G36*
X29786621Y39857498D02*
G01*
X29833114Y39803842D01*
X29844500Y39751500D01*
X29844500Y888500D01*
X29824498Y820379D01*
X29770842Y773886D01*
X29718500Y762500D01*
X1015500Y762500D01*
X947379Y782502D01*
X900886Y836158D01*
X889500Y888500D01*
X889500Y1733331D01*
X24003001Y1733331D01*
X24003371Y1726510D01*
X24008895Y1675648D01*
X24012521Y1660396D01*
X24057676Y1539946D01*
X24066214Y1524351D01*
X24142715Y1422276D01*
X24155276Y1409715D01*
X24257351Y1333214D01*
X24272946Y1324676D01*
X24393394Y1279522D01*
X24408649Y1275895D01*
X24459514Y1270369D01*
X24466328Y1270000D01*
X25000885Y1270000D01*
X25016124Y1274475D01*
X25017329Y1275865D01*
X25019000Y1283548D01*
X25019000Y1288116D01*
X25527000Y1288116D01*
X25531475Y1272877D01*
X25532865Y1271672D01*
X25540548Y1270001D01*
X26079669Y1270001D01*
X26086490Y1270371D01*
X26137352Y1275895D01*
X26152604Y1279521D01*
X26273054Y1324676D01*
X26288649Y1333214D01*
X26390724Y1409715D01*
X26403284Y1422275D01*
X26442173Y1474165D01*
X26499032Y1516681D01*
X26569851Y1521707D01*
X26632144Y1487647D01*
X26643827Y1474165D01*
X26682716Y1422275D01*
X26695276Y1409715D01*
X26797351Y1333214D01*
X26812946Y1324676D01*
X26933394Y1279522D01*
X26948649Y1275895D01*
X26999514Y1270369D01*
X27006328Y1270000D01*
X27540885Y1270000D01*
X27556124Y1274475D01*
X27557329Y1275865D01*
X27559000Y1283548D01*
X27559000Y1288116D01*
X28067000Y1288116D01*
X28071475Y1272877D01*
X28072865Y1271672D01*
X28080548Y1270001D01*
X28619669Y1270001D01*
X28626490Y1270371D01*
X28677352Y1275895D01*
X28692604Y1279521D01*
X28813054Y1324676D01*
X28828649Y1333214D01*
X28930724Y1409715D01*
X28943285Y1422276D01*
X29019786Y1524351D01*
X29028324Y1539946D01*
X29073478Y1660394D01*
X29077105Y1675649D01*
X29082631Y1726514D01*
X29083000Y1733328D01*
X29083000Y2267885D01*
X29078525Y2283124D01*
X29077135Y2284329D01*
X29069452Y2286000D01*
X28085115Y2286000D01*
X28069876Y2281525D01*
X28068671Y2280135D01*
X28067000Y2272452D01*
X28067000Y1288116D01*
X27559000Y1288116D01*
X27559000Y2267885D01*
X27554525Y2283124D01*
X27553135Y2284329D01*
X27545452Y2286000D01*
X25545115Y2286000D01*
X25529876Y2281525D01*
X25528671Y2280135D01*
X25527000Y2272452D01*
X25527000Y1288116D01*
X25019000Y1288116D01*
X25019000Y2267885D01*
X25014525Y2283124D01*
X25013135Y2284329D01*
X25005452Y2286000D01*
X24021116Y2286000D01*
X24005877Y2281525D01*
X24004672Y2280135D01*
X24003001Y2272452D01*
X24003001Y1733331D01*
X889500Y1733331D01*
X889500Y14239366D01*
X5524000Y14239366D01*
X5530755Y14177184D01*
X5581885Y14040795D01*
X5669239Y13924239D01*
X5785795Y13836885D01*
X5922184Y13785755D01*
X5984366Y13779000D01*
X7477634Y13779000D01*
X7539816Y13785755D01*
X7676205Y13836885D01*
X7792761Y13924239D01*
X7880115Y14040795D01*
X7905657Y14108928D01*
X7948299Y14165692D01*
X8014860Y14190392D01*
X8084209Y14175185D01*
X8099204Y14165524D01*
X8174720Y14108928D01*
X8198795Y14090885D01*
X8335184Y14039755D01*
X8391060Y14033685D01*
X8393767Y14033391D01*
X8397366Y14033000D01*
X9382634Y14033000D01*
X9386234Y14033391D01*
X9388940Y14033685D01*
X9444816Y14039755D01*
X9581205Y14090885D01*
X9697761Y14178239D01*
X9741674Y14236832D01*
X9798533Y14279347D01*
X9869352Y14284373D01*
X9931645Y14250313D01*
X9943325Y14236833D01*
X9987239Y14178239D01*
X10103795Y14090885D01*
X10240184Y14039755D01*
X10296060Y14033685D01*
X10298767Y14033391D01*
X10302366Y14033000D01*
X11287634Y14033000D01*
X11291234Y14033391D01*
X11293940Y14033685D01*
X11349816Y14039755D01*
X11486205Y14090885D01*
X11602761Y14178239D01*
X11690115Y14294795D01*
X11693266Y14303201D01*
X11694508Y14305469D01*
X11744766Y14355615D01*
X11814157Y14370629D01*
X11865097Y14351578D01*
X11866740Y14354579D01*
X11874608Y14350271D01*
X11881795Y14344885D01*
X12018184Y14293755D01*
X12074060Y14287685D01*
X12074742Y14287611D01*
X12080366Y14287000D01*
X13573634Y14287000D01*
X13578237Y14287500D01*
X13627965Y14292902D01*
X13627966Y14292902D01*
X13635256Y14293694D01*
X13635258Y14293694D01*
X13635816Y14293755D01*
X13635826Y14293665D01*
X13702911Y14290161D01*
X13760554Y14248714D01*
X13786638Y14182683D01*
X13772882Y14113031D01*
X13761983Y14095719D01*
X13709885Y14026205D01*
X13658755Y13889816D01*
X13652000Y13827634D01*
X13652000Y12842366D01*
X13658755Y12780184D01*
X13709885Y12643795D01*
X13797239Y12527239D01*
X13913795Y12439885D01*
X13922203Y12436733D01*
X14024746Y12398291D01*
X14081510Y12355649D01*
X14106101Y12290524D01*
X14106880Y12280941D01*
X14109543Y12248205D01*
X14110140Y12240863D01*
X14112396Y12233899D01*
X14113587Y12227940D01*
X14114971Y12222085D01*
X14115818Y12214819D01*
X14140735Y12146173D01*
X14142152Y12142045D01*
X14164649Y12072601D01*
X14168445Y12066346D01*
X14170951Y12060872D01*
X14173670Y12055442D01*
X14176167Y12048563D01*
X14180180Y12042443D01*
X14180180Y12042442D01*
X14216186Y11987524D01*
X14218523Y11983820D01*
X14256405Y11921393D01*
X14260121Y11917185D01*
X14260122Y11917184D01*
X14263803Y11913016D01*
X14263776Y11912992D01*
X14266429Y11910000D01*
X14269132Y11906767D01*
X14273144Y11900648D01*
X14278456Y11895616D01*
X14329383Y11847372D01*
X14331825Y11844994D01*
X15108730Y11068089D01*
X15121116Y11053677D01*
X15129649Y11042082D01*
X15129654Y11042077D01*
X15133992Y11036182D01*
X15139570Y11031443D01*
X15139573Y11031440D01*
X15174268Y11001965D01*
X15181784Y10995035D01*
X15187479Y10989340D01*
X15190361Y10987060D01*
X15209751Y10971719D01*
X15213155Y10968928D01*
X15263203Y10926409D01*
X15268785Y10921667D01*
X15275301Y10918339D01*
X15280350Y10914972D01*
X15285479Y10911805D01*
X15291216Y10907266D01*
X15357375Y10876345D01*
X15361269Y10874442D01*
X15426308Y10841231D01*
X15433416Y10839492D01*
X15439059Y10837393D01*
X15444822Y10835476D01*
X15451450Y10832378D01*
X15458612Y10830888D01*
X15458613Y10830888D01*
X15522912Y10817514D01*
X15527196Y10816544D01*
X15598110Y10799192D01*
X15603712Y10798844D01*
X15603715Y10798844D01*
X15609264Y10798500D01*
X15609262Y10798464D01*
X15613255Y10798225D01*
X15617447Y10797851D01*
X15624615Y10796360D01*
X15702020Y10798454D01*
X15705428Y10798500D01*
X15812000Y10798500D01*
X15880121Y10778498D01*
X15926614Y10724842D01*
X15938000Y10672500D01*
X15938000Y9349866D01*
X15944755Y9287684D01*
X15995885Y9151295D01*
X16083239Y9034739D01*
X16199795Y8947385D01*
X16336184Y8896255D01*
X16392060Y8890185D01*
X16393773Y8889999D01*
X16398366Y8889500D01*
X16800597Y8889500D01*
X16857800Y8875767D01*
X16898926Y8854812D01*
X16904723Y8851664D01*
X16958223Y8820776D01*
X16963944Y8817473D01*
X16977326Y8813125D01*
X16995585Y8805562D01*
X17008130Y8799170D01*
X17014500Y8797463D01*
X17014503Y8797462D01*
X17053574Y8786993D01*
X17074212Y8781463D01*
X17080525Y8779593D01*
X17145572Y8758458D01*
X17159575Y8756986D01*
X17179004Y8753385D01*
X17192597Y8749743D01*
X17199194Y8749397D01*
X17199196Y8749397D01*
X17260884Y8746164D01*
X17267458Y8745647D01*
X17284616Y8743844D01*
X17284618Y8743844D01*
X17287890Y8743500D01*
X17308426Y8743500D01*
X17315020Y8743327D01*
X17376718Y8740093D01*
X17376723Y8740093D01*
X17383310Y8739748D01*
X17397208Y8741949D01*
X17416917Y8743500D01*
X17990658Y8743500D01*
X18034887Y8735482D01*
X18106789Y8708527D01*
X18106791Y8708527D01*
X18114184Y8705755D01*
X18122032Y8704902D01*
X18122034Y8704902D01*
X18172969Y8699369D01*
X18176366Y8699000D01*
X19669634Y8699000D01*
X19673031Y8699369D01*
X19723966Y8704902D01*
X19723968Y8704902D01*
X19731816Y8705755D01*
X19739209Y8708527D01*
X19739211Y8708527D01*
X19811113Y8735482D01*
X19855342Y8743500D01*
X20428500Y8743500D01*
X20496621Y8723498D01*
X20543114Y8669842D01*
X20554500Y8617500D01*
X20554500Y8446493D01*
X20534498Y8378372D01*
X20480842Y8331879D01*
X20459237Y8324457D01*
X20452684Y8323745D01*
X20445289Y8320973D01*
X20445286Y8320972D01*
X20330978Y8278120D01*
X20316295Y8272615D01*
X20199739Y8185261D01*
X20112385Y8068705D01*
X20061255Y7932316D01*
X20054500Y7870134D01*
X20054500Y5273866D01*
X20061255Y5211684D01*
X20112385Y5075295D01*
X20199739Y4958739D01*
X20316295Y4871385D01*
X20452684Y4820255D01*
X20514866Y4813500D01*
X21884497Y4813500D01*
X21952618Y4793498D01*
X21973592Y4776595D01*
X22255019Y4495168D01*
X22267860Y4480135D01*
X22276134Y4468747D01*
X22281043Y4464327D01*
X22326959Y4422984D01*
X22331744Y4418443D01*
X22346259Y4403928D01*
X22348823Y4401852D01*
X22362216Y4391006D01*
X22367231Y4386722D01*
X22413145Y4345381D01*
X22413150Y4345377D01*
X22418056Y4340960D01*
X22423772Y4337660D01*
X22423776Y4337657D01*
X22430237Y4333927D01*
X22446533Y4322727D01*
X22457470Y4313871D01*
X22463348Y4310876D01*
X22463351Y4310874D01*
X22518426Y4282812D01*
X22524223Y4279664D01*
X22541194Y4269866D01*
X22583444Y4245473D01*
X22596826Y4241125D01*
X22615085Y4233562D01*
X22627630Y4227170D01*
X22634000Y4225463D01*
X22634003Y4225462D01*
X22671033Y4215540D01*
X22693712Y4209463D01*
X22700025Y4207593D01*
X22765072Y4186458D01*
X22779075Y4184986D01*
X22798504Y4181385D01*
X22812097Y4177743D01*
X22818694Y4177397D01*
X22818696Y4177397D01*
X22880384Y4174164D01*
X22886958Y4173647D01*
X22904116Y4171844D01*
X22904118Y4171844D01*
X22907390Y4171500D01*
X22927926Y4171500D01*
X22934520Y4171327D01*
X22996218Y4168093D01*
X22996223Y4168093D01*
X23002810Y4167748D01*
X23009326Y4168780D01*
X23009327Y4168780D01*
X23016707Y4169949D01*
X23036417Y4171500D01*
X23935492Y4171500D01*
X24003613Y4151498D01*
X24050106Y4097842D01*
X24053473Y4089732D01*
X24060385Y4071295D01*
X24065765Y4064116D01*
X24065767Y4064113D01*
X24093722Y4026813D01*
X24147739Y3954739D01*
X24206749Y3910513D01*
X24249264Y3853656D01*
X24254290Y3782837D01*
X24220230Y3720544D01*
X24206749Y3708862D01*
X24155276Y3670285D01*
X24142715Y3657724D01*
X24066214Y3555649D01*
X24057676Y3540054D01*
X24012522Y3419606D01*
X24008895Y3404351D01*
X24003369Y3353486D01*
X24003000Y3346672D01*
X24003000Y2812115D01*
X24007475Y2796876D01*
X24008865Y2795671D01*
X24016548Y2794000D01*
X29064884Y2794000D01*
X29080123Y2798475D01*
X29081328Y2799865D01*
X29082999Y2807548D01*
X29082999Y3346669D01*
X29082629Y3353490D01*
X29077105Y3404352D01*
X29073479Y3419604D01*
X29028324Y3540054D01*
X29019786Y3555649D01*
X28943285Y3657724D01*
X28930724Y3670285D01*
X28879251Y3708862D01*
X28836736Y3765721D01*
X28831710Y3836540D01*
X28865770Y3898833D01*
X28879245Y3910509D01*
X28938261Y3954739D01*
X29025615Y4071295D01*
X29076745Y4207684D01*
X29083500Y4269866D01*
X29083500Y5890134D01*
X29076745Y5952316D01*
X29025615Y6088705D01*
X28938261Y6205261D01*
X28879251Y6249487D01*
X28836736Y6306344D01*
X28831710Y6377163D01*
X28865770Y6439456D01*
X28879251Y6451138D01*
X28930724Y6489715D01*
X28943285Y6502276D01*
X29019786Y6604351D01*
X29028324Y6619946D01*
X29073478Y6740394D01*
X29077105Y6755649D01*
X29082631Y6806514D01*
X29083000Y6813328D01*
X29083000Y7347885D01*
X29078525Y7363124D01*
X29077135Y7364329D01*
X29069452Y7366000D01*
X24021116Y7366000D01*
X24005877Y7361525D01*
X24004672Y7360135D01*
X24003001Y7352452D01*
X24003001Y6813331D01*
X24003371Y6806510D01*
X24008895Y6755648D01*
X24012521Y6740396D01*
X24057676Y6619946D01*
X24066214Y6604351D01*
X24142715Y6502276D01*
X24155276Y6489715D01*
X24206749Y6451138D01*
X24249264Y6394279D01*
X24254290Y6323460D01*
X24220230Y6261167D01*
X24206755Y6249491D01*
X24147739Y6205261D01*
X24142358Y6198081D01*
X24065767Y6095887D01*
X24065765Y6095884D01*
X24060385Y6088705D01*
X24057236Y6080304D01*
X24057234Y6080301D01*
X24053473Y6070268D01*
X24010831Y6013504D01*
X23944269Y5988806D01*
X23935492Y5988500D01*
X23383503Y5988500D01*
X23315382Y6008502D01*
X23294408Y6025405D01*
X22908405Y6411408D01*
X22874379Y6473720D01*
X22871500Y6500503D01*
X22871500Y7870134D01*
X22869112Y7892115D01*
X24003000Y7892115D01*
X24007475Y7876876D01*
X24008865Y7875671D01*
X24016548Y7874000D01*
X25000885Y7874000D01*
X25016124Y7878475D01*
X25017329Y7879865D01*
X25019000Y7887548D01*
X25019000Y7892115D01*
X25527000Y7892115D01*
X25531475Y7876876D01*
X25532865Y7875671D01*
X25540548Y7874000D01*
X27540885Y7874000D01*
X27556124Y7878475D01*
X27557329Y7879865D01*
X27559000Y7887548D01*
X27559000Y7892115D01*
X28067000Y7892115D01*
X28071475Y7876876D01*
X28072865Y7875671D01*
X28080548Y7874000D01*
X29064884Y7874000D01*
X29080123Y7878475D01*
X29081328Y7879865D01*
X29082999Y7887548D01*
X29082999Y8426669D01*
X29082629Y8433490D01*
X29077105Y8484352D01*
X29073479Y8499604D01*
X29028324Y8620054D01*
X29019786Y8635649D01*
X28943285Y8737724D01*
X28930724Y8750285D01*
X28828649Y8826786D01*
X28813054Y8835324D01*
X28692606Y8880478D01*
X28677351Y8884105D01*
X28626486Y8889631D01*
X28619672Y8890000D01*
X28085115Y8890000D01*
X28069876Y8885525D01*
X28068671Y8884135D01*
X28067000Y8876452D01*
X28067000Y7892115D01*
X27559000Y7892115D01*
X27559000Y8871884D01*
X27554525Y8887123D01*
X27553135Y8888328D01*
X27545452Y8889999D01*
X27006331Y8889999D01*
X26999510Y8889629D01*
X26948648Y8884105D01*
X26933396Y8880479D01*
X26812946Y8835324D01*
X26797351Y8826786D01*
X26695276Y8750285D01*
X26682716Y8737725D01*
X26643827Y8685835D01*
X26586968Y8643319D01*
X26516149Y8638293D01*
X26453856Y8672353D01*
X26442173Y8685835D01*
X26403284Y8737725D01*
X26390724Y8750285D01*
X26288649Y8826786D01*
X26273054Y8835324D01*
X26152606Y8880478D01*
X26137351Y8884105D01*
X26086486Y8889631D01*
X26079672Y8890000D01*
X25545115Y8890000D01*
X25529876Y8885525D01*
X25528671Y8884135D01*
X25527000Y8876452D01*
X25527000Y7892115D01*
X25019000Y7892115D01*
X25019000Y8871884D01*
X25014525Y8887123D01*
X25013135Y8888328D01*
X25005452Y8889999D01*
X24466331Y8889999D01*
X24459510Y8889629D01*
X24408648Y8884105D01*
X24393396Y8880479D01*
X24272946Y8835324D01*
X24257351Y8826786D01*
X24155276Y8750285D01*
X24142715Y8737724D01*
X24066214Y8635649D01*
X24057676Y8620054D01*
X24012522Y8499606D01*
X24008895Y8484351D01*
X24003369Y8433486D01*
X24003000Y8426672D01*
X24003000Y7892115D01*
X22869112Y7892115D01*
X22864745Y7932316D01*
X22813615Y8068705D01*
X22726261Y8185261D01*
X22609705Y8272615D01*
X22595022Y8278120D01*
X22480714Y8320972D01*
X22480711Y8320973D01*
X22473316Y8323745D01*
X22467547Y8324372D01*
X22406709Y8359126D01*
X22373887Y8422081D01*
X22371500Y8446493D01*
X22371500Y8783820D01*
X22391502Y8851941D01*
X22445158Y8898434D01*
X22497500Y8909820D01*
X23817454Y8909820D01*
X23879636Y8916575D01*
X24016025Y8967705D01*
X24132581Y9055059D01*
X24219935Y9171615D01*
X24271065Y9308004D01*
X24277820Y9370186D01*
X24277820Y11965814D01*
X24271065Y12027996D01*
X24219935Y12164385D01*
X24132581Y12280941D01*
X24016025Y12368295D01*
X23879636Y12419425D01*
X23817454Y12426180D01*
X21171026Y12426180D01*
X21108844Y12419425D01*
X20972455Y12368295D01*
X20855899Y12280941D01*
X20768545Y12164385D01*
X20717415Y12027996D01*
X20710660Y11965814D01*
X20710660Y10686500D01*
X20690658Y10618379D01*
X20637002Y10571886D01*
X20584660Y10560500D01*
X20095200Y10560500D01*
X20027079Y10580502D01*
X19980586Y10634158D01*
X19970482Y10704432D01*
X19994374Y10762065D01*
X20066729Y10858608D01*
X20066730Y10858610D01*
X20072115Y10865795D01*
X20123245Y11002184D01*
X20130000Y11064366D01*
X20130000Y12049634D01*
X20123245Y12111816D01*
X20072115Y12248205D01*
X20021329Y12315969D01*
X19996481Y12382474D01*
X19996892Y12405141D01*
X19999138Y12425811D01*
X20003000Y12461366D01*
X20003000Y13954634D01*
X19996245Y14016816D01*
X19990032Y14033391D01*
X19966518Y14096113D01*
X19958500Y14140342D01*
X19958500Y14307658D01*
X19966518Y14351887D01*
X19993473Y14423789D01*
X19993473Y14423791D01*
X19996245Y14431184D01*
X20003000Y14493366D01*
X20003000Y14941331D01*
X24003001Y14941331D01*
X24003371Y14934510D01*
X24008895Y14883648D01*
X24012521Y14868396D01*
X24057676Y14747946D01*
X24066214Y14732351D01*
X24142715Y14630276D01*
X24155276Y14617715D01*
X24257351Y14541214D01*
X24272946Y14532676D01*
X24393394Y14487522D01*
X24408649Y14483895D01*
X24459514Y14478369D01*
X24466328Y14478000D01*
X25000885Y14478000D01*
X25016124Y14482475D01*
X25017329Y14483865D01*
X25019000Y14491548D01*
X25019000Y14496116D01*
X25527000Y14496116D01*
X25531475Y14480877D01*
X25532865Y14479672D01*
X25540548Y14478001D01*
X26079669Y14478001D01*
X26086490Y14478371D01*
X26137352Y14483895D01*
X26152604Y14487521D01*
X26273054Y14532676D01*
X26288649Y14541214D01*
X26390724Y14617715D01*
X26403284Y14630275D01*
X26442173Y14682165D01*
X26499032Y14724681D01*
X26569851Y14729707D01*
X26632144Y14695647D01*
X26643827Y14682165D01*
X26682716Y14630275D01*
X26695276Y14617715D01*
X26797351Y14541214D01*
X26812946Y14532676D01*
X26933394Y14487522D01*
X26948649Y14483895D01*
X26999514Y14478369D01*
X27006328Y14478000D01*
X27540885Y14478000D01*
X27556124Y14482475D01*
X27557329Y14483865D01*
X27559000Y14491548D01*
X27559000Y14496116D01*
X28067000Y14496116D01*
X28071475Y14480877D01*
X28072865Y14479672D01*
X28080548Y14478001D01*
X28619669Y14478001D01*
X28626490Y14478371D01*
X28677352Y14483895D01*
X28692604Y14487521D01*
X28813054Y14532676D01*
X28828649Y14541214D01*
X28930724Y14617715D01*
X28943285Y14630276D01*
X29019786Y14732351D01*
X29028324Y14747946D01*
X29073478Y14868394D01*
X29077105Y14883649D01*
X29082631Y14934514D01*
X29083000Y14941328D01*
X29083000Y15475885D01*
X29078525Y15491124D01*
X29077135Y15492329D01*
X29069452Y15494000D01*
X28085115Y15494000D01*
X28069876Y15489525D01*
X28068671Y15488135D01*
X28067000Y15480452D01*
X28067000Y14496116D01*
X27559000Y14496116D01*
X27559000Y15475885D01*
X27554525Y15491124D01*
X27553135Y15492329D01*
X27545452Y15494000D01*
X25545115Y15494000D01*
X25529876Y15489525D01*
X25528671Y15488135D01*
X25527000Y15480452D01*
X25527000Y14496116D01*
X25019000Y14496116D01*
X25019000Y15475885D01*
X25014525Y15491124D01*
X25013135Y15492329D01*
X25005452Y15494000D01*
X24021116Y15494000D01*
X24005877Y15489525D01*
X24004672Y15488135D01*
X24003001Y15480452D01*
X24003001Y14941331D01*
X20003000Y14941331D01*
X20003000Y15986500D01*
X20023002Y16054621D01*
X20076658Y16101114D01*
X20129000Y16112500D01*
X21121930Y16112500D01*
X21140880Y16111067D01*
X21155115Y16108901D01*
X21155119Y16108901D01*
X21162349Y16107801D01*
X21169641Y16108394D01*
X21169644Y16108394D01*
X21215018Y16112085D01*
X21225233Y16112500D01*
X21233293Y16112500D01*
X21246583Y16114049D01*
X21261507Y16115789D01*
X21265882Y16116222D01*
X21331339Y16121546D01*
X21331342Y16121547D01*
X21338637Y16122140D01*
X21345601Y16124396D01*
X21351560Y16125587D01*
X21357415Y16126971D01*
X21364681Y16127818D01*
X21433327Y16152735D01*
X21437455Y16154152D01*
X21499936Y16174393D01*
X21499938Y16174394D01*
X21506899Y16176649D01*
X21513154Y16180445D01*
X21518628Y16182951D01*
X21524058Y16185670D01*
X21530937Y16188167D01*
X21537746Y16192631D01*
X21591976Y16228186D01*
X21595680Y16230523D01*
X21658107Y16268405D01*
X21666484Y16275803D01*
X21666508Y16275776D01*
X21669500Y16278429D01*
X21672733Y16281132D01*
X21678852Y16285144D01*
X21732128Y16341383D01*
X21734506Y16343825D01*
X22434776Y17044095D01*
X22497088Y17078121D01*
X22523871Y17081000D01*
X22844634Y17081000D01*
X22906816Y17087755D01*
X23043205Y17138885D01*
X23159761Y17226239D01*
X23247115Y17342795D01*
X23298245Y17479184D01*
X23305000Y17541366D01*
X23305000Y19034634D01*
X23306017Y19034634D01*
X23321316Y19099590D01*
X23361769Y19142693D01*
X23389981Y19161189D01*
X23393680Y19163523D01*
X23456107Y19201405D01*
X23464484Y19208803D01*
X23464508Y19208776D01*
X23467500Y19211429D01*
X23470733Y19214132D01*
X23476852Y19218144D01*
X23530128Y19274383D01*
X23532506Y19276825D01*
X23964884Y19709203D01*
X24027196Y19743229D01*
X24098011Y19738164D01*
X24142728Y19709426D01*
X24147739Y19702739D01*
X24154919Y19697358D01*
X24206332Y19658826D01*
X24248847Y19601967D01*
X24253873Y19531148D01*
X24219813Y19468855D01*
X24206333Y19457175D01*
X24147739Y19413261D01*
X24060385Y19296705D01*
X24009255Y19160316D01*
X24002500Y19098134D01*
X24002500Y17477866D01*
X24009255Y17415684D01*
X24060385Y17279295D01*
X24147739Y17162739D01*
X24206749Y17118513D01*
X24249264Y17061656D01*
X24254290Y16990837D01*
X24220230Y16928544D01*
X24206749Y16916862D01*
X24155276Y16878285D01*
X24142715Y16865724D01*
X24066214Y16763649D01*
X24057676Y16748054D01*
X24012522Y16627606D01*
X24008895Y16612351D01*
X24003369Y16561486D01*
X24003000Y16554672D01*
X24003000Y16020115D01*
X24007475Y16004876D01*
X24008865Y16003671D01*
X24016548Y16002000D01*
X29064884Y16002000D01*
X29080123Y16006475D01*
X29081328Y16007865D01*
X29082999Y16015548D01*
X29082999Y16554669D01*
X29082629Y16561490D01*
X29077105Y16612352D01*
X29073479Y16627604D01*
X29028324Y16748054D01*
X29019786Y16763649D01*
X28943285Y16865724D01*
X28930724Y16878285D01*
X28879251Y16916862D01*
X28836736Y16973721D01*
X28831710Y17044540D01*
X28865770Y17106833D01*
X28879245Y17118509D01*
X28938261Y17162739D01*
X29025615Y17279295D01*
X29076745Y17415684D01*
X29083500Y17477866D01*
X29083500Y19098134D01*
X29076745Y19160316D01*
X29025615Y19296705D01*
X28938261Y19413261D01*
X28879668Y19457174D01*
X28837153Y19514033D01*
X28832127Y19584852D01*
X28866187Y19647145D01*
X28879668Y19658826D01*
X28931081Y19697358D01*
X28938261Y19702739D01*
X29025615Y19819295D01*
X29076745Y19955684D01*
X29083500Y20017866D01*
X29083500Y21638134D01*
X29076745Y21700316D01*
X29025615Y21836705D01*
X28938261Y21953261D01*
X28879668Y21997174D01*
X28837153Y22054033D01*
X28832127Y22124852D01*
X28866187Y22187145D01*
X28879668Y22198826D01*
X28931081Y22237358D01*
X28938261Y22242739D01*
X29025615Y22359295D01*
X29076745Y22495684D01*
X29083500Y22557866D01*
X29083500Y24178134D01*
X29076745Y24240316D01*
X29025615Y24376705D01*
X28938261Y24493261D01*
X28821705Y24580615D01*
X28685316Y24631745D01*
X28623134Y24638500D01*
X27002866Y24638500D01*
X26940684Y24631745D01*
X26804295Y24580615D01*
X26687739Y24493261D01*
X26682358Y24486081D01*
X26643826Y24434668D01*
X26586967Y24392153D01*
X26516148Y24387127D01*
X26453855Y24421187D01*
X26442174Y24434668D01*
X26403642Y24486081D01*
X26398261Y24493261D01*
X26281705Y24580615D01*
X26145316Y24631745D01*
X26083134Y24638500D01*
X24462866Y24638500D01*
X24400684Y24631745D01*
X24264295Y24580615D01*
X24147739Y24493261D01*
X24060385Y24376705D01*
X24009255Y24240316D01*
X24002500Y24178134D01*
X24002500Y22557866D01*
X24009255Y22495684D01*
X24060385Y22359295D01*
X24147739Y22242739D01*
X24154919Y22237358D01*
X24206332Y22198826D01*
X24248847Y22141967D01*
X24253873Y22071148D01*
X24219813Y22008855D01*
X24206333Y21997175D01*
X24147739Y21953261D01*
X24060385Y21836705D01*
X24009255Y21700316D01*
X24008290Y21691432D01*
X24007980Y21690686D01*
X24006575Y21684778D01*
X24005620Y21685005D01*
X23981051Y21625872D01*
X23922689Y21585443D01*
X23893242Y21579453D01*
X23868662Y21577454D01*
X23868659Y21577453D01*
X23861364Y21576860D01*
X23854400Y21574604D01*
X23848461Y21573417D01*
X23842590Y21572030D01*
X23835319Y21571182D01*
X23828443Y21568686D01*
X23828434Y21568684D01*
X23766702Y21546275D01*
X23762598Y21544865D01*
X23693101Y21522352D01*
X23686846Y21518556D01*
X23681387Y21516057D01*
X23675939Y21513329D01*
X23669063Y21510833D01*
X23608010Y21470805D01*
X23604327Y21468481D01*
X23546686Y21433504D01*
X23546682Y21433501D01*
X23541893Y21430595D01*
X23537694Y21426886D01*
X23537689Y21426883D01*
X23533516Y21423197D01*
X23533492Y21423224D01*
X23530500Y21420571D01*
X23527267Y21417868D01*
X23521148Y21413856D01*
X23516116Y21408544D01*
X23467872Y21357617D01*
X23465494Y21355175D01*
X23393095Y21282776D01*
X23330783Y21248750D01*
X23259968Y21253815D01*
X23203132Y21296362D01*
X23178321Y21362882D01*
X23178000Y21371871D01*
X23178000Y21828634D01*
X23171245Y21890816D01*
X23120115Y22027205D01*
X23032761Y22143761D01*
X22916205Y22231115D01*
X22779816Y22282245D01*
X22717634Y22289000D01*
X21224366Y22289000D01*
X21162184Y22282245D01*
X21025795Y22231115D01*
X21018610Y22225730D01*
X21018608Y22225729D01*
X20926204Y22156476D01*
X20859697Y22131628D01*
X20790315Y22146681D01*
X20740085Y22196855D01*
X20732657Y22213072D01*
X20710267Y22272797D01*
X20707115Y22281205D01*
X20619761Y22397761D01*
X20503205Y22485115D01*
X20366816Y22536245D01*
X20304634Y22543000D01*
X19319366Y22543000D01*
X19257184Y22536245D01*
X19120795Y22485115D01*
X19004239Y22397761D01*
X18963833Y22343847D01*
X18960326Y22339168D01*
X18903467Y22296653D01*
X18832648Y22291627D01*
X18770355Y22325687D01*
X18758674Y22339168D01*
X18755167Y22343847D01*
X18714761Y22397761D01*
X18598205Y22485115D01*
X18461816Y22536245D01*
X18399634Y22543000D01*
X17414366Y22543000D01*
X17352184Y22536245D01*
X17215795Y22485115D01*
X17099239Y22397761D01*
X17011885Y22281205D01*
X16960755Y22144816D01*
X16954000Y22082634D01*
X16954000Y20589366D01*
X16960755Y20527184D01*
X16963527Y20519791D01*
X16963527Y20519789D01*
X16992899Y20441440D01*
X17000227Y20384041D01*
X16993496Y20320000D01*
X17002387Y20235412D01*
X17004987Y20210671D01*
X16992215Y20140832D01*
X16943713Y20088985D01*
X16879677Y20071500D01*
X15804866Y20071500D01*
X15801471Y20071131D01*
X15801467Y20071131D01*
X15757107Y20066312D01*
X15687225Y20078840D01*
X15635209Y20127161D01*
X15617500Y20191575D01*
X15617500Y20291001D01*
X15634381Y20354001D01*
X15690223Y20450721D01*
X15690224Y20450722D01*
X15693527Y20456444D01*
X15752542Y20638072D01*
X15772504Y20828000D01*
X15752542Y21017928D01*
X15693527Y21199556D01*
X15662201Y21253815D01*
X15603680Y21355175D01*
X15598040Y21364944D01*
X15558783Y21408544D01*
X15474675Y21501955D01*
X15474674Y21501956D01*
X15470253Y21506866D01*
X15365525Y21582956D01*
X15321094Y21615237D01*
X15321093Y21615238D01*
X15315752Y21619118D01*
X15309724Y21621802D01*
X15309722Y21621803D01*
X15147319Y21694109D01*
X15147318Y21694109D01*
X15141288Y21696794D01*
X15042797Y21717729D01*
X14960944Y21735128D01*
X14960939Y21735128D01*
X14954487Y21736500D01*
X14763513Y21736500D01*
X14757061Y21735128D01*
X14757056Y21735128D01*
X14675203Y21717729D01*
X14576712Y21696794D01*
X14570682Y21694109D01*
X14570681Y21694109D01*
X14533831Y21677702D01*
X14480336Y21653885D01*
X14409970Y21644451D01*
X14353523Y21668166D01*
X14322475Y21691435D01*
X14280205Y21723115D01*
X14143816Y21774245D01*
X14081634Y21781000D01*
X12588366Y21781000D01*
X12526184Y21774245D01*
X12389795Y21723115D01*
X12273239Y21635761D01*
X12185885Y21519205D01*
X12134755Y21382816D01*
X12128000Y21320634D01*
X12128000Y20335366D01*
X12134755Y20273184D01*
X12185885Y20136795D01*
X12273239Y20020239D01*
X12280419Y20014858D01*
X12331832Y19976326D01*
X12374347Y19919467D01*
X12379373Y19848648D01*
X12345313Y19786355D01*
X12331833Y19774675D01*
X12273239Y19730761D01*
X12185885Y19614205D01*
X12134755Y19477816D01*
X12128000Y19415634D01*
X12128000Y18430366D01*
X12134755Y18368184D01*
X12185885Y18231795D01*
X12273239Y18115239D01*
X12389795Y18027885D01*
X12526184Y17976755D01*
X12588366Y17970000D01*
X13163129Y17970000D01*
X13231250Y17949998D01*
X13252224Y17933095D01*
X13386230Y17799089D01*
X13398616Y17784677D01*
X13407149Y17773082D01*
X13407154Y17773077D01*
X13411492Y17767182D01*
X13417070Y17762443D01*
X13417073Y17762440D01*
X13451768Y17732965D01*
X13459284Y17726035D01*
X13464980Y17720339D01*
X13467841Y17718076D01*
X13467846Y17718071D01*
X13487256Y17702715D01*
X13490658Y17699926D01*
X13546285Y17652667D01*
X13552802Y17649339D01*
X13557850Y17645973D01*
X13562972Y17642810D01*
X13568716Y17638265D01*
X13634895Y17607336D01*
X13638779Y17605437D01*
X13703808Y17572231D01*
X13710923Y17570490D01*
X13716578Y17568387D01*
X13722317Y17566478D01*
X13728950Y17563378D01*
X13793199Y17550014D01*
X13800409Y17548514D01*
X13804700Y17547543D01*
X13810519Y17546119D01*
X13854631Y17525665D01*
X13888904Y17500764D01*
X13888909Y17500761D01*
X13894248Y17496882D01*
X13900275Y17494199D01*
X13900276Y17494198D01*
X14062681Y17421891D01*
X14068712Y17419206D01*
X14210850Y17388993D01*
X14273322Y17355266D01*
X14307644Y17293116D01*
X14302916Y17222277D01*
X14283469Y17187573D01*
X14273721Y17175251D01*
X14270928Y17171845D01*
X14240249Y17135733D01*
X14223667Y17116215D01*
X14220339Y17109699D01*
X14216972Y17104650D01*
X14213805Y17099521D01*
X14209266Y17093784D01*
X14178345Y17027625D01*
X14176442Y17023731D01*
X14143231Y16958692D01*
X14141492Y16951584D01*
X14139393Y16945941D01*
X14137476Y16940178D01*
X14134378Y16933550D01*
X14132888Y16926388D01*
X14132888Y16926387D01*
X14119514Y16862088D01*
X14118544Y16857804D01*
X14101192Y16786890D01*
X14100500Y16775736D01*
X14100464Y16775738D01*
X14100225Y16771745D01*
X14099851Y16767553D01*
X14098360Y16760385D01*
X14098558Y16753068D01*
X14100454Y16682979D01*
X14100500Y16679572D01*
X14100500Y16292435D01*
X14080498Y16224314D01*
X14026842Y16177821D01*
X14018730Y16174453D01*
X13913795Y16135115D01*
X13906615Y16129734D01*
X13903508Y16128033D01*
X13834151Y16112864D01*
X13782492Y16128033D01*
X13779385Y16129734D01*
X13772205Y16135115D01*
X13635816Y16186245D01*
X13579940Y16192315D01*
X13577031Y16192631D01*
X13573634Y16193000D01*
X12080366Y16193000D01*
X12076969Y16192631D01*
X12074060Y16192315D01*
X12018184Y16186245D01*
X11881795Y16135115D01*
X11874608Y16129729D01*
X11866740Y16125421D01*
X11865095Y16128425D01*
X11814097Y16109367D01*
X11744713Y16124414D01*
X11694508Y16174531D01*
X11693266Y16176799D01*
X11690115Y16185205D01*
X11684730Y16192391D01*
X11608142Y16294581D01*
X11602761Y16301761D01*
X11486205Y16389115D01*
X11349816Y16440245D01*
X11287634Y16447000D01*
X10302366Y16447000D01*
X10240184Y16440245D01*
X10103795Y16389115D01*
X9987239Y16301761D01*
X9981858Y16294581D01*
X9943326Y16243168D01*
X9886467Y16200653D01*
X9815648Y16195627D01*
X9753355Y16229687D01*
X9741674Y16243168D01*
X9703142Y16294581D01*
X9697761Y16301761D01*
X9581205Y16389115D01*
X9444816Y16440245D01*
X9382634Y16447000D01*
X8711341Y16447000D01*
X8661943Y16458881D01*
X8661574Y16457888D01*
X8654710Y16460441D01*
X8648192Y16463769D01*
X8641085Y16465508D01*
X8635441Y16467607D01*
X8629678Y16469524D01*
X8623050Y16472622D01*
X8551583Y16487487D01*
X8547299Y16488457D01*
X8476390Y16505808D01*
X8470788Y16506156D01*
X8470785Y16506156D01*
X8465236Y16506500D01*
X8465238Y16506536D01*
X8461245Y16506775D01*
X8457053Y16507149D01*
X8449885Y16508640D01*
X8383675Y16506849D01*
X8372479Y16506546D01*
X8369072Y16506500D01*
X8289587Y16506500D01*
X8215528Y16530563D01*
X8209098Y16535235D01*
X8209091Y16535239D01*
X8203752Y16539118D01*
X8197724Y16541802D01*
X8197722Y16541803D01*
X8035319Y16614109D01*
X8035318Y16614109D01*
X8029288Y16616794D01*
X7935887Y16636647D01*
X7848944Y16655128D01*
X7848939Y16655128D01*
X7842487Y16656500D01*
X7651513Y16656500D01*
X7645061Y16655128D01*
X7645056Y16655128D01*
X7558113Y16636647D01*
X7464712Y16616794D01*
X7458682Y16614109D01*
X7458681Y16614109D01*
X7296278Y16541803D01*
X7296276Y16541802D01*
X7290248Y16539118D01*
X7284907Y16535238D01*
X7284906Y16535237D01*
X7278473Y16530563D01*
X7135747Y16426866D01*
X7131326Y16421956D01*
X7131325Y16421955D01*
X7060977Y16343825D01*
X7007960Y16284944D01*
X6956393Y16195627D01*
X6916348Y16126267D01*
X6912473Y16119556D01*
X6874277Y16002000D01*
X6857613Y15950715D01*
X6826875Y15900556D01*
X6648224Y15721905D01*
X6585912Y15687879D01*
X6559129Y15685000D01*
X5984366Y15685000D01*
X5922184Y15678245D01*
X5785795Y15627115D01*
X5669239Y15539761D01*
X5581885Y15423205D01*
X5530755Y15286816D01*
X5524000Y15224634D01*
X5524000Y14239366D01*
X889500Y14239366D01*
X889500Y29733366D01*
X8445000Y29733366D01*
X8451755Y29671184D01*
X8454527Y29663791D01*
X8454527Y29663789D01*
X8481482Y29591887D01*
X8489500Y29547658D01*
X8489500Y29037417D01*
X8487949Y29017708D01*
X8485748Y29003810D01*
X8486093Y28997223D01*
X8486093Y28997218D01*
X8489327Y28935520D01*
X8489500Y28928926D01*
X8489500Y28908390D01*
X8489844Y28905118D01*
X8489844Y28905116D01*
X8491647Y28887958D01*
X8492164Y28881384D01*
X8495743Y28813097D01*
X8497453Y28806716D01*
X8497453Y28806714D01*
X8499383Y28799509D01*
X8502985Y28780075D01*
X8503766Y28772646D01*
X8503768Y28772637D01*
X8504458Y28766072D01*
X8525600Y28701003D01*
X8527467Y28694701D01*
X8545171Y28628630D01*
X8549647Y28619845D01*
X8551559Y28616093D01*
X8559125Y28597827D01*
X8563473Y28584444D01*
X8566776Y28578722D01*
X8566777Y28578721D01*
X8582803Y28550964D01*
X8597149Y28526116D01*
X8597667Y28525218D01*
X8600814Y28519423D01*
X8631871Y28458470D01*
X8636024Y28453342D01*
X8636025Y28453340D01*
X8640727Y28447534D01*
X8651927Y28431237D01*
X8655657Y28424776D01*
X8655660Y28424772D01*
X8658960Y28419056D01*
X8663377Y28414150D01*
X8663381Y28414145D01*
X8704722Y28368231D01*
X8709006Y28363216D01*
X8721928Y28347259D01*
X8736443Y28332744D01*
X8740984Y28327959D01*
X8786747Y28277134D01*
X8792086Y28273255D01*
X8792087Y28273254D01*
X8798135Y28268860D01*
X8813168Y28256019D01*
X9678095Y27391092D01*
X9712121Y27328780D01*
X9715000Y27301997D01*
X9715000Y26685366D01*
X9721755Y26623184D01*
X9772885Y26486795D01*
X9860239Y26370239D01*
X9976795Y26282885D01*
X10113184Y26231755D01*
X10175366Y26225000D01*
X10537997Y26225000D01*
X10606118Y26204998D01*
X10627092Y26188095D01*
X10738595Y26076592D01*
X10772621Y26014280D01*
X10775500Y25987497D01*
X10775500Y25824342D01*
X10767482Y25780113D01*
X10737755Y25700816D01*
X10731000Y25638634D01*
X10731000Y24145366D01*
X10737755Y24083184D01*
X10788885Y23946795D01*
X10876239Y23830239D01*
X10992795Y23742885D01*
X11129184Y23691755D01*
X11191366Y23685000D01*
X12176634Y23685000D01*
X12238816Y23691755D01*
X12375205Y23742885D01*
X12491761Y23830239D01*
X12497143Y23837420D01*
X12575506Y23941979D01*
X12632365Y23984494D01*
X12702530Y23989660D01*
X12725049Y23984873D01*
X12725058Y23984872D01*
X12731513Y23983500D01*
X12922487Y23983500D01*
X12928939Y23984872D01*
X12928944Y23984872D01*
X13050894Y24010794D01*
X13109288Y24023206D01*
X13227383Y24075785D01*
X13277722Y24098197D01*
X13277724Y24098198D01*
X13283752Y24100882D01*
X13438253Y24213134D01*
X13566040Y24355056D01*
X13624314Y24455990D01*
X13658223Y24514721D01*
X13658224Y24514722D01*
X13661527Y24520444D01*
X13720542Y24702072D01*
X13728699Y24779676D01*
X13739814Y24885435D01*
X13740504Y24892000D01*
X13729491Y24996780D01*
X13721232Y25075365D01*
X13721232Y25075367D01*
X13720542Y25081928D01*
X13661527Y25263556D01*
X13566040Y25428944D01*
X13438253Y25570866D01*
X13283752Y25683118D01*
X13277724Y25685802D01*
X13277722Y25685803D01*
X13115319Y25758109D01*
X13115318Y25758109D01*
X13109288Y25760794D01*
X13015888Y25780647D01*
X12928944Y25799128D01*
X12928939Y25799128D01*
X12922487Y25800500D01*
X12731513Y25800500D01*
X12729875Y25800152D01*
X12661835Y25812593D01*
X12609987Y25861094D01*
X12592500Y25925132D01*
X12592500Y26144121D01*
X12612502Y26212242D01*
X12666158Y26258735D01*
X12736432Y26268839D01*
X12762729Y26262103D01*
X12836282Y26234529D01*
X12836288Y26234527D01*
X12843684Y26231755D01*
X12905866Y26225000D01*
X13891134Y26225000D01*
X13953316Y26231755D01*
X14089705Y26282885D01*
X14206261Y26370239D01*
X14250174Y26428832D01*
X14307033Y26471347D01*
X14377852Y26476373D01*
X14440145Y26442313D01*
X14451825Y26428833D01*
X14495739Y26370239D01*
X14612295Y26282885D01*
X14748684Y26231755D01*
X14810866Y26225000D01*
X15173497Y26225000D01*
X15241618Y26204998D01*
X15262592Y26188095D01*
X16127519Y25323168D01*
X16140360Y25308135D01*
X16148634Y25296747D01*
X16153543Y25292327D01*
X16199459Y25250984D01*
X16204244Y25246443D01*
X16218759Y25231928D01*
X16234720Y25219003D01*
X16239721Y25214731D01*
X16285645Y25173381D01*
X16285650Y25173377D01*
X16290556Y25168960D01*
X16302737Y25161927D01*
X16319026Y25150733D01*
X16329969Y25141871D01*
X16335849Y25138875D01*
X16335852Y25138873D01*
X16390926Y25110812D01*
X16396720Y25107665D01*
X16455944Y25073473D01*
X16462226Y25071432D01*
X16462228Y25071431D01*
X16469326Y25069125D01*
X16487592Y25061560D01*
X16500130Y25055171D01*
X16506506Y25053462D01*
X16506510Y25053461D01*
X16566185Y25037471D01*
X16572510Y25035598D01*
X16637572Y25014458D01*
X16644140Y25013768D01*
X16644144Y25013767D01*
X16651561Y25012988D01*
X16671008Y25009384D01*
X16684596Y25005743D01*
X16691195Y25005397D01*
X16691196Y25005397D01*
X16752885Y25002164D01*
X16759460Y25001647D01*
X16773722Y25000148D01*
X16779890Y24999500D01*
X16800425Y24999500D01*
X16807019Y24999327D01*
X16868717Y24996093D01*
X16868722Y24996093D01*
X16875309Y24995748D01*
X16889207Y24997949D01*
X16908916Y24999500D01*
X17020764Y24999500D01*
X17088885Y24979498D01*
X17129158Y24933475D01*
X17130487Y24934298D01*
X17223611Y24783811D01*
X17348857Y24658784D01*
X17355087Y24654944D01*
X17492394Y24570306D01*
X17499506Y24565922D01*
X17579060Y24539535D01*
X17660949Y24512374D01*
X17660951Y24512374D01*
X17667477Y24510209D01*
X17674314Y24509509D01*
X17674316Y24509508D01*
X17717203Y24505114D01*
X17771996Y24499500D01*
X18947004Y24499500D01*
X18950248Y24499837D01*
X18950256Y24499837D01*
X18995857Y24504569D01*
X19052829Y24510480D01*
X19220702Y24566487D01*
X19326158Y24631745D01*
X19364963Y24655758D01*
X19364964Y24655759D01*
X19371189Y24659611D01*
X19496216Y24784857D01*
X19584343Y24927824D01*
X19585238Y24929276D01*
X19585239Y24929278D01*
X19589078Y24935506D01*
X19630888Y25061559D01*
X19642626Y25096949D01*
X19642626Y25096951D01*
X19644791Y25103477D01*
X19649151Y25146025D01*
X19655126Y25204350D01*
X19655500Y25207996D01*
X19655500Y26608004D01*
X19655128Y26611598D01*
X19647951Y26680763D01*
X19644520Y26713829D01*
X19588513Y26881702D01*
X19515723Y26999330D01*
X19499242Y27025963D01*
X19499241Y27025964D01*
X19495389Y27032189D01*
X19370143Y27157216D01*
X19230161Y27243503D01*
X19225724Y27246238D01*
X19225722Y27246239D01*
X19219494Y27250078D01*
X19058916Y27303339D01*
X19058051Y27303626D01*
X19058049Y27303626D01*
X19051523Y27305791D01*
X19044686Y27306491D01*
X19044684Y27306492D01*
X19001797Y27310886D01*
X18947004Y27316500D01*
X17771996Y27316500D01*
X17768752Y27316163D01*
X17768744Y27316163D01*
X17730938Y27312240D01*
X17666171Y27305520D01*
X17498298Y27249513D01*
X17492066Y27245657D01*
X17492067Y27245657D01*
X17354183Y27160332D01*
X17347811Y27156389D01*
X17222784Y27031143D01*
X17218942Y27024911D01*
X17218941Y27024909D01*
X17217334Y27022303D01*
X17215773Y27020898D01*
X17214404Y27019165D01*
X17214107Y27019399D01*
X17164560Y26974813D01*
X17094488Y26963393D01*
X17029365Y26991670D01*
X17020983Y26999330D01*
X16293405Y27726908D01*
X16259379Y27789220D01*
X16256500Y27816003D01*
X16256500Y28178634D01*
X16249745Y28240816D01*
X16198615Y28377205D01*
X16111261Y28493761D01*
X15994705Y28581115D01*
X15858316Y28632245D01*
X15796134Y28639000D01*
X14810866Y28639000D01*
X14748684Y28632245D01*
X14612295Y28581115D01*
X14572063Y28550963D01*
X14505559Y28526116D01*
X14436177Y28541169D01*
X14385946Y28591343D01*
X14370500Y28651790D01*
X14370500Y29547658D01*
X14378518Y29591887D01*
X14405473Y29663789D01*
X14405473Y29663791D01*
X14408245Y29671184D01*
X14415000Y29733366D01*
X14415000Y31226634D01*
X14408245Y31288816D01*
X14357115Y31425205D01*
X14269761Y31541761D01*
X14153205Y31629115D01*
X14016816Y31680245D01*
X13954634Y31687000D01*
X12969366Y31687000D01*
X12907184Y31680245D01*
X12770795Y31629115D01*
X12654239Y31541761D01*
X12648858Y31534581D01*
X12577175Y31438935D01*
X12520316Y31396420D01*
X12476349Y31388500D01*
X12288651Y31388500D01*
X12220530Y31408502D01*
X12187825Y31438935D01*
X12116142Y31534581D01*
X12110761Y31541761D01*
X11994205Y31629115D01*
X11857816Y31680245D01*
X11795634Y31687000D01*
X10810366Y31687000D01*
X10748184Y31680245D01*
X10611795Y31629115D01*
X10495239Y31541761D01*
X10451326Y31483168D01*
X10394467Y31440653D01*
X10323648Y31435627D01*
X10261355Y31469687D01*
X10249674Y31483168D01*
X10205761Y31541761D01*
X10089205Y31629115D01*
X9952816Y31680245D01*
X9890634Y31687000D01*
X8905366Y31687000D01*
X8843184Y31680245D01*
X8706795Y31629115D01*
X8590239Y31541761D01*
X8502885Y31425205D01*
X8451755Y31288816D01*
X8445000Y31226634D01*
X8445000Y29733366D01*
X889500Y29733366D01*
X889500Y33162366D01*
X20764000Y33162366D01*
X20770755Y33100184D01*
X20821885Y32963795D01*
X20909239Y32847239D01*
X20916419Y32841858D01*
X21012065Y32770175D01*
X21054580Y32713316D01*
X21062500Y32669349D01*
X21062500Y31054177D01*
X21060949Y31034468D01*
X21058748Y31020570D01*
X21059093Y31013983D01*
X21059093Y31013978D01*
X21062327Y30952280D01*
X21062500Y30945686D01*
X21062500Y30925150D01*
X21062844Y30921878D01*
X21062844Y30921876D01*
X21064647Y30904718D01*
X21065164Y30898144D01*
X21068743Y30829857D01*
X21070453Y30823476D01*
X21070453Y30823474D01*
X21072383Y30816269D01*
X21075985Y30796835D01*
X21076766Y30789406D01*
X21076768Y30789397D01*
X21077458Y30782832D01*
X21098600Y30717763D01*
X21100467Y30711461D01*
X21118171Y30645390D01*
X21124559Y30632853D01*
X21132125Y30614587D01*
X21136473Y30601204D01*
X21139776Y30595482D01*
X21139777Y30595481D01*
X21156059Y30567280D01*
X21172940Y30504280D01*
X21172940Y28689426D01*
X21179695Y28627244D01*
X21230825Y28490855D01*
X21318179Y28374299D01*
X21434735Y28286945D01*
X21571124Y28235815D01*
X21633306Y28229060D01*
X21700000Y28229060D01*
X21768121Y28209058D01*
X21814614Y28155402D01*
X21826000Y28103060D01*
X21826000Y27391368D01*
X21805998Y27323247D01*
X21752342Y27276754D01*
X21739877Y27271845D01*
X21680007Y27251870D01*
X21680005Y27251869D01*
X21673054Y27249550D01*
X21522652Y27156478D01*
X21397695Y27031303D01*
X21393855Y27025073D01*
X21393854Y27025072D01*
X21349394Y26952944D01*
X21304885Y26880738D01*
X21249203Y26712861D01*
X21238500Y26608400D01*
X21238500Y25207600D01*
X21249474Y25101834D01*
X21251655Y25095298D01*
X21251655Y25095296D01*
X21279115Y25012988D01*
X21305450Y24934054D01*
X21398522Y24783652D01*
X21523697Y24658695D01*
X21529927Y24654855D01*
X21529928Y24654854D01*
X21667090Y24570306D01*
X21674262Y24565885D01*
X21754005Y24539436D01*
X21835611Y24512368D01*
X21835613Y24512368D01*
X21842139Y24510203D01*
X21848975Y24509503D01*
X21848978Y24509502D01*
X21892031Y24505091D01*
X21946600Y24499500D01*
X23122400Y24499500D01*
X23125646Y24499837D01*
X23125650Y24499837D01*
X23221308Y24509762D01*
X23221312Y24509763D01*
X23228166Y24510474D01*
X23234702Y24512655D01*
X23234704Y24512655D01*
X23366806Y24556728D01*
X23395946Y24566450D01*
X23546348Y24659522D01*
X23671305Y24784697D01*
X23764115Y24935262D01*
X23819797Y25103139D01*
X23820533Y25110316D01*
X23830172Y25204402D01*
X23830500Y25207600D01*
X23830500Y26608400D01*
X23822867Y26681969D01*
X23820238Y26707308D01*
X23820237Y26707312D01*
X23819526Y26714166D01*
X23763550Y26881946D01*
X23670478Y27032348D01*
X23545303Y27157305D01*
X23405465Y27243503D01*
X23400968Y27246275D01*
X23400966Y27246276D01*
X23394738Y27250115D01*
X23347212Y27265879D01*
X23329333Y27271809D01*
X23270973Y27312240D01*
X23243736Y27377804D01*
X23243000Y27391402D01*
X23243000Y28103060D01*
X23263002Y28171181D01*
X23316658Y28217674D01*
X23369000Y28229060D01*
X24279734Y28229060D01*
X24341916Y28235815D01*
X24478305Y28286945D01*
X24594861Y28374299D01*
X24682215Y28490855D01*
X24733345Y28627244D01*
X24740100Y28689426D01*
X24740100Y31285054D01*
X24733345Y31347236D01*
X24682215Y31483625D01*
X24633641Y31548436D01*
X24608795Y31614942D01*
X24623848Y31684324D01*
X24674023Y31734554D01*
X24734469Y31750000D01*
X25000885Y31750000D01*
X25016124Y31754475D01*
X25017329Y31755865D01*
X25019000Y31763548D01*
X25019000Y31768116D01*
X25527000Y31768116D01*
X25531475Y31752877D01*
X25532865Y31751672D01*
X25540548Y31750001D01*
X26079669Y31750001D01*
X26086490Y31750371D01*
X26137352Y31755895D01*
X26152604Y31759521D01*
X26273054Y31804676D01*
X26288649Y31813214D01*
X26390724Y31889715D01*
X26403284Y31902275D01*
X26442173Y31954165D01*
X26499032Y31996681D01*
X26569851Y32001707D01*
X26632144Y31967647D01*
X26643827Y31954165D01*
X26682716Y31902275D01*
X26695276Y31889715D01*
X26797351Y31813214D01*
X26812946Y31804676D01*
X26933394Y31759522D01*
X26948649Y31755895D01*
X26999514Y31750369D01*
X27006328Y31750000D01*
X27540885Y31750000D01*
X27556124Y31754475D01*
X27557329Y31755865D01*
X27559000Y31763548D01*
X27559000Y31768116D01*
X28067000Y31768116D01*
X28071475Y31752877D01*
X28072865Y31751672D01*
X28080548Y31750001D01*
X28619669Y31750001D01*
X28626490Y31750371D01*
X28677352Y31755895D01*
X28692604Y31759521D01*
X28813054Y31804676D01*
X28828649Y31813214D01*
X28930724Y31889715D01*
X28943285Y31902276D01*
X29019786Y32004351D01*
X29028324Y32019946D01*
X29073478Y32140394D01*
X29077105Y32155649D01*
X29082631Y32206514D01*
X29083000Y32213328D01*
X29083000Y32747885D01*
X29078525Y32763124D01*
X29077135Y32764329D01*
X29069452Y32766000D01*
X28085115Y32766000D01*
X28069876Y32761525D01*
X28068671Y32760135D01*
X28067000Y32752452D01*
X28067000Y31768116D01*
X27559000Y31768116D01*
X27559000Y32747885D01*
X27554525Y32763124D01*
X27553135Y32764329D01*
X27545452Y32766000D01*
X25545115Y32766000D01*
X25529876Y32761525D01*
X25528671Y32760135D01*
X25527000Y32752452D01*
X25527000Y31768116D01*
X25019000Y31768116D01*
X25019000Y32747885D01*
X25014525Y32763124D01*
X25013135Y32764329D01*
X25005452Y32766000D01*
X24021116Y32766000D01*
X24005877Y32761525D01*
X24004672Y32760135D01*
X24003001Y32752452D01*
X24003001Y32213331D01*
X24003371Y32206510D01*
X24008895Y32155648D01*
X24012521Y32140396D01*
X24057676Y32019946D01*
X24066214Y32004352D01*
X24109208Y31946985D01*
X24134056Y31880479D01*
X24119003Y31811096D01*
X24068829Y31760866D01*
X24008382Y31745420D01*
X23005500Y31745420D01*
X22937379Y31765422D01*
X22890886Y31819078D01*
X22879500Y31871420D01*
X22879500Y32669349D01*
X22899502Y32737470D01*
X22929935Y32770175D01*
X23025581Y32841858D01*
X23032761Y32847239D01*
X23120115Y32963795D01*
X23171245Y33100184D01*
X23178000Y33162366D01*
X23178000Y34147634D01*
X23171245Y34209816D01*
X23120115Y34346205D01*
X23114730Y34353390D01*
X23114729Y34353392D01*
X23042374Y34449935D01*
X23017526Y34516442D01*
X23032579Y34585824D01*
X23082753Y34636054D01*
X23143200Y34651500D01*
X23935492Y34651500D01*
X24003613Y34631498D01*
X24050106Y34577842D01*
X24053473Y34569732D01*
X24060385Y34551295D01*
X24065765Y34544116D01*
X24065767Y34544113D01*
X24103826Y34493332D01*
X24147739Y34434739D01*
X24206749Y34390513D01*
X24249264Y34333656D01*
X24254290Y34262837D01*
X24220230Y34200544D01*
X24206749Y34188862D01*
X24155276Y34150285D01*
X24142715Y34137724D01*
X24066214Y34035649D01*
X24057676Y34020054D01*
X24012522Y33899606D01*
X24008895Y33884351D01*
X24003369Y33833486D01*
X24003000Y33826672D01*
X24003000Y33292115D01*
X24007475Y33276876D01*
X24008865Y33275671D01*
X24016548Y33274000D01*
X29064884Y33274000D01*
X29080123Y33278475D01*
X29081328Y33279865D01*
X29082999Y33287548D01*
X29082999Y33826669D01*
X29082629Y33833490D01*
X29077105Y33884352D01*
X29073479Y33899604D01*
X29028324Y34020054D01*
X29019786Y34035649D01*
X28943285Y34137724D01*
X28930724Y34150285D01*
X28879251Y34188862D01*
X28836736Y34245721D01*
X28831710Y34316540D01*
X28865770Y34378833D01*
X28879245Y34390509D01*
X28938261Y34434739D01*
X29025615Y34551295D01*
X29076745Y34687684D01*
X29083500Y34749866D01*
X29083500Y36370134D01*
X29076745Y36432316D01*
X29025615Y36568705D01*
X28938261Y36685261D01*
X28879251Y36729487D01*
X28836736Y36786344D01*
X28831710Y36857163D01*
X28865770Y36919456D01*
X28879251Y36931138D01*
X28930724Y36969715D01*
X28943285Y36982276D01*
X29019786Y37084351D01*
X29028324Y37099946D01*
X29073478Y37220394D01*
X29077105Y37235649D01*
X29082631Y37286514D01*
X29083000Y37293328D01*
X29083000Y37827885D01*
X29078525Y37843124D01*
X29077135Y37844329D01*
X29069452Y37846000D01*
X24021116Y37846000D01*
X24005877Y37841525D01*
X24004672Y37840135D01*
X24003001Y37832452D01*
X24003001Y37293331D01*
X24003371Y37286510D01*
X24008895Y37235648D01*
X24012521Y37220396D01*
X24057676Y37099946D01*
X24066214Y37084351D01*
X24142715Y36982276D01*
X24155276Y36969715D01*
X24206749Y36931138D01*
X24249264Y36874279D01*
X24254290Y36803460D01*
X24220230Y36741167D01*
X24206755Y36729491D01*
X24147739Y36685261D01*
X24142358Y36678081D01*
X24065767Y36575887D01*
X24065765Y36575884D01*
X24060385Y36568705D01*
X24057236Y36560304D01*
X24057234Y36560301D01*
X24053473Y36550268D01*
X24010831Y36493504D01*
X23944269Y36468806D01*
X23935492Y36468500D01*
X22903342Y36468500D01*
X22859113Y36476518D01*
X22787211Y36503473D01*
X22787209Y36503473D01*
X22779816Y36506245D01*
X22771968Y36507098D01*
X22771966Y36507098D01*
X22721031Y36512631D01*
X22717634Y36513000D01*
X21224366Y36513000D01*
X21162184Y36506245D01*
X21025795Y36455115D01*
X20909239Y36367761D01*
X20821885Y36251205D01*
X20770755Y36114816D01*
X20764000Y36052634D01*
X20764000Y35067366D01*
X20770755Y35005184D01*
X20821885Y34868795D01*
X20909239Y34752239D01*
X20916419Y34746858D01*
X20967832Y34708326D01*
X21010347Y34651467D01*
X21015373Y34580648D01*
X20981313Y34518355D01*
X20967833Y34506675D01*
X20909239Y34462761D01*
X20821885Y34346205D01*
X20770755Y34209816D01*
X20764000Y34147634D01*
X20764000Y33162366D01*
X889500Y33162366D01*
X889500Y38372115D01*
X24003000Y38372115D01*
X24007475Y38356876D01*
X24008865Y38355671D01*
X24016548Y38354000D01*
X25000885Y38354000D01*
X25016124Y38358475D01*
X25017329Y38359865D01*
X25019000Y38367548D01*
X25019000Y38372115D01*
X25527000Y38372115D01*
X25531475Y38356876D01*
X25532865Y38355671D01*
X25540548Y38354000D01*
X27540885Y38354000D01*
X27556124Y38358475D01*
X27557329Y38359865D01*
X27559000Y38367548D01*
X27559000Y38372115D01*
X28067000Y38372115D01*
X28071475Y38356876D01*
X28072865Y38355671D01*
X28080548Y38354000D01*
X29064884Y38354000D01*
X29080123Y38358475D01*
X29081328Y38359865D01*
X29082999Y38367548D01*
X29082999Y38906669D01*
X29082629Y38913490D01*
X29077105Y38964352D01*
X29073479Y38979604D01*
X29028324Y39100054D01*
X29019786Y39115649D01*
X28943285Y39217724D01*
X28930724Y39230285D01*
X28828649Y39306786D01*
X28813054Y39315324D01*
X28692606Y39360478D01*
X28677351Y39364105D01*
X28626486Y39369631D01*
X28619672Y39370000D01*
X28085115Y39370000D01*
X28069876Y39365525D01*
X28068671Y39364135D01*
X28067000Y39356452D01*
X28067000Y38372115D01*
X27559000Y38372115D01*
X27559000Y39351884D01*
X27554525Y39367123D01*
X27553135Y39368328D01*
X27545452Y39369999D01*
X27006331Y39369999D01*
X26999510Y39369629D01*
X26948648Y39364105D01*
X26933396Y39360479D01*
X26812946Y39315324D01*
X26797351Y39306786D01*
X26695276Y39230285D01*
X26682716Y39217725D01*
X26643827Y39165835D01*
X26586968Y39123319D01*
X26516149Y39118293D01*
X26453856Y39152353D01*
X26442173Y39165835D01*
X26403284Y39217725D01*
X26390724Y39230285D01*
X26288649Y39306786D01*
X26273054Y39315324D01*
X26152606Y39360478D01*
X26137351Y39364105D01*
X26086486Y39369631D01*
X26079672Y39370000D01*
X25545115Y39370000D01*
X25529876Y39365525D01*
X25528671Y39364135D01*
X25527000Y39356452D01*
X25527000Y38372115D01*
X25019000Y38372115D01*
X25019000Y39351884D01*
X25014525Y39367123D01*
X25013135Y39368328D01*
X25005452Y39369999D01*
X24466331Y39369999D01*
X24459510Y39369629D01*
X24408648Y39364105D01*
X24393396Y39360479D01*
X24272946Y39315324D01*
X24257351Y39306786D01*
X24155276Y39230285D01*
X24142715Y39217724D01*
X24066214Y39115649D01*
X24057676Y39100054D01*
X24012522Y38979606D01*
X24008895Y38964351D01*
X24003369Y38913486D01*
X24003000Y38906672D01*
X24003000Y38372115D01*
X889500Y38372115D01*
X889500Y39751500D01*
X909502Y39819621D01*
X963158Y39866114D01*
X1015500Y39877500D01*
X29718500Y39877500D01*
X29786621Y39857498D01*
G37*
%TD.AperFunction*%
%TA.AperFunction,Conductor*%
G36*
X17543575Y16836291D02*
G01*
X17593691Y16786003D01*
X17596933Y16778903D01*
X17599234Y16774701D01*
X17602385Y16766295D01*
X17689739Y16649739D01*
X17806295Y16562385D01*
X17942684Y16511255D01*
X18004866Y16504500D01*
X18142587Y16504500D01*
X18210708Y16484498D01*
X18257201Y16430842D01*
X18267305Y16360568D01*
X18240904Y16302761D01*
X18242239Y16301761D01*
X18154885Y16185205D01*
X18150854Y16174453D01*
X18129343Y16117072D01*
X18086701Y16060308D01*
X18020140Y16035608D01*
X17950791Y16050815D01*
X17935796Y16060476D01*
X17843392Y16129729D01*
X17843390Y16129730D01*
X17836205Y16135115D01*
X17699816Y16186245D01*
X17643940Y16192315D01*
X17641031Y16192631D01*
X17637634Y16193000D01*
X17416577Y16193000D01*
X17348456Y16213002D01*
X17301963Y16266658D01*
X17291267Y16305829D01*
X17277232Y16439366D01*
X17277231Y16439369D01*
X17276542Y16445928D01*
X17249910Y16527893D01*
X17247883Y16598861D01*
X17276843Y16649303D01*
X17276261Y16649739D01*
X17279819Y16654487D01*
X17363615Y16766295D01*
X17366767Y16774703D01*
X17371077Y16782575D01*
X17373457Y16781272D01*
X17407664Y16826804D01*
X17474227Y16851501D01*
X17543575Y16836291D01*
G37*
%TD.AperFunction*%
%TA.AperFunction,Conductor*%
G36*
X17507645Y18618477D02*
G01*
X17541635Y18556146D01*
X17544500Y18529431D01*
X17544500Y18046569D01*
X17524498Y17978448D01*
X17470842Y17931955D01*
X17400568Y17921851D01*
X17335988Y17951345D01*
X17317674Y17971004D01*
X17281643Y18019080D01*
X17281642Y18019081D01*
X17276261Y18026261D01*
X17159705Y18113615D01*
X17023316Y18164745D01*
X17016010Y18165539D01*
X16954576Y18200635D01*
X16921756Y18263590D01*
X16928182Y18334295D01*
X16971814Y18390302D01*
X17015940Y18410454D01*
X17023316Y18411255D01*
X17159705Y18462385D01*
X17276261Y18549739D01*
X17317674Y18604996D01*
X17374533Y18647511D01*
X17445352Y18652537D01*
X17507645Y18618477D01*
G37*
%TD.AperFunction*%
%TA.AperFunction,Conductor*%
G36*
X20911209Y20525185D02*
G01*
X20926204Y20515524D01*
X21012671Y20450721D01*
X21025795Y20440885D01*
X21034201Y20437734D01*
X21039145Y20435027D01*
X21089291Y20384769D01*
X21104305Y20315378D01*
X21079420Y20248886D01*
X21067731Y20235412D01*
X20364224Y19531905D01*
X20301912Y19497879D01*
X20275129Y19495000D01*
X20216871Y19495000D01*
X20148750Y19515002D01*
X20102257Y19568658D01*
X20092153Y19638932D01*
X20121647Y19703512D01*
X20127776Y19710095D01*
X20300911Y19883230D01*
X20315323Y19895616D01*
X20326918Y19904149D01*
X20326923Y19904154D01*
X20332818Y19908492D01*
X20337557Y19914070D01*
X20337560Y19914073D01*
X20367035Y19948768D01*
X20373965Y19956284D01*
X20379660Y19961979D01*
X20397281Y19984251D01*
X20400072Y19987655D01*
X20442591Y20037703D01*
X20442592Y20037705D01*
X20447333Y20043285D01*
X20450661Y20049801D01*
X20454020Y20054838D01*
X20457194Y20059977D01*
X20461734Y20065716D01*
X20492636Y20131837D01*
X20494568Y20135790D01*
X20518200Y20182068D01*
X20554850Y20225591D01*
X20585933Y20248886D01*
X20619761Y20274239D01*
X20707115Y20390795D01*
X20732657Y20458928D01*
X20775299Y20515692D01*
X20841860Y20540392D01*
X20911209Y20525185D01*
G37*
%TD.AperFunction*%
%TA.AperFunction,Conductor*%
G36*
X12495621Y29551498D02*
G01*
X12542114Y29497842D01*
X12553500Y29445500D01*
X12553500Y28486049D01*
X12533498Y28417928D01*
X12528335Y28410496D01*
X12503385Y28377205D01*
X12452255Y28240816D01*
X12445500Y28178634D01*
X12445500Y27243503D01*
X12425498Y27175382D01*
X12371842Y27128889D01*
X12301568Y27118785D01*
X12236988Y27148279D01*
X12230405Y27154408D01*
X11657905Y27726908D01*
X11623879Y27789220D01*
X11621000Y27816003D01*
X11621000Y28178634D01*
X11614245Y28240816D01*
X11563115Y28377205D01*
X11475761Y28493761D01*
X11359205Y28581115D01*
X11222816Y28632245D01*
X11160634Y28639000D01*
X11052003Y28639000D01*
X10983882Y28659002D01*
X10962908Y28675905D01*
X10536915Y29101898D01*
X10502889Y29164210D01*
X10507954Y29235025D01*
X10550501Y29291861D01*
X10617021Y29316672D01*
X10670240Y29308975D01*
X10748184Y29279755D01*
X10810366Y29273000D01*
X11795634Y29273000D01*
X11857816Y29279755D01*
X11994205Y29330885D01*
X12110761Y29418239D01*
X12187825Y29521065D01*
X12244684Y29563580D01*
X12288651Y29571500D01*
X12427500Y29571500D01*
X12495621Y29551498D01*
G37*
%TD.AperFunction*%
%TD*%
M02*
